<?xml version="1.0" encoding="UTF-8" standalone="no"?><svg xmlns="http://www.w3.org/2000/svg" xmlns:xlink="http://www.w3.org/1999/xlink" contentScriptType="application/ecmascript" contentStyleType="text/css" height="806.25px" preserveAspectRatio="none" style="width:588px;height:806px;" version="1.1" viewBox="0 0 588 806" width="588.75px" zoomAndPan="magnify"><defs><filter height="300%" id="f88hk4zn1i9qd" width="300%" x="-1" y="-1"><feGaussianBlur result="blurOut" stdDeviation="1.5"/><feColorMatrix in="blurOut" result="blurOut2" type="matrix" values="0 0 0 0 0 0 0 0 0 0 0 0 0 0 0 0 0 0 .4 0"/><feOffset dx="3.0" dy="3.0" in="blurOut2" result="blurOut3"/><feBlend in="SourceGraphic" in2="blurOut3" mode="normal"/></filter></defs><g><!--class Contract--><rect fill="#FEFECE" filter="url(#f88hk4zn1i9qd)" height="98.0742" id="Contract" style="stroke: #A80036; stroke-width: 1.125;" width="197.25" x="157.125" y="6"/><ellipse cx="206.0625" cy="20.2266" fill="#FF8C00" rx="8.25" ry="8.25" style="stroke: #A80036; stroke-width: 0.75;"/><path d="M206.9648,20.332 Q207.2344,20.3906 207.4336,20.6016 Q207.6445,20.8008 207.9375,21.3867 L209.6133,24.7266 L207.5977,24.7266 L206.4727,22.3828 Q206.4258,22.2773 206.3438,22.1016 Q205.8516,21.0586 205.1836,21.0586 L204.5977,21.0586 L204.5977,24.7266 L202.7695,24.7266 L202.7695,15.4336 L205.418,15.4336 Q207.2109,15.4336 207.9844,16.0664 Q208.7695,16.6992 208.7695,18.1289 Q208.7695,19.0898 208.3008,19.6641 Q207.8438,20.2266 206.9648,20.332 Z M204.5977,16.9805 L204.5977,19.5117 L205.4648,19.5117 Q206.2266,19.5117 206.543,19.2188 Q206.8711,18.9141 206.8711,18.2344 Q206.8711,17.5664 206.543,17.2734 Q206.2266,16.9805 205.4648,16.9805 L204.5977,16.9805 Z "/><text fill="#000000" font-family="sans-serif" font-size="9" font-style="italic" lengthAdjust="spacingAndGlyphs" textLength="96" x="219.9375" y="18.104">«External Resource»</text><text fill="#000000" font-family="sans-serif" font-size="9" lengthAdjust="spacingAndGlyphs" textLength="40.5" x="247.6875" y="28.5806">Contract</text><line style="stroke: #A80036; stroke-width: 1.125;" x1="157.875" x2="353.625" y1="34.4531" y2="34.4531"/><ellipse cx="165.375" cy="43.3799" fill="none" rx="2.25" ry="2.25" style="stroke: #038048; stroke-width: 0.75;"/><text fill="#000000" font-family="sans-serif" font-size="8.25" lengthAdjust="spacingAndGlyphs" textLength="55.5" x="172.125" y="45.111">name: String</text><ellipse cx="165.375" cy="52.9834" fill="none" rx="2.25" ry="2.25" style="stroke: #038048; stroke-width: 0.75;"/><text fill="#000000" font-family="sans-serif" font-size="8.25" lengthAdjust="spacingAndGlyphs" textLength="32.25" x="172.125" y="54.7145">abi: ABI</text><ellipse cx="165.375" cy="62.5869" fill="none" rx="2.25" ry="2.25" style="stroke: #038048; stroke-width: 0.75;"/><text fill="#000000" font-family="sans-serif" font-size="8.25" lengthAdjust="spacingAndGlyphs" textLength="105" x="172.125" y="64.318">constructor: Constructor</text><line style="stroke: #A80036; stroke-width: 1.125;" x1="157.875" x2="353.625" y1="69.2637" y2="69.2637"/><ellipse cx="165.375" cy="78.1904" fill="#84BE84" rx="2.25" ry="2.25" style="stroke: #038048; stroke-width: 0.75;"/><text fill="#000000" font-family="sans-serif" font-size="8.25" lengthAdjust="spacingAndGlyphs" textLength="145.5" x="172.125" y="79.9215">compilation: Maybe&lt;Compilation&gt;</text><ellipse cx="165.375" cy="87.7939" fill="#84BE84" rx="2.25" ry="2.25" style="stroke: #038048; stroke-width: 0.75;"/><text fill="#000000" font-family="sans-serif" font-size="8.25" lengthAdjust="spacingAndGlyphs" textLength="177.75" x="172.125" y="89.525">sourceContract: Maybe&lt;SourceContract&gt;</text><ellipse cx="165.375" cy="97.3975" fill="#84BE84" rx="2.25" ry="2.25" style="stroke: #038048; stroke-width: 0.75;"/><text fill="#000000" font-family="sans-serif" font-size="8.25" lengthAdjust="spacingAndGlyphs" textLength="117" x="172.125" y="99.1285">interface: ContractInterface</text><!--class Bytecode--><rect fill="#FEFECE" filter="url(#f88hk4zn1i9qd)" height="78.8672" id="Bytecode" style="stroke: #A80036; stroke-width: 1.125;" width="177.75" x="223.125" y="719.25"/><ellipse cx="282.9375" cy="733.4766" fill="#DA70D6" rx="8.25" ry="8.25" style="stroke: #A80036; stroke-width: 0.75;"/><path d="M283.8398,733.582 Q284.1094,733.6406 284.3086,733.8516 Q284.5195,734.0508 284.8125,734.6367 L286.4883,737.9766 L284.4727,737.9766 L283.3477,735.6328 Q283.3008,735.5273 283.2188,735.3516 Q282.7266,734.3086 282.0586,734.3086 L281.4727,734.3086 L281.4727,737.9766 L279.6445,737.9766 L279.6445,728.6836 L282.293,728.6836 Q284.0859,728.6836 284.8594,729.3164 Q285.6445,729.9492 285.6445,731.3789 Q285.6445,732.3398 285.1758,732.9141 Q284.7188,733.4766 283.8398,733.582 Z M281.4727,730.2305 L281.4727,732.7617 L282.3398,732.7617 Q283.1016,732.7617 283.418,732.4688 Q283.7461,732.1641 283.7461,731.4844 Q283.7461,730.8164 283.418,730.5234 Q283.1016,730.2305 282.3398,730.2305 L281.4727,730.2305 Z "/><text fill="#000000" font-family="sans-serif" font-size="9" font-style="italic" lengthAdjust="spacingAndGlyphs" textLength="54.75" x="296.8125" y="731.354">«Resource»</text><text fill="#000000" font-family="sans-serif" font-size="9" lengthAdjust="spacingAndGlyphs" textLength="43.5" x="302.4375" y="741.8306">Bytecode</text><line style="stroke: #A80036; stroke-width: 1.125;" x1="223.875" x2="400.125" y1="747.7031" y2="747.7031"/><ellipse cx="231.375" cy="756.6299" fill="none" rx="2.25" ry="2.25" style="stroke: #038048; stroke-width: 0.75;"/><text fill="#000000" font-family="sans-serif" font-size="8.25" lengthAdjust="spacingAndGlyphs" textLength="53.25" x="238.125" y="758.361">bytes: Bytes</text><ellipse cx="231.375" cy="766.2334" fill="none" rx="2.25" ry="2.25" style="stroke: #038048; stroke-width: 0.75;"/><text fill="#000000" font-family="sans-serif" font-size="8.25" lengthAdjust="spacingAndGlyphs" textLength="158.25" x="238.125" y="767.9645">linkReferences : Set&lt;LinkReference&gt;</text><ellipse cx="231.375" cy="775.8369" fill="#84BE84" rx="2.25" ry="2.25" style="stroke: #038048; stroke-width: 0.75;"/><text fill="#000000" font-family="sans-serif" font-size="8.25" lengthAdjust="spacingAndGlyphs" textLength="137.25" x="238.125" y="777.568">instructions: Array&lt;Instruction&gt;</text><line style="stroke: #A80036; stroke-width: 0.75; stroke-dasharray: 1.0,2.0;" x1="223.875" x2="400.125" y1="782.5137" y2="782.5137"/><rect fill="none" height="4.5" style="stroke: #C82930; stroke-width: 0.75;" width="4.5" x="229.125" y="789.1904"/><path d="M242.6563,787.5547 C241.7075,787.5547 240.9375,788.3247 240.9375,789.2734 C240.9375,789.3834 240.9602,789.4776 240.9808,789.5746 L238.875,791.6804 L238.875,793.0554 L240.9375,793.0554 L240.9375,791.6804 L242.3125,791.6804 L242.3125,790.9929 L242.3558,790.9496 C242.4521,790.9702 242.5463,790.9929 242.6569,790.9929 C243.6057,790.9929 244.3757,790.2229 244.3757,789.2741 C244.3757,788.3254 243.6057,787.5554 242.6569,787.5554 M243.0007,788.2429 C243.3788,788.2429 243.6882,788.5523 243.6882,788.9304 C243.6882,789.3085 243.3788,789.6179 243.0007,789.6179 C242.6226,789.6179 242.3132,789.3085 242.3132,788.9304 C242.3132,788.5523 242.6226,788.2429 243.0007,788.2429 " fill="#000000" style="stroke: ; stroke-width: 0.0; stroke-dasharray: ;"/><text fill="#000000" font-family="sans-serif" font-size="8.25" lengthAdjust="spacingAndGlyphs" textLength="21.75" x="248.125" y="793.1715">id: ID</text><text fill="#000000" font-family="sans-serif" font-size="8.25" font-style="italic" lengthAdjust="spacingAndGlyphs" textLength="33.75" x="272.875" y="793.1715">= hash(</text><text fill="#000000" font-family="sans-serif" font-size="8.25" lengthAdjust="spacingAndGlyphs" textLength="0" x="309.625" y="793.1715"/><text fill="#000000" font-family="Andale Mono" font-size="8.25" lengthAdjust="spacingAndGlyphs" textLength="23.25" x="309.625" y="793.1715">bytes</text><text fill="#000000" font-family="sans-serif" font-size="8.25" lengthAdjust="spacingAndGlyphs" textLength="0" x="335.875" y="793.1715"/><text fill="#000000" font-family="sans-serif" font-size="8.25" font-style="italic" lengthAdjust="spacingAndGlyphs" textLength="3" x="335.875" y="793.1715">)</text><!--class Instruction--><rect fill="#FEFECE" filter="url(#f88hk4zn1i9qd)" height="78.8672" id="Instruction" style="stroke: #A80036; stroke-width: 1.125;" width="121.5" x="335.25" y="549.75"/><ellipse cx="362.025" cy="563.9766" fill="#7CFC00" rx="8.25" ry="8.25" style="stroke: #A80036; stroke-width: 0.75;"/><path d="M362.107,560.6602 Q361.4039,560.6602 361.0758,561.4102 Q360.7594,562.1602 360.7594,563.8359 Q360.7594,565.5117 361.0758,566.2617 Q361.4039,567.0117 362.107,567.0117 Q362.8219,567.0117 363.1383,566.2617 Q363.4664,565.5117 363.4664,563.8359 Q363.4664,562.1602 363.1383,561.4102 Q362.8219,560.6602 362.107,560.6602 Z M358.8492,563.8359 Q358.8492,561.457 359.6695,560.2383 Q360.5016,559.0078 362.107,559.0078 Q363.7242,559.0078 364.5445,560.2383 Q365.3766,561.457 365.3766,563.8359 Q365.3766,566.2148 364.5445,567.4336 Q363.7242,568.6523 362.107,568.6523 Q360.5016,568.6523 359.6695,567.4336 Q358.8492,566.2148 358.8492,563.8359 Z "/><text fill="#000000" font-family="sans-serif" font-size="9" font-style="italic" lengthAdjust="spacingAndGlyphs" textLength="66" x="374.475" y="561.854">«Data Object»</text><text fill="#000000" font-family="sans-serif" font-size="9" lengthAdjust="spacingAndGlyphs" textLength="50.25" x="382.35" y="572.3306">Instruction</text><line style="stroke: #A80036; stroke-width: 1.125;" x1="336" x2="456" y1="578.2031" y2="578.2031"/><ellipse cx="343.5" cy="587.1299" fill="none" rx="2.25" ry="2.25" style="stroke: #038048; stroke-width: 0.75;"/><text fill="#000000" font-family="sans-serif" font-size="8.25" lengthAdjust="spacingAndGlyphs" textLength="102" x="350.25" y="588.861">programCounter: String</text><ellipse cx="343.5" cy="596.7334" fill="none" rx="2.25" ry="2.25" style="stroke: #038048; stroke-width: 0.75;"/><text fill="#000000" font-family="sans-serif" font-size="8.25" lengthAdjust="spacingAndGlyphs" textLength="66.75" x="350.25" y="598.4645">opcode: Integer</text><ellipse cx="343.5" cy="606.3369" fill="none" rx="2.25" ry="2.25" style="stroke: #038048; stroke-width: 0.75;"/><text fill="#000000" font-family="sans-serif" font-size="8.25" lengthAdjust="spacingAndGlyphs" textLength="72" x="350.25" y="608.068">pushData: String</text><ellipse cx="343.5" cy="615.9404" fill="none" rx="2.25" ry="2.25" style="stroke: #038048; stroke-width: 0.75;"/><text fill="#000000" font-family="sans-serif" font-size="8.25" lengthAdjust="spacingAndGlyphs" textLength="93" x="350.25" y="617.6715">meta: InstructionMeta</text><line style="stroke: #A80036; stroke-width: 1.125;" x1="336" x2="456" y1="622.6172" y2="622.6172"/><!--class InstructionMeta--><rect fill="#FEFECE" filter="url(#f88hk4zn1i9qd)" height="78.8672" id="InstructionMeta" style="stroke: #A80036; stroke-width: 1.125;" width="97.5" x="483" y="549.75"/><ellipse cx="494.25" cy="563.9766" fill="#7CFC00" rx="8.25" ry="8.25" style="stroke: #A80036; stroke-width: 0.75;"/><path d="M494.332,560.6602 Q493.6289,560.6602 493.3008,561.4102 Q492.9844,562.1602 492.9844,563.8359 Q492.9844,565.5117 493.3008,566.2617 Q493.6289,567.0117 494.332,567.0117 Q495.0469,567.0117 495.3633,566.2617 Q495.6914,565.5117 495.6914,563.8359 Q495.6914,562.1602 495.3633,561.4102 Q495.0469,560.6602 494.332,560.6602 Z M491.0742,563.8359 Q491.0742,561.457 491.8945,560.2383 Q492.7266,559.0078 494.332,559.0078 Q495.9492,559.0078 496.7695,560.2383 Q497.6016,561.457 497.6016,563.8359 Q497.6016,566.2148 496.7695,567.4336 Q495.9492,568.6523 494.332,568.6523 Q492.7266,568.6523 491.8945,567.4336 Q491.0742,566.2148 491.0742,563.8359 Z "/><text fill="#000000" font-family="sans-serif" font-size="9" font-style="italic" lengthAdjust="spacingAndGlyphs" textLength="66" x="508.5" y="561.854">«Data Object»</text><text fill="#000000" font-family="sans-serif" font-size="9" lengthAdjust="spacingAndGlyphs" textLength="73.5" x="504.75" y="572.3306">InstructionMeta</text><line style="stroke: #A80036; stroke-width: 1.125;" x1="483.75" x2="579.75" y1="578.2031" y2="578.2031"/><ellipse cx="491.25" cy="587.1299" fill="none" rx="2.25" ry="2.25" style="stroke: #038048; stroke-width: 0.75;"/><text fill="#000000" font-family="sans-serif" font-size="8.25" lengthAdjust="spacingAndGlyphs" textLength="54" x="498" y="588.861">cost: Integer</text><ellipse cx="491.25" cy="596.7334" fill="none" rx="2.25" ry="2.25" style="stroke: #038048; stroke-width: 0.75;"/><text fill="#000000" font-family="sans-serif" font-size="8.25" lengthAdjust="spacingAndGlyphs" textLength="57" x="498" y="598.4645">pops: Integer</text><ellipse cx="491.25" cy="606.3369" fill="none" rx="2.25" ry="2.25" style="stroke: #038048; stroke-width: 0.75;"/><text fill="#000000" font-family="sans-serif" font-size="8.25" lengthAdjust="spacingAndGlyphs" textLength="67.5" x="498" y="608.068">pushes: Integer</text><ellipse cx="491.25" cy="615.9404" fill="none" rx="2.25" ry="2.25" style="stroke: #038048; stroke-width: 0.75;"/><text fill="#000000" font-family="sans-serif" font-size="8.25" lengthAdjust="spacingAndGlyphs" textLength="71.25" x="498" y="617.6715">dynamic: Integer</text><line style="stroke: #A80036; stroke-width: 1.125;" x1="483.75" x2="579.75" y1="622.6172" y2="622.6172"/><!--class Source--><rect fill="#FEFECE" filter="url(#f88hk4zn1i9qd)" height="69.2637" id="Source" style="stroke: #A80036; stroke-width: 1.125;" width="187.75" x="328.5" y="287.625"/><ellipse cx="393.3125" cy="301.8516" fill="#DA70D6" rx="8.25" ry="8.25" style="stroke: #A80036; stroke-width: 0.75;"/><path d="M394.2148,301.957 Q394.4844,302.0156 394.6836,302.2266 Q394.8945,302.4258 395.1875,303.0117 L396.8633,306.3516 L394.8477,306.3516 L393.7227,304.0078 Q393.6758,303.9023 393.5938,303.7266 Q393.1016,302.6836 392.4336,302.6836 L391.8477,302.6836 L391.8477,306.3516 L390.0195,306.3516 L390.0195,297.0586 L392.668,297.0586 Q394.4609,297.0586 395.2344,297.6914 Q396.0195,298.3242 396.0195,299.7539 Q396.0195,300.7148 395.5508,301.2891 Q395.0938,301.8516 394.2148,301.957 Z M391.8477,298.6055 L391.8477,301.1367 L392.7148,301.1367 Q393.4766,301.1367 393.793,300.8438 Q394.1211,300.5391 394.1211,299.8594 Q394.1211,299.1914 393.793,298.8984 Q393.4766,298.6055 392.7148,298.6055 L391.8477,298.6055 Z "/><text fill="#000000" font-family="sans-serif" font-size="9" font-style="italic" lengthAdjust="spacingAndGlyphs" textLength="54.75" x="407.1875" y="299.729">«Resource»</text><text fill="#000000" font-family="sans-serif" font-size="9" lengthAdjust="spacingAndGlyphs" textLength="33" x="418.0625" y="310.2056">Source</text><line style="stroke: #A80036; stroke-width: 1.125;" x1="329.25" x2="515.5" y1="316.0781" y2="316.0781"/><ellipse cx="336.75" cy="325.0049" fill="none" rx="2.25" ry="2.25" style="stroke: #038048; stroke-width: 0.75;"/><text fill="#000000" font-family="sans-serif" font-size="8.25" lengthAdjust="spacingAndGlyphs" textLength="68.25" x="343.5" y="326.736">contents: String</text><ellipse cx="336.75" cy="334.6084" fill="none" rx="2.25" ry="2.25" style="stroke: #038048; stroke-width: 0.75;"/><text fill="#000000" font-family="sans-serif" font-size="8.25" lengthAdjust="spacingAndGlyphs" textLength="120" x="343.5" y="336.3395">sourcePath: Maybe&lt;String&gt;</text><line style="stroke: #A80036; stroke-width: 0.75; stroke-dasharray: 1.0,2.0;" x1="329.25" x2="515.5" y1="341.2852" y2="341.2852"/><rect fill="none" height="4.5" style="stroke: #C82930; stroke-width: 0.75;" width="4.5" x="334.5" y="347.9619"/><path d="M348.0313,346.3262 C347.0825,346.3262 346.3125,347.0962 346.3125,348.0449 C346.3125,348.1549 346.3352,348.2491 346.3558,348.346 L344.25,350.4519 L344.25,351.8269 L346.3125,351.8269 L346.3125,350.4519 L347.6875,350.4519 L347.6875,349.7644 L347.7308,349.721 C347.8271,349.7417 347.9213,349.7644 348.0319,349.7644 C348.9807,349.7644 349.7507,348.9944 349.7507,348.0456 C349.7507,347.0969 348.9807,346.3269 348.0319,346.3269 M348.3757,347.0144 C348.7538,347.0144 349.0632,347.3237 349.0632,347.7019 C349.0632,348.08 348.7538,348.3894 348.3757,348.3894 C347.9976,348.3894 347.6882,348.08 347.6882,347.7019 C347.6882,347.3237 347.9976,347.0144 348.3757,347.0144 " fill="#000000" style="stroke: ; stroke-width: 0.0; stroke-dasharray: ;"/><text fill="#000000" font-family="sans-serif" font-size="8.25" lengthAdjust="spacingAndGlyphs" textLength="21.75" x="353.5" y="351.943">id: ID</text><text fill="#000000" font-family="sans-serif" font-size="8.25" font-style="italic" lengthAdjust="spacingAndGlyphs" textLength="33.75" x="378.25" y="351.943">= hash(</text><text fill="#000000" font-family="sans-serif" font-size="8.25" lengthAdjust="spacingAndGlyphs" textLength="0" x="415" y="351.943"/><text fill="#000000" font-family="Andale Mono" font-size="8.25" lengthAdjust="spacingAndGlyphs" textLength="36.75" x="415" y="351.943">contents</text><text fill="#000000" font-family="sans-serif" font-size="8.25" font-style="italic" lengthAdjust="spacingAndGlyphs" textLength="3" x="451.75" y="351.943">,</text><text fill="#000000" font-family="sans-serif" font-size="8.25" lengthAdjust="spacingAndGlyphs" textLength="0" x="457.75" y="351.943"/><text fill="#000000" font-family="Andale Mono" font-size="8.25" lengthAdjust="spacingAndGlyphs" textLength="48" x="457.75" y="351.943">sourcePath</text><text fill="#000000" font-family="sans-serif" font-size="8.25" lengthAdjust="spacingAndGlyphs" textLength="0" x="508.75" y="351.943"/><text fill="#000000" font-family="sans-serif" font-size="8.25" font-style="italic" lengthAdjust="spacingAndGlyphs" textLength="3" x="508.75" y="351.943">)</text><!--class Compilation--><rect fill="#FEFECE" filter="url(#f88hk4zn1i9qd)" height="98.0742" id="Compilation" style="stroke: #A80036; stroke-width: 1.125;" width="181.75" x="120.75" y="273"/><ellipse cx="181.0625" cy="287.2266" fill="#DA70D6" rx="8.25" ry="8.25" style="stroke: #A80036; stroke-width: 0.75;"/><path d="M181.9648,287.332 Q182.2344,287.3906 182.4336,287.6016 Q182.6445,287.8008 182.9375,288.3867 L184.6133,291.7266 L182.5977,291.7266 L181.4727,289.3828 Q181.4258,289.2773 181.3438,289.1016 Q180.8516,288.0586 180.1836,288.0586 L179.5977,288.0586 L179.5977,291.7266 L177.7695,291.7266 L177.7695,282.4336 L180.418,282.4336 Q182.2109,282.4336 182.9844,283.0664 Q183.7695,283.6992 183.7695,285.1289 Q183.7695,286.0898 183.3008,286.6641 Q182.8438,287.2266 181.9648,287.332 Z M179.5977,283.9805 L179.5977,286.5117 L180.4648,286.5117 Q181.2266,286.5117 181.543,286.2188 Q181.8711,285.9141 181.8711,285.2344 Q181.8711,284.5664 181.543,284.2734 Q181.2266,283.9805 180.4648,283.9805 L179.5977,283.9805 Z "/><text fill="#000000" font-family="sans-serif" font-size="9" font-style="italic" lengthAdjust="spacingAndGlyphs" textLength="54.75" x="196.4375" y="285.104">«Resource»</text><text fill="#000000" font-family="sans-serif" font-size="9" lengthAdjust="spacingAndGlyphs" textLength="54.75" x="196.4375" y="295.5806">Compilation</text><line style="stroke: #A80036; stroke-width: 1.125;" x1="121.5" x2="301.75" y1="301.4531" y2="301.4531"/><ellipse cx="129" cy="310.3799" fill="none" rx="2.25" ry="2.25" style="stroke: #038048; stroke-width: 0.75;"/><text fill="#000000" font-family="sans-serif" font-size="8.25" lengthAdjust="spacingAndGlyphs" textLength="84" x="135.75" y="312.111">compiler : Compiler</text><ellipse cx="129" cy="319.9834" fill="#84BE84" rx="2.25" ry="2.25" style="stroke: #038048; stroke-width: 0.75;"/><text fill="#000000" font-family="sans-serif" font-size="8.25" lengthAdjust="spacingAndGlyphs" textLength="150" x="135.75" y="321.7145">sources : Array&lt;Maybe&lt;Source&gt;&gt;</text><ellipse cx="129" cy="329.5869" fill="#84BE84" rx="2.25" ry="2.25" style="stroke: #038048; stroke-width: 0.75;"/><text fill="#000000" font-family="sans-serif" font-size="8.25" lengthAdjust="spacingAndGlyphs" textLength="150.75" x="135.75" y="331.318">contracts : Array&lt;SourceContract&gt;</text><line style="stroke: #A80036; stroke-width: 0.75; stroke-dasharray: 1.0,2.0;" x1="121.5" x2="301.75" y1="336.2637" y2="336.2637"/><rect fill="none" height="4.5" style="stroke: #C82930; stroke-width: 0.75;" width="4.5" x="126.75" y="342.9404"/><path d="M140.2813,341.3047 C139.3325,341.3047 138.5625,342.0747 138.5625,343.0234 C138.5625,343.1334 138.5852,343.2276 138.6058,343.3246 L136.5,345.4304 L136.5,346.8054 L138.5625,346.8054 L138.5625,345.4304 L139.9375,345.4304 L139.9375,344.7429 L139.9808,344.6996 C140.0771,344.7202 140.1713,344.7429 140.2819,344.7429 C141.2307,344.7429 142.0007,343.9729 142.0007,343.0241 C142.0007,342.0754 141.2307,341.3054 140.2819,341.3054 M140.6257,341.9929 C141.0038,341.9929 141.3132,342.3023 141.3132,342.6804 C141.3132,343.0585 141.0038,343.3679 140.6257,343.3679 C140.2476,343.3679 139.9382,343.0585 139.9382,342.6804 C139.9382,342.3023 140.2476,341.9929 140.6257,341.9929 " fill="#000000" style="stroke: ; stroke-width: 0.0; stroke-dasharray: ;"/><text fill="#000000" font-family="sans-serif" font-size="8.25" lengthAdjust="spacingAndGlyphs" textLength="21.75" x="145.75" y="346.9215">id: ID</text><text fill="#000000" font-family="sans-serif" font-size="8.25" font-style="italic" lengthAdjust="spacingAndGlyphs" textLength="33.75" x="170.5" y="346.9215">= hash(</text><text fill="#000000" font-family="sans-serif" font-size="8.25" lengthAdjust="spacingAndGlyphs" textLength="0" x="207.25" y="346.9215"/><text fill="#000000" font-family="Andale Mono" font-size="8.25" lengthAdjust="spacingAndGlyphs" textLength="36.75" x="207.25" y="346.9215">compiler</text><text fill="#000000" font-family="sans-serif" font-size="8.25" font-style="italic" lengthAdjust="spacingAndGlyphs" textLength="3" x="244" y="346.9215">,</text><text fill="#000000" font-family="sans-serif" font-size="8.25" lengthAdjust="spacingAndGlyphs" textLength="0" x="250" y="346.9215"/><text fill="#000000" font-family="Andale Mono" font-size="8.25" lengthAdjust="spacingAndGlyphs" textLength="42" x="250" y="346.9215">sourceIds</text><text fill="#000000" font-family="sans-serif" font-size="8.25" lengthAdjust="spacingAndGlyphs" textLength="0" x="295" y="346.9215"/><text fill="#000000" font-family="sans-serif" font-size="8.25" font-style="italic" lengthAdjust="spacingAndGlyphs" textLength="3" x="295" y="346.9215">)</text><rect fill="none" height="4.5" style="stroke: #C82930; stroke-width: 0.75;" width="4.5" x="126.75" y="352.5439"/><text fill="#000000" font-family="sans-serif" font-size="8.25" lengthAdjust="spacingAndGlyphs" textLength="132.75" x="135.75" y="356.525">sourceIds: Array&lt;Maybe&lt;ID&gt;&gt;</text><rect fill="none" height="4.5" style="stroke: #C82930; stroke-width: 0.75;" width="4.5" x="126.75" y="362.1475"/><text fill="#000000" font-family="sans-serif" font-size="8.25" lengthAdjust="spacingAndGlyphs" textLength="141" x="135.75" y="366.1285">contractIds : Array&lt;Maybe&lt;ID&gt;&gt;</text><!--class SourceContract--><rect fill="#FEFECE" filter="url(#f88hk4zn1i9qd)" height="78.8672" id="SourceContract" style="stroke: #A80036; stroke-width: 1.125;" width="97.5" x="251.25" y="149.25"/><ellipse cx="262.5" cy="163.4766" fill="#7CFC00" rx="8.25" ry="8.25" style="stroke: #A80036; stroke-width: 0.75;"/><path d="M262.582,160.1602 Q261.8789,160.1602 261.5508,160.9102 Q261.2344,161.6602 261.2344,163.3359 Q261.2344,165.0117 261.5508,165.7617 Q261.8789,166.5117 262.582,166.5117 Q263.2969,166.5117 263.6133,165.7617 Q263.9414,165.0117 263.9414,163.3359 Q263.9414,161.6602 263.6133,160.9102 Q263.2969,160.1602 262.582,160.1602 Z M259.3242,163.3359 Q259.3242,160.957 260.1445,159.7383 Q260.9766,158.5078 262.582,158.5078 Q264.1992,158.5078 265.0195,159.7383 Q265.8516,160.957 265.8516,163.3359 Q265.8516,165.7148 265.0195,166.9336 Q264.1992,168.1523 262.582,168.1523 Q260.9766,168.1523 260.1445,166.9336 Q259.3242,165.7148 259.3242,163.3359 Z "/><text fill="#000000" font-family="sans-serif" font-size="9" font-style="italic" lengthAdjust="spacingAndGlyphs" textLength="66" x="276.75" y="161.354">«Data Object»</text><text fill="#000000" font-family="sans-serif" font-size="9" lengthAdjust="spacingAndGlyphs" textLength="73.5" x="273" y="171.8306">SourceContract</text><line style="stroke: #A80036; stroke-width: 1.125;" x1="252" x2="348" y1="177.7031" y2="177.7031"/><ellipse cx="259.5" cy="186.6299" fill="none" rx="2.25" ry="2.25" style="stroke: #038048; stroke-width: 0.75;"/><text fill="#000000" font-family="sans-serif" font-size="8.25" lengthAdjust="spacingAndGlyphs" textLength="55.5" x="266.25" y="188.361">name: String</text><ellipse cx="259.5" cy="196.2334" fill="none" rx="2.25" ry="2.25" style="stroke: #038048; stroke-width: 0.75;"/><text fill="#000000" font-family="sans-serif" font-size="8.25" lengthAdjust="spacingAndGlyphs" textLength="36" x="266.25" y="197.9645">ast: AST</text><ellipse cx="259.5" cy="205.8369" fill="#84BE84" rx="2.25" ry="2.25" style="stroke: #038048; stroke-width: 0.75;"/><text fill="#000000" font-family="sans-serif" font-size="8.25" lengthAdjust="spacingAndGlyphs" textLength="65.25" x="266.25" y="207.568">source: Source</text><line style="stroke: #A80036; stroke-width: 0.75; stroke-dasharray: 1.0,2.0;" x1="252" x2="348" y1="212.5137" y2="212.5137"/><rect fill="none" height="4.5" style="stroke: #C82930; stroke-width: 0.75;" width="4.5" x="257.25" y="219.1904"/><text fill="#000000" font-family="sans-serif" font-size="8.25" lengthAdjust="spacingAndGlyphs" textLength="51" x="266.25" y="223.1715">sourceId: ID</text><!--class Compiler--><rect fill="#FEFECE" filter="url(#f88hk4zn1i9qd)" height="69.2637" id="Compiler" style="stroke: #A80036; stroke-width: 1.125;" width="90" x="4.5" y="287.625"/><ellipse cx="17.1" cy="301.8516" fill="#7CFC00" rx="8.25" ry="8.25" style="stroke: #A80036; stroke-width: 0.75;"/><path d="M17.182,298.5352 Q16.4789,298.5352 16.1508,299.2852 Q15.8344,300.0352 15.8344,301.7109 Q15.8344,303.3867 16.1508,304.1367 Q16.4789,304.8867 17.182,304.8867 Q17.8969,304.8867 18.2133,304.1367 Q18.5414,303.3867 18.5414,301.7109 Q18.5414,300.0352 18.2133,299.2852 Q17.8969,298.5352 17.182,298.5352 Z M13.9242,301.7109 Q13.9242,299.332 14.7445,298.1133 Q15.5766,296.8828 17.182,296.8828 Q18.7992,296.8828 19.6195,298.1133 Q20.4516,299.332 20.4516,301.7109 Q20.4516,304.0898 19.6195,305.3086 Q18.7992,306.5273 17.182,306.5273 Q15.5766,306.5273 14.7445,305.3086 Q13.9242,304.0898 13.9242,301.7109 Z "/><text fill="#000000" font-family="sans-serif" font-size="9" font-style="italic" lengthAdjust="spacingAndGlyphs" textLength="66" x="26.4" y="299.729">«Data Object»</text><text fill="#000000" font-family="sans-serif" font-size="9" lengthAdjust="spacingAndGlyphs" textLength="40.5" x="39.15" y="310.2056">Compiler</text><line style="stroke: #A80036; stroke-width: 1.125;" x1="5.25" x2="93.75" y1="316.0781" y2="316.0781"/><ellipse cx="12.75" cy="325.0049" fill="none" rx="2.25" ry="2.25" style="stroke: #038048; stroke-width: 0.75;"/><text fill="#000000" font-family="sans-serif" font-size="8.25" lengthAdjust="spacingAndGlyphs" textLength="58.5" x="19.5" y="326.736">name : String</text><ellipse cx="12.75" cy="334.6084" fill="none" rx="2.25" ry="2.25" style="stroke: #038048; stroke-width: 0.75;"/><text fill="#000000" font-family="sans-serif" font-size="8.25" lengthAdjust="spacingAndGlyphs" textLength="66" x="19.5" y="336.3395">version : String</text><ellipse cx="12.75" cy="344.2119" fill="none" rx="2.25" ry="2.25" style="stroke: #038048; stroke-width: 0.75;"/><text fill="#000000" font-family="sans-serif" font-size="8.25" lengthAdjust="spacingAndGlyphs" textLength="70.5" x="19.5" y="345.943">settings : Object</text><line style="stroke: #A80036; stroke-width: 1.125;" x1="5.25" x2="93.75" y1="350.8887" y2="350.8887"/><!--class LinkReference--><rect fill="#FEFECE" filter="url(#f88hk4zn1i9qd)" height="69.2637" id="LinkReference" style="stroke: #A80036; stroke-width: 1.125;" width="136.5" x="60" y="724.125"/><ellipse cx="92.175" cy="738.3516" fill="#7CFC00" rx="8.25" ry="8.25" style="stroke: #A80036; stroke-width: 0.75;"/><path d="M92.257,735.0352 Q91.5539,735.0352 91.2258,735.7852 Q90.9094,736.5352 90.9094,738.2109 Q90.9094,739.8867 91.2258,740.6367 Q91.5539,741.3867 92.257,741.3867 Q92.9719,741.3867 93.2883,740.6367 Q93.6164,739.8867 93.6164,738.2109 Q93.6164,736.5352 93.2883,735.7852 Q92.9719,735.0352 92.257,735.0352 Z M88.9992,738.2109 Q88.9992,735.832 89.8195,734.6133 Q90.6516,733.3828 92.257,733.3828 Q93.8742,733.3828 94.6945,734.6133 Q95.5266,735.832 95.5266,738.2109 Q95.5266,740.5898 94.6945,741.8086 Q93.8742,743.0273 92.257,743.0273 Q90.6516,743.0273 89.8195,741.8086 Q88.9992,740.5898 88.9992,738.2109 Z "/><text fill="#000000" font-family="sans-serif" font-size="9" font-style="italic" lengthAdjust="spacingAndGlyphs" textLength="66" x="107.325" y="736.229">«Data Object»</text><text fill="#000000" font-family="sans-serif" font-size="9" lengthAdjust="spacingAndGlyphs" textLength="66" x="107.325" y="746.7056">LinkReference</text><line style="stroke: #A80036; stroke-width: 1.125;" x1="60.75" x2="195.75" y1="752.5781" y2="752.5781"/><ellipse cx="68.25" cy="761.5049" fill="none" rx="2.25" ry="2.25" style="stroke: #038048; stroke-width: 0.75;"/><text fill="#000000" font-family="sans-serif" font-size="8.25" lengthAdjust="spacingAndGlyphs" textLength="117" x="75" y="763.236">offsets: Array&lt;ByteOffset&gt;</text><ellipse cx="68.25" cy="771.1084" fill="none" rx="2.25" ry="2.25" style="stroke: #038048; stroke-width: 0.75;"/><text fill="#000000" font-family="sans-serif" font-size="8.25" lengthAdjust="spacingAndGlyphs" textLength="96" x="75" y="772.8395">name: Maybe&lt;String&gt;</text><ellipse cx="68.25" cy="780.7119" fill="none" rx="2.25" ry="2.25" style="stroke: #038048; stroke-width: 0.75;"/><text fill="#000000" font-family="sans-serif" font-size="8.25" lengthAdjust="spacingAndGlyphs" textLength="62.25" x="75" y="782.443">length: Integer</text><line style="stroke: #A80036; stroke-width: 1.125;" x1="60.75" x2="195.75" y1="787.3887" y2="787.3887"/><!--class SourceMap--><rect fill="#FEFECE" filter="url(#f88hk4zn1i9qd)" height="78.8672" id="SourceMap" style="stroke: #A80036; stroke-width: 1.125;" width="293.25" x="61.125" y="421.125"/><ellipse cx="173.0625" cy="435.3516" fill="#7CFC00" rx="8.25" ry="8.25" style="stroke: #A80036; stroke-width: 0.75;"/><path d="M173.1445,432.0352 Q172.4414,432.0352 172.1133,432.7852 Q171.7969,433.5352 171.7969,435.2109 Q171.7969,436.8867 172.1133,437.6367 Q172.4414,438.3867 173.1445,438.3867 Q173.8594,438.3867 174.1758,437.6367 Q174.5039,436.8867 174.5039,435.2109 Q174.5039,433.5352 174.1758,432.7852 Q173.8594,432.0352 173.1445,432.0352 Z M169.8867,435.2109 Q169.8867,432.832 170.707,431.6133 Q171.5391,430.3828 173.1445,430.3828 Q174.7617,430.3828 175.582,431.6133 Q176.4141,432.832 176.4141,435.2109 Q176.4141,437.5898 175.582,438.8086 Q174.7617,440.0273 173.1445,440.0273 Q171.5391,440.0273 170.707,438.8086 Q169.8867,437.5898 169.8867,435.2109 Z "/><text fill="#000000" font-family="sans-serif" font-size="9" font-style="italic" lengthAdjust="spacingAndGlyphs" textLength="66" x="186.9375" y="433.229">«Data Object»</text><text fill="#000000" font-family="sans-serif" font-size="9" lengthAdjust="spacingAndGlyphs" textLength="52.5" x="193.6875" y="443.7056">SourceMap</text><line style="stroke: #A80036; stroke-width: 1.125;" x1="61.875" x2="353.625" y1="449.5781" y2="449.5781"/><ellipse cx="69.375" cy="458.5049" fill="#84BE84" rx="2.25" ry="2.25" style="stroke: #038048; stroke-width: 0.75;"/><text fill="#000000" font-family="sans-serif" font-size="8.25" lengthAdjust="spacingAndGlyphs" textLength="83.25" x="76.125" y="460.236">bytecode: Bytecode</text><ellipse cx="69.375" cy="468.1084" fill="#84BE84" rx="2.25" ry="2.25" style="stroke: #038048; stroke-width: 0.75;"/><text fill="#000000" font-family="sans-serif" font-size="8.25" lengthAdjust="spacingAndGlyphs" textLength="273.75" x="76.125" y="469.8395">instructionSourceRanges(index: Integer): Maybe&lt;SourceRange&gt;</text><line style="stroke: #A80036; stroke-width: 0.75; stroke-dasharray: 1.0,2.0;" x1="61.875" x2="353.625" y1="474.7852" y2="474.7852"/><rect fill="none" height="4.5" style="stroke: #C82930; stroke-width: 0.75;" width="4.5" x="67.125" y="481.4619"/><text fill="#000000" font-family="sans-serif" font-size="8.25" lengthAdjust="spacingAndGlyphs" textLength="94.5" x="76.125" y="485.443">rawSourceMap: String</text><rect fill="none" height="4.5" style="stroke: #C82930; stroke-width: 0.75;" width="4.5" x="67.125" y="491.0654"/><text fill="#000000" font-family="sans-serif" font-size="8.25" lengthAdjust="spacingAndGlyphs" textLength="60" x="76.125" y="495.0465">bytecodeId: ID</text><!--class SourceRange--><rect fill="#FEFECE" filter="url(#f88hk4zn1i9qd)" height="88.4707" id="SourceRange" style="stroke: #A80036; stroke-width: 1.125;" width="90.75" x="380.625" y="416.25"/><ellipse cx="393.5625" cy="430.4766" fill="#7CFC00" rx="8.25" ry="8.25" style="stroke: #A80036; stroke-width: 0.75;"/><path d="M393.6445,427.1602 Q392.9414,427.1602 392.6133,427.9102 Q392.2969,428.6602 392.2969,430.3359 Q392.2969,432.0117 392.6133,432.7617 Q392.9414,433.5117 393.6445,433.5117 Q394.3594,433.5117 394.6758,432.7617 Q395.0039,432.0117 395.0039,430.3359 Q395.0039,428.6602 394.6758,427.9102 Q394.3594,427.1602 393.6445,427.1602 Z M390.3867,430.3359 Q390.3867,427.957 391.207,426.7383 Q392.0391,425.5078 393.6445,425.5078 Q395.2617,425.5078 396.082,426.7383 Q396.9141,427.957 396.9141,430.3359 Q396.9141,432.7148 396.082,433.9336 Q395.2617,435.1523 393.6445,435.1523 Q392.0391,435.1523 391.207,433.9336 Q390.3867,432.7148 390.3867,430.3359 Z "/><text fill="#000000" font-family="sans-serif" font-size="9" font-style="italic" lengthAdjust="spacingAndGlyphs" textLength="66" x="402.9375" y="428.354">«Data Object»</text><text fill="#000000" font-family="sans-serif" font-size="9" lengthAdjust="spacingAndGlyphs" textLength="63" x="404.4375" y="438.8306">SourceRange</text><line style="stroke: #A80036; stroke-width: 1.125;" x1="381.375" x2="470.625" y1="444.7031" y2="444.7031"/><ellipse cx="388.875" cy="453.6299" fill="none" rx="2.25" ry="2.25" style="stroke: #038048; stroke-width: 0.75;"/><text fill="#000000" font-family="sans-serif" font-size="8.25" lengthAdjust="spacingAndGlyphs" textLength="71.25" x="395.625" y="455.361">start: ByteOffset</text><ellipse cx="388.875" cy="463.2334" fill="none" rx="2.25" ry="2.25" style="stroke: #038048; stroke-width: 0.75;"/><text fill="#000000" font-family="sans-serif" font-size="8.25" lengthAdjust="spacingAndGlyphs" textLength="60.75" x="395.625" y="464.9645">length: Length</text><ellipse cx="388.875" cy="472.8369" fill="none" rx="2.25" ry="2.25" style="stroke: #038048; stroke-width: 0.75;"/><text fill="#000000" font-family="sans-serif" font-size="8.25" lengthAdjust="spacingAndGlyphs" textLength="54.75" x="395.625" y="474.568">meta: Object</text><ellipse cx="388.875" cy="482.4404" fill="#84BE84" rx="2.25" ry="2.25" style="stroke: #038048; stroke-width: 0.75;"/><text fill="#000000" font-family="sans-serif" font-size="8.25" lengthAdjust="spacingAndGlyphs" textLength="65.25" x="395.625" y="484.1715">source: Source</text><line style="stroke: #A80036; stroke-width: 0.75; stroke-dasharray: 1.0,2.0;" x1="381.375" x2="470.625" y1="489.1172" y2="489.1172"/><rect fill="none" height="4.5" style="stroke: #C82930; stroke-width: 0.75;" width="4.5" x="386.625" y="495.7939"/><text fill="#000000" font-family="sans-serif" font-size="8.25" lengthAdjust="spacingAndGlyphs" textLength="51" x="395.625" y="499.775">sourceId: ID</text><!--link Instruction to InstructionMeta--><path d="M466.932,589.125 C472.2795,589.125 477.6278,589.125 482.9752,589.125 " fill="none" id="Instruction-InstructionMeta" style="stroke: #A80036; stroke-width: 0.75;"/><polygon fill="#A80036" points="456.9818,589.125,461.4818,592.125,465.9818,589.125,461.4818,586.125,456.9818,589.125" style="stroke: #A80036; stroke-width: 0.75;"/><text fill="#000000" font-family="sans-serif" font-size="9.75" lengthAdjust="spacingAndGlyphs" textLength="6" x="470.9888" y="586.2738">1</text><!--link Instruction to Bytecode--><path d="M376.623,628.6283 C364.4873,652.8998 348.7605,684.3548 335.8597,710.1563 " fill="none" id="Instruction-Bytecode" style="stroke: #A80036; stroke-width: 0.75;"/><polygon fill="#A80036" points="331.4243,719.0258,336.1199,716.3422,335.4488,710.9757,330.7532,713.6592,331.4243,719.0258" style="stroke: #A80036; stroke-width: 0.75;"/><text fill="#000000" font-family="sans-serif" font-size="9.75" lengthAdjust="spacingAndGlyphs" textLength="6" x="367.6161" y="643.7413">n</text><!--link SourceContract to Compilation--><path d="M273.9255,228.2655 C266.3033,239.6348 257.8095,252.303 249.6038,264.5422 " fill="none" id="SourceContract-Compilation" style="stroke: #A80036; stroke-width: 0.75;"/><polygon fill="#A80036" points="243.9833,272.9258,248.9809,270.8586,248.9949,265.4503,243.9973,267.5174,243.9833,272.9258" style="stroke: #A80036; stroke-width: 0.75;"/><text fill="#000000" font-family="sans-serif" font-size="9.75" lengthAdjust="spacingAndGlyphs" textLength="6" x="264.2003" y="243.1142">n</text><!--link SourceMap to SourceRange--><path d="M364.143,460.5 C369.5625,460.5 374.9828,460.5 380.4023,460.5 " fill="none" id="SourceMap-SourceRange" style="stroke: #A80036; stroke-width: 0.75;"/><polygon fill="#A80036" points="354.387,460.5,358.887,463.5,363.387,460.5,358.887,457.5,354.387,460.5" style="stroke: #A80036; stroke-width: 0.75;"/><text fill="#000000" font-family="sans-serif" font-size="9.75" lengthAdjust="spacingAndGlyphs" textLength="6" x="368.4794" y="457.6225">n</text><!--link Contract to Compilation--><path d="M244.7685,113.9535 C242.6318,125.631 240.4515,137.8245 238.5,149.25 C231.3968,190.8442 224.0175,238.218 218.7728,272.7218 " fill="none" id="Contract-Compilation" style="stroke: #A80036; stroke-width: 0.75;"/><polygon fill="#FFFFFF" points="246.5475,104.2942,242.7821,108.1765,244.9175,113.1454,248.6829,109.2632,246.5475,104.2942" style="stroke: #A80036; stroke-width: 0.75;"/><text fill="#000000" font-family="sans-serif" font-size="9.75" lengthAdjust="spacingAndGlyphs" textLength="18" x="200.5817" y="264.8613">0..1</text><!--link Contract to SourceContract--><path d="M275.16,113.775 C279.1755,125.7533 283.3118,138.093 287.0295,149.1832 " fill="none" id="Contract-SourceContract" style="stroke: #A80036; stroke-width: 0.75; stroke-dasharray: 7.0,7.0;"/><polygon fill="#FFFFFF" points="271.9755,104.2778,270.5617,109.498,274.8367,112.8108,276.2505,107.5906,271.9755,104.2778" style="stroke: #A80036; stroke-width: 0.75;"/><text fill="#000000" font-family="sans-serif" font-size="9.75" lengthAdjust="spacingAndGlyphs" textLength="6" x="278.8835" y="140.9264">1</text><!--link LinkReference to Bytecode--><path d="M196.797,758.625 C202.2818,758.625 207.7665,758.625 213.2505,758.625 " fill="none" id="LinkReference-Bytecode" style="stroke: #A80036; stroke-width: 0.75;"/><polygon fill="#A80036" points="223.1228,758.625,218.6228,755.625,214.1228,758.625,218.6228,761.625,223.1228,758.625" style="stroke: #A80036; stroke-width: 0.75;"/><text fill="#000000" font-family="sans-serif" font-size="9.75" lengthAdjust="spacingAndGlyphs" textLength="6" x="202.4984" y="755.9704">n</text><!--link SourceContract to Source--><path d="M342.681,235.4603 C358.5233,252.5655 376.188,271.6395 390.8423,287.4623 " fill="none" id="SourceContract-Source" style="stroke: #A80036; stroke-width: 0.75;"/><polygon fill="#FFFFFF" points="336.018,228.2655,336.8747,233.6055,342.1335,234.8686,341.2768,229.5286,336.018,228.2655" style="stroke: #A80036; stroke-width: 0.75;"/><text fill="#000000" font-family="sans-serif" font-size="9.75" lengthAdjust="spacingAndGlyphs" textLength="6" x="379.7703" y="279.3331">1</text><!--link Compiler to Compilation--><path d="M94.746,322.125 C100.0943,322.125 105.4425,322.125 110.7908,322.125 " fill="none" id="Compiler-Compilation" style="stroke: #A80036; stroke-width: 0.75;"/><polygon fill="#A80036" points="120.7418,322.125,116.2418,319.125,111.7418,322.125,116.2418,325.125,120.7418,322.125" style="stroke: #A80036; stroke-width: 0.75;"/><text fill="#000000" font-family="sans-serif" font-size="9.75" lengthAdjust="spacingAndGlyphs" textLength="6" x="100.626" y="319.2296">1</text><!--link Compilation to Source--><path d="M312.0173,322.125 C317.4368,322.125 322.8563,322.125 328.2758,322.125 " fill="none" id="Compilation-Source" style="stroke: #A80036; stroke-width: 0.75;"/><polygon fill="#FFFFFF" points="302.2628,322.125,306.7628,325.125,311.2628,322.125,306.7628,319.125,302.2628,322.125" style="stroke: #A80036; stroke-width: 0.75;"/><text fill="#000000" font-family="sans-serif" font-size="9.75" lengthAdjust="spacingAndGlyphs" textLength="6" x="316.3588" y="319.5774">n</text><!--link Compilation to SourceMap--><path d="M209.901,381.2333 C209.5328,394.6853 209.1495,408.669 208.8105,421.0433 " fill="none" id="Compilation-SourceMap" style="stroke: #A80036; stroke-width: 0.75;"/><polygon fill="#A80036" points="210.1725,371.325,207.0505,375.7412,209.9262,380.3216,213.0482,375.9054,210.1725,371.325" style="stroke: #A80036; stroke-width: 0.75;"/><text fill="#000000" font-family="sans-serif" font-size="9.75" lengthAdjust="spacingAndGlyphs" textLength="6" x="202.5499" y="412.7844">n</text><!--link SourceMap to Bytecode--><path d="M224.6768,509.4127 C245.2163,567.8535 279.4403,665.232 298.368,719.0873 " fill="none" id="SourceMap-Bytecode" style="stroke: #A80036; stroke-width: 0.75;"/><polygon fill="#FFFFFF" points="221.379,500.0287,220.0407,505.2689,224.3629,508.5197,225.7013,503.2796,221.379,500.0287" style="stroke: #A80036; stroke-width: 0.75;"/><text fill="#000000" font-family="sans-serif" font-size="9.75" lengthAdjust="spacingAndGlyphs" textLength="6" x="290.1331" y="710.8175">1</text><!--link SourceRange to Instruction--><path d="M413.3858,514.7033 C410.6183,526.431 407.739,538.6305 405.1387,549.648 " fill="none" id="SourceRange-Instruction" style="stroke: #A80036; stroke-width: 0.75;"/><polygon fill="#FFFFFF" points="415.6755,504.999,411.7222,508.6897,413.6085,513.7584,417.5618,510.0677,415.6755,504.999" style="stroke: #A80036; stroke-width: 0.75;"/><text fill="#000000" font-family="sans-serif" font-size="9.75" lengthAdjust="spacingAndGlyphs" textLength="6" x="399.9636" y="541.3864">1</text><!--link Source to SourceRange--><path d="M423.177,356.709 C423.5865,371.661 424.0785,389.604 424.5353,406.296 " fill="none" id="Source-SourceRange" style="stroke: #A80036; stroke-width: 0.75;"/><polygon fill="#FFFFFF" points="424.8075,416.217,427.6827,411.6363,424.5603,407.2204,421.685,411.8011,424.8075,416.217" style="stroke: #A80036; stroke-width: 0.75;"/><text fill="#000000" font-family="sans-serif" font-size="9.75" lengthAdjust="spacingAndGlyphs" textLength="6" x="416.8404" y="371.9036">1</text><!--
@startuml
scale 0.75



skinparam defaultMonospacedFontName Andale Mono



    class Contract << (R,darkorange) External Resource >> {
      + name: String
      + abi: ABI
      + constructor: Constructor
      + {method} compilation: Maybe<Compilation>
      + {method} sourceContract: Maybe<SourceContract>
      + {method} interface: ContractInterface
    }






    class Bytecode << (R,orchid) Resource >> {
      + bytes: Bytes
      + linkReferences : Set<LinkReference>
      + {method} instructions: Array<Instruction>
      ..
      - {field} <&key> id: ID //= hash(// ""bytes"" //)//
    }

    class Instruction << (O,lawngreen) Data Object >> {
      + programCounter: String
      + opcode: Integer
      + pushData: String
      + meta: InstructionMeta
    }

    class InstructionMeta << (O,lawngreen) Data Object >> {
      + cost: Integer
      + pops: Integer
      + pushes: Integer
      + dynamic: Integer
    }

    Instruction *-right- "1" InstructionMeta
    Instruction "n" - -* Bytecode

    class Source << (R,orchid) Resource >> {
      + contents: String
      + sourcePath: Maybe<String>
      ..
      - {field} <&key> id: ID //= hash(// ""contents""//,// ""sourcePath"" //)//
    }




    class Compilation << (R,orchid) Resource >> {
      + compiler : Compiler
      + {method} sources : Array<Maybe<Source>>
      + {method} contracts : Array<SourceContract>
      ..
      - {field} <&key> id: ID //= hash(// ""compiler""//,// ""sourceIds"" //)//
      - sourceIds: Array<Maybe<ID>>
      - contractIds : Array<Maybe<ID>>
    }

  SourceContract "n" - -* Compilation







  class Compiler << (O,lawngreen) Data Object >> {
    + name : String
    + version : String
    + settings : Object
  }




    class LinkReference << (O,lawngreen) Data Object >> {
      + offsets: Array<ByteOffset>
      + name: Maybe<String>
      + length: Integer
    }

    class SourceMap << (O,lawngreen) Data Object >> {
      + {method} bytecode: Bytecode
      + instructionSourceRanges(index: Integer): Maybe<SourceRange>
      ..
      - rawSourceMap: String
      - bytecodeId: ID
    }

    class SourceRange << (O,lawngreen) Data Object >> {
      + start: ByteOffset
      + length: Length
      + meta: Object
      + {method} source: Source
      ..
      - sourceId: ID
    }

    SourceMap *-right- "n" SourceRange


    class SourceContract << (O,lawngreen) Data Object >> {
      + name: String
      + ast: AST
      + {method} source: Source
      ..
      - sourceId: ID
    }








  Contract o- - "0..1" Compilation
  Contract o.. "1" SourceContract



  LinkReference "n" -* Bytecode



  SourceContract o- - "1" Source





  Compilation *-left- "1" Compiler

  Compilation o-right- "n" Source


  Compilation *- - "n" SourceMap



  SourceMap o- - - - "1" Bytecode
  SourceRange o- - "1" Instruction

  Source "1" - -o SourceRange


@enduml

PlantUML version 1.2018.14(Fri Dec 21 16:33:16 UTC 2018)
(GPL source distribution)
Java Runtime: OpenJDK Runtime Environment
JVM: OpenJDK 64-Bit Server VM
Java Version: 11.0.2+9
Operating System: Linux
OS Version: 4.15.0-1028-gcp
Default Encoding: UTF-8
Language: en
Country: US
--></g></svg>