<?xml version="1.0" encoding="UTF-8" standalone="no"?><svg xmlns="http://www.w3.org/2000/svg" xmlns:xlink="http://www.w3.org/1999/xlink" contentScriptType="application/ecmascript" contentStyleType="text/css" height="286.65px" preserveAspectRatio="none" style="width:731px;height:286px;" version="1.1" viewBox="0 0 731 286" width="731.25px" zoomAndPan="magnify"><defs><filter height="300%" id="f1mqfrtzpjowkv" width="300%" x="-1" y="-1"><feGaussianBlur result="blurOut" stdDeviation="1.3"/><feColorMatrix in="blurOut" result="blurOut2" type="matrix" values="0 0 0 0 0 0 0 0 0 0 0 0 0 0 0 0 0 0 .4 0"/><feOffset dx="2.6" dy="2.6" in="blurOut2" result="blurOut3"/><feBlend in="SourceGraphic" in2="blurOut3" mode="normal"/></filter></defs><g><!--cluster Compilation--><rect fill="#FFFFFF" filter="url(#f1mqfrtzpjowkv)" height="74.75" style="stroke: #000000; stroke-width: 0.9750000000000001;" width="156.65" x="567.45" y="165.1"/><text fill="#000000" font-family="sans-serif" font-size="9.1" font-style="italic" lengthAdjust="spacingAndGlyphs" textLength="47.45" x="622.05" y="174.8468">«external»</text><text fill="#000000" font-family="sans-serif" font-size="9.1" font-weight="bold" lengthAdjust="spacingAndGlyphs" textLength="59.8" x="615.875" y="185.4398">Compilation</text><!--cluster Migrations--><rect fill="#FFFFFF" filter="url(#f1mqfrtzpjowkv)" height="111.8" style="stroke: #000000; stroke-width: 0.9750000000000001;" width="120.25" x="585.65" y="37.7"/><text fill="#000000" font-family="sans-serif" font-size="9.1" font-style="italic" lengthAdjust="spacingAndGlyphs" textLength="47.45" x="622.05" y="47.4468">«external»</text><text fill="#000000" font-family="sans-serif" font-size="9.1" font-weight="bold" lengthAdjust="spacingAndGlyphs" textLength="53.3" x="619.125" y="58.0398">Migrations</text><!--cluster Testing--><rect fill="#FFFFFF" filter="url(#f1mqfrtzpjowkv)" height="263.9" style="stroke: #000000; stroke-width: 0.9750000000000001;" width="401.05" x="148.2" y="15.6"/><text fill="#000000" font-family="sans-serif" font-size="9.1" font-weight="bold" lengthAdjust="spacingAndGlyphs" textLength="38.35" x="329.55" y="25.3468">Testing</text><ellipse cx="645.7964" cy="213.7243" fill="#FEFECE" filter="url(#f1mqfrtzpjowkv)" rx="67.9464" ry="15.1493" style="stroke: #A80036; stroke-width: 0.9750000000000001;"/><text fill="#000000" font-family="sans-serif" font-size="9.1" lengthAdjust="spacingAndGlyphs" textLength="120.9" x="585.3464" y="216.7458">Compile all project sources</text><ellipse cx="645.6806" cy="127.5111" fill="#FEFECE" filter="url(#f1mqfrtzpjowkv)" rx="49.6306" ry="11.4861" style="stroke: #A80036; stroke-width: 0.9750000000000001;"/><text fill="#000000" font-family="sans-serif" font-size="9.1" lengthAdjust="spacingAndGlyphs" textLength="79.3" x="606.0306" y="130.5326">Run all migrations</text><ellipse cx="645.8774" cy="81.8555" fill="#FEFECE" filter="url(#f1mqfrtzpjowkv)" rx="47.2274" ry="11.0055" style="stroke: #A80036; stroke-width: 0.9750000000000001;"/><text fill="#000000" font-family="sans-serif" font-size="9.1" lengthAdjust="spacingAndGlyphs" textLength="73.45" x="609.1524" y="84.877">Run as historical</text><ellipse cx="259.1335" cy="188.5217" fill="#FEFECE" filter="url(#f1mqfrtzpjowkv)" rx="91.4335" ry="19.8467" style="stroke: #A80036; stroke-width: 0.9750000000000001;"/><text fill="#000000" font-family="sans-serif" font-size="9.1" lengthAdjust="spacingAndGlyphs" textLength="170.95" x="173.6585" y="191.5432">Run automated tests for contract type</text><ellipse cx="259.0758" cy="60.3302" fill="#FEFECE" filter="url(#f1mqfrtzpjowkv)" rx="100.4758" ry="21.6552" style="stroke: #A80036; stroke-width: 0.9750000000000001;"/><text fill="#000000" font-family="sans-serif" font-size="9.1" lengthAdjust="spacingAndGlyphs" textLength="189.8" x="164.1758" y="63.3516">Run automated tests for contract instance</text><ellipse cx="259.0719" cy="250.1944" fill="#FEFECE" filter="url(#f1mqfrtzpjowkv)" rx="86.1719" ry="18.7944" style="stroke: #A80036; stroke-width: 0.9750000000000001;"/><text fill="#000000" font-family="sans-serif" font-size="9.1" lengthAdjust="spacingAndGlyphs" textLength="159.9" x="179.1219" y="253.2159">Run automated tests for library type</text><ellipse cx="258.9659" cy="125.5682" fill="#FEFECE" filter="url(#f1mqfrtzpjowkv)" rx="95.1659" ry="20.5932" style="stroke: #A80036; stroke-width: 0.9750000000000001;"/><text fill="#000000" font-family="sans-serif" font-size="9.1" lengthAdjust="spacingAndGlyphs" textLength="178.75" x="169.5909" y="128.5897">Run automated tests for library instance</text><ellipse cx="468.5734" cy="199.5997" fill="#FEFECE" filter="url(#f1mqfrtzpjowkv)" rx="65.5734" ry="14.6747" style="stroke: #A80036; stroke-width: 0.9750000000000001;"/><text fill="#000000" font-family="sans-serif" font-size="9.1" lengthAdjust="spacingAndGlyphs" textLength="115.7" x="410.7234" y="202.6212">Run test written in Solidity</text><ellipse cx="468.7858" cy="146.2772" fill="#FEFECE" filter="url(#f1mqfrtzpjowkv)" rx="70.3358" ry="15.6272" style="stroke: #A80036; stroke-width: 0.9750000000000001;"/><text fill="#000000" font-family="sans-serif" font-size="9.1" lengthAdjust="spacingAndGlyphs" textLength="126.1" x="405.7358" y="149.2986">Run test written in Javascript</text><!--entity Developer--><ellipse cx="61.75" cy="136.825" fill="#FEFECE" filter="url(#f1mqfrtzpjowkv)" rx="5.2" ry="5.2" style="stroke: #A80036; stroke-width: 1.3;"/><path d="M61.75,142.025 L61.75,159.575 M53.3,147.225 L70.2,147.225 M61.75,159.575 L53.3,169.325 M61.75,159.575 L70.2,169.325 " fill="none" filter="url(#f1mqfrtzpjowkv)" style="stroke: #A80036; stroke-width: 1.3;"/><text fill="#000000" font-family="sans-serif" font-size="9.1" lengthAdjust="spacingAndGlyphs" textLength="115.7" x="3.9" y="182.3218">Smart Contract Developer</text><!--link RunHistorical to RunMigrations--><path d="M645.775,93.0975 C645.775,96.3814 645.775,99.6652 645.775,102.949 " fill="none" id="RunHistorical-RunMigrations" style="stroke: #A80036; stroke-width: 0.65; stroke-dasharray: 7.0,7.0;"/><polygon fill="none" points="650.325,103.025,645.775,116.025,641.225,103.025,650.325,103.025" style="stroke: #A80036; stroke-width: 0.65;"/><!--link TestInstance to RunHistorical--><path d="M356.4431,65.8353 C432.8272,70.0856 536.2104,75.8388 596.2827,79.1817 " fill="none" id="TestInstance-RunHistorical" style="stroke: #A80036; stroke-width: 0.65;"/><polygon fill="#A80036" points="599.6426,79.3689,593.9457,76.4486,596.3975,79.1887,593.6574,81.6406,599.6426,79.3689" style="stroke: #A80036; stroke-width: 0.65;"/><!--link TestLibraryInstance to RunHistorical--><path d="M343.5497,115.9736 C422.2017,107.0869 536.8409,94.1343 599.7004,87.0324 " fill="none" id="TestLibraryInstance-RunHistorical" style="stroke: #A80036; stroke-width: 0.65;"/><polygon fill="#A80036" points="603.0245,86.6567,596.9195,84.7302,599.7951,87.0217,597.5035,89.8973,603.0245,86.6567" style="stroke: #A80036; stroke-width: 0.65;"/><!--link RunSolidity to CompileAll--><path d="M530.5482,204.5316 C546,205.7881 562.666,207.1433 578.3733,208.4212 " fill="none" id="RunSolidity-CompileAll" style="stroke: #A80036; stroke-width: 0.65;"/><polygon fill="#A80036" points="581.7097,208.6923,576.0891,205.6277,578.4703,208.4294,575.6686,210.8106,581.7097,208.6923" style="stroke: #A80036; stroke-width: 0.65;"/><!--link RunSolidity to RunMigrations--><path d="M511.1659,188.3486 C525.1149,184.2003 540.618,179.1322 554.45,173.55 C578.9154,163.6765 605.6986,149.6151 623.7667,139.6129 " fill="none" id="RunSolidity-RunMigrations" style="stroke: #A80036; stroke-width: 0.65;"/><polygon fill="#A80036" points="626.8126,137.9196,620.4363,138.4903,623.9722,139.499,622.9634,143.0349,626.8126,137.9196" style="stroke: #A80036; stroke-width: 0.65;"/><!--link RunJavascript to CompileAll--><path d="M511.1893,158.6904 C525.0687,163.0746 540.5244,168.2408 554.45,173.55 C574.2256,181.0894 595.9031,190.6736 613.1028,198.6036 " fill="none" id="RunJavascript-CompileAll" style="stroke: #A80036; stroke-width: 0.65;"/><polygon fill="#A80036" points="616.2611,200.0642,612.0425,195.249,613.3112,198.7002,609.8601,199.9689,616.2611,200.0642" style="stroke: #A80036; stroke-width: 0.65;"/><!--link RunJavascript to RunMigrations--><path d="M532.0322,139.5245 C553.3814,137.2358 576.8945,134.7151 596.9256,132.5675 " fill="none" id="RunJavascript-RunMigrations" style="stroke: #A80036; stroke-width: 0.65;"/><polygon fill="#A80036" points="600.3654,132.1983,594.2716,130.2366,597.1339,132.5447,594.8258,135.4069,600.3654,132.1983" style="stroke: #A80036; stroke-width: 0.65;"/><!--link TestType to RunSolidity--><path d="M348.0237,193.1865 C365.8018,194.129 384.2092,195.1053 401.1085,196.0017 " fill="none" id="TestType-RunSolidity" style="stroke: #A80036; stroke-width: 0.65;"/><polygon fill="#A80036" points="404.4677,196.1804,398.7641,193.2732,401.2223,196.0077,398.4878,198.4658,404.4677,196.1804" style="stroke: #A80036; stroke-width: 0.65;"/><!--link TestType to RunJavascript--><path d="M326.1629,175.0158 C354.2546,169.3185 386.5713,162.7646 413.2557,157.3527 " fill="none" id="TestType-RunJavascript" style="stroke: #A80036; stroke-width: 0.65;"/><polygon fill="#A80036" points="416.4817,156.6981,410.2318,155.3116,413.2964,157.3435,411.2645,160.4081,416.4817,156.6981" style="stroke: #A80036; stroke-width: 0.65;"/><!--link TestInstance to RunSolidity--><path d="M330.0551,75.8693 C340.6897,80.3601 350.9337,86.1478 359.45,93.6 C389.2025,119.6351 369.1838,146.9689 398.45,173.55 C404.9091,179.4163 412.815,183.9981 420.9504,187.5647 " fill="none" id="TestInstance-RunSolidity" style="stroke: #A80036; stroke-width: 0.65;"/><polygon fill="#A80036" points="423.956,188.8335,419.5772,184.1635,420.9617,187.5698,417.5554,188.9543,423.956,188.8335" style="stroke: #A80036; stroke-width: 0.65;"/><!--link TestInstance to RunJavascript--><path d="M317.3898,78.2002 C331.292,82.8666 346.0074,88.1342 359.45,93.6 C386.4504,104.5785 416.171,119.1782 437.6769,130.2191 " fill="none" id="TestInstance-RunJavascript" style="stroke: #A80036; stroke-width: 0.65;"/><polygon fill="#A80036" points="440.7891,131.8213,436.7778,126.8321,437.8994,130.3338,434.3978,131.4555,440.7891,131.8213" style="stroke: #A80036; stroke-width: 0.65;"/><!--link TestLibrary to RunSolidity--><path d="M317.1519,236.2618 C349.6883,228.3434 389.8876,218.5606 420.604,211.0849 " fill="none" id="TestLibrary-RunSolidity" style="stroke: #A80036; stroke-width: 0.65;"/><polygon fill="#A80036" points="423.9229,210.277,417.6238,209.1345,420.7651,211.0457,418.8539,214.187,423.9229,210.277" style="stroke: #A80036; stroke-width: 0.65;"/><!--link TestLibraryInstance to RunSolidity--><path d="M314.8555,142.1336 C329.4408,146.7967 345.1123,152.0357 359.45,157.3 C377.0774,163.7721 380.9858,166.6503 398.45,173.55 C408.8806,177.671 420.2543,181.9935 430.7251,185.9052 " fill="none" id="TestLibraryInstance-RunSolidity" style="stroke: #A80036; stroke-width: 0.65;"/><polygon fill="#A80036" points="433.9439,187.1051,429.3713,182.6247,430.8988,185.9693,427.5541,187.4968,433.9439,187.1051" style="stroke: #A80036; stroke-width: 0.65;"/><!--link Developer to TestType--><path d="M119.6111,166.4085 C140.0601,169.6637 163.3925,173.3784 185.0147,176.8208 " fill="none" id="Developer-TestType" style="stroke: #A80036; stroke-width: 0.65;"/><!--link Developer to TestInstance--><path d="M90.9058,130.2646 C105.5327,117.6182 124.1981,103.2525 143,93.6 C156.9978,86.4136 172.7746,80.5831 188.0632,75.933 " fill="none" id="Developer-TestInstance" style="stroke: #A80036; stroke-width: 0.65;"/><!--link Developer to TestLibrary--><path d="M91.4635,184.4018 C106.0059,196.7076 124.4367,210.5298 143,219.7 C158.6982,227.4547 176.6031,233.4185 193.5479,237.9289 " fill="none" id="Developer-TestLibrary" style="stroke: #A80036; stroke-width: 0.65;"/><!--link Developer to TestLibraryInstance--><path d="M119.6111,148.0018 C139.3256,144.7979 161.7207,141.1586 182.6786,137.7519 " fill="none" id="Developer-TestLibraryInstance" style="stroke: #A80036; stroke-width: 0.65;"/><!--
@startuml
scale 0.65
left to right direction

:Smart Contract Developer: as :Developer:


rectangle Compilation << external >> {
  (Compile all project sources) as (CompileAll)
}

rectangle Migrations << external >> {
  (Run all migrations) as (RunMigrations)
  (Run as historical) as (RunHistorical)
  RunHistorical .|> RunMigrations
}

rectangle Testing {
  (Run automated tests for contract type) as (TestType)
  (Run automated tests for contract instance) as (TestInstance)
  (Run automated tests for library type) as (TestLibrary)
  (Run automated tests for library instance) as (TestLibraryInstance)

  TestInstance - -> RunHistorical
  TestLibraryInstance - -> RunHistorical

  (Run test written in Solidity) as (RunSolidity)
  RunSolidity - -> CompileAll
  RunSolidity - -> RunMigrations

  (Run test written in Javascript) as (RunJavascript)
  RunJavascript - -> CompileAll
  RunJavascript - -> RunMigrations

  TestType - -> RunSolidity
  TestType - -> RunJavascript

  TestInstance - -> RunSolidity
  TestInstance - -> RunJavascript

  TestLibrary - -> RunSolidity
  TestLibraryInstance - -> RunSolidity
}

Developer - - TestType
Developer - - TestInstance
Developer - - TestLibrary
Developer - - TestLibraryInstance

@enduml

PlantUML version 1.2018.14(Fri Dec 21 16:33:16 UTC 2018)
(GPL source distribution)
Java Runtime: OpenJDK Runtime Environment
JVM: OpenJDK 64-Bit Server VM
Java Version: 11.0.2+9
Operating System: Linux
OS Version: 4.15.0-1028-gcp
Default Encoding: UTF-8
Language: en
Country: US
--></g></svg>