<?xml version="1.0" encoding="UTF-8" standalone="no"?><svg xmlns="http://www.w3.org/2000/svg" xmlns:xlink="http://www.w3.org/1999/xlink" contentScriptType="application/ecmascript" contentStyleType="text/css" height="493.5px" preserveAspectRatio="none" style="width:789px;height:493px;" version="1.1" viewBox="0 0 789 493" width="789px" zoomAndPan="magnify"><defs><filter height="300%" id="f1hygfscy62kbc" width="300%" x="-1" y="-1"><feGaussianBlur result="blurOut" stdDeviation="1.5"/><feColorMatrix in="blurOut" result="blurOut2" type="matrix" values="0 0 0 0 0 0 0 0 0 0 0 0 0 0 0 0 0 0 .4 0"/><feOffset dx="3.0" dy="3.0" in="blurOut2" result="blurOut3"/><feBlend in="SourceGraphic" in2="blurOut3" mode="normal"/></filter></defs><g><!--class Contract--><rect fill="#FEFECE" filter="url(#f1hygfscy62kbc)" height="107.6777" id="Contract" style="stroke: #A80036; stroke-width: 1.125;" width="197.25" x="421.875" y="6"/><ellipse cx="470.8125" cy="20.2266" fill="#FF8C00" rx="8.25" ry="8.25" style="stroke: #A80036; stroke-width: 0.75;"/><path d="M471.7148,20.332 Q471.9844,20.3906 472.1836,20.6016 Q472.3945,20.8008 472.6875,21.3867 L474.3633,24.7266 L472.3477,24.7266 L471.2227,22.3828 Q471.1758,22.2773 471.0938,22.1016 Q470.6016,21.0586 469.9336,21.0586 L469.3477,21.0586 L469.3477,24.7266 L467.5195,24.7266 L467.5195,15.4336 L470.168,15.4336 Q471.9609,15.4336 472.7344,16.0664 Q473.5195,16.6992 473.5195,18.1289 Q473.5195,19.0898 473.0508,19.6641 Q472.5938,20.2266 471.7148,20.332 Z M469.3477,16.9805 L469.3477,19.5117 L470.2148,19.5117 Q470.9766,19.5117 471.293,19.2188 Q471.6211,18.9141 471.6211,18.2344 Q471.6211,17.5664 471.293,17.2734 Q470.9766,16.9805 470.2148,16.9805 L469.3477,16.9805 Z "/><text fill="#000000" font-family="sans-serif" font-size="9" font-style="italic" lengthAdjust="spacingAndGlyphs" textLength="96" x="484.6875" y="18.104">«External Resource»</text><text fill="#000000" font-family="sans-serif" font-size="9" lengthAdjust="spacingAndGlyphs" textLength="40.5" x="512.4375" y="28.5806">Contract</text><line style="stroke: #A80036; stroke-width: 1.125;" x1="422.625" x2="618.375" y1="34.4531" y2="34.4531"/><ellipse cx="430.125" cy="43.3799" fill="none" rx="2.25" ry="2.25" style="stroke: #038048; stroke-width: 0.75;"/><text fill="#000000" font-family="sans-serif" font-size="8.25" lengthAdjust="spacingAndGlyphs" textLength="55.5" x="436.875" y="45.111">name: String</text><ellipse cx="430.125" cy="52.9834" fill="none" rx="2.25" ry="2.25" style="stroke: #038048; stroke-width: 0.75;"/><text fill="#000000" font-family="sans-serif" font-size="8.25" lengthAdjust="spacingAndGlyphs" textLength="32.25" x="436.875" y="54.7145">abi: ABI</text><line style="stroke: #A80036; stroke-width: 1.125;" x1="422.625" x2="618.375" y1="59.6602" y2="59.6602"/><ellipse cx="430.125" cy="68.5869" fill="#84BE84" rx="2.25" ry="2.25" style="stroke: #038048; stroke-width: 0.75;"/><text fill="#000000" font-family="sans-serif" font-size="8.25" lengthAdjust="spacingAndGlyphs" textLength="151.5" x="436.875" y="70.318">createBytecode: Maybe&lt;Bytecode&gt;</text><ellipse cx="430.125" cy="78.1904" fill="#84BE84" rx="2.25" ry="2.25" style="stroke: #038048; stroke-width: 0.75;"/><text fill="#000000" font-family="sans-serif" font-size="8.25" lengthAdjust="spacingAndGlyphs" textLength="138.75" x="436.875" y="79.9215">callBytecode: Maybe&lt;Bytecode&gt;</text><ellipse cx="430.125" cy="87.7939" fill="#84BE84" rx="2.25" ry="2.25" style="stroke: #038048; stroke-width: 0.75;"/><text fill="#000000" font-family="sans-serif" font-size="8.25" lengthAdjust="spacingAndGlyphs" textLength="145.5" x="436.875" y="89.525">compilation: Maybe&lt;Compilation&gt;</text><ellipse cx="430.125" cy="97.3975" fill="#84BE84" rx="2.25" ry="2.25" style="stroke: #038048; stroke-width: 0.75;"/><text fill="#000000" font-family="sans-serif" font-size="8.25" lengthAdjust="spacingAndGlyphs" textLength="177.75" x="436.875" y="99.1285">sourceContract: Maybe&lt;SourceContract&gt;</text><ellipse cx="430.125" cy="107.001" fill="#84BE84" rx="2.25" ry="2.25" style="stroke: #038048; stroke-width: 0.75;"/><text fill="#000000" font-family="sans-serif" font-size="8.25" lengthAdjust="spacingAndGlyphs" textLength="117" x="436.875" y="108.7321">interface: ContractInterface</text><!--class Bytecode--><rect fill="#FEFECE" filter="url(#f1hygfscy62kbc)" height="78.8672" id="Bytecode" style="stroke: #A80036; stroke-width: 1.125;" width="177.75" x="167.625" y="159"/><ellipse cx="227.4375" cy="173.2266" fill="#DA70D6" rx="8.25" ry="8.25" style="stroke: #A80036; stroke-width: 0.75;"/><path d="M228.3398,173.332 Q228.6094,173.3906 228.8086,173.6016 Q229.0195,173.8008 229.3125,174.3867 L230.9883,177.7266 L228.9727,177.7266 L227.8477,175.3828 Q227.8008,175.2773 227.7188,175.1016 Q227.2266,174.0586 226.5586,174.0586 L225.9727,174.0586 L225.9727,177.7266 L224.1445,177.7266 L224.1445,168.4336 L226.793,168.4336 Q228.5859,168.4336 229.3594,169.0664 Q230.1445,169.6992 230.1445,171.1289 Q230.1445,172.0898 229.6758,172.6641 Q229.2188,173.2266 228.3398,173.332 Z M225.9727,169.9805 L225.9727,172.5117 L226.8398,172.5117 Q227.6016,172.5117 227.918,172.2188 Q228.2461,171.9141 228.2461,171.2344 Q228.2461,170.5664 227.918,170.2734 Q227.6016,169.9805 226.8398,169.9805 L225.9727,169.9805 Z "/><text fill="#000000" font-family="sans-serif" font-size="9" font-style="italic" lengthAdjust="spacingAndGlyphs" textLength="54.75" x="241.3125" y="171.104">«Resource»</text><text fill="#000000" font-family="sans-serif" font-size="9" lengthAdjust="spacingAndGlyphs" textLength="43.5" x="246.9375" y="181.5806">Bytecode</text><line style="stroke: #A80036; stroke-width: 1.125;" x1="168.375" x2="344.625" y1="187.4531" y2="187.4531"/><ellipse cx="175.875" cy="196.3799" fill="none" rx="2.25" ry="2.25" style="stroke: #038048; stroke-width: 0.75;"/><text fill="#000000" font-family="sans-serif" font-size="8.25" lengthAdjust="spacingAndGlyphs" textLength="53.25" x="182.625" y="198.111">bytes: Bytes</text><ellipse cx="175.875" cy="205.9834" fill="none" rx="2.25" ry="2.25" style="stroke: #038048; stroke-width: 0.75;"/><text fill="#000000" font-family="sans-serif" font-size="8.25" lengthAdjust="spacingAndGlyphs" textLength="158.25" x="182.625" y="207.7145">linkReferences : Set&lt;LinkReference&gt;</text><ellipse cx="175.875" cy="215.5869" fill="#84BE84" rx="2.25" ry="2.25" style="stroke: #038048; stroke-width: 0.75;"/><text fill="#000000" font-family="sans-serif" font-size="8.25" lengthAdjust="spacingAndGlyphs" textLength="137.25" x="182.625" y="217.318">instructions: Array&lt;Instruction&gt;</text><line style="stroke: #A80036; stroke-width: 0.75; stroke-dasharray: 1.0,2.0;" x1="168.375" x2="344.625" y1="222.2637" y2="222.2637"/><rect fill="none" height="4.5" style="stroke: #C82930; stroke-width: 0.75;" width="4.5" x="173.625" y="228.9404"/><path d="M187.1563,227.3047 C186.2075,227.3047 185.4375,228.0747 185.4375,229.0234 C185.4375,229.1334 185.4602,229.2276 185.4808,229.3246 L183.375,231.4304 L183.375,232.8054 L185.4375,232.8054 L185.4375,231.4304 L186.8125,231.4304 L186.8125,230.7429 L186.8558,230.6996 C186.9521,230.7202 187.0463,230.7429 187.1569,230.7429 C188.1057,230.7429 188.8757,229.9729 188.8757,229.0241 C188.8757,228.0754 188.1057,227.3054 187.1569,227.3054 M187.5007,227.9929 C187.8788,227.9929 188.1882,228.3023 188.1882,228.6804 C188.1882,229.0585 187.8788,229.3679 187.5007,229.3679 C187.1226,229.3679 186.8132,229.0585 186.8132,228.6804 C186.8132,228.3023 187.1226,227.9929 187.5007,227.9929 " fill="#000000" style="stroke: ; stroke-width: 0.0; stroke-dasharray: ;"/><text fill="#000000" font-family="sans-serif" font-size="8.25" lengthAdjust="spacingAndGlyphs" textLength="21.75" x="192.625" y="232.9215">id: ID</text><text fill="#000000" font-family="sans-serif" font-size="8.25" font-style="italic" lengthAdjust="spacingAndGlyphs" textLength="33.75" x="217.375" y="232.9215">= hash(</text><text fill="#000000" font-family="sans-serif" font-size="8.25" lengthAdjust="spacingAndGlyphs" textLength="0" x="254.125" y="232.9215"/><text fill="#000000" font-family="Andale Mono" font-size="8.25" lengthAdjust="spacingAndGlyphs" textLength="23.25" x="254.125" y="232.9215">bytes</text><text fill="#000000" font-family="sans-serif" font-size="8.25" lengthAdjust="spacingAndGlyphs" textLength="0" x="280.375" y="232.9215"/><text fill="#000000" font-family="sans-serif" font-size="8.25" font-style="italic" lengthAdjust="spacingAndGlyphs" textLength="3" x="280.375" y="232.9215">)</text><!--class Instruction--><rect fill="#FEFECE" filter="url(#f1hygfscy62kbc)" height="78.8672" id="Instruction" style="stroke: #A80036; stroke-width: 1.125;" width="121.5" x="150" y="20.625"/><ellipse cx="176.775" cy="34.8516" fill="#7CFC00" rx="8.25" ry="8.25" style="stroke: #A80036; stroke-width: 0.75;"/><path d="M176.857,31.5352 Q176.1539,31.5352 175.8258,32.2852 Q175.5094,33.0352 175.5094,34.7109 Q175.5094,36.3867 175.8258,37.1367 Q176.1539,37.8867 176.857,37.8867 Q177.5719,37.8867 177.8883,37.1367 Q178.2164,36.3867 178.2164,34.7109 Q178.2164,33.0352 177.8883,32.2852 Q177.5719,31.5352 176.857,31.5352 Z M173.5992,34.7109 Q173.5992,32.332 174.4195,31.1133 Q175.2516,29.8828 176.857,29.8828 Q178.4742,29.8828 179.2945,31.1133 Q180.1266,32.332 180.1266,34.7109 Q180.1266,37.0898 179.2945,38.3086 Q178.4742,39.5273 176.857,39.5273 Q175.2516,39.5273 174.4195,38.3086 Q173.5992,37.0898 173.5992,34.7109 Z "/><text fill="#000000" font-family="sans-serif" font-size="9" font-style="italic" lengthAdjust="spacingAndGlyphs" textLength="66" x="189.225" y="32.729">«Data Object»</text><text fill="#000000" font-family="sans-serif" font-size="9" lengthAdjust="spacingAndGlyphs" textLength="50.25" x="197.1" y="43.2056">Instruction</text><line style="stroke: #A80036; stroke-width: 1.125;" x1="150.75" x2="270.75" y1="49.0781" y2="49.0781"/><ellipse cx="158.25" cy="58.0049" fill="none" rx="2.25" ry="2.25" style="stroke: #038048; stroke-width: 0.75;"/><text fill="#000000" font-family="sans-serif" font-size="8.25" lengthAdjust="spacingAndGlyphs" textLength="102" x="165" y="59.736">programCounter: String</text><ellipse cx="158.25" cy="67.6084" fill="none" rx="2.25" ry="2.25" style="stroke: #038048; stroke-width: 0.75;"/><text fill="#000000" font-family="sans-serif" font-size="8.25" lengthAdjust="spacingAndGlyphs" textLength="66.75" x="165" y="69.3395">opcode: Integer</text><ellipse cx="158.25" cy="77.2119" fill="none" rx="2.25" ry="2.25" style="stroke: #038048; stroke-width: 0.75;"/><text fill="#000000" font-family="sans-serif" font-size="8.25" lengthAdjust="spacingAndGlyphs" textLength="72" x="165" y="78.943">pushData: String</text><ellipse cx="158.25" cy="86.8154" fill="none" rx="2.25" ry="2.25" style="stroke: #038048; stroke-width: 0.75;"/><text fill="#000000" font-family="sans-serif" font-size="8.25" lengthAdjust="spacingAndGlyphs" textLength="93" x="165" y="88.5465">meta: InstructionMeta</text><line style="stroke: #A80036; stroke-width: 1.125;" x1="150.75" x2="270.75" y1="93.4922" y2="93.4922"/><!--class InstructionMeta--><rect fill="#FEFECE" filter="url(#f1hygfscy62kbc)" height="78.8672" id="InstructionMeta" style="stroke: #A80036; stroke-width: 1.125;" width="97.5" x="297.75" y="20.625"/><ellipse cx="309" cy="34.8516" fill="#7CFC00" rx="8.25" ry="8.25" style="stroke: #A80036; stroke-width: 0.75;"/><path d="M309.082,31.5352 Q308.3789,31.5352 308.0508,32.2852 Q307.7344,33.0352 307.7344,34.7109 Q307.7344,36.3867 308.0508,37.1367 Q308.3789,37.8867 309.082,37.8867 Q309.7969,37.8867 310.1133,37.1367 Q310.4414,36.3867 310.4414,34.7109 Q310.4414,33.0352 310.1133,32.2852 Q309.7969,31.5352 309.082,31.5352 Z M305.8242,34.7109 Q305.8242,32.332 306.6445,31.1133 Q307.4766,29.8828 309.082,29.8828 Q310.6992,29.8828 311.5195,31.1133 Q312.3516,32.332 312.3516,34.7109 Q312.3516,37.0898 311.5195,38.3086 Q310.6992,39.5273 309.082,39.5273 Q307.4766,39.5273 306.6445,38.3086 Q305.8242,37.0898 305.8242,34.7109 Z "/><text fill="#000000" font-family="sans-serif" font-size="9" font-style="italic" lengthAdjust="spacingAndGlyphs" textLength="66" x="323.25" y="32.729">«Data Object»</text><text fill="#000000" font-family="sans-serif" font-size="9" lengthAdjust="spacingAndGlyphs" textLength="73.5" x="319.5" y="43.2056">InstructionMeta</text><line style="stroke: #A80036; stroke-width: 1.125;" x1="298.5" x2="394.5" y1="49.0781" y2="49.0781"/><ellipse cx="306" cy="58.0049" fill="none" rx="2.25" ry="2.25" style="stroke: #038048; stroke-width: 0.75;"/><text fill="#000000" font-family="sans-serif" font-size="8.25" lengthAdjust="spacingAndGlyphs" textLength="54" x="312.75" y="59.736">cost: Integer</text><ellipse cx="306" cy="67.6084" fill="none" rx="2.25" ry="2.25" style="stroke: #038048; stroke-width: 0.75;"/><text fill="#000000" font-family="sans-serif" font-size="8.25" lengthAdjust="spacingAndGlyphs" textLength="57" x="312.75" y="69.3395">pops: Integer</text><ellipse cx="306" cy="77.2119" fill="none" rx="2.25" ry="2.25" style="stroke: #038048; stroke-width: 0.75;"/><text fill="#000000" font-family="sans-serif" font-size="8.25" lengthAdjust="spacingAndGlyphs" textLength="67.5" x="312.75" y="78.943">pushes: Integer</text><ellipse cx="306" cy="86.8154" fill="none" rx="2.25" ry="2.25" style="stroke: #038048; stroke-width: 0.75;"/><text fill="#000000" font-family="sans-serif" font-size="8.25" lengthAdjust="spacingAndGlyphs" textLength="71.25" x="312.75" y="88.5465">dynamic: Integer</text><line style="stroke: #A80036; stroke-width: 1.125;" x1="298.5" x2="394.5" y1="93.4922" y2="93.4922"/><!--class Source--><rect fill="#FEFECE" filter="url(#f1hygfscy62kbc)" height="69.2637" id="Source" style="stroke: #A80036; stroke-width: 1.125;" width="187.75" x="593.25" y="302.25"/><ellipse cx="658.0625" cy="316.4766" fill="#DA70D6" rx="8.25" ry="8.25" style="stroke: #A80036; stroke-width: 0.75;"/><path d="M658.9648,316.582 Q659.2344,316.6406 659.4336,316.8516 Q659.6445,317.0508 659.9375,317.6367 L661.6133,320.9766 L659.5977,320.9766 L658.4727,318.6328 Q658.4258,318.5273 658.3438,318.3516 Q657.8516,317.3086 657.1836,317.3086 L656.5977,317.3086 L656.5977,320.9766 L654.7695,320.9766 L654.7695,311.6836 L657.418,311.6836 Q659.2109,311.6836 659.9844,312.3164 Q660.7695,312.9492 660.7695,314.3789 Q660.7695,315.3398 660.3008,315.9141 Q659.8438,316.4766 658.9648,316.582 Z M656.5977,313.2305 L656.5977,315.7617 L657.4648,315.7617 Q658.2266,315.7617 658.543,315.4688 Q658.8711,315.1641 658.8711,314.4844 Q658.8711,313.8164 658.543,313.5234 Q658.2266,313.2305 657.4648,313.2305 L656.5977,313.2305 Z "/><text fill="#000000" font-family="sans-serif" font-size="9" font-style="italic" lengthAdjust="spacingAndGlyphs" textLength="54.75" x="671.9375" y="314.354">«Resource»</text><text fill="#000000" font-family="sans-serif" font-size="9" lengthAdjust="spacingAndGlyphs" textLength="33" x="682.8125" y="324.8306">Source</text><line style="stroke: #A80036; stroke-width: 1.125;" x1="594" x2="780.25" y1="330.7031" y2="330.7031"/><ellipse cx="601.5" cy="339.6299" fill="none" rx="2.25" ry="2.25" style="stroke: #038048; stroke-width: 0.75;"/><text fill="#000000" font-family="sans-serif" font-size="8.25" lengthAdjust="spacingAndGlyphs" textLength="68.25" x="608.25" y="341.361">contents: String</text><ellipse cx="601.5" cy="349.2334" fill="none" rx="2.25" ry="2.25" style="stroke: #038048; stroke-width: 0.75;"/><text fill="#000000" font-family="sans-serif" font-size="8.25" lengthAdjust="spacingAndGlyphs" textLength="120" x="608.25" y="350.9645">sourcePath: Maybe&lt;String&gt;</text><line style="stroke: #A80036; stroke-width: 0.75; stroke-dasharray: 1.0,2.0;" x1="594" x2="780.25" y1="355.9102" y2="355.9102"/><rect fill="none" height="4.5" style="stroke: #C82930; stroke-width: 0.75;" width="4.5" x="599.25" y="362.5869"/><path d="M612.7813,360.9512 C611.8325,360.9512 611.0625,361.7212 611.0625,362.6699 C611.0625,362.7799 611.0852,362.8741 611.1058,362.971 L609,365.0769 L609,366.4519 L611.0625,366.4519 L611.0625,365.0769 L612.4375,365.0769 L612.4375,364.3894 L612.4808,364.346 C612.5771,364.3667 612.6713,364.3894 612.7819,364.3894 C613.7307,364.3894 614.5007,363.6194 614.5007,362.6706 C614.5007,361.7219 613.7307,360.9519 612.7819,360.9519 M613.1257,361.6394 C613.5038,361.6394 613.8132,361.9487 613.8132,362.3269 C613.8132,362.705 613.5038,363.0144 613.1257,363.0144 C612.7476,363.0144 612.4382,362.705 612.4382,362.3269 C612.4382,361.9487 612.7476,361.6394 613.1257,361.6394 " fill="#000000" style="stroke: ; stroke-width: 0.0; stroke-dasharray: ;"/><text fill="#000000" font-family="sans-serif" font-size="8.25" lengthAdjust="spacingAndGlyphs" textLength="21.75" x="618.25" y="366.568">id: ID</text><text fill="#000000" font-family="sans-serif" font-size="8.25" font-style="italic" lengthAdjust="spacingAndGlyphs" textLength="33.75" x="643" y="366.568">= hash(</text><text fill="#000000" font-family="sans-serif" font-size="8.25" lengthAdjust="spacingAndGlyphs" textLength="0" x="679.75" y="366.568"/><text fill="#000000" font-family="Andale Mono" font-size="8.25" lengthAdjust="spacingAndGlyphs" textLength="36.75" x="679.75" y="366.568">contents</text><text fill="#000000" font-family="sans-serif" font-size="8.25" font-style="italic" lengthAdjust="spacingAndGlyphs" textLength="3" x="716.5" y="366.568">,</text><text fill="#000000" font-family="sans-serif" font-size="8.25" lengthAdjust="spacingAndGlyphs" textLength="0" x="722.5" y="366.568"/><text fill="#000000" font-family="Andale Mono" font-size="8.25" lengthAdjust="spacingAndGlyphs" textLength="48" x="722.5" y="366.568">sourcePath</text><text fill="#000000" font-family="sans-serif" font-size="8.25" lengthAdjust="spacingAndGlyphs" textLength="0" x="773.5" y="366.568"/><text fill="#000000" font-family="sans-serif" font-size="8.25" font-style="italic" lengthAdjust="spacingAndGlyphs" textLength="3" x="773.5" y="366.568">)</text><!--class Compilation--><rect fill="#FEFECE" filter="url(#f1hygfscy62kbc)" height="107.6777" id="Compilation" style="stroke: #A80036; stroke-width: 1.125;" width="181.75" x="385.5" y="282.75"/><ellipse cx="445.8125" cy="296.9766" fill="#DA70D6" rx="8.25" ry="8.25" style="stroke: #A80036; stroke-width: 0.75;"/><path d="M446.7148,297.082 Q446.9844,297.1406 447.1836,297.3516 Q447.3945,297.5508 447.6875,298.1367 L449.3633,301.4766 L447.3477,301.4766 L446.2227,299.1328 Q446.1758,299.0273 446.0938,298.8516 Q445.6016,297.8086 444.9336,297.8086 L444.3477,297.8086 L444.3477,301.4766 L442.5195,301.4766 L442.5195,292.1836 L445.168,292.1836 Q446.9609,292.1836 447.7344,292.8164 Q448.5195,293.4492 448.5195,294.8789 Q448.5195,295.8398 448.0508,296.4141 Q447.5938,296.9766 446.7148,297.082 Z M444.3477,293.7305 L444.3477,296.2617 L445.2148,296.2617 Q445.9766,296.2617 446.293,295.9688 Q446.6211,295.6641 446.6211,294.9844 Q446.6211,294.3164 446.293,294.0234 Q445.9766,293.7305 445.2148,293.7305 L444.3477,293.7305 Z "/><text fill="#000000" font-family="sans-serif" font-size="9" font-style="italic" lengthAdjust="spacingAndGlyphs" textLength="54.75" x="461.1875" y="294.854">«Resource»</text><text fill="#000000" font-family="sans-serif" font-size="9" lengthAdjust="spacingAndGlyphs" textLength="54.75" x="461.1875" y="305.3306">Compilation</text><line style="stroke: #A80036; stroke-width: 1.125;" x1="386.25" x2="566.5" y1="311.2031" y2="311.2031"/><ellipse cx="393.75" cy="320.1299" fill="none" rx="2.25" ry="2.25" style="stroke: #038048; stroke-width: 0.75;"/><text fill="#000000" font-family="sans-serif" font-size="8.25" lengthAdjust="spacingAndGlyphs" textLength="84" x="400.5" y="321.861">compiler : Compiler</text><ellipse cx="393.75" cy="329.7334" fill="#84BE84" rx="2.25" ry="2.25" style="stroke: #038048; stroke-width: 0.75;"/><text fill="#000000" font-family="sans-serif" font-size="8.25" lengthAdjust="spacingAndGlyphs" textLength="150" x="400.5" y="331.4645">sources : Array&lt;Maybe&lt;Source&gt;&gt;</text><ellipse cx="393.75" cy="339.3369" fill="#84BE84" rx="2.25" ry="2.25" style="stroke: #038048; stroke-width: 0.75;"/><text fill="#000000" font-family="sans-serif" font-size="8.25" lengthAdjust="spacingAndGlyphs" textLength="156" x="400.5" y="341.068">contracts : Array&lt;SourceContract&gt;s</text><ellipse cx="393.75" cy="348.9404" fill="none" rx="2.25" ry="2.25" style="stroke: #038048; stroke-width: 0.75;"/><text fill="#000000" font-family="sans-serif" font-size="8.25" lengthAdjust="spacingAndGlyphs" textLength="141" x="400.5" y="350.6715">sourceMaps: Array&lt;SourceMap&gt;</text><line style="stroke: #A80036; stroke-width: 0.75; stroke-dasharray: 1.0,2.0;" x1="386.25" x2="566.5" y1="355.6172" y2="355.6172"/><rect fill="none" height="4.5" style="stroke: #C82930; stroke-width: 0.75;" width="4.5" x="391.5" y="362.2939"/><path d="M405.0313,360.6582 C404.0825,360.6582 403.3125,361.4282 403.3125,362.377 C403.3125,362.487 403.3352,362.5811 403.3558,362.6781 L401.25,364.7839 L401.25,366.1589 L403.3125,366.1589 L403.3125,364.7839 L404.6875,364.7839 L404.6875,364.0964 L404.7308,364.0531 C404.8271,364.0737 404.9213,364.0964 405.0319,364.0964 C405.9807,364.0964 406.7507,363.3264 406.7507,362.3776 C406.7507,361.4289 405.9807,360.6589 405.0319,360.6589 M405.3757,361.3464 C405.7538,361.3464 406.0632,361.6558 406.0632,362.0339 C406.0632,362.412 405.7538,362.7214 405.3757,362.7214 C404.9976,362.7214 404.6882,362.412 404.6882,362.0339 C404.6882,361.6558 404.9976,361.3464 405.3757,361.3464 " fill="#000000" style="stroke: ; stroke-width: 0.0; stroke-dasharray: ;"/><text fill="#000000" font-family="sans-serif" font-size="8.25" lengthAdjust="spacingAndGlyphs" textLength="21.75" x="410.5" y="366.275">id: ID</text><text fill="#000000" font-family="sans-serif" font-size="8.25" font-style="italic" lengthAdjust="spacingAndGlyphs" textLength="33.75" x="435.25" y="366.275">= hash(</text><text fill="#000000" font-family="sans-serif" font-size="8.25" lengthAdjust="spacingAndGlyphs" textLength="0" x="472" y="366.275"/><text fill="#000000" font-family="Andale Mono" font-size="8.25" lengthAdjust="spacingAndGlyphs" textLength="36.75" x="472" y="366.275">compiler</text><text fill="#000000" font-family="sans-serif" font-size="8.25" font-style="italic" lengthAdjust="spacingAndGlyphs" textLength="3" x="508.75" y="366.275">,</text><text fill="#000000" font-family="sans-serif" font-size="8.25" lengthAdjust="spacingAndGlyphs" textLength="0" x="514.75" y="366.275"/><text fill="#000000" font-family="Andale Mono" font-size="8.25" lengthAdjust="spacingAndGlyphs" textLength="42" x="514.75" y="366.275">sourceIds</text><text fill="#000000" font-family="sans-serif" font-size="8.25" lengthAdjust="spacingAndGlyphs" textLength="0" x="559.75" y="366.275"/><text fill="#000000" font-family="sans-serif" font-size="8.25" font-style="italic" lengthAdjust="spacingAndGlyphs" textLength="3" x="559.75" y="366.275">)</text><rect fill="none" height="4.5" style="stroke: #C82930; stroke-width: 0.75;" width="4.5" x="391.5" y="371.8975"/><text fill="#000000" font-family="sans-serif" font-size="8.25" lengthAdjust="spacingAndGlyphs" textLength="132.75" x="400.5" y="375.8785">sourceIds: Array&lt;Maybe&lt;ID&gt;&gt;</text><rect fill="none" height="4.5" style="stroke: #C82930; stroke-width: 0.75;" width="4.5" x="391.5" y="381.501"/><text fill="#000000" font-family="sans-serif" font-size="8.25" lengthAdjust="spacingAndGlyphs" textLength="141" x="400.5" y="385.4821">contractIds : Array&lt;Maybe&lt;ID&gt;&gt;</text><!--class SourceContract--><rect fill="#FEFECE" filter="url(#f1hygfscy62kbc)" height="78.8672" id="SourceContract" style="stroke: #A80036; stroke-width: 1.125;" width="97.5" x="516" y="159"/><ellipse cx="527.25" cy="173.2266" fill="#7CFC00" rx="8.25" ry="8.25" style="stroke: #A80036; stroke-width: 0.75;"/><path d="M527.332,169.9102 Q526.6289,169.9102 526.3008,170.6602 Q525.9844,171.4102 525.9844,173.0859 Q525.9844,174.7617 526.3008,175.5117 Q526.6289,176.2617 527.332,176.2617 Q528.0469,176.2617 528.3633,175.5117 Q528.6914,174.7617 528.6914,173.0859 Q528.6914,171.4102 528.3633,170.6602 Q528.0469,169.9102 527.332,169.9102 Z M524.0742,173.0859 Q524.0742,170.707 524.8945,169.4883 Q525.7266,168.2578 527.332,168.2578 Q528.9492,168.2578 529.7695,169.4883 Q530.6016,170.707 530.6016,173.0859 Q530.6016,175.4648 529.7695,176.6836 Q528.9492,177.9023 527.332,177.9023 Q525.7266,177.9023 524.8945,176.6836 Q524.0742,175.4648 524.0742,173.0859 Z "/><text fill="#000000" font-family="sans-serif" font-size="9" font-style="italic" lengthAdjust="spacingAndGlyphs" textLength="66" x="541.5" y="171.104">«Data Object»</text><text fill="#000000" font-family="sans-serif" font-size="9" lengthAdjust="spacingAndGlyphs" textLength="73.5" x="537.75" y="181.5806">SourceContract</text><line style="stroke: #A80036; stroke-width: 1.125;" x1="516.75" x2="612.75" y1="187.4531" y2="187.4531"/><ellipse cx="524.25" cy="196.3799" fill="none" rx="2.25" ry="2.25" style="stroke: #038048; stroke-width: 0.75;"/><text fill="#000000" font-family="sans-serif" font-size="8.25" lengthAdjust="spacingAndGlyphs" textLength="55.5" x="531" y="198.111">name: String</text><ellipse cx="524.25" cy="205.9834" fill="none" rx="2.25" ry="2.25" style="stroke: #038048; stroke-width: 0.75;"/><text fill="#000000" font-family="sans-serif" font-size="8.25" lengthAdjust="spacingAndGlyphs" textLength="36" x="531" y="207.7145">ast: AST</text><ellipse cx="524.25" cy="215.5869" fill="#84BE84" rx="2.25" ry="2.25" style="stroke: #038048; stroke-width: 0.75;"/><text fill="#000000" font-family="sans-serif" font-size="8.25" lengthAdjust="spacingAndGlyphs" textLength="65.25" x="531" y="217.318">source: Source</text><line style="stroke: #A80036; stroke-width: 0.75; stroke-dasharray: 1.0,2.0;" x1="516.75" x2="612.75" y1="222.2637" y2="222.2637"/><rect fill="none" height="4.5" style="stroke: #C82930; stroke-width: 0.75;" width="4.5" x="522" y="228.9404"/><text fill="#000000" font-family="sans-serif" font-size="8.25" lengthAdjust="spacingAndGlyphs" textLength="51" x="531" y="232.9215">sourceId: ID</text><!--class Compiler--><rect fill="#FEFECE" filter="url(#f1hygfscy62kbc)" height="69.2637" id="Compiler" style="stroke: #A80036; stroke-width: 1.125;" width="90" x="269.25" y="302.25"/><ellipse cx="281.85" cy="316.4766" fill="#7CFC00" rx="8.25" ry="8.25" style="stroke: #A80036; stroke-width: 0.75;"/><path d="M281.932,313.1602 Q281.2289,313.1602 280.9008,313.9102 Q280.5844,314.6602 280.5844,316.3359 Q280.5844,318.0117 280.9008,318.7617 Q281.2289,319.5117 281.932,319.5117 Q282.6469,319.5117 282.9633,318.7617 Q283.2914,318.0117 283.2914,316.3359 Q283.2914,314.6602 282.9633,313.9102 Q282.6469,313.1602 281.932,313.1602 Z M278.6742,316.3359 Q278.6742,313.957 279.4945,312.7383 Q280.3266,311.5078 281.932,311.5078 Q283.5492,311.5078 284.3695,312.7383 Q285.2016,313.957 285.2016,316.3359 Q285.2016,318.7148 284.3695,319.9336 Q283.5492,321.1523 281.932,321.1523 Q280.3266,321.1523 279.4945,319.9336 Q278.6742,318.7148 278.6742,316.3359 Z "/><text fill="#000000" font-family="sans-serif" font-size="9" font-style="italic" lengthAdjust="spacingAndGlyphs" textLength="66" x="291.15" y="314.354">«Data Object»</text><text fill="#000000" font-family="sans-serif" font-size="9" lengthAdjust="spacingAndGlyphs" textLength="40.5" x="303.9" y="324.8306">Compiler</text><line style="stroke: #A80036; stroke-width: 1.125;" x1="270" x2="358.5" y1="330.7031" y2="330.7031"/><ellipse cx="277.5" cy="339.6299" fill="none" rx="2.25" ry="2.25" style="stroke: #038048; stroke-width: 0.75;"/><text fill="#000000" font-family="sans-serif" font-size="8.25" lengthAdjust="spacingAndGlyphs" textLength="58.5" x="284.25" y="341.361">name : String</text><ellipse cx="277.5" cy="349.2334" fill="none" rx="2.25" ry="2.25" style="stroke: #038048; stroke-width: 0.75;"/><text fill="#000000" font-family="sans-serif" font-size="8.25" lengthAdjust="spacingAndGlyphs" textLength="66" x="284.25" y="350.9645">version : String</text><ellipse cx="277.5" cy="358.8369" fill="none" rx="2.25" ry="2.25" style="stroke: #038048; stroke-width: 0.75;"/><text fill="#000000" font-family="sans-serif" font-size="8.25" lengthAdjust="spacingAndGlyphs" textLength="70.5" x="284.25" y="360.568">settings : Object</text><line style="stroke: #A80036; stroke-width: 1.125;" x1="270" x2="358.5" y1="365.5137" y2="365.5137"/><!--class LinkReference--><rect fill="#FEFECE" filter="url(#f1hygfscy62kbc)" height="69.2637" id="LinkReference" style="stroke: #A80036; stroke-width: 1.125;" width="136.5" x="4.5" y="163.875"/><ellipse cx="36.675" cy="178.1016" fill="#7CFC00" rx="8.25" ry="8.25" style="stroke: #A80036; stroke-width: 0.75;"/><path d="M36.757,174.7852 Q36.0539,174.7852 35.7258,175.5352 Q35.4094,176.2852 35.4094,177.9609 Q35.4094,179.6367 35.7258,180.3867 Q36.0539,181.1367 36.757,181.1367 Q37.4719,181.1367 37.7883,180.3867 Q38.1164,179.6367 38.1164,177.9609 Q38.1164,176.2852 37.7883,175.5352 Q37.4719,174.7852 36.757,174.7852 Z M33.4992,177.9609 Q33.4992,175.582 34.3195,174.3633 Q35.1516,173.1328 36.757,173.1328 Q38.3742,173.1328 39.1945,174.3633 Q40.0266,175.582 40.0266,177.9609 Q40.0266,180.3398 39.1945,181.5586 Q38.3742,182.7773 36.757,182.7773 Q35.1516,182.7773 34.3195,181.5586 Q33.4992,180.3398 33.4992,177.9609 Z "/><text fill="#000000" font-family="sans-serif" font-size="9" font-style="italic" lengthAdjust="spacingAndGlyphs" textLength="66" x="51.825" y="175.979">«Data Object»</text><text fill="#000000" font-family="sans-serif" font-size="9" lengthAdjust="spacingAndGlyphs" textLength="66" x="51.825" y="186.4556">LinkReference</text><line style="stroke: #A80036; stroke-width: 1.125;" x1="5.25" x2="140.25" y1="192.3281" y2="192.3281"/><ellipse cx="12.75" cy="201.2549" fill="none" rx="2.25" ry="2.25" style="stroke: #038048; stroke-width: 0.75;"/><text fill="#000000" font-family="sans-serif" font-size="8.25" lengthAdjust="spacingAndGlyphs" textLength="117" x="19.5" y="202.986">offsets: Array&lt;ByteOffset&gt;</text><ellipse cx="12.75" cy="210.8584" fill="none" rx="2.25" ry="2.25" style="stroke: #038048; stroke-width: 0.75;"/><text fill="#000000" font-family="sans-serif" font-size="8.25" lengthAdjust="spacingAndGlyphs" textLength="96" x="19.5" y="212.5895">name: Maybe&lt;String&gt;</text><ellipse cx="12.75" cy="220.4619" fill="none" rx="2.25" ry="2.25" style="stroke: #038048; stroke-width: 0.75;"/><text fill="#000000" font-family="sans-serif" font-size="8.25" lengthAdjust="spacingAndGlyphs" textLength="62.25" x="19.5" y="222.193">length: Integer</text><line style="stroke: #A80036; stroke-width: 1.125;" x1="5.25" x2="140.25" y1="227.1387" y2="227.1387"/><!--class SourceMap--><rect fill="#FEFECE" filter="url(#f1hygfscy62kbc)" height="50.0566" id="SourceMap" style="stroke: #A80036; stroke-width: 1.125;" width="87" x="432.75" y="435.75"/><ellipse cx="444" cy="449.9766" fill="#7CFC00" rx="8.25" ry="8.25" style="stroke: #A80036; stroke-width: 0.75;"/><path d="M444.082,446.6602 Q443.3789,446.6602 443.0508,447.4102 Q442.7344,448.1602 442.7344,449.8359 Q442.7344,451.5117 443.0508,452.2617 Q443.3789,453.0117 444.082,453.0117 Q444.7969,453.0117 445.1133,452.2617 Q445.4414,451.5117 445.4414,449.8359 Q445.4414,448.1602 445.1133,447.4102 Q444.7969,446.6602 444.082,446.6602 Z M440.8242,449.8359 Q440.8242,447.457 441.6445,446.2383 Q442.4766,445.0078 444.082,445.0078 Q445.6992,445.0078 446.5195,446.2383 Q447.3516,447.457 447.3516,449.8359 Q447.3516,452.2148 446.5195,453.4336 Q445.6992,454.6523 444.082,454.6523 Q442.4766,454.6523 441.6445,453.4336 Q440.8242,452.2148 440.8242,449.8359 Z "/><text fill="#000000" font-family="sans-serif" font-size="9" font-style="italic" lengthAdjust="spacingAndGlyphs" textLength="66" x="453" y="447.854">«Data Object»</text><text fill="#000000" font-family="sans-serif" font-size="9" lengthAdjust="spacingAndGlyphs" textLength="52.5" x="459.75" y="458.3306">SourceMap</text><line style="stroke: #A80036; stroke-width: 1.125;" x1="433.5" x2="519" y1="464.2031" y2="464.2031"/><ellipse cx="441" cy="473.1299" fill="none" rx="2.25" ry="2.25" style="stroke: #038048; stroke-width: 0.75;"/><text fill="#000000" font-family="sans-serif" font-size="8.25" lengthAdjust="spacingAndGlyphs" textLength="49.5" x="447.75" y="474.861">json: String</text><line style="stroke: #A80036; stroke-width: 1.125;" x1="433.5" x2="519" y1="479.8066" y2="479.8066"/><!--link Instruction to InstructionMeta--><path d="M281.682,60 C287.0295,60 292.3778,60 297.7252,60 " fill="none" id="Instruction-InstructionMeta" style="stroke: #A80036; stroke-width: 0.75;"/><polygon fill="#A80036" points="271.7318,60,276.2318,63,280.7318,60,276.2318,57,271.7318,60" style="stroke: #A80036; stroke-width: 0.75;"/><text fill="#000000" font-family="sans-serif" font-size="9.75" lengthAdjust="spacingAndGlyphs" textLength="6" x="285.7388" y="57.1488">1</text><!--link Instruction to Bytecode--><path d="M223.7378,99.6067 C228.927,115.1333 234.9577,133.1745 240.4193,149.5155 " fill="none" id="Instruction-Bytecode" style="stroke: #A80036; stroke-width: 0.75;"/><polygon fill="#A80036" points="243.5588,158.9085,244.978,153.6897,240.7065,150.3724,239.2873,155.5912,243.5588,158.9085" style="stroke: #A80036; stroke-width: 0.75;"/><text fill="#000000" font-family="sans-serif" font-size="9.75" lengthAdjust="spacingAndGlyphs" textLength="6" x="219.0174" y="114.4511">n</text><!--link SourceContract to Compilation--><path d="M539.6265,237.9818 C532.3185,249.2835 524.1488,261.9188 516.1695,274.26 " fill="none" id="SourceContract-Compilation" style="stroke: #A80036; stroke-width: 0.75;"/><polygon fill="#A80036" points="510.6885,282.738,515.6511,280.5879,515.5751,275.1801,510.6125,277.3302,510.6885,282.738" style="stroke: #A80036; stroke-width: 0.75;"/><text fill="#000000" font-family="sans-serif" font-size="9.75" lengthAdjust="spacingAndGlyphs" textLength="6" x="530.0232" y="252.8261">n</text><!--link Contract to Bytecode--><path d="M412.9605,116.5058 C385.494,130.746 356.5628,145.746 331.152,158.9205 " fill="none" id="Contract-Bytecode" style="stroke: #A80036; stroke-width: 0.75;"/><polygon fill="#FFFFFF" points="421.821,111.912,416.4452,111.3201,413.8312,116.0548,419.207,116.6467,421.821,111.912" style="stroke: #A80036; stroke-width: 0.75;"/><text fill="#000000" font-family="sans-serif" font-size="9.75" lengthAdjust="spacingAndGlyphs" textLength="18" x="321.974" y="150.6619">0..2</text><!--link Contract to Compilation--><path d="M508.6027,123.903 C506.4997,135.5618 504.3825,147.639 502.5,159 C495.6315,200.4502 488.6933,247.5075 483.6765,282.6773 " fill="none" id="Contract-Compilation" style="stroke: #A80036; stroke-width: 0.75;"/><polygon fill="#FFFFFF" points="510.3608,114.2332,506.6045,118.1243,508.7516,123.0882,512.5078,119.1971,510.3608,114.2332" style="stroke: #A80036; stroke-width: 0.75;"/><text fill="#000000" font-family="sans-serif" font-size="9.75" lengthAdjust="spacingAndGlyphs" textLength="18" x="465.5013" y="274.3428">0..1</text><!--link Contract to SourceContract--><path d="M540.825,123.6203 C544.71,135.6375 548.6692,147.8842 552.2198,158.8665 " fill="none" id="Contract-SourceContract" style="stroke: #A80036; stroke-width: 0.75; stroke-dasharray: 7.0,7.0;"/><polygon fill="#FFFFFF" points="537.735,114.0615,536.2647,119.2661,540.5035,122.6251,541.9738,117.4205,537.735,114.0615" style="stroke: #A80036; stroke-width: 0.75;"/><text fill="#000000" font-family="sans-serif" font-size="9.75" lengthAdjust="spacingAndGlyphs" textLength="6" x="544.1329" y="150.6007">1</text><!--link LinkReference to Bytecode--><path d="M141.297,198.375 C146.7818,198.375 152.2665,198.375 157.7505,198.375 " fill="none" id="LinkReference-Bytecode" style="stroke: #A80036; stroke-width: 0.75;"/><polygon fill="#A80036" points="167.6228,198.375,163.1228,195.375,158.6228,198.375,163.1228,201.375,167.6228,198.375" style="stroke: #A80036; stroke-width: 0.75;"/><text fill="#000000" font-family="sans-serif" font-size="9.75" lengthAdjust="spacingAndGlyphs" textLength="6" x="146.9984" y="195.7204">n</text><!--link SourceContract to Source--><path d="M605.952,245.256 C622.5938,263.889 641.448,284.9985 656.781,302.166 " fill="none" id="SourceContract-Source" style="stroke: #A80036; stroke-width: 0.75;"/><polygon fill="#FFFFFF" points="599.4548,237.9818,600.215,243.3364,605.4501,244.6941,604.6899,239.3395,599.4548,237.9818" style="stroke: #A80036; stroke-width: 0.75;"/><text fill="#000000" font-family="sans-serif" font-size="9.75" lengthAdjust="spacingAndGlyphs" textLength="6" x="645.8836" y="294.0484">1</text><!--link Compiler to Compilation--><path d="M359.496,336.75 C364.8443,336.75 370.1925,336.75 375.5408,336.75 " fill="none" id="Compiler-Compilation" style="stroke: #A80036; stroke-width: 0.75;"/><polygon fill="#A80036" points="385.4918,336.75,380.9917,333.75,376.4917,336.75,380.9917,339.75,385.4918,336.75" style="stroke: #A80036; stroke-width: 0.75;"/><text fill="#000000" font-family="sans-serif" font-size="9.75" lengthAdjust="spacingAndGlyphs" textLength="6" x="365.376" y="333.8546">1</text><!--link Compilation to Source--><path d="M576.7673,336.75 C582.1868,336.75 587.6063,336.75 593.0258,336.75 " fill="none" id="Compilation-Source" style="stroke: #A80036; stroke-width: 0.75;"/><polygon fill="#FFFFFF" points="567.0128,336.75,571.5128,339.75,576.0128,336.75,571.5128,333.75,567.0128,336.75" style="stroke: #A80036; stroke-width: 0.75;"/><text fill="#000000" font-family="sans-serif" font-size="9.75" lengthAdjust="spacingAndGlyphs" textLength="6" x="581.1088" y="334.2024">n</text><!--link Compilation to SourceMap--><path d="M476.25,400.866 C476.25,413.2757 476.25,425.5733 476.25,435.7218 " fill="none" id="Compilation-SourceMap" style="stroke: #A80036; stroke-width: 0.75;"/><polygon fill="#A80036" points="476.25,390.9285,473.25,395.4285,476.25,399.9285,479.25,395.4285,476.25,390.9285" style="stroke: #A80036; stroke-width: 0.75;"/><text fill="#000000" font-family="sans-serif" font-size="9.75" lengthAdjust="spacingAndGlyphs" textLength="18" x="456.4781" y="427.4914">0..1</text><!--
@startuml
scale 0.75



skinparam defaultMonospacedFontName Andale Mono





    class Contract << (R,darkorange) External Resource >> {
      + name: String
      + abi: ABI
      + {method} createBytecode: Maybe<Bytecode>
      + {method} callBytecode: Maybe<Bytecode>
      + {method} compilation: Maybe<Compilation>
      + {method} sourceContract: Maybe<SourceContract>
      + {method} interface: ContractInterface
    }






    class Bytecode << (R,orchid) Resource >> {
      + bytes: Bytes
      + linkReferences : Set<LinkReference>
      + {method} instructions: Array<Instruction>
      ..
      - {field} <&key> id: ID //= hash(// ""bytes"" //)//
    }

    class Instruction << (O,lawngreen) Data Object >> {
      + programCounter: String
      + opcode: Integer
      + pushData: String
      + meta: InstructionMeta
    }

    class InstructionMeta << (O,lawngreen) Data Object >> {
      + cost: Integer
      + pops: Integer
      + pushes: Integer
      + dynamic: Integer
    }

    Instruction *-right- "1" InstructionMeta
    Instruction "n" - -* Bytecode

    class Source << (R,orchid) Resource >> {
      + contents: String
      + sourcePath: Maybe<String>
      ..
      - {field} <&key> id: ID //= hash(// ""contents""//,// ""sourcePath"" //)//
    }




    class Compilation << (R,orchid) Resource >> {
      + compiler : Compiler
      + {method} sources : Array<Maybe<Source>>
      + {method} contracts : Array<SourceContract>s
      + sourceMaps: Array<SourceMap>
      ..
      - {field} <&key> id: ID //= hash(// ""compiler""//,// ""sourceIds"" //)//
      - sourceIds: Array<Maybe<ID>>
      - contractIds : Array<Maybe<ID>>
    }

  SourceContract "n" - -* Compilation







  class Compiler << (O,lawngreen) Data Object >> {
    + name : String
    + version : String
    + settings : Object
  }




    class LinkReference << (O,lawngreen) Data Object >> {
      + offsets: Array<ByteOffset>
      + name: Maybe<String>
      + length: Integer
    }

    class SourceMap << (O,lawngreen) Data Object >> {
      + json: String
    }


    class SourceContract << (O,lawngreen) Data Object >> {
      + name: String
      + ast: AST
      + {method} source: Source
      ..
      - sourceId: ID
    }










  Contract o- - "0..2" Bytecode


  Contract o- - "0..1" Compilation
  Contract o.. "1" SourceContract



  LinkReference "n" -* Bytecode



  SourceContract o- - "1" Source





  Compilation *-left- "1" Compiler

  Compilation o-right- "n" Source


  Compilation *- - "0..1" SourceMap






@enduml

PlantUML version 1.2018.14(Fri Dec 21 16:33:16 UTC 2018)
(GPL source distribution)
Java Runtime: OpenJDK Runtime Environment
JVM: OpenJDK 64-Bit Server VM
Java Version: 11.0.2+9
Operating System: Linux
OS Version: 4.15.0-1028-gcp
Default Encoding: UTF-8
Language: en
Country: US
--></g></svg>