<?xml version="1.0" encoding="UTF-8" standalone="no"?><svg xmlns="http://www.w3.org/2000/svg" xmlns:xlink="http://www.w3.org/1999/xlink" contentScriptType="application/ecmascript" contentStyleType="text/css" height="124px" preserveAspectRatio="none" style="width:438px;height:124px;" version="1.1" viewBox="0 0 438 124" width="438px" zoomAndPan="magnify"><defs><filter height="300%" id="f9wc6pk57p8c4" width="300%" x="-1" y="-1"><feGaussianBlur result="blurOut" stdDeviation="2.0"/><feColorMatrix in="blurOut" result="blurOut2" type="matrix" values="0 0 0 0 0 0 0 0 0 0 0 0 0 0 0 0 0 0 .4 0"/><feOffset dx="4.0" dy="4.0" in="blurOut2" result="blurOut3"/><feBlend in="SourceGraphic" in2="blurOut3" mode="normal"/></filter></defs><g><!--class Network--><rect fill="#FEFECE" filter="url(#f9wc6pk57p8c4)" height="105.1563" id="Network" style="stroke: #A80036; stroke-width: 1.5;" width="160" x="166.25" y="8.5"/><ellipse cx="208.25" cy="27.4688" fill="#DA70D6" rx="11" ry="11" style="stroke: #A80036; stroke-width: 1.0;"/><path d="M209.4531,27.6094 Q209.8125,27.6875 210.0859,27.9609 Q210.3594,28.2344 210.75,29.0156 L212.9844,33.4688 L210.2969,33.4688 L208.7969,30.3438 Q208.7344,30.2031 208.625,29.9688 Q207.9688,28.5781 207.0781,28.5781 L206.2969,28.5781 L206.2969,33.4688 L203.8594,33.4688 L203.8594,21.0781 L207.3906,21.0781 Q209.7813,21.0781 210.8203,21.9219 Q211.8594,22.7656 211.8594,24.6719 Q211.8594,25.9531 211.2422,26.7109 Q210.625,27.4688 209.4531,27.6094 Z M206.2969,23.1406 L206.2969,26.5156 L207.4531,26.5156 Q208.4688,26.5156 208.8984,26.1172 Q209.3281,25.7188 209.3281,24.8125 Q209.3281,23.9219 208.8984,23.5313 Q208.4688,23.1406 207.4531,23.1406 L206.2969,23.1406 Z "/><text fill="#000000" font-family="sans-serif" font-size="12" font-style="italic" lengthAdjust="spacingAndGlyphs" textLength="72" x="226.25" y="24.6387">«Resource»</text><text fill="#000000" font-family="sans-serif" font-size="12" lengthAdjust="spacingAndGlyphs" textLength="51" x="236.75" y="38.6074">Network</text><line style="stroke: #A80036; stroke-width: 1.5;" x1="167.25" x2="325.25" y1="46.4375" y2="46.4375"/><ellipse cx="177.25" cy="58.3398" fill="none" rx="3" ry="3" style="stroke: #038048; stroke-width: 1.0;"/><text fill="#000000" font-family="sans-serif" font-size="11" lengthAdjust="spacingAndGlyphs" textLength="78" x="186.25" y="60.6479">name : String</text><ellipse cx="177.25" cy="71.1445" fill="none" rx="3" ry="3" style="stroke: #038048; stroke-width: 1.0;"/><text fill="#000000" font-family="sans-serif" font-size="11" lengthAdjust="spacingAndGlyphs" textLength="124" x="186.25" y="73.4526">networkId : NetworkID</text><ellipse cx="177.25" cy="83.9492" fill="none" rx="3" ry="3" style="stroke: #038048; stroke-width: 1.0;"/><text fill="#000000" font-family="sans-serif" font-size="11" lengthAdjust="spacingAndGlyphs" textLength="134" x="186.25" y="86.2573">fork : Maybe&lt;Network&gt;</text><ellipse cx="177.25" cy="96.7539" fill="none" rx="3" ry="3" style="stroke: #038048; stroke-width: 1.0;"/><text fill="#000000" font-family="sans-serif" font-size="11" lengthAdjust="spacingAndGlyphs" textLength="110" x="186.25" y="99.062">historicBlock: Block</text><line style="stroke: #A80036; stroke-width: 1.5;" x1="167.25" x2="325.25" y1="105.6563" y2="105.6563"/><!--class Block--><rect fill="#FEFECE" filter="url(#f9wc6pk57p8c4)" height="79.5469" id="Block" style="stroke: #A80036; stroke-width: 1.5;" width="125" x="6" y="21"/><ellipse cx="25.5" cy="39.9688" fill="#7CFC00" rx="11" ry="11" style="stroke: #A80036; stroke-width: 1.0;"/><path d="M25.6094,35.5469 Q24.6719,35.5469 24.2422,36.5469 Q23.8125,37.5469 23.8125,39.7813 Q23.8125,42.0156 24.2422,43.0156 Q24.6719,44.0156 25.6094,44.0156 Q26.5625,44.0156 26.9922,43.0156 Q27.4219,42.0156 27.4219,39.7813 Q27.4219,37.5469 26.9922,36.5469 Q26.5625,35.5469 25.6094,35.5469 Z M21.2656,39.7813 Q21.2656,36.6094 22.3672,34.9766 Q23.4688,33.3438 25.6094,33.3438 Q27.7656,33.3438 28.8672,34.9766 Q29.9688,36.6094 29.9688,39.7813 Q29.9688,42.9531 28.8672,44.5781 Q27.7656,46.2031 25.6094,46.2031 Q23.4688,46.2031 22.3672,44.5781 Q21.2656,42.9531 21.2656,39.7813 Z "/><text fill="#000000" font-family="sans-serif" font-size="12" font-style="italic" lengthAdjust="spacingAndGlyphs" textLength="87" x="38.5" y="37.1387">«Data Object»</text><text fill="#000000" font-family="sans-serif" font-size="12" lengthAdjust="spacingAndGlyphs" textLength="33" x="65.5" y="51.1074">Block</text><line style="stroke: #A80036; stroke-width: 1.5;" x1="7" x2="130" y1="58.9375" y2="58.9375"/><ellipse cx="17" cy="70.8398" fill="none" rx="3" ry="3" style="stroke: #038048; stroke-width: 1.0;"/><text fill="#000000" font-family="sans-serif" font-size="11" lengthAdjust="spacingAndGlyphs" textLength="87" x="26" y="73.1479">height : Integer</text><ellipse cx="17" cy="83.6445" fill="none" rx="3" ry="3" style="stroke: #038048; stroke-width: 1.0;"/><text fill="#000000" font-family="sans-serif" font-size="11" lengthAdjust="spacingAndGlyphs" textLength="99" x="26" y="85.9526">hash : BlockHash</text><line style="stroke: #A80036; stroke-width: 1.5;" x1="7" x2="130" y1="92.5469" y2="92.5469"/><!--link Network to Network--><path d="M339.42,43.5483 C352.494,46.396 361.25,52.2133 361.25,61 C361.25,72.4766 346.312,78.8873 326.327,80.2322 " fill="none" id="Network-Network" style="stroke: #A80036; stroke-width: 1.0;"/><polygon fill="#FFFFFF" points="326.327,41.7678,331.7334,46.5397,338.2176,43.3845,332.8112,38.6126,326.327,41.7678" style="stroke: #A80036; stroke-width: 1.0;"/><text fill="#000000" font-family="sans-serif" font-size="13" lengthAdjust="spacingAndGlyphs" textLength="59" x="367.25" y="65.0669">«refines»</text><text fill="#000000" font-family="sans-serif" font-size="13" lengthAdjust="spacingAndGlyphs" textLength="24" x="334.2399" y="77.2204">0..1</text><!--link Block to Network--><path d="M130.828,61 C138.155,61 145.481,61 152.808,61 " fill="none" id="Block-Network" style="stroke: #A80036; stroke-width: 1.0;"/><polygon fill="#A80036" points="165.996,61,159.996,57,153.996,61,159.996,65,165.996,61" style="stroke: #A80036; stroke-width: 1.0;"/><text fill="#000000" font-family="sans-serif" font-size="13" lengthAdjust="spacingAndGlyphs" textLength="8" x="138.9117" y="56.0667">1</text><!--
@startuml














  class Network << (R,orchid) Resource >> {
    + name : String
    + networkId : NetworkID
    + fork : Maybe<Network>
    + historicBlock: Block
  }


    class Block << (O,lawngreen) Data Object >> {
      + height : Integer
      + hash : BlockHash
    }

    Network o- - "0..1" Network : <<refines>>
    Network *-left- "1" Block






































@enduml

PlantUML version 1.2018.14(Fri Dec 21 16:33:16 UTC 2018)
(GPL source distribution)
Java Runtime: Java(TM) SE Runtime Environment
JVM: Java HotSpot(TM) 64-Bit Server VM
Java Version: 1.8.0_151-b12
Operating System: Linux
OS Version: 4.4.0-101-generic
Default Encoding: UTF-8
Language: en
Country: US
--></g></svg>