<?xml version="1.0" encoding="UTF-8" standalone="no"?><svg xmlns="http://www.w3.org/2000/svg" xmlns:xlink="http://www.w3.org/1999/xlink" contentScriptType="application/ecmascript" contentStyleType="text/css" height="250px" preserveAspectRatio="none" style="width:448px;height:250px;" version="1.1" viewBox="0 0 448 250" width="448px" zoomAndPan="magnify"><defs><filter height="300%" id="f1v8mdsh2770no" width="300%" x="-1" y="-1"><feGaussianBlur result="blurOut" stdDeviation="2.0"/><feColorMatrix in="blurOut" result="blurOut2" type="matrix" values="0 0 0 0 0 0 0 0 0 0 0 0 0 0 0 0 0 0 .4 0"/><feOffset dx="4.0" dy="4.0" in="blurOut2" result="blurOut3"/><feBlend in="SourceGraphic" in2="blurOut3" mode="normal"/></filter></defs><g><!--class Compilation--><rect fill="#FEFECE" filter="url(#f1v8mdsh2770no)" height="79.5469" id="Compilation" style="stroke: #A80036; stroke-width: 1.5;" width="226" x="6" y="160"/><ellipse cx="78.25" cy="178.9688" fill="#DA70D6" rx="11" ry="11" style="stroke: #A80036; stroke-width: 1.0;"/><path d="M79.4531,179.1094 Q79.8125,179.1875 80.0859,179.4609 Q80.3594,179.7344 80.75,180.5156 L82.9844,184.9688 L80.2969,184.9688 L78.7969,181.8438 Q78.7344,181.7031 78.625,181.4688 Q77.9688,180.0781 77.0781,180.0781 L76.2969,180.0781 L76.2969,184.9688 L73.8594,184.9688 L73.8594,172.5781 L77.3906,172.5781 Q79.7813,172.5781 80.8203,173.4219 Q81.8594,174.2656 81.8594,176.1719 Q81.8594,177.4531 81.2422,178.2109 Q80.625,178.9688 79.4531,179.1094 Z M76.2969,174.6406 L76.2969,178.0156 L77.4531,178.0156 Q78.4688,178.0156 78.8984,177.6172 Q79.3281,177.2188 79.3281,176.3125 Q79.3281,175.4219 78.8984,175.0313 Q78.4688,174.6406 77.4531,174.6406 L76.2969,174.6406 Z "/><text fill="#000000" font-family="sans-serif" font-size="12" font-style="italic" lengthAdjust="spacingAndGlyphs" textLength="72" x="99.25" y="176.1387">«Resource»</text><text fill="#000000" font-family="sans-serif" font-size="12" lengthAdjust="spacingAndGlyphs" textLength="73" x="98.75" y="190.1074">Compilation</text><line style="stroke: #A80036; stroke-width: 1.5;" x1="7" x2="231" y1="197.9375" y2="197.9375"/><ellipse cx="17" cy="209.8398" fill="none" rx="3" ry="3" style="stroke: #038048; stroke-width: 1.0;"/><text fill="#000000" font-family="sans-serif" font-size="11" lengthAdjust="spacingAndGlyphs" textLength="112" x="26" y="212.1479">compiler : Compiler</text><ellipse cx="17" cy="222.6445" fill="none" rx="3" ry="3" style="stroke: #038048; stroke-width: 1.0;"/><text fill="#000000" font-family="sans-serif" font-size="11" lengthAdjust="spacingAndGlyphs" textLength="200" x="26" y="224.9526">sources : Array&lt;Maybe&lt;Source&gt;&gt;</text><line style="stroke: #A80036; stroke-width: 1.5;" x1="7" x2="231" y1="231.5469" y2="231.5469"/><!--class Compiler--><rect fill="#FEFECE" filter="url(#f1v8mdsh2770no)" height="92.3516" id="Compiler" style="stroke: #A80036; stroke-width: 1.5;" width="120" x="59.5" y="8"/><ellipse cx="76.75" cy="26.9688" fill="#7CFC00" rx="11" ry="11" style="stroke: #A80036; stroke-width: 1.0;"/><path d="M76.8594,22.5469 Q75.9219,22.5469 75.4922,23.5469 Q75.0625,24.5469 75.0625,26.7813 Q75.0625,29.0156 75.4922,30.0156 Q75.9219,31.0156 76.8594,31.0156 Q77.8125,31.0156 78.2422,30.0156 Q78.6719,29.0156 78.6719,26.7813 Q78.6719,24.5469 78.2422,23.5469 Q77.8125,22.5469 76.8594,22.5469 Z M72.5156,26.7813 Q72.5156,23.6094 73.6172,21.9766 Q74.7188,20.3438 76.8594,20.3438 Q79.0156,20.3438 80.1172,21.9766 Q81.2188,23.6094 81.2188,26.7813 Q81.2188,29.9531 80.1172,31.5781 Q79.0156,33.2031 76.8594,33.2031 Q74.7188,33.2031 73.6172,31.5781 Q72.5156,29.9531 72.5156,26.7813 Z "/><text fill="#000000" font-family="sans-serif" font-size="12" font-style="italic" lengthAdjust="spacingAndGlyphs" textLength="87" x="89.25" y="24.1387">«Data Object»</text><text fill="#000000" font-family="sans-serif" font-size="12" lengthAdjust="spacingAndGlyphs" textLength="54" x="105.75" y="38.1074">Compiler</text><line style="stroke: #A80036; stroke-width: 1.5;" x1="60.5" x2="178.5" y1="45.9375" y2="45.9375"/><ellipse cx="70.5" cy="57.8398" fill="none" rx="3" ry="3" style="stroke: #038048; stroke-width: 1.0;"/><text fill="#000000" font-family="sans-serif" font-size="11" lengthAdjust="spacingAndGlyphs" textLength="78" x="79.5" y="60.1479">name : String</text><ellipse cx="70.5" cy="70.6445" fill="none" rx="3" ry="3" style="stroke: #038048; stroke-width: 1.0;"/><text fill="#000000" font-family="sans-serif" font-size="11" lengthAdjust="spacingAndGlyphs" textLength="88" x="79.5" y="72.9526">version : String</text><ellipse cx="70.5" cy="83.4492" fill="none" rx="3" ry="3" style="stroke: #038048; stroke-width: 1.0;"/><text fill="#000000" font-family="sans-serif" font-size="11" lengthAdjust="spacingAndGlyphs" textLength="94" x="79.5" y="85.7573">settings : Object</text><line style="stroke: #A80036; stroke-width: 1.5;" x1="60.5" x2="178.5" y1="92.3516" y2="92.3516"/><!--class SourceContract--><rect fill="#FEFECE" filter="url(#f1v8mdsh2770no)" height="79.5469" id="SourceContract" style="stroke: #A80036; stroke-width: 1.5;" width="170" x="267" y="160"/><ellipse cx="300" cy="178.9688" fill="#7CFC00" rx="11" ry="11" style="stroke: #A80036; stroke-width: 1.0;"/><path d="M300.1094,174.5469 Q299.1719,174.5469 298.7422,175.5469 Q298.3125,176.5469 298.3125,178.7813 Q298.3125,181.0156 298.7422,182.0156 Q299.1719,183.0156 300.1094,183.0156 Q301.0625,183.0156 301.4922,182.0156 Q301.9219,181.0156 301.9219,178.7813 Q301.9219,176.5469 301.4922,175.5469 Q301.0625,174.5469 300.1094,174.5469 Z M295.7656,178.7813 Q295.7656,175.6094 296.8672,173.9766 Q297.9688,172.3438 300.1094,172.3438 Q302.2656,172.3438 303.3672,173.9766 Q304.4688,175.6094 304.4688,178.7813 Q304.4688,181.9531 303.3672,183.5781 Q302.2656,185.2031 300.1094,185.2031 Q297.9688,185.2031 296.8672,183.5781 Q295.7656,181.9531 295.7656,178.7813 Z "/><text fill="#000000" font-family="sans-serif" font-size="12" font-style="italic" lengthAdjust="spacingAndGlyphs" textLength="87" x="323.5" y="176.1387">«Data Object»</text><text fill="#000000" font-family="sans-serif" font-size="12" lengthAdjust="spacingAndGlyphs" textLength="98" x="318" y="190.1074">SourceContract</text><line style="stroke: #A80036; stroke-width: 1.5;" x1="268" x2="436" y1="197.9375" y2="197.9375"/><ellipse cx="278" cy="209.8398" fill="none" rx="3" ry="3" style="stroke: #038048; stroke-width: 1.0;"/><text fill="#000000" font-family="sans-serif" font-size="11" lengthAdjust="spacingAndGlyphs" textLength="78" x="287" y="212.1479">name : String</text><ellipse cx="278" cy="222.6445" fill="none" rx="3" ry="3" style="stroke: #038048; stroke-width: 1.0;"/><text fill="#000000" font-family="sans-serif" font-size="11" lengthAdjust="spacingAndGlyphs" textLength="144" x="287" y="224.9526">compilation : Compilation</text><line style="stroke: #A80036; stroke-width: 1.5;" x1="268" x2="436" y1="231.5469" y2="231.5469"/><!--link Compiler to Compilation--><path d="M119,100.167 C119,114.968 119,131.533 119,146.8086 " fill="none" id="Compiler-Compilation" style="stroke: #A80036; stroke-width: 1.0;"/><polygon fill="#A80036" points="119,159.8238,123,153.8238,119,147.8238,115,153.8238,119,159.8238" style="stroke: #A80036; stroke-width: 1.0;"/><text fill="#000000" font-family="sans-serif" font-size="13" lengthAdjust="spacingAndGlyphs" textLength="8" x="109.1578" y="120.4349">1</text><!--link Compilation to SourceContract--><path d="M245.558,200 C252.676,200 259.794,200 266.911,200 " fill="none" id="Compilation-SourceContract" style="stroke: #A80036; stroke-width: 1.0;"/><polygon fill="#A80036" points="232.314,200,238.314,204,244.314,200,238.314,196,232.314,200" style="stroke: #A80036; stroke-width: 1.0;"/><text fill="#000000" font-family="sans-serif" font-size="13" lengthAdjust="spacingAndGlyphs" textLength="8" x="251.0136" y="195.4385">n</text><!--
@startuml













  class Compilation << (R,orchid) Resource >> {
    + compiler : Compiler
    + sources : Array<Maybe<Source>>
  }

  class Compiler << (O,lawngreen) Data Object >> {
    + name : String
    + version : String
    + settings : Object
  }

  Compiler "1" - -* Compilation
  SourceContract "n" -right-* Compilation













  class SourceContract << (O,lawngreen) Data Object >> {
    + name : String
    + compilation : Compilation
  }





























@enduml

PlantUML version 1.2018.14(Fri Dec 21 16:33:16 UTC 2018)
(GPL source distribution)
Java Runtime: Java(TM) SE Runtime Environment
JVM: Java HotSpot(TM) 64-Bit Server VM
Java Version: 1.8.0_151-b12
Operating System: Linux
OS Version: 4.4.0-101-generic
Default Encoding: UTF-8
Language: en
Country: US
--></g></svg>