<?xml version="1.0" encoding="UTF-8" standalone="no"?><svg xmlns="http://www.w3.org/2000/svg" xmlns:xlink="http://www.w3.org/1999/xlink" contentScriptType="application/ecmascript" contentStyleType="text/css" height="746px" preserveAspectRatio="none" style="width:744px;height:746px;" version="1.1" viewBox="0 0 744 746" width="744px" zoomAndPan="magnify"><defs><filter height="300%" id="frggykmubruym" width="300%" x="-1" y="-1"><feGaussianBlur result="blurOut" stdDeviation="2.0"/><feColorMatrix in="blurOut" result="blurOut2" type="matrix" values="0 0 0 0 0 0 0 0 0 0 0 0 0 0 0 0 0 0 .4 0"/><feOffset dx="4.0" dy="4.0" in="blurOut2" result="blurOut3"/><feBlend in="SourceGraphic" in2="blurOut3" mode="normal"/></filter></defs><g><!--class Bytecode--><rect fill="#FEFECE" filter="url(#frggykmubruym)" height="92.3516" id="Bytecode" style="stroke: #A80036; stroke-width: 1.5;" width="237" x="496.75" y="312"/><ellipse cx="577" cy="330.9688" fill="#DA70D6" rx="11" ry="11" style="stroke: #A80036; stroke-width: 1.0;"/><path d="M578.2031,331.1094 Q578.5625,331.1875 578.8359,331.4609 Q579.1094,331.7344 579.5,332.5156 L581.7344,336.9688 L579.0469,336.9688 L577.5469,333.8438 Q577.4844,333.7031 577.375,333.4688 Q576.7188,332.0781 575.8281,332.0781 L575.0469,332.0781 L575.0469,336.9688 L572.6094,336.9688 L572.6094,324.5781 L576.1406,324.5781 Q578.5313,324.5781 579.5703,325.4219 Q580.6094,326.2656 580.6094,328.1719 Q580.6094,329.4531 579.9922,330.2109 Q579.375,330.9688 578.2031,331.1094 Z M575.0469,326.6406 L575.0469,330.0156 L576.2031,330.0156 Q577.2188,330.0156 577.6484,329.6172 Q578.0781,329.2188 578.0781,328.3125 Q578.0781,327.4219 577.6484,327.0313 Q577.2188,326.6406 576.2031,326.6406 L575.0469,326.6406 Z "/><text fill="#000000" font-family="sans-serif" font-size="12" font-style="italic" lengthAdjust="spacingAndGlyphs" textLength="72" x="595.5" y="328.1387">«Resource»</text><text fill="#000000" font-family="sans-serif" font-size="12" lengthAdjust="spacingAndGlyphs" textLength="58" x="602.5" y="342.1074">Bytecode</text><line style="stroke: #A80036; stroke-width: 1.5;" x1="497.75" x2="732.75" y1="349.9375" y2="349.9375"/><ellipse cx="507.75" cy="361.8398" fill="none" rx="3" ry="3" style="stroke: #038048; stroke-width: 1.0;"/><text fill="#000000" font-family="sans-serif" font-size="11" lengthAdjust="spacingAndGlyphs" textLength="112" x="516.75" y="364.1479">bytes: Array&lt;Byte&gt;</text><ellipse cx="507.75" cy="374.6445" fill="none" rx="3" ry="3" style="stroke: #038048; stroke-width: 1.0;"/><text fill="#000000" font-family="sans-serif" font-size="11" lengthAdjust="spacingAndGlyphs" textLength="183" x="516.75" y="376.9526">instructions: Array&lt;Instruction&gt;</text><ellipse cx="507.75" cy="387.4492" fill="none" rx="3" ry="3" style="stroke: #038048; stroke-width: 1.0;"/><text fill="#000000" font-family="sans-serif" font-size="11" lengthAdjust="spacingAndGlyphs" textLength="211" x="516.75" y="389.7573">linkReferences : Set&lt;LinkReference&gt;</text><line style="stroke: #A80036; stroke-width: 1.5;" x1="497.75" x2="732.75" y1="396.3516" y2="396.3516"/><!--class Instruction--><rect fill="#FEFECE" filter="url(#frggykmubruym)" height="105.1563" id="Instruction" style="stroke: #A80036; stroke-width: 1.5;" width="162" x="534" y="464.5"/><ellipse cx="570.15" cy="483.4688" fill="#7CFC00" rx="11" ry="11" style="stroke: #A80036; stroke-width: 1.0;"/><path d="M570.2594,479.0469 Q569.3219,479.0469 568.8922,480.0469 Q568.4625,481.0469 568.4625,483.2813 Q568.4625,485.5156 568.8922,486.5156 Q569.3219,487.5156 570.2594,487.5156 Q571.2125,487.5156 571.6422,486.5156 Q572.0719,485.5156 572.0719,483.2813 Q572.0719,481.0469 571.6422,480.0469 Q571.2125,479.0469 570.2594,479.0469 Z M565.9156,483.2813 Q565.9156,480.1094 567.0172,478.4766 Q568.1188,476.8438 570.2594,476.8438 Q572.4156,476.8438 573.5172,478.4766 Q574.6188,480.1094 574.6188,483.2813 Q574.6188,486.4531 573.5172,488.0781 Q572.4156,489.7031 570.2594,489.7031 Q568.1188,489.7031 567.0172,488.0781 Q565.9156,486.4531 565.9156,483.2813 Z "/><text fill="#000000" font-family="sans-serif" font-size="12" font-style="italic" lengthAdjust="spacingAndGlyphs" textLength="87" x="586.85" y="480.6387">«Data Object»</text><text fill="#000000" font-family="sans-serif" font-size="12" lengthAdjust="spacingAndGlyphs" textLength="67" x="596.85" y="494.6074">Instruction</text><line style="stroke: #A80036; stroke-width: 1.5;" x1="535" x2="695" y1="502.4375" y2="502.4375"/><ellipse cx="545" cy="514.3398" fill="none" rx="3" ry="3" style="stroke: #038048; stroke-width: 1.0;"/><text fill="#000000" font-family="sans-serif" font-size="11" lengthAdjust="spacingAndGlyphs" textLength="136" x="554" y="516.6479">programCounter: String</text><ellipse cx="545" cy="527.1445" fill="none" rx="3" ry="3" style="stroke: #038048; stroke-width: 1.0;"/><text fill="#000000" font-family="sans-serif" font-size="11" lengthAdjust="spacingAndGlyphs" textLength="89" x="554" y="529.4526">opcode: Integer</text><ellipse cx="545" cy="539.9492" fill="none" rx="3" ry="3" style="stroke: #038048; stroke-width: 1.0;"/><text fill="#000000" font-family="sans-serif" font-size="11" lengthAdjust="spacingAndGlyphs" textLength="96" x="554" y="542.2573">pushData: String</text><ellipse cx="545" cy="552.7539" fill="none" rx="3" ry="3" style="stroke: #038048; stroke-width: 1.0;"/><text fill="#000000" font-family="sans-serif" font-size="11" lengthAdjust="spacingAndGlyphs" textLength="124" x="554" y="555.062">meta: InstructionMeta</text><line style="stroke: #A80036; stroke-width: 1.5;" x1="535" x2="695" y1="561.6563" y2="561.6563"/><!--class InstructionMeta--><rect fill="#FEFECE" filter="url(#frggykmubruym)" height="105.1563" id="InstructionMeta" style="stroke: #A80036; stroke-width: 1.5;" width="130" x="550" y="630.5"/><ellipse cx="565" cy="649.4688" fill="#7CFC00" rx="11" ry="11" style="stroke: #A80036; stroke-width: 1.0;"/><path d="M565.1094,645.0469 Q564.1719,645.0469 563.7422,646.0469 Q563.3125,647.0469 563.3125,649.2813 Q563.3125,651.5156 563.7422,652.5156 Q564.1719,653.5156 565.1094,653.5156 Q566.0625,653.5156 566.4922,652.5156 Q566.9219,651.5156 566.9219,649.2813 Q566.9219,647.0469 566.4922,646.0469 Q566.0625,645.0469 565.1094,645.0469 Z M560.7656,649.2813 Q560.7656,646.1094 561.8672,644.4766 Q562.9688,642.8438 565.1094,642.8438 Q567.2656,642.8438 568.3672,644.4766 Q569.4688,646.1094 569.4688,649.2813 Q569.4688,652.4531 568.3672,654.0781 Q567.2656,655.7031 565.1094,655.7031 Q562.9688,655.7031 561.8672,654.0781 Q560.7656,652.4531 560.7656,649.2813 Z "/><text fill="#000000" font-family="sans-serif" font-size="12" font-style="italic" lengthAdjust="spacingAndGlyphs" textLength="87" x="584.5" y="646.6387">«Data Object»</text><text fill="#000000" font-family="sans-serif" font-size="12" lengthAdjust="spacingAndGlyphs" textLength="98" x="579" y="660.6074">InstructionMeta</text><line style="stroke: #A80036; stroke-width: 1.5;" x1="551" x2="679" y1="668.4375" y2="668.4375"/><ellipse cx="561" cy="680.3398" fill="none" rx="3" ry="3" style="stroke: #038048; stroke-width: 1.0;"/><text fill="#000000" font-family="sans-serif" font-size="11" lengthAdjust="spacingAndGlyphs" textLength="72" x="570" y="682.6479">cost: Integer</text><ellipse cx="561" cy="693.1445" fill="none" rx="3" ry="3" style="stroke: #038048; stroke-width: 1.0;"/><text fill="#000000" font-family="sans-serif" font-size="11" lengthAdjust="spacingAndGlyphs" textLength="76" x="570" y="695.4526">pops: Integer</text><ellipse cx="561" cy="705.9492" fill="none" rx="3" ry="3" style="stroke: #038048; stroke-width: 1.0;"/><text fill="#000000" font-family="sans-serif" font-size="11" lengthAdjust="spacingAndGlyphs" textLength="90" x="570" y="708.2573">pushes: Integer</text><ellipse cx="561" cy="718.7539" fill="none" rx="3" ry="3" style="stroke: #038048; stroke-width: 1.0;"/><text fill="#000000" font-family="sans-serif" font-size="11" lengthAdjust="spacingAndGlyphs" textLength="95" x="570" y="721.062">dynamic: Integer</text><line style="stroke: #A80036; stroke-width: 1.5;" x1="551" x2="679" y1="727.6563" y2="727.6563"/><!--class Source--><rect fill="#FEFECE" filter="url(#frggykmubruym)" height="79.5469" id="Source" style="stroke: #A80036; stroke-width: 1.5;" width="136" x="363" y="166"/><ellipse cx="394.2" cy="184.9688" fill="#DA70D6" rx="11" ry="11" style="stroke: #A80036; stroke-width: 1.0;"/><path d="M395.4031,185.1094 Q395.7625,185.1875 396.0359,185.4609 Q396.3094,185.7344 396.7,186.5156 L398.9344,190.9688 L396.2469,190.9688 L394.7469,187.8438 Q394.6844,187.7031 394.575,187.4688 Q393.9188,186.0781 393.0281,186.0781 L392.2469,186.0781 L392.2469,190.9688 L389.8094,190.9688 L389.8094,178.5781 L393.3406,178.5781 Q395.7313,178.5781 396.7703,179.4219 Q397.8094,180.2656 397.8094,182.1719 Q397.8094,183.4531 397.1922,184.2109 Q396.575,184.9688 395.4031,185.1094 Z M392.2469,180.6406 L392.2469,184.0156 L393.4031,184.0156 Q394.4188,184.0156 394.8484,183.6172 Q395.2781,183.2188 395.2781,182.3125 Q395.2781,181.4219 394.8484,181.0313 Q394.4188,180.6406 393.4031,180.6406 L392.2469,180.6406 Z "/><text fill="#000000" font-family="sans-serif" font-size="12" font-style="italic" lengthAdjust="spacingAndGlyphs" textLength="72" x="409.8" y="182.1387">«Resource»</text><text fill="#000000" font-family="sans-serif" font-size="12" lengthAdjust="spacingAndGlyphs" textLength="44" x="423.8" y="196.1074">Source</text><line style="stroke: #A80036; stroke-width: 1.5;" x1="364" x2="498" y1="203.9375" y2="203.9375"/><ellipse cx="374" cy="215.8398" fill="none" rx="3" ry="3" style="stroke: #038048; stroke-width: 1.0;"/><text fill="#000000" font-family="sans-serif" font-size="11" lengthAdjust="spacingAndGlyphs" textLength="95" x="383" y="218.1479">contents : String</text><ellipse cx="374" cy="228.6445" fill="none" rx="3" ry="3" style="stroke: #038048; stroke-width: 1.0;"/><text fill="#000000" font-family="sans-serif" font-size="11" lengthAdjust="spacingAndGlyphs" textLength="110" x="383" y="230.9526">sourcePath : String</text><line style="stroke: #A80036; stroke-width: 1.5;" x1="364" x2="498" y1="237.5469" y2="237.5469"/><!--class Compilation--><rect fill="#FEFECE" filter="url(#frggykmubruym)" height="92.3516" id="Compilation" style="stroke: #A80036; stroke-width: 1.5;" width="227" x="100.75" y="160"/><ellipse cx="173.5" cy="178.9688" fill="#DA70D6" rx="11" ry="11" style="stroke: #A80036; stroke-width: 1.0;"/><path d="M174.7031,179.1094 Q175.0625,179.1875 175.3359,179.4609 Q175.6094,179.7344 176,180.5156 L178.2344,184.9688 L175.5469,184.9688 L174.0469,181.8438 Q173.9844,181.7031 173.875,181.4688 Q173.2188,180.0781 172.3281,180.0781 L171.5469,180.0781 L171.5469,184.9688 L169.1094,184.9688 L169.1094,172.5781 L172.6406,172.5781 Q175.0313,172.5781 176.0703,173.4219 Q177.1094,174.2656 177.1094,176.1719 Q177.1094,177.4531 176.4922,178.2109 Q175.875,178.9688 174.7031,179.1094 Z M171.5469,174.6406 L171.5469,178.0156 L172.7031,178.0156 Q173.7188,178.0156 174.1484,177.6172 Q174.5781,177.2188 174.5781,176.3125 Q174.5781,175.4219 174.1484,175.0313 Q173.7188,174.6406 172.7031,174.6406 L171.5469,174.6406 Z "/><text fill="#000000" font-family="sans-serif" font-size="12" font-style="italic" lengthAdjust="spacingAndGlyphs" textLength="72" x="194.5" y="176.1387">«Resource»</text><text fill="#000000" font-family="sans-serif" font-size="12" lengthAdjust="spacingAndGlyphs" textLength="73" x="194" y="190.1074">Compilation</text><line style="stroke: #A80036; stroke-width: 1.5;" x1="101.75" x2="326.75" y1="197.9375" y2="197.9375"/><ellipse cx="111.75" cy="209.8398" fill="none" rx="3" ry="3" style="stroke: #038048; stroke-width: 1.0;"/><text fill="#000000" font-family="sans-serif" font-size="11" lengthAdjust="spacingAndGlyphs" textLength="112" x="120.75" y="212.1479">compiler : Compiler</text><ellipse cx="111.75" cy="222.6445" fill="none" rx="3" ry="3" style="stroke: #038048; stroke-width: 1.0;"/><text fill="#000000" font-family="sans-serif" font-size="11" lengthAdjust="spacingAndGlyphs" textLength="200" x="120.75" y="224.9526">sources : Array&lt;Maybe&lt;Source&gt;&gt;</text><ellipse cx="111.75" cy="235.4492" fill="none" rx="3" ry="3" style="stroke: #038048; stroke-width: 1.0;"/><text fill="#000000" font-family="sans-serif" font-size="11" lengthAdjust="spacingAndGlyphs" textLength="201" x="120.75" y="237.7573">contracts : Array&lt;SourceContract&gt;</text><line style="stroke: #A80036; stroke-width: 1.5;" x1="101.75" x2="326.75" y1="244.3516" y2="244.3516"/><!--class Compiler--><rect fill="#FEFECE" filter="url(#frggykmubruym)" height="92.3516" id="Compiler" style="stroke: #A80036; stroke-width: 1.5;" width="120" x="6.5" y="312"/><ellipse cx="23.75" cy="330.9688" fill="#7CFC00" rx="11" ry="11" style="stroke: #A80036; stroke-width: 1.0;"/><path d="M23.8594,326.5469 Q22.9219,326.5469 22.4922,327.5469 Q22.0625,328.5469 22.0625,330.7813 Q22.0625,333.0156 22.4922,334.0156 Q22.9219,335.0156 23.8594,335.0156 Q24.8125,335.0156 25.2422,334.0156 Q25.6719,333.0156 25.6719,330.7813 Q25.6719,328.5469 25.2422,327.5469 Q24.8125,326.5469 23.8594,326.5469 Z M19.5156,330.7813 Q19.5156,327.6094 20.6172,325.9766 Q21.7188,324.3438 23.8594,324.3438 Q26.0156,324.3438 27.1172,325.9766 Q28.2188,327.6094 28.2188,330.7813 Q28.2188,333.9531 27.1172,335.5781 Q26.0156,337.2031 23.8594,337.2031 Q21.7188,337.2031 20.6172,335.5781 Q19.5156,333.9531 19.5156,330.7813 Z "/><text fill="#000000" font-family="sans-serif" font-size="12" font-style="italic" lengthAdjust="spacingAndGlyphs" textLength="87" x="36.25" y="328.1387">«Data Object»</text><text fill="#000000" font-family="sans-serif" font-size="12" lengthAdjust="spacingAndGlyphs" textLength="54" x="52.75" y="342.1074">Compiler</text><line style="stroke: #A80036; stroke-width: 1.5;" x1="7.5" x2="125.5" y1="349.9375" y2="349.9375"/><ellipse cx="17.5" cy="361.8398" fill="none" rx="3" ry="3" style="stroke: #038048; stroke-width: 1.0;"/><text fill="#000000" font-family="sans-serif" font-size="11" lengthAdjust="spacingAndGlyphs" textLength="78" x="26.5" y="364.1479">name : String</text><ellipse cx="17.5" cy="374.6445" fill="none" rx="3" ry="3" style="stroke: #038048; stroke-width: 1.0;"/><text fill="#000000" font-family="sans-serif" font-size="11" lengthAdjust="spacingAndGlyphs" textLength="88" x="26.5" y="376.9526">version : String</text><ellipse cx="17.5" cy="387.4492" fill="none" rx="3" ry="3" style="stroke: #038048; stroke-width: 1.0;"/><text fill="#000000" font-family="sans-serif" font-size="11" lengthAdjust="spacingAndGlyphs" textLength="94" x="26.5" y="389.7573">settings : Object</text><line style="stroke: #A80036; stroke-width: 1.5;" x1="7.5" x2="125.5" y1="396.3516" y2="396.3516"/><!--class SourceContract--><rect fill="#FEFECE" filter="url(#frggykmubruym)" height="92.3516" id="SourceContract" style="stroke: #A80036; stroke-width: 1.5;" width="130" x="257" y="8"/><ellipse cx="272" cy="26.9688" fill="#7CFC00" rx="11" ry="11" style="stroke: #A80036; stroke-width: 1.0;"/><path d="M272.1094,22.5469 Q271.1719,22.5469 270.7422,23.5469 Q270.3125,24.5469 270.3125,26.7813 Q270.3125,29.0156 270.7422,30.0156 Q271.1719,31.0156 272.1094,31.0156 Q273.0625,31.0156 273.4922,30.0156 Q273.9219,29.0156 273.9219,26.7813 Q273.9219,24.5469 273.4922,23.5469 Q273.0625,22.5469 272.1094,22.5469 Z M267.7656,26.7813 Q267.7656,23.6094 268.8672,21.9766 Q269.9688,20.3438 272.1094,20.3438 Q274.2656,20.3438 275.3672,21.9766 Q276.4688,23.6094 276.4688,26.7813 Q276.4688,29.9531 275.3672,31.5781 Q274.2656,33.2031 272.1094,33.2031 Q269.9688,33.2031 268.8672,31.5781 Q267.7656,29.9531 267.7656,26.7813 Z "/><text fill="#000000" font-family="sans-serif" font-size="12" font-style="italic" lengthAdjust="spacingAndGlyphs" textLength="87" x="291.5" y="24.1387">«Data Object»</text><text fill="#000000" font-family="sans-serif" font-size="12" lengthAdjust="spacingAndGlyphs" textLength="98" x="286" y="38.1074">SourceContract</text><line style="stroke: #A80036; stroke-width: 1.5;" x1="258" x2="386" y1="45.9375" y2="45.9375"/><ellipse cx="268" cy="57.8398" fill="none" rx="3" ry="3" style="stroke: #038048; stroke-width: 1.0;"/><text fill="#000000" font-family="sans-serif" font-size="11" lengthAdjust="spacingAndGlyphs" textLength="78" x="277" y="60.1479">name : String</text><ellipse cx="268" cy="70.6445" fill="none" rx="3" ry="3" style="stroke: #038048; stroke-width: 1.0;"/><text fill="#000000" font-family="sans-serif" font-size="11" lengthAdjust="spacingAndGlyphs" textLength="91" x="277" y="72.9526">source : Source</text><ellipse cx="268" cy="83.4492" fill="none" rx="3" ry="3" style="stroke: #038048; stroke-width: 1.0;"/><text fill="#000000" font-family="sans-serif" font-size="11" lengthAdjust="spacingAndGlyphs" textLength="52" x="277" y="85.7573">ast : AST</text><line style="stroke: #A80036; stroke-width: 1.5;" x1="258" x2="386" y1="92.3516" y2="92.3516"/><!--class LinkReference--><rect fill="#FEFECE" filter="url(#frggykmubruym)" height="79.5469" id="LinkReference" style="stroke: #A80036; stroke-width: 1.5;" width="186" x="534.5" y="166"/><ellipse cx="579.25" cy="184.9688" fill="#7CFC00" rx="11" ry="11" style="stroke: #A80036; stroke-width: 1.0;"/><path d="M579.3594,180.5469 Q578.4219,180.5469 577.9922,181.5469 Q577.5625,182.5469 577.5625,184.7813 Q577.5625,187.0156 577.9922,188.0156 Q578.4219,189.0156 579.3594,189.0156 Q580.3125,189.0156 580.7422,188.0156 Q581.1719,187.0156 581.1719,184.7813 Q581.1719,182.5469 580.7422,181.5469 Q580.3125,180.5469 579.3594,180.5469 Z M575.0156,184.7813 Q575.0156,181.6094 576.1172,179.9766 Q577.2188,178.3438 579.3594,178.3438 Q581.5156,178.3438 582.6172,179.9766 Q583.7188,181.6094 583.7188,184.7813 Q583.7188,187.9531 582.6172,189.5781 Q581.5156,191.2031 579.3594,191.2031 Q577.2188,191.2031 576.1172,189.5781 Q575.0156,187.9531 575.0156,184.7813 Z "/><text fill="#000000" font-family="sans-serif" font-size="12" font-style="italic" lengthAdjust="spacingAndGlyphs" textLength="87" x="600.25" y="182.1387">«Data Object»</text><text fill="#000000" font-family="sans-serif" font-size="12" lengthAdjust="spacingAndGlyphs" textLength="88" x="599.75" y="196.1074">LinkReference</text><line style="stroke: #A80036; stroke-width: 1.5;" x1="535.5" x2="719.5" y1="203.9375" y2="203.9375"/><ellipse cx="545.5" cy="215.8398" fill="none" rx="3" ry="3" style="stroke: #038048; stroke-width: 1.0;"/><text fill="#000000" font-family="sans-serif" font-size="11" lengthAdjust="spacingAndGlyphs" textLength="160" x="554.5" y="218.1479">offsets : Array&lt;ByteOffset&gt;</text><ellipse cx="545.5" cy="228.6445" fill="none" rx="3" ry="3" style="stroke: #038048; stroke-width: 1.0;"/><text fill="#000000" font-family="sans-serif" font-size="11" lengthAdjust="spacingAndGlyphs" textLength="87" x="554.5" y="230.9526">length : Integer</text><line style="stroke: #A80036; stroke-width: 1.5;" x1="535.5" x2="719.5" y1="237.5469" y2="237.5469"/><!--class SourceMap--><rect fill="#FEFECE" filter="url(#frggykmubruym)" height="92.3516" id="SourceMap" style="stroke: #A80036; stroke-width: 1.5;" width="226" x="161" y="312"/><ellipse cx="228.25" cy="330.9688" fill="#7CFC00" rx="11" ry="11" style="stroke: #A80036; stroke-width: 1.0;"/><path d="M228.3594,326.5469 Q227.4219,326.5469 226.9922,327.5469 Q226.5625,328.5469 226.5625,330.7813 Q226.5625,333.0156 226.9922,334.0156 Q227.4219,335.0156 228.3594,335.0156 Q229.3125,335.0156 229.7422,334.0156 Q230.1719,333.0156 230.1719,330.7813 Q230.1719,328.5469 229.7422,327.5469 Q229.3125,326.5469 228.3594,326.5469 Z M224.0156,330.7813 Q224.0156,327.6094 225.1172,325.9766 Q226.2188,324.3438 228.3594,324.3438 Q230.5156,324.3438 231.6172,325.9766 Q232.7188,327.6094 232.7188,330.7813 Q232.7188,333.9531 231.6172,335.5781 Q230.5156,337.2031 228.3594,337.2031 Q226.2188,337.2031 225.1172,335.5781 Q224.0156,333.9531 224.0156,330.7813 Z "/><text fill="#000000" font-family="sans-serif" font-size="12" font-style="italic" lengthAdjust="spacingAndGlyphs" textLength="87" x="246.75" y="328.1387">«Data Object»</text><text fill="#000000" font-family="sans-serif" font-size="12" lengthAdjust="spacingAndGlyphs" textLength="70" x="255.25" y="342.1074">SourceMap</text><line style="stroke: #A80036; stroke-width: 1.5;" x1="162" x2="386" y1="349.9375" y2="349.9375"/><ellipse cx="172" cy="361.8398" fill="none" rx="3" ry="3" style="stroke: #038048; stroke-width: 1.0;"/><text fill="#000000" font-family="sans-serif" font-size="11" lengthAdjust="spacingAndGlyphs" textLength="130" x="181" y="364.1479">rawSourceMap : String</text><ellipse cx="172" cy="374.6445" fill="none" rx="3" ry="3" style="stroke: #038048; stroke-width: 1.0;"/><text fill="#000000" font-family="sans-serif" font-size="11" lengthAdjust="spacingAndGlyphs" textLength="200" x="181" y="376.9526">sources : Array&lt;Maybe&lt;Source&gt;&gt;</text><ellipse cx="172" cy="387.4492" fill="none" rx="3" ry="3" style="stroke: #038048; stroke-width: 1.0;"/><text fill="#000000" font-family="sans-serif" font-size="11" lengthAdjust="spacingAndGlyphs" textLength="115" x="181" y="389.7573">bytecode : Bytecode</text><line style="stroke: #A80036; stroke-width: 1.5;" x1="162" x2="386" y1="396.3516" y2="396.3516"/><!--class SourceRange--><rect fill="#FEFECE" filter="url(#frggykmubruym)" height="105.1563" id="SourceRange" style="stroke: #A80036; stroke-width: 1.5;" width="125" x="292.75" y="464.5"/><ellipse cx="311.8" cy="483.4688" fill="#7CFC00" rx="11" ry="11" style="stroke: #A80036; stroke-width: 1.0;"/><path d="M311.9094,479.0469 Q310.9719,479.0469 310.5422,480.0469 Q310.1125,481.0469 310.1125,483.2813 Q310.1125,485.5156 310.5422,486.5156 Q310.9719,487.5156 311.9094,487.5156 Q312.8625,487.5156 313.2922,486.5156 Q313.7219,485.5156 313.7219,483.2813 Q313.7219,481.0469 313.2922,480.0469 Q312.8625,479.0469 311.9094,479.0469 Z M307.5656,483.2813 Q307.5656,480.1094 308.6672,478.4766 Q309.7688,476.8438 311.9094,476.8438 Q314.0656,476.8438 315.1672,478.4766 Q316.2688,480.1094 316.2688,483.2813 Q316.2688,486.4531 315.1672,488.0781 Q314.0656,489.7031 311.9094,489.7031 Q309.7688,489.7031 308.6672,488.0781 Q307.5656,486.4531 307.5656,483.2813 Z "/><text fill="#000000" font-family="sans-serif" font-size="12" font-style="italic" lengthAdjust="spacingAndGlyphs" textLength="87" x="325.2" y="480.6387">«Data Object»</text><text fill="#000000" font-family="sans-serif" font-size="12" lengthAdjust="spacingAndGlyphs" textLength="84" x="326.7" y="494.6074">SourceRange</text><line style="stroke: #A80036; stroke-width: 1.5;" x1="293.75" x2="416.75" y1="502.4375" y2="502.4375"/><ellipse cx="303.75" cy="514.3398" fill="none" rx="3" ry="3" style="stroke: #038048; stroke-width: 1.0;"/><text fill="#000000" font-family="sans-serif" font-size="11" lengthAdjust="spacingAndGlyphs" textLength="91" x="312.75" y="516.6479">source : Source</text><ellipse cx="303.75" cy="527.1445" fill="none" rx="3" ry="3" style="stroke: #038048; stroke-width: 1.0;"/><text fill="#000000" font-family="sans-serif" font-size="11" lengthAdjust="spacingAndGlyphs" textLength="99" x="312.75" y="529.4526">start : ByteOffset</text><ellipse cx="303.75" cy="539.9492" fill="none" rx="3" ry="3" style="stroke: #038048; stroke-width: 1.0;"/><text fill="#000000" font-family="sans-serif" font-size="11" lengthAdjust="spacingAndGlyphs" textLength="85" x="312.75" y="542.2573">length : Length</text><ellipse cx="303.75" cy="552.7539" fill="none" rx="3" ry="3" style="stroke: #038048; stroke-width: 1.0;"/><text fill="#000000" font-family="sans-serif" font-size="11" lengthAdjust="spacingAndGlyphs" textLength="77" x="312.75" y="555.062">meta : Object</text><line style="stroke: #A80036; stroke-width: 1.5;" x1="293.75" x2="416.75" y1="561.6563" y2="561.6563"/><!--link Instruction to InstructionMeta--><path d="M615,582.894 C615,598.688 615,615.368 615,630.447 " fill="none" id="Instruction-InstructionMeta" style="stroke: #A80036; stroke-width: 1.0;"/><polygon fill="#A80036" points="615,569.891,611,575.891,615,581.891,619,575.891,615,569.891" style="stroke: #A80036; stroke-width: 1.0;"/><text fill="#000000" font-family="sans-serif" font-size="13" lengthAdjust="spacingAndGlyphs" textLength="8" x="605.4219" y="619.4533">1</text><!--link Bytecode to Instruction--><path d="M615,417.563 C615,432.921 615,449.37 615,464.339 " fill="none" id="Bytecode-Instruction" style="stroke: #A80036; stroke-width: 1.0;"/><polygon fill="#A80036" points="615,404.411,611,410.411,615,416.411,619,410.411,615,404.411" style="stroke: #A80036; stroke-width: 1.0;"/><text fill="#000000" font-family="sans-serif" font-size="13" lengthAdjust="spacingAndGlyphs" textLength="8" x="605.4219" y="453.3328">n</text><!--link Compilation to Compiler--><path d="M160.201,261.526 C143.925,278.022 126.237,295.949 110.629,311.768 " fill="none" id="Compilation-Compiler" style="stroke: #A80036; stroke-width: 1.0;"/><polygon fill="#A80036" points="169.595,252.005,162.5334,253.4659,161.1659,260.5461,168.2275,259.0853,169.595,252.005" style="stroke: #A80036; stroke-width: 1.0;"/><text fill="#000000" font-family="sans-serif" font-size="13" lengthAdjust="spacingAndGlyphs" textLength="8" x="106.6425" y="300.8083">1</text><!--link SourceContract to Compilation--><path d="M289.596,100.005 C278.541,115.36 266.039,132.724 254.431,148.845 " fill="none" id="SourceContract-Compilation" style="stroke: #A80036; stroke-width: 1.0;"/><polygon fill="#A80036" points="246.567,159.768,253.3189,157.2359,253.5785,150.0295,246.8266,152.5616,246.567,159.768" style="stroke: #A80036; stroke-width: 1.0;"/><text fill="#000000" font-family="sans-serif" font-size="13" lengthAdjust="spacingAndGlyphs" textLength="8" x="274.6347" y="120.5818">n</text><!--link SourceMap to SourceRange--><path d="M303.495,416.169 C311.623,431.923 320.39,448.917 328.347,464.339 " fill="none" id="SourceMap-SourceRange" style="stroke: #A80036; stroke-width: 1.0;"/><polygon fill="#A80036" points="297.429,404.411,296.625,411.5771,302.9307,415.0755,303.7347,407.9093,297.429,404.411" style="stroke: #A80036; stroke-width: 1.0;"/><text fill="#000000" font-family="sans-serif" font-size="13" lengthAdjust="spacingAndGlyphs" textLength="8" x="315.6582" y="453.3328">n</text><!--link LinkReference to Bytecode--><path d="M623.878,246.019 C622.595,262.067 621.08,280.996 619.669,298.632 " fill="none" id="LinkReference-Bytecode" style="stroke: #A80036; stroke-width: 1.0;"/><polygon fill="#A80036" points="618.616,311.798,623.0813,306.1358,619.5721,299.8361,615.1067,305.4984,618.616,311.798" style="stroke: #A80036; stroke-width: 1.0;"/><text fill="#000000" font-family="sans-serif" font-size="13" lengthAdjust="spacingAndGlyphs" textLength="8" x="613.5039" y="265.7059">n</text><!--link SourceContract to Source--><path d="M362.364,110.547 C375.657,128.84 390.154,148.79 402.386,165.623 " fill="none" id="SourceContract-Source" style="stroke: #A80036; stroke-width: 1.0;"/><polygon fill="#FFFFFF" points="354.704,100.005,354.9948,107.2102,361.7576,109.7131,361.4668,102.5078,354.704,100.005" style="stroke: #A80036; stroke-width: 1.0;"/><text fill="#000000" font-family="sans-serif" font-size="13" lengthAdjust="spacingAndGlyphs" textLength="8" x="388.659" y="154.8578">1</text><!--link Compilation to Source--><path d="M340.765,206 C348.087,206 355.409,206 362.731,206 " fill="none" id="Compilation-Source" style="stroke: #A80036; stroke-width: 1.0;"/><polygon fill="#FFFFFF" points="327.586,206,333.586,210,339.586,206,333.586,202,327.586,206" style="stroke: #A80036; stroke-width: 1.0;"/><text fill="#000000" font-family="sans-serif" font-size="13" lengthAdjust="spacingAndGlyphs" textLength="8" x="346.9765" y="201.3103">n</text><!--link Compilation to SourceMap--><path d="M236.925,264.314 C243.21,280.026 249.935,296.836 255.907,311.768 " fill="none" id="Compilation-SourceMap" style="stroke: #A80036; stroke-width: 1.0;"/><polygon fill="#A80036" points="232.002,252.005,230.5167,259.0615,236.4591,263.1465,237.9444,256.0901,232.002,252.005" style="stroke: #A80036; stroke-width: 1.0;"/><text fill="#000000" font-family="sans-serif" font-size="13" lengthAdjust="spacingAndGlyphs" textLength="8" x="243.9482" y="300.8083">n</text><!--link SourceMap to Bytecode--><path d="M400.475,358 C432.538,358 464.6,358 496.663,358 " fill="none" id="SourceMap-Bytecode" style="stroke: #A80036; stroke-width: 1.0;"/><polygon fill="#FFFFFF" points="387.223,358,393.223,362,399.223,358,393.223,354,387.223,358" style="stroke: #A80036; stroke-width: 1.0;"/><text fill="#000000" font-family="sans-serif" font-size="13" lengthAdjust="spacingAndGlyphs" textLength="8" x="480.9043" y="353.5961">1</text><!--link SourceRange to Instruction--><path d="M430.66,517 C465.099,517 499.539,517 533.978,517 " fill="none" id="SourceRange-Instruction" style="stroke: #A80036; stroke-width: 1.0;"/><polygon fill="#FFFFFF" points="417.461,517,423.461,521,429.461,517,423.461,513,417.461,517" style="stroke: #A80036; stroke-width: 1.0;"/><text fill="#000000" font-family="sans-serif" font-size="13" lengthAdjust="spacingAndGlyphs" textLength="8" x="518.1231" y="512.3886">1</text><!--link Source to SourceRange--><path d="M428.825,246.149 C425.853,286.374 419.055,350.499 404,404 C399.486,420.04 393.132,436.776 386.491,452.272 " fill="none" id="Source-SourceRange" style="stroke: #A80036; stroke-width: 1.0;"/><polygon fill="#FFFFFF" points="381.134,464.397,387.2177,460.5255,385.9839,453.4207,379.9002,457.2922,381.134,464.397" style="stroke: #A80036; stroke-width: 1.0;"/><text fill="#000000" font-family="sans-serif" font-size="13" lengthAdjust="spacingAndGlyphs" textLength="8" x="418.7263" y="265.557">1</text><!--
@startuml










  class Bytecode << (R,orchid) Resource >> {
    + bytes: Array<Byte>
    + instructions: Array<Instruction>
    + linkReferences : Set<LinkReference>
  }

    class Instruction << (O,lawngreen) Data Object >> {
      + programCounter: String
      + opcode: Integer
      + pushData: String
      + meta: InstructionMeta
    }

    class InstructionMeta << (O,lawngreen) Data Object >> {
      + cost: Integer
      + pops: Integer
      + pushes: Integer
      + dynamic: Integer
    }

    Instruction *- - "1" InstructionMeta
    Bytecode *- - "n" Instruction

  class Source << (R,orchid) Resource >> {
    + contents : String
    + sourcePath : String
  }




  class Compilation << (R,orchid) Resource >> {
    + compiler : Compiler
    + sources : Array<Maybe<Source>>
    + contracts : Array<SourceContract>
  }

  class Compiler << (O,lawngreen) Data Object >> {
    + name : String
    + version : String
    + settings : Object
  }

  Compilation *- - "1" Compiler
  SourceContract "n" - -* Compilation









  class LinkReference << (O,lawngreen) Data Object >> {
    + offsets : Array<ByteOffset>
    + length : Integer
  }

  class SourceMap << (O,lawngreen) Data Object >> {
    + rawSourceMap : String
    + sources : Array<Maybe<Source>>
    + bytecode : Bytecode
  }

  class SourceRange << (O,lawngreen) Data Object >> {
    + source : Source
    + start : ByteOffset
    + length : Length
    + meta : Object
  }

  SourceMap *- - "n" SourceRange


  class SourceContract << (O,lawngreen) Data Object >> {
    + name : String
    + source : Source
    + ast : AST
  }









  LinkReference "n" - -* Bytecode




  SourceContract o- - "1" Source





  Compilation o-right- "n" Source





  Compilation *- - "n" SourceMap



  SourceMap o-right- "1" Bytecode
  SourceRange o-right- "1" Instruction

  Source "1" - -o SourceRange


@enduml

PlantUML version 1.2018.14(Fri Dec 21 16:33:16 UTC 2018)
(GPL source distribution)
Java Runtime: Java(TM) SE Runtime Environment
JVM: Java HotSpot(TM) 64-Bit Server VM
Java Version: 1.8.0_151-b12
Operating System: Linux
OS Version: 4.4.0-101-generic
Default Encoding: UTF-8
Language: en
Country: US
--></g></svg>