<?xml version="1.0" encoding="UTF-8" standalone="no"?><svg xmlns="http://www.w3.org/2000/svg" xmlns:xlink="http://www.w3.org/1999/xlink" contentScriptType="application/ecmascript" contentStyleType="text/css" height="582px" preserveAspectRatio="none" style="width:254px;height:582px;" version="1.1" viewBox="0 0 254 582" width="254px" zoomAndPan="magnify"><defs><filter height="300%" id="f1jm5dx1iho43a" width="300%" x="-1" y="-1"><feGaussianBlur result="blurOut" stdDeviation="2.0"/><feColorMatrix in="blurOut" result="blurOut2" type="matrix" values="0 0 0 0 0 0 0 0 0 0 0 0 0 0 0 0 0 0 .4 0"/><feOffset dx="4.0" dy="4.0" in="blurOut2" result="blurOut3"/><feBlend in="SourceGraphic" in2="blurOut3" mode="normal"/></filter></defs><g><!--class Bytecode--><rect fill="#FEFECE" filter="url(#f1jm5dx1iho43a)" height="92.3516" id="Bytecode" style="stroke: #A80036; stroke-width: 1.5;" width="237" x="6" y="148"/><ellipse cx="86.25" cy="166.9688" fill="#DA70D6" rx="11" ry="11" style="stroke: #A80036; stroke-width: 1.0;"/><path d="M87.4531,167.1094 Q87.8125,167.1875 88.0859,167.4609 Q88.3594,167.7344 88.75,168.5156 L90.9844,172.9688 L88.2969,172.9688 L86.7969,169.8438 Q86.7344,169.7031 86.625,169.4688 Q85.9688,168.0781 85.0781,168.0781 L84.2969,168.0781 L84.2969,172.9688 L81.8594,172.9688 L81.8594,160.5781 L85.3906,160.5781 Q87.7813,160.5781 88.8203,161.4219 Q89.8594,162.2656 89.8594,164.1719 Q89.8594,165.4531 89.2422,166.2109 Q88.625,166.9688 87.4531,167.1094 Z M84.2969,162.6406 L84.2969,166.0156 L85.4531,166.0156 Q86.4688,166.0156 86.8984,165.6172 Q87.3281,165.2188 87.3281,164.3125 Q87.3281,163.4219 86.8984,163.0313 Q86.4688,162.6406 85.4531,162.6406 L84.2969,162.6406 Z "/><text fill="#000000" font-family="sans-serif" font-size="12" font-style="italic" lengthAdjust="spacingAndGlyphs" textLength="72" x="104.75" y="164.1387">«Resource»</text><text fill="#000000" font-family="sans-serif" font-size="12" lengthAdjust="spacingAndGlyphs" textLength="58" x="111.75" y="178.1074">Bytecode</text><line style="stroke: #A80036; stroke-width: 1.5;" x1="7" x2="242" y1="185.9375" y2="185.9375"/><ellipse cx="17" cy="197.8398" fill="none" rx="3" ry="3" style="stroke: #038048; stroke-width: 1.0;"/><text fill="#000000" font-family="sans-serif" font-size="11" lengthAdjust="spacingAndGlyphs" textLength="112" x="26" y="200.1479">bytes: Array&lt;Byte&gt;</text><ellipse cx="17" cy="210.6445" fill="none" rx="3" ry="3" style="stroke: #038048; stroke-width: 1.0;"/><text fill="#000000" font-family="sans-serif" font-size="11" lengthAdjust="spacingAndGlyphs" textLength="183" x="26" y="212.9526">instructions: Array&lt;Instruction&gt;</text><ellipse cx="17" cy="223.4492" fill="none" rx="3" ry="3" style="stroke: #038048; stroke-width: 1.0;"/><text fill="#000000" font-family="sans-serif" font-size="11" lengthAdjust="spacingAndGlyphs" textLength="211" x="26" y="225.7573">linkReferences : Set&lt;LinkReference&gt;</text><line style="stroke: #A80036; stroke-width: 1.5;" x1="7" x2="242" y1="232.3516" y2="232.3516"/><!--class Instruction--><rect fill="#FEFECE" filter="url(#f1jm5dx1iho43a)" height="105.1563" id="Instruction" style="stroke: #A80036; stroke-width: 1.5;" width="162" x="43.25" y="300.5"/><ellipse cx="79.4" cy="319.4688" fill="#7CFC00" rx="11" ry="11" style="stroke: #A80036; stroke-width: 1.0;"/><path d="M79.5094,315.0469 Q78.5719,315.0469 78.1422,316.0469 Q77.7125,317.0469 77.7125,319.2813 Q77.7125,321.5156 78.1422,322.5156 Q78.5719,323.5156 79.5094,323.5156 Q80.4625,323.5156 80.8922,322.5156 Q81.3219,321.5156 81.3219,319.2813 Q81.3219,317.0469 80.8922,316.0469 Q80.4625,315.0469 79.5094,315.0469 Z M75.1656,319.2813 Q75.1656,316.1094 76.2672,314.4766 Q77.3688,312.8438 79.5094,312.8438 Q81.6656,312.8438 82.7672,314.4766 Q83.8688,316.1094 83.8688,319.2813 Q83.8688,322.4531 82.7672,324.0781 Q81.6656,325.7031 79.5094,325.7031 Q77.3688,325.7031 76.2672,324.0781 Q75.1656,322.4531 75.1656,319.2813 Z "/><text fill="#000000" font-family="sans-serif" font-size="12" font-style="italic" lengthAdjust="spacingAndGlyphs" textLength="87" x="96.1" y="316.6387">«Data Object»</text><text fill="#000000" font-family="sans-serif" font-size="12" lengthAdjust="spacingAndGlyphs" textLength="67" x="106.1" y="330.6074">Instruction</text><line style="stroke: #A80036; stroke-width: 1.5;" x1="44.25" x2="204.25" y1="338.4375" y2="338.4375"/><ellipse cx="54.25" cy="350.3398" fill="none" rx="3" ry="3" style="stroke: #038048; stroke-width: 1.0;"/><text fill="#000000" font-family="sans-serif" font-size="11" lengthAdjust="spacingAndGlyphs" textLength="136" x="63.25" y="352.6479">programCounter: String</text><ellipse cx="54.25" cy="363.1445" fill="none" rx="3" ry="3" style="stroke: #038048; stroke-width: 1.0;"/><text fill="#000000" font-family="sans-serif" font-size="11" lengthAdjust="spacingAndGlyphs" textLength="89" x="63.25" y="365.4526">opcode: Integer</text><ellipse cx="54.25" cy="375.9492" fill="none" rx="3" ry="3" style="stroke: #038048; stroke-width: 1.0;"/><text fill="#000000" font-family="sans-serif" font-size="11" lengthAdjust="spacingAndGlyphs" textLength="96" x="63.25" y="378.2573">pushData: String</text><ellipse cx="54.25" cy="388.7539" fill="none" rx="3" ry="3" style="stroke: #038048; stroke-width: 1.0;"/><text fill="#000000" font-family="sans-serif" font-size="11" lengthAdjust="spacingAndGlyphs" textLength="124" x="63.25" y="391.062">meta: InstructionMeta</text><line style="stroke: #A80036; stroke-width: 1.5;" x1="44.25" x2="204.25" y1="397.6563" y2="397.6563"/><!--class InstructionMeta--><rect fill="#FEFECE" filter="url(#f1jm5dx1iho43a)" height="105.1563" id="InstructionMeta" style="stroke: #A80036; stroke-width: 1.5;" width="130" x="59.25" y="466.5"/><ellipse cx="74.25" cy="485.4688" fill="#7CFC00" rx="11" ry="11" style="stroke: #A80036; stroke-width: 1.0;"/><path d="M74.3594,481.0469 Q73.4219,481.0469 72.9922,482.0469 Q72.5625,483.0469 72.5625,485.2813 Q72.5625,487.5156 72.9922,488.5156 Q73.4219,489.5156 74.3594,489.5156 Q75.3125,489.5156 75.7422,488.5156 Q76.1719,487.5156 76.1719,485.2813 Q76.1719,483.0469 75.7422,482.0469 Q75.3125,481.0469 74.3594,481.0469 Z M70.0156,485.2813 Q70.0156,482.1094 71.1172,480.4766 Q72.2188,478.8438 74.3594,478.8438 Q76.5156,478.8438 77.6172,480.4766 Q78.7188,482.1094 78.7188,485.2813 Q78.7188,488.4531 77.6172,490.0781 Q76.5156,491.7031 74.3594,491.7031 Q72.2188,491.7031 71.1172,490.0781 Q70.0156,488.4531 70.0156,485.2813 Z "/><text fill="#000000" font-family="sans-serif" font-size="12" font-style="italic" lengthAdjust="spacingAndGlyphs" textLength="87" x="93.75" y="482.6387">«Data Object»</text><text fill="#000000" font-family="sans-serif" font-size="12" lengthAdjust="spacingAndGlyphs" textLength="98" x="88.25" y="496.6074">InstructionMeta</text><line style="stroke: #A80036; stroke-width: 1.5;" x1="60.25" x2="188.25" y1="504.4375" y2="504.4375"/><ellipse cx="70.25" cy="516.3398" fill="none" rx="3" ry="3" style="stroke: #038048; stroke-width: 1.0;"/><text fill="#000000" font-family="sans-serif" font-size="11" lengthAdjust="spacingAndGlyphs" textLength="72" x="79.25" y="518.6479">cost: Integer</text><ellipse cx="70.25" cy="529.1445" fill="none" rx="3" ry="3" style="stroke: #038048; stroke-width: 1.0;"/><text fill="#000000" font-family="sans-serif" font-size="11" lengthAdjust="spacingAndGlyphs" textLength="76" x="79.25" y="531.4526">pops: Integer</text><ellipse cx="70.25" cy="541.9492" fill="none" rx="3" ry="3" style="stroke: #038048; stroke-width: 1.0;"/><text fill="#000000" font-family="sans-serif" font-size="11" lengthAdjust="spacingAndGlyphs" textLength="90" x="79.25" y="544.2573">pushes: Integer</text><ellipse cx="70.25" cy="554.7539" fill="none" rx="3" ry="3" style="stroke: #038048; stroke-width: 1.0;"/><text fill="#000000" font-family="sans-serif" font-size="11" lengthAdjust="spacingAndGlyphs" textLength="95" x="79.25" y="557.062">dynamic: Integer</text><line style="stroke: #A80036; stroke-width: 1.5;" x1="60.25" x2="188.25" y1="563.6563" y2="563.6563"/><!--class LinkReference--><rect fill="#FEFECE" filter="url(#f1jm5dx1iho43a)" height="79.5469" id="LinkReference" style="stroke: #A80036; stroke-width: 1.5;" width="186" x="31.75" y="8"/><ellipse cx="76.5" cy="26.9688" fill="#7CFC00" rx="11" ry="11" style="stroke: #A80036; stroke-width: 1.0;"/><path d="M76.6094,22.5469 Q75.6719,22.5469 75.2422,23.5469 Q74.8125,24.5469 74.8125,26.7813 Q74.8125,29.0156 75.2422,30.0156 Q75.6719,31.0156 76.6094,31.0156 Q77.5625,31.0156 77.9922,30.0156 Q78.4219,29.0156 78.4219,26.7813 Q78.4219,24.5469 77.9922,23.5469 Q77.5625,22.5469 76.6094,22.5469 Z M72.2656,26.7813 Q72.2656,23.6094 73.3672,21.9766 Q74.4688,20.3438 76.6094,20.3438 Q78.7656,20.3438 79.8672,21.9766 Q80.9688,23.6094 80.9688,26.7813 Q80.9688,29.9531 79.8672,31.5781 Q78.7656,33.2031 76.6094,33.2031 Q74.4688,33.2031 73.3672,31.5781 Q72.2656,29.9531 72.2656,26.7813 Z "/><text fill="#000000" font-family="sans-serif" font-size="12" font-style="italic" lengthAdjust="spacingAndGlyphs" textLength="87" x="97.5" y="24.1387">«Data Object»</text><text fill="#000000" font-family="sans-serif" font-size="12" lengthAdjust="spacingAndGlyphs" textLength="88" x="97" y="38.1074">LinkReference</text><line style="stroke: #A80036; stroke-width: 1.5;" x1="32.75" x2="216.75" y1="45.9375" y2="45.9375"/><ellipse cx="42.75" cy="57.8398" fill="none" rx="3" ry="3" style="stroke: #038048; stroke-width: 1.0;"/><text fill="#000000" font-family="sans-serif" font-size="11" lengthAdjust="spacingAndGlyphs" textLength="160" x="51.75" y="60.1479">offsets : Array&lt;ByteOffset&gt;</text><ellipse cx="42.75" cy="70.6445" fill="none" rx="3" ry="3" style="stroke: #038048; stroke-width: 1.0;"/><text fill="#000000" font-family="sans-serif" font-size="11" lengthAdjust="spacingAndGlyphs" textLength="87" x="51.75" y="72.9526">length : Integer</text><line style="stroke: #A80036; stroke-width: 1.5;" x1="32.75" x2="216.75" y1="79.5469" y2="79.5469"/><!--link Instruction to InstructionMeta--><path d="M124.25,418.894 C124.25,434.688 124.25,451.368 124.25,466.447 " fill="none" id="Instruction-InstructionMeta" style="stroke: #A80036; stroke-width: 1.0;"/><polygon fill="#A80036" points="124.25,405.891,120.25,411.891,124.25,417.891,128.25,411.891,124.25,405.891" style="stroke: #A80036; stroke-width: 1.0;"/><text fill="#000000" font-family="sans-serif" font-size="13" lengthAdjust="spacingAndGlyphs" textLength="8" x="114.6719" y="455.4533">1</text><!--link Bytecode to Instruction--><path d="M124.25,253.563 C124.25,268.921 124.25,285.37 124.25,300.339 " fill="none" id="Bytecode-Instruction" style="stroke: #A80036; stroke-width: 1.0;"/><polygon fill="#A80036" points="124.25,240.411,120.25,246.411,124.25,252.411,128.25,246.411,124.25,240.411" style="stroke: #A80036; stroke-width: 1.0;"/><text fill="#000000" font-family="sans-serif" font-size="13" lengthAdjust="spacingAndGlyphs" textLength="8" x="114.6719" y="289.3328">n</text><!--link LinkReference to Bytecode--><path d="M124.25,88.349 C124.25,102.582 124.25,118.976 124.25,134.501 " fill="none" id="LinkReference-Bytecode" style="stroke: #A80036; stroke-width: 1.0;"/><polygon fill="#A80036" points="124.25,147.845,128.25,141.845,124.25,135.845,120.25,141.845,124.25,147.845" style="stroke: #A80036; stroke-width: 1.0;"/><text fill="#000000" font-family="sans-serif" font-size="13" lengthAdjust="spacingAndGlyphs" textLength="8" x="114.4422" y="107.4867">n</text><!--
@startuml









  class Bytecode << (R,orchid) Resource >> {
    + bytes: Array<Byte>
    + instructions: Array<Instruction>
    + linkReferences : Set<LinkReference>
  }

  class Instruction << (O,lawngreen) Data Object >> {
    + programCounter: String
    + opcode: Integer
    + pushData: String
    + meta: InstructionMeta
  }

  class InstructionMeta << (O,lawngreen) Data Object >> {
    + cost: Integer
    + pops: Integer
    + pushes: Integer
    + dynamic: Integer
  }

  Instruction *- - "1" InstructionMeta
  Bytecode *- - "n" Instruction
















  class LinkReference << (O,lawngreen) Data Object >> {
    + offsets : Array<ByteOffset>
    + length : Integer
  }









  LinkReference "n" - -* Bytecode



















@enduml

PlantUML version 1.2018.14(Fri Dec 21 16:33:16 UTC 2018)
(GPL source distribution)
Java Runtime: Java(TM) SE Runtime Environment
JVM: Java HotSpot(TM) 64-Bit Server VM
Java Version: 1.8.0_151-b12
Operating System: Linux
OS Version: 4.4.0-101-generic
Default Encoding: UTF-8
Language: en
Country: US
--></g></svg>