<?xml version="1.0" encoding="UTF-8" standalone="no"?><svg xmlns="http://www.w3.org/2000/svg" xmlns:xlink="http://www.w3.org/1999/xlink" contentScriptType="application/ecmascript" contentStyleType="text/css" height="927px" preserveAspectRatio="none" style="width:846px;height:927px;" version="1.1" viewBox="0 0 846 927" width="846px" zoomAndPan="magnify"><defs><filter height="300%" id="f1vrnt51c02yfv" width="300%" x="-1" y="-1"><feGaussianBlur result="blurOut" stdDeviation="2.0"/><feColorMatrix in="blurOut" result="blurOut2" type="matrix" values="0 0 0 0 0 0 0 0 0 0 0 0 0 0 0 0 0 0 .4 0"/><feOffset dx="4.0" dy="4.0" in="blurOut2" result="blurOut3"/><feBlend in="SourceGraphic" in2="blurOut3" mode="normal"/></filter></defs><g><!--class Contract--><rect fill="#FEFECE" filter="url(#f1vrnt51c02yfv)" height="105.1563" id="Contract" style="stroke: #A80036; stroke-width: 1.5;" width="267" x="99.75" y="352.5"/><ellipse cx="195" cy="371.4688" fill="#DA70D6" rx="11" ry="11" style="stroke: #A80036; stroke-width: 1.0;"/><path d="M196.2031,371.6094 Q196.5625,371.6875 196.8359,371.9609 Q197.1094,372.2344 197.5,373.0156 L199.7344,377.4688 L197.0469,377.4688 L195.5469,374.3438 Q195.4844,374.2031 195.375,373.9688 Q194.7188,372.5781 193.8281,372.5781 L193.0469,372.5781 L193.0469,377.4688 L190.6094,377.4688 L190.6094,365.0781 L194.1406,365.0781 Q196.5313,365.0781 197.5703,365.9219 Q198.6094,366.7656 198.6094,368.6719 Q198.6094,369.9531 197.9922,370.7109 Q197.375,371.4688 196.2031,371.6094 Z M193.0469,367.1406 L193.0469,370.5156 L194.2031,370.5156 Q195.2188,370.5156 195.6484,370.1172 Q196.0781,369.7188 196.0781,368.8125 Q196.0781,367.9219 195.6484,367.5313 Q195.2188,367.1406 194.2031,367.1406 L193.0469,367.1406 Z "/><text fill="#000000" font-family="sans-serif" font-size="12" font-style="italic" lengthAdjust="spacingAndGlyphs" textLength="72" x="213.5" y="368.6387">«Resource»</text><text fill="#000000" font-family="sans-serif" font-size="12" lengthAdjust="spacingAndGlyphs" textLength="54" x="222.5" y="382.6074">Contract</text><line style="stroke: #A80036; stroke-width: 1.5;" x1="100.75" x2="365.75" y1="390.4375" y2="390.4375"/><ellipse cx="110.75" cy="402.3398" fill="none" rx="3" ry="3" style="stroke: #038048; stroke-width: 1.0;"/><text fill="#000000" font-family="sans-serif" font-size="11" lengthAdjust="spacingAndGlyphs" textLength="78" x="119.75" y="404.6479">name : String</text><ellipse cx="110.75" cy="415.1445" fill="none" rx="3" ry="3" style="stroke: #038048; stroke-width: 1.0;"/><text fill="#000000" font-family="sans-serif" font-size="11" lengthAdjust="spacingAndGlyphs" textLength="47" x="119.75" y="417.4526">abi : ABI</text><ellipse cx="110.75" cy="427.9492" fill="none" rx="3" ry="3" style="stroke: #038048; stroke-width: 1.0;"/><text fill="#000000" font-family="sans-serif" font-size="11" lengthAdjust="spacingAndGlyphs" textLength="160" x="119.75" y="430.2573">interface : ContractInterface</text><ellipse cx="110.75" cy="440.7539" fill="none" rx="3" ry="3" style="stroke: #038048; stroke-width: 1.0;"/><text fill="#000000" font-family="sans-serif" font-size="11" lengthAdjust="spacingAndGlyphs" textLength="241" x="119.75" y="443.062">sourceContract : Maybe&lt;SourceContract&gt;</text><line style="stroke: #A80036; stroke-width: 1.5;" x1="100.75" x2="365.75" y1="449.6563" y2="449.6563"/><!--class ContractInstance--><rect fill="#FEFECE" filter="url(#f1vrnt51c02yfv)" height="117.9609" id="ContractInstance" style="stroke: #A80036; stroke-width: 1.5;" width="282" x="6" y="174"/><ellipse cx="88.75" cy="192.9688" fill="#DA70D6" rx="11" ry="11" style="stroke: #A80036; stroke-width: 1.0;"/><path d="M89.9531,193.1094 Q90.3125,193.1875 90.5859,193.4609 Q90.8594,193.7344 91.25,194.5156 L93.4844,198.9688 L90.7969,198.9688 L89.2969,195.8438 Q89.2344,195.7031 89.125,195.4688 Q88.4688,194.0781 87.5781,194.0781 L86.7969,194.0781 L86.7969,198.9688 L84.3594,198.9688 L84.3594,186.5781 L87.8906,186.5781 Q90.2813,186.5781 91.3203,187.4219 Q92.3594,188.2656 92.3594,190.1719 Q92.3594,191.4531 91.7422,192.2109 Q91.125,192.9688 89.9531,193.1094 Z M86.7969,188.6406 L86.7969,192.0156 L87.9531,192.0156 Q88.9688,192.0156 89.3984,191.6172 Q89.8281,191.2188 89.8281,190.3125 Q89.8281,189.4219 89.3984,189.0313 Q88.9688,188.6406 87.9531,188.6406 L86.7969,188.6406 Z "/><text fill="#000000" font-family="sans-serif" font-size="12" font-style="italic" lengthAdjust="spacingAndGlyphs" textLength="72" x="127.25" y="190.1387">«Resource»</text><text fill="#000000" font-family="sans-serif" font-size="12" lengthAdjust="spacingAndGlyphs" textLength="108" x="109.25" y="204.1074">ContractInstance</text><line style="stroke: #A80036; stroke-width: 1.5;" x1="7" x2="287" y1="211.9375" y2="211.9375"/><ellipse cx="17" cy="223.8398" fill="none" rx="3" ry="3" style="stroke: #038048; stroke-width: 1.0;"/><text fill="#000000" font-family="sans-serif" font-size="11" lengthAdjust="spacingAndGlyphs" textLength="106" x="26" y="226.1479">address : Address</text><ellipse cx="17" cy="236.6445" fill="none" rx="3" ry="3" style="stroke: #038048; stroke-width: 1.0;"/><text fill="#000000" font-family="sans-serif" font-size="11" lengthAdjust="spacingAndGlyphs" textLength="103" x="26" y="238.9526">network : Network</text><ellipse cx="17" cy="249.4492" fill="none" rx="3" ry="3" style="stroke: #038048; stroke-width: 1.0;"/><text fill="#000000" font-family="sans-serif" font-size="11" lengthAdjust="spacingAndGlyphs" textLength="256" x="26" y="251.7573">creation : Maybe&lt;ContractInstanceCreation&gt;</text><ellipse cx="17" cy="262.2539" fill="none" rx="3" ry="3" style="stroke: #038048; stroke-width: 1.0;"/><text fill="#000000" font-family="sans-serif" font-size="11" lengthAdjust="spacingAndGlyphs" textLength="160" x="26" y="264.562">contract : Maybe&lt;Contract&gt;</text><ellipse cx="17" cy="275.0586" fill="none" rx="3" ry="3" style="stroke: #038048; stroke-width: 1.0;"/><text fill="#000000" font-family="sans-serif" font-size="11" lengthAdjust="spacingAndGlyphs" textLength="171" x="26" y="277.3667">callBytecode : LinkedBytecode</text><line style="stroke: #A80036; stroke-width: 1.5;" x1="7" x2="287" y1="283.9609" y2="283.9609"/><!--class ContractInstanceCreation--><rect fill="#FEFECE" filter="url(#f1vrnt51c02yfv)" height="92.3516" id="ContractInstanceCreation" style="stroke: #A80036; stroke-width: 1.5;" width="227" x="323.75" y="187"/><ellipse cx="354.05" cy="205.9688" fill="#7CFC00" rx="11" ry="11" style="stroke: #A80036; stroke-width: 1.0;"/><path d="M354.1594,201.5469 Q353.2219,201.5469 352.7922,202.5469 Q352.3625,203.5469 352.3625,205.7813 Q352.3625,208.0156 352.7922,209.0156 Q353.2219,210.0156 354.1594,210.0156 Q355.1125,210.0156 355.5422,209.0156 Q355.9719,208.0156 355.9719,205.7813 Q355.9719,203.5469 355.5422,202.5469 Q355.1125,201.5469 354.1594,201.5469 Z M349.8156,205.7813 Q349.8156,202.6094 350.9172,200.9766 Q352.0188,199.3438 354.1594,199.3438 Q356.3156,199.3438 357.4172,200.9766 Q358.5188,202.6094 358.5188,205.7813 Q358.5188,208.9531 357.4172,210.5781 Q356.3156,212.2031 354.1594,212.2031 Q352.0188,212.2031 350.9172,210.5781 Q349.8156,208.9531 349.8156,205.7813 Z "/><text fill="#000000" font-family="sans-serif" font-size="12" font-style="italic" lengthAdjust="spacingAndGlyphs" textLength="87" x="408.45" y="203.1387">«Data Object»</text><text fill="#000000" font-family="sans-serif" font-size="12" lengthAdjust="spacingAndGlyphs" textLength="161" x="371.45" y="217.1074">ContractInstanceCreation</text><line style="stroke: #A80036; stroke-width: 1.5;" x1="324.75" x2="549.75" y1="224.9375" y2="224.9375"/><ellipse cx="334.75" cy="236.8398" fill="none" rx="3" ry="3" style="stroke: #038048; stroke-width: 1.0;"/><text fill="#000000" font-family="sans-serif" font-size="11" lengthAdjust="spacingAndGlyphs" textLength="201" x="343.75" y="239.1479">transactionHash : TransactionHash</text><ellipse cx="334.75" cy="249.6445" fill="none" rx="3" ry="3" style="stroke: #038048; stroke-width: 1.0;"/><text fill="#000000" font-family="sans-serif" font-size="11" lengthAdjust="spacingAndGlyphs" textLength="192" x="343.75" y="251.9526">constructor : ContractConstructor</text><ellipse cx="334.75" cy="262.4492" fill="none" rx="3" ry="3" style="stroke: #038048; stroke-width: 1.0;"/><text fill="#000000" font-family="sans-serif" font-size="11" lengthAdjust="spacingAndGlyphs" textLength="182" x="343.75" y="264.7573">constructorArgs : Array&lt;Value&gt;</text><line style="stroke: #A80036; stroke-width: 1.5;" x1="324.75" x2="549.75" y1="271.3516" y2="271.3516"/><!--class ContractInterface--><rect fill="#FEFECE" filter="url(#f1vrnt51c02yfv)" height="105.1563" id="ContractInterface" style="stroke: #A80036; stroke-width: 1.5;" width="274" x="19" y="518.5"/><ellipse cx="96.75" cy="537.4688" fill="#DA70D6" rx="11" ry="11" style="stroke: #A80036; stroke-width: 1.0;"/><path d="M97.9531,537.6094 Q98.3125,537.6875 98.5859,537.9609 Q98.8594,538.2344 99.25,539.0156 L101.4844,543.4688 L98.7969,543.4688 L97.2969,540.3438 Q97.2344,540.2031 97.125,539.9688 Q96.4688,538.5781 95.5781,538.5781 L94.7969,538.5781 L94.7969,543.4688 L92.3594,543.4688 L92.3594,531.0781 L95.8906,531.0781 Q98.2813,531.0781 99.3203,531.9219 Q100.3594,532.7656 100.3594,534.6719 Q100.3594,535.9531 99.7422,536.7109 Q99.125,537.4688 97.9531,537.6094 Z M94.7969,533.1406 L94.7969,536.5156 L95.9531,536.5156 Q96.9688,536.5156 97.3984,536.1172 Q97.8281,535.7188 97.8281,534.8125 Q97.8281,533.9219 97.3984,533.5313 Q96.9688,533.1406 95.9531,533.1406 L94.7969,533.1406 Z "/><text fill="#000000" font-family="sans-serif" font-size="12" font-style="italic" lengthAdjust="spacingAndGlyphs" textLength="72" x="136.25" y="534.6387">«Resource»</text><text fill="#000000" font-family="sans-serif" font-size="12" lengthAdjust="spacingAndGlyphs" textLength="110" x="117.25" y="548.6074">ContractInterface</text><line style="stroke: #A80036; stroke-width: 1.5;" x1="20" x2="292" y1="556.4375" y2="556.4375"/><ellipse cx="30" cy="568.3398" fill="none" rx="3" ry="3" style="stroke: #038048; stroke-width: 1.0;"/><text fill="#000000" font-family="sans-serif" font-size="11" lengthAdjust="spacingAndGlyphs" textLength="248" x="39" y="570.6479">constructor : Maybe&lt;ConstructorInterface&gt;</text><ellipse cx="30" cy="581.1445" fill="none" rx="3" ry="3" style="stroke: #038048; stroke-width: 1.0;"/><text fill="#000000" font-family="sans-serif" font-size="11" lengthAdjust="spacingAndGlyphs" textLength="204" x="39" y="583.4526">fallback : Maybe&lt;FallbackInterface&gt;</text><ellipse cx="30" cy="593.9492" fill="none" rx="3" ry="3" style="stroke: #038048; stroke-width: 1.0;"/><text fill="#000000" font-family="sans-serif" font-size="11" lengthAdjust="spacingAndGlyphs" textLength="198" x="39" y="596.2573">functions : Set&lt;FunctionInterface&gt;</text><ellipse cx="30" cy="606.7539" fill="none" rx="3" ry="3" style="stroke: #038048; stroke-width: 1.0;"/><text fill="#000000" font-family="sans-serif" font-size="11" lengthAdjust="spacingAndGlyphs" textLength="168" x="39" y="609.062">events : Set&lt;EventInterface&gt;</text><line style="stroke: #A80036; stroke-width: 1.5;" x1="20" x2="292" y1="615.6563" y2="615.6563"/><!--class ContractConstructor--><rect fill="#FEFECE" filter="url(#f1vrnt51c02yfv)" height="79.5469" id="ContractConstructor" style="stroke: #A80036; stroke-width: 1.5;" width="214" x="586.5" y="193"/><ellipse cx="625.8" cy="211.9688" fill="#DA70D6" rx="11" ry="11" style="stroke: #A80036; stroke-width: 1.0;"/><path d="M627.0031,212.1094 Q627.3625,212.1875 627.6359,212.4609 Q627.9094,212.7344 628.3,213.5156 L630.5344,217.9688 L627.8469,217.9688 L626.3469,214.8438 Q626.2844,214.7031 626.175,214.4688 Q625.5188,213.0781 624.6281,213.0781 L623.8469,213.0781 L623.8469,217.9688 L621.4094,217.9688 L621.4094,205.5781 L624.9406,205.5781 Q627.3313,205.5781 628.3703,206.4219 Q629.4094,207.2656 629.4094,209.1719 Q629.4094,210.4531 628.7922,211.2109 Q628.175,211.9688 627.0031,212.1094 Z M623.8469,207.6406 L623.8469,211.0156 L625.0031,211.0156 Q626.0188,211.0156 626.4484,210.6172 Q626.8781,210.2188 626.8781,209.3125 Q626.8781,208.4219 626.4484,208.0313 Q626.0188,207.6406 625.0031,207.6406 L623.8469,207.6406 Z "/><text fill="#000000" font-family="sans-serif" font-size="12" font-style="italic" lengthAdjust="spacingAndGlyphs" textLength="72" x="673.2" y="209.1387">«Resource»</text><text fill="#000000" font-family="sans-serif" font-size="12" lengthAdjust="spacingAndGlyphs" textLength="128" x="645.2" y="223.1074">ContractConstructor</text><line style="stroke: #A80036; stroke-width: 1.5;" x1="587.5" x2="799.5" y1="230.9375" y2="230.9375"/><ellipse cx="597.5" cy="242.8398" fill="none" rx="3" ry="3" style="stroke: #038048; stroke-width: 1.0;"/><text fill="#000000" font-family="sans-serif" font-size="11" lengthAdjust="spacingAndGlyphs" textLength="160" x="606.5" y="245.1479">contract : Maybe&lt;Contract&gt;</text><ellipse cx="597.5" cy="255.6445" fill="none" rx="3" ry="3" style="stroke: #038048; stroke-width: 1.0;"/><text fill="#000000" font-family="sans-serif" font-size="11" lengthAdjust="spacingAndGlyphs" textLength="188" x="606.5" y="257.9526">createBytecode : LinkedBytecode</text><line style="stroke: #A80036; stroke-width: 1.5;" x1="587.5" x2="799.5" y1="264.5469" y2="264.5469"/><!--class Bytecode--><rect fill="#FEFECE" filter="url(#f1vrnt51c02yfv)" height="92.3516" id="Bytecode" style="stroke: #A80036; stroke-width: 1.5;" width="237" x="544.75" y="824"/><ellipse cx="625" cy="842.9688" fill="#DA70D6" rx="11" ry="11" style="stroke: #A80036; stroke-width: 1.0;"/><path d="M626.2031,843.1094 Q626.5625,843.1875 626.8359,843.4609 Q627.1094,843.7344 627.5,844.5156 L629.7344,848.9688 L627.0469,848.9688 L625.5469,845.8438 Q625.4844,845.7031 625.375,845.4688 Q624.7188,844.0781 623.8281,844.0781 L623.0469,844.0781 L623.0469,848.9688 L620.6094,848.9688 L620.6094,836.5781 L624.1406,836.5781 Q626.5313,836.5781 627.5703,837.4219 Q628.6094,838.2656 628.6094,840.1719 Q628.6094,841.4531 627.9922,842.2109 Q627.375,842.9688 626.2031,843.1094 Z M623.0469,838.6406 L623.0469,842.0156 L624.2031,842.0156 Q625.2188,842.0156 625.6484,841.6172 Q626.0781,841.2188 626.0781,840.3125 Q626.0781,839.4219 625.6484,839.0313 Q625.2188,838.6406 624.2031,838.6406 L623.0469,838.6406 Z "/><text fill="#000000" font-family="sans-serif" font-size="12" font-style="italic" lengthAdjust="spacingAndGlyphs" textLength="72" x="643.5" y="840.1387">«Resource»</text><text fill="#000000" font-family="sans-serif" font-size="12" lengthAdjust="spacingAndGlyphs" textLength="58" x="650.5" y="854.1074">Bytecode</text><line style="stroke: #A80036; stroke-width: 1.5;" x1="545.75" x2="780.75" y1="861.9375" y2="861.9375"/><ellipse cx="555.75" cy="873.8398" fill="none" rx="3" ry="3" style="stroke: #038048; stroke-width: 1.0;"/><text fill="#000000" font-family="sans-serif" font-size="11" lengthAdjust="spacingAndGlyphs" textLength="112" x="564.75" y="876.1479">bytes: Array&lt;Byte&gt;</text><ellipse cx="555.75" cy="886.6445" fill="none" rx="3" ry="3" style="stroke: #038048; stroke-width: 1.0;"/><text fill="#000000" font-family="sans-serif" font-size="11" lengthAdjust="spacingAndGlyphs" textLength="183" x="564.75" y="888.9526">instructions: Array&lt;Instruction&gt;</text><ellipse cx="555.75" cy="899.4492" fill="none" rx="3" ry="3" style="stroke: #038048; stroke-width: 1.0;"/><text fill="#000000" font-family="sans-serif" font-size="11" lengthAdjust="spacingAndGlyphs" textLength="211" x="564.75" y="901.7573">linkReferences : Set&lt;LinkReference&gt;</text><line style="stroke: #A80036; stroke-width: 1.5;" x1="545.75" x2="780.75" y1="908.3516" y2="908.3516"/><!--class Network--><rect fill="#FEFECE" filter="url(#f1vrnt51c02yfv)" height="105.1563" id="Network" style="stroke: #A80036; stroke-width: 1.5;" width="160" x="67" y="8.5"/><ellipse cx="109" cy="27.4688" fill="#DA70D6" rx="11" ry="11" style="stroke: #A80036; stroke-width: 1.0;"/><path d="M110.2031,27.6094 Q110.5625,27.6875 110.8359,27.9609 Q111.1094,28.2344 111.5,29.0156 L113.7344,33.4688 L111.0469,33.4688 L109.5469,30.3438 Q109.4844,30.2031 109.375,29.9688 Q108.7188,28.5781 107.8281,28.5781 L107.0469,28.5781 L107.0469,33.4688 L104.6094,33.4688 L104.6094,21.0781 L108.1406,21.0781 Q110.5313,21.0781 111.5703,21.9219 Q112.6094,22.7656 112.6094,24.6719 Q112.6094,25.9531 111.9922,26.7109 Q111.375,27.4688 110.2031,27.6094 Z M107.0469,23.1406 L107.0469,26.5156 L108.2031,26.5156 Q109.2188,26.5156 109.6484,26.1172 Q110.0781,25.7188 110.0781,24.8125 Q110.0781,23.9219 109.6484,23.5313 Q109.2188,23.1406 108.2031,23.1406 L107.0469,23.1406 Z "/><text fill="#000000" font-family="sans-serif" font-size="12" font-style="italic" lengthAdjust="spacingAndGlyphs" textLength="72" x="127" y="24.6387">«Resource»</text><text fill="#000000" font-family="sans-serif" font-size="12" lengthAdjust="spacingAndGlyphs" textLength="51" x="137.5" y="38.6074">Network</text><line style="stroke: #A80036; stroke-width: 1.5;" x1="68" x2="226" y1="46.4375" y2="46.4375"/><ellipse cx="78" cy="58.3398" fill="none" rx="3" ry="3" style="stroke: #038048; stroke-width: 1.0;"/><text fill="#000000" font-family="sans-serif" font-size="11" lengthAdjust="spacingAndGlyphs" textLength="78" x="87" y="60.6479">name : String</text><ellipse cx="78" cy="71.1445" fill="none" rx="3" ry="3" style="stroke: #038048; stroke-width: 1.0;"/><text fill="#000000" font-family="sans-serif" font-size="11" lengthAdjust="spacingAndGlyphs" textLength="124" x="87" y="73.4526">networkId : NetworkID</text><ellipse cx="78" cy="83.9492" fill="none" rx="3" ry="3" style="stroke: #038048; stroke-width: 1.0;"/><text fill="#000000" font-family="sans-serif" font-size="11" lengthAdjust="spacingAndGlyphs" textLength="134" x="87" y="86.2573">fork : Maybe&lt;Network&gt;</text><ellipse cx="78" cy="96.7539" fill="none" rx="3" ry="3" style="stroke: #038048; stroke-width: 1.0;"/><text fill="#000000" font-family="sans-serif" font-size="11" lengthAdjust="spacingAndGlyphs" textLength="110" x="87" y="99.062">historicBlock: Block</text><line style="stroke: #A80036; stroke-width: 1.5;" x1="68" x2="226" y1="105.6563" y2="105.6563"/><!--class LinkedBytecode--><rect fill="#FEFECE" filter="url(#f1vrnt51c02yfv)" height="79.5469" id="LinkedBytecode" style="stroke: #A80036; stroke-width: 1.5;" width="185" x="539.75" y="365"/><ellipse cx="579.5" cy="383.9688" fill="#7CFC00" rx="11" ry="11" style="stroke: #A80036; stroke-width: 1.0;"/><path d="M579.6094,379.5469 Q578.6719,379.5469 578.2422,380.5469 Q577.8125,381.5469 577.8125,383.7813 Q577.8125,386.0156 578.2422,387.0156 Q578.6719,388.0156 579.6094,388.0156 Q580.5625,388.0156 580.9922,387.0156 Q581.4219,386.0156 581.4219,383.7813 Q581.4219,381.5469 580.9922,380.5469 Q580.5625,379.5469 579.6094,379.5469 Z M575.2656,383.7813 Q575.2656,380.6094 576.3672,378.9766 Q577.4688,377.3438 579.6094,377.3438 Q581.7656,377.3438 582.8672,378.9766 Q583.9688,380.6094 583.9688,383.7813 Q583.9688,386.9531 582.8672,388.5781 Q581.7656,390.2031 579.6094,390.2031 Q577.4688,390.2031 576.3672,388.5781 Q575.2656,386.9531 575.2656,383.7813 Z "/><text fill="#000000" font-family="sans-serif" font-size="12" font-style="italic" lengthAdjust="spacingAndGlyphs" textLength="87" x="604.5" y="381.1387">«Data Object»</text><text fill="#000000" font-family="sans-serif" font-size="12" lengthAdjust="spacingAndGlyphs" textLength="98" x="599" y="395.1074">LinkedBytecode</text><line style="stroke: #A80036; stroke-width: 1.5;" x1="540.75" x2="723.75" y1="402.9375" y2="402.9375"/><ellipse cx="550.75" cy="414.8398" fill="none" rx="3" ry="3" style="stroke: #038048; stroke-width: 1.0;"/><text fill="#000000" font-family="sans-serif" font-size="11" lengthAdjust="spacingAndGlyphs" textLength="115" x="559.75" y="417.1479">bytecode : Bytecode</text><ellipse cx="550.75" cy="427.6445" fill="none" rx="3" ry="3" style="stroke: #038048; stroke-width: 1.0;"/><text fill="#000000" font-family="sans-serif" font-size="11" lengthAdjust="spacingAndGlyphs" textLength="159" x="559.75" y="429.9526">linkValues : Set&lt;LinkValue&gt;</text><line style="stroke: #A80036; stroke-width: 1.5;" x1="540.75" x2="723.75" y1="436.5469" y2="436.5469"/><!--class LinkValue--><rect fill="#FEFECE" filter="url(#f1vrnt51c02yfv)" height="79.5469" id="LinkValue" style="stroke: #A80036; stroke-width: 1.5;" width="193" x="642.75" y="531"/><ellipse cx="693.5" cy="549.9688" fill="#7CFC00" rx="11" ry="11" style="stroke: #A80036; stroke-width: 1.0;"/><path d="M693.6094,545.5469 Q692.6719,545.5469 692.2422,546.5469 Q691.8125,547.5469 691.8125,549.7813 Q691.8125,552.0156 692.2422,553.0156 Q692.6719,554.0156 693.6094,554.0156 Q694.5625,554.0156 694.9922,553.0156 Q695.4219,552.0156 695.4219,549.7813 Q695.4219,547.5469 694.9922,546.5469 Q694.5625,545.5469 693.6094,545.5469 Z M689.2656,549.7813 Q689.2656,546.6094 690.3672,544.9766 Q691.4688,543.3438 693.6094,543.3438 Q695.7656,543.3438 696.8672,544.9766 Q697.9688,546.6094 697.9688,549.7813 Q697.9688,552.9531 696.8672,554.5781 Q695.7656,556.2031 693.6094,556.2031 Q691.4688,556.2031 690.3672,554.5781 Q689.2656,552.9531 689.2656,549.7813 Z "/><text fill="#000000" font-family="sans-serif" font-size="12" font-style="italic" lengthAdjust="spacingAndGlyphs" textLength="87" x="712" y="547.1387">«Data Object»</text><text fill="#000000" font-family="sans-serif" font-size="12" lengthAdjust="spacingAndGlyphs" textLength="59" x="726" y="561.1074">LinkValue</text><line style="stroke: #A80036; stroke-width: 1.5;" x1="643.75" x2="834.75" y1="568.9375" y2="568.9375"/><ellipse cx="653.75" cy="580.8398" fill="none" rx="3" ry="3" style="stroke: #038048; stroke-width: 1.0;"/><text fill="#000000" font-family="sans-serif" font-size="11" lengthAdjust="spacingAndGlyphs" textLength="167" x="662.75" y="583.1479">linkReference : LinkReference</text><ellipse cx="653.75" cy="593.6445" fill="none" rx="3" ry="3" style="stroke: #038048; stroke-width: 1.0;"/><text fill="#000000" font-family="sans-serif" font-size="11" lengthAdjust="spacingAndGlyphs" textLength="74" x="662.75" y="595.9526">value : Bytes</text><line style="stroke: #A80036; stroke-width: 1.5;" x1="643.75" x2="834.75" y1="602.5469" y2="602.5469"/><!--class LinkReference--><rect fill="#FEFECE" filter="url(#f1vrnt51c02yfv)" height="79.5469" id="LinkReference" style="stroke: #A80036; stroke-width: 1.5;" width="186" x="644.5" y="684"/><ellipse cx="689.25" cy="702.9688" fill="#7CFC00" rx="11" ry="11" style="stroke: #A80036; stroke-width: 1.0;"/><path d="M689.3594,698.5469 Q688.4219,698.5469 687.9922,699.5469 Q687.5625,700.5469 687.5625,702.7813 Q687.5625,705.0156 687.9922,706.0156 Q688.4219,707.0156 689.3594,707.0156 Q690.3125,707.0156 690.7422,706.0156 Q691.1719,705.0156 691.1719,702.7813 Q691.1719,700.5469 690.7422,699.5469 Q690.3125,698.5469 689.3594,698.5469 Z M685.0156,702.7813 Q685.0156,699.6094 686.1172,697.9766 Q687.2188,696.3438 689.3594,696.3438 Q691.5156,696.3438 692.6172,697.9766 Q693.7188,699.6094 693.7188,702.7813 Q693.7188,705.9531 692.6172,707.5781 Q691.5156,709.2031 689.3594,709.2031 Q687.2188,709.2031 686.1172,707.5781 Q685.0156,705.9531 685.0156,702.7813 Z "/><text fill="#000000" font-family="sans-serif" font-size="12" font-style="italic" lengthAdjust="spacingAndGlyphs" textLength="87" x="710.25" y="700.1387">«Data Object»</text><text fill="#000000" font-family="sans-serif" font-size="12" lengthAdjust="spacingAndGlyphs" textLength="88" x="709.75" y="714.1074">LinkReference</text><line style="stroke: #A80036; stroke-width: 1.5;" x1="645.5" x2="829.5" y1="721.9375" y2="721.9375"/><ellipse cx="655.5" cy="733.8398" fill="none" rx="3" ry="3" style="stroke: #038048; stroke-width: 1.0;"/><text fill="#000000" font-family="sans-serif" font-size="11" lengthAdjust="spacingAndGlyphs" textLength="160" x="664.5" y="736.1479">offsets : Array&lt;ByteOffset&gt;</text><ellipse cx="655.5" cy="746.6445" fill="none" rx="3" ry="3" style="stroke: #038048; stroke-width: 1.0;"/><text fill="#000000" font-family="sans-serif" font-size="11" lengthAdjust="spacingAndGlyphs" textLength="87" x="664.5" y="748.9526">length : Integer</text><line style="stroke: #A80036; stroke-width: 1.5;" x1="645.5" x2="829.5" y1="755.5469" y2="755.5469"/><!--class SourceContract--><rect fill="#FEFECE" filter="url(#f1vrnt51c02yfv)" height="92.3516" id="SourceContract" style="stroke: #A80036; stroke-width: 1.5;" width="130" x="346" y="525"/><ellipse cx="361" cy="543.9688" fill="#7CFC00" rx="11" ry="11" style="stroke: #A80036; stroke-width: 1.0;"/><path d="M361.1094,539.5469 Q360.1719,539.5469 359.7422,540.5469 Q359.3125,541.5469 359.3125,543.7813 Q359.3125,546.0156 359.7422,547.0156 Q360.1719,548.0156 361.1094,548.0156 Q362.0625,548.0156 362.4922,547.0156 Q362.9219,546.0156 362.9219,543.7813 Q362.9219,541.5469 362.4922,540.5469 Q362.0625,539.5469 361.1094,539.5469 Z M356.7656,543.7813 Q356.7656,540.6094 357.8672,538.9766 Q358.9688,537.3438 361.1094,537.3438 Q363.2656,537.3438 364.3672,538.9766 Q365.4688,540.6094 365.4688,543.7813 Q365.4688,546.9531 364.3672,548.5781 Q363.2656,550.2031 361.1094,550.2031 Q358.9688,550.2031 357.8672,548.5781 Q356.7656,546.9531 356.7656,543.7813 Z "/><text fill="#000000" font-family="sans-serif" font-size="12" font-style="italic" lengthAdjust="spacingAndGlyphs" textLength="87" x="380.5" y="541.1387">«Data Object»</text><text fill="#000000" font-family="sans-serif" font-size="12" lengthAdjust="spacingAndGlyphs" textLength="98" x="375" y="555.1074">SourceContract</text><line style="stroke: #A80036; stroke-width: 1.5;" x1="347" x2="475" y1="562.9375" y2="562.9375"/><ellipse cx="357" cy="574.8398" fill="none" rx="3" ry="3" style="stroke: #038048; stroke-width: 1.0;"/><text fill="#000000" font-family="sans-serif" font-size="11" lengthAdjust="spacingAndGlyphs" textLength="78" x="366" y="577.1479">name : String</text><ellipse cx="357" cy="587.6445" fill="none" rx="3" ry="3" style="stroke: #038048; stroke-width: 1.0;"/><text fill="#000000" font-family="sans-serif" font-size="11" lengthAdjust="spacingAndGlyphs" textLength="91" x="366" y="589.9526">source : Source</text><ellipse cx="357" cy="600.4492" fill="none" rx="3" ry="3" style="stroke: #038048; stroke-width: 1.0;"/><text fill="#000000" font-family="sans-serif" font-size="11" lengthAdjust="spacingAndGlyphs" textLength="52" x="366" y="602.7573">ast : AST</text><line style="stroke: #A80036; stroke-width: 1.5;" x1="347" x2="475" y1="609.3516" y2="609.3516"/><!--link ContractInstance to ContractInstanceCreation--><path d="M301.069,233 C308.556,233 316.043,233 323.531,233 " fill="none" id="ContractInstance-ContractInstanceCreation" style="stroke: #A80036; stroke-width: 1.0;"/><polygon fill="#A80036" points="288.035,233,294.035,237,300.035,233,294.035,229,288.035,233" style="stroke: #A80036; stroke-width: 1.0;"/><text fill="#000000" font-family="sans-serif" font-size="13" lengthAdjust="spacingAndGlyphs" textLength="24" x="291.6011" y="228.5961">0..1</text><!--link ContractInterface to ContractInterface--><path d="M306.248,548.51 C319.616,553.228 328,560.725 328,571 C328,584.285 313.985,592.926 293.304,596.922 " fill="none" id="ContractInterface-ContractInterface" style="stroke: #A80036; stroke-width: 1.0;"/><polygon fill="#FFFFFF" points="293.304,545.078,298.0786,550.482,304.9033,548.1532,300.1287,542.7492,293.304,545.078" style="stroke: #A80036; stroke-width: 1.0;"/><text fill="#000000" font-family="sans-serif" font-size="13" lengthAdjust="spacingAndGlyphs" textLength="8" x="301.0316" y="593.941">n</text><!--link ContractInstance to Contract--><path d="M182.278,303.735 C190.531,320.049 199.176,337.139 206.944,352.493 " fill="none" id="ContractInstance-Contract" style="stroke: #A80036; stroke-width: 1.0;"/><polygon fill="#FFFFFF" points="176.356,292.029,175.4953,299.1886,181.7731,302.7367,182.6338,295.5771,176.356,292.029" style="stroke: #A80036; stroke-width: 1.0;"/><text fill="#000000" font-family="sans-serif" font-size="13" lengthAdjust="spacingAndGlyphs" textLength="8" x="170.3244" y="312.2146">n</text><text fill="#000000" font-family="sans-serif" font-size="13" lengthAdjust="spacingAndGlyphs" textLength="24" x="177.3992" y="341.5046">0..1</text><!--link ContractConstructor to Contract--><path d="M599.376,278.443 C588.532,283.189 577.572,287.808 567,292 C501.76,317.867 427.899,343.047 366.254,362.96 " fill="none" id="ContractConstructor-Contract" style="stroke: #A80036; stroke-width: 1.0;"/><polygon fill="#FFFFFF" points="611.544,273.047,604.4375,271.8234,600.5747,277.9126,607.6812,279.1362,611.544,273.047" style="stroke: #A80036; stroke-width: 1.0;"/><text fill="#000000" font-family="sans-serif" font-size="13" lengthAdjust="spacingAndGlyphs" textLength="8" x="588.6854" y="292.7384">1</text><text fill="#000000" font-family="sans-serif" font-size="13" lengthAdjust="spacingAndGlyphs" textLength="24" x="374.637" y="356.1044">0..1</text><!--link Contract to ContractInterface--><path d="M202.976,469.948 C195.429,486.02 187.426,503.066 180.205,518.447 " fill="none" id="Contract-ContractInterface" style="stroke: #A80036; stroke-width: 1.0;"/><polygon fill="#FFFFFF" points="208.637,457.891,202.466,461.6218,203.5363,468.753,209.7073,465.0222,208.637,457.891" style="stroke: #A80036; stroke-width: 1.0;"/><text fill="#000000" font-family="sans-serif" font-size="13" lengthAdjust="spacingAndGlyphs" textLength="8" x="173.4256" y="507.4533">1</text><!--link Contract to SourceContract--><path d="M299.062,466.866 C319.893,486.058 342.523,506.908 361.948,524.806 " fill="none" id="Contract-SourceContract" style="stroke: #A80036; stroke-width: 1.0;"/><polygon fill="#FFFFFF" points="289.32,457.891,291.0226,464.8982,298.1456,466.0217,296.443,459.0145,289.32,457.891" style="stroke: #A80036; stroke-width: 1.0;"/><text fill="#000000" font-family="sans-serif" font-size="13" lengthAdjust="spacingAndGlyphs" textLength="24" x="328.9976" y="513.8512">0..1</text><!--link LinkReference to Bytecode--><path d="M716.779,764.349 C709.243,779.014 700.528,795.972 692.338,811.91 " fill="none" id="LinkReference-Bytecode" style="stroke: #A80036; stroke-width: 1.0;"/><polygon fill="#A80036" points="686.205,823.8449,692.505,820.3363,691.6894,813.1715,685.3894,816.6801,686.205,823.8449" style="stroke: #A80036; stroke-width: 1.0;"/><text fill="#000000" font-family="sans-serif" font-size="13" lengthAdjust="spacingAndGlyphs" textLength="8" x="704.0012" y="783.4867">n</text><!--link LinkedBytecode to Bytecode--><path d="M625.255,458.279 C617.568,528.433 608.318,656.641 627,764 C630.502,784.125 637.276,805.586 644.012,823.8259 " fill="none" id="LinkedBytecode-Bytecode" style="stroke: #A80036; stroke-width: 1.0;"/><polygon fill="#FFFFFF" points="626.763,445.045,622.1096,450.5537,625.4048,456.9679,630.0582,451.4592,626.763,445.045" style="stroke: #A80036; stroke-width: 1.0;"/><text fill="#000000" font-family="sans-serif" font-size="13" lengthAdjust="spacingAndGlyphs" textLength="8" x="631.9065" y="812.8738">1</text><!--link LinkedBytecode to LinkValue--><path d="M664.814,456.294 C680.431,480.231 698.828,508.428 713.395,530.755 " fill="none" id="LinkedBytecode-LinkValue" style="stroke: #A80036; stroke-width: 1.0;"/><polygon fill="#A80036" points="657.629,445.282,657.558,452.4928,664.1868,455.3316,664.2578,448.1209,657.629,445.282" style="stroke: #A80036; stroke-width: 1.0;"/><text fill="#000000" font-family="sans-serif" font-size="13" lengthAdjust="spacingAndGlyphs" textLength="8" x="700.056" y="520.0083">n</text><!--link Network to ContractInstance--><path d="M147,113.929 C147,128.729 147,145.112 147,160.846 " fill="none" id="Network-ContractInstance" style="stroke: #A80036; stroke-width: 1.0;"/><polygon fill="#FFFFFF" points="147,173.86,151,167.86,147,161.86,143,167.86,147,173.86" style="stroke: #A80036; stroke-width: 1.0;"/><text fill="#000000" font-family="sans-serif" font-size="13" lengthAdjust="spacingAndGlyphs" textLength="8" x="137.3594" y="133.7369">1</text><!--link ContractInstanceCreation to ContractConstructor--><path d="M563.683,233 C571.257,233 578.83,233 586.403,233 " fill="none" id="ContractInstanceCreation-ContractConstructor" style="stroke: #A80036; stroke-width: 1.0;"/><polygon fill="#FFFFFF" points="550.5,233,556.5,237,562.5,233,556.5,229,550.5,233" style="stroke: #A80036; stroke-width: 1.0;"/><text fill="#000000" font-family="sans-serif" font-size="13" lengthAdjust="spacingAndGlyphs" textLength="8" x="570.5721" y="228.5668">1</text><!--link ContractInstance to LinkedBytecode--><path d="M300.515,290.054 C302.353,290.707 304.182,291.356 306,292 C384.553,319.818 474.105,350.511 539.448,372.721 " fill="none" id="ContractInstance-LinkedBytecode" style="stroke: #A80036; stroke-width: 1.0;"/><polygon fill="#A80036" points="288.261,285.686,292.5691,291.4687,299.564,289.7161,295.2559,283.9334,288.261,285.686" style="stroke: #A80036; stroke-width: 1.0;"/><text fill="#000000" font-family="sans-serif" font-size="13" lengthAdjust="spacingAndGlyphs" textLength="8" x="523.8769" y="366.0677">1</text><!--link ContractConstructor to LinkedBytecode--><path d="M674.532,285.467 C665.377,310.983 654.498,341.3 646.035,364.886 " fill="none" id="ContractConstructor-LinkedBytecode" style="stroke: #A80036; stroke-width: 1.0;"/><polygon fill="#A80036" points="679.005,273.001,673.2138,277.2977,674.9525,284.296,680.7438,279.9993,679.005,273.001" style="stroke: #A80036; stroke-width: 1.0;"/><text fill="#000000" font-family="sans-serif" font-size="13" lengthAdjust="spacingAndGlyphs" textLength="8" x="638.3253" y="353.8557">1</text><!--link LinkValue to LinkReference--><path d="M738.48,611.279 C738.205,631.989 737.868,657.465 737.585,678.856 " fill="none" id="LinkValue-LinkReference" style="stroke: #A80036; stroke-width: 1.0; stroke-dasharray: 7.0,7.0;"/><polygon fill="#A80036" points="737.518,683.917,741.6359,674.9703,737.5837,678.9174,733.6366,674.8652,737.518,683.917" style="stroke: #A80036; stroke-width: 1.0;"/><text fill="#000000" font-family="sans-serif" font-size="13" lengthAdjust="spacingAndGlyphs" textLength="8" x="727.7863" y="672.8913">1</text><!--
@startuml




  class Contract << (R,orchid) Resource >> {
    + name : String
    + abi : ABI
    + interface : ContractInterface
    + sourceContract : Maybe<SourceContract>
  }


  class ContractInstance << (R,orchid) Resource >> {
    + address : Address
    + network : Network
    + creation : Maybe<ContractInstanceCreation>
    + contract : Maybe<Contract>
    + callBytecode : LinkedBytecode
  }

  ContractInstance *-right- "0..1" ContractInstanceCreation

  class ContractInterface << (R,orchid) Resource >> {
    + constructor : Maybe<ConstructorInterface>
    + fallback : Maybe<FallbackInterface>
    + functions : Set<FunctionInterface>
    + events : Set<EventInterface>
  }

  ContractInterface o- - "n" ContractInterface



  class ContractConstructor << (R,orchid) Resource >> {
    + contract : Maybe<Contract>
    + createBytecode : LinkedBytecode
  }



  class Bytecode << (R,orchid) Resource >> {
    + bytes: Array<Byte>
    + instructions: Array<Instruction>
    + linkReferences : Set<LinkReference>
  }






  class Network << (R,orchid) Resource >> {
    + name : String
    + networkId : NetworkID
    + fork : Maybe<Network>
    + historicBlock: Block
  }








  class LinkedBytecode << (O,lawngreen) Data Object >> {
    + bytecode : Bytecode
    + linkValues : Set<LinkValue>
  }

  class ContractInstanceCreation << (O,lawngreen) Data Object >> {
    + transactionHash : TransactionHash
    + constructor : ContractConstructor
    + constructorArgs : Array<Value>
  }

  class LinkValue << (O,lawngreen) Data Object >> {
    + linkReference : LinkReference
    + value : Bytes
  }

  class LinkReference << (O,lawngreen) Data Object >> {
    + offsets : Array<ByteOffset>
    + length : Integer
  }



  class SourceContract << (O,lawngreen) Data Object >> {
    + name : String
    + source : Source
    + ast : AST
  }





  ContractInstance "n" o- - "0..1" Contract

  ContractConstructor "1" o- - "0..1" Contract

  Contract o- - "1" ContractInterface

  Contract o- - "0..1" SourceContract

  LinkReference "n" - -* Bytecode

  LinkedBytecode o- - "1" Bytecode

  LinkedBytecode *- - "n" LinkValue



  Network "1" - -o ContractInstance

  ContractInstanceCreation o-right- "1" ContractConstructor

  ContractInstance *- - "1" LinkedBytecode

  ContractConstructor *- - "1" LinkedBytecode









  LinkValue ..> "1" LinkReference

@enduml

PlantUML version 1.2018.14(Fri Dec 21 16:33:16 UTC 2018)
(GPL source distribution)
Java Runtime: Java(TM) SE Runtime Environment
JVM: Java HotSpot(TM) 64-Bit Server VM
Java Version: 1.8.0_151-b12
Operating System: Linux
OS Version: 4.4.0-101-generic
Default Encoding: UTF-8
Language: en
Country: US
--></g></svg>