<?xml version="1.0" encoding="UTF-8" standalone="no"?><svg xmlns="http://www.w3.org/2000/svg" xmlns:xlink="http://www.w3.org/1999/xlink" contentScriptType="application/ecmascript" contentStyleType="text/css" height="250px" preserveAspectRatio="none" style="width:459px;height:250px;" version="1.1" viewBox="0 0 459 250" width="459px" zoomAndPan="magnify"><defs><filter height="300%" id="frvsqhw86jais" width="300%" x="-1" y="-1"><feGaussianBlur result="blurOut" stdDeviation="2.0"/><feColorMatrix in="blurOut" result="blurOut2" type="matrix" values="0 0 0 0 0 0 0 0 0 0 0 0 0 0 0 0 0 0 .4 0"/><feOffset dx="4.0" dy="4.0" in="blurOut2" result="blurOut3"/><feBlend in="SourceGraphic" in2="blurOut3" mode="normal"/></filter></defs><g><!--class ContractConstructor--><rect fill="#FEFECE" filter="url(#frvsqhw86jais)" height="92.3516" id="ContractConstructor" style="stroke: #A80036; stroke-width: 1.5;" width="214" x="6" y="8"/><ellipse cx="45.3" cy="26.9688" fill="#DA70D6" rx="11" ry="11" style="stroke: #A80036; stroke-width: 1.0;"/><path d="M46.5031,27.1094 Q46.8625,27.1875 47.1359,27.4609 Q47.4094,27.7344 47.8,28.5156 L50.0344,32.9688 L47.3469,32.9688 L45.8469,29.8438 Q45.7844,29.7031 45.675,29.4688 Q45.0188,28.0781 44.1281,28.0781 L43.3469,28.0781 L43.3469,32.9688 L40.9094,32.9688 L40.9094,20.5781 L44.4406,20.5781 Q46.8313,20.5781 47.8703,21.4219 Q48.9094,22.2656 48.9094,24.1719 Q48.9094,25.4531 48.2922,26.2109 Q47.675,26.9688 46.5031,27.1094 Z M43.3469,22.6406 L43.3469,26.0156 L44.5031,26.0156 Q45.5188,26.0156 45.9484,25.6172 Q46.3781,25.2188 46.3781,24.3125 Q46.3781,23.4219 45.9484,23.0313 Q45.5188,22.6406 44.5031,22.6406 L43.3469,22.6406 Z "/><text fill="#000000" font-family="sans-serif" font-size="12" font-style="italic" lengthAdjust="spacingAndGlyphs" textLength="72" x="92.7" y="24.1387">«Resource»</text><text fill="#000000" font-family="sans-serif" font-size="12" lengthAdjust="spacingAndGlyphs" textLength="128" x="64.7" y="38.1074">ContractConstructor</text><line style="stroke: #A80036; stroke-width: 1.5;" x1="7" x2="219" y1="45.9375" y2="45.9375"/><ellipse cx="17" cy="57.8398" fill="none" rx="3" ry="3" style="stroke: #038048; stroke-width: 1.0;"/><text fill="#000000" font-family="sans-serif" font-size="11" lengthAdjust="spacingAndGlyphs" textLength="78" x="26" y="60.1479">name : String</text><ellipse cx="17" cy="70.6445" fill="none" rx="3" ry="3" style="stroke: #038048; stroke-width: 1.0;"/><text fill="#000000" font-family="sans-serif" font-size="11" lengthAdjust="spacingAndGlyphs" textLength="144" x="26" y="72.9526">compilation : Compilation</text><ellipse cx="17" cy="83.4492" fill="none" rx="3" ry="3" style="stroke: #038048; stroke-width: 1.0;"/><text fill="#000000" font-family="sans-serif" font-size="11" lengthAdjust="spacingAndGlyphs" textLength="188" x="26" y="85.7573">createBytecode : LinkedBytecode</text><line style="stroke: #A80036; stroke-width: 1.5;" x1="7" x2="219" y1="92.3516" y2="92.3516"/><!--class LinkValue--><rect fill="#FEFECE" filter="url(#frvsqhw86jais)" height="79.5469" id="LinkValue" style="stroke: #A80036; stroke-width: 1.5;" width="193" x="255.25" y="14"/><ellipse cx="306" cy="32.9688" fill="#7CFC00" rx="11" ry="11" style="stroke: #A80036; stroke-width: 1.0;"/><path d="M306.1094,28.5469 Q305.1719,28.5469 304.7422,29.5469 Q304.3125,30.5469 304.3125,32.7813 Q304.3125,35.0156 304.7422,36.0156 Q305.1719,37.0156 306.1094,37.0156 Q307.0625,37.0156 307.4922,36.0156 Q307.9219,35.0156 307.9219,32.7813 Q307.9219,30.5469 307.4922,29.5469 Q307.0625,28.5469 306.1094,28.5469 Z M301.7656,32.7813 Q301.7656,29.6094 302.8672,27.9766 Q303.9688,26.3438 306.1094,26.3438 Q308.2656,26.3438 309.3672,27.9766 Q310.4688,29.6094 310.4688,32.7813 Q310.4688,35.9531 309.3672,37.5781 Q308.2656,39.2031 306.1094,39.2031 Q303.9688,39.2031 302.8672,37.5781 Q301.7656,35.9531 301.7656,32.7813 Z "/><text fill="#000000" font-family="sans-serif" font-size="12" font-style="italic" lengthAdjust="spacingAndGlyphs" textLength="87" x="324.5" y="30.1387">«Data Object»</text><text fill="#000000" font-family="sans-serif" font-size="12" lengthAdjust="spacingAndGlyphs" textLength="59" x="338.5" y="44.1074">LinkValue</text><line style="stroke: #A80036; stroke-width: 1.5;" x1="256.25" x2="447.25" y1="51.9375" y2="51.9375"/><ellipse cx="266.25" cy="63.8398" fill="none" rx="3" ry="3" style="stroke: #038048; stroke-width: 1.0;"/><text fill="#000000" font-family="sans-serif" font-size="11" lengthAdjust="spacingAndGlyphs" textLength="167" x="275.25" y="66.1479">linkReference : LinkReference</text><ellipse cx="266.25" cy="76.6445" fill="none" rx="3" ry="3" style="stroke: #038048; stroke-width: 1.0;"/><text fill="#000000" font-family="sans-serif" font-size="11" lengthAdjust="spacingAndGlyphs" textLength="74" x="275.25" y="78.9526">value : Bytes</text><line style="stroke: #A80036; stroke-width: 1.5;" x1="256.25" x2="447.25" y1="85.5469" y2="85.5469"/><!--class LinkReference--><rect fill="#FEFECE" filter="url(#frvsqhw86jais)" height="79.5469" id="LinkReference" style="stroke: #A80036; stroke-width: 1.5;" width="186" x="259" y="160"/><ellipse cx="303.75" cy="178.9688" fill="#7CFC00" rx="11" ry="11" style="stroke: #A80036; stroke-width: 1.0;"/><path d="M303.8594,174.5469 Q302.9219,174.5469 302.4922,175.5469 Q302.0625,176.5469 302.0625,178.7813 Q302.0625,181.0156 302.4922,182.0156 Q302.9219,183.0156 303.8594,183.0156 Q304.8125,183.0156 305.2422,182.0156 Q305.6719,181.0156 305.6719,178.7813 Q305.6719,176.5469 305.2422,175.5469 Q304.8125,174.5469 303.8594,174.5469 Z M299.5156,178.7813 Q299.5156,175.6094 300.6172,173.9766 Q301.7188,172.3438 303.8594,172.3438 Q306.0156,172.3438 307.1172,173.9766 Q308.2188,175.6094 308.2188,178.7813 Q308.2188,181.9531 307.1172,183.5781 Q306.0156,185.2031 303.8594,185.2031 Q301.7188,185.2031 300.6172,183.5781 Q299.5156,181.9531 299.5156,178.7813 Z "/><text fill="#000000" font-family="sans-serif" font-size="12" font-style="italic" lengthAdjust="spacingAndGlyphs" textLength="87" x="324.75" y="176.1387">«Data Object»</text><text fill="#000000" font-family="sans-serif" font-size="12" lengthAdjust="spacingAndGlyphs" textLength="88" x="324.25" y="190.1074">LinkReference</text><line style="stroke: #A80036; stroke-width: 1.5;" x1="260" x2="444" y1="197.9375" y2="197.9375"/><ellipse cx="270" cy="209.8398" fill="none" rx="3" ry="3" style="stroke: #038048; stroke-width: 1.0;"/><text fill="#000000" font-family="sans-serif" font-size="11" lengthAdjust="spacingAndGlyphs" textLength="160" x="279" y="212.1479">offsets : Array&lt;ByteOffset&gt;</text><ellipse cx="270" cy="222.6445" fill="none" rx="3" ry="3" style="stroke: #038048; stroke-width: 1.0;"/><text fill="#000000" font-family="sans-serif" font-size="11" lengthAdjust="spacingAndGlyphs" textLength="87" x="279" y="224.9526">length : Integer</text><line style="stroke: #A80036; stroke-width: 1.5;" x1="260" x2="444" y1="231.5469" y2="231.5469"/><!--link LinkValue to LinkReference--><path d="M351.5,94.349 C351.5,112.921 351.5,135.171 351.5,154.3703 " fill="none" id="LinkValue-LinkReference" style="stroke: #A80036; stroke-width: 1.0; stroke-dasharray: 7.0,7.0;"/><polygon fill="#A80036" points="351.5,159.6989,355.5,150.6989,351.5,154.6989,347.5,150.6989,351.5,159.6989" style="stroke: #A80036; stroke-width: 1.0;"/><text fill="#000000" font-family="sans-serif" font-size="13" lengthAdjust="spacingAndGlyphs" textLength="8" x="341.7266" y="148.9443">1</text><!--
@startuml







  class ContractConstructor << (R,orchid) Resource >> {
    + name : String
    + compilation : Compilation
    + createBytecode : LinkedBytecode
  }

















  class LinkValue << (O,lawngreen) Data Object >> {
    + linkReference : LinkReference
    + value : Bytes
  }

  class LinkReference << (O,lawngreen) Data Object >> {
    + offsets : Array<ByteOffset>
    + length : Integer
  }



























  LinkValue ..> "1" LinkReference

@enduml

PlantUML version 1.2018.14(Fri Dec 21 16:33:16 UTC 2018)
(GPL source distribution)
Java Runtime: Java(TM) SE Runtime Environment
JVM: Java HotSpot(TM) 64-Bit Server VM
Java Version: 1.8.0_151-b12
Operating System: Linux
OS Version: 4.4.0-101-generic
Default Encoding: UTF-8
Language: en
Country: US
--></g></svg>