<?xml version="1.0" encoding="UTF-8" standalone="no"?><svg xmlns="http://www.w3.org/2000/svg" xmlns:xlink="http://www.w3.org/1999/xlink" contentScriptType="application/ecmascript" contentStyleType="text/css" height="287.3px" preserveAspectRatio="none" style="width:732px;height:287px;" version="1.1" viewBox="0 0 732 287" width="732.55px" zoomAndPan="magnify"><defs><filter height="300%" id="f1mqfrtzpjowkv" width="300%" x="-1" y="-1"><feGaussianBlur result="blurOut" stdDeviation="1.3"/><feColorMatrix in="blurOut" result="blurOut2" type="matrix" values="0 0 0 0 0 0 0 0 0 0 0 0 0 0 0 0 0 0 .4 0"/><feOffset dx="2.6" dy="2.6" in="blurOut2" result="blurOut3"/><feBlend in="SourceGraphic" in2="blurOut3" mode="normal"/></filter></defs><g><!--cluster Compilation--><rect fill="#FFFFFF" filter="url(#f1mqfrtzpjowkv)" height="75.4" style="stroke: #000000; stroke-width: 0.9750000000000001;" width="157.3" x="568.1" y="165.75"/><text fill="#000000" font-family="sans-serif" font-size="9.1" font-style="italic" lengthAdjust="spacingAndGlyphs" textLength="48.1" x="622.7" y="175.4968">«external»</text><text fill="#000000" font-family="sans-serif" font-size="9.1" font-weight="bold" lengthAdjust="spacingAndGlyphs" textLength="59.8" x="616.85" y="186.0898">Compilation</text><!--cluster Migrations--><rect fill="#FFFFFF" filter="url(#f1mqfrtzpjowkv)" height="112.45" style="stroke: #000000; stroke-width: 0.9750000000000001;" width="120.9" x="586.3" y="37.7"/><text fill="#000000" font-family="sans-serif" font-size="9.1" font-style="italic" lengthAdjust="spacingAndGlyphs" textLength="48.1" x="622.7" y="47.4468">«external»</text><text fill="#000000" font-family="sans-serif" font-size="9.1" font-weight="bold" lengthAdjust="spacingAndGlyphs" textLength="53.3" x="620.1" y="58.0398">Migrations</text><!--cluster Testing--><rect fill="#FFFFFF" filter="url(#f1mqfrtzpjowkv)" height="264.55" style="stroke: #000000; stroke-width: 0.9750000000000001;" width="401.7" x="148.2" y="15.6"/><text fill="#000000" font-family="sans-serif" font-size="9.1" font-weight="bold" lengthAdjust="spacingAndGlyphs" textLength="38.35" x="329.875" y="25.3468">Testing</text><ellipse cx="646.7714" cy="215.0243" fill="#FEFECE" filter="url(#f1mqfrtzpjowkv)" rx="67.9464" ry="15.1493" style="stroke: #A80036; stroke-width: 0.9750000000000001;"/><text fill="#000000" font-family="sans-serif" font-size="9.1" lengthAdjust="spacingAndGlyphs" textLength="120.9" x="586.3214" y="218.0458">Compile all project sources</text><ellipse cx="646.6556" cy="128.1611" fill="#FEFECE" filter="url(#f1mqfrtzpjowkv)" rx="49.6306" ry="11.4861" style="stroke: #A80036; stroke-width: 0.9750000000000001;"/><text fill="#000000" font-family="sans-serif" font-size="9.1" lengthAdjust="spacingAndGlyphs" textLength="79.3" x="607.0056" y="131.1826">Run all migrations</text><ellipse cx="646.8524" cy="82.5055" fill="#FEFECE" filter="url(#f1mqfrtzpjowkv)" rx="47.2274" ry="11.0055" style="stroke: #A80036; stroke-width: 0.9750000000000001;"/><text fill="#000000" font-family="sans-serif" font-size="9.1" lengthAdjust="spacingAndGlyphs" textLength="73.45" x="610.1274" y="85.527">Run as historical</text><ellipse cx="259.4585" cy="189.1717" fill="#FEFECE" filter="url(#f1mqfrtzpjowkv)" rx="91.4335" ry="19.8467" style="stroke: #A80036; stroke-width: 0.9750000000000001;"/><text fill="#000000" font-family="sans-serif" font-size="9.1" lengthAdjust="spacingAndGlyphs" textLength="170.95" x="173.9835" y="192.1932">Run automated tests for contract type</text><ellipse cx="259.4008" cy="60.9802" fill="#FEFECE" filter="url(#f1mqfrtzpjowkv)" rx="100.4758" ry="21.6552" style="stroke: #A80036; stroke-width: 0.9750000000000001;"/><text fill="#000000" font-family="sans-serif" font-size="9.1" lengthAdjust="spacingAndGlyphs" textLength="189.8" x="164.5008" y="64.0016">Run automated tests for contract instance</text><ellipse cx="259.3969" cy="250.8444" fill="#FEFECE" filter="url(#f1mqfrtzpjowkv)" rx="86.1719" ry="18.7944" style="stroke: #A80036; stroke-width: 0.9750000000000001;"/><text fill="#000000" font-family="sans-serif" font-size="9.1" lengthAdjust="spacingAndGlyphs" textLength="159.9" x="179.4469" y="253.8659">Run automated tests for library type</text><ellipse cx="259.2909" cy="126.2182" fill="#FEFECE" filter="url(#f1mqfrtzpjowkv)" rx="95.1659" ry="20.5932" style="stroke: #A80036; stroke-width: 0.9750000000000001;"/><text fill="#000000" font-family="sans-serif" font-size="9.1" lengthAdjust="spacingAndGlyphs" textLength="178.75" x="169.9159" y="129.2397">Run automated tests for library instance</text><ellipse cx="469.2234" cy="200.2497" fill="#FEFECE" filter="url(#f1mqfrtzpjowkv)" rx="65.5734" ry="14.6747" style="stroke: #A80036; stroke-width: 0.9750000000000001;"/><text fill="#000000" font-family="sans-serif" font-size="9.1" lengthAdjust="spacingAndGlyphs" textLength="115.7" x="411.3734" y="203.2712">Run test written in Solidity</text><ellipse cx="469.4358" cy="146.9272" fill="#FEFECE" filter="url(#f1mqfrtzpjowkv)" rx="70.3358" ry="15.6272" style="stroke: #A80036; stroke-width: 0.9750000000000001;"/><text fill="#000000" font-family="sans-serif" font-size="9.1" lengthAdjust="spacingAndGlyphs" textLength="126.1" x="406.3858" y="149.9486">Run test written in Javascript</text><!--entity Developer--><ellipse cx="61.75" cy="137.475" fill="#FEFECE" filter="url(#f1mqfrtzpjowkv)" rx="5.2" ry="5.2" style="stroke: #A80036; stroke-width: 1.3;"/><path d="M61.75,142.675 L61.75,160.225 M53.3,147.875 L70.2,147.875 M61.75,160.225 L53.3,169.975 M61.75,160.225 L70.2,169.975 " fill="none" filter="url(#f1mqfrtzpjowkv)" style="stroke: #A80036; stroke-width: 1.3;"/><text fill="#000000" font-family="sans-serif" font-size="9.1" lengthAdjust="spacingAndGlyphs" textLength="115.7" x="3.9" y="182.9718">Smart Contract Developer</text><!--link RunHistorical to RunMigrations--><path d="M646.75,93.7475 C646.75,97.0314 646.75,100.3152 646.75,103.5989 " fill="none" id="RunHistorical-RunMigrations" style="stroke: #A80036; stroke-width: 0.65; stroke-dasharray: 7.0,7.0;"/><polygon fill="none" points="651.3,103.675,646.75,116.675,642.2,103.675,651.3,103.675" style="stroke: #A80036; stroke-width: 0.65;"/><!--link TestInstance to RunHistorical--><path d="M356.6823,66.4709 C433.3011,70.7278 537.1594,76.4979 597.3689,79.8428 " fill="none" id="TestInstance-RunHistorical" style="stroke: #A80036; stroke-width: 0.65;"/><polygon fill="#A80036" points="600.7365,80.03,595.0396,77.1097,597.4915,79.8498,594.7514,82.3017,600.7365,80.03" style="stroke: #A80036; stroke-width: 0.65;"/><!--link TestLibraryInstance to RunHistorical--><path d="M343.7779,116.6503 C422.6534,107.7537 537.8172,94.7635 600.8015,87.6597 " fill="none" id="TestLibraryInstance-RunHistorical" style="stroke: #A80036; stroke-width: 0.65;"/><polygon fill="#A80036" points="604.1321,87.284,598.0277,85.3555,600.9025,87.6479,598.6101,90.5228,604.1321,87.284" style="stroke: #A80036; stroke-width: 0.65;"/><!--link RunSolidity to CompileAll--><path d="M530.8173,205.3662 C546.6006,206.7052 563.6761,208.1547 579.7259,209.5165 " fill="none" id="RunSolidity-CompileAll" style="stroke: #A80036; stroke-width: 0.65;"/><polygon fill="#A80036" points="583.1345,209.8064,577.5254,206.7209,579.8961,209.5315,577.0855,211.9022,583.1345,209.8064" style="stroke: #A80036; stroke-width: 0.65;"/><!--link RunSolidity to RunMigrations--><path d="M511.5942,189.0512 C525.5991,184.8899 541.1926,179.801 555.1,174.2 C579.7201,164.2849 606.6931,150.1676 624.8314,140.1628 " fill="none" id="RunSolidity-RunMigrations" style="stroke: #A80036; stroke-width: 0.65;"/><polygon fill="#A80036" points="627.8883,138.4695,621.5112,139.0304,625.0455,140.0446,624.0313,143.5789,627.8883,138.4695" style="stroke: #A80036; stroke-width: 0.65;"/><!--link RunJavascript to CompileAll--><path d="M511.1704,159.5152 C525.215,164.0548 540.9404,169.4063 555.1,174.85 C575.0719,182.5285 597.0153,192.2083 614.3501,200.1565 " fill="none" id="RunJavascript-CompileAll" style="stroke: #A80036; stroke-width: 0.65;"/><polygon fill="#A80036" points="617.3109,201.5182,613.0817,196.7123,614.358,200.1606,610.9096,201.4369,617.3109,201.5182" style="stroke: #A80036; stroke-width: 0.65;"/><!--link RunJavascript to RunMigrations--><path d="M532.7979,140.1745 C554.2804,137.8754 577.9495,135.343 598.0741,133.1896 " fill="none" id="RunJavascript-RunMigrations" style="stroke: #A80036; stroke-width: 0.65;"/><polygon fill="#A80036" points="601.5302,132.8197,595.4369,130.8562,598.2986,133.1651,595.9896,136.0268,601.5302,132.8197" style="stroke: #A80036; stroke-width: 0.65;"/><!--link TestType to RunSolidity--><path d="M348.1842,193.8203 C366.1184,194.7699 384.7051,195.754 401.754,196.6575 " fill="none" id="TestType-RunSolidity" style="stroke: #A80036; stroke-width: 0.65;"/><polygon fill="#A80036" points="405.1431,196.8369,399.4387,193.9313,401.8976,196.6651,399.1638,199.124,405.1431,196.8369" style="stroke: #A80036; stroke-width: 0.65;"/><!--link TestType to RunJavascript--><path d="M326.3046,175.7236 C354.5126,170.0121 387.0165,163.4302 413.8368,157.9994 " fill="none" id="TestType-RunJavascript" style="stroke: #A80036; stroke-width: 0.65;"/><polygon fill="#A80036" points="417.079,157.3429,410.8292,155.9564,413.8937,157.9883,411.8618,161.0529,417.079,157.3429" style="stroke: #A80036; stroke-width: 0.65;"/><!--link TestInstance to RunSolidity--><path d="M330.6076,76.4888 C341.2773,80.9835 351.5545,86.7796 360.1,94.25 C389.8655,120.2708 369.8338,147.6189 399.1,174.2 C405.6013,180.1053 413.569,184.7086 421.761,188.2849 " fill="none" id="TestInstance-RunSolidity" style="stroke: #A80036; stroke-width: 0.65;"/><polygon fill="#A80036" points="424.7874,189.5569,420.4014,184.8937,421.7911,188.2979,418.3869,189.6876,424.7874,189.5569" style="stroke: #A80036; stroke-width: 0.65;"/><!--link TestInstance to RunJavascript--><path d="M317.6427,78.7488 C331.6664,83.4366 346.5306,88.7406 360.1,94.25 C387.1056,105.2155 416.8255,119.8165 438.3301,130.8606 " fill="none" id="TestInstance-RunJavascript" style="stroke: #A80036; stroke-width: 0.65;"/><polygon fill="#A80036" points="441.4417,132.4635,437.4323,127.4727,438.5526,130.9749,435.0505,132.0952,441.4417,132.4635" style="stroke: #A80036; stroke-width: 0.65;"/><!--link TestLibrary to RunSolidity--><path d="M317.0148,237.046 C349.7858,229.0829 390.4596,219.1995 421.4295,211.6745 " fill="none" id="TestLibrary-RunSolidity" style="stroke: #A80036; stroke-width: 0.65;"/><polygon fill="#A80036" points="424.775,210.8613,418.4763,209.7171,421.617,211.6292,419.705,214.7699,424.775,210.8613" style="stroke: #A80036; stroke-width: 0.65;"/><!--link TestLibraryInstance to RunSolidity--><path d="M313.7323,142.8187 C328.8038,147.7047 345.1526,153.1907 360.1,158.6 C377.6546,164.9525 381.6891,167.4641 399.1,174.2 C409.6684,178.2885 421.1799,182.635 431.7404,186.5799 " fill="none" id="TestLibraryInstance-RunSolidity" style="stroke: #A80036; stroke-width: 0.65;"/><polygon fill="#A80036" points="434.9846,187.7909,430.4132,183.3092,431.9398,186.6543,428.5947,188.1808,434.9846,187.7909" style="stroke: #A80036; stroke-width: 0.65;"/><!--link Developer to TestType--><path d="M119.706,167.0585 C140.3019,170.3319 163.8182,174.0694 185.577,177.528 " fill="none" id="Developer-TestType" style="stroke: #A80036; stroke-width: 0.65;"/><!--link Developer to TestInstance--><path d="M90.7179,131.0686 C105.3709,118.3819 124.1149,103.9363 143,94.25 C157.1297,87.0025 173.0677,81.1362 188.4942,76.4706 " fill="none" id="Developer-TestInstance" style="stroke: #A80036; stroke-width: 0.65;"/><!--link Developer to TestLibrary--><path d="M91.275,184.8997 C105.8447,197.2464 124.3541,211.1473 143,220.35 C158.9283,228.2116 177.1231,234.2296 194.2935,238.7585 " fill="none" id="Developer-TestLibrary" style="stroke: #A80036; stroke-width: 0.65;"/><!--link Developer to TestLibraryInstance--><path d="M119.706,148.6518 C139.5661,145.4297 162.1425,141.767 183.2389,138.3434 " fill="none" id="Developer-TestLibraryInstance" style="stroke: #A80036; stroke-width: 0.65;"/><!--
@startuml
scale 0.65
left to right direction

:Smart Contract Developer: as :Developer:


rectangle Compilation << external >> {
  (Compile all project sources) as (CompileAll)
}

rectangle Migrations << external >> {
  (Run all migrations) as (RunMigrations)
  (Run as historical) as (RunHistorical)
  RunHistorical .|> RunMigrations
}

rectangle Testing {
  (Run automated tests for contract type) as (TestType)
  (Run automated tests for contract instance) as (TestInstance)
  (Run automated tests for library type) as (TestLibrary)
  (Run automated tests for library instance) as (TestLibraryInstance)

  TestInstance - -> RunHistorical
  TestLibraryInstance - -> RunHistorical

  (Run test written in Solidity) as (RunSolidity)
  RunSolidity - -> CompileAll
  RunSolidity - -> RunMigrations

  (Run test written in Javascript) as (RunJavascript)
  RunJavascript - -> CompileAll
  RunJavascript - -> RunMigrations

  TestType - -> RunSolidity
  TestType - -> RunJavascript

  TestInstance - -> RunSolidity
  TestInstance - -> RunJavascript

  TestLibrary - -> RunSolidity
  TestLibraryInstance - -> RunSolidity
}

Developer - - TestType
Developer - - TestInstance
Developer - - TestLibrary
Developer - - TestLibraryInstance

@enduml

PlantUML version 1.2018.14(Fri Dec 21 16:33:16 UTC 2018)
(GPL source distribution)
Java Runtime: Java(TM) SE Runtime Environment
JVM: Java HotSpot(TM) 64-Bit Server VM
Java Version: 1.8.0_151-b12
Operating System: Linux
OS Version: 4.4.0-101-generic
Default Encoding: UTF-8
Language: en
Country: US
--></g></svg>