<?xml version="1.0" encoding="UTF-8" standalone="no"?><svg xmlns="http://www.w3.org/2000/svg" xmlns:xlink="http://www.w3.org/1999/xlink" contentScriptType="application/ecmascript" contentStyleType="text/css" height="799.5px" preserveAspectRatio="none" style="width:582px;height:799px;" version="1.1" viewBox="0 0 582 799" width="582px" zoomAndPan="magnify"><defs><filter height="300%" id="f1gd0jz2q5arek" width="300%" x="-1" y="-1"><feGaussianBlur result="blurOut" stdDeviation="1.5"/><feColorMatrix in="blurOut" result="blurOut2" type="matrix" values="0 0 0 0 0 0 0 0 0 0 0 0 0 0 0 0 0 0 .4 0"/><feOffset dx="3.0" dy="3.0" in="blurOut2" result="blurOut3"/><feBlend in="SourceGraphic" in2="blurOut3" mode="normal"/></filter></defs><g><!--class Contract--><rect fill="#FEFECE" filter="url(#f1gd0jz2q5arek)" height="88.4707" id="Contract" style="stroke: #A80036; stroke-width: 1.125;" width="197.25" x="152.0625" y="6"/><ellipse cx="201" cy="20.2266" fill="#FF8C00" rx="8.25" ry="8.25" style="stroke: #A80036; stroke-width: 0.75;"/><path d="M201.9023,20.332 Q202.1719,20.3906 202.377,20.5957 Q202.582,20.8008 202.875,21.3867 L204.5508,24.7266 L202.5352,24.7266 L201.4102,22.3828 Q201.3633,22.2773 201.2813,22.1016 Q200.7891,21.0586 200.1211,21.0586 L199.5352,21.0586 L199.5352,24.7266 L197.707,24.7266 L197.707,15.4336 L200.3555,15.4336 Q202.1484,15.4336 202.9277,16.0664 Q203.707,16.6992 203.707,18.1289 Q203.707,19.0898 203.2441,19.6582 Q202.7813,20.2266 201.9023,20.332 Z M199.5352,16.9805 L199.5352,19.5117 L200.4023,19.5117 Q201.1641,19.5117 201.4863,19.2129 Q201.8086,18.9141 201.8086,18.2344 Q201.8086,17.5664 201.4863,17.2734 Q201.1641,16.9805 200.4023,16.9805 L199.5352,16.9805 Z "/><text fill="#000000" font-family="sans-serif" font-size="9" font-style="italic" lengthAdjust="spacingAndGlyphs" textLength="96" x="214.875" y="18.104">«External Resource»</text><text fill="#000000" font-family="sans-serif" font-size="9" lengthAdjust="spacingAndGlyphs" textLength="40.5" x="242.625" y="28.5806">Contract</text><line style="stroke: #A80036; stroke-width: 1.125;" x1="152.8125" x2="348.5625" y1="34.4531" y2="34.4531"/><ellipse cx="160.3125" cy="43.3799" fill="none" rx="2.25" ry="2.25" style="stroke: #038048; stroke-width: 0.75;"/><text fill="#000000" font-family="sans-serif" font-size="8.25" lengthAdjust="spacingAndGlyphs" textLength="55.5" x="167.0625" y="45.111">name: String</text><ellipse cx="160.3125" cy="52.9834" fill="none" rx="2.25" ry="2.25" style="stroke: #038048; stroke-width: 0.75;"/><text fill="#000000" font-family="sans-serif" font-size="8.25" lengthAdjust="spacingAndGlyphs" textLength="32.25" x="167.0625" y="54.7145">abi: ABI</text><line style="stroke: #A80036; stroke-width: 1.125;" x1="152.8125" x2="348.5625" y1="59.6602" y2="59.6602"/><ellipse cx="160.3125" cy="68.5869" fill="#84BE84" rx="2.25" ry="2.25" style="stroke: #038048; stroke-width: 0.75;"/><text fill="#000000" font-family="sans-serif" font-size="8.25" lengthAdjust="spacingAndGlyphs" textLength="145.5" x="167.0625" y="70.318">compilation: Maybe&lt;Compilation&gt;</text><ellipse cx="160.3125" cy="78.1904" fill="#84BE84" rx="2.25" ry="2.25" style="stroke: #038048; stroke-width: 0.75;"/><text fill="#000000" font-family="sans-serif" font-size="8.25" lengthAdjust="spacingAndGlyphs" textLength="177.75" x="167.0625" y="79.9215">sourceContract: Maybe&lt;SourceContract&gt;</text><ellipse cx="160.3125" cy="87.7939" fill="#84BE84" rx="2.25" ry="2.25" style="stroke: #038048; stroke-width: 0.75;"/><text fill="#000000" font-family="sans-serif" font-size="8.25" lengthAdjust="spacingAndGlyphs" textLength="117" x="167.0625" y="89.525">interface: ContractInterface</text><!--class Bytecode--><rect fill="#FEFECE" filter="url(#f1gd0jz2q5arek)" height="78.8672" id="Bytecode" style="stroke: #A80036; stroke-width: 1.125;" width="177.75" x="216.5625" y="712.875"/><ellipse cx="276.75" cy="727.1016" fill="#DA70D6" rx="8.25" ry="8.25" style="stroke: #A80036; stroke-width: 0.75;"/><path d="M277.6523,727.207 Q277.9219,727.2656 278.127,727.4707 Q278.332,727.6758 278.625,728.2617 L280.3008,731.6016 L278.2852,731.6016 L277.1602,729.2578 Q277.1133,729.1523 277.0313,728.9766 Q276.5391,727.9336 275.8711,727.9336 L275.2852,727.9336 L275.2852,731.6016 L273.457,731.6016 L273.457,722.3086 L276.1055,722.3086 Q277.8984,722.3086 278.6777,722.9414 Q279.457,723.5742 279.457,725.0039 Q279.457,725.9648 278.9941,726.5332 Q278.5313,727.1016 277.6523,727.207 Z M275.2852,723.8555 L275.2852,726.3867 L276.1523,726.3867 Q276.9141,726.3867 277.2363,726.0879 Q277.5586,725.7891 277.5586,725.1094 Q277.5586,724.4414 277.2363,724.1484 Q276.9141,723.8555 276.1523,723.8555 L275.2852,723.8555 Z "/><text fill="#000000" font-family="sans-serif" font-size="9" font-style="italic" lengthAdjust="spacingAndGlyphs" textLength="54" x="290.625" y="724.979">«Resource»</text><text fill="#000000" font-family="sans-serif" font-size="9" lengthAdjust="spacingAndGlyphs" textLength="43.5" x="295.875" y="735.4556">Bytecode</text><line style="stroke: #A80036; stroke-width: 1.125;" x1="217.3125" x2="393.5625" y1="741.3281" y2="741.3281"/><ellipse cx="224.8125" cy="750.2549" fill="none" rx="2.25" ry="2.25" style="stroke: #038048; stroke-width: 0.75;"/><text fill="#000000" font-family="sans-serif" font-size="8.25" lengthAdjust="spacingAndGlyphs" textLength="84" x="231.5625" y="751.986">bytes: Array&lt;Byte&gt;</text><ellipse cx="224.8125" cy="759.8584" fill="none" rx="2.25" ry="2.25" style="stroke: #038048; stroke-width: 0.75;"/><text fill="#000000" font-family="sans-serif" font-size="8.25" lengthAdjust="spacingAndGlyphs" textLength="158.25" x="231.5625" y="761.5895">linkReferences : Set&lt;LinkReference&gt;</text><ellipse cx="224.8125" cy="769.4619" fill="#84BE84" rx="2.25" ry="2.25" style="stroke: #038048; stroke-width: 0.75;"/><text fill="#000000" font-family="sans-serif" font-size="8.25" lengthAdjust="spacingAndGlyphs" textLength="137.25" x="231.5625" y="771.193">instructions: Array&lt;Instruction&gt;</text><line style="stroke: #A80036; stroke-width: 0.75; stroke-dasharray: 1.0,2.0;" x1="217.3125" x2="393.5625" y1="776.1387" y2="776.1387"/><rect fill="none" height="4.5" style="stroke: #C82930; stroke-width: 0.75;" width="4.5" x="222.5625" y="782.8154"/><path d="M236.0938,781.1797 C235.145,781.1797 234.375,781.9497 234.375,782.8984 C234.375,783.0084 234.3977,783.1026 234.4183,783.1996 L232.3125,785.3054 L232.3125,786.6804 L234.375,786.6804 L234.375,785.3054 L235.75,785.3054 L235.75,784.6179 L235.7933,784.5746 C235.8896,784.5952 235.9838,784.6179 236.0944,784.6179 C237.0432,784.6179 237.8132,783.8479 237.8132,782.8991 C237.8132,781.9504 237.0432,781.1804 236.0944,781.1804 M236.4382,781.8679 C236.8163,781.8679 237.1257,782.1773 237.1257,782.5554 C237.1257,782.9335 236.8163,783.2429 236.4382,783.2429 C236.0601,783.2429 235.7507,782.9335 235.7507,782.5554 C235.7507,782.1773 236.0601,781.8679 236.4382,781.8679 " fill="#000000" style="stroke: ; stroke-width: 0.0; stroke-dasharray: ;"/><text fill="#000000" font-family="sans-serif" font-size="8.25" lengthAdjust="spacingAndGlyphs" textLength="8.25" x="241.5625" y="786.7965">ID</text><text fill="#000000" font-family="sans-serif" font-size="8.25" font-style="italic" lengthAdjust="spacingAndGlyphs" textLength="33" x="252.8125" y="786.7965">= hash(</text><text fill="#000000" font-family="sans-serif" font-size="8.25" lengthAdjust="spacingAndGlyphs" textLength="0" x="288.8125" y="786.7965"/><text fill="#000000" font-family="Andale Mono" font-size="8.25" lengthAdjust="spacingAndGlyphs" textLength="23.25" x="288.8125" y="786.7965">bytes</text><text fill="#000000" font-family="sans-serif" font-size="8.25" lengthAdjust="spacingAndGlyphs" textLength="0" x="315.0625" y="786.7965"/><text fill="#000000" font-family="sans-serif" font-size="8.25" font-style="italic" lengthAdjust="spacingAndGlyphs" textLength="3" x="315.0625" y="786.7965">)</text><!--class Instruction--><rect fill="#FEFECE" filter="url(#f1gd0jz2q5arek)" height="78.8672" id="Instruction" style="stroke: #A80036; stroke-width: 1.125;" width="121.5" x="328.5" y="541.875"/><ellipse cx="355.6125" cy="556.1016" fill="#7CFC00" rx="8.25" ry="8.25" style="stroke: #A80036; stroke-width: 0.75;"/><path d="M355.6945,552.7852 Q354.9914,552.7852 354.6691,553.5352 Q354.3469,554.2852 354.3469,555.9609 Q354.3469,557.6367 354.6691,558.3867 Q354.9914,559.1367 355.6945,559.1367 Q356.4094,559.1367 356.7316,558.3867 Q357.0539,557.6367 357.0539,555.9609 Q357.0539,554.2852 356.7316,553.5352 Q356.4094,552.7852 355.6945,552.7852 Z M352.4367,555.9609 Q352.4367,553.582 353.2629,552.3574 Q354.0891,551.1328 355.6945,551.1328 Q357.3117,551.1328 358.1379,552.3574 Q358.9641,553.582 358.9641,555.9609 Q358.9641,558.3398 358.1379,559.5586 Q357.3117,560.7773 355.6945,560.7773 Q354.0891,560.7773 353.2629,559.5586 Q352.4367,558.3398 352.4367,555.9609 Z "/><text fill="#000000" font-family="sans-serif" font-size="9" font-style="italic" lengthAdjust="spacingAndGlyphs" textLength="65.25" x="368.1375" y="553.979">«Data Object»</text><text fill="#000000" font-family="sans-serif" font-size="9" lengthAdjust="spacingAndGlyphs" textLength="50.25" x="375.6375" y="564.4556">Instruction</text><line style="stroke: #A80036; stroke-width: 1.125;" x1="329.25" x2="449.25" y1="570.3281" y2="570.3281"/><ellipse cx="336.75" cy="579.2549" fill="none" rx="2.25" ry="2.25" style="stroke: #038048; stroke-width: 0.75;"/><text fill="#000000" font-family="sans-serif" font-size="8.25" lengthAdjust="spacingAndGlyphs" textLength="102" x="343.5" y="580.986">programCounter: String</text><ellipse cx="336.75" cy="588.8584" fill="none" rx="2.25" ry="2.25" style="stroke: #038048; stroke-width: 0.75;"/><text fill="#000000" font-family="sans-serif" font-size="8.25" lengthAdjust="spacingAndGlyphs" textLength="66.75" x="343.5" y="590.5895">opcode: Integer</text><ellipse cx="336.75" cy="598.4619" fill="none" rx="2.25" ry="2.25" style="stroke: #038048; stroke-width: 0.75;"/><text fill="#000000" font-family="sans-serif" font-size="8.25" lengthAdjust="spacingAndGlyphs" textLength="72" x="343.5" y="600.193">pushData: String</text><ellipse cx="336.75" cy="608.0654" fill="none" rx="2.25" ry="2.25" style="stroke: #038048; stroke-width: 0.75;"/><text fill="#000000" font-family="sans-serif" font-size="8.25" lengthAdjust="spacingAndGlyphs" textLength="93" x="343.5" y="609.7965">meta: InstructionMeta</text><line style="stroke: #A80036; stroke-width: 1.125;" x1="329.25" x2="449.25" y1="614.7422" y2="614.7422"/><!--class InstructionMeta--><rect fill="#FEFECE" filter="url(#f1gd0jz2q5arek)" height="78.8672" id="InstructionMeta" style="stroke: #A80036; stroke-width: 1.125;" width="97.5" x="476.25" y="541.875"/><ellipse cx="487.5" cy="556.1016" fill="#7CFC00" rx="8.25" ry="8.25" style="stroke: #A80036; stroke-width: 0.75;"/><path d="M487.582,552.7852 Q486.8789,552.7852 486.5566,553.5352 Q486.2344,554.2852 486.2344,555.9609 Q486.2344,557.6367 486.5566,558.3867 Q486.8789,559.1367 487.582,559.1367 Q488.2969,559.1367 488.6191,558.3867 Q488.9414,557.6367 488.9414,555.9609 Q488.9414,554.2852 488.6191,553.5352 Q488.2969,552.7852 487.582,552.7852 Z M484.3242,555.9609 Q484.3242,553.582 485.1504,552.3574 Q485.9766,551.1328 487.582,551.1328 Q489.1992,551.1328 490.0254,552.3574 Q490.8516,553.582 490.8516,555.9609 Q490.8516,558.3398 490.0254,559.5586 Q489.1992,560.7773 487.582,560.7773 Q485.9766,560.7773 485.1504,559.5586 Q484.3242,558.3398 484.3242,555.9609 Z "/><text fill="#000000" font-family="sans-serif" font-size="9" font-style="italic" lengthAdjust="spacingAndGlyphs" textLength="65.25" x="502.125" y="553.979">«Data Object»</text><text fill="#000000" font-family="sans-serif" font-size="9" lengthAdjust="spacingAndGlyphs" textLength="73.5" x="498" y="564.4556">InstructionMeta</text><line style="stroke: #A80036; stroke-width: 1.125;" x1="477" x2="573" y1="570.3281" y2="570.3281"/><ellipse cx="484.5" cy="579.2549" fill="none" rx="2.25" ry="2.25" style="stroke: #038048; stroke-width: 0.75;"/><text fill="#000000" font-family="sans-serif" font-size="8.25" lengthAdjust="spacingAndGlyphs" textLength="54" x="491.25" y="580.986">cost: Integer</text><ellipse cx="484.5" cy="588.8584" fill="none" rx="2.25" ry="2.25" style="stroke: #038048; stroke-width: 0.75;"/><text fill="#000000" font-family="sans-serif" font-size="8.25" lengthAdjust="spacingAndGlyphs" textLength="57" x="491.25" y="590.5895">pops: Integer</text><ellipse cx="484.5" cy="598.4619" fill="none" rx="2.25" ry="2.25" style="stroke: #038048; stroke-width: 0.75;"/><text fill="#000000" font-family="sans-serif" font-size="8.25" lengthAdjust="spacingAndGlyphs" textLength="67.5" x="491.25" y="600.193">pushes: Integer</text><ellipse cx="484.5" cy="608.0654" fill="none" rx="2.25" ry="2.25" style="stroke: #038048; stroke-width: 0.75;"/><text fill="#000000" font-family="sans-serif" font-size="8.25" lengthAdjust="spacingAndGlyphs" textLength="71.25" x="491.25" y="609.7965">dynamic: Integer</text><line style="stroke: #A80036; stroke-width: 1.125;" x1="477" x2="573" y1="614.7422" y2="614.7422"/><!--class Source--><rect fill="#FEFECE" filter="url(#f1gd0jz2q5arek)" height="69.2637" id="Source" style="stroke: #A80036; stroke-width: 1.125;" width="173.5" x="327.5625" y="279"/><ellipse cx="385.625" cy="293.2266" fill="#DA70D6" rx="8.25" ry="8.25" style="stroke: #A80036; stroke-width: 0.75;"/><path d="M386.5273,293.332 Q386.7969,293.3906 387.002,293.5957 Q387.207,293.8008 387.5,294.3867 L389.1758,297.7266 L387.1602,297.7266 L386.0352,295.3828 Q385.9883,295.2773 385.9063,295.1016 Q385.4141,294.0586 384.7461,294.0586 L384.1602,294.0586 L384.1602,297.7266 L382.332,297.7266 L382.332,288.4336 L384.9805,288.4336 Q386.7734,288.4336 387.5527,289.0664 Q388.332,289.6992 388.332,291.1289 Q388.332,292.0898 387.8691,292.6582 Q387.4063,293.2266 386.5273,293.332 Z M384.1602,289.9805 L384.1602,292.5117 L385.0273,292.5117 Q385.7891,292.5117 386.1113,292.2129 Q386.4336,291.9141 386.4336,291.2344 Q386.4336,290.5664 386.1113,290.2734 Q385.7891,289.9805 385.0273,289.9805 L384.1602,289.9805 Z "/><text fill="#000000" font-family="sans-serif" font-size="9" font-style="italic" lengthAdjust="spacingAndGlyphs" textLength="54" x="399.5" y="291.104">«Resource»</text><text fill="#000000" font-family="sans-serif" font-size="9" lengthAdjust="spacingAndGlyphs" textLength="33" x="410" y="301.5806">Source</text><line style="stroke: #A80036; stroke-width: 1.125;" x1="328.3125" x2="500.3125" y1="307.4531" y2="307.4531"/><ellipse cx="335.8125" cy="316.3799" fill="none" rx="2.25" ry="2.25" style="stroke: #038048; stroke-width: 0.75;"/><text fill="#000000" font-family="sans-serif" font-size="8.25" lengthAdjust="spacingAndGlyphs" textLength="68.25" x="342.5625" y="318.111">contents: String</text><ellipse cx="335.8125" cy="325.9834" fill="none" rx="2.25" ry="2.25" style="stroke: #038048; stroke-width: 0.75;"/><text fill="#000000" font-family="sans-serif" font-size="8.25" lengthAdjust="spacingAndGlyphs" textLength="120" x="342.5625" y="327.7145">sourcePath: Maybe&lt;String&gt;</text><line style="stroke: #A80036; stroke-width: 0.75; stroke-dasharray: 1.0,2.0;" x1="328.3125" x2="500.3125" y1="332.6602" y2="332.6602"/><rect fill="none" height="4.5" style="stroke: #C82930; stroke-width: 0.75;" width="4.5" x="333.5625" y="339.3369"/><path d="M347.0938,337.7012 C346.145,337.7012 345.375,338.4712 345.375,339.4199 C345.375,339.5299 345.3977,339.6241 345.4183,339.721 L343.3125,341.8269 L343.3125,343.2019 L345.375,343.2019 L345.375,341.8269 L346.75,341.8269 L346.75,341.1394 L346.7933,341.096 C346.8896,341.1167 346.9838,341.1394 347.0944,341.1394 C348.0432,341.1394 348.8132,340.3694 348.8132,339.4206 C348.8132,338.4719 348.0432,337.7019 347.0944,337.7019 M347.4382,338.3894 C347.8163,338.3894 348.1257,338.6987 348.1257,339.0769 C348.1257,339.455 347.8163,339.7644 347.4382,339.7644 C347.0601,339.7644 346.7507,339.455 346.7507,339.0769 C346.7507,338.6987 347.0601,338.3894 347.4382,338.3894 " fill="#000000" style="stroke: ; stroke-width: 0.0; stroke-dasharray: ;"/><text fill="#000000" font-family="sans-serif" font-size="8.25" lengthAdjust="spacingAndGlyphs" textLength="8.25" x="352.5625" y="343.318">ID</text><text fill="#000000" font-family="sans-serif" font-size="8.25" font-style="italic" lengthAdjust="spacingAndGlyphs" textLength="33" x="363.8125" y="343.318">= hash(</text><text fill="#000000" font-family="sans-serif" font-size="8.25" lengthAdjust="spacingAndGlyphs" textLength="0" x="399.8125" y="343.318"/><text fill="#000000" font-family="Andale Mono" font-size="8.25" lengthAdjust="spacingAndGlyphs" textLength="36.75" x="399.8125" y="343.318">contents</text><text fill="#000000" font-family="sans-serif" font-size="8.25" font-style="italic" lengthAdjust="spacingAndGlyphs" textLength="3" x="436.5625" y="343.318">,</text><text fill="#000000" font-family="sans-serif" font-size="8.25" lengthAdjust="spacingAndGlyphs" textLength="0" x="442.5625" y="343.318"/><text fill="#000000" font-family="Andale Mono" font-size="8.25" lengthAdjust="spacingAndGlyphs" textLength="48" x="442.5625" y="343.318">sourcePath</text><text fill="#000000" font-family="sans-serif" font-size="8.25" lengthAdjust="spacingAndGlyphs" textLength="0" x="493.5625" y="343.318"/><text fill="#000000" font-family="sans-serif" font-size="8.25" font-style="italic" lengthAdjust="spacingAndGlyphs" textLength="3" x="493.5625" y="343.318">)</text><!--class Compilation--><rect fill="#FEFECE" filter="url(#f1gd0jz2q5arek)" height="98.0742" id="Compilation" style="stroke: #A80036; stroke-width: 1.125;" width="170.25" x="121.3125" y="264.375"/><ellipse cx="175.875" cy="278.6016" fill="#DA70D6" rx="8.25" ry="8.25" style="stroke: #A80036; stroke-width: 0.75;"/><path d="M176.7773,278.707 Q177.0469,278.7656 177.252,278.9707 Q177.457,279.1758 177.75,279.7617 L179.4258,283.1016 L177.4102,283.1016 L176.2852,280.7578 Q176.2383,280.6523 176.1563,280.4766 Q175.6641,279.4336 174.9961,279.4336 L174.4102,279.4336 L174.4102,283.1016 L172.582,283.1016 L172.582,273.8086 L175.2305,273.8086 Q177.0234,273.8086 177.8027,274.4414 Q178.582,275.0742 178.582,276.5039 Q178.582,277.4648 178.1191,278.0332 Q177.6563,278.6016 176.7773,278.707 Z M174.4102,275.3555 L174.4102,277.8867 L175.2773,277.8867 Q176.0391,277.8867 176.3613,277.5879 Q176.6836,277.2891 176.6836,276.6094 Q176.6836,275.9414 176.3613,275.6484 Q176.0391,275.3555 175.2773,275.3555 L174.4102,275.3555 Z "/><text fill="#000000" font-family="sans-serif" font-size="9" font-style="italic" lengthAdjust="spacingAndGlyphs" textLength="54" x="191.625" y="276.479">«Resource»</text><text fill="#000000" font-family="sans-serif" font-size="9" lengthAdjust="spacingAndGlyphs" textLength="54.75" x="191.25" y="286.9556">Compilation</text><line style="stroke: #A80036; stroke-width: 1.125;" x1="122.0625" x2="290.8125" y1="292.8281" y2="292.8281"/><ellipse cx="129.5625" cy="301.7549" fill="none" rx="2.25" ry="2.25" style="stroke: #038048; stroke-width: 0.75;"/><text fill="#000000" font-family="sans-serif" font-size="8.25" lengthAdjust="spacingAndGlyphs" textLength="84" x="136.3125" y="303.486">compiler : Compiler</text><ellipse cx="129.5625" cy="311.3584" fill="#84BE84" rx="2.25" ry="2.25" style="stroke: #038048; stroke-width: 0.75;"/><text fill="#000000" font-family="sans-serif" font-size="8.25" lengthAdjust="spacingAndGlyphs" textLength="150" x="136.3125" y="313.0895">sources : Array&lt;Maybe&lt;Source&gt;&gt;</text><ellipse cx="129.5625" cy="320.9619" fill="#84BE84" rx="2.25" ry="2.25" style="stroke: #038048; stroke-width: 0.75;"/><text fill="#000000" font-family="sans-serif" font-size="8.25" lengthAdjust="spacingAndGlyphs" textLength="150.75" x="136.3125" y="322.693">contracts : Array&lt;SourceContract&gt;</text><line style="stroke: #A80036; stroke-width: 0.75; stroke-dasharray: 1.0,2.0;" x1="122.0625" x2="290.8125" y1="327.6387" y2="327.6387"/><rect fill="none" height="4.5" style="stroke: #C82930; stroke-width: 0.75;" width="4.5" x="127.3125" y="334.3154"/><path d="M140.8438,332.6797 C139.895,332.6797 139.125,333.4497 139.125,334.3984 C139.125,334.5084 139.1477,334.6026 139.1683,334.6996 L137.0625,336.8054 L137.0625,338.1804 L139.125,338.1804 L139.125,336.8054 L140.5,336.8054 L140.5,336.1179 L140.5433,336.0746 C140.6396,336.0952 140.7338,336.1179 140.8444,336.1179 C141.7932,336.1179 142.5632,335.3479 142.5632,334.3991 C142.5632,333.4504 141.7932,332.6804 140.8444,332.6804 M141.1882,333.3679 C141.5663,333.3679 141.8757,333.6773 141.8757,334.0554 C141.8757,334.4335 141.5663,334.7429 141.1882,334.7429 C140.8101,334.7429 140.5007,334.4335 140.5007,334.0554 C140.5007,333.6773 140.8101,333.3679 141.1882,333.3679 " fill="#000000" style="stroke: ; stroke-width: 0.0; stroke-dasharray: ;"/><text fill="#000000" font-family="sans-serif" font-size="8.25" lengthAdjust="spacingAndGlyphs" textLength="8.25" x="146.3125" y="338.2965">ID</text><text fill="#000000" font-family="sans-serif" font-size="8.25" font-style="italic" lengthAdjust="spacingAndGlyphs" textLength="33" x="157.5625" y="338.2965">= hash(</text><text fill="#000000" font-family="sans-serif" font-size="8.25" lengthAdjust="spacingAndGlyphs" textLength="0" x="193.5625" y="338.2965"/><text fill="#000000" font-family="Andale Mono" font-size="8.25" lengthAdjust="spacingAndGlyphs" textLength="36.75" x="193.5625" y="338.2965">compiler</text><text fill="#000000" font-family="sans-serif" font-size="8.25" font-style="italic" lengthAdjust="spacingAndGlyphs" textLength="3" x="230.3125" y="338.2965">,</text><text fill="#000000" font-family="sans-serif" font-size="8.25" lengthAdjust="spacingAndGlyphs" textLength="0" x="236.3125" y="338.2965"/><text fill="#000000" font-family="Andale Mono" font-size="8.25" lengthAdjust="spacingAndGlyphs" textLength="42" x="236.3125" y="338.2965">sourceIds</text><text fill="#000000" font-family="sans-serif" font-size="8.25" lengthAdjust="spacingAndGlyphs" textLength="0" x="281.3125" y="338.2965"/><text fill="#000000" font-family="sans-serif" font-size="8.25" font-style="italic" lengthAdjust="spacingAndGlyphs" textLength="3" x="281.3125" y="338.2965">)</text><rect fill="none" height="4.5" style="stroke: #C82930; stroke-width: 0.75;" width="4.5" x="127.3125" y="343.9189"/><text fill="#000000" font-family="sans-serif" font-size="8.25" lengthAdjust="spacingAndGlyphs" textLength="132.75" x="136.3125" y="347.9">sourceIds: Array&lt;Maybe&lt;ID&gt;&gt;</text><rect fill="none" height="4.5" style="stroke: #C82930; stroke-width: 0.75;" width="4.5" x="127.3125" y="353.5225"/><text fill="#000000" font-family="sans-serif" font-size="8.25" lengthAdjust="spacingAndGlyphs" textLength="141" x="136.3125" y="357.5035">contractIds : Array&lt;Maybe&lt;ID&gt;&gt;</text><!--class SourceContract--><rect fill="#FEFECE" filter="url(#f1gd0jz2q5arek)" height="78.8672" id="SourceContract" style="stroke: #A80036; stroke-width: 1.125;" width="97.5" x="246" y="139.875"/><ellipse cx="257.25" cy="154.1016" fill="#7CFC00" rx="8.25" ry="8.25" style="stroke: #A80036; stroke-width: 0.75;"/><path d="M257.332,150.7852 Q256.6289,150.7852 256.3066,151.5352 Q255.9844,152.2852 255.9844,153.9609 Q255.9844,155.6367 256.3066,156.3867 Q256.6289,157.1367 257.332,157.1367 Q258.0469,157.1367 258.3691,156.3867 Q258.6914,155.6367 258.6914,153.9609 Q258.6914,152.2852 258.3691,151.5352 Q258.0469,150.7852 257.332,150.7852 Z M254.0742,153.9609 Q254.0742,151.582 254.9004,150.3574 Q255.7266,149.1328 257.332,149.1328 Q258.9492,149.1328 259.7754,150.3574 Q260.6016,151.582 260.6016,153.9609 Q260.6016,156.3398 259.7754,157.5586 Q258.9492,158.7773 257.332,158.7773 Q255.7266,158.7773 254.9004,157.5586 Q254.0742,156.3398 254.0742,153.9609 Z "/><text fill="#000000" font-family="sans-serif" font-size="9" font-style="italic" lengthAdjust="spacingAndGlyphs" textLength="65.25" x="271.875" y="151.979">«Data Object»</text><text fill="#000000" font-family="sans-serif" font-size="9" lengthAdjust="spacingAndGlyphs" textLength="73.5" x="267.75" y="162.4556">SourceContract</text><line style="stroke: #A80036; stroke-width: 1.125;" x1="246.75" x2="342.75" y1="168.3281" y2="168.3281"/><ellipse cx="254.25" cy="177.2549" fill="none" rx="2.25" ry="2.25" style="stroke: #038048; stroke-width: 0.75;"/><text fill="#000000" font-family="sans-serif" font-size="8.25" lengthAdjust="spacingAndGlyphs" textLength="55.5" x="261" y="178.986">name: String</text><ellipse cx="254.25" cy="186.8584" fill="none" rx="2.25" ry="2.25" style="stroke: #038048; stroke-width: 0.75;"/><text fill="#000000" font-family="sans-serif" font-size="8.25" lengthAdjust="spacingAndGlyphs" textLength="36" x="261" y="188.5895">ast: AST</text><ellipse cx="254.25" cy="196.4619" fill="#84BE84" rx="2.25" ry="2.25" style="stroke: #038048; stroke-width: 0.75;"/><text fill="#000000" font-family="sans-serif" font-size="8.25" lengthAdjust="spacingAndGlyphs" textLength="65.25" x="261" y="198.193">source: Source</text><line style="stroke: #A80036; stroke-width: 0.75; stroke-dasharray: 1.0,2.0;" x1="246.75" x2="342.75" y1="203.1387" y2="203.1387"/><rect fill="none" height="4.5" style="stroke: #C82930; stroke-width: 0.75;" width="4.5" x="252" y="209.8154"/><text fill="#000000" font-family="sans-serif" font-size="8.25" lengthAdjust="spacingAndGlyphs" textLength="51" x="261" y="213.7965">sourceId: ID</text><!--class Compiler--><rect fill="#FEFECE" filter="url(#f1gd0jz2q5arek)" height="69.2637" id="Compiler" style="stroke: #A80036; stroke-width: 1.125;" width="90" x="4.875" y="279"/><ellipse cx="17.8125" cy="293.2266" fill="#7CFC00" rx="8.25" ry="8.25" style="stroke: #A80036; stroke-width: 0.75;"/><path d="M17.8945,289.9102 Q17.1914,289.9102 16.8691,290.6602 Q16.5469,291.4102 16.5469,293.0859 Q16.5469,294.7617 16.8691,295.5117 Q17.1914,296.2617 17.8945,296.2617 Q18.6094,296.2617 18.9316,295.5117 Q19.2539,294.7617 19.2539,293.0859 Q19.2539,291.4102 18.9316,290.6602 Q18.6094,289.9102 17.8945,289.9102 Z M14.6367,293.0859 Q14.6367,290.707 15.4629,289.4824 Q16.2891,288.2578 17.8945,288.2578 Q19.5117,288.2578 20.3379,289.4824 Q21.1641,290.707 21.1641,293.0859 Q21.1641,295.4648 20.3379,296.6836 Q19.5117,297.9023 17.8945,297.9023 Q16.2891,297.9023 15.4629,296.6836 Q14.6367,295.4648 14.6367,293.0859 Z "/><text fill="#000000" font-family="sans-serif" font-size="9" font-style="italic" lengthAdjust="spacingAndGlyphs" textLength="65.25" x="27.1875" y="291.104">«Data Object»</text><text fill="#000000" font-family="sans-serif" font-size="9" lengthAdjust="spacingAndGlyphs" textLength="40.5" x="39.5625" y="301.5806">Compiler</text><line style="stroke: #A80036; stroke-width: 1.125;" x1="5.625" x2="94.125" y1="307.4531" y2="307.4531"/><ellipse cx="13.125" cy="316.3799" fill="none" rx="2.25" ry="2.25" style="stroke: #038048; stroke-width: 0.75;"/><text fill="#000000" font-family="sans-serif" font-size="8.25" lengthAdjust="spacingAndGlyphs" textLength="58.5" x="19.875" y="318.111">name : String</text><ellipse cx="13.125" cy="325.9834" fill="none" rx="2.25" ry="2.25" style="stroke: #038048; stroke-width: 0.75;"/><text fill="#000000" font-family="sans-serif" font-size="8.25" lengthAdjust="spacingAndGlyphs" textLength="66" x="19.875" y="327.7145">version : String</text><ellipse cx="13.125" cy="335.5869" fill="none" rx="2.25" ry="2.25" style="stroke: #038048; stroke-width: 0.75;"/><text fill="#000000" font-family="sans-serif" font-size="8.25" lengthAdjust="spacingAndGlyphs" textLength="70.5" x="19.875" y="337.318">settings : Object</text><line style="stroke: #A80036; stroke-width: 1.125;" x1="5.625" x2="94.125" y1="342.2637" y2="342.2637"/><!--class LinkReference--><rect fill="#FEFECE" filter="url(#f1gd0jz2q5arek)" height="69.2637" id="LinkReference" style="stroke: #A80036; stroke-width: 1.125;" width="136.5" x="53.25" y="717.75"/><ellipse cx="85.425" cy="731.9766" fill="#7CFC00" rx="8.25" ry="8.25" style="stroke: #A80036; stroke-width: 0.75;"/><path d="M85.507,728.6602 Q84.8039,728.6602 84.4816,729.4102 Q84.1594,730.1602 84.1594,731.8359 Q84.1594,733.5117 84.4816,734.2617 Q84.8039,735.0117 85.507,735.0117 Q86.2219,735.0117 86.5441,734.2617 Q86.8664,733.5117 86.8664,731.8359 Q86.8664,730.1602 86.5441,729.4102 Q86.2219,728.6602 85.507,728.6602 Z M82.2492,731.8359 Q82.2492,729.457 83.0754,728.2324 Q83.9016,727.0078 85.507,727.0078 Q87.1242,727.0078 87.9504,728.2324 Q88.7766,729.457 88.7766,731.8359 Q88.7766,734.2148 87.9504,735.4336 Q87.1242,736.6523 85.507,736.6523 Q83.9016,736.6523 83.0754,735.4336 Q82.2492,734.2148 82.2492,731.8359 Z "/><text fill="#000000" font-family="sans-serif" font-size="9" font-style="italic" lengthAdjust="spacingAndGlyphs" textLength="65.25" x="100.95" y="729.854">«Data Object»</text><text fill="#000000" font-family="sans-serif" font-size="9" lengthAdjust="spacingAndGlyphs" textLength="66" x="100.575" y="740.3306">LinkReference</text><line style="stroke: #A80036; stroke-width: 1.125;" x1="54" x2="189" y1="746.2031" y2="746.2031"/><ellipse cx="61.5" cy="755.1299" fill="none" rx="2.25" ry="2.25" style="stroke: #038048; stroke-width: 0.75;"/><text fill="#000000" font-family="sans-serif" font-size="8.25" lengthAdjust="spacingAndGlyphs" textLength="117" x="68.25" y="756.861">offsets: Array&lt;ByteOffset&gt;</text><ellipse cx="61.5" cy="764.7334" fill="none" rx="2.25" ry="2.25" style="stroke: #038048; stroke-width: 0.75;"/><text fill="#000000" font-family="sans-serif" font-size="8.25" lengthAdjust="spacingAndGlyphs" textLength="96" x="68.25" y="766.4645">name: Maybe&lt;String&gt;</text><ellipse cx="61.5" cy="774.3369" fill="none" rx="2.25" ry="2.25" style="stroke: #038048; stroke-width: 0.75;"/><text fill="#000000" font-family="sans-serif" font-size="8.25" lengthAdjust="spacingAndGlyphs" textLength="62.25" x="68.25" y="776.068">length: Integer</text><line style="stroke: #A80036; stroke-width: 1.125;" x1="54" x2="189" y1="781.0137" y2="781.0137"/><!--class SourceMap--><rect fill="#FEFECE" filter="url(#f1gd0jz2q5arek)" height="78.8672" id="SourceMap" style="stroke: #A80036; stroke-width: 1.125;" width="293.25" x="54.5625" y="412.875"/><ellipse cx="166.875" cy="427.1016" fill="#7CFC00" rx="8.25" ry="8.25" style="stroke: #A80036; stroke-width: 0.75;"/><path d="M166.957,423.7852 Q166.2539,423.7852 165.9316,424.5352 Q165.6094,425.2852 165.6094,426.9609 Q165.6094,428.6367 165.9316,429.3867 Q166.2539,430.1367 166.957,430.1367 Q167.6719,430.1367 167.9941,429.3867 Q168.3164,428.6367 168.3164,426.9609 Q168.3164,425.2852 167.9941,424.5352 Q167.6719,423.7852 166.957,423.7852 Z M163.6992,426.9609 Q163.6992,424.582 164.5254,423.3574 Q165.3516,422.1328 166.957,422.1328 Q168.5742,422.1328 169.4004,423.3574 Q170.2266,424.582 170.2266,426.9609 Q170.2266,429.3398 169.4004,430.5586 Q168.5742,431.7773 166.957,431.7773 Q165.3516,431.7773 164.5254,430.5586 Q163.6992,429.3398 163.6992,426.9609 Z "/><text fill="#000000" font-family="sans-serif" font-size="9" font-style="italic" lengthAdjust="spacingAndGlyphs" textLength="65.25" x="180.75" y="424.979">«Data Object»</text><text fill="#000000" font-family="sans-serif" font-size="9" lengthAdjust="spacingAndGlyphs" textLength="52.5" x="187.125" y="435.4556">SourceMap</text><line style="stroke: #A80036; stroke-width: 1.125;" x1="55.3125" x2="347.0625" y1="441.3281" y2="441.3281"/><ellipse cx="62.8125" cy="450.2549" fill="#84BE84" rx="2.25" ry="2.25" style="stroke: #038048; stroke-width: 0.75;"/><text fill="#000000" font-family="sans-serif" font-size="8.25" lengthAdjust="spacingAndGlyphs" textLength="83.25" x="69.5625" y="451.986">bytecode: Bytecode</text><ellipse cx="62.8125" cy="459.8584" fill="#84BE84" rx="2.25" ry="2.25" style="stroke: #038048; stroke-width: 0.75;"/><text fill="#000000" font-family="sans-serif" font-size="8.25" lengthAdjust="spacingAndGlyphs" textLength="273.75" x="69.5625" y="461.5895">instructionSourceRanges(index: Integer): Maybe&lt;SourceRange&gt;</text><line style="stroke: #A80036; stroke-width: 0.75; stroke-dasharray: 1.0,2.0;" x1="55.3125" x2="347.0625" y1="466.5352" y2="466.5352"/><rect fill="none" height="4.5" style="stroke: #C82930; stroke-width: 0.75;" width="4.5" x="60.5625" y="473.2119"/><text fill="#000000" font-family="sans-serif" font-size="8.25" lengthAdjust="spacingAndGlyphs" textLength="94.5" x="69.5625" y="477.193">rawSourceMap: String</text><rect fill="none" height="4.5" style="stroke: #C82930; stroke-width: 0.75;" width="4.5" x="60.5625" y="482.8154"/><text fill="#000000" font-family="sans-serif" font-size="8.25" lengthAdjust="spacingAndGlyphs" textLength="60" x="69.5625" y="486.7965">bytecodeId: ID</text><!--class SourceRange--><rect fill="#FEFECE" filter="url(#f1gd0jz2q5arek)" height="88.4707" id="SourceRange" style="stroke: #A80036; stroke-width: 1.125;" width="90.75" x="374.0625" y="408"/><ellipse cx="387" cy="422.2266" fill="#7CFC00" rx="8.25" ry="8.25" style="stroke: #A80036; stroke-width: 0.75;"/><path d="M387.082,418.9102 Q386.3789,418.9102 386.0566,419.6602 Q385.7344,420.4102 385.7344,422.0859 Q385.7344,423.7617 386.0566,424.5117 Q386.3789,425.2617 387.082,425.2617 Q387.7969,425.2617 388.1191,424.5117 Q388.4414,423.7617 388.4414,422.0859 Q388.4414,420.4102 388.1191,419.6602 Q387.7969,418.9102 387.082,418.9102 Z M383.8242,422.0859 Q383.8242,419.707 384.6504,418.4824 Q385.4766,417.2578 387.082,417.2578 Q388.6992,417.2578 389.5254,418.4824 Q390.3516,419.707 390.3516,422.0859 Q390.3516,424.4648 389.5254,425.6836 Q388.6992,426.9023 387.082,426.9023 Q385.4766,426.9023 384.6504,425.6836 Q383.8242,424.4648 383.8242,422.0859 Z "/><text fill="#000000" font-family="sans-serif" font-size="9" font-style="italic" lengthAdjust="spacingAndGlyphs" textLength="65.25" x="396.75" y="420.104">«Data Object»</text><text fill="#000000" font-family="sans-serif" font-size="9" lengthAdjust="spacingAndGlyphs" textLength="63" x="397.875" y="430.5806">SourceRange</text><line style="stroke: #A80036; stroke-width: 1.125;" x1="374.8125" x2="464.0625" y1="436.4531" y2="436.4531"/><ellipse cx="382.3125" cy="445.3799" fill="none" rx="2.25" ry="2.25" style="stroke: #038048; stroke-width: 0.75;"/><text fill="#000000" font-family="sans-serif" font-size="8.25" lengthAdjust="spacingAndGlyphs" textLength="71.25" x="389.0625" y="447.111">start: ByteOffset</text><ellipse cx="382.3125" cy="454.9834" fill="none" rx="2.25" ry="2.25" style="stroke: #038048; stroke-width: 0.75;"/><text fill="#000000" font-family="sans-serif" font-size="8.25" lengthAdjust="spacingAndGlyphs" textLength="60.75" x="389.0625" y="456.7145">length: Length</text><ellipse cx="382.3125" cy="464.5869" fill="none" rx="2.25" ry="2.25" style="stroke: #038048; stroke-width: 0.75;"/><text fill="#000000" font-family="sans-serif" font-size="8.25" lengthAdjust="spacingAndGlyphs" textLength="54.75" x="389.0625" y="466.318">meta: Object</text><ellipse cx="382.3125" cy="474.1904" fill="#84BE84" rx="2.25" ry="2.25" style="stroke: #038048; stroke-width: 0.75;"/><text fill="#000000" font-family="sans-serif" font-size="8.25" lengthAdjust="spacingAndGlyphs" textLength="65.25" x="389.0625" y="475.9215">source: Source</text><line style="stroke: #A80036; stroke-width: 0.75; stroke-dasharray: 1.0,2.0;" x1="374.8125" x2="464.0625" y1="480.8672" y2="480.8672"/><rect fill="none" height="4.5" style="stroke: #C82930; stroke-width: 0.75;" width="4.5" x="380.0625" y="487.5439"/><text fill="#000000" font-family="sans-serif" font-size="8.25" lengthAdjust="spacingAndGlyphs" textLength="51" x="389.0625" y="491.525">sourceId: ID</text><!--link Instruction to InstructionMeta--><path d="M460.182,581.25 C465.5295,581.25 470.8778,581.25 476.2252,581.25 " fill="none" id="Instruction-InstructionMeta" style="stroke: #A80036; stroke-width: 0.75;"/><polygon fill="#A80036" points="450.2318,581.25,454.7318,584.25,459.2318,581.25,454.7318,578.25,450.2318,581.25" style="stroke: #A80036; stroke-width: 0.75;"/><text fill="#000000" font-family="sans-serif" font-size="9.75" lengthAdjust="spacingAndGlyphs" textLength="6" x="464.3048" y="577.6718">1</text><!--link Instruction to Bytecode--><path d="M370.0838,620.6745 C357.8692,645.3218 341.9528,677.439 328.947,703.683 " fill="none" id="Instruction-Bytecode" style="stroke: #A80036; stroke-width: 0.75;"/><polygon fill="#A80036" points="324.4793,712.6988,329.1652,709.9984,328.4749,704.6343,323.7889,707.3347,324.4793,712.6988" style="stroke: #A80036; stroke-width: 0.75;"/><text fill="#000000" font-family="sans-serif" font-size="9.75" lengthAdjust="spacingAndGlyphs" textLength="6" x="360.2544" y="635.777">n</text><!--link SourceContract to Compilation--><path d="M268.914,218.754 C261.1298,230.43 252.42,243.495 244.0275,256.0838 " fill="none" id="SourceContract-Compilation" style="stroke: #A80036; stroke-width: 0.75;"/><polygon fill="#A80036" points="238.5713,264.2678,243.5636,262.1876,243.5636,256.7793,238.5713,258.8594,238.5713,264.2678" style="stroke: #A80036; stroke-width: 0.75;"/><text fill="#000000" font-family="sans-serif" font-size="9.75" lengthAdjust="spacingAndGlyphs" textLength="6" x="258.1884" y="233.8672">n</text><!--link SourceMap to SourceRange--><path d="M357.4973,452.25 C362.976,452.25 368.454,452.25 373.932,452.25 " fill="none" id="SourceMap-SourceRange" style="stroke: #A80036; stroke-width: 0.75;"/><polygon fill="#A80036" points="347.637,452.25,352.137,455.25,356.637,452.25,352.137,449.25,347.637,452.25" style="stroke: #A80036; stroke-width: 0.75;"/><text fill="#000000" font-family="sans-serif" font-size="9.75" lengthAdjust="spacingAndGlyphs" textLength="6" x="362.1025" y="448.6494">n</text><!--link Contract to Compilation--><path d="M239.7938,104.187 C237.549,115.8098 235.2563,128.0565 233.25,139.5 C225.891,181.4775 218.5058,229.356 213.324,264.1275 " fill="none" id="Contract-Compilation" style="stroke: #A80036; stroke-width: 0.75;"/><polygon fill="#FFFFFF" points="241.6605,94.6027,237.8554,98.4461,239.9396,103.4367,243.7447,99.5934,241.6605,94.6027" style="stroke: #A80036; stroke-width: 0.75;"/><text fill="#000000" font-family="sans-serif" font-size="9.75" lengthAdjust="spacingAndGlyphs" textLength="18" x="194.31" y="256.0511">0..1</text><!--link Contract to SourceContract--><path d="M268.899,104.0145 C273.0705,116.034 277.4243,128.5778 281.343,139.8698 " fill="none" id="Contract-SourceContract" style="stroke: #A80036; stroke-width: 0.75; stroke-dasharray: 7.0,7.0;"/><polygon fill="#FFFFFF" points="265.6043,94.5218,264.2457,99.7567,268.5554,103.0241,269.914,97.7892,265.6043,94.5218" style="stroke: #A80036; stroke-width: 0.75;"/><text fill="#000000" font-family="sans-serif" font-size="9.75" lengthAdjust="spacingAndGlyphs" textLength="6" x="272.6092" y="131.6285">1</text><!--link LinkReference to Bytecode--><path d="M190.047,752.25 C195.5318,752.25 201.0165,752.25 206.5005,752.25 " fill="none" id="LinkReference-Bytecode" style="stroke: #A80036; stroke-width: 0.75;"/><polygon fill="#A80036" points="216.3728,752.25,211.8728,749.25,207.3728,752.25,211.8728,755.25,216.3728,752.25" style="stroke: #A80036; stroke-width: 0.75;"/><text fill="#000000" font-family="sans-serif" font-size="9.75" lengthAdjust="spacingAndGlyphs" textLength="6" x="195.7484" y="748.7856">n</text><!--link SourceContract to Source--><path d="M336.123,226.0568 C351.7283,243.429 369.1792,262.8555 383.6002,278.9085 " fill="none" id="SourceContract-Source" style="stroke: #A80036; stroke-width: 0.75;"/><polygon fill="#FFFFFF" points="329.5628,218.754,330.338,224.1065,335.5769,225.4495,334.8017,220.0971,329.5628,218.754" style="stroke: #A80036; stroke-width: 0.75;"/><text fill="#000000" font-family="sans-serif" font-size="9.75" lengthAdjust="spacingAndGlyphs" textLength="6" x="372.4348" y="270.6993">1</text><!--link Compiler to Compilation--><path d="M94.1985,313.5 C99.8767,313.5 105.5543,313.5 111.2325,313.5 " fill="none" id="Compiler-Compilation" style="stroke: #A80036; stroke-width: 0.75;"/><polygon fill="#A80036" points="121.1168,313.5,116.6168,310.5,112.1168,313.5,116.6168,316.5,121.1168,313.5" style="stroke: #A80036; stroke-width: 0.75;"/><text fill="#000000" font-family="sans-serif" font-size="9.75" lengthAdjust="spacingAndGlyphs" textLength="6" x="100.8534" y="309.6422">1</text><!--link Compilation to Source--><path d="M301.1558,313.5 C309.9225,313.5 318.6893,313.5 327.4568,313.5 " fill="none" id="Compilation-Source" style="stroke: #A80036; stroke-width: 0.75;"/><polygon fill="#FFFFFF" points="291.2573,313.5,295.7573,316.5,300.2573,313.5,295.7573,310.5,291.2573,313.5" style="stroke: #A80036; stroke-width: 0.75;"/><text fill="#000000" font-family="sans-serif" font-size="9.75" lengthAdjust="spacingAndGlyphs" textLength="6" x="315.4686" y="310.1769">n</text><!--link Compilation to SourceMap--><path d="M204.024,372.4342 C203.5028,386.0662 202.9597,400.2615 202.4805,412.7993 " fill="none" id="Compilation-SourceMap" style="stroke: #A80036; stroke-width: 0.75;"/><polygon fill="#A80036" points="204.399,362.6393,201.2296,367.0216,204.0558,371.6327,207.2252,367.2504,204.399,362.6393" style="stroke: #A80036; stroke-width: 0.75;"/><text fill="#000000" font-family="sans-serif" font-size="9.75" lengthAdjust="spacingAndGlyphs" textLength="6" x="195.4464" y="404.5498">n</text><!--link SourceMap to Bytecode--><path d="M217.8248,501.174 C238.401,560.0903 272.8208,658.6455 291.7523,712.851 " fill="none" id="SourceMap-Bytecode" style="stroke: #A80036; stroke-width: 0.75;"/><polygon fill="#FFFFFF" points="214.5218,491.718,213.1736,496.9556,217.4897,500.2145,218.8379,494.9769,214.5218,491.718" style="stroke: #A80036; stroke-width: 0.75;"/><text fill="#000000" font-family="sans-serif" font-size="9.75" lengthAdjust="spacingAndGlyphs" textLength="6" x="282.9863" y="704.6075">1</text><!--link SourceRange to Instruction--><path d="M406.776,506.0145 C403.9478,518.034 400.9965,530.5778 398.3393,541.8698 " fill="none" id="SourceRange-Instruction" style="stroke: #A80036; stroke-width: 0.75;"/><polygon fill="#FFFFFF" points="409.0095,496.5218,405.0587,500.2151,406.9484,505.2826,410.8992,501.5892,409.0095,496.5218" style="stroke: #A80036; stroke-width: 0.75;"/><text fill="#000000" font-family="sans-serif" font-size="9.75" lengthAdjust="spacingAndGlyphs" textLength="6" x="392.2066" y="533.6285">1</text><!--link Source to SourceRange--><path d="M415.2975,348.177 C415.8713,363.1703 416.5598,381.1613 417.1995,397.899 " fill="none" id="Source-SourceRange" style="stroke: #A80036; stroke-width: 0.75;"/><polygon fill="#FFFFFF" points="417.5805,407.8478,420.4062,403.2363,417.2363,398.8543,414.4106,403.4658,417.5805,407.8478" style="stroke: #A80036; stroke-width: 0.75;"/><text fill="#000000" font-family="sans-serif" font-size="9.75" lengthAdjust="spacingAndGlyphs" textLength="6" x="408.1241" y="363.3859">1</text><!--
@startuml
scale 0.75



skinparam defaultMonospacedFontName Andale Mono



    class Contract << (R,darkorange) External Resource >> {
      + name: String
      + abi: ABI
      + {method} compilation: Maybe<Compilation>
      + {method} sourceContract: Maybe<SourceContract>
      + {method} interface: ContractInterface
    }






    class Bytecode << (R,orchid) Resource >> {
      + bytes: Array<Byte>
      + linkReferences : Set<LinkReference>
      + {method} instructions: Array<Instruction>
      ..
      - {field} <&key> ID //= hash(// ""bytes"" //)//
    }

    class Instruction << (O,lawngreen) Data Object >> {
      + programCounter: String
      + opcode: Integer
      + pushData: String
      + meta: InstructionMeta
    }

    class InstructionMeta << (O,lawngreen) Data Object >> {
      + cost: Integer
      + pops: Integer
      + pushes: Integer
      + dynamic: Integer
    }

    Instruction *-right- "1" InstructionMeta
    Instruction "n" - -* Bytecode

    class Source << (R,orchid) Resource >> {
      + contents: String
      + sourcePath: Maybe<String>
      ..
      - {field} <&key> ID //= hash(// ""contents""//,// ""sourcePath"" //)//
    }




    class Compilation << (R,orchid) Resource >> {
      + compiler : Compiler
      + {method} sources : Array<Maybe<Source>>
      + {method} contracts : Array<SourceContract>
      ..
      - {field} <&key> ID //= hash(// ""compiler""//,// ""sourceIds"" //)//
      - sourceIds: Array<Maybe<ID>>
      - contractIds : Array<Maybe<ID>>
    }

  SourceContract "n" - -* Compilation







  class Compiler << (O,lawngreen) Data Object >> {
    + name : String
    + version : String
    + settings : Object
  }




    class LinkReference << (O,lawngreen) Data Object >> {
      + offsets: Array<ByteOffset>
      + name: Maybe<String>
      + length: Integer
    }

    class SourceMap << (O,lawngreen) Data Object >> {
      + {method} bytecode: Bytecode
      + instructionSourceRanges(index: Integer): Maybe<SourceRange>
      ..
      - rawSourceMap: String
      - bytecodeId: ID
    }

    class SourceRange << (O,lawngreen) Data Object >> {
      + start: ByteOffset
      + length: Length
      + meta: Object
      + {method} source: Source
      ..
      - sourceId: ID
    }

    SourceMap *-right- "n" SourceRange


    class SourceContract << (O,lawngreen) Data Object >> {
      + name: String
      + ast: AST
      + {method} source: Source
      ..
      - sourceId: ID
    }








  Contract o- - "0..1" Compilation
  Contract o.. "1" SourceContract



  LinkReference "n" -* Bytecode



  SourceContract o- - "1" Source





  Compilation *-left- "1" Compiler

  Compilation o-right- "n" Source


  Compilation *- - "n" SourceMap



  SourceMap o- - - - "1" Bytecode
  SourceRange o- - "1" Instruction

  Source "1" - -o SourceRange


@enduml

PlantUML version 1.2018.14(Fri Dec 21 16:33:16 UTC 2018)
(GPL source distribution)
Java Runtime: Java(TM) SE Runtime Environment
JVM: Java HotSpot(TM) 64-Bit Server VM
Java Version: 1.8.0_151-b12
Operating System: Linux
OS Version: 4.4.0-101-generic
Default Encoding: UTF-8
Language: en
Country: US
--></g></svg>