<?xml version="1.0" encoding="UTF-8" standalone="no"?><svg xmlns="http://www.w3.org/2000/svg" xmlns:xlink="http://www.w3.org/1999/xlink" contentScriptType="application/ecmascript" contentStyleType="text/css" height="276px" preserveAspectRatio="none" style="width:243px;height:276px;" version="1.1" viewBox="0 0 243 276" width="243px" zoomAndPan="magnify"><defs><filter height="300%" id="fhg86iqb0bwtu" width="300%" x="-1" y="-1"><feGaussianBlur result="blurOut" stdDeviation="2.0"/><feColorMatrix in="blurOut" result="blurOut2" type="matrix" values="0 0 0 0 0 0 0 0 0 0 0 0 0 0 0 0 0 0 .4 0"/><feOffset dx="4.0" dy="4.0" in="blurOut2" result="blurOut3"/><feBlend in="SourceGraphic" in2="blurOut3" mode="normal"/></filter></defs><g><!--class SourceMap--><rect fill="#FEFECE" filter="url(#fhg86iqb0bwtu)" height="92.3516" id="SourceMap" style="stroke: #A80036; stroke-width: 1.5;" width="226" x="6" y="8"/><ellipse cx="79.75" cy="26.9688" fill="#DA70D6" rx="11" ry="11" style="stroke: #A80036; stroke-width: 1.0;"/><path d="M80.9531,27.1094 Q81.3125,27.1875 81.5859,27.4609 Q81.8594,27.7344 82.25,28.5156 L84.4844,32.9688 L81.7969,32.9688 L80.2969,29.8438 Q80.2344,29.7031 80.125,29.4688 Q79.4688,28.0781 78.5781,28.0781 L77.7969,28.0781 L77.7969,32.9688 L75.3594,32.9688 L75.3594,20.5781 L78.8906,20.5781 Q81.2813,20.5781 82.3203,21.4219 Q83.3594,22.2656 83.3594,24.1719 Q83.3594,25.4531 82.7422,26.2109 Q82.125,26.9688 80.9531,27.1094 Z M77.7969,22.6406 L77.7969,26.0156 L78.9531,26.0156 Q79.9688,26.0156 80.3984,25.6172 Q80.8281,25.2188 80.8281,24.3125 Q80.8281,23.4219 80.3984,23.0313 Q79.9688,22.6406 78.9531,22.6406 L77.7969,22.6406 Z "/><text fill="#000000" font-family="sans-serif" font-size="12" font-style="italic" lengthAdjust="spacingAndGlyphs" textLength="72" x="99.25" y="24.1387">«Resource»</text><text fill="#000000" font-family="sans-serif" font-size="12" lengthAdjust="spacingAndGlyphs" textLength="70" x="100.25" y="38.1074">SourceMap</text><line style="stroke: #A80036; stroke-width: 1.5;" x1="7" x2="231" y1="45.9375" y2="45.9375"/><ellipse cx="17" cy="57.8398" fill="none" rx="3" ry="3" style="stroke: #038048; stroke-width: 1.0;"/><text fill="#000000" font-family="sans-serif" font-size="11" lengthAdjust="spacingAndGlyphs" textLength="130" x="26" y="60.1479">rawSourceMap : String</text><ellipse cx="17" cy="70.6445" fill="none" rx="3" ry="3" style="stroke: #038048; stroke-width: 1.0;"/><text fill="#000000" font-family="sans-serif" font-size="11" lengthAdjust="spacingAndGlyphs" textLength="200" x="26" y="72.9526">sources : Array&lt;Maybe&lt;Source&gt;&gt;</text><ellipse cx="17" cy="83.4492" fill="none" rx="3" ry="3" style="stroke: #038048; stroke-width: 1.0;"/><text fill="#000000" font-family="sans-serif" font-size="11" lengthAdjust="spacingAndGlyphs" textLength="115" x="26" y="85.7573">bytecode : Bytecode</text><line style="stroke: #A80036; stroke-width: 1.5;" x1="7" x2="231" y1="92.3516" y2="92.3516"/><!--class SourceRange--><rect fill="#FEFECE" filter="url(#fhg86iqb0bwtu)" height="105.1563" id="SourceRange" style="stroke: #A80036; stroke-width: 1.5;" width="125" x="56.75" y="160.5"/><ellipse cx="75.8" cy="179.4688" fill="#7CFC00" rx="11" ry="11" style="stroke: #A80036; stroke-width: 1.0;"/><path d="M75.9094,175.0469 Q74.9719,175.0469 74.5422,176.0469 Q74.1125,177.0469 74.1125,179.2813 Q74.1125,181.5156 74.5422,182.5156 Q74.9719,183.5156 75.9094,183.5156 Q76.8625,183.5156 77.2922,182.5156 Q77.7219,181.5156 77.7219,179.2813 Q77.7219,177.0469 77.2922,176.0469 Q76.8625,175.0469 75.9094,175.0469 Z M71.5656,179.2813 Q71.5656,176.1094 72.6672,174.4766 Q73.7688,172.8438 75.9094,172.8438 Q78.0656,172.8438 79.1672,174.4766 Q80.2688,176.1094 80.2688,179.2813 Q80.2688,182.4531 79.1672,184.0781 Q78.0656,185.7031 75.9094,185.7031 Q73.7688,185.7031 72.6672,184.0781 Q71.5656,182.4531 71.5656,179.2813 Z "/><text fill="#000000" font-family="sans-serif" font-size="12" font-style="italic" lengthAdjust="spacingAndGlyphs" textLength="87" x="89.2" y="176.6387">«Data Object»</text><text fill="#000000" font-family="sans-serif" font-size="12" lengthAdjust="spacingAndGlyphs" textLength="84" x="90.7" y="190.6074">SourceRange</text><line style="stroke: #A80036; stroke-width: 1.5;" x1="57.75" x2="180.75" y1="198.4375" y2="198.4375"/><ellipse cx="67.75" cy="210.3398" fill="none" rx="3" ry="3" style="stroke: #038048; stroke-width: 1.0;"/><text fill="#000000" font-family="sans-serif" font-size="11" lengthAdjust="spacingAndGlyphs" textLength="91" x="76.75" y="212.6479">source : Source</text><ellipse cx="67.75" cy="223.1445" fill="none" rx="3" ry="3" style="stroke: #038048; stroke-width: 1.0;"/><text fill="#000000" font-family="sans-serif" font-size="11" lengthAdjust="spacingAndGlyphs" textLength="99" x="76.75" y="225.4526">start : ByteOffset</text><ellipse cx="67.75" cy="235.9492" fill="none" rx="3" ry="3" style="stroke: #038048; stroke-width: 1.0;"/><text fill="#000000" font-family="sans-serif" font-size="11" lengthAdjust="spacingAndGlyphs" textLength="85" x="76.75" y="238.2573">length : Length</text><ellipse cx="67.75" cy="248.7539" fill="none" rx="3" ry="3" style="stroke: #038048; stroke-width: 1.0;"/><text fill="#000000" font-family="sans-serif" font-size="11" lengthAdjust="spacingAndGlyphs" textLength="77" x="76.75" y="251.062">meta : Object</text><line style="stroke: #A80036; stroke-width: 1.5;" x1="57.75" x2="180.75" y1="257.6563" y2="257.6563"/><!--link SourceMap to SourceRange--><path d="M119,113.563 C119,128.921 119,145.37 119,160.339 " fill="none" id="SourceMap-SourceRange" style="stroke: #A80036; stroke-width: 1.0;"/><polygon fill="#A80036" points="119,100.411,115,106.411,119,112.411,123,106.411,119,100.411" style="stroke: #A80036; stroke-width: 1.0;"/><text fill="#000000" font-family="sans-serif" font-size="13" lengthAdjust="spacingAndGlyphs" textLength="8" x="109.393" y="149.3328">n</text><!--
@startuml













  class SourceMap << (R,orchid) Resource >> {
    + rawSourceMap : String
    + sources : Array<Maybe<Source>>
    + bytecode : Bytecode
  }

  class SourceRange << (O,lawngreen) Data Object >> {
    + source : Source
    + start : ByteOffset
    + length : Length
    + meta : Object
  }

  SourceMap *- - "n" SourceRange







































@enduml

PlantUML version 1.2018.14(Fri Dec 21 16:33:16 UTC 2018)
(GPL source distribution)
Java Runtime: Java(TM) SE Runtime Environment
JVM: Java HotSpot(TM) 64-Bit Server VM
Java Version: 1.8.0_151-b12
Operating System: Linux
OS Version: 4.4.0-101-generic
Default Encoding: UTF-8
Language: en
Country: US
--></g></svg>