<?xml version="1.0" encoding="UTF-8" standalone="no"?><svg xmlns="http://www.w3.org/2000/svg" xmlns:xlink="http://www.w3.org/1999/xlink" contentScriptType="application/ecmascript" contentStyleType="text/css" height="456px" preserveAspectRatio="none" style="width:942px;height:456px;" version="1.1" viewBox="0 0 942 456" width="942px" zoomAndPan="magnify"><defs><filter height="300%" id="f16l1wi5p29y1i" width="300%" x="-1" y="-1"><feGaussianBlur result="blurOut" stdDeviation="2.0"/><feColorMatrix in="blurOut" result="blurOut2" type="matrix" values="0 0 0 0 0 0 0 0 0 0 0 0 0 0 0 0 0 0 .4 0"/><feOffset dx="4.0" dy="4.0" in="blurOut2" result="blurOut3"/><feBlend in="SourceGraphic" in2="blurOut3" mode="normal"/></filter></defs><g><!--class ContractInterface--><rect fill="#FEFECE" filter="url(#f16l1wi5p29y1i)" height="105.1563" id="ContractInterface" style="stroke: #A80036; stroke-width: 1.5;" width="274" x="327.25" y="8.5"/><ellipse cx="405" cy="27.4688" fill="#DA70D6" rx="11" ry="11" style="stroke: #A80036; stroke-width: 1.0;"/><path d="M406.2031,27.6094 Q406.5625,27.6875 406.8359,27.9609 Q407.1094,28.2344 407.5,29.0156 L409.7344,33.4688 L407.0469,33.4688 L405.5469,30.3438 Q405.4844,30.2031 405.375,29.9688 Q404.7188,28.5781 403.8281,28.5781 L403.0469,28.5781 L403.0469,33.4688 L400.6094,33.4688 L400.6094,21.0781 L404.1406,21.0781 Q406.5313,21.0781 407.5703,21.9219 Q408.6094,22.7656 408.6094,24.6719 Q408.6094,25.9531 407.9922,26.7109 Q407.375,27.4688 406.2031,27.6094 Z M403.0469,23.1406 L403.0469,26.5156 L404.2031,26.5156 Q405.2188,26.5156 405.6484,26.1172 Q406.0781,25.7188 406.0781,24.8125 Q406.0781,23.9219 405.6484,23.5313 Q405.2188,23.1406 404.2031,23.1406 L403.0469,23.1406 Z "/><text fill="#000000" font-family="sans-serif" font-size="12" font-style="italic" lengthAdjust="spacingAndGlyphs" textLength="72" x="444.5" y="24.6387">«Resource»</text><text fill="#000000" font-family="sans-serif" font-size="12" lengthAdjust="spacingAndGlyphs" textLength="110" x="425.5" y="38.6074">ContractInterface</text><line style="stroke: #A80036; stroke-width: 1.5;" x1="328.25" x2="600.25" y1="46.4375" y2="46.4375"/><ellipse cx="338.25" cy="58.3398" fill="none" rx="3" ry="3" style="stroke: #038048; stroke-width: 1.0;"/><text fill="#000000" font-family="sans-serif" font-size="11" lengthAdjust="spacingAndGlyphs" textLength="248" x="347.25" y="60.6479">constructor : Maybe&lt;ConstructorInterface&gt;</text><ellipse cx="338.25" cy="71.1445" fill="none" rx="3" ry="3" style="stroke: #038048; stroke-width: 1.0;"/><text fill="#000000" font-family="sans-serif" font-size="11" lengthAdjust="spacingAndGlyphs" textLength="204" x="347.25" y="73.4526">fallback : Maybe&lt;FallbackInterface&gt;</text><ellipse cx="338.25" cy="83.9492" fill="none" rx="3" ry="3" style="stroke: #038048; stroke-width: 1.0;"/><text fill="#000000" font-family="sans-serif" font-size="11" lengthAdjust="spacingAndGlyphs" textLength="198" x="347.25" y="86.2573">functions : Set&lt;FunctionInterface&gt;</text><ellipse cx="338.25" cy="96.7539" fill="none" rx="3" ry="3" style="stroke: #038048; stroke-width: 1.0;"/><text fill="#000000" font-family="sans-serif" font-size="11" lengthAdjust="spacingAndGlyphs" textLength="168" x="347.25" y="99.062">events : Set&lt;EventInterface&gt;</text><line style="stroke: #A80036; stroke-width: 1.5;" x1="328.25" x2="600.25" y1="105.6563" y2="105.6563"/><!--class ConstructorInterface--><rect fill="#FEFECE" filter="url(#f16l1wi5p29y1i)" height="79.5469" id="ConstructorInterface" style="stroke: #A80036; stroke-width: 1.5;" width="203" x="6" y="187"/><ellipse cx="39.45" cy="205.9688" fill="#7CFC00" rx="11" ry="11" style="stroke: #A80036; stroke-width: 1.0;"/><path d="M39.5594,201.5469 Q38.6219,201.5469 38.1922,202.5469 Q37.7625,203.5469 37.7625,205.7813 Q37.7625,208.0156 38.1922,209.0156 Q38.6219,210.0156 39.5594,210.0156 Q40.5125,210.0156 40.9422,209.0156 Q41.3719,208.0156 41.3719,205.7813 Q41.3719,203.5469 40.9422,202.5469 Q40.5125,201.5469 39.5594,201.5469 Z M35.2156,205.7813 Q35.2156,202.6094 36.3172,200.9766 Q37.4188,199.3438 39.5594,199.3438 Q41.7156,199.3438 42.8172,200.9766 Q43.9188,202.6094 43.9188,205.7813 Q43.9188,208.9531 42.8172,210.5781 Q41.7156,212.2031 39.5594,212.2031 Q37.4188,212.2031 36.3172,210.5781 Q35.2156,208.9531 35.2156,205.7813 Z "/><text fill="#000000" font-family="sans-serif" font-size="12" font-style="italic" lengthAdjust="spacingAndGlyphs" textLength="87" x="79.05" y="203.1387">«Data Object»</text><text fill="#000000" font-family="sans-serif" font-size="12" lengthAdjust="spacingAndGlyphs" textLength="130" x="57.55" y="217.1074">ConstructorInterface</text><line style="stroke: #A80036; stroke-width: 1.5;" x1="7" x2="208" y1="224.9375" y2="224.9375"/><ellipse cx="17" cy="236.8398" fill="none" rx="3" ry="3" style="stroke: #038048; stroke-width: 1.0;"/><text fill="#000000" font-family="sans-serif" font-size="11" lengthAdjust="spacingAndGlyphs" textLength="155" x="26" y="239.1479">inputs : Array&lt;Parameter&gt;</text><ellipse cx="17" cy="249.6445" fill="none" rx="3" ry="3" style="stroke: #038048; stroke-width: 1.0;"/><text fill="#000000" font-family="sans-serif" font-size="11" lengthAdjust="spacingAndGlyphs" textLength="177" x="26" y="251.9526">stateMutability : StateMutability</text><line style="stroke: #A80036; stroke-width: 1.5;" x1="7" x2="208" y1="258.5469" y2="258.5469"/><!--class FallbackInterface--><rect fill="#FEFECE" filter="url(#f16l1wi5p29y1i)" height="66.7422" id="FallbackInterface" style="stroke: #A80036; stroke-width: 1.5;" width="203" x="482" y="193.5"/><ellipse cx="525.8" cy="212.4688" fill="#7CFC00" rx="11" ry="11" style="stroke: #A80036; stroke-width: 1.0;"/><path d="M525.9094,208.0469 Q524.9719,208.0469 524.5422,209.0469 Q524.1125,210.0469 524.1125,212.2813 Q524.1125,214.5156 524.5422,215.5156 Q524.9719,216.5156 525.9094,216.5156 Q526.8625,216.5156 527.2922,215.5156 Q527.7219,214.5156 527.7219,212.2813 Q527.7219,210.0469 527.2922,209.0469 Q526.8625,208.0469 525.9094,208.0469 Z M521.5656,212.2813 Q521.5656,209.1094 522.6672,207.4766 Q523.7688,205.8438 525.9094,205.8438 Q528.0656,205.8438 529.1672,207.4766 Q530.2688,209.1094 530.2688,212.2813 Q530.2688,215.4531 529.1672,217.0781 Q528.0656,218.7031 525.9094,218.7031 Q523.7688,218.7031 522.6672,217.0781 Q521.5656,215.4531 521.5656,212.2813 Z "/><text fill="#000000" font-family="sans-serif" font-size="12" font-style="italic" lengthAdjust="spacingAndGlyphs" textLength="87" x="556.2" y="209.6387">«Data Object»</text><text fill="#000000" font-family="sans-serif" font-size="12" lengthAdjust="spacingAndGlyphs" textLength="107" x="546.2" y="223.6074">FallbackInterface</text><line style="stroke: #A80036; stroke-width: 1.5;" x1="483" x2="684" y1="231.4375" y2="231.4375"/><ellipse cx="493" cy="243.3398" fill="none" rx="3" ry="3" style="stroke: #038048; stroke-width: 1.0;"/><text fill="#000000" font-family="sans-serif" font-size="11" lengthAdjust="spacingAndGlyphs" textLength="177" x="502" y="245.6479">stateMutability : StateMutability</text><line style="stroke: #A80036; stroke-width: 1.5;" x1="483" x2="684" y1="252.2422" y2="252.2422"/><!--class FunctionInterface--><rect fill="#FEFECE" filter="url(#f16l1wi5p29y1i)" height="105.1563" id="FunctionInterface" style="stroke: #A80036; stroke-width: 1.5;" width="203" x="244" y="174.5"/><ellipse cx="286.45" cy="193.4688" fill="#7CFC00" rx="11" ry="11" style="stroke: #A80036; stroke-width: 1.0;"/><path d="M286.5594,189.0469 Q285.6219,189.0469 285.1922,190.0469 Q284.7625,191.0469 284.7625,193.2813 Q284.7625,195.5156 285.1922,196.5156 Q285.6219,197.5156 286.5594,197.5156 Q287.5125,197.5156 287.9422,196.5156 Q288.3719,195.5156 288.3719,193.2813 Q288.3719,191.0469 287.9422,190.0469 Q287.5125,189.0469 286.5594,189.0469 Z M282.2156,193.2813 Q282.2156,190.1094 283.3172,188.4766 Q284.4188,186.8438 286.5594,186.8438 Q288.7156,186.8438 289.8172,188.4766 Q290.9188,190.1094 290.9188,193.2813 Q290.9188,196.4531 289.8172,198.0781 Q288.7156,199.7031 286.5594,199.7031 Q284.4188,199.7031 283.3172,198.0781 Q282.2156,196.4531 282.2156,193.2813 Z "/><text fill="#000000" font-family="sans-serif" font-size="12" font-style="italic" lengthAdjust="spacingAndGlyphs" textLength="87" x="318.05" y="190.6387">«Data Object»</text><text fill="#000000" font-family="sans-serif" font-size="12" lengthAdjust="spacingAndGlyphs" textLength="110" x="306.55" y="204.6074">FunctionInterface</text><line style="stroke: #A80036; stroke-width: 1.5;" x1="245" x2="446" y1="212.4375" y2="212.4375"/><ellipse cx="255" cy="224.3398" fill="none" rx="3" ry="3" style="stroke: #038048; stroke-width: 1.0;"/><text fill="#000000" font-family="sans-serif" font-size="11" lengthAdjust="spacingAndGlyphs" textLength="78" x="264" y="226.6479">name : String</text><ellipse cx="255" cy="237.1445" fill="none" rx="3" ry="3" style="stroke: #038048; stroke-width: 1.0;"/><text fill="#000000" font-family="sans-serif" font-size="11" lengthAdjust="spacingAndGlyphs" textLength="155" x="264" y="239.4526">inputs : Array&lt;Parameter&gt;</text><ellipse cx="255" cy="249.9492" fill="none" rx="3" ry="3" style="stroke: #038048; stroke-width: 1.0;"/><text fill="#000000" font-family="sans-serif" font-size="11" lengthAdjust="spacingAndGlyphs" textLength="163" x="264" y="252.2573">outputs : Array&lt;Parameter&gt;</text><ellipse cx="255" cy="262.7539" fill="none" rx="3" ry="3" style="stroke: #038048; stroke-width: 1.0;"/><text fill="#000000" font-family="sans-serif" font-size="11" lengthAdjust="spacingAndGlyphs" textLength="177" x="264" y="265.062">stateMutability : StateMutability</text><line style="stroke: #A80036; stroke-width: 1.5;" x1="245" x2="446" y1="271.6563" y2="271.6563"/><!--class EventInterface--><rect fill="#FEFECE" filter="url(#f16l1wi5p29y1i)" height="92.3516" id="EventInterface" style="stroke: #A80036; stroke-width: 1.5;" width="212" x="719.75" y="181"/><ellipse cx="776" cy="199.9688" fill="#7CFC00" rx="11" ry="11" style="stroke: #A80036; stroke-width: 1.0;"/><path d="M776.1094,195.5469 Q775.1719,195.5469 774.7422,196.5469 Q774.3125,197.5469 774.3125,199.7813 Q774.3125,202.0156 774.7422,203.0156 Q775.1719,204.0156 776.1094,204.0156 Q777.0625,204.0156 777.4922,203.0156 Q777.9219,202.0156 777.9219,199.7813 Q777.9219,197.5469 777.4922,196.5469 Q777.0625,195.5469 776.1094,195.5469 Z M771.7656,199.7813 Q771.7656,196.6094 772.8672,194.9766 Q773.9688,193.3438 776.1094,193.3438 Q778.2656,193.3438 779.3672,194.9766 Q780.4688,196.6094 780.4688,199.7813 Q780.4688,202.9531 779.3672,204.5781 Q778.2656,206.2031 776.1094,206.2031 Q773.9688,206.2031 772.8672,204.5781 Q771.7656,202.9531 771.7656,199.7813 Z "/><text fill="#000000" font-family="sans-serif" font-size="12" font-style="italic" lengthAdjust="spacingAndGlyphs" textLength="87" x="798.5" y="197.1387">«Data Object»</text><text fill="#000000" font-family="sans-serif" font-size="12" lengthAdjust="spacingAndGlyphs" textLength="91" x="796.5" y="211.1074">EventInterface</text><line style="stroke: #A80036; stroke-width: 1.5;" x1="720.75" x2="930.75" y1="218.9375" y2="218.9375"/><ellipse cx="730.75" cy="230.8398" fill="none" rx="3" ry="3" style="stroke: #038048; stroke-width: 1.0;"/><text fill="#000000" font-family="sans-serif" font-size="11" lengthAdjust="spacingAndGlyphs" textLength="78" x="739.75" y="233.1479">name : String</text><ellipse cx="730.75" cy="243.6445" fill="none" rx="3" ry="3" style="stroke: #038048; stroke-width: 1.0;"/><text fill="#000000" font-family="sans-serif" font-size="11" lengthAdjust="spacingAndGlyphs" textLength="186" x="739.75" y="245.9526">inputs : Array&lt;EventParameter&gt;</text><ellipse cx="730.75" cy="256.4492" fill="none" rx="3" ry="3" style="stroke: #038048; stroke-width: 1.0;"/><text fill="#000000" font-family="sans-serif" font-size="11" lengthAdjust="spacingAndGlyphs" textLength="124" x="739.75" y="258.7573">anonymous : Boolean</text><line style="stroke: #A80036; stroke-width: 1.5;" x1="720.75" x2="930.75" y1="265.3516" y2="265.3516"/><!--class Parameter--><rect fill="#FEFECE" filter="url(#f16l1wi5p29y1i)" height="79.5469" id="Parameter" style="stroke: #A80036; stroke-width: 1.5;" width="115" x="91" y="353"/><ellipse cx="106" cy="371.9688" fill="#7CFC00" rx="11" ry="11" style="stroke: #A80036; stroke-width: 1.0;"/><path d="M106.1094,367.5469 Q105.1719,367.5469 104.7422,368.5469 Q104.3125,369.5469 104.3125,371.7813 Q104.3125,374.0156 104.7422,375.0156 Q105.1719,376.0156 106.1094,376.0156 Q107.0625,376.0156 107.4922,375.0156 Q107.9219,374.0156 107.9219,371.7813 Q107.9219,369.5469 107.4922,368.5469 Q107.0625,367.5469 106.1094,367.5469 Z M101.7656,371.7813 Q101.7656,368.6094 102.8672,366.9766 Q103.9688,365.3438 106.1094,365.3438 Q108.2656,365.3438 109.3672,366.9766 Q110.4688,368.6094 110.4688,371.7813 Q110.4688,374.9531 109.3672,376.5781 Q108.2656,378.2031 106.1094,378.2031 Q103.9688,378.2031 102.8672,376.5781 Q101.7656,374.9531 101.7656,371.7813 Z "/><text fill="#000000" font-family="sans-serif" font-size="12" font-style="italic" lengthAdjust="spacingAndGlyphs" textLength="87" x="118" y="369.1387">«Data Object»</text><text fill="#000000" font-family="sans-serif" font-size="12" lengthAdjust="spacingAndGlyphs" textLength="66" x="128.5" y="383.1074">Parameter</text><line style="stroke: #A80036; stroke-width: 1.5;" x1="92" x2="205" y1="390.9375" y2="390.9375"/><ellipse cx="102" cy="402.8398" fill="none" rx="3" ry="3" style="stroke: #038048; stroke-width: 1.0;"/><text fill="#000000" font-family="sans-serif" font-size="11" lengthAdjust="spacingAndGlyphs" textLength="78" x="111" y="405.1479">name : String</text><ellipse cx="102" cy="415.6445" fill="none" rx="3" ry="3" style="stroke: #038048; stroke-width: 1.0;"/><text fill="#000000" font-family="sans-serif" font-size="11" lengthAdjust="spacingAndGlyphs" textLength="63" x="111" y="417.9526">type : Type</text><line style="stroke: #A80036; stroke-width: 1.5;" x1="92" x2="205" y1="424.5469" y2="424.5469"/><!--class EventParameter--><rect fill="#FEFECE" filter="url(#f16l1wi5p29y1i)" height="92.3516" id="EventParameter" style="stroke: #A80036; stroke-width: 1.5;" width="133" x="759" y="347"/><ellipse cx="774" cy="365.9688" fill="#7CFC00" rx="11" ry="11" style="stroke: #A80036; stroke-width: 1.0;"/><path d="M774.1094,361.5469 Q773.1719,361.5469 772.7422,362.5469 Q772.3125,363.5469 772.3125,365.7813 Q772.3125,368.0156 772.7422,369.0156 Q773.1719,370.0156 774.1094,370.0156 Q775.0625,370.0156 775.4922,369.0156 Q775.9219,368.0156 775.9219,365.7813 Q775.9219,363.5469 775.4922,362.5469 Q775.0625,361.5469 774.1094,361.5469 Z M769.7656,365.7813 Q769.7656,362.6094 770.8672,360.9766 Q771.9688,359.3438 774.1094,359.3438 Q776.2656,359.3438 777.3672,360.9766 Q778.4688,362.6094 778.4688,365.7813 Q778.4688,368.9531 777.3672,370.5781 Q776.2656,372.2031 774.1094,372.2031 Q771.9688,372.2031 770.8672,370.5781 Q769.7656,368.9531 769.7656,365.7813 Z "/><text fill="#000000" font-family="sans-serif" font-size="12" font-style="italic" lengthAdjust="spacingAndGlyphs" textLength="87" x="795" y="363.1387">«Data Object»</text><text fill="#000000" font-family="sans-serif" font-size="12" lengthAdjust="spacingAndGlyphs" textLength="101" x="788" y="377.1074">EventParameter</text><line style="stroke: #A80036; stroke-width: 1.5;" x1="760" x2="891" y1="384.9375" y2="384.9375"/><ellipse cx="770" cy="396.8398" fill="none" rx="3" ry="3" style="stroke: #038048; stroke-width: 1.0;"/><text fill="#000000" font-family="sans-serif" font-size="11" lengthAdjust="spacingAndGlyphs" textLength="78" x="779" y="399.1479">name : String</text><ellipse cx="770" cy="409.6445" fill="none" rx="3" ry="3" style="stroke: #038048; stroke-width: 1.0;"/><text fill="#000000" font-family="sans-serif" font-size="11" lengthAdjust="spacingAndGlyphs" textLength="63" x="779" y="411.9526">type : Type</text><ellipse cx="770" cy="422.4492" fill="none" rx="3" ry="3" style="stroke: #038048; stroke-width: 1.0;"/><text fill="#000000" font-family="sans-serif" font-size="11" lengthAdjust="spacingAndGlyphs" textLength="102" x="779" y="424.7573">indexed : Boolean</text><line style="stroke: #A80036; stroke-width: 1.5;" x1="760" x2="891" y1="431.3516" y2="431.3516"/><!--class StateMutability--><rect fill="#FEFECE" filter="url(#f16l1wi5p29y1i)" height="105.1563" id="StateMutability" style="stroke: #A80036; stroke-width: 1.5;" width="125" x="283" y="340.5"/><ellipse cx="298" cy="359.4688" fill="#FFFF00" rx="11" ry="11" style="stroke: #A80036; stroke-width: 1.0;"/><path d="M302.1094,365.4688 L294.3906,365.4688 L294.3906,353.0781 L302.1094,353.0781 L302.1094,355.2344 L296.8438,355.2344 L296.8438,357.9063 L301.6094,357.9063 L301.6094,360.0625 L296.8438,360.0625 L296.8438,363.3125 L302.1094,363.3125 L302.1094,365.4688 Z "/><text fill="#000000" font-family="sans-serif" font-size="12" font-style="italic" lengthAdjust="spacingAndGlyphs" textLength="49" x="334" y="356.6387">«Enum»</text><text fill="#000000" font-family="sans-serif" font-size="12" lengthAdjust="spacingAndGlyphs" textLength="93" x="312" y="370.6074">StateMutability</text><line style="stroke: #A80036; stroke-width: 1.5;" x1="284" x2="407" y1="378.4375" y2="378.4375"/><ellipse cx="294" cy="390.3398" fill="none" rx="3" ry="3" style="stroke: #038048; stroke-width: 1.0;"/><text fill="#000000" font-family="sans-serif" font-size="11" lengthAdjust="spacingAndGlyphs" textLength="26" x="303" y="392.6479">pure</text><ellipse cx="294" cy="403.1445" fill="none" rx="3" ry="3" style="stroke: #038048; stroke-width: 1.0;"/><text fill="#000000" font-family="sans-serif" font-size="11" lengthAdjust="spacingAndGlyphs" textLength="25" x="303" y="405.4526">view</text><ellipse cx="294" cy="415.9492" fill="none" rx="3" ry="3" style="stroke: #038048; stroke-width: 1.0;"/><text fill="#000000" font-family="sans-serif" font-size="11" lengthAdjust="spacingAndGlyphs" textLength="65" x="303" y="418.2573">nonpayable</text><ellipse cx="294" cy="428.7539" fill="none" rx="3" ry="3" style="stroke: #038048; stroke-width: 1.0;"/><text fill="#000000" font-family="sans-serif" font-size="11" lengthAdjust="spacingAndGlyphs" textLength="44" x="303" y="431.062">payable</text><line style="stroke: #A80036; stroke-width: 1.5;" x1="284" x2="407" y1="437.6563" y2="437.6563"/><!--link ContractInterface to ContractInterface--><path d="M614.092,36.283 C627.696,41.426 636.25,49.665 636.25,61 C636.25,75.509 622.235,84.945 601.554,89.309 " fill="none" id="ContractInterface-ContractInterface" style="stroke: #A80036; stroke-width: 1.0;"/><polygon fill="#FFFFFF" points="601.554,32.691,606.2204,38.1887,613.09,35.9957,608.4236,30.498,601.554,32.691" style="stroke: #A80036; stroke-width: 1.0;"/><text fill="#000000" font-family="sans-serif" font-size="13" lengthAdjust="spacingAndGlyphs" textLength="8" x="609.2816" y="86.4586">n</text><!--link ContractInterface to ConstructorInterface--><path d="M339.85,119.147 C291.081,141.551 236.361,166.688 192.253,186.951 " fill="none" id="ContractInterface-ConstructorInterface" style="stroke: #A80036; stroke-width: 1.0;"/><polygon fill="#A80036" points="351.783,113.666,344.661,112.5361,340.8787,118.6757,348.0008,119.8056,351.783,113.666" style="stroke: #A80036; stroke-width: 1.0;"/><text fill="#000000" font-family="sans-serif" font-size="13" lengthAdjust="spacingAndGlyphs" textLength="24" x="177.7917" y="175.9303">0..1</text><!--link ContractInterface to FallbackInterface--><path d="M509.548,124.427 C526.484,147.768 545.05,173.355 559.312,193.009 " fill="none" id="ContractInterface-FallbackInterface" style="stroke: #A80036; stroke-width: 1.0;"/><polygon fill="#A80036" points="501.902,113.891,502.1888,121.0964,508.9503,123.603,508.6634,116.3976,501.902,113.891" style="stroke: #A80036; stroke-width: 1.0;"/><text fill="#000000" font-family="sans-serif" font-size="13" lengthAdjust="spacingAndGlyphs" textLength="24" x="528.3852" y="182.335">0..1</text><!--link ContractInterface to FunctionInterface--><path d="M418.876,124.532 C406.915,141.016 394.146,158.614 382.657,174.447 " fill="none" id="ContractInterface-FunctionInterface" style="stroke: #A80036; stroke-width: 1.0;"/><polygon fill="#A80036" points="426.598,113.891,419.8366,116.3976,419.5497,123.603,426.3112,121.0964,426.598,113.891" style="stroke: #A80036; stroke-width: 1.0;"/><text fill="#000000" font-family="sans-serif" font-size="13" lengthAdjust="spacingAndGlyphs" textLength="8" x="377.3752" y="163.4533">n</text><!--link ContractInterface to EventInterface--><path d="M590.096,119.171 C634.642,139.408 684.09,161.872 726.103,180.958 " fill="none" id="ContractInterface-EventInterface" style="stroke: #A80036; stroke-width: 1.0;"/><polygon fill="#A80036" points="577.977,113.666,581.7852,119.7896,588.9023,118.6295,585.0942,112.506,577.977,113.666" style="stroke: #A80036; stroke-width: 1.0;"/><text fill="#000000" font-family="sans-serif" font-size="13" lengthAdjust="spacingAndGlyphs" textLength="8" x="703.6951" y="170.0227">n</text><!--link ConstructorInterface to Parameter--><path d="M120.231,279.925 C126.126,303.503 132.983,330.933 138.439,352.7546 " fill="none" id="ConstructorInterface-Parameter" style="stroke: #A80036; stroke-width: 1.0;"/><polygon fill="#A80036" points="117.071,267.282,114.6462,274.0732,119.9824,278.9235,122.4072,272.1323,117.071,267.282" style="stroke: #A80036; stroke-width: 1.0;"/><text fill="#000000" font-family="sans-serif" font-size="13" lengthAdjust="spacingAndGlyphs" textLength="8" x="127.321" y="342.0083">n</text><!--link ConstructorInterface to StateMutability--><path d="M174.708,274.484 C208.635,297.862 249.49,326.014 282.706,348.9026 " fill="none" id="ConstructorInterface-StateMutability" style="stroke: #A80036; stroke-width: 1.0;"/><polygon fill="#A80036" points="163.955,267.074,166.6265,273.772,173.8368,273.8821,171.1653,267.1841,163.955,267.074" style="stroke: #A80036; stroke-width: 1.0;"/><text fill="#000000" font-family="sans-serif" font-size="13" lengthAdjust="spacingAndGlyphs" textLength="8" x="267.0325" y="339.7912">1</text><!--link FallbackInterface to StateMutability--><path d="M524.789,268.284 C489.299,292.739 444.017,323.942 407.808,348.8929 " fill="none" id="FallbackInterface-StateMutability" style="stroke: #A80036; stroke-width: 1.0;"/><polygon fill="#A80036" points="535.944,260.597,528.7337,260.7076,526.0626,267.4057,533.2729,267.2951,535.944,260.597" style="stroke: #A80036; stroke-width: 1.0;"/><text fill="#000000" font-family="sans-serif" font-size="13" lengthAdjust="spacingAndGlyphs" textLength="8" x="415.8893" y="338.547">1</text><!--link FunctionInterface to Parameter--><path d="M273.021,288.13 C247.095,309.713 218.55,333.476 195.313,352.8205 " fill="none" id="FunctionInterface-Parameter" style="stroke: #A80036; stroke-width: 1.0;"/><polygon fill="#A80036" points="283.188,279.666,276.0175,280.4304,273.9652,287.3433,281.1357,286.5789,283.188,279.666" style="stroke: #A80036; stroke-width: 1.0;"/><text fill="#000000" font-family="sans-serif" font-size="13" lengthAdjust="spacingAndGlyphs" textLength="8" x="192.193" y="342.0836">n</text><!--link FunctionInterface to StateMutability--><path d="M345.25,292.894 C345.25,308.688 345.25,325.368 345.25,340.447 " fill="none" id="FunctionInterface-StateMutability" style="stroke: #A80036; stroke-width: 1.0;"/><polygon fill="#A80036" points="345.25,279.891,341.25,285.891,345.25,291.891,349.25,285.891,345.25,279.891" style="stroke: #A80036; stroke-width: 1.0;"/><text fill="#000000" font-family="sans-serif" font-size="13" lengthAdjust="spacingAndGlyphs" textLength="8" x="335.643" y="329.4533">1</text><!--link EventInterface to EventParameter--><path d="M825.25,286.314 C825.25,306.23 825.25,328.185 825.25,346.8998 " fill="none" id="EventInterface-EventParameter" style="stroke: #A80036; stroke-width: 1.0;"/><polygon fill="#A80036" points="825.25,273.248,821.25,279.248,825.25,285.248,829.25,279.248,825.25,273.248" style="stroke: #A80036; stroke-width: 1.0;"/><text fill="#000000" font-family="sans-serif" font-size="13" lengthAdjust="spacingAndGlyphs" textLength="8" x="815.5773" y="335.9573">n</text><!--
@startuml






  class ContractInterface << (R,orchid) Resource >> {
    + constructor : Maybe<ConstructorInterface>
    + fallback : Maybe<FallbackInterface>
    + functions : Set<FunctionInterface>
    + events : Set<EventInterface>
  }

  ContractInterface o- - "n" ContractInterface

    class ConstructorInterface << (O,lawngreen) Data Object >> {
      + inputs : Array<Parameter>
      + stateMutability : StateMutability
    }

    class FallbackInterface << (O,lawngreen) Data Object >> {
      + stateMutability : StateMutability
    }

    class FunctionInterface << (O,lawngreen) Data Object >> {
      + name : String
      + inputs : Array<Parameter>
      + outputs : Array<Parameter>
      + stateMutability : StateMutability
    }

    class EventInterface << (O,lawngreen) Data Object >> {
      + name : String
      + inputs : Array<EventParameter>
      + anonymous : Boolean
    }

    ContractInterface *- - "0..1" ConstructorInterface
    ContractInterface *- - "0..1" FallbackInterface
    ContractInterface *- - "n" FunctionInterface
    ContractInterface *- - "n" EventInterface

    class Parameter << (O,lawngreen) Data Object >> {
      + name : String
      + type : Type
    }

    class EventParameter << (O,lawngreen) Data Object >> {
      + name : String
      + type : Type
      + indexed : Boolean
    }

    class StateMutability << (E,yellow) Enum >> {
      + pure
      + view
      + nonpayable
      + payable
    }

    ConstructorInterface *- - "n" Parameter
    ConstructorInterface *- - "1" StateMutability

    FallbackInterface *- - "1" StateMutability

    FunctionInterface *- - "n" Parameter
    FunctionInterface *- - "1" StateMutability

    EventInterface *- - "n" EventParameter














































@enduml

PlantUML version 1.2018.14(Fri Dec 21 16:33:16 UTC 2018)
(GPL source distribution)
Java Runtime: Java(TM) SE Runtime Environment
JVM: Java HotSpot(TM) 64-Bit Server VM
Java Version: 1.8.0_151-b12
Operating System: Linux
OS Version: 4.4.0-101-generic
Default Encoding: UTF-8
Language: en
Country: US
--></g></svg>