<?xml version="1.0" encoding="UTF-8" standalone="no"?><svg xmlns="http://www.w3.org/2000/svg" xmlns:xlink="http://www.w3.org/1999/xlink" contentScriptType="application/ecmascript" contentStyleType="text/css" height="290px" preserveAspectRatio="none" style="width:774px;height:290px;" version="1.1" viewBox="0 0 774 290" width="774px" zoomAndPan="magnify"><defs><filter height="300%" id="f1odbvm1zvzpp0" width="300%" x="-1" y="-1"><feGaussianBlur result="blurOut" stdDeviation="2.0"/><feColorMatrix in="blurOut" result="blurOut2" type="matrix" values="0 0 0 0 0 0 0 0 0 0 0 0 0 0 0 0 0 0 .4 0"/><feOffset dx="4.0" dy="4.0" in="blurOut2" result="blurOut3"/><feBlend in="SourceGraphic" in2="blurOut3" mode="normal"/></filter></defs><g><!--class ContractInstance--><rect fill="#FEFECE" filter="url(#f1odbvm1zvzpp0)" height="130.7656" id="ContractInstance" style="stroke: #A80036; stroke-width: 1.5;" width="228" x="6" y="8.5"/><ellipse cx="61.75" cy="27.4688" fill="#DA70D6" rx="11" ry="11" style="stroke: #A80036; stroke-width: 1.0;"/><path d="M62.9531,27.6094 Q63.3125,27.6875 63.5859,27.9609 Q63.8594,28.2344 64.25,29.0156 L66.4844,33.4688 L63.7969,33.4688 L62.2969,30.3438 Q62.2344,30.2031 62.125,29.9688 Q61.4688,28.5781 60.5781,28.5781 L59.7969,28.5781 L59.7969,33.4688 L57.3594,33.4688 L57.3594,21.0781 L60.8906,21.0781 Q63.2813,21.0781 64.3203,21.9219 Q65.3594,22.7656 65.3594,24.6719 Q65.3594,25.9531 64.7422,26.7109 Q64.125,27.4688 62.9531,27.6094 Z M59.7969,23.1406 L59.7969,26.5156 L60.9531,26.5156 Q61.9688,26.5156 62.3984,26.1172 Q62.8281,25.7188 62.8281,24.8125 Q62.8281,23.9219 62.3984,23.5313 Q61.9688,23.1406 60.9531,23.1406 L59.7969,23.1406 Z "/><text fill="#000000" font-family="sans-serif" font-size="12" font-style="italic" lengthAdjust="spacingAndGlyphs" textLength="72" x="100.25" y="24.6387">«Resource»</text><text fill="#000000" font-family="sans-serif" font-size="12" lengthAdjust="spacingAndGlyphs" textLength="108" x="82.25" y="38.6074">ContractInstance</text><line style="stroke: #A80036; stroke-width: 1.5;" x1="7" x2="233" y1="46.4375" y2="46.4375"/><ellipse cx="17" cy="58.3398" fill="none" rx="3" ry="3" style="stroke: #038048; stroke-width: 1.0;"/><text fill="#000000" font-family="sans-serif" font-size="11" lengthAdjust="spacingAndGlyphs" textLength="106" x="26" y="60.6479">address : Address</text><ellipse cx="17" cy="71.1445" fill="none" rx="3" ry="3" style="stroke: #038048; stroke-width: 1.0;"/><text fill="#000000" font-family="sans-serif" font-size="11" lengthAdjust="spacingAndGlyphs" textLength="103" x="26" y="73.4526">network : Network</text><ellipse cx="17" cy="83.9492" fill="none" rx="3" ry="3" style="stroke: #038048; stroke-width: 1.0;"/><text fill="#000000" font-family="sans-serif" font-size="11" lengthAdjust="spacingAndGlyphs" textLength="202" x="26" y="86.2573">creation : ContractInstanceCreation</text><ellipse cx="17" cy="96.7539" fill="none" rx="3" ry="3" style="stroke: #038048; stroke-width: 1.0;"/><text fill="#000000" font-family="sans-serif" font-size="11" lengthAdjust="spacingAndGlyphs" textLength="106" x="26" y="99.062">contract : Contract</text><ellipse cx="17" cy="109.5586" fill="none" rx="3" ry="3" style="stroke: #038048; stroke-width: 1.0;"/><text fill="#000000" font-family="sans-serif" font-size="11" lengthAdjust="spacingAndGlyphs" textLength="171" x="26" y="111.8667">callBytecode : LinkedBytecode</text><ellipse cx="17" cy="122.3633" fill="none" rx="3" ry="3" style="stroke: #038048; stroke-width: 1.0;"/><text fill="#000000" font-family="sans-serif" font-size="11" lengthAdjust="spacingAndGlyphs" textLength="159" x="26" y="124.6714">linkValues : Set&lt;LinkValue&gt;</text><line style="stroke: #A80036; stroke-width: 1.5;" x1="7" x2="233" y1="131.2656" y2="131.2656"/><!--class ContractInstanceCreation--><rect fill="#FEFECE" filter="url(#f1odbvm1zvzpp0)" height="92.3516" id="ContractInstanceCreation" style="stroke: #A80036; stroke-width: 1.5;" width="266" x="269" y="28"/><ellipse cx="317.25" cy="46.9688" fill="#7CFC00" rx="11" ry="11" style="stroke: #A80036; stroke-width: 1.0;"/><path d="M317.3594,42.5469 Q316.4219,42.5469 315.9922,43.5469 Q315.5625,44.5469 315.5625,46.7813 Q315.5625,49.0156 315.9922,50.0156 Q316.4219,51.0156 317.3594,51.0156 Q318.3125,51.0156 318.7422,50.0156 Q319.1719,49.0156 319.1719,46.7813 Q319.1719,44.5469 318.7422,43.5469 Q318.3125,42.5469 317.3594,42.5469 Z M313.0156,46.7813 Q313.0156,43.6094 314.1172,41.9766 Q315.2188,40.3438 317.3594,40.3438 Q319.5156,40.3438 320.6172,41.9766 Q321.7188,43.6094 321.7188,46.7813 Q321.7188,49.9531 320.6172,51.5781 Q319.5156,53.2031 317.3594,53.2031 Q315.2188,53.2031 314.1172,51.5781 Q313.0156,49.9531 313.0156,46.7813 Z "/><text fill="#000000" font-family="sans-serif" font-size="12" font-style="italic" lengthAdjust="spacingAndGlyphs" textLength="87" x="374.75" y="44.1387">«Data Object»</text><text fill="#000000" font-family="sans-serif" font-size="12" lengthAdjust="spacingAndGlyphs" textLength="161" x="337.75" y="58.1074">ContractInstanceCreation</text><line style="stroke: #A80036; stroke-width: 1.5;" x1="270" x2="534" y1="65.9375" y2="65.9375"/><ellipse cx="280" cy="77.8398" fill="none" rx="3" ry="3" style="stroke: #038048; stroke-width: 1.0;"/><text fill="#000000" font-family="sans-serif" font-size="11" lengthAdjust="spacingAndGlyphs" textLength="201" x="289" y="80.1479">transactionHash : TransactionHash</text><ellipse cx="280" cy="90.6445" fill="none" rx="3" ry="3" style="stroke: #038048; stroke-width: 1.0;"/><text fill="#000000" font-family="sans-serif" font-size="11" lengthAdjust="spacingAndGlyphs" textLength="240" x="289" y="92.9526">contractConstructor : ContractConstructor</text><ellipse cx="280" cy="103.4492" fill="none" rx="3" ry="3" style="stroke: #038048; stroke-width: 1.0;"/><text fill="#000000" font-family="sans-serif" font-size="11" lengthAdjust="spacingAndGlyphs" textLength="182" x="289" y="105.7573">constructorArgs : Array&lt;Value&gt;</text><line style="stroke: #A80036; stroke-width: 1.5;" x1="270" x2="534" y1="112.3516" y2="112.3516"/><!--class LinkValue--><rect fill="#FEFECE" filter="url(#f1odbvm1zvzpp0)" height="79.5469" id="LinkValue" style="stroke: #A80036; stroke-width: 1.5;" width="193" x="570.75" y="34"/><ellipse cx="621.5" cy="52.9688" fill="#7CFC00" rx="11" ry="11" style="stroke: #A80036; stroke-width: 1.0;"/><path d="M621.6094,48.5469 Q620.6719,48.5469 620.2422,49.5469 Q619.8125,50.5469 619.8125,52.7813 Q619.8125,55.0156 620.2422,56.0156 Q620.6719,57.0156 621.6094,57.0156 Q622.5625,57.0156 622.9922,56.0156 Q623.4219,55.0156 623.4219,52.7813 Q623.4219,50.5469 622.9922,49.5469 Q622.5625,48.5469 621.6094,48.5469 Z M617.2656,52.7813 Q617.2656,49.6094 618.3672,47.9766 Q619.4688,46.3438 621.6094,46.3438 Q623.7656,46.3438 624.8672,47.9766 Q625.9688,49.6094 625.9688,52.7813 Q625.9688,55.9531 624.8672,57.5781 Q623.7656,59.2031 621.6094,59.2031 Q619.4688,59.2031 618.3672,57.5781 Q617.2656,55.9531 617.2656,52.7813 Z "/><text fill="#000000" font-family="sans-serif" font-size="12" font-style="italic" lengthAdjust="spacingAndGlyphs" textLength="87" x="640" y="50.1387">«Data Object»</text><text fill="#000000" font-family="sans-serif" font-size="12" lengthAdjust="spacingAndGlyphs" textLength="59" x="654" y="64.1074">LinkValue</text><line style="stroke: #A80036; stroke-width: 1.5;" x1="571.75" x2="762.75" y1="71.9375" y2="71.9375"/><ellipse cx="581.75" cy="83.8398" fill="none" rx="3" ry="3" style="stroke: #038048; stroke-width: 1.0;"/><text fill="#000000" font-family="sans-serif" font-size="11" lengthAdjust="spacingAndGlyphs" textLength="167" x="590.75" y="86.1479">linkReference : LinkReference</text><ellipse cx="581.75" cy="96.6445" fill="none" rx="3" ry="3" style="stroke: #038048; stroke-width: 1.0;"/><text fill="#000000" font-family="sans-serif" font-size="11" lengthAdjust="spacingAndGlyphs" textLength="74" x="590.75" y="98.9526">value : Bytes</text><line style="stroke: #A80036; stroke-width: 1.5;" x1="571.75" x2="762.75" y1="105.5469" y2="105.5469"/><!--class LinkReference--><rect fill="#FEFECE" filter="url(#f1odbvm1zvzpp0)" height="79.5469" id="LinkReference" style="stroke: #A80036; stroke-width: 1.5;" width="186" x="574.5" y="200"/><ellipse cx="619.25" cy="218.9688" fill="#7CFC00" rx="11" ry="11" style="stroke: #A80036; stroke-width: 1.0;"/><path d="M619.3594,214.5469 Q618.4219,214.5469 617.9922,215.5469 Q617.5625,216.5469 617.5625,218.7813 Q617.5625,221.0156 617.9922,222.0156 Q618.4219,223.0156 619.3594,223.0156 Q620.3125,223.0156 620.7422,222.0156 Q621.1719,221.0156 621.1719,218.7813 Q621.1719,216.5469 620.7422,215.5469 Q620.3125,214.5469 619.3594,214.5469 Z M615.0156,218.7813 Q615.0156,215.6094 616.1172,213.9766 Q617.2188,212.3438 619.3594,212.3438 Q621.5156,212.3438 622.6172,213.9766 Q623.7188,215.6094 623.7188,218.7813 Q623.7188,221.9531 622.6172,223.5781 Q621.5156,225.2031 619.3594,225.2031 Q617.2188,225.2031 616.1172,223.5781 Q615.0156,221.9531 615.0156,218.7813 Z "/><text fill="#000000" font-family="sans-serif" font-size="12" font-style="italic" lengthAdjust="spacingAndGlyphs" textLength="87" x="640.25" y="216.1387">«Data Object»</text><text fill="#000000" font-family="sans-serif" font-size="12" lengthAdjust="spacingAndGlyphs" textLength="88" x="639.75" y="230.1074">LinkReference</text><line style="stroke: #A80036; stroke-width: 1.5;" x1="575.5" x2="759.5" y1="237.9375" y2="237.9375"/><ellipse cx="585.5" cy="249.8398" fill="none" rx="3" ry="3" style="stroke: #038048; stroke-width: 1.0;"/><text fill="#000000" font-family="sans-serif" font-size="11" lengthAdjust="spacingAndGlyphs" textLength="160" x="594.5" y="252.1479">offsets : Array&lt;ByteOffset&gt;</text><ellipse cx="585.5" cy="262.6445" fill="none" rx="3" ry="3" style="stroke: #038048; stroke-width: 1.0;"/><text fill="#000000" font-family="sans-serif" font-size="11" lengthAdjust="spacingAndGlyphs" textLength="87" x="594.5" y="264.9526">length : Integer</text><line style="stroke: #A80036; stroke-width: 1.5;" x1="575.5" x2="759.5" y1="271.5469" y2="271.5469"/><!--link ContractInstance to ContractInstanceCreation--><path d="M247.054,74 C254.299,74 261.545,74 268.791,74 " fill="none" id="ContractInstance-ContractInstanceCreation" style="stroke: #A80036; stroke-width: 1.0;"/><polygon fill="#A80036" points="234.012,74,240.012,78,246.012,74,240.012,70,234.012,74" style="stroke: #A80036; stroke-width: 1.0;"/><text fill="#000000" font-family="sans-serif" font-size="13" lengthAdjust="spacingAndGlyphs" textLength="24" x="237.1659" y="69.6768">0..1</text><!--link LinkValue to LinkReference--><path d="M667,114.282 C667,138.434 667,169.446 667,194.5027 " fill="none" id="LinkValue-LinkReference" style="stroke: #A80036; stroke-width: 1.0; stroke-dasharray: 7.0,7.0;"/><polygon fill="#A80036" points="667,199.7546,671,190.7546,667,194.7546,663,190.7546,667,199.7546" style="stroke: #A80036; stroke-width: 1.0;"/><text fill="#000000" font-family="sans-serif" font-size="13" lengthAdjust="spacingAndGlyphs" textLength="8" x="657.2266" y="189.0079">1</text><!--
@startuml





  class ContractInstance << (R,orchid) Resource >> {
    + address : Address
    + network : Network
    + creation : ContractInstanceCreation
    + contract : Contract
    + callBytecode : LinkedBytecode
    + linkValues : Set<LinkValue>
  }

  ContractInstance *-right- "0..1" ContractInstanceCreation


















  class ContractInstanceCreation << (O,lawngreen) Data Object >> {
    + transactionHash : TransactionHash
    + contractConstructor : ContractConstructor
    + constructorArgs : Array<Value>
  }

  class LinkValue << (O,lawngreen) Data Object >> {
    + linkReference : LinkReference
    + value : Bytes
  }

  class LinkReference << (O,lawngreen) Data Object >> {
    + offsets : Array<ByteOffset>
    + length : Integer
  }



























  LinkValue ..> "1" LinkReference

@enduml

PlantUML version 1.2018.14(Fri Dec 21 16:33:16 UTC 2018)
(GPL source distribution)
Java Runtime: Java(TM) SE Runtime Environment
JVM: Java HotSpot(TM) 64-Bit Server VM
Java Version: 1.8.0_151-b12
Operating System: Linux
OS Version: 4.4.0-101-generic
Default Encoding: UTF-8
Language: en
Country: US
--></g></svg>