<?xml version="1.0" encoding="UTF-8" standalone="no"?><svg xmlns="http://www.w3.org/2000/svg" xmlns:xlink="http://www.w3.org/1999/xlink" contentScriptType="application/ecmascript" contentStyleType="text/css" height="98px" preserveAspectRatio="none" style="width:153px;height:98px;" version="1.1" viewBox="0 0 153 98" width="153px" zoomAndPan="magnify"><defs><filter height="300%" id="f1pczkmkaybxl" width="300%" x="-1" y="-1"><feGaussianBlur result="blurOut" stdDeviation="2.0"/><feColorMatrix in="blurOut" result="blurOut2" type="matrix" values="0 0 0 0 0 0 0 0 0 0 0 0 0 0 0 0 0 0 .4 0"/><feOffset dx="4.0" dy="4.0" in="blurOut2" result="blurOut3"/><feBlend in="SourceGraphic" in2="blurOut3" mode="normal"/></filter></defs><g><!--class Source--><rect fill="#FEFECE" filter="url(#f1pczkmkaybxl)" height="79.5469" id="Source" style="stroke: #A80036; stroke-width: 1.5;" width="136" x="6" y="8"/><ellipse cx="37.2" cy="26.9688" fill="#DA70D6" rx="11" ry="11" style="stroke: #A80036; stroke-width: 1.0;"/><path d="M38.4031,27.1094 Q38.7625,27.1875 39.0359,27.4609 Q39.3094,27.7344 39.7,28.5156 L41.9344,32.9688 L39.2469,32.9688 L37.7469,29.8438 Q37.6844,29.7031 37.575,29.4688 Q36.9188,28.0781 36.0281,28.0781 L35.2469,28.0781 L35.2469,32.9688 L32.8094,32.9688 L32.8094,20.5781 L36.3406,20.5781 Q38.7313,20.5781 39.7703,21.4219 Q40.8094,22.2656 40.8094,24.1719 Q40.8094,25.4531 40.1922,26.2109 Q39.575,26.9688 38.4031,27.1094 Z M35.2469,22.6406 L35.2469,26.0156 L36.4031,26.0156 Q37.4188,26.0156 37.8484,25.6172 Q38.2781,25.2188 38.2781,24.3125 Q38.2781,23.4219 37.8484,23.0313 Q37.4188,22.6406 36.4031,22.6406 L35.2469,22.6406 Z "/><text fill="#000000" font-family="sans-serif" font-size="12" font-style="italic" lengthAdjust="spacingAndGlyphs" textLength="72" x="52.8" y="24.1387">«Resource»</text><text fill="#000000" font-family="sans-serif" font-size="12" lengthAdjust="spacingAndGlyphs" textLength="44" x="66.8" y="38.1074">Source</text><line style="stroke: #A80036; stroke-width: 1.5;" x1="7" x2="141" y1="45.9375" y2="45.9375"/><ellipse cx="17" cy="57.8398" fill="none" rx="3" ry="3" style="stroke: #038048; stroke-width: 1.0;"/><text fill="#000000" font-family="sans-serif" font-size="11" lengthAdjust="spacingAndGlyphs" textLength="95" x="26" y="60.1479">contents : String</text><ellipse cx="17" cy="70.6445" fill="none" rx="3" ry="3" style="stroke: #038048; stroke-width: 1.0;"/><text fill="#000000" font-family="sans-serif" font-size="11" lengthAdjust="spacingAndGlyphs" textLength="110" x="26" y="72.9526">sourcePath : String</text><line style="stroke: #A80036; stroke-width: 1.5;" x1="7" x2="141" y1="79.5469" y2="79.5469"/><!--
@startuml









  class Source << (R,orchid) Resource >> {
    + contents : String
    + sourcePath : String
  }











































@enduml

PlantUML version 1.2018.14(Fri Dec 21 16:33:16 UTC 2018)
(GPL source distribution)
Java Runtime: Java(TM) SE Runtime Environment
JVM: Java HotSpot(TM) 64-Bit Server VM
Java Version: 1.8.0_151-b12
Operating System: Linux
OS Version: 4.4.0-101-generic
Default Encoding: UTF-8
Language: en
Country: US
--></g></svg>