<?xml version="1.0" encoding="UTF-8" standalone="no"?><svg xmlns="http://www.w3.org/2000/svg" xmlns:xlink="http://www.w3.org/1999/xlink" contentScriptType="application/ecmascript" contentStyleType="text/css" height="98px" preserveAspectRatio="none" style="width:121px;height:98px;" version="1.1" viewBox="0 0 121 98" width="121px" zoomAndPan="magnify"><defs><filter height="300%" id="f11kmcfnhkgosa" width="300%" x="-1" y="-1"><feGaussianBlur result="blurOut" stdDeviation="2.0"/><feColorMatrix in="blurOut" result="blurOut2" type="matrix" values="0 0 0 0 0 0 0 0 0 0 0 0 0 0 0 0 0 0 .4 0"/><feOffset dx="4.0" dy="4.0" in="blurOut2" result="blurOut3"/><feBlend in="SourceGraphic" in2="blurOut3" mode="normal"/></filter></defs><g><!--class Contract--><rect fill="#FEFECE" filter="url(#f11kmcfnhkgosa)" height="79.5469" id="Contract" style="stroke: #A80036; stroke-width: 1.5;" width="104" x="6" y="8"/><ellipse cx="22.8" cy="26.9688" fill="#DA70D6" rx="11" ry="11" style="stroke: #A80036; stroke-width: 1.0;"/><path d="M24.0031,27.1094 Q24.3625,27.1875 24.6359,27.4609 Q24.9094,27.7344 25.3,28.5156 L27.5344,32.9688 L24.8469,32.9688 L23.3469,29.8438 Q23.2844,29.7031 23.175,29.4688 Q22.5188,28.0781 21.6281,28.0781 L20.8469,28.0781 L20.8469,32.9688 L18.4094,32.9688 L18.4094,20.5781 L21.9406,20.5781 Q24.3313,20.5781 25.3703,21.4219 Q26.4094,22.2656 26.4094,24.1719 Q26.4094,25.4531 25.7922,26.2109 Q25.175,26.9688 24.0031,27.1094 Z M20.8469,22.6406 L20.8469,26.0156 L22.0031,26.0156 Q23.0188,26.0156 23.4484,25.6172 Q23.8781,25.2188 23.8781,24.3125 Q23.8781,23.4219 23.4484,23.0313 Q23.0188,22.6406 22.0031,22.6406 L20.8469,22.6406 Z "/><text fill="#000000" font-family="sans-serif" font-size="12" font-style="italic" lengthAdjust="spacingAndGlyphs" textLength="72" x="35.2" y="24.1387">«Resource»</text><text fill="#000000" font-family="sans-serif" font-size="12" lengthAdjust="spacingAndGlyphs" textLength="54" x="44.2" y="38.1074">Contract</text><line style="stroke: #A80036; stroke-width: 1.5;" x1="7" x2="109" y1="45.9375" y2="45.9375"/><ellipse cx="17" cy="57.8398" fill="none" rx="3" ry="3" style="stroke: #038048; stroke-width: 1.0;"/><text fill="#000000" font-family="sans-serif" font-size="11" lengthAdjust="spacingAndGlyphs" textLength="47" x="26" y="60.1479">abi : ABI</text><ellipse cx="17" cy="70.6445" fill="none" rx="3" ry="3" style="stroke: #038048; stroke-width: 1.0;"/><text fill="#000000" font-family="sans-serif" font-size="11" lengthAdjust="spacingAndGlyphs" textLength="78" x="26" y="72.9526">name : String</text><line style="stroke: #A80036; stroke-width: 1.5;" x1="7" x2="109" y1="79.5469" y2="79.5469"/><!--
@startuml



  class Contract << (R,orchid) Resource >> {
    + abi : ABI
    + name : String
  }

















































@enduml

PlantUML version 1.2018.14(Fri Dec 21 16:33:16 UTC 2018)
(GPL source distribution)
Java Runtime: Java(TM) SE Runtime Environment
JVM: Java HotSpot(TM) 64-Bit Server VM
Java Version: 1.8.0_151-b12
Operating System: Linux
OS Version: 4.4.0-101-generic
Default Encoding: UTF-8
Language: en
Country: US
--></g></svg>