<?xml version="1.0" encoding="UTF-8" standalone="no"?><svg xmlns="http://www.w3.org/2000/svg" xmlns:xlink="http://www.w3.org/1999/xlink" contentScriptType="application/ecmascript" contentStyleType="text/css" height="318.6px" preserveAspectRatio="none" style="width:747px;height:318px;" version="1.1" viewBox="0 0 747 318" width="747.6px" zoomAndPan="magnify"><defs><filter height="300%" id="fco9naifsj5s2" width="300%" x="-1" y="-1"><feGaussianBlur result="blurOut" stdDeviation="1.2"/><feColorMatrix in="blurOut" result="blurOut2" type="matrix" values="0 0 0 0 0 0 0 0 0 0 0 0 0 0 0 0 0 0 .4 0"/><feOffset dx="2.4" dy="2.4" in="blurOut2" result="blurOut3"/><feBlend in="SourceGraphic" in2="blurOut3" mode="normal"/></filter></defs><g><!--cluster Metadata--><rect fill="#FFFFFF" filter="url(#fco9naifsj5s2)" height="297.6" style="stroke: #000000; stroke-width: 0.8999999999999999;" width="604.2" x="136.8" y="14.4"/><text fill="#000000" font-family="sans-serif" font-size="8.4" font-weight="bold" lengthAdjust="spacingAndGlyphs" textLength="43.2" x="417.3" y="23.3971">Metadata</text><ellipse cx="245.6451" cy="217.249" fill="#FEFECE" filter="url(#fco9naifsj5s2)" rx="63.5451" ry="14.149" style="stroke: #A80036; stroke-width: 0.8999999999999999;"/><text fill="#000000" font-family="sans-serif" font-size="8.4" lengthAdjust="spacingAndGlyphs" textLength="113.4" x="188.9451" y="220.0381">Read contract instance info</text><ellipse cx="245.7157" cy="171.0031" fill="#FEFECE" filter="url(#fco9naifsj5s2)" rx="46.8157" ry="10.8031" style="stroke: #A80036; stroke-width: 0.8999999999999999;"/><text fill="#000000" font-family="sans-serif" font-size="8.4" lengthAdjust="spacingAndGlyphs" textLength="75.6" x="207.9157" y="173.7922">Read contract info</text><ellipse cx="245.8106" cy="117.6221" fill="#FEFECE" filter="url(#fco9naifsj5s2)" rx="99.4106" ry="21.3221" style="stroke: #A80036; stroke-width: 0.8999999999999999;"/><text fill="#000000" font-family="sans-serif" font-size="8.4" lengthAdjust="spacingAndGlyphs" textLength="189" x="151.3106" y="120.4112">Read historical contract instance contract info</text><ellipse cx="421.2664" cy="214.0933" fill="#FEFECE" filter="url(#fco9naifsj5s2)" rx="40.2664" ry="9.4933" style="stroke: #A80036; stroke-width: 0.8999999999999999;"/><text fill="#000000" font-family="sans-serif" font-size="8.4" lengthAdjust="spacingAndGlyphs" textLength="59.4" x="391.5664" y="216.8823">Read instance</text><ellipse cx="540.505" cy="171.101" fill="#FEFECE" filter="url(#fco9naifsj5s2)" rx="39.805" ry="9.401" style="stroke: #A80036; stroke-width: 0.8999999999999999;"/><text fill="#000000" font-family="sans-serif" font-size="8.4" lengthAdjust="spacingAndGlyphs" textLength="58.2" x="511.405" y="173.8901">Read contract</text><ellipse cx="675.5169" cy="293.4142" fill="#FEFECE" filter="url(#fco9naifsj5s2)" rx="35.3169" ry="8.7142" style="stroke: #A80036; stroke-width: 0.8999999999999999;"/><text fill="#000000" font-family="sans-serif" font-size="8.4" lengthAdjust="spacingAndGlyphs" textLength="47.4" x="651.8169" y="296.2032">Read name</text><ellipse cx="675.5044" cy="255.0142" fill="#FEFECE" filter="url(#fco9naifsj5s2)" rx="28.1044" ry="8.7142" style="stroke: #A80036; stroke-width: 0.8999999999999999;"/><text fill="#000000" font-family="sans-serif" font-size="8.4" lengthAdjust="spacingAndGlyphs" textLength="37.2" x="656.9044" y="257.8032">Read ABI</text><ellipse cx="675.6945" cy="214.7589" fill="#FEFECE" filter="url(#fco9naifsj5s2)" rx="43.5945" ry="10.1589" style="stroke: #A80036; stroke-width: 0.8999999999999999;"/><text fill="#000000" font-family="sans-serif" font-size="8.4" lengthAdjust="spacingAndGlyphs" textLength="67.8" x="641.7945" y="217.548">Read bytecodes</text><ellipse cx="675.4663" cy="170.9733" fill="#FEFECE" filter="url(#fco9naifsj5s2)" rx="55.6663" ry="12.5733" style="stroke: #A80036; stroke-width: 0.8999999999999999;"/><text fill="#000000" font-family="sans-serif" font-size="8.4" lengthAdjust="spacingAndGlyphs" textLength="96" x="627.4663" y="173.7623">Read source mappings</text><ellipse cx="540.5094" cy="253.0619" fill="#FEFECE" filter="url(#fco9naifsj5s2)" rx="43.1094" ry="10.0619" style="stroke: #A80036; stroke-width: 0.8999999999999999;"/><text fill="#000000" font-family="sans-serif" font-size="8.4" lengthAdjust="spacingAndGlyphs" textLength="66.6" x="507.2094" y="255.8509">Read link values</text><ellipse cx="675.5758" cy="127.8552" fill="#FEFECE" filter="url(#fco9naifsj5s2)" rx="39.5758" ry="9.3552" style="stroke: #A80036; stroke-width: 0.8999999999999999;"/><text fill="#000000" font-family="sans-serif" font-size="8.4" lengthAdjust="spacingAndGlyphs" textLength="57.6" x="646.7758" y="130.6442">Read sources</text><ellipse cx="675.6198" cy="88.8142" fill="#FEFECE" filter="url(#fco9naifsj5s2)" rx="33.6198" ry="8.7142" style="stroke: #A80036; stroke-width: 0.8999999999999999;"/><text fill="#000000" font-family="sans-serif" font-size="8.4" lengthAdjust="spacingAndGlyphs" textLength="45" x="653.1198" y="91.6032">Read ASTs</text><ellipse cx="675.5155" cy="47.3231" fill="#FEFECE" filter="url(#fco9naifsj5s2)" rx="50.9155" ry="11.6231" style="stroke: #A80036; stroke-width: 0.8999999999999999;"/><text fill="#000000" font-family="sans-serif" font-size="8.4" lengthAdjust="spacingAndGlyphs" textLength="85.2" x="632.9155" y="50.1122">Read link references</text><ellipse cx="540.5758" cy="212.4552" fill="#FEFECE" filter="url(#fco9naifsj5s2)" rx="39.5758" ry="9.3552" style="stroke: #A80036; stroke-width: 0.8999999999999999;"/><text fill="#000000" font-family="sans-serif" font-size="8.4" lengthAdjust="spacingAndGlyphs" textLength="57.6" x="511.7758" y="215.2442">Read address</text><!--entity SmartContractDev--><ellipse cx="57" cy="152.1" fill="#FEFECE" filter="url(#fco9naifsj5s2)" rx="4.8" ry="4.8" style="stroke: #A80036; stroke-width: 1.2;"/><path d="M57,156.9 L57,173.1 M49.2,161.7 L64.8,161.7 M57,173.1 L49.2,182.1 M57,173.1 L64.8,182.1 " fill="none" filter="url(#fco9naifsj5s2)" style="stroke: #A80036; stroke-width: 1.2;"/><text fill="#000000" font-family="sans-serif" font-size="8.4" lengthAdjust="spacingAndGlyphs" textLength="106.8" x="3.6" y="194.0971">Smart Contract Developer</text><!--link ReadContractInstance to ReadInstanceData--><path d="M309.2262,216.117 C328.8102,215.7798 350.1666,215.412 368.892,215.0898 " fill="none" id="ReadContractInstance-ReadInstanceData" style="stroke: #A80036; stroke-width: 0.6; stroke-dasharray: 7.0,7.0;"/><polygon fill="none" points="369.0054,210.8874,381.0756,214.8804,369.15,219.2862,369.0054,210.8874" style="stroke: #A80036; stroke-width: 0.6;"/><!--link ReadContract to ReadContractData--><path d="M292.5138,171 C345.7734,171 433.0614,171 488.4696,171 " fill="none" id="ReadContract-ReadContractData" style="stroke: #A80036; stroke-width: 0.6; stroke-dasharray: 7.0,7.0;"/><polygon fill="none" points="488.6364,166.8,500.6364,171,488.6364,175.2,488.6364,166.8" style="stroke: #A80036; stroke-width: 0.6;"/><!--link ReadHistoricalInstanceContract to ReadContractData--><path d="M321.744,131.3172 C377.325,141.4224 450.9426,154.8078 496.8828,163.1604 " fill="none" id="ReadHistoricalInstanceContract-ReadContractData" style="stroke: #A80036; stroke-width: 0.6; stroke-dasharray: 7.0,7.0;"/><polygon fill="none" points="497.7306,159.0456,508.7856,165.3246,496.2276,167.31,497.7306,159.0456" style="stroke: #A80036; stroke-width: 0.6;"/><!--link ReadContractData to ReadName--><path d="M563.2434,178.6842 C570.5028,182.061 578.1534,186.6414 583.8,192.6 C611.064,221.3724 590.6622,247.3248 619.8,274.2 C626.436,280.3187 635.124,284.5034 643.638,287.3593 " fill="none" id="ReadContractData-ReadName" style="stroke: #A80036; stroke-width: 0.6;"/><polygon fill="#A80036" points="646.512,288.2778,642.0929,284.3545,643.653,287.3689,640.6387,288.9289,646.512,288.2778" style="stroke: #A80036; stroke-width: 0.6;"/><!--link ReadContractData to ReadABI--><path d="M561.0714,179.0172 C568.5996,182.5668 576.99,187.1748 583.8,192.6 C603.3486,208.1724 599.2488,221.577 619.8,235.8 C628.572,241.8702 639.444,246.1926 649.218,249.1794 " fill="none" id="ReadContractData-ReadABI" style="stroke: #A80036; stroke-width: 0.6;"/><polygon fill="#A80036" points="652.212,250.0638,647.7117,246.234,649.3346,249.215,646.3536,250.8379,652.212,250.0638" style="stroke: #A80036; stroke-width: 0.6;"/><!--link ReadContractData to ReadBytecodes--><path d="M564.201,178.5294 C587.1048,186.027 622.302,197.5482 646.86,205.5876 " fill="none" id="ReadContractData-ReadBytecodes" style="stroke: #A80036; stroke-width: 0.6;"/><polygon fill="#A80036" points="649.8,206.55,645.4156,202.5881,646.9491,205.616,643.9212,207.1495,649.8,206.55" style="stroke: #A80036; stroke-width: 0.6;"/><!--link ReadContractData to ReadSourceMaps--><path d="M580.6206,171 C591.9198,171 604.482,171 616.662,171 " fill="none" id="ReadContractData-ReadSourceMaps" style="stroke: #A80036; stroke-width: 0.6;"/><polygon fill="#A80036" points="619.752,171,614.352,168.6,616.752,171,614.352,173.4,619.752,171" style="stroke: #A80036; stroke-width: 0.6;"/><!--link ReadContractData to ReadLinkRefs--><path d="M546.2208,161.5386 C557.1156,141.837 584.7858,96.0462 619.8,69.6 C626.058,64.8732 633.456,60.9978 640.776,57.8844 " fill="none" id="ReadContractData-ReadLinkRefs" style="stroke: #A80036; stroke-width: 0.6;"/><polygon fill="#A80036" points="643.68,56.6844,637.7726,56.5336,640.9084,57.8325,639.6095,60.9682,643.68,56.6844" style="stroke: #A80036; stroke-width: 0.6;"/><!--link ReadContractData to ReadSources--><path d="M564.3534,163.5246 C587.928,155.913 624.408,144.1344 648.972,136.2036 " fill="none" id="ReadContractData-ReadSources" style="stroke: #A80036; stroke-width: 0.6;"/><polygon fill="#A80036" points="651.906,135.2562,646.029,134.6387,649.0523,136.1815,647.5095,139.2047,651.906,135.2562" style="stroke: #A80036; stroke-width: 0.6;"/><!--link ReadContractData to ReadASTs--><path d="M550.3536,161.8914 C564.2784,148.47 592.1004,123.3198 619.8,108 C628.812,103.0158 639.354,98.9652 648.798,95.892 " fill="none" id="ReadContractData-ReadASTs" style="stroke: #A80036; stroke-width: 0.6;"/><polygon fill="#A80036" points="651.69,94.9698,645.8167,94.3188,648.831,95.8788,647.271,98.8931,651.69,94.9698" style="stroke: #A80036; stroke-width: 0.6;"/><!--link ReadInstanceData to ReadContractData--><path d="M443.7558,206.1756 C464.118,198.7332 494.3742,187.6752 515.5104,179.9502 " fill="none" id="ReadInstanceData-ReadContractData" style="stroke: #A80036; stroke-width: 0.6;"/><polygon fill="#A80036" points="518.5608,178.836,512.6651,178.4344,515.7429,179.8653,514.312,182.943,518.5608,178.836" style="stroke: #A80036; stroke-width: 0.6;"/><!--link ReadInstanceData to ReadLinkVals--><path d="M445.4352,221.9982 C464.6352,228.3336 491.7588,237.2826 512.037,243.9738 " fill="none" id="ReadInstanceData-ReadLinkVals" style="stroke: #A80036; stroke-width: 0.6;"/><polygon fill="#A80036" points="514.9776,244.944,510.6018,240.9726,512.1287,244.0038,509.0975,245.5307,514.9776,244.944" style="stroke: #A80036; stroke-width: 0.6;"/><!--link ReadInstanceData to ReadAddress--><path d="M461.3232,213.5982 C473.0784,213.4194 485.9982,213.2226 497.9106,213.0408 " fill="none" id="ReadInstanceData-ReadAddress" style="stroke: #A80036; stroke-width: 0.6;"/><polygon fill="#A80036" points="500.916,212.9952,495.4796,210.6788,497.9164,213.0415,495.5537,215.4782,500.916,212.9952" style="stroke: #A80036; stroke-width: 0.6;"/><!--link SmartContractDev to ReadContractInstance--><path d="M110.541,186.3342 C117.7362,188.3034 125.0376,190.2432 132,192 C153.9438,197.5368 178.443,203.0742 199.0134,207.5418 " fill="none" id="SmartContractDev-ReadContractInstance" style="stroke: #A80036; stroke-width: 0.6;"/><!--link SmartContractDev to ReadContract--><path d="M110.5782,171 C138.3552,171 172.0632,171 198.7878,171 " fill="none" id="SmartContractDev-ReadContract" style="stroke: #A80036; stroke-width: 0.6;"/><!--link SmartContractDev to ReadHistoricalInstanceContract--><path d="M110.421,155.6052 C117.669,153.51 125.0166,151.3956 132,149.4 C149.0622,144.5244 167.5902,139.29 184.6164,134.5038 " fill="none" id="SmartContractDev-ReadHistoricalInstanceContract" style="stroke: #A80036; stroke-width: 0.6;"/><!--
@startuml
scale 0.60
left to right direction

:Smart Contract Developer: as :SmartContractDev:

rectangle Metadata {
  (Read contract instance info) as (ReadContractInstance)
  (Read contract info) as (ReadContract)
  (Read historical contract instance contract info) as (ReadHistoricalInstanceContract)

  (Read instance) as (ReadInstanceData)
  (Read contract) as (ReadContractData)

  ReadInstanceData <|.up. ReadContractInstance
  ReadContractData <|.up.. ReadContract
  ReadContractData <|.up.. ReadHistoricalInstanceContract

  (Read name) as (ReadName)
  (Read ABI) as (ReadABI)
  (Read bytecodes) as (ReadBytecodes)
  (Read source mappings) as (ReadSourceMaps)
  (Read link values) as (ReadLinkVals)
  (Read sources) as (ReadSources)
  (Read ASTs) as (ReadASTs)

  (Read link references) as (ReadLinkRefs)
  (Read address) as (ReadAddress)

  ReadContractData - -> ReadName
  ReadContractData - -> ReadABI
  ReadContractData - -> ReadBytecodes
  ReadContractData - -> ReadSourceMaps
  ReadContractData - -> ReadLinkRefs
  ReadContractData - -> ReadSources
  ReadContractData - -> ReadASTs

  ReadInstanceData - -> ReadContractData
  ReadInstanceData - -> ReadLinkVals
  ReadInstanceData - -> ReadAddress
}

SmartContractDev - - ReadContractInstance
SmartContractDev - - ReadContract
SmartContractDev - - ReadHistoricalInstanceContract

@enduml

PlantUML version 1.2018.14(Fri Dec 21 16:33:16 UTC 2018)
(GPL source distribution)
Java Runtime: OpenJDK Runtime Environment
JVM: OpenJDK 64-Bit Server VM
Java Version: 11.0.2+9
Operating System: Linux
OS Version: 4.15.0-1028-gcp
Default Encoding: UTF-8
Language: en
Country: US
--></g></svg>