<?xml version="1.0" encoding="UTF-8" standalone="no"?><svg xmlns="http://www.w3.org/2000/svg" xmlns:xlink="http://www.w3.org/1999/xlink" contentScriptType="application/ecmascript" contentStyleType="text/css" height="332px" preserveAspectRatio="none" style="width:748px;height:332px;" version="1.1" viewBox="0 0 748 332" width="748px" zoomAndPan="magnify"><defs><filter height="300%" id="f1faf0pojje6ch" width="300%" x="-1" y="-1"><feGaussianBlur result="blurOut" stdDeviation="2.0"/><feColorMatrix in="blurOut" result="blurOut2" type="matrix" values="0 0 0 0 0 0 0 0 0 0 0 0 0 0 0 0 0 0 .4 0"/><feOffset dx="4.0" dy="4.0" in="blurOut2" result="blurOut3"/><feBlend in="SourceGraphic" in2="blurOut3" mode="normal"/></filter></defs><g><!--cluster Saving--><rect fill="#FFFFFF" filter="url(#f1faf0pojje6ch)" height="175" style="stroke: #000000; stroke-width: 1.5;" width="215" x="522" y="83"/><text fill="#000000" font-family="sans-serif" font-size="14" font-style="italic" lengthAdjust="spacingAndGlyphs" textLength="73" x="593" y="97.9951">«external»</text><text fill="#000000" font-family="sans-serif" font-size="14" font-weight="bold" lengthAdjust="spacingAndGlyphs" textLength="52" x="603.5" y="114.292">Saving</text><!--cluster Linking--><rect fill="#FFFFFF" filter="url(#f1faf0pojje6ch)" height="297" style="stroke: #000000; stroke-width: 1.5;" width="266" x="228" y="24"/><text fill="#000000" font-family="sans-serif" font-size="14" font-weight="bold" lengthAdjust="spacingAndGlyphs" textLength="56" x="333" y="38.9951">Linking</text><ellipse cx="629.7007" cy="149.9401" fill="#FEFECE" filter="url(#f1faf0pojje6ch)" rx="65.2007" ry="15.4401" style="stroke: #A80036; stroke-width: 1.5;"/><text fill="#000000" font-family="sans-serif" font-size="14" lengthAdjust="spacingAndGlyphs" textLength="94" x="582.7007" y="154.5886">Save contract</text><ellipse cx="629.4431" cy="221.1886" fill="#FEFECE" filter="url(#f1faf0pojje6ch)" rx="91.4431" ry="20.6886" style="stroke: #A80036; stroke-width: 1.5;"/><text fill="#000000" font-family="sans-serif" font-size="14" lengthAdjust="spacingAndGlyphs" textLength="157" x="550.9431" y="225.8371">Save contract instance</text><ellipse cx="360.8518" cy="79.0704" fill="#FEFECE" filter="url(#f1faf0pojje6ch)" rx="88.3518" ry="20.0704" style="stroke: #A80036; stroke-width: 1.5;"/><text fill="#000000" font-family="sans-serif" font-size="14" lengthAdjust="spacingAndGlyphs" textLength="150" x="285.8518" y="83.7188">Link contract to library</text><ellipse cx="361.0271" cy="278.8054" fill="#FEFECE" filter="url(#f1faf0pojje6ch)" rx="117.0271" ry="25.8054" style="stroke: #A80036; stroke-width: 1.5;"/><text fill="#000000" font-family="sans-serif" font-size="14" lengthAdjust="spacingAndGlyphs" textLength="213" x="254.5271" y="283.4539">Link contract instance to library</text><!--entity LinkType--><ellipse cx="361" cy="144.5" fill="#FEFECE" filter="url(#f1faf0pojje6ch)" rx="8" ry="8" style="stroke: #A80036; stroke-width: 2.0;"/><path d="M361,152.5 L361,179.5 M348,160.5 L374,160.5 M361,179.5 L348,194.5 M361,179.5 L374,194.5 " fill="none" filter="url(#f1faf0pojje6ch)" style="stroke: #A80036; stroke-width: 2.0;"/><text fill="#000000" font-family="sans-serif" font-size="14" lengthAdjust="spacingAndGlyphs" textLength="61" x="330.5" y="214.4951">LinkType</text><!--entity Developer--><ellipse cx="95" cy="147.5" fill="#FEFECE" filter="url(#f1faf0pojje6ch)" rx="8" ry="8" style="stroke: #A80036; stroke-width: 2.0;"/><path d="M95,155.5 L95,182.5 M82,163.5 L108,163.5 M95,182.5 L82,197.5 M95,182.5 L108,197.5 " fill="none" filter="url(#f1faf0pojje6ch)" style="stroke: #A80036; stroke-width: 2.0;"/><text fill="#000000" font-family="sans-serif" font-size="14" lengthAdjust="spacingAndGlyphs" textLength="178" x="6" y="217.4951">Smart Contract Developer</text><!--link LinkType to LinkInstance--><path d="M361,237.7563 C361,242.7867 361,247.8172 361,252.8477 " fill="none" id="LinkType-LinkInstance" style="stroke: #A80036; stroke-width: 1.0; stroke-dasharray: 7.0,7.0;"/><polygon fill="none" points="354,237.7259,361,217.726,368,237.7258,354,237.7259" style="stroke: #A80036; stroke-width: 1.0;"/><!--link LinkContract to SaveContract--><path d="M418.844,94.144 C466.927,106.954 535.057,125.105 580.457,137.2 " fill="none" id="LinkContract-SaveContract" style="stroke: #A80036; stroke-width: 1.0;"/><polygon fill="#A80036" points="585.327,138.498,577.6601,132.3159,580.4955,137.2108,575.6006,140.0463,585.327,138.498" style="stroke: #A80036; stroke-width: 1.0;"/><!--link LinkInstance to SaveInstance--><path d="M445.226,260.887 C481.471,252.9987 523.494,243.8532 558.149,236.311 " fill="none" id="LinkInstance-SaveInstance" style="stroke: #A80036; stroke-width: 1.0;"/><polygon fill="#A80036" points="563.207,235.21,553.5624,233.2144,558.3213,236.2728,555.2629,241.0316,563.207,235.21" style="stroke: #A80036; stroke-width: 1.0;"/><!--link Developer to LinkContract--><path d="M173.325,137.396 C188.556,130.045 204.595,122.875 220,117 C244.944,107.487 273.234,99.337 297.822,93.052 " fill="none" id="Developer-LinkContract" style="stroke: #A80036; stroke-width: 1.0;"/><!--link Developer to LinkInstance--><path d="M184.19,220.377 C196.134,225.525 208.303,230.539 220,235 C242.139,243.4433 266.669,251.5589 288.931,258.4705 " fill="none" id="Developer-LinkInstance" style="stroke: #A80036; stroke-width: 1.0;"/><!--
@startuml
left to right direction

:Smart Contract Developer: as :Developer:

rectangle Saving << external >> {
  (Save contract) as (SaveContract)
  (Save contract instance) as (SaveInstance)
}

rectangle Linking {
  (Link contract to library) as (LinkContract)
  (Link contract instance to library) as (LinkInstance)
  LinkInstance .left.|> LinkType

  LinkContract - -> SaveContract
  LinkInstance - -> SaveInstance
}

Developer - - LinkContract
Developer - - LinkInstance

@enduml

PlantUML version 1.2018.14(Fri Dec 21 16:33:16 UTC 2018)
(GPL source distribution)
Java Runtime: OpenJDK Runtime Environment
JVM: OpenJDK 64-Bit Server VM
Java Version: 11.0.2+9
Operating System: Linux
OS Version: 4.15.0-1028-gcp
Default Encoding: UTF-8
Language: en
Country: US
--></g></svg>