<?xml version="1.0" encoding="UTF-8" standalone="no"?><svg xmlns="http://www.w3.org/2000/svg" xmlns:xlink="http://www.w3.org/1999/xlink" contentScriptType="application/ecmascript" contentStyleType="text/css" height="493.5px" preserveAspectRatio="none" style="width:813px;height:493px;" version="1.1" viewBox="0 0 813 493" width="813.75px" zoomAndPan="magnify"><defs><filter height="300%" id="f1kbunux34f9zg" width="300%" x="-1" y="-1"><feGaussianBlur result="blurOut" stdDeviation="1.5"/><feColorMatrix in="blurOut" result="blurOut2" type="matrix" values="0 0 0 0 0 0 0 0 0 0 0 0 0 0 0 0 0 0 .4 0"/><feOffset dx="3.0" dy="3.0" in="blurOut2" result="blurOut3"/><feBlend in="SourceGraphic" in2="blurOut3" mode="normal"/></filter></defs><g><!--class Contract--><rect fill="#FEFECE" filter="url(#f1kbunux34f9zg)" height="107.6777" id="Contract" style="stroke: #A80036; stroke-width: 1.125;" width="216" x="420" y="6"/><ellipse cx="478.3125" cy="20.2266" fill="#FF8C00" rx="8.25" ry="8.25" style="stroke: #A80036; stroke-width: 0.75;"/><path d="M479.2148,20.332 Q479.4844,20.3906 479.6836,20.6016 Q479.8945,20.8008 480.1875,21.3867 L481.8633,24.7266 L479.8477,24.7266 L478.7227,22.3828 Q478.6758,22.2773 478.5938,22.1016 Q478.1016,21.0586 477.4336,21.0586 L476.8477,21.0586 L476.8477,24.7266 L475.0195,24.7266 L475.0195,15.4336 L477.668,15.4336 Q479.4609,15.4336 480.2344,16.0664 Q481.0195,16.6992 481.0195,18.1289 Q481.0195,19.0898 480.5508,19.6641 Q480.0938,20.2266 479.2148,20.332 Z M476.8477,16.9805 L476.8477,19.5117 L477.7148,19.5117 Q478.4766,19.5117 478.793,19.2188 Q479.1211,18.9141 479.1211,18.2344 Q479.1211,17.5664 478.793,17.2734 Q478.4766,16.9805 477.7148,16.9805 L476.8477,16.9805 Z "/><text fill="#000000" font-family="sans-serif" font-size="9" font-style="italic" lengthAdjust="spacingAndGlyphs" textLength="96" x="492.1875" y="18.104">«External Resource»</text><text fill="#000000" font-family="sans-serif" font-size="9" lengthAdjust="spacingAndGlyphs" textLength="40.5" x="519.9375" y="28.5806">Contract</text><line style="stroke: #A80036; stroke-width: 1.125;" x1="420.75" x2="635.25" y1="34.4531" y2="34.4531"/><ellipse cx="428.25" cy="43.3799" fill="none" rx="2.25" ry="2.25" style="stroke: #038048; stroke-width: 0.75;"/><text fill="#000000" font-family="sans-serif" font-size="8.25" lengthAdjust="spacingAndGlyphs" textLength="55.5" x="435" y="45.111">name: String</text><ellipse cx="428.25" cy="52.9834" fill="none" rx="2.25" ry="2.25" style="stroke: #038048; stroke-width: 0.75;"/><text fill="#000000" font-family="sans-serif" font-size="8.25" lengthAdjust="spacingAndGlyphs" textLength="32.25" x="435" y="54.7145">abi: ABI</text><line style="stroke: #A80036; stroke-width: 1.125;" x1="420.75" x2="635.25" y1="59.6602" y2="59.6602"/><ellipse cx="428.25" cy="68.5869" fill="#84BE84" rx="2.25" ry="2.25" style="stroke: #038048; stroke-width: 0.75;"/><text fill="#000000" font-family="sans-serif" font-size="8.25" lengthAdjust="spacingAndGlyphs" textLength="151.5" x="435" y="70.318">createBytecode: Maybe&lt;Bytecode&gt;</text><ellipse cx="428.25" cy="78.1904" fill="#84BE84" rx="2.25" ry="2.25" style="stroke: #038048; stroke-width: 0.75;"/><text fill="#000000" font-family="sans-serif" font-size="8.25" lengthAdjust="spacingAndGlyphs" textLength="138.75" x="435" y="79.9215">callBytecode: Maybe&lt;Bytecode&gt;</text><ellipse cx="428.25" cy="87.7939" fill="#84BE84" rx="2.25" ry="2.25" style="stroke: #038048; stroke-width: 0.75;"/><text fill="#000000" font-family="sans-serif" font-size="8.25" lengthAdjust="spacingAndGlyphs" textLength="145.5" x="435" y="89.525">compilation: Maybe&lt;Compilation&gt;</text><ellipse cx="428.25" cy="97.3975" fill="#84BE84" rx="2.25" ry="2.25" style="stroke: #038048; stroke-width: 0.75;"/><text fill="#000000" font-family="sans-serif" font-size="8.25" lengthAdjust="spacingAndGlyphs" textLength="196.5" x="435" y="99.1285">processedSource: Maybe&lt;ProcessedSource&gt;</text><ellipse cx="428.25" cy="107.001" fill="#84BE84" rx="2.25" ry="2.25" style="stroke: #038048; stroke-width: 0.75;"/><text fill="#000000" font-family="sans-serif" font-size="8.25" lengthAdjust="spacingAndGlyphs" textLength="117" x="435" y="108.7321">interface: ContractInterface</text><!--class Bytecode--><rect fill="#FEFECE" filter="url(#f1kbunux34f9zg)" height="78.8672" id="Bytecode" style="stroke: #A80036; stroke-width: 1.125;" width="177.75" x="167.625" y="159"/><ellipse cx="227.4375" cy="173.2266" fill="#DA70D6" rx="8.25" ry="8.25" style="stroke: #A80036; stroke-width: 0.75;"/><path d="M228.3398,173.332 Q228.6094,173.3906 228.8086,173.6016 Q229.0195,173.8008 229.3125,174.3867 L230.9883,177.7266 L228.9727,177.7266 L227.8477,175.3828 Q227.8008,175.2773 227.7188,175.1016 Q227.2266,174.0586 226.5586,174.0586 L225.9727,174.0586 L225.9727,177.7266 L224.1445,177.7266 L224.1445,168.4336 L226.793,168.4336 Q228.5859,168.4336 229.3594,169.0664 Q230.1445,169.6992 230.1445,171.1289 Q230.1445,172.0898 229.6758,172.6641 Q229.2188,173.2266 228.3398,173.332 Z M225.9727,169.9805 L225.9727,172.5117 L226.8398,172.5117 Q227.6016,172.5117 227.918,172.2188 Q228.2461,171.9141 228.2461,171.2344 Q228.2461,170.5664 227.918,170.2734 Q227.6016,169.9805 226.8398,169.9805 L225.9727,169.9805 Z "/><text fill="#000000" font-family="sans-serif" font-size="9" font-style="italic" lengthAdjust="spacingAndGlyphs" textLength="54.75" x="241.3125" y="171.104">«Resource»</text><text fill="#000000" font-family="sans-serif" font-size="9" lengthAdjust="spacingAndGlyphs" textLength="43.5" x="246.9375" y="181.5806">Bytecode</text><line style="stroke: #A80036; stroke-width: 1.125;" x1="168.375" x2="344.625" y1="187.4531" y2="187.4531"/><ellipse cx="175.875" cy="196.3799" fill="none" rx="2.25" ry="2.25" style="stroke: #038048; stroke-width: 0.75;"/><text fill="#000000" font-family="sans-serif" font-size="8.25" lengthAdjust="spacingAndGlyphs" textLength="53.25" x="182.625" y="198.111">bytes: Bytes</text><ellipse cx="175.875" cy="205.9834" fill="none" rx="2.25" ry="2.25" style="stroke: #038048; stroke-width: 0.75;"/><text fill="#000000" font-family="sans-serif" font-size="8.25" lengthAdjust="spacingAndGlyphs" textLength="158.25" x="182.625" y="207.7145">linkReferences : Set&lt;LinkReference&gt;</text><ellipse cx="175.875" cy="215.5869" fill="#84BE84" rx="2.25" ry="2.25" style="stroke: #038048; stroke-width: 0.75;"/><text fill="#000000" font-family="sans-serif" font-size="8.25" lengthAdjust="spacingAndGlyphs" textLength="137.25" x="182.625" y="217.318">instructions: Array&lt;Instruction&gt;</text><line style="stroke: #A80036; stroke-width: 0.75; stroke-dasharray: 1.0,2.0;" x1="168.375" x2="344.625" y1="222.2637" y2="222.2637"/><rect fill="none" height="4.5" style="stroke: #C82930; stroke-width: 0.75;" width="4.5" x="173.625" y="228.9404"/><path d="M187.1563,227.3047 C186.2075,227.3047 185.4375,228.0747 185.4375,229.0234 C185.4375,229.1334 185.4602,229.2276 185.4808,229.3246 L183.375,231.4304 L183.375,232.8054 L185.4375,232.8054 L185.4375,231.4304 L186.8125,231.4304 L186.8125,230.7429 L186.8558,230.6996 C186.9521,230.7202 187.0463,230.7429 187.1569,230.7429 C188.1057,230.7429 188.8757,229.9729 188.8757,229.0241 C188.8757,228.0754 188.1057,227.3054 187.1569,227.3054 M187.5007,227.9929 C187.8788,227.9929 188.1882,228.3023 188.1882,228.6804 C188.1882,229.0585 187.8788,229.3679 187.5007,229.3679 C187.1226,229.3679 186.8132,229.0585 186.8132,228.6804 C186.8132,228.3023 187.1226,227.9929 187.5007,227.9929 " fill="#000000" style="stroke: ; stroke-width: 0.0; stroke-dasharray: ;"/><text fill="#000000" font-family="sans-serif" font-size="8.25" lengthAdjust="spacingAndGlyphs" textLength="21.75" x="192.625" y="232.9215">id: ID</text><text fill="#000000" font-family="sans-serif" font-size="8.25" font-style="italic" lengthAdjust="spacingAndGlyphs" textLength="33.75" x="217.375" y="232.9215">= hash(</text><text fill="#000000" font-family="sans-serif" font-size="8.25" lengthAdjust="spacingAndGlyphs" textLength="0" x="254.125" y="232.9215"/><text fill="#000000" font-family="Andale Mono" font-size="8.25" lengthAdjust="spacingAndGlyphs" textLength="23.25" x="254.125" y="232.9215">bytes</text><text fill="#000000" font-family="sans-serif" font-size="8.25" lengthAdjust="spacingAndGlyphs" textLength="0" x="280.375" y="232.9215"/><text fill="#000000" font-family="sans-serif" font-size="8.25" font-style="italic" lengthAdjust="spacingAndGlyphs" textLength="3" x="280.375" y="232.9215">)</text><!--class Instruction--><rect fill="#FEFECE" filter="url(#f1kbunux34f9zg)" height="78.8672" id="Instruction" style="stroke: #A80036; stroke-width: 1.125;" width="126" x="144" y="20.625"/><ellipse cx="172.8" cy="34.8516" fill="#7CFC00" rx="8.25" ry="8.25" style="stroke: #A80036; stroke-width: 0.75;"/><path d="M172.882,31.5352 Q172.1789,31.5352 171.8508,32.2852 Q171.5344,33.0352 171.5344,34.7109 Q171.5344,36.3867 171.8508,37.1367 Q172.1789,37.8867 172.882,37.8867 Q173.5969,37.8867 173.9133,37.1367 Q174.2414,36.3867 174.2414,34.7109 Q174.2414,33.0352 173.9133,32.2852 Q173.5969,31.5352 172.882,31.5352 Z M169.6242,34.7109 Q169.6242,32.332 170.4445,31.1133 Q171.2766,29.8828 172.882,29.8828 Q174.4992,29.8828 175.3195,31.1133 Q176.1516,32.332 176.1516,34.7109 Q176.1516,37.0898 175.3195,38.3086 Q174.4992,39.5273 172.882,39.5273 Q171.2766,39.5273 170.4445,38.3086 Q169.6242,37.0898 169.6242,34.7109 Z "/><text fill="#000000" font-family="sans-serif" font-size="9" font-style="italic" lengthAdjust="spacingAndGlyphs" textLength="66" x="185.7" y="32.729">«Data Object»</text><text fill="#000000" font-family="sans-serif" font-size="9" lengthAdjust="spacingAndGlyphs" textLength="50.25" x="193.575" y="43.2056">Instruction</text><line style="stroke: #A80036; stroke-width: 1.125;" x1="144.75" x2="269.25" y1="49.0781" y2="49.0781"/><ellipse cx="152.25" cy="58.0049" fill="none" rx="2.25" ry="2.25" style="stroke: #038048; stroke-width: 0.75;"/><text fill="#000000" font-family="sans-serif" font-size="8.25" lengthAdjust="spacingAndGlyphs" textLength="106.5" x="159" y="59.736">programCounter: Integer</text><ellipse cx="152.25" cy="67.6084" fill="none" rx="2.25" ry="2.25" style="stroke: #038048; stroke-width: 0.75;"/><text fill="#000000" font-family="sans-serif" font-size="8.25" lengthAdjust="spacingAndGlyphs" textLength="62.25" x="159" y="69.3395">opcode: String</text><ellipse cx="152.25" cy="77.2119" fill="none" rx="2.25" ry="2.25" style="stroke: #038048; stroke-width: 0.75;"/><text fill="#000000" font-family="sans-serif" font-size="8.25" lengthAdjust="spacingAndGlyphs" textLength="70.5" x="159" y="78.943">pushData: Bytes</text><ellipse cx="152.25" cy="86.8154" fill="none" rx="2.25" ry="2.25" style="stroke: #038048; stroke-width: 0.75;"/><text fill="#000000" font-family="sans-serif" font-size="8.25" lengthAdjust="spacingAndGlyphs" textLength="93" x="159" y="88.5465">meta: InstructionMeta</text><line style="stroke: #A80036; stroke-width: 1.125;" x1="144.75" x2="269.25" y1="93.4922" y2="93.4922"/><!--class InstructionMeta--><rect fill="#FEFECE" filter="url(#f1kbunux34f9zg)" height="78.8672" id="InstructionMeta" style="stroke: #A80036; stroke-width: 1.125;" width="97.5" x="296.25" y="20.625"/><ellipse cx="307.5" cy="34.8516" fill="#7CFC00" rx="8.25" ry="8.25" style="stroke: #A80036; stroke-width: 0.75;"/><path d="M307.582,31.5352 Q306.8789,31.5352 306.5508,32.2852 Q306.2344,33.0352 306.2344,34.7109 Q306.2344,36.3867 306.5508,37.1367 Q306.8789,37.8867 307.582,37.8867 Q308.2969,37.8867 308.6133,37.1367 Q308.9414,36.3867 308.9414,34.7109 Q308.9414,33.0352 308.6133,32.2852 Q308.2969,31.5352 307.582,31.5352 Z M304.3242,34.7109 Q304.3242,32.332 305.1445,31.1133 Q305.9766,29.8828 307.582,29.8828 Q309.1992,29.8828 310.0195,31.1133 Q310.8516,32.332 310.8516,34.7109 Q310.8516,37.0898 310.0195,38.3086 Q309.1992,39.5273 307.582,39.5273 Q305.9766,39.5273 305.1445,38.3086 Q304.3242,37.0898 304.3242,34.7109 Z "/><text fill="#000000" font-family="sans-serif" font-size="9" font-style="italic" lengthAdjust="spacingAndGlyphs" textLength="66" x="321.75" y="32.729">«Data Object»</text><text fill="#000000" font-family="sans-serif" font-size="9" lengthAdjust="spacingAndGlyphs" textLength="73.5" x="318" y="43.2056">InstructionMeta</text><line style="stroke: #A80036; stroke-width: 1.125;" x1="297" x2="393" y1="49.0781" y2="49.0781"/><ellipse cx="304.5" cy="58.0049" fill="none" rx="2.25" ry="2.25" style="stroke: #038048; stroke-width: 0.75;"/><text fill="#000000" font-family="sans-serif" font-size="8.25" lengthAdjust="spacingAndGlyphs" textLength="54" x="311.25" y="59.736">cost: Integer</text><ellipse cx="304.5" cy="67.6084" fill="none" rx="2.25" ry="2.25" style="stroke: #038048; stroke-width: 0.75;"/><text fill="#000000" font-family="sans-serif" font-size="8.25" lengthAdjust="spacingAndGlyphs" textLength="57" x="311.25" y="69.3395">pops: Integer</text><ellipse cx="304.5" cy="77.2119" fill="none" rx="2.25" ry="2.25" style="stroke: #038048; stroke-width: 0.75;"/><text fill="#000000" font-family="sans-serif" font-size="8.25" lengthAdjust="spacingAndGlyphs" textLength="67.5" x="311.25" y="78.943">pushes: Integer</text><ellipse cx="304.5" cy="86.8154" fill="none" rx="2.25" ry="2.25" style="stroke: #038048; stroke-width: 0.75;"/><text fill="#000000" font-family="sans-serif" font-size="8.25" lengthAdjust="spacingAndGlyphs" textLength="71.25" x="311.25" y="88.5465">dynamic: Integer</text><line style="stroke: #A80036; stroke-width: 1.125;" x1="297" x2="393" y1="93.4922" y2="93.4922"/><!--class Source--><rect fill="#FEFECE" filter="url(#f1kbunux34f9zg)" height="69.2637" id="Source" style="stroke: #A80036; stroke-width: 1.125;" width="187.75" x="618" y="302.25"/><ellipse cx="682.8125" cy="316.4766" fill="#DA70D6" rx="8.25" ry="8.25" style="stroke: #A80036; stroke-width: 0.75;"/><path d="M683.7148,316.582 Q683.9844,316.6406 684.1836,316.8516 Q684.3945,317.0508 684.6875,317.6367 L686.3633,320.9766 L684.3477,320.9766 L683.2227,318.6328 Q683.1758,318.5273 683.0938,318.3516 Q682.6016,317.3086 681.9336,317.3086 L681.3477,317.3086 L681.3477,320.9766 L679.5195,320.9766 L679.5195,311.6836 L682.168,311.6836 Q683.9609,311.6836 684.7344,312.3164 Q685.5195,312.9492 685.5195,314.3789 Q685.5195,315.3398 685.0508,315.9141 Q684.5938,316.4766 683.7148,316.582 Z M681.3477,313.2305 L681.3477,315.7617 L682.2148,315.7617 Q682.9766,315.7617 683.293,315.4688 Q683.6211,315.1641 683.6211,314.4844 Q683.6211,313.8164 683.293,313.5234 Q682.9766,313.2305 682.2148,313.2305 L681.3477,313.2305 Z "/><text fill="#000000" font-family="sans-serif" font-size="9" font-style="italic" lengthAdjust="spacingAndGlyphs" textLength="54.75" x="696.6875" y="314.354">«Resource»</text><text fill="#000000" font-family="sans-serif" font-size="9" lengthAdjust="spacingAndGlyphs" textLength="33" x="707.5625" y="324.8306">Source</text><line style="stroke: #A80036; stroke-width: 1.125;" x1="618.75" x2="805" y1="330.7031" y2="330.7031"/><ellipse cx="626.25" cy="339.6299" fill="none" rx="2.25" ry="2.25" style="stroke: #038048; stroke-width: 0.75;"/><text fill="#000000" font-family="sans-serif" font-size="8.25" lengthAdjust="spacingAndGlyphs" textLength="68.25" x="633" y="341.361">contents: String</text><ellipse cx="626.25" cy="349.2334" fill="none" rx="2.25" ry="2.25" style="stroke: #038048; stroke-width: 0.75;"/><text fill="#000000" font-family="sans-serif" font-size="8.25" lengthAdjust="spacingAndGlyphs" textLength="120" x="633" y="350.9645">sourcePath: Maybe&lt;String&gt;</text><line style="stroke: #A80036; stroke-width: 0.75; stroke-dasharray: 1.0,2.0;" x1="618.75" x2="805" y1="355.9102" y2="355.9102"/><rect fill="none" height="4.5" style="stroke: #C82930; stroke-width: 0.75;" width="4.5" x="624" y="362.5869"/><path d="M637.5313,360.9512 C636.5825,360.9512 635.8125,361.7212 635.8125,362.6699 C635.8125,362.7799 635.8352,362.8741 635.8558,362.971 L633.75,365.0769 L633.75,366.4519 L635.8125,366.4519 L635.8125,365.0769 L637.1875,365.0769 L637.1875,364.3894 L637.2308,364.346 C637.3271,364.3667 637.4213,364.3894 637.5319,364.3894 C638.4807,364.3894 639.2507,363.6194 639.2507,362.6706 C639.2507,361.7219 638.4807,360.9519 637.5319,360.9519 M637.8757,361.6394 C638.2538,361.6394 638.5632,361.9487 638.5632,362.3269 C638.5632,362.705 638.2538,363.0144 637.8757,363.0144 C637.4976,363.0144 637.1882,362.705 637.1882,362.3269 C637.1882,361.9487 637.4976,361.6394 637.8757,361.6394 " fill="#000000" style="stroke: ; stroke-width: 0.0; stroke-dasharray: ;"/><text fill="#000000" font-family="sans-serif" font-size="8.25" lengthAdjust="spacingAndGlyphs" textLength="21.75" x="643" y="366.568">id: ID</text><text fill="#000000" font-family="sans-serif" font-size="8.25" font-style="italic" lengthAdjust="spacingAndGlyphs" textLength="33.75" x="667.75" y="366.568">= hash(</text><text fill="#000000" font-family="sans-serif" font-size="8.25" lengthAdjust="spacingAndGlyphs" textLength="0" x="704.5" y="366.568"/><text fill="#000000" font-family="Andale Mono" font-size="8.25" lengthAdjust="spacingAndGlyphs" textLength="36.75" x="704.5" y="366.568">contents</text><text fill="#000000" font-family="sans-serif" font-size="8.25" font-style="italic" lengthAdjust="spacingAndGlyphs" textLength="3" x="741.25" y="366.568">,</text><text fill="#000000" font-family="sans-serif" font-size="8.25" lengthAdjust="spacingAndGlyphs" textLength="0" x="747.25" y="366.568"/><text fill="#000000" font-family="Andale Mono" font-size="8.25" lengthAdjust="spacingAndGlyphs" textLength="48" x="747.25" y="366.568">sourcePath</text><text fill="#000000" font-family="sans-serif" font-size="8.25" lengthAdjust="spacingAndGlyphs" textLength="0" x="798.25" y="366.568"/><text fill="#000000" font-family="sans-serif" font-size="8.25" font-style="italic" lengthAdjust="spacingAndGlyphs" textLength="3" x="798.25" y="366.568">)</text><!--class Compilation--><rect fill="#FEFECE" filter="url(#f1kbunux34f9zg)" height="107.6777" id="Compilation" style="stroke: #A80036; stroke-width: 1.125;" width="219.75" x="371.625" y="282.75"/><ellipse cx="450.9375" cy="296.9766" fill="#DA70D6" rx="8.25" ry="8.25" style="stroke: #A80036; stroke-width: 0.75;"/><path d="M451.8398,297.082 Q452.1094,297.1406 452.3086,297.3516 Q452.5195,297.5508 452.8125,298.1367 L454.4883,301.4766 L452.4727,301.4766 L451.3477,299.1328 Q451.3008,299.0273 451.2188,298.8516 Q450.7266,297.8086 450.0586,297.8086 L449.4727,297.8086 L449.4727,301.4766 L447.6445,301.4766 L447.6445,292.1836 L450.293,292.1836 Q452.0859,292.1836 452.8594,292.8164 Q453.6445,293.4492 453.6445,294.8789 Q453.6445,295.8398 453.1758,296.4141 Q452.7188,296.9766 451.8398,297.082 Z M449.4727,293.7305 L449.4727,296.2617 L450.3398,296.2617 Q451.1016,296.2617 451.418,295.9688 Q451.7461,295.6641 451.7461,294.9844 Q451.7461,294.3164 451.418,294.0234 Q451.1016,293.7305 450.3398,293.7305 L449.4727,293.7305 Z "/><text fill="#000000" font-family="sans-serif" font-size="9" font-style="italic" lengthAdjust="spacingAndGlyphs" textLength="54.75" x="466.3125" y="294.854">«Resource»</text><text fill="#000000" font-family="sans-serif" font-size="9" lengthAdjust="spacingAndGlyphs" textLength="54.75" x="466.3125" y="305.3306">Compilation</text><line style="stroke: #A80036; stroke-width: 1.125;" x1="372.375" x2="590.625" y1="311.2031" y2="311.2031"/><ellipse cx="379.875" cy="320.1299" fill="none" rx="2.25" ry="2.25" style="stroke: #038048; stroke-width: 0.75;"/><text fill="#000000" font-family="sans-serif" font-size="8.25" lengthAdjust="spacingAndGlyphs" textLength="84" x="386.625" y="321.861">compiler : Compiler</text><ellipse cx="379.875" cy="329.7334" fill="#84BE84" rx="2.25" ry="2.25" style="stroke: #038048; stroke-width: 0.75;"/><text fill="#000000" font-family="sans-serif" font-size="8.25" lengthAdjust="spacingAndGlyphs" textLength="150" x="386.625" y="331.4645">sources : Array&lt;Maybe&lt;Source&gt;&gt;</text><ellipse cx="379.875" cy="339.3369" fill="#84BE84" rx="2.25" ry="2.25" style="stroke: #038048; stroke-width: 0.75;"/><text fill="#000000" font-family="sans-serif" font-size="8.25" lengthAdjust="spacingAndGlyphs" textLength="200.25" x="386.625" y="341.068">processedSources : Array&lt;ProcessedSource&gt;</text><ellipse cx="379.875" cy="348.9404" fill="none" rx="2.25" ry="2.25" style="stroke: #038048; stroke-width: 0.75;"/><text fill="#000000" font-family="sans-serif" font-size="8.25" lengthAdjust="spacingAndGlyphs" textLength="141" x="386.625" y="350.6715">sourceMaps: Array&lt;SourceMap&gt;</text><line style="stroke: #A80036; stroke-width: 0.75; stroke-dasharray: 1.0,2.0;" x1="372.375" x2="590.625" y1="355.6172" y2="355.6172"/><rect fill="none" height="4.5" style="stroke: #C82930; stroke-width: 0.75;" width="4.5" x="377.625" y="362.2939"/><path d="M391.1563,360.6582 C390.2075,360.6582 389.4375,361.4282 389.4375,362.377 C389.4375,362.487 389.4602,362.5811 389.4808,362.6781 L387.375,364.7839 L387.375,366.1589 L389.4375,366.1589 L389.4375,364.7839 L390.8125,364.7839 L390.8125,364.0964 L390.8558,364.0531 C390.9521,364.0737 391.0463,364.0964 391.1569,364.0964 C392.1057,364.0964 392.8757,363.3264 392.8757,362.3776 C392.8757,361.4289 392.1057,360.6589 391.1569,360.6589 M391.5007,361.3464 C391.8788,361.3464 392.1882,361.6558 392.1882,362.0339 C392.1882,362.412 391.8788,362.7214 391.5007,362.7214 C391.1226,362.7214 390.8132,362.412 390.8132,362.0339 C390.8132,361.6558 391.1226,361.3464 391.5007,361.3464 " fill="#000000" style="stroke: ; stroke-width: 0.0; stroke-dasharray: ;"/><text fill="#000000" font-family="sans-serif" font-size="8.25" lengthAdjust="spacingAndGlyphs" textLength="21.75" x="396.625" y="366.275">id: ID</text><text fill="#000000" font-family="sans-serif" font-size="8.25" font-style="italic" lengthAdjust="spacingAndGlyphs" textLength="33.75" x="421.375" y="366.275">= hash(</text><text fill="#000000" font-family="sans-serif" font-size="8.25" lengthAdjust="spacingAndGlyphs" textLength="0" x="458.125" y="366.275"/><text fill="#000000" font-family="Andale Mono" font-size="8.25" lengthAdjust="spacingAndGlyphs" textLength="36.75" x="458.125" y="366.275">compiler</text><text fill="#000000" font-family="sans-serif" font-size="8.25" font-style="italic" lengthAdjust="spacingAndGlyphs" textLength="3" x="494.875" y="366.275">,</text><text fill="#000000" font-family="sans-serif" font-size="8.25" lengthAdjust="spacingAndGlyphs" textLength="0" x="500.875" y="366.275"/><text fill="#000000" font-family="Andale Mono" font-size="8.25" lengthAdjust="spacingAndGlyphs" textLength="42" x="500.875" y="366.275">sourceIds</text><text fill="#000000" font-family="sans-serif" font-size="8.25" lengthAdjust="spacingAndGlyphs" textLength="0" x="545.875" y="366.275"/><text fill="#000000" font-family="sans-serif" font-size="8.25" font-style="italic" lengthAdjust="spacingAndGlyphs" textLength="3" x="545.875" y="366.275">)</text><rect fill="none" height="4.5" style="stroke: #C82930; stroke-width: 0.75;" width="4.5" x="377.625" y="371.8975"/><text fill="#000000" font-family="sans-serif" font-size="8.25" lengthAdjust="spacingAndGlyphs" textLength="132.75" x="386.625" y="375.8785">sourceIds: Array&lt;Maybe&lt;ID&gt;&gt;</text><rect fill="none" height="4.5" style="stroke: #C82930; stroke-width: 0.75;" width="4.5" x="377.625" y="381.501"/><text fill="#000000" font-family="sans-serif" font-size="8.25" lengthAdjust="spacingAndGlyphs" textLength="141" x="386.625" y="385.4821">contractIds : Array&lt;Maybe&lt;ID&gt;&gt;</text><!--class ProcessedSource--><rect fill="#FEFECE" filter="url(#f1kbunux34f9zg)" height="69.2637" id="ProcessedSource" style="stroke: #A80036; stroke-width: 1.125;" width="106.5" x="521.25" y="163.875"/><ellipse cx="532.5" cy="178.1016" fill="#7CFC00" rx="8.25" ry="8.25" style="stroke: #A80036; stroke-width: 0.75;"/><path d="M532.582,174.7852 Q531.8789,174.7852 531.5508,175.5352 Q531.2344,176.2852 531.2344,177.9609 Q531.2344,179.6367 531.5508,180.3867 Q531.8789,181.1367 532.582,181.1367 Q533.2969,181.1367 533.6133,180.3867 Q533.9414,179.6367 533.9414,177.9609 Q533.9414,176.2852 533.6133,175.5352 Q533.2969,174.7852 532.582,174.7852 Z M529.3242,177.9609 Q529.3242,175.582 530.1445,174.3633 Q530.9766,173.1328 532.582,173.1328 Q534.1992,173.1328 535.0195,174.3633 Q535.8516,175.582 535.8516,177.9609 Q535.8516,180.3398 535.0195,181.5586 Q534.1992,182.7773 532.582,182.7773 Q530.9766,182.7773 530.1445,181.5586 Q529.3242,180.3398 529.3242,177.9609 Z "/><text fill="#000000" font-family="sans-serif" font-size="9" font-style="italic" lengthAdjust="spacingAndGlyphs" textLength="66" x="551.25" y="175.979">«Data Object»</text><text fill="#000000" font-family="sans-serif" font-size="9" lengthAdjust="spacingAndGlyphs" textLength="82.5" x="543" y="186.4556">ProcessedSource</text><line style="stroke: #A80036; stroke-width: 1.125;" x1="522" x2="627" y1="192.3281" y2="192.3281"/><ellipse cx="529.5" cy="201.2549" fill="none" rx="2.25" ry="2.25" style="stroke: #038048; stroke-width: 0.75;"/><text fill="#000000" font-family="sans-serif" font-size="8.25" lengthAdjust="spacingAndGlyphs" textLength="36" x="536.25" y="202.986">ast: AST</text><ellipse cx="529.5" cy="210.8584" fill="#84BE84" rx="2.25" ry="2.25" style="stroke: #038048; stroke-width: 0.75;"/><text fill="#000000" font-family="sans-serif" font-size="8.25" lengthAdjust="spacingAndGlyphs" textLength="65.25" x="536.25" y="212.5895">source: Source</text><line style="stroke: #A80036; stroke-width: 0.75; stroke-dasharray: 1.0,2.0;" x1="522" x2="627" y1="217.5352" y2="217.5352"/><rect fill="none" height="4.5" style="stroke: #C82930; stroke-width: 0.75;" width="4.5" x="527.25" y="224.2119"/><text fill="#000000" font-family="sans-serif" font-size="8.25" lengthAdjust="spacingAndGlyphs" textLength="51" x="536.25" y="228.193">sourceId: ID</text><!--class Compiler--><rect fill="#FEFECE" filter="url(#f1kbunux34f9zg)" height="69.2637" id="Compiler" style="stroke: #A80036; stroke-width: 1.125;" width="90" x="255" y="302.25"/><ellipse cx="267.6" cy="316.4766" fill="#7CFC00" rx="8.25" ry="8.25" style="stroke: #A80036; stroke-width: 0.75;"/><path d="M267.682,313.1602 Q266.9789,313.1602 266.6508,313.9102 Q266.3344,314.6602 266.3344,316.3359 Q266.3344,318.0117 266.6508,318.7617 Q266.9789,319.5117 267.682,319.5117 Q268.3969,319.5117 268.7133,318.7617 Q269.0414,318.0117 269.0414,316.3359 Q269.0414,314.6602 268.7133,313.9102 Q268.3969,313.1602 267.682,313.1602 Z M264.4242,316.3359 Q264.4242,313.957 265.2445,312.7383 Q266.0766,311.5078 267.682,311.5078 Q269.2992,311.5078 270.1195,312.7383 Q270.9516,313.957 270.9516,316.3359 Q270.9516,318.7148 270.1195,319.9336 Q269.2992,321.1523 267.682,321.1523 Q266.0766,321.1523 265.2445,319.9336 Q264.4242,318.7148 264.4242,316.3359 Z "/><text fill="#000000" font-family="sans-serif" font-size="9" font-style="italic" lengthAdjust="spacingAndGlyphs" textLength="66" x="276.9" y="314.354">«Data Object»</text><text fill="#000000" font-family="sans-serif" font-size="9" lengthAdjust="spacingAndGlyphs" textLength="40.5" x="289.65" y="324.8306">Compiler</text><line style="stroke: #A80036; stroke-width: 1.125;" x1="255.75" x2="344.25" y1="330.7031" y2="330.7031"/><ellipse cx="263.25" cy="339.6299" fill="none" rx="2.25" ry="2.25" style="stroke: #038048; stroke-width: 0.75;"/><text fill="#000000" font-family="sans-serif" font-size="8.25" lengthAdjust="spacingAndGlyphs" textLength="58.5" x="270" y="341.361">name : String</text><ellipse cx="263.25" cy="349.2334" fill="none" rx="2.25" ry="2.25" style="stroke: #038048; stroke-width: 0.75;"/><text fill="#000000" font-family="sans-serif" font-size="8.25" lengthAdjust="spacingAndGlyphs" textLength="66" x="270" y="350.9645">version : String</text><ellipse cx="263.25" cy="358.8369" fill="none" rx="2.25" ry="2.25" style="stroke: #038048; stroke-width: 0.75;"/><text fill="#000000" font-family="sans-serif" font-size="8.25" lengthAdjust="spacingAndGlyphs" textLength="70.5" x="270" y="360.568">settings : Object</text><line style="stroke: #A80036; stroke-width: 1.125;" x1="255.75" x2="344.25" y1="365.5137" y2="365.5137"/><!--class LinkReference--><rect fill="#FEFECE" filter="url(#f1kbunux34f9zg)" height="69.2637" id="LinkReference" style="stroke: #A80036; stroke-width: 1.125;" width="136.5" x="4.5" y="163.875"/><ellipse cx="36.675" cy="178.1016" fill="#7CFC00" rx="8.25" ry="8.25" style="stroke: #A80036; stroke-width: 0.75;"/><path d="M36.757,174.7852 Q36.0539,174.7852 35.7258,175.5352 Q35.4094,176.2852 35.4094,177.9609 Q35.4094,179.6367 35.7258,180.3867 Q36.0539,181.1367 36.757,181.1367 Q37.4719,181.1367 37.7883,180.3867 Q38.1164,179.6367 38.1164,177.9609 Q38.1164,176.2852 37.7883,175.5352 Q37.4719,174.7852 36.757,174.7852 Z M33.4992,177.9609 Q33.4992,175.582 34.3195,174.3633 Q35.1516,173.1328 36.757,173.1328 Q38.3742,173.1328 39.1945,174.3633 Q40.0266,175.582 40.0266,177.9609 Q40.0266,180.3398 39.1945,181.5586 Q38.3742,182.7773 36.757,182.7773 Q35.1516,182.7773 34.3195,181.5586 Q33.4992,180.3398 33.4992,177.9609 Z "/><text fill="#000000" font-family="sans-serif" font-size="9" font-style="italic" lengthAdjust="spacingAndGlyphs" textLength="66" x="51.825" y="175.979">«Data Object»</text><text fill="#000000" font-family="sans-serif" font-size="9" lengthAdjust="spacingAndGlyphs" textLength="66" x="51.825" y="186.4556">LinkReference</text><line style="stroke: #A80036; stroke-width: 1.125;" x1="5.25" x2="140.25" y1="192.3281" y2="192.3281"/><ellipse cx="12.75" cy="201.2549" fill="none" rx="2.25" ry="2.25" style="stroke: #038048; stroke-width: 0.75;"/><text fill="#000000" font-family="sans-serif" font-size="8.25" lengthAdjust="spacingAndGlyphs" textLength="117" x="19.5" y="202.986">offsets: Array&lt;ByteOffset&gt;</text><ellipse cx="12.75" cy="210.8584" fill="none" rx="2.25" ry="2.25" style="stroke: #038048; stroke-width: 0.75;"/><text fill="#000000" font-family="sans-serif" font-size="8.25" lengthAdjust="spacingAndGlyphs" textLength="96" x="19.5" y="212.5895">name: Maybe&lt;String&gt;</text><ellipse cx="12.75" cy="220.4619" fill="none" rx="2.25" ry="2.25" style="stroke: #038048; stroke-width: 0.75;"/><text fill="#000000" font-family="sans-serif" font-size="8.25" lengthAdjust="spacingAndGlyphs" textLength="62.25" x="19.5" y="222.193">length: Integer</text><line style="stroke: #A80036; stroke-width: 1.125;" x1="5.25" x2="140.25" y1="227.1387" y2="227.1387"/><!--class SourceMap--><rect fill="#FEFECE" filter="url(#f1kbunux34f9zg)" height="50.0566" id="SourceMap" style="stroke: #A80036; stroke-width: 1.125;" width="87" x="438" y="435.75"/><ellipse cx="449.25" cy="449.9766" fill="#7CFC00" rx="8.25" ry="8.25" style="stroke: #A80036; stroke-width: 0.75;"/><path d="M449.332,446.6602 Q448.6289,446.6602 448.3008,447.4102 Q447.9844,448.1602 447.9844,449.8359 Q447.9844,451.5117 448.3008,452.2617 Q448.6289,453.0117 449.332,453.0117 Q450.0469,453.0117 450.3633,452.2617 Q450.6914,451.5117 450.6914,449.8359 Q450.6914,448.1602 450.3633,447.4102 Q450.0469,446.6602 449.332,446.6602 Z M446.0742,449.8359 Q446.0742,447.457 446.8945,446.2383 Q447.7266,445.0078 449.332,445.0078 Q450.9492,445.0078 451.7695,446.2383 Q452.6016,447.457 452.6016,449.8359 Q452.6016,452.2148 451.7695,453.4336 Q450.9492,454.6523 449.332,454.6523 Q447.7266,454.6523 446.8945,453.4336 Q446.0742,452.2148 446.0742,449.8359 Z "/><text fill="#000000" font-family="sans-serif" font-size="9" font-style="italic" lengthAdjust="spacingAndGlyphs" textLength="66" x="458.25" y="447.854">«Data Object»</text><text fill="#000000" font-family="sans-serif" font-size="9" lengthAdjust="spacingAndGlyphs" textLength="52.5" x="465" y="458.3306">SourceMap</text><line style="stroke: #A80036; stroke-width: 1.125;" x1="438.75" x2="524.25" y1="464.2031" y2="464.2031"/><ellipse cx="446.25" cy="473.1299" fill="none" rx="2.25" ry="2.25" style="stroke: #038048; stroke-width: 0.75;"/><text fill="#000000" font-family="sans-serif" font-size="8.25" lengthAdjust="spacingAndGlyphs" textLength="49.5" x="453" y="474.861">json: String</text><line style="stroke: #A80036; stroke-width: 1.125;" x1="438.75" x2="524.25" y1="479.8066" y2="479.8066"/><!--link Instruction to InstructionMeta--><path d="M279.8393,60 C285.2663,60 290.6933,60 296.1203,60 " fill="none" id="Instruction-InstructionMeta" style="stroke: #A80036; stroke-width: 0.75;"/><polygon fill="#A80036" points="270.0705,60,274.5705,63,279.0705,60,274.5705,57,270.0705,60" style="stroke: #A80036; stroke-width: 0.75;"/><text fill="#000000" font-family="sans-serif" font-size="9.75" lengthAdjust="spacingAndGlyphs" textLength="6" x="284.1217" y="57.1488">1</text><!--link Instruction to Bytecode--><path d="M221.052,99.6067 C226.6673,115.1333 233.1915,133.1745 239.1015,149.5155 " fill="none" id="Instruction-Bytecode" style="stroke: #A80036; stroke-width: 0.75;"/><polygon fill="#A80036" points="242.4983,158.9085,243.789,153.6565,239.4374,150.445,238.1467,155.697,242.4983,158.9085" style="stroke: #A80036; stroke-width: 0.75;"/><text fill="#000000" font-family="sans-serif" font-size="9.75" lengthAdjust="spacingAndGlyphs" textLength="6" x="216.468" y="114.4511">n</text><!--link ProcessedSource to Compilation--><path d="M551.511,232.959 C542.973,245.5253 533.0003,260.2035 523.3028,274.476 " fill="none" id="ProcessedSource-Compilation" style="stroke: #A80036; stroke-width: 0.75;"/><polygon fill="#A80036" points="517.7963,282.5798,522.8066,280.5435,522.8541,275.1354,517.8437,277.1716,517.7963,282.5798" style="stroke: #A80036; stroke-width: 0.75;"/><text fill="#000000" font-family="sans-serif" font-size="9.75" lengthAdjust="spacingAndGlyphs" textLength="6" x="541.5314" y="248.1536">n</text><!--link Contract to Bytecode--><path d="M413.499,118.4745 C386.3925,132.1403 358.1273,146.3903 333.171,158.9715 " fill="none" id="Contract-Bytecode" style="stroke: #A80036; stroke-width: 0.75;"/><polygon fill="#FFFFFF" points="422.2537,114.0615,416.885,113.4086,414.2174,118.1133,419.5862,118.7662,422.2537,114.0615" style="stroke: #A80036; stroke-width: 0.75;"/><text fill="#000000" font-family="sans-serif" font-size="9.75" lengthAdjust="spacingAndGlyphs" textLength="18" x="324.2643" y="150.7198">0..2</text><!--link Contract to Compilation--><path d="M514.449,123.858 C512.0993,135.5213 509.7668,147.612 507.75,159 C500.4247,200.3723 493.5128,247.4333 488.622,282.6248 " fill="none" id="Contract-Compilation" style="stroke: #A80036; stroke-width: 0.75;"/><polygon fill="#FFFFFF" points="516.42,114.1868,512.5815,117.9967,514.6221,123.0053,518.4606,119.1954,516.42,114.1868" style="stroke: #A80036; stroke-width: 0.75;"/><text fill="#000000" font-family="sans-serif" font-size="9.75" lengthAdjust="spacingAndGlyphs" textLength="18" x="470.4283" y="274.2849">0..1</text><!--link Contract to ProcessedSource--><path d="M549.2783,123.3833 C554.01,137.3123 558.852,151.5637 563.0115,163.8083 " fill="none" id="Contract-ProcessedSource" style="stroke: #A80036; stroke-width: 0.75; stroke-dasharray: 7.0,7.0;"/><polygon fill="#FFFFFF" points="546.111,114.0615,544.7185,119.2875,549.0068,122.5829,550.3994,117.3569,546.111,114.0615" style="stroke: #A80036; stroke-width: 0.75;"/><text fill="#000000" font-family="sans-serif" font-size="9.75" lengthAdjust="spacingAndGlyphs" textLength="6" x="554.8835" y="155.6932">1</text><!--link LinkReference to Bytecode--><path d="M141.297,198.375 C146.7818,198.375 152.2665,198.375 157.7505,198.375 " fill="none" id="LinkReference-Bytecode" style="stroke: #A80036; stroke-width: 0.75;"/><polygon fill="#A80036" points="167.6228,198.375,163.1228,195.375,158.6228,198.375,163.1228,201.375,167.6228,198.375" style="stroke: #A80036; stroke-width: 0.75;"/><text fill="#000000" font-family="sans-serif" font-size="9.75" lengthAdjust="spacingAndGlyphs" textLength="6" x="146.9984" y="195.7204">n</text><!--link ProcessedSource to Source--><path d="M615.5535,240.066 C635.3918,259.8502 658.917,283.3118 677.7375,302.0805 " fill="none" id="ProcessedSource-Source" style="stroke: #A80036; stroke-width: 0.75;"/><polygon fill="#FFFFFF" points="608.427,232.959,609.4951,238.2608,614.7999,239.3141,613.7318,234.0122,608.427,232.959" style="stroke: #A80036; stroke-width: 0.75;"/><text fill="#000000" font-family="sans-serif" font-size="9.75" lengthAdjust="spacingAndGlyphs" textLength="6" x="666.2829" y="293.9504">1</text><!--link Compiler to Compilation--><path d="M345.0203,336.75 C350.5185,336.75 356.016,336.75 361.5143,336.75 " fill="none" id="Compiler-Compilation" style="stroke: #A80036; stroke-width: 0.75;"/><polygon fill="#A80036" points="371.4098,336.75,366.9098,333.75,362.4098,336.75,366.9098,339.75,371.4098,336.75" style="stroke: #A80036; stroke-width: 0.75;"/><text fill="#000000" font-family="sans-serif" font-size="9.75" lengthAdjust="spacingAndGlyphs" textLength="6" x="350.8727" y="333.8546">1</text><!--link Compilation to Source--><path d="M601.3215,336.75 C606.804,336.75 612.2858,336.75 617.7683,336.75 " fill="none" id="Compilation-Source" style="stroke: #A80036; stroke-width: 0.75;"/><polygon fill="#FFFFFF" points="591.453,336.75,595.953,339.75,600.453,336.75,595.953,333.75,591.453,336.75" style="stroke: #A80036; stroke-width: 0.75;"/><text fill="#000000" font-family="sans-serif" font-size="9.75" lengthAdjust="spacingAndGlyphs" textLength="6" x="605.8508" y="334.2024">n</text><!--link Compilation to SourceMap--><path d="M481.5,400.866 C481.5,413.2757 481.5,425.5733 481.5,435.7218 " fill="none" id="Compilation-SourceMap" style="stroke: #A80036; stroke-width: 0.75;"/><polygon fill="#A80036" points="481.5,390.9285,478.5,395.4285,481.5,399.9285,484.5,395.4285,481.5,390.9285" style="stroke: #A80036; stroke-width: 0.75;"/><text fill="#000000" font-family="sans-serif" font-size="9.75" lengthAdjust="spacingAndGlyphs" textLength="18" x="461.7281" y="427.4914">0..1</text><!--
@startuml
scale 0.75



skinparam defaultMonospacedFontName Andale Mono





    class Contract << (R,darkorange) External Resource >> {
      + name: String
      + abi: ABI
      + {method} createBytecode: Maybe<Bytecode>
      + {method} callBytecode: Maybe<Bytecode>
      + {method} compilation: Maybe<Compilation>
      + {method} processedSource: Maybe<ProcessedSource>
      + {method} interface: ContractInterface
    }






    class Bytecode << (R,orchid) Resource >> {
      + bytes: Bytes
      + linkReferences : Set<LinkReference>
      + {method} instructions: Array<Instruction>
      ..
      - {field} <&key> id: ID //= hash(// ""bytes"" //)//
    }

    class Instruction << (O,lawngreen) Data Object >> {
      + programCounter: Integer
      + opcode: String
      + pushData: Bytes
      + meta: InstructionMeta
    }

    class InstructionMeta << (O,lawngreen) Data Object >> {
      + cost: Integer
      + pops: Integer
      + pushes: Integer
      + dynamic: Integer
    }

    Instruction *-right- "1" InstructionMeta
    Instruction "n" - -* Bytecode

    class Source << (R,orchid) Resource >> {
      + contents: String
      + sourcePath: Maybe<String>
      ..
      - {field} <&key> id: ID //= hash(// ""contents""//,// ""sourcePath"" //)//
    }




    class Compilation << (R,orchid) Resource >> {
      + compiler : Compiler
      + {method} sources : Array<Maybe<Source>>
      + {method} processedSources : Array<ProcessedSource>
      + sourceMaps: Array<SourceMap>
      ..
      - {field} <&key> id: ID //= hash(// ""compiler""//,// ""sourceIds"" //)//
      - sourceIds: Array<Maybe<ID>>
      - contractIds : Array<Maybe<ID>>
    }

  ProcessedSource "n" - -* Compilation







  class Compiler << (O,lawngreen) Data Object >> {
    + name : String
    + version : String
    + settings : Object
  }




    class LinkReference << (O,lawngreen) Data Object >> {
      + offsets: Array<ByteOffset>
      + name: Maybe<String>
      + length: Integer
    }

    class SourceMap << (O,lawngreen) Data Object >> {
      + json: String
    }


    class ProcessedSource << (O,lawngreen) Data Object >> {
      + ast: AST
      + {method} source: Source
      ..
      - sourceId: ID
    }










  Contract o- - "0..2" Bytecode


  Contract o- - "0..1" Compilation
  Contract o.. "1" ProcessedSource



  LinkReference "n" -* Bytecode



  ProcessedSource o- - "1" Source





  Compilation *-left- "1" Compiler

  Compilation o-right- "n" Source


  Compilation *- - "0..1" SourceMap






@enduml

PlantUML version 1.2018.14(Fri Dec 21 16:33:16 UTC 2018)
(GPL source distribution)
Java Runtime: OpenJDK Runtime Environment
JVM: OpenJDK 64-Bit Server VM
Java Version: 11.0.2+9
Operating System: Linux
OS Version: 4.15.0-1028-gcp
Default Encoding: UTF-8
Language: en
Country: US
--></g></svg>