<?xml version="1.0" encoding="UTF-8" standalone="no"?><svg xmlns="http://www.w3.org/2000/svg" xmlns:xlink="http://www.w3.org/1999/xlink" contentScriptType="application/ecmascript" contentStyleType="text/css" height="217.5px" preserveAspectRatio="none" style="width:237px;height:217px;" version="1.1" viewBox="0 0 237 217" width="237.75px" zoomAndPan="magnify"><defs><filter height="300%" id="f13wcfb1zukuoi" width="300%" x="-1" y="-1"><feGaussianBlur result="blurOut" stdDeviation="1.5"/><feColorMatrix in="blurOut" result="blurOut2" type="matrix" values="0 0 0 0 0 0 0 0 0 0 0 0 0 0 0 0 0 0 .4 0"/><feOffset dx="3.0" dy="3.0" in="blurOut2" result="blurOut3"/><feBlend in="SourceGraphic" in2="blurOut3" mode="normal"/></filter></defs><g><!--class Network--><rect fill="#FEFECE" filter="url(#f13wcfb1zukuoi)" height="98.0742" id="Network" style="stroke: #A80036; stroke-width: 1.125;" width="149" x="4.5" y="6"/><ellipse cx="49.9375" cy="20.2266" fill="#DA70D6" rx="8.25" ry="8.25" style="stroke: #A80036; stroke-width: 0.75;"/><path d="M50.8398,20.332 Q51.1094,20.3906 51.3086,20.6016 Q51.5195,20.8008 51.8125,21.3867 L53.4883,24.7266 L51.4727,24.7266 L50.3477,22.3828 Q50.3008,22.2773 50.2188,22.1016 Q49.7266,21.0586 49.0586,21.0586 L48.4727,21.0586 L48.4727,24.7266 L46.6445,24.7266 L46.6445,15.4336 L49.293,15.4336 Q51.0859,15.4336 51.8594,16.0664 Q52.6445,16.6992 52.6445,18.1289 Q52.6445,19.0898 52.1758,19.6641 Q51.7188,20.2266 50.8398,20.332 Z M48.4727,16.9805 L48.4727,19.5117 L49.3398,19.5117 Q50.1016,19.5117 50.418,19.2188 Q50.7461,18.9141 50.7461,18.2344 Q50.7461,17.5664 50.418,17.2734 Q50.1016,16.9805 49.3398,16.9805 L48.4727,16.9805 Z "/><text fill="#000000" font-family="sans-serif" font-size="9" font-style="italic" lengthAdjust="spacingAndGlyphs" textLength="54.75" x="63.8125" y="18.104">«Resource»</text><text fill="#000000" font-family="sans-serif" font-size="9" lengthAdjust="spacingAndGlyphs" textLength="38.25" x="72.0625" y="28.5806">Network</text><line style="stroke: #A80036; stroke-width: 1.125;" x1="5.25" x2="152.75" y1="34.4531" y2="34.4531"/><ellipse cx="12.75" cy="43.3799" fill="none" rx="2.25" ry="2.25" style="stroke: #038048; stroke-width: 0.75;"/><text fill="#000000" font-family="sans-serif" font-size="8.25" lengthAdjust="spacingAndGlyphs" textLength="58.5" x="19.5" y="45.111">name : String</text><ellipse cx="12.75" cy="52.9834" fill="none" rx="2.25" ry="2.25" style="stroke: #038048; stroke-width: 0.75;"/><text fill="#000000" font-family="sans-serif" font-size="8.25" lengthAdjust="spacingAndGlyphs" textLength="93" x="19.5" y="54.7145">networkId : NetworkID</text><ellipse cx="12.75" cy="62.5869" fill="none" rx="2.25" ry="2.25" style="stroke: #038048; stroke-width: 0.75;"/><text fill="#000000" font-family="sans-serif" font-size="8.25" lengthAdjust="spacingAndGlyphs" textLength="82.5" x="19.5" y="64.318">historicBlock: Block</text><ellipse cx="12.75" cy="72.1904" fill="#84BE84" rx="2.25" ry="2.25" style="stroke: #038048; stroke-width: 0.75;"/><text fill="#000000" font-family="sans-serif" font-size="8.25" lengthAdjust="spacingAndGlyphs" textLength="97.5" x="19.5" y="73.9215">fork: Maybe&lt;Network&gt;</text><line style="stroke: #A80036; stroke-width: 0.75; stroke-dasharray: 1.0,2.0;" x1="5.25" x2="152.75" y1="78.8672" y2="78.8672"/><rect fill="none" height="4.5" style="stroke: #C82930; stroke-width: 0.75;" width="4.5" x="10.5" y="85.5439"/><path d="M24.0313,83.9082 C23.0825,83.9082 22.3125,84.6782 22.3125,85.627 C22.3125,85.737 22.3352,85.8311 22.3558,85.9281 L20.25,88.0339 L20.25,89.4089 L22.3125,89.4089 L22.3125,88.0339 L23.6875,88.0339 L23.6875,87.3464 L23.7308,87.3031 C23.8271,87.3237 23.9213,87.3464 24.0319,87.3464 C24.9807,87.3464 25.7507,86.5764 25.7507,85.6276 C25.7507,84.6789 24.9807,83.9089 24.0319,83.9089 M24.3757,84.5964 C24.7538,84.5964 25.0632,84.9058 25.0632,85.2839 C25.0632,85.662 24.7538,85.9714 24.3757,85.9714 C23.9976,85.9714 23.6882,85.662 23.6882,85.2839 C23.6882,84.9058 23.9976,84.5964 24.3757,84.5964 " fill="#000000" style="stroke: ; stroke-width: 0.0; stroke-dasharray: ;"/><text fill="#000000" font-family="sans-serif" font-size="8.25" lengthAdjust="spacingAndGlyphs" textLength="37.5" x="29.5" y="89.525">id: ID = [</text><text fill="#000000" font-family="sans-serif" font-size="8.25" font-style="italic" lengthAdjust="spacingAndGlyphs" textLength="69" x="67" y="89.525">to be completed</text><path d="M141.8771,83.9082 C141.8359,83.9082 141.8049,83.9385 141.7912,83.9728 L139.7713,88.6568 L139.75,88.786 L139.75,89.345 C139.75,89.3862 139.7734,89.4096 139.8146,89.4096 L144.4986,89.4096 C144.5398,89.4096 144.5632,89.3862 144.5632,89.345 L144.5632,88.786 L144.5419,88.6568 L142.522,83.9728 C142.5082,83.9385 142.4773,83.9082 142.4361,83.9082 L141.8771,83.9082 M141.8125,85.9707 L142.5,85.9707 L142.5,87.3457 L141.8125,87.3457 L141.8125,85.9707 M141.8125,88.0332 L142.5,88.0332 L142.5,88.7207 L141.8125,88.7207 L141.8125,88.0332 " fill="#000000" style="stroke: ; stroke-width: 0.0; stroke-dasharray: ;"/><text fill="#000000" font-family="sans-serif" font-size="8.25" lengthAdjust="spacingAndGlyphs" textLength="3" x="146" y="89.525">]</text><rect fill="none" height="4.5" style="stroke: #C82930; stroke-width: 0.75;" width="4.5" x="10.5" y="95.1475"/><text fill="#000000" font-family="sans-serif" font-size="8.25" lengthAdjust="spacingAndGlyphs" textLength="78.75" x="19.5" y="99.1285">forkId: Maybe&lt;ID&gt;</text><!--class Block--><rect fill="#FEFECE" filter="url(#f13wcfb1zukuoi)" height="59.6602" id="Block" style="stroke: #A80036; stroke-width: 1.125;" width="93.75" x="32.25" y="150"/><ellipse cx="46.5375" cy="164.2266" fill="#7CFC00" rx="8.25" ry="8.25" style="stroke: #A80036; stroke-width: 0.75;"/><path d="M46.6195,160.9102 Q45.9164,160.9102 45.5883,161.6602 Q45.2719,162.4102 45.2719,164.0859 Q45.2719,165.7617 45.5883,166.5117 Q45.9164,167.2617 46.6195,167.2617 Q47.3344,167.2617 47.6508,166.5117 Q47.9789,165.7617 47.9789,164.0859 Q47.9789,162.4102 47.6508,161.6602 Q47.3344,160.9102 46.6195,160.9102 Z M43.3617,164.0859 Q43.3617,161.707 44.182,160.4883 Q45.0141,159.2578 46.6195,159.2578 Q48.2367,159.2578 49.057,160.4883 Q49.8891,161.707 49.8891,164.0859 Q49.8891,166.4648 49.057,167.6836 Q48.2367,168.9023 46.6195,168.9023 Q45.0141,168.9023 44.182,167.6836 Q43.3617,166.4648 43.3617,164.0859 Z "/><text fill="#000000" font-family="sans-serif" font-size="9" font-style="italic" lengthAdjust="spacingAndGlyphs" textLength="66" x="56.2125" y="162.104">«Data Object»</text><text fill="#000000" font-family="sans-serif" font-size="9" lengthAdjust="spacingAndGlyphs" textLength="24.75" x="76.8375" y="172.5806">Block</text><line style="stroke: #A80036; stroke-width: 1.125;" x1="33" x2="125.25" y1="178.4531" y2="178.4531"/><ellipse cx="40.5" cy="187.3799" fill="none" rx="2.25" ry="2.25" style="stroke: #038048; stroke-width: 0.75;"/><text fill="#000000" font-family="sans-serif" font-size="8.25" lengthAdjust="spacingAndGlyphs" textLength="65.25" x="47.25" y="189.111">height : Integer</text><ellipse cx="40.5" cy="196.9834" fill="none" rx="2.25" ry="2.25" style="stroke: #038048; stroke-width: 0.75;"/><text fill="#000000" font-family="sans-serif" font-size="8.25" lengthAdjust="spacingAndGlyphs" textLength="74.25" x="47.25" y="198.7145">hash : BlockHash</text><line style="stroke: #A80036; stroke-width: 1.125;" x1="33" x2="125.25" y1="203.6602" y2="203.6602"/><!--link Network to Network--><path d="M163.8045,43.6147 C173.6183,45.7433 180,49.5803 180,55.125 C180,62.367 169.1138,66.6952 153.9105,68.1097 " fill="none" id="Network-Network" style="stroke: #A80036; stroke-width: 0.75;"/><polygon fill="#FFFFFF" points="153.9105,42.1403,157.9189,45.771,162.8121,43.4674,158.8037,39.8366,153.9105,42.1403" style="stroke: #A80036; stroke-width: 0.75;"/><text fill="#000000" font-family="sans-serif" font-size="9.75" lengthAdjust="spacingAndGlyphs" textLength="44.25" x="184.5" y="58.5502">«refines»</text><text fill="#000000" font-family="sans-serif" font-size="9.75" lengthAdjust="spacingAndGlyphs" textLength="18" x="159.5482" y="66.4137">0..1</text><!--link Network to Block--><path d="M79.125,114.1388 C79.125,126.5257 79.125,139.0976 79.125,149.8481 " fill="none" id="Network-Block" style="stroke: #A80036; stroke-width: 0.75;"/><polygon fill="#A80036" points="79.125,104.2823,76.125,108.7823,79.125,113.2823,82.125,108.7823,79.125,104.2823" style="stroke: #A80036; stroke-width: 0.75;"/><text fill="#000000" font-family="sans-serif" font-size="9.75" lengthAdjust="spacingAndGlyphs" textLength="6" x="72.6281" y="141.7591">1</text><!--
@startuml
scale 0.75


skinparam defaultMonospacedFontName Andale Mono















    class Network << (R,orchid) Resource >> {
      + name : String
      + networkId : NetworkID
      + historicBlock: Block
      + {method} fork: Maybe<Network>
      ..
      - {field} <&key> id: ID = [//to be completed <&warning>//]
      - forkId: Maybe<ID>
    }


      class Block << (O,lawngreen) Data Object >> {
        + height : Integer
        + hash : BlockHash
      }

      Network o- - "0..1" Network : <<refines>>
      Network *- - "1" Block











































@enduml

PlantUML version 1.2018.14(Fri Dec 21 16:33:16 UTC 2018)
(GPL source distribution)
Java Runtime: OpenJDK Runtime Environment
JVM: OpenJDK 64-Bit Server VM
Java Version: 11.0.2+9
Operating System: Linux
OS Version: 4.15.0-1028-gcp
Default Encoding: UTF-8
Language: en
Country: US
--></g></svg>