<?xml version="1.0" encoding="UTF-8" standalone="no"?><svg xmlns="http://www.w3.org/2000/svg" xmlns:xlink="http://www.w3.org/1999/xlink" contentScriptType="application/ecmascript" contentStyleType="text/css" height="661px" preserveAspectRatio="none" style="width:622px;height:661px;" version="1.1" viewBox="0 0 622 661" width="622px" zoomAndPan="magnify"><defs><filter height="300%" id="f94ovrim5hkm6" width="300%" x="-1" y="-1"><feGaussianBlur result="blurOut" stdDeviation="2.0"/><feColorMatrix in="blurOut" result="blurOut2" type="matrix" values="0 0 0 0 0 0 0 0 0 0 0 0 0 0 0 0 0 0 .4 0"/><feOffset dx="4.0" dy="4.0" in="blurOut2" result="blurOut3"/><feBlend in="SourceGraphic" in2="blurOut3" mode="normal"/></filter></defs><g><!--cluster Querying--><rect fill="#FFFFFF" filter="url(#f94ovrim5hkm6)" height="626" style="stroke: #000000; stroke-width: 1.5;" width="383" x="228" y="24"/><text fill="#000000" font-family="sans-serif" font-size="14" font-weight="bold" lengthAdjust="spacingAndGlyphs" textLength="72" x="383.5" y="38.9951">Querying</text><ellipse cx="419.4876" cy="496.7975" fill="#FEFECE" filter="url(#f94ovrim5hkm6)" rx="156.9876" ry="33.7975" style="stroke: #A80036; stroke-width: 1.5;"/><text fill="#000000" font-family="sans-serif" font-size="14" lengthAdjust="spacingAndGlyphs" textLength="297" x="270.9876" y="501.446">Query known instances on a given network</text><ellipse cx="419.3356" cy="86.9671" fill="#FEFECE" filter="url(#f94ovrim5hkm6)" rx="127.8356" ry="27.9671" style="stroke: #A80036; stroke-width: 1.5;"/><text fill="#000000" font-family="sans-serif" font-size="14" lengthAdjust="spacingAndGlyphs" textLength="236" x="301.3356" y="91.6156">Query all networks for a given type</text><ellipse cx="419.3838" cy="186.9768" fill="#FEFECE" filter="url(#f94ovrim5hkm6)" rx="175.3838" ry="37.4768" style="stroke: #A80036; stroke-width: 1.5;"/><text fill="#000000" font-family="sans-serif" font-size="14" lengthAdjust="spacingAndGlyphs" textLength="335" x="251.8838" y="191.6252">Query all networks for instances with a given role</text><ellipse cx="419.5055" cy="600.2011" fill="#FEFECE" filter="url(#f94ovrim5hkm6)" rx="156.5055" ry="33.7011" style="stroke: #A80036; stroke-width: 1.5;"/><text fill="#000000" font-family="sans-serif" font-size="14" lengthAdjust="spacingAndGlyphs" textLength="296" x="271.5055" y="604.8495">Query for instance by network and address</text><ellipse cx="419.2683" cy="291.8537" fill="#FEFECE" filter="url(#f94ovrim5hkm6)" rx="149.7683" ry="32.3537" style="stroke: #A80036; stroke-width: 1.5;"/><text fill="#000000" font-family="sans-serif" font-size="14" lengthAdjust="spacingAndGlyphs" textLength="282" x="278.2683" y="296.5021">Query all contracts with a given bytecode</text><ellipse cx="419.4698" cy="393.894" fill="#FEFECE" filter="url(#f94ovrim5hkm6)" rx="157.4698" ry="33.894" style="stroke: #A80036; stroke-width: 1.5;"/><text fill="#000000" font-family="sans-serif" font-size="14" lengthAdjust="spacingAndGlyphs" textLength="298" x="270.4698" y="398.5424">Query for bytecode ignoring link references</text><!--entity Developer--><ellipse cx="95" cy="260.5" fill="#FEFECE" filter="url(#f94ovrim5hkm6)" rx="8" ry="8" style="stroke: #A80036; stroke-width: 2.0;"/><path d="M95,268.5 L95,295.5 M82,276.5 L108,276.5 M95,295.5 L82,310.5 M95,295.5 L108,310.5 " fill="none" filter="url(#f94ovrim5hkm6)" style="stroke: #A80036; stroke-width: 2.0;"/><text fill="#000000" font-family="sans-serif" font-size="14" lengthAdjust="spacingAndGlyphs" textLength="178" x="6" y="330.4951">Smart Contract Developer</text><!--link QueryInstance to QueryType--><path d="M419.5,149.109 C419.5,144.51 419.5,139.91 419.5,135.311 " fill="none" id="QueryInstance-QueryType" style="stroke: #A80036; stroke-width: 1.0; stroke-dasharray: 7.0,7.0;"/><polygon fill="none" points="412.5,135.143,419.5,115.143,426.5,135.143,412.5,135.143" style="stroke: #A80036; stroke-width: 1.0;"/><!--link QueryBytecodeUnlinked to QueryBytecode--><path d="M419.5,359.734 C419.5,354.694 419.5,349.654 419.5,344.614 " fill="none" id="QueryBytecodeUnlinked-QueryBytecode" style="stroke: #A80036; stroke-width: 1.0; stroke-dasharray: 7.0,7.0;"/><polygon fill="none" points="412.5,344.544,419.5,324.544,426.5,344.544,412.5,344.544" style="stroke: #A80036; stroke-width: 1.0;"/><!--link Developer to QueryNetwork--><path d="M119.359,333.632 C141.037,368.49 176.473,416.919 220,445 C241.853,459.098 267.384,469.385 292.718,476.886 " fill="none" id="Developer-QueryNetwork" style="stroke: #A80036; stroke-width: 1.0;"/><!--link Developer to QueryType--><path d="M117.425,250.246 C138.522,213.41 174.206,161.172 220,132 C244.96,116.1 274.833,105.787 303.734,99.107 " fill="none" id="Developer-QueryType" style="stroke: #A80036; stroke-width: 1.0;"/><!--link Developer to QueryInstance--><path d="M184.277,254.992 C196.207,250.406 208.349,245.949 220,242 C247.687,232.616 277.933,223.616 306.281,215.713 " fill="none" id="Developer-QueryInstance" style="stroke: #A80036; stroke-width: 1.0;"/><!--link Developer to QueryAddress--><path d="M104.7258,333.751 C118.857,390.794 152.282,492.341 220,548 C239.059,563.665 262.331,574.6596 286.144,582.365 " fill="none" id="Developer-QueryAddress" style="stroke: #A80036; stroke-width: 1.0;"/><!--link Developer to QueryBytecode--><path d="M184.125,292 C210.514,292 240.218,292 269.39,292 " fill="none" id="Developer-QueryBytecode" style="stroke: #A80036; stroke-width: 1.0;"/><!--
@startuml
left to right direction
:Smart Contract Developer: as :Developer:

rectangle Querying {
  (Query known instances on a given network) as (QueryNetwork)
  (Query all networks for a given type) as (QueryType)
  (Query all networks for instances with a given role) as (QueryInstance)
  (Query for instance by network and address) as (QueryAddress)
  (Query all contracts with a given bytecode) as (QueryBytecode)
  (Query for bytecode ignoring link references) as (QueryBytecodeUnlinked)

  QueryInstance .|> QueryType
  QueryBytecodeUnlinked .|> QueryBytecode
}

Developer - - QueryNetwork
Developer - - QueryType
Developer - - QueryInstance
Developer - - QueryAddress
Developer - - QueryBytecode

@enduml

PlantUML version 1.2018.14(Fri Dec 21 16:33:16 UTC 2018)
(GPL source distribution)
Java Runtime: OpenJDK Runtime Environment
JVM: OpenJDK 64-Bit Server VM
Java Version: 11.0.2+9
Operating System: Linux
OS Version: 4.15.0-1028-gcp
Default Encoding: UTF-8
Language: en
Country: US
--></g></svg>