<?xml version="1.0" encoding="UTF-8" standalone="no"?><svg xmlns="http://www.w3.org/2000/svg" xmlns:xlink="http://www.w3.org/1999/xlink" contentScriptType="application/ecmascript" contentStyleType="text/css" height="799.5px" preserveAspectRatio="none" style="width:589px;height:799px;" version="1.1" viewBox="0 0 589 799" width="589.5px" zoomAndPan="magnify"><defs><filter height="300%" id="f1habehjp5yxup" width="300%" x="-1" y="-1"><feGaussianBlur result="blurOut" stdDeviation="1.5"/><feColorMatrix in="blurOut" result="blurOut2" type="matrix" values="0 0 0 0 0 0 0 0 0 0 0 0 0 0 0 0 0 0 .4 0"/><feOffset dx="3.0" dy="3.0" in="blurOut2" result="blurOut3"/><feBlend in="SourceGraphic" in2="blurOut3" mode="normal"/></filter></defs><g><!--class Contract--><rect fill="#FEFECE" filter="url(#f1habehjp5yxup)" height="88.4707" id="Contract" style="stroke: #A80036; stroke-width: 1.125;" width="197.25" x="156.5625" y="6"/><ellipse cx="205.5" cy="20.2266" fill="#FF8C00" rx="8.25" ry="8.25" style="stroke: #A80036; stroke-width: 0.75;"/><path d="M206.4023,20.332 Q206.6719,20.3906 206.877,20.5957 Q207.082,20.8008 207.375,21.3867 L209.0508,24.7266 L207.0352,24.7266 L205.9102,22.3828 Q205.8633,22.2773 205.7813,22.1016 Q205.2891,21.0586 204.6211,21.0586 L204.0352,21.0586 L204.0352,24.7266 L202.207,24.7266 L202.207,15.4336 L204.8555,15.4336 Q206.6484,15.4336 207.4277,16.0664 Q208.207,16.6992 208.207,18.1289 Q208.207,19.0898 207.7441,19.6582 Q207.2813,20.2266 206.4023,20.332 Z M204.0352,16.9805 L204.0352,19.5117 L204.9023,19.5117 Q205.6641,19.5117 205.9863,19.2129 Q206.3086,18.9141 206.3086,18.2344 Q206.3086,17.5664 205.9863,17.2734 Q205.6641,16.9805 204.9023,16.9805 L204.0352,16.9805 Z "/><text fill="#000000" font-family="sans-serif" font-size="9" font-style="italic" lengthAdjust="spacingAndGlyphs" textLength="96" x="219.375" y="18.104">«External Resource»</text><text fill="#000000" font-family="sans-serif" font-size="9" lengthAdjust="spacingAndGlyphs" textLength="40.5" x="247.125" y="28.5806">Contract</text><line style="stroke: #A80036; stroke-width: 1.125;" x1="157.3125" x2="353.0625" y1="34.4531" y2="34.4531"/><ellipse cx="164.8125" cy="43.3799" fill="none" rx="2.25" ry="2.25" style="stroke: #038048; stroke-width: 0.75;"/><text fill="#000000" font-family="sans-serif" font-size="8.25" lengthAdjust="spacingAndGlyphs" textLength="55.5" x="171.5625" y="45.111">name: String</text><ellipse cx="164.8125" cy="52.9834" fill="none" rx="2.25" ry="2.25" style="stroke: #038048; stroke-width: 0.75;"/><text fill="#000000" font-family="sans-serif" font-size="8.25" lengthAdjust="spacingAndGlyphs" textLength="32.25" x="171.5625" y="54.7145">abi: ABI</text><line style="stroke: #A80036; stroke-width: 1.125;" x1="157.3125" x2="353.0625" y1="59.6602" y2="59.6602"/><ellipse cx="164.8125" cy="68.5869" fill="#84BE84" rx="2.25" ry="2.25" style="stroke: #038048; stroke-width: 0.75;"/><text fill="#000000" font-family="sans-serif" font-size="8.25" lengthAdjust="spacingAndGlyphs" textLength="145.5" x="171.5625" y="70.318">compilation: Maybe&lt;Compilation&gt;</text><ellipse cx="164.8125" cy="78.1904" fill="#84BE84" rx="2.25" ry="2.25" style="stroke: #038048; stroke-width: 0.75;"/><text fill="#000000" font-family="sans-serif" font-size="8.25" lengthAdjust="spacingAndGlyphs" textLength="177.75" x="171.5625" y="79.9215">sourceContract: Maybe&lt;SourceContract&gt;</text><ellipse cx="164.8125" cy="87.7939" fill="#84BE84" rx="2.25" ry="2.25" style="stroke: #038048; stroke-width: 0.75;"/><text fill="#000000" font-family="sans-serif" font-size="8.25" lengthAdjust="spacingAndGlyphs" textLength="117" x="171.5625" y="89.525">interface: ContractInterface</text><!--class Bytecode--><rect fill="#FEFECE" filter="url(#f1habehjp5yxup)" height="78.8672" id="Bytecode" style="stroke: #A80036; stroke-width: 1.125;" width="177.75" x="224.0625" y="712.875"/><ellipse cx="284.25" cy="727.1016" fill="#DA70D6" rx="8.25" ry="8.25" style="stroke: #A80036; stroke-width: 0.75;"/><path d="M285.1523,727.207 Q285.4219,727.2656 285.627,727.4707 Q285.832,727.6758 286.125,728.2617 L287.8008,731.6016 L285.7852,731.6016 L284.6602,729.2578 Q284.6133,729.1523 284.5313,728.9766 Q284.0391,727.9336 283.3711,727.9336 L282.7852,727.9336 L282.7852,731.6016 L280.957,731.6016 L280.957,722.3086 L283.6055,722.3086 Q285.3984,722.3086 286.1777,722.9414 Q286.957,723.5742 286.957,725.0039 Q286.957,725.9648 286.4941,726.5332 Q286.0313,727.1016 285.1523,727.207 Z M282.7852,723.8555 L282.7852,726.3867 L283.6523,726.3867 Q284.4141,726.3867 284.7363,726.0879 Q285.0586,725.7891 285.0586,725.1094 Q285.0586,724.4414 284.7363,724.1484 Q284.4141,723.8555 283.6523,723.8555 L282.7852,723.8555 Z "/><text fill="#000000" font-family="sans-serif" font-size="9" font-style="italic" lengthAdjust="spacingAndGlyphs" textLength="54" x="298.125" y="724.979">«Resource»</text><text fill="#000000" font-family="sans-serif" font-size="9" lengthAdjust="spacingAndGlyphs" textLength="43.5" x="303.375" y="735.4556">Bytecode</text><line style="stroke: #A80036; stroke-width: 1.125;" x1="224.8125" x2="401.0625" y1="741.3281" y2="741.3281"/><ellipse cx="232.3125" cy="750.2549" fill="none" rx="2.25" ry="2.25" style="stroke: #038048; stroke-width: 0.75;"/><text fill="#000000" font-family="sans-serif" font-size="8.25" lengthAdjust="spacingAndGlyphs" textLength="84" x="239.0625" y="751.986">bytes: Array&lt;Byte&gt;</text><ellipse cx="232.3125" cy="759.8584" fill="none" rx="2.25" ry="2.25" style="stroke: #038048; stroke-width: 0.75;"/><text fill="#000000" font-family="sans-serif" font-size="8.25" lengthAdjust="spacingAndGlyphs" textLength="158.25" x="239.0625" y="761.5895">linkReferences : Set&lt;LinkReference&gt;</text><ellipse cx="232.3125" cy="769.4619" fill="#84BE84" rx="2.25" ry="2.25" style="stroke: #038048; stroke-width: 0.75;"/><text fill="#000000" font-family="sans-serif" font-size="8.25" lengthAdjust="spacingAndGlyphs" textLength="137.25" x="239.0625" y="771.193">instructions: Array&lt;Instruction&gt;</text><line style="stroke: #A80036; stroke-width: 0.75; stroke-dasharray: 1.0,2.0;" x1="224.8125" x2="401.0625" y1="776.1387" y2="776.1387"/><rect fill="none" height="4.5" style="stroke: #C82930; stroke-width: 0.75;" width="4.5" x="230.0625" y="782.8154"/><path d="M243.5938,781.1797 C242.645,781.1797 241.875,781.9497 241.875,782.8984 C241.875,783.0084 241.8977,783.1026 241.9183,783.1996 L239.8125,785.3054 L239.8125,786.6804 L241.875,786.6804 L241.875,785.3054 L243.25,785.3054 L243.25,784.6179 L243.2933,784.5746 C243.3896,784.5952 243.4838,784.6179 243.5944,784.6179 C244.5432,784.6179 245.3132,783.8479 245.3132,782.8991 C245.3132,781.9504 244.5432,781.1804 243.5944,781.1804 M243.9382,781.8679 C244.3163,781.8679 244.6257,782.1773 244.6257,782.5554 C244.6257,782.9335 244.3163,783.2429 243.9382,783.2429 C243.5601,783.2429 243.2507,782.9335 243.2507,782.5554 C243.2507,782.1773 243.5601,781.8679 243.9382,781.8679 " fill="#000000" style="stroke: ; stroke-width: 0.0; stroke-dasharray: ;"/><text fill="#000000" font-family="sans-serif" font-size="8.25" lengthAdjust="spacingAndGlyphs" textLength="21.75" x="249.0625" y="786.7965">id: ID</text><text fill="#000000" font-family="sans-serif" font-size="8.25" font-style="italic" lengthAdjust="spacingAndGlyphs" textLength="33" x="273.8125" y="786.7965">= hash(</text><text fill="#000000" font-family="sans-serif" font-size="8.25" lengthAdjust="spacingAndGlyphs" textLength="0" x="309.8125" y="786.7965"/><text fill="#000000" font-family="Andale Mono" font-size="8.25" lengthAdjust="spacingAndGlyphs" textLength="23.25" x="309.8125" y="786.7965">bytes</text><text fill="#000000" font-family="sans-serif" font-size="8.25" lengthAdjust="spacingAndGlyphs" textLength="0" x="336.0625" y="786.7965"/><text fill="#000000" font-family="sans-serif" font-size="8.25" font-style="italic" lengthAdjust="spacingAndGlyphs" textLength="3" x="336.0625" y="786.7965">)</text><!--class Instruction--><rect fill="#FEFECE" filter="url(#f1habehjp5yxup)" height="78.8672" id="Instruction" style="stroke: #A80036; stroke-width: 1.125;" width="121.5" x="336" y="541.875"/><ellipse cx="363.1125" cy="556.1016" fill="#7CFC00" rx="8.25" ry="8.25" style="stroke: #A80036; stroke-width: 0.75;"/><path d="M363.1945,552.7852 Q362.4914,552.7852 362.1691,553.5352 Q361.8469,554.2852 361.8469,555.9609 Q361.8469,557.6367 362.1691,558.3867 Q362.4914,559.1367 363.1945,559.1367 Q363.9094,559.1367 364.2316,558.3867 Q364.5539,557.6367 364.5539,555.9609 Q364.5539,554.2852 364.2316,553.5352 Q363.9094,552.7852 363.1945,552.7852 Z M359.9367,555.9609 Q359.9367,553.582 360.7629,552.3574 Q361.5891,551.1328 363.1945,551.1328 Q364.8117,551.1328 365.6379,552.3574 Q366.4641,553.582 366.4641,555.9609 Q366.4641,558.3398 365.6379,559.5586 Q364.8117,560.7773 363.1945,560.7773 Q361.5891,560.7773 360.7629,559.5586 Q359.9367,558.3398 359.9367,555.9609 Z "/><text fill="#000000" font-family="sans-serif" font-size="9" font-style="italic" lengthAdjust="spacingAndGlyphs" textLength="65.25" x="375.6375" y="553.979">«Data Object»</text><text fill="#000000" font-family="sans-serif" font-size="9" lengthAdjust="spacingAndGlyphs" textLength="50.25" x="383.1375" y="564.4556">Instruction</text><line style="stroke: #A80036; stroke-width: 1.125;" x1="336.75" x2="456.75" y1="570.3281" y2="570.3281"/><ellipse cx="344.25" cy="579.2549" fill="none" rx="2.25" ry="2.25" style="stroke: #038048; stroke-width: 0.75;"/><text fill="#000000" font-family="sans-serif" font-size="8.25" lengthAdjust="spacingAndGlyphs" textLength="102" x="351" y="580.986">programCounter: String</text><ellipse cx="344.25" cy="588.8584" fill="none" rx="2.25" ry="2.25" style="stroke: #038048; stroke-width: 0.75;"/><text fill="#000000" font-family="sans-serif" font-size="8.25" lengthAdjust="spacingAndGlyphs" textLength="66.75" x="351" y="590.5895">opcode: Integer</text><ellipse cx="344.25" cy="598.4619" fill="none" rx="2.25" ry="2.25" style="stroke: #038048; stroke-width: 0.75;"/><text fill="#000000" font-family="sans-serif" font-size="8.25" lengthAdjust="spacingAndGlyphs" textLength="72" x="351" y="600.193">pushData: String</text><ellipse cx="344.25" cy="608.0654" fill="none" rx="2.25" ry="2.25" style="stroke: #038048; stroke-width: 0.75;"/><text fill="#000000" font-family="sans-serif" font-size="8.25" lengthAdjust="spacingAndGlyphs" textLength="93" x="351" y="609.7965">meta: InstructionMeta</text><line style="stroke: #A80036; stroke-width: 1.125;" x1="336.75" x2="456.75" y1="614.7422" y2="614.7422"/><!--class InstructionMeta--><rect fill="#FEFECE" filter="url(#f1habehjp5yxup)" height="78.8672" id="InstructionMeta" style="stroke: #A80036; stroke-width: 1.125;" width="97.5" x="483.75" y="541.875"/><ellipse cx="495" cy="556.1016" fill="#7CFC00" rx="8.25" ry="8.25" style="stroke: #A80036; stroke-width: 0.75;"/><path d="M495.082,552.7852 Q494.3789,552.7852 494.0566,553.5352 Q493.7344,554.2852 493.7344,555.9609 Q493.7344,557.6367 494.0566,558.3867 Q494.3789,559.1367 495.082,559.1367 Q495.7969,559.1367 496.1191,558.3867 Q496.4414,557.6367 496.4414,555.9609 Q496.4414,554.2852 496.1191,553.5352 Q495.7969,552.7852 495.082,552.7852 Z M491.8242,555.9609 Q491.8242,553.582 492.6504,552.3574 Q493.4766,551.1328 495.082,551.1328 Q496.6992,551.1328 497.5254,552.3574 Q498.3516,553.582 498.3516,555.9609 Q498.3516,558.3398 497.5254,559.5586 Q496.6992,560.7773 495.082,560.7773 Q493.4766,560.7773 492.6504,559.5586 Q491.8242,558.3398 491.8242,555.9609 Z "/><text fill="#000000" font-family="sans-serif" font-size="9" font-style="italic" lengthAdjust="spacingAndGlyphs" textLength="65.25" x="509.625" y="553.979">«Data Object»</text><text fill="#000000" font-family="sans-serif" font-size="9" lengthAdjust="spacingAndGlyphs" textLength="73.5" x="505.5" y="564.4556">InstructionMeta</text><line style="stroke: #A80036; stroke-width: 1.125;" x1="484.5" x2="580.5" y1="570.3281" y2="570.3281"/><ellipse cx="492" cy="579.2549" fill="none" rx="2.25" ry="2.25" style="stroke: #038048; stroke-width: 0.75;"/><text fill="#000000" font-family="sans-serif" font-size="8.25" lengthAdjust="spacingAndGlyphs" textLength="54" x="498.75" y="580.986">cost: Integer</text><ellipse cx="492" cy="588.8584" fill="none" rx="2.25" ry="2.25" style="stroke: #038048; stroke-width: 0.75;"/><text fill="#000000" font-family="sans-serif" font-size="8.25" lengthAdjust="spacingAndGlyphs" textLength="57" x="498.75" y="590.5895">pops: Integer</text><ellipse cx="492" cy="598.4619" fill="none" rx="2.25" ry="2.25" style="stroke: #038048; stroke-width: 0.75;"/><text fill="#000000" font-family="sans-serif" font-size="8.25" lengthAdjust="spacingAndGlyphs" textLength="67.5" x="498.75" y="600.193">pushes: Integer</text><ellipse cx="492" cy="608.0654" fill="none" rx="2.25" ry="2.25" style="stroke: #038048; stroke-width: 0.75;"/><text fill="#000000" font-family="sans-serif" font-size="8.25" lengthAdjust="spacingAndGlyphs" textLength="71.25" x="498.75" y="609.7965">dynamic: Integer</text><line style="stroke: #A80036; stroke-width: 1.125;" x1="484.5" x2="580.5" y1="614.7422" y2="614.7422"/><!--class Source--><rect fill="#FEFECE" filter="url(#f1habehjp5yxup)" height="69.2637" id="Source" style="stroke: #A80036; stroke-width: 1.125;" width="187" x="331.3125" y="279"/><ellipse cx="396.125" cy="293.2266" fill="#DA70D6" rx="8.25" ry="8.25" style="stroke: #A80036; stroke-width: 0.75;"/><path d="M397.0273,293.332 Q397.2969,293.3906 397.502,293.5957 Q397.707,293.8008 398,294.3867 L399.6758,297.7266 L397.6602,297.7266 L396.5352,295.3828 Q396.4883,295.2773 396.4063,295.1016 Q395.9141,294.0586 395.2461,294.0586 L394.6602,294.0586 L394.6602,297.7266 L392.832,297.7266 L392.832,288.4336 L395.4805,288.4336 Q397.2734,288.4336 398.0527,289.0664 Q398.832,289.6992 398.832,291.1289 Q398.832,292.0898 398.3691,292.6582 Q397.9063,293.2266 397.0273,293.332 Z M394.6602,289.9805 L394.6602,292.5117 L395.5273,292.5117 Q396.2891,292.5117 396.6113,292.2129 Q396.9336,291.9141 396.9336,291.2344 Q396.9336,290.5664 396.6113,290.2734 Q396.2891,289.9805 395.5273,289.9805 L394.6602,289.9805 Z "/><text fill="#000000" font-family="sans-serif" font-size="9" font-style="italic" lengthAdjust="spacingAndGlyphs" textLength="54" x="410" y="291.104">«Resource»</text><text fill="#000000" font-family="sans-serif" font-size="9" lengthAdjust="spacingAndGlyphs" textLength="33" x="420.5" y="301.5806">Source</text><line style="stroke: #A80036; stroke-width: 1.125;" x1="332.0625" x2="517.5625" y1="307.4531" y2="307.4531"/><ellipse cx="339.5625" cy="316.3799" fill="none" rx="2.25" ry="2.25" style="stroke: #038048; stroke-width: 0.75;"/><text fill="#000000" font-family="sans-serif" font-size="8.25" lengthAdjust="spacingAndGlyphs" textLength="68.25" x="346.3125" y="318.111">contents: String</text><ellipse cx="339.5625" cy="325.9834" fill="none" rx="2.25" ry="2.25" style="stroke: #038048; stroke-width: 0.75;"/><text fill="#000000" font-family="sans-serif" font-size="8.25" lengthAdjust="spacingAndGlyphs" textLength="120" x="346.3125" y="327.7145">sourcePath: Maybe&lt;String&gt;</text><line style="stroke: #A80036; stroke-width: 0.75; stroke-dasharray: 1.0,2.0;" x1="332.0625" x2="517.5625" y1="332.6602" y2="332.6602"/><rect fill="none" height="4.5" style="stroke: #C82930; stroke-width: 0.75;" width="4.5" x="337.3125" y="339.3369"/><path d="M350.8438,337.7012 C349.895,337.7012 349.125,338.4712 349.125,339.4199 C349.125,339.5299 349.1477,339.6241 349.1683,339.721 L347.0625,341.8269 L347.0625,343.2019 L349.125,343.2019 L349.125,341.8269 L350.5,341.8269 L350.5,341.1394 L350.5433,341.096 C350.6396,341.1167 350.7338,341.1394 350.8444,341.1394 C351.7932,341.1394 352.5632,340.3694 352.5632,339.4206 C352.5632,338.4719 351.7932,337.7019 350.8444,337.7019 M351.1882,338.3894 C351.5663,338.3894 351.8757,338.6987 351.8757,339.0769 C351.8757,339.455 351.5663,339.7644 351.1882,339.7644 C350.8101,339.7644 350.5007,339.455 350.5007,339.0769 C350.5007,338.6987 350.8101,338.3894 351.1882,338.3894 " fill="#000000" style="stroke: ; stroke-width: 0.0; stroke-dasharray: ;"/><text fill="#000000" font-family="sans-serif" font-size="8.25" lengthAdjust="spacingAndGlyphs" textLength="21.75" x="356.3125" y="343.318">id: ID</text><text fill="#000000" font-family="sans-serif" font-size="8.25" font-style="italic" lengthAdjust="spacingAndGlyphs" textLength="33" x="381.0625" y="343.318">= hash(</text><text fill="#000000" font-family="sans-serif" font-size="8.25" lengthAdjust="spacingAndGlyphs" textLength="0" x="417.0625" y="343.318"/><text fill="#000000" font-family="Andale Mono" font-size="8.25" lengthAdjust="spacingAndGlyphs" textLength="36.75" x="417.0625" y="343.318">contents</text><text fill="#000000" font-family="sans-serif" font-size="8.25" font-style="italic" lengthAdjust="spacingAndGlyphs" textLength="3" x="453.8125" y="343.318">,</text><text fill="#000000" font-family="sans-serif" font-size="8.25" lengthAdjust="spacingAndGlyphs" textLength="0" x="459.8125" y="343.318"/><text fill="#000000" font-family="Andale Mono" font-size="8.25" lengthAdjust="spacingAndGlyphs" textLength="48" x="459.8125" y="343.318">sourcePath</text><text fill="#000000" font-family="sans-serif" font-size="8.25" lengthAdjust="spacingAndGlyphs" textLength="0" x="510.8125" y="343.318"/><text fill="#000000" font-family="sans-serif" font-size="8.25" font-style="italic" lengthAdjust="spacingAndGlyphs" textLength="3" x="510.8125" y="343.318">)</text><!--class Compilation--><rect fill="#FEFECE" filter="url(#f1habehjp5yxup)" height="98.0742" id="Compilation" style="stroke: #A80036; stroke-width: 1.125;" width="181" x="120.5625" y="264.375"/><ellipse cx="180.5" cy="278.6016" fill="#DA70D6" rx="8.25" ry="8.25" style="stroke: #A80036; stroke-width: 0.75;"/><path d="M181.4023,278.707 Q181.6719,278.7656 181.877,278.9707 Q182.082,279.1758 182.375,279.7617 L184.0508,283.1016 L182.0352,283.1016 L180.9102,280.7578 Q180.8633,280.6523 180.7813,280.4766 Q180.2891,279.4336 179.6211,279.4336 L179.0352,279.4336 L179.0352,283.1016 L177.207,283.1016 L177.207,273.8086 L179.8555,273.8086 Q181.6484,273.8086 182.4277,274.4414 Q183.207,275.0742 183.207,276.5039 Q183.207,277.4648 182.7441,278.0332 Q182.2813,278.6016 181.4023,278.707 Z M179.0352,275.3555 L179.0352,277.8867 L179.9023,277.8867 Q180.6641,277.8867 180.9863,277.5879 Q181.3086,277.2891 181.3086,276.6094 Q181.3086,275.9414 180.9863,275.6484 Q180.6641,275.3555 179.9023,275.3555 L179.0352,275.3555 Z "/><text fill="#000000" font-family="sans-serif" font-size="9" font-style="italic" lengthAdjust="spacingAndGlyphs" textLength="54" x="196.25" y="276.479">«Resource»</text><text fill="#000000" font-family="sans-serif" font-size="9" lengthAdjust="spacingAndGlyphs" textLength="54.75" x="195.875" y="286.9556">Compilation</text><line style="stroke: #A80036; stroke-width: 1.125;" x1="121.3125" x2="300.8125" y1="292.8281" y2="292.8281"/><ellipse cx="128.8125" cy="301.7549" fill="none" rx="2.25" ry="2.25" style="stroke: #038048; stroke-width: 0.75;"/><text fill="#000000" font-family="sans-serif" font-size="8.25" lengthAdjust="spacingAndGlyphs" textLength="84" x="135.5625" y="303.486">compiler : Compiler</text><ellipse cx="128.8125" cy="311.3584" fill="#84BE84" rx="2.25" ry="2.25" style="stroke: #038048; stroke-width: 0.75;"/><text fill="#000000" font-family="sans-serif" font-size="8.25" lengthAdjust="spacingAndGlyphs" textLength="150" x="135.5625" y="313.0895">sources : Array&lt;Maybe&lt;Source&gt;&gt;</text><ellipse cx="128.8125" cy="320.9619" fill="#84BE84" rx="2.25" ry="2.25" style="stroke: #038048; stroke-width: 0.75;"/><text fill="#000000" font-family="sans-serif" font-size="8.25" lengthAdjust="spacingAndGlyphs" textLength="150.75" x="135.5625" y="322.693">contracts : Array&lt;SourceContract&gt;</text><line style="stroke: #A80036; stroke-width: 0.75; stroke-dasharray: 1.0,2.0;" x1="121.3125" x2="300.8125" y1="327.6387" y2="327.6387"/><rect fill="none" height="4.5" style="stroke: #C82930; stroke-width: 0.75;" width="4.5" x="126.5625" y="334.3154"/><path d="M140.0938,332.6797 C139.145,332.6797 138.375,333.4497 138.375,334.3984 C138.375,334.5084 138.3977,334.6026 138.4183,334.6996 L136.3125,336.8054 L136.3125,338.1804 L138.375,338.1804 L138.375,336.8054 L139.75,336.8054 L139.75,336.1179 L139.7933,336.0746 C139.8896,336.0952 139.9838,336.1179 140.0944,336.1179 C141.0432,336.1179 141.8132,335.3479 141.8132,334.3991 C141.8132,333.4504 141.0432,332.6804 140.0944,332.6804 M140.4382,333.3679 C140.8163,333.3679 141.1257,333.6773 141.1257,334.0554 C141.1257,334.4335 140.8163,334.7429 140.4382,334.7429 C140.0601,334.7429 139.7507,334.4335 139.7507,334.0554 C139.7507,333.6773 140.0601,333.3679 140.4382,333.3679 " fill="#000000" style="stroke: ; stroke-width: 0.0; stroke-dasharray: ;"/><text fill="#000000" font-family="sans-serif" font-size="8.25" lengthAdjust="spacingAndGlyphs" textLength="21.75" x="145.5625" y="338.2965">id: ID</text><text fill="#000000" font-family="sans-serif" font-size="8.25" font-style="italic" lengthAdjust="spacingAndGlyphs" textLength="33" x="170.3125" y="338.2965">= hash(</text><text fill="#000000" font-family="sans-serif" font-size="8.25" lengthAdjust="spacingAndGlyphs" textLength="0" x="206.3125" y="338.2965"/><text fill="#000000" font-family="Andale Mono" font-size="8.25" lengthAdjust="spacingAndGlyphs" textLength="36.75" x="206.3125" y="338.2965">compiler</text><text fill="#000000" font-family="sans-serif" font-size="8.25" font-style="italic" lengthAdjust="spacingAndGlyphs" textLength="3" x="243.0625" y="338.2965">,</text><text fill="#000000" font-family="sans-serif" font-size="8.25" lengthAdjust="spacingAndGlyphs" textLength="0" x="249.0625" y="338.2965"/><text fill="#000000" font-family="Andale Mono" font-size="8.25" lengthAdjust="spacingAndGlyphs" textLength="42" x="249.0625" y="338.2965">sourceIds</text><text fill="#000000" font-family="sans-serif" font-size="8.25" lengthAdjust="spacingAndGlyphs" textLength="0" x="294.0625" y="338.2965"/><text fill="#000000" font-family="sans-serif" font-size="8.25" font-style="italic" lengthAdjust="spacingAndGlyphs" textLength="3" x="294.0625" y="338.2965">)</text><rect fill="none" height="4.5" style="stroke: #C82930; stroke-width: 0.75;" width="4.5" x="126.5625" y="343.9189"/><text fill="#000000" font-family="sans-serif" font-size="8.25" lengthAdjust="spacingAndGlyphs" textLength="132.75" x="135.5625" y="347.9">sourceIds: Array&lt;Maybe&lt;ID&gt;&gt;</text><rect fill="none" height="4.5" style="stroke: #C82930; stroke-width: 0.75;" width="4.5" x="126.5625" y="353.5225"/><text fill="#000000" font-family="sans-serif" font-size="8.25" lengthAdjust="spacingAndGlyphs" textLength="141" x="135.5625" y="357.5035">contractIds : Array&lt;Maybe&lt;ID&gt;&gt;</text><!--class SourceContract--><rect fill="#FEFECE" filter="url(#f1habehjp5yxup)" height="78.8672" id="SourceContract" style="stroke: #A80036; stroke-width: 1.125;" width="97.5" x="250.5" y="139.875"/><ellipse cx="261.75" cy="154.1016" fill="#7CFC00" rx="8.25" ry="8.25" style="stroke: #A80036; stroke-width: 0.75;"/><path d="M261.832,150.7852 Q261.1289,150.7852 260.8066,151.5352 Q260.4844,152.2852 260.4844,153.9609 Q260.4844,155.6367 260.8066,156.3867 Q261.1289,157.1367 261.832,157.1367 Q262.5469,157.1367 262.8691,156.3867 Q263.1914,155.6367 263.1914,153.9609 Q263.1914,152.2852 262.8691,151.5352 Q262.5469,150.7852 261.832,150.7852 Z M258.5742,153.9609 Q258.5742,151.582 259.4004,150.3574 Q260.2266,149.1328 261.832,149.1328 Q263.4492,149.1328 264.2754,150.3574 Q265.1016,151.582 265.1016,153.9609 Q265.1016,156.3398 264.2754,157.5586 Q263.4492,158.7773 261.832,158.7773 Q260.2266,158.7773 259.4004,157.5586 Q258.5742,156.3398 258.5742,153.9609 Z "/><text fill="#000000" font-family="sans-serif" font-size="9" font-style="italic" lengthAdjust="spacingAndGlyphs" textLength="65.25" x="276.375" y="151.979">«Data Object»</text><text fill="#000000" font-family="sans-serif" font-size="9" lengthAdjust="spacingAndGlyphs" textLength="73.5" x="272.25" y="162.4556">SourceContract</text><line style="stroke: #A80036; stroke-width: 1.125;" x1="251.25" x2="347.25" y1="168.3281" y2="168.3281"/><ellipse cx="258.75" cy="177.2549" fill="none" rx="2.25" ry="2.25" style="stroke: #038048; stroke-width: 0.75;"/><text fill="#000000" font-family="sans-serif" font-size="8.25" lengthAdjust="spacingAndGlyphs" textLength="55.5" x="265.5" y="178.986">name: String</text><ellipse cx="258.75" cy="186.8584" fill="none" rx="2.25" ry="2.25" style="stroke: #038048; stroke-width: 0.75;"/><text fill="#000000" font-family="sans-serif" font-size="8.25" lengthAdjust="spacingAndGlyphs" textLength="36" x="265.5" y="188.5895">ast: AST</text><ellipse cx="258.75" cy="196.4619" fill="#84BE84" rx="2.25" ry="2.25" style="stroke: #038048; stroke-width: 0.75;"/><text fill="#000000" font-family="sans-serif" font-size="8.25" lengthAdjust="spacingAndGlyphs" textLength="65.25" x="265.5" y="198.193">source: Source</text><line style="stroke: #A80036; stroke-width: 0.75; stroke-dasharray: 1.0,2.0;" x1="251.25" x2="347.25" y1="203.1387" y2="203.1387"/><rect fill="none" height="4.5" style="stroke: #C82930; stroke-width: 0.75;" width="4.5" x="256.5" y="209.8154"/><text fill="#000000" font-family="sans-serif" font-size="8.25" lengthAdjust="spacingAndGlyphs" textLength="51" x="265.5" y="213.7965">sourceId: ID</text><!--class Compiler--><rect fill="#FEFECE" filter="url(#f1habehjp5yxup)" height="69.2637" id="Compiler" style="stroke: #A80036; stroke-width: 1.125;" width="90" x="4.875" y="279"/><ellipse cx="17.8125" cy="293.2266" fill="#7CFC00" rx="8.25" ry="8.25" style="stroke: #A80036; stroke-width: 0.75;"/><path d="M17.8945,289.9102 Q17.1914,289.9102 16.8691,290.6602 Q16.5469,291.4102 16.5469,293.0859 Q16.5469,294.7617 16.8691,295.5117 Q17.1914,296.2617 17.8945,296.2617 Q18.6094,296.2617 18.9316,295.5117 Q19.2539,294.7617 19.2539,293.0859 Q19.2539,291.4102 18.9316,290.6602 Q18.6094,289.9102 17.8945,289.9102 Z M14.6367,293.0859 Q14.6367,290.707 15.4629,289.4824 Q16.2891,288.2578 17.8945,288.2578 Q19.5117,288.2578 20.3379,289.4824 Q21.1641,290.707 21.1641,293.0859 Q21.1641,295.4648 20.3379,296.6836 Q19.5117,297.9023 17.8945,297.9023 Q16.2891,297.9023 15.4629,296.6836 Q14.6367,295.4648 14.6367,293.0859 Z "/><text fill="#000000" font-family="sans-serif" font-size="9" font-style="italic" lengthAdjust="spacingAndGlyphs" textLength="65.25" x="27.1875" y="291.104">«Data Object»</text><text fill="#000000" font-family="sans-serif" font-size="9" lengthAdjust="spacingAndGlyphs" textLength="40.5" x="39.5625" y="301.5806">Compiler</text><line style="stroke: #A80036; stroke-width: 1.125;" x1="5.625" x2="94.125" y1="307.4531" y2="307.4531"/><ellipse cx="13.125" cy="316.3799" fill="none" rx="2.25" ry="2.25" style="stroke: #038048; stroke-width: 0.75;"/><text fill="#000000" font-family="sans-serif" font-size="8.25" lengthAdjust="spacingAndGlyphs" textLength="58.5" x="19.875" y="318.111">name : String</text><ellipse cx="13.125" cy="325.9834" fill="none" rx="2.25" ry="2.25" style="stroke: #038048; stroke-width: 0.75;"/><text fill="#000000" font-family="sans-serif" font-size="8.25" lengthAdjust="spacingAndGlyphs" textLength="66" x="19.875" y="327.7145">version : String</text><ellipse cx="13.125" cy="335.5869" fill="none" rx="2.25" ry="2.25" style="stroke: #038048; stroke-width: 0.75;"/><text fill="#000000" font-family="sans-serif" font-size="8.25" lengthAdjust="spacingAndGlyphs" textLength="70.5" x="19.875" y="337.318">settings : Object</text><line style="stroke: #A80036; stroke-width: 1.125;" x1="5.625" x2="94.125" y1="342.2637" y2="342.2637"/><!--class LinkReference--><rect fill="#FEFECE" filter="url(#f1habehjp5yxup)" height="69.2637" id="LinkReference" style="stroke: #A80036; stroke-width: 1.125;" width="136.5" x="60.75" y="717.75"/><ellipse cx="92.925" cy="731.9766" fill="#7CFC00" rx="8.25" ry="8.25" style="stroke: #A80036; stroke-width: 0.75;"/><path d="M93.007,728.6602 Q92.3039,728.6602 91.9816,729.4102 Q91.6594,730.1602 91.6594,731.8359 Q91.6594,733.5117 91.9816,734.2617 Q92.3039,735.0117 93.007,735.0117 Q93.7219,735.0117 94.0441,734.2617 Q94.3664,733.5117 94.3664,731.8359 Q94.3664,730.1602 94.0441,729.4102 Q93.7219,728.6602 93.007,728.6602 Z M89.7492,731.8359 Q89.7492,729.457 90.5754,728.2324 Q91.4016,727.0078 93.007,727.0078 Q94.6242,727.0078 95.4504,728.2324 Q96.2766,729.457 96.2766,731.8359 Q96.2766,734.2148 95.4504,735.4336 Q94.6242,736.6523 93.007,736.6523 Q91.4016,736.6523 90.5754,735.4336 Q89.7492,734.2148 89.7492,731.8359 Z "/><text fill="#000000" font-family="sans-serif" font-size="9" font-style="italic" lengthAdjust="spacingAndGlyphs" textLength="65.25" x="108.45" y="729.854">«Data Object»</text><text fill="#000000" font-family="sans-serif" font-size="9" lengthAdjust="spacingAndGlyphs" textLength="66" x="108.075" y="740.3306">LinkReference</text><line style="stroke: #A80036; stroke-width: 1.125;" x1="61.5" x2="196.5" y1="746.2031" y2="746.2031"/><ellipse cx="69" cy="755.1299" fill="none" rx="2.25" ry="2.25" style="stroke: #038048; stroke-width: 0.75;"/><text fill="#000000" font-family="sans-serif" font-size="8.25" lengthAdjust="spacingAndGlyphs" textLength="117" x="75.75" y="756.861">offsets: Array&lt;ByteOffset&gt;</text><ellipse cx="69" cy="764.7334" fill="none" rx="2.25" ry="2.25" style="stroke: #038048; stroke-width: 0.75;"/><text fill="#000000" font-family="sans-serif" font-size="8.25" lengthAdjust="spacingAndGlyphs" textLength="96" x="75.75" y="766.4645">name: Maybe&lt;String&gt;</text><ellipse cx="69" cy="774.3369" fill="none" rx="2.25" ry="2.25" style="stroke: #038048; stroke-width: 0.75;"/><text fill="#000000" font-family="sans-serif" font-size="8.25" lengthAdjust="spacingAndGlyphs" textLength="62.25" x="75.75" y="776.068">length: Integer</text><line style="stroke: #A80036; stroke-width: 1.125;" x1="61.5" x2="196.5" y1="781.0137" y2="781.0137"/><!--class SourceMap--><rect fill="#FEFECE" filter="url(#f1habehjp5yxup)" height="78.8672" id="SourceMap" style="stroke: #A80036; stroke-width: 1.125;" width="293.25" x="62.0625" y="412.875"/><ellipse cx="174.375" cy="427.1016" fill="#7CFC00" rx="8.25" ry="8.25" style="stroke: #A80036; stroke-width: 0.75;"/><path d="M174.457,423.7852 Q173.7539,423.7852 173.4316,424.5352 Q173.1094,425.2852 173.1094,426.9609 Q173.1094,428.6367 173.4316,429.3867 Q173.7539,430.1367 174.457,430.1367 Q175.1719,430.1367 175.4941,429.3867 Q175.8164,428.6367 175.8164,426.9609 Q175.8164,425.2852 175.4941,424.5352 Q175.1719,423.7852 174.457,423.7852 Z M171.1992,426.9609 Q171.1992,424.582 172.0254,423.3574 Q172.8516,422.1328 174.457,422.1328 Q176.0742,422.1328 176.9004,423.3574 Q177.7266,424.582 177.7266,426.9609 Q177.7266,429.3398 176.9004,430.5586 Q176.0742,431.7773 174.457,431.7773 Q172.8516,431.7773 172.0254,430.5586 Q171.1992,429.3398 171.1992,426.9609 Z "/><text fill="#000000" font-family="sans-serif" font-size="9" font-style="italic" lengthAdjust="spacingAndGlyphs" textLength="65.25" x="188.25" y="424.979">«Data Object»</text><text fill="#000000" font-family="sans-serif" font-size="9" lengthAdjust="spacingAndGlyphs" textLength="52.5" x="194.625" y="435.4556">SourceMap</text><line style="stroke: #A80036; stroke-width: 1.125;" x1="62.8125" x2="354.5625" y1="441.3281" y2="441.3281"/><ellipse cx="70.3125" cy="450.2549" fill="#84BE84" rx="2.25" ry="2.25" style="stroke: #038048; stroke-width: 0.75;"/><text fill="#000000" font-family="sans-serif" font-size="8.25" lengthAdjust="spacingAndGlyphs" textLength="83.25" x="77.0625" y="451.986">bytecode: Bytecode</text><ellipse cx="70.3125" cy="459.8584" fill="#84BE84" rx="2.25" ry="2.25" style="stroke: #038048; stroke-width: 0.75;"/><text fill="#000000" font-family="sans-serif" font-size="8.25" lengthAdjust="spacingAndGlyphs" textLength="273.75" x="77.0625" y="461.5895">instructionSourceRanges(index: Integer): Maybe&lt;SourceRange&gt;</text><line style="stroke: #A80036; stroke-width: 0.75; stroke-dasharray: 1.0,2.0;" x1="62.8125" x2="354.5625" y1="466.5352" y2="466.5352"/><rect fill="none" height="4.5" style="stroke: #C82930; stroke-width: 0.75;" width="4.5" x="68.0625" y="473.2119"/><text fill="#000000" font-family="sans-serif" font-size="8.25" lengthAdjust="spacingAndGlyphs" textLength="94.5" x="77.0625" y="477.193">rawSourceMap: String</text><rect fill="none" height="4.5" style="stroke: #C82930; stroke-width: 0.75;" width="4.5" x="68.0625" y="482.8154"/><text fill="#000000" font-family="sans-serif" font-size="8.25" lengthAdjust="spacingAndGlyphs" textLength="60" x="77.0625" y="486.7965">bytecodeId: ID</text><!--class SourceRange--><rect fill="#FEFECE" filter="url(#f1habehjp5yxup)" height="88.4707" id="SourceRange" style="stroke: #A80036; stroke-width: 1.125;" width="90.75" x="381.5625" y="408"/><ellipse cx="394.5" cy="422.2266" fill="#7CFC00" rx="8.25" ry="8.25" style="stroke: #A80036; stroke-width: 0.75;"/><path d="M394.582,418.9102 Q393.8789,418.9102 393.5566,419.6602 Q393.2344,420.4102 393.2344,422.0859 Q393.2344,423.7617 393.5566,424.5117 Q393.8789,425.2617 394.582,425.2617 Q395.2969,425.2617 395.6191,424.5117 Q395.9414,423.7617 395.9414,422.0859 Q395.9414,420.4102 395.6191,419.6602 Q395.2969,418.9102 394.582,418.9102 Z M391.3242,422.0859 Q391.3242,419.707 392.1504,418.4824 Q392.9766,417.2578 394.582,417.2578 Q396.1992,417.2578 397.0254,418.4824 Q397.8516,419.707 397.8516,422.0859 Q397.8516,424.4648 397.0254,425.6836 Q396.1992,426.9023 394.582,426.9023 Q392.9766,426.9023 392.1504,425.6836 Q391.3242,424.4648 391.3242,422.0859 Z "/><text fill="#000000" font-family="sans-serif" font-size="9" font-style="italic" lengthAdjust="spacingAndGlyphs" textLength="65.25" x="404.25" y="420.104">«Data Object»</text><text fill="#000000" font-family="sans-serif" font-size="9" lengthAdjust="spacingAndGlyphs" textLength="63" x="405.375" y="430.5806">SourceRange</text><line style="stroke: #A80036; stroke-width: 1.125;" x1="382.3125" x2="471.5625" y1="436.4531" y2="436.4531"/><ellipse cx="389.8125" cy="445.3799" fill="none" rx="2.25" ry="2.25" style="stroke: #038048; stroke-width: 0.75;"/><text fill="#000000" font-family="sans-serif" font-size="8.25" lengthAdjust="spacingAndGlyphs" textLength="71.25" x="396.5625" y="447.111">start: ByteOffset</text><ellipse cx="389.8125" cy="454.9834" fill="none" rx="2.25" ry="2.25" style="stroke: #038048; stroke-width: 0.75;"/><text fill="#000000" font-family="sans-serif" font-size="8.25" lengthAdjust="spacingAndGlyphs" textLength="60.75" x="396.5625" y="456.7145">length: Length</text><ellipse cx="389.8125" cy="464.5869" fill="none" rx="2.25" ry="2.25" style="stroke: #038048; stroke-width: 0.75;"/><text fill="#000000" font-family="sans-serif" font-size="8.25" lengthAdjust="spacingAndGlyphs" textLength="54.75" x="396.5625" y="466.318">meta: Object</text><ellipse cx="389.8125" cy="474.1904" fill="#84BE84" rx="2.25" ry="2.25" style="stroke: #038048; stroke-width: 0.75;"/><text fill="#000000" font-family="sans-serif" font-size="8.25" lengthAdjust="spacingAndGlyphs" textLength="65.25" x="396.5625" y="475.9215">source: Source</text><line style="stroke: #A80036; stroke-width: 0.75; stroke-dasharray: 1.0,2.0;" x1="382.3125" x2="471.5625" y1="480.8672" y2="480.8672"/><rect fill="none" height="4.5" style="stroke: #C82930; stroke-width: 0.75;" width="4.5" x="387.5625" y="487.5439"/><text fill="#000000" font-family="sans-serif" font-size="8.25" lengthAdjust="spacingAndGlyphs" textLength="51" x="396.5625" y="491.525">sourceId: ID</text><!--link Instruction to InstructionMeta--><path d="M467.682,581.25 C473.0295,581.25 478.3778,581.25 483.7252,581.25 " fill="none" id="Instruction-InstructionMeta" style="stroke: #A80036; stroke-width: 0.75;"/><polygon fill="#A80036" points="457.7318,581.25,462.2318,584.25,466.7318,581.25,462.2318,578.25,457.7318,581.25" style="stroke: #A80036; stroke-width: 0.75;"/><text fill="#000000" font-family="sans-serif" font-size="9.75" lengthAdjust="spacingAndGlyphs" textLength="6" x="471.8048" y="577.6718">1</text><!--link Instruction to Bytecode--><path d="M377.5838,620.6745 C365.3692,645.3218 349.4528,677.439 336.447,703.683 " fill="none" id="Instruction-Bytecode" style="stroke: #A80036; stroke-width: 0.75;"/><polygon fill="#A80036" points="331.9793,712.6988,336.6652,709.9984,335.9749,704.6343,331.2889,707.3347,331.9793,712.6988" style="stroke: #A80036; stroke-width: 0.75;"/><text fill="#000000" font-family="sans-serif" font-size="9.75" lengthAdjust="spacingAndGlyphs" textLength="6" x="367.7544" y="635.777">n</text><!--link SourceContract to Compilation--><path d="M273.414,218.754 C265.6298,230.43 256.92,243.495 248.5275,256.0838 " fill="none" id="SourceContract-Compilation" style="stroke: #A80036; stroke-width: 0.75;"/><polygon fill="#A80036" points="243.0713,264.2678,248.0636,262.1876,248.0636,256.7793,243.0713,258.8594,243.0713,264.2678" style="stroke: #A80036; stroke-width: 0.75;"/><text fill="#000000" font-family="sans-serif" font-size="9.75" lengthAdjust="spacingAndGlyphs" textLength="6" x="262.6884" y="233.8672">n</text><!--link SourceMap to SourceRange--><path d="M364.9973,452.25 C370.476,452.25 375.954,452.25 381.432,452.25 " fill="none" id="SourceMap-SourceRange" style="stroke: #A80036; stroke-width: 0.75;"/><polygon fill="#A80036" points="355.137,452.25,359.637,455.25,364.137,452.25,359.637,449.25,355.137,452.25" style="stroke: #A80036; stroke-width: 0.75;"/><text fill="#000000" font-family="sans-serif" font-size="9.75" lengthAdjust="spacingAndGlyphs" textLength="6" x="369.6025" y="448.6494">n</text><!--link Contract to Compilation--><path d="M244.2938,104.187 C242.049,115.8098 239.7563,128.0565 237.75,139.5 C230.391,181.4775 223.0058,229.356 217.824,264.1275 " fill="none" id="Contract-Compilation" style="stroke: #A80036; stroke-width: 0.75;"/><polygon fill="#FFFFFF" points="246.1605,94.6027,242.3554,98.4461,244.4396,103.4367,248.2447,99.5934,246.1605,94.6027" style="stroke: #A80036; stroke-width: 0.75;"/><text fill="#000000" font-family="sans-serif" font-size="9.75" lengthAdjust="spacingAndGlyphs" textLength="18" x="198.7985" y="256.0511">0..1</text><!--link Contract to SourceContract--><path d="M273.399,104.0145 C277.5705,116.034 281.9243,128.5778 285.843,139.8698 " fill="none" id="Contract-SourceContract" style="stroke: #A80036; stroke-width: 0.75; stroke-dasharray: 7.0,7.0;"/><polygon fill="#FFFFFF" points="270.1043,94.5218,268.7457,99.7567,273.0554,103.0241,274.414,97.7892,270.1043,94.5218" style="stroke: #A80036; stroke-width: 0.75;"/><text fill="#000000" font-family="sans-serif" font-size="9.75" lengthAdjust="spacingAndGlyphs" textLength="6" x="277.1092" y="131.6285">1</text><!--link LinkReference to Bytecode--><path d="M197.547,752.25 C203.0318,752.25 208.5165,752.25 214.0005,752.25 " fill="none" id="LinkReference-Bytecode" style="stroke: #A80036; stroke-width: 0.75;"/><polygon fill="#A80036" points="223.8728,752.25,219.3728,749.25,214.8728,752.25,219.3728,755.25,223.8728,752.25" style="stroke: #A80036; stroke-width: 0.75;"/><text fill="#000000" font-family="sans-serif" font-size="9.75" lengthAdjust="spacingAndGlyphs" textLength="6" x="203.2484" y="748.7856">n</text><!--link SourceContract to Source--><path d="M342.705,226.0568 C359.0955,243.429 377.424,262.8555 392.571,278.9085 " fill="none" id="SourceContract-Source" style="stroke: #A80036; stroke-width: 0.75;"/><polygon fill="#FFFFFF" points="335.814,218.754,336.7201,224.0859,341.9903,225.3002,341.0842,219.9683,335.814,218.754" style="stroke: #A80036; stroke-width: 0.75;"/><text fill="#000000" font-family="sans-serif" font-size="9.75" lengthAdjust="spacingAndGlyphs" textLength="6" x="381.2096" y="270.6993">1</text><!--link Compiler to Compilation--><path d="M94.2218,313.5 C99.6743,313.5 105.1275,313.5 110.58,313.5 " fill="none" id="Compiler-Compilation" style="stroke: #A80036; stroke-width: 0.75;"/><polygon fill="#A80036" points="120.3952,313.5,115.8952,310.5,111.3952,313.5,115.8952,316.5,120.3952,313.5" style="stroke: #A80036; stroke-width: 0.75;"/><text fill="#000000" font-family="sans-serif" font-size="9.75" lengthAdjust="spacingAndGlyphs" textLength="6" x="100.8799" y="309.6422">1</text><!--link Compilation to Source--><path d="M311.0175,313.5 C317.7623,313.5 324.5078,313.5 331.2533,313.5 " fill="none" id="Compilation-Source" style="stroke: #A80036; stroke-width: 0.75;"/><polygon fill="#FFFFFF" points="301.1348,313.5,305.6348,316.5,310.1348,313.5,305.6348,310.5,301.1348,313.5" style="stroke: #A80036; stroke-width: 0.75;"/><text fill="#000000" font-family="sans-serif" font-size="9.75" lengthAdjust="spacingAndGlyphs" textLength="6" x="319.1817" y="310.1971">n</text><!--link Compilation to SourceMap--><path d="M209.796,372.4342 C209.5725,386.0662 209.34,400.2615 209.1345,412.7993 " fill="none" id="Compilation-SourceMap" style="stroke: #A80036; stroke-width: 0.75;"/><polygon fill="#A80036" points="209.9565,362.6393,206.8832,367.0895,209.8091,371.638,212.8824,367.1878,209.9565,362.6393" style="stroke: #A80036; stroke-width: 0.75;"/><text fill="#000000" font-family="sans-serif" font-size="9.75" lengthAdjust="spacingAndGlyphs" textLength="6" x="202.0026" y="404.5498">n</text><!--link SourceMap to Bytecode--><path d="M225.3248,501.174 C245.901,560.0903 280.3208,658.6455 299.2523,712.851 " fill="none" id="SourceMap-Bytecode" style="stroke: #A80036; stroke-width: 0.75;"/><polygon fill="#FFFFFF" points="222.0218,491.718,220.6736,496.9556,224.9897,500.2145,226.3379,494.9769,222.0218,491.718" style="stroke: #A80036; stroke-width: 0.75;"/><text fill="#000000" font-family="sans-serif" font-size="9.75" lengthAdjust="spacingAndGlyphs" textLength="6" x="290.4863" y="704.6075">1</text><!--link SourceRange to Instruction--><path d="M414.276,506.0145 C411.4478,518.034 408.4965,530.5778 405.8393,541.8698 " fill="none" id="SourceRange-Instruction" style="stroke: #A80036; stroke-width: 0.75;"/><polygon fill="#FFFFFF" points="416.5095,496.5218,412.5587,500.2151,414.4484,505.2826,418.3992,501.5892,416.5095,496.5218" style="stroke: #A80036; stroke-width: 0.75;"/><text fill="#000000" font-family="sans-serif" font-size="9.75" lengthAdjust="spacingAndGlyphs" textLength="6" x="399.7066" y="533.6285">1</text><!--link Source to SourceRange--><path d="M425.0565,348.177 C425.3017,363.1703 425.5973,381.1613 425.871,397.899 " fill="none" id="Source-SourceRange" style="stroke: #A80036; stroke-width: 0.75;"/><polygon fill="#FFFFFF" points="426.0345,407.8478,428.9604,403.2992,425.8871,398.849,422.9612,403.3975,426.0345,407.8478" style="stroke: #A80036; stroke-width: 0.75;"/><text fill="#000000" font-family="sans-serif" font-size="9.75" lengthAdjust="spacingAndGlyphs" textLength="6" x="417.7696" y="363.3859">1</text><!--
@startuml
scale 0.75



skinparam defaultMonospacedFontName Andale Mono



    class Contract << (R,darkorange) External Resource >> {
      + name: String
      + abi: ABI
      + {method} compilation: Maybe<Compilation>
      + {method} sourceContract: Maybe<SourceContract>
      + {method} interface: ContractInterface
    }






    class Bytecode << (R,orchid) Resource >> {
      + bytes: Array<Byte>
      + linkReferences : Set<LinkReference>
      + {method} instructions: Array<Instruction>
      ..
      - {field} <&key> id: ID //= hash(// ""bytes"" //)//
    }

    class Instruction << (O,lawngreen) Data Object >> {
      + programCounter: String
      + opcode: Integer
      + pushData: String
      + meta: InstructionMeta
    }

    class InstructionMeta << (O,lawngreen) Data Object >> {
      + cost: Integer
      + pops: Integer
      + pushes: Integer
      + dynamic: Integer
    }

    Instruction *-right- "1" InstructionMeta
    Instruction "n" - -* Bytecode

    class Source << (R,orchid) Resource >> {
      + contents: String
      + sourcePath: Maybe<String>
      ..
      - {field} <&key> id: ID //= hash(// ""contents""//,// ""sourcePath"" //)//
    }




    class Compilation << (R,orchid) Resource >> {
      + compiler : Compiler
      + {method} sources : Array<Maybe<Source>>
      + {method} contracts : Array<SourceContract>
      ..
      - {field} <&key> id: ID //= hash(// ""compiler""//,// ""sourceIds"" //)//
      - sourceIds: Array<Maybe<ID>>
      - contractIds : Array<Maybe<ID>>
    }

  SourceContract "n" - -* Compilation







  class Compiler << (O,lawngreen) Data Object >> {
    + name : String
    + version : String
    + settings : Object
  }




    class LinkReference << (O,lawngreen) Data Object >> {
      + offsets: Array<ByteOffset>
      + name: Maybe<String>
      + length: Integer
    }

    class SourceMap << (O,lawngreen) Data Object >> {
      + {method} bytecode: Bytecode
      + instructionSourceRanges(index: Integer): Maybe<SourceRange>
      ..
      - rawSourceMap: String
      - bytecodeId: ID
    }

    class SourceRange << (O,lawngreen) Data Object >> {
      + start: ByteOffset
      + length: Length
      + meta: Object
      + {method} source: Source
      ..
      - sourceId: ID
    }

    SourceMap *-right- "n" SourceRange


    class SourceContract << (O,lawngreen) Data Object >> {
      + name: String
      + ast: AST
      + {method} source: Source
      ..
      - sourceId: ID
    }








  Contract o- - "0..1" Compilation
  Contract o.. "1" SourceContract



  LinkReference "n" -* Bytecode



  SourceContract o- - "1" Source





  Compilation *-left- "1" Compiler

  Compilation o-right- "n" Source


  Compilation *- - "n" SourceMap



  SourceMap o- - - - "1" Bytecode
  SourceRange o- - "1" Instruction

  Source "1" - -o SourceRange


@enduml

PlantUML version 1.2018.14(Fri Dec 21 16:33:16 UTC 2018)
(GPL source distribution)
Java Runtime: Java(TM) SE Runtime Environment
JVM: Java HotSpot(TM) 64-Bit Server VM
Java Version: 1.8.0_151-b12
Operating System: Linux
OS Version: 4.4.0-101-generic
Default Encoding: UTF-8
Language: en
Country: US
--></g></svg>