<?xml version="1.0" encoding="UTF-8" standalone="no"?><svg xmlns="http://www.w3.org/2000/svg" xmlns:xlink="http://www.w3.org/1999/xlink" contentScriptType="application/ecmascript" contentStyleType="text/css" height="319.2px" preserveAspectRatio="none" style="width:732px;height:319px;" version="1.1" viewBox="0 0 732 319" width="732.6px" zoomAndPan="magnify"><defs><filter height="300%" id="f1cgolwmigbiwi" width="300%" x="-1" y="-1"><feGaussianBlur result="blurOut" stdDeviation="1.2"/><feColorMatrix in="blurOut" result="blurOut2" type="matrix" values="0 0 0 0 0 0 0 0 0 0 0 0 0 0 0 0 0 0 .4 0"/><feOffset dx="2.4" dy="2.4" in="blurOut2" result="blurOut3"/><feBlend in="SourceGraphic" in2="blurOut3" mode="normal"/></filter></defs><g><!--cluster Metadata--><rect fill="#FFFFFF" filter="url(#f1cgolwmigbiwi)" height="298.2" style="stroke: #000000; stroke-width: 0.8999999999999999;" width="589.2" x="136.8" y="14.4"/><text fill="#000000" font-family="sans-serif" font-size="8.4" font-weight="bold" lengthAdjust="spacingAndGlyphs" textLength="43.2" x="409.8" y="23.3971">Metadata</text><ellipse cx="238.1451" cy="219.649" fill="#FEFECE" filter="url(#f1cgolwmigbiwi)" rx="63.5451" ry="14.149" style="stroke: #A80036; stroke-width: 0.8999999999999999;"/><text fill="#000000" font-family="sans-serif" font-size="8.4" lengthAdjust="spacingAndGlyphs" textLength="113.4" x="181.4451" y="222.4381">Read contract instance info</text><ellipse cx="238.0663" cy="171.5733" fill="#FEFECE" filter="url(#f1cgolwmigbiwi)" rx="55.6663" ry="12.5733" style="stroke: #A80036; stroke-width: 0.8999999999999999;"/><text fill="#000000" font-family="sans-serif" font-size="8.4" lengthAdjust="spacingAndGlyphs" textLength="96" x="190.0663" y="174.3623">Read contract type info</text><ellipse cx="238.2916" cy="118.1583" fill="#FEFECE" filter="url(#f1cgolwmigbiwi)" rx="91.5916" ry="19.7583" style="stroke: #A80036; stroke-width: 0.8999999999999999;"/><text fill="#000000" font-family="sans-serif" font-size="8.4" lengthAdjust="spacingAndGlyphs" textLength="172.8" x="151.8916" y="120.9474">Read historical contract instance type info</text><ellipse cx="406.2664" cy="215.2933" fill="#FEFECE" filter="url(#f1cgolwmigbiwi)" rx="40.2664" ry="9.4933" style="stroke: #A80036; stroke-width: 0.8999999999999999;"/><text fill="#000000" font-family="sans-serif" font-size="8.4" lengthAdjust="spacingAndGlyphs" textLength="59.4" x="376.5664" y="218.0823">Read instance</text><ellipse cx="525.5985" cy="171.6142" fill="#FEFECE" filter="url(#f1cgolwmigbiwi)" rx="31.4985" ry="8.7142" style="stroke: #A80036; stroke-width: 0.8999999999999999;"/><text fill="#000000" font-family="sans-serif" font-size="8.4" lengthAdjust="spacingAndGlyphs" textLength="42" x="504.5985" y="174.4032">Read type</text><ellipse cx="660.5169" cy="294.0142" fill="#FEFECE" filter="url(#f1cgolwmigbiwi)" rx="35.3169" ry="8.7142" style="stroke: #A80036; stroke-width: 0.8999999999999999;"/><text fill="#000000" font-family="sans-serif" font-size="8.4" lengthAdjust="spacingAndGlyphs" textLength="47.4" x="636.8169" y="296.8032">Read name</text><ellipse cx="660.5044" cy="255.6142" fill="#FEFECE" filter="url(#f1cgolwmigbiwi)" rx="28.1044" ry="8.7142" style="stroke: #A80036; stroke-width: 0.8999999999999999;"/><text fill="#000000" font-family="sans-serif" font-size="8.4" lengthAdjust="spacingAndGlyphs" textLength="37.2" x="641.9044" y="258.4032">Read ABI</text><ellipse cx="660.6945" cy="215.3589" fill="#FEFECE" filter="url(#f1cgolwmigbiwi)" rx="43.5945" ry="10.1589" style="stroke: #A80036; stroke-width: 0.8999999999999999;"/><text fill="#000000" font-family="sans-serif" font-size="8.4" lengthAdjust="spacingAndGlyphs" textLength="67.8" x="626.7945" y="218.148">Read bytecodes</text><ellipse cx="660.4663" cy="171.5733" fill="#FEFECE" filter="url(#f1cgolwmigbiwi)" rx="55.6663" ry="12.5733" style="stroke: #A80036; stroke-width: 0.8999999999999999;"/><text fill="#000000" font-family="sans-serif" font-size="8.4" lengthAdjust="spacingAndGlyphs" textLength="96" x="612.4663" y="174.3623">Read source mappings</text><ellipse cx="525.5094" cy="253.6619" fill="#FEFECE" filter="url(#f1cgolwmigbiwi)" rx="43.1094" ry="10.0619" style="stroke: #A80036; stroke-width: 0.8999999999999999;"/><text fill="#000000" font-family="sans-serif" font-size="8.4" lengthAdjust="spacingAndGlyphs" textLength="66.6" x="492.2094" y="256.4509">Read link values</text><ellipse cx="660.5758" cy="128.4552" fill="#FEFECE" filter="url(#f1cgolwmigbiwi)" rx="39.5758" ry="9.3552" style="stroke: #A80036; stroke-width: 0.8999999999999999;"/><text fill="#000000" font-family="sans-serif" font-size="8.4" lengthAdjust="spacingAndGlyphs" textLength="57.6" x="631.7758" y="131.2442">Read sources</text><ellipse cx="660.6198" cy="89.4142" fill="#FEFECE" filter="url(#f1cgolwmigbiwi)" rx="33.6198" ry="8.7142" style="stroke: #A80036; stroke-width: 0.8999999999999999;"/><text fill="#000000" font-family="sans-serif" font-size="8.4" lengthAdjust="spacingAndGlyphs" textLength="45" x="638.1198" y="92.2032">Read ASTs</text><ellipse cx="660.5155" cy="47.9231" fill="#FEFECE" filter="url(#f1cgolwmigbiwi)" rx="50.9155" ry="11.6231" style="stroke: #A80036; stroke-width: 0.8999999999999999;"/><text fill="#000000" font-family="sans-serif" font-size="8.4" lengthAdjust="spacingAndGlyphs" textLength="85.2" x="617.9155" y="50.7122">Read link references</text><ellipse cx="525.5758" cy="213.0552" fill="#FEFECE" filter="url(#f1cgolwmigbiwi)" rx="39.5758" ry="9.3552" style="stroke: #A80036; stroke-width: 0.8999999999999999;"/><text fill="#000000" font-family="sans-serif" font-size="8.4" lengthAdjust="spacingAndGlyphs" textLength="57.6" x="496.7758" y="215.8442">Read address</text><!--entity SmartContractDev--><ellipse cx="57" cy="152.7" fill="#FEFECE" filter="url(#f1cgolwmigbiwi)" rx="4.8" ry="4.8" style="stroke: #A80036; stroke-width: 1.2;"/><path d="M57,157.5 L57,173.7 M49.2,162.3 L64.8,162.3 M57,173.7 L49.2,182.7 M57,173.7 L64.8,182.7 " fill="none" filter="url(#f1cgolwmigbiwi)" style="stroke: #A80036; stroke-width: 1.2;"/><text fill="#000000" font-family="sans-serif" font-size="8.4" lengthAdjust="spacingAndGlyphs" textLength="106.8" x="3.6" y="194.6971">Smart Contract Developer</text><!--link ReadContractInstance to ReadInstanceData--><path d="M301.6224,218.0184 C318.8424,217.5846 337.311,217.1196 353.835,216.7032 " fill="none" id="ReadContractInstance-ReadInstanceData" style="stroke: #A80036; stroke-width: 0.6; stroke-dasharray: 7.0,7.0;"/><polygon fill="none" points="353.9364,212.4996,366.0384,216.396,354.1482,220.8972,353.9364,212.4996" style="stroke: #A80036; stroke-width: 0.6;"/><!--link ReadContractType to ReadTypeData--><path d="M294.1518,171.6 C348.9954,171.6 431.8464,171.6 481.9488,171.6 " fill="none" id="ReadContractType-ReadTypeData" style="stroke: #A80036; stroke-width: 0.6; stroke-dasharray: 7.0,7.0;"/><polygon fill="none" points="482.0958,167.4,494.0958,171.6,482.0958,175.8,482.0958,167.4" style="stroke: #A80036; stroke-width: 0.6;"/><!--link ReadHistoricalInstanceType to ReadTypeData--><path d="M307.8984,131.0928 C364.2972,141.6156 441.8532,156.0864 487.38,164.5806 " fill="none" id="ReadHistoricalInstanceType-ReadTypeData" style="stroke: #A80036; stroke-width: 0.6; stroke-dasharray: 7.0,7.0;"/><polygon fill="none" points="488.3016,160.4802,499.3272,166.8102,486.7608,168.7374,488.3016,160.4802" style="stroke: #A80036; stroke-width: 0.6;"/><!--link ReadTypeData to ReadName--><path d="M545.841,178.2024 C553.7784,181.6602 562.5258,186.579 568.8,193.2 C596.0658,221.9724 575.6622,247.9248 604.8,274.8 C611.502,280.9805 620.298,285.1877 628.89,288.0454 " fill="none" id="ReadTypeData-ReadName" style="stroke: #A80036; stroke-width: 0.6;"/><polygon fill="#A80036" points="631.794,288.9638,627.374,285.0416,628.9348,288.0556,625.9208,289.6164,631.794,288.9638" style="stroke: #A80036; stroke-width: 0.6;"/><!--link ReadTypeData to ReadABI--><path d="M543.9456,178.632 C551.9874,182.2962 561.3414,187.2582 568.8,193.2 C588.3486,208.7724 584.2488,222.177 604.8,236.4 C613.572,242.4702 624.444,246.7926 634.218,249.7794 " fill="none" id="ReadTypeData-ReadABI" style="stroke: #A80036; stroke-width: 0.6;"/><polygon fill="#A80036" points="637.212,250.6638,632.7117,246.834,634.3346,249.815,631.3536,251.4379,637.212,250.6638" style="stroke: #A80036; stroke-width: 0.6;"/><!--link ReadTypeData to ReadBytecodes--><path d="M546.231,178.1574 C568.9746,185.6028 606.24,197.802 631.89,206.1978 " fill="none" id="ReadTypeData-ReadBytecodes" style="stroke: #A80036; stroke-width: 0.6;"/><polygon fill="#A80036" points="634.8,207.1512,630.4052,203.2008,631.9467,206.2247,628.9228,207.7661,634.8,207.1512" style="stroke: #A80036; stroke-width: 0.6;"/><!--link ReadTypeData to ReadSourceMaps--><path d="M557.2326,171.6 C570.477,171.6 586.3842,171.6 601.683,171.6 " fill="none" id="ReadTypeData-ReadSourceMaps" style="stroke: #A80036; stroke-width: 0.6;"/><polygon fill="#A80036" points="604.734,171.6,599.334,169.2,601.734,171.6,599.334,174,604.734,171.6" style="stroke: #A80036; stroke-width: 0.6;"/><!--link ReadTypeData to ReadLinkRefs--><path d="M530.7348,163.0206 C541.2744,143.8362 569.253,97.0488 604.8,70.2 C611.13,65.4186 618.63,61.5078 626.028,58.3758 " fill="none" id="ReadTypeData-ReadLinkRefs" style="stroke: #A80036; stroke-width: 0.6;"/><polygon fill="#A80036" points="628.968,57.1698,623.0611,57.0015,626.193,58.3096,624.8848,61.4415,628.968,57.1698" style="stroke: #A80036; stroke-width: 0.6;"/><!--link ReadTypeData to ReadSources--><path d="M546.231,165.1326 C569.6766,157.5624 608.556,145.0098 634.23,136.7202 " fill="none" id="ReadTypeData-ReadSources" style="stroke: #A80036; stroke-width: 0.6;"/><polygon fill="#A80036" points="637.14,135.7812,631.263,135.1637,634.2863,136.7065,632.7435,139.7297,637.14,135.7812" style="stroke: #A80036; stroke-width: 0.6;"/><!--link ReadTypeData to ReadASTs--><path d="M534.4512,163.3638 C548.0484,150.186 576.4884,124.2582 604.8,108.6 C613.89,103.5708 624.546,99.4932 634.05,96.4104 " fill="none" id="ReadTypeData-ReadASTs" style="stroke: #A80036; stroke-width: 0.6;"/><polygon fill="#A80036" points="636.96,95.4852,631.0868,94.8332,634.1009,96.3937,632.5403,99.4078,636.96,95.4852" style="stroke: #A80036; stroke-width: 0.6;"/><!--link ReadInstanceData to ReadTypeData--><path d="M428.4798,207.3666 C449.8236,199.4574 482.229,187.449 503.5074,179.5644 " fill="none" id="ReadInstanceData-ReadTypeData" style="stroke: #A80036; stroke-width: 0.6;"/><polygon fill="#A80036" points="506.5638,178.4316,500.6664,178.0572,503.7507,179.4739,502.334,182.5582,506.5638,178.4316" style="stroke: #A80036; stroke-width: 0.6;"/><!--link ReadInstanceData to ReadLinkVals--><path d="M430.4352,223.0788 C449.571,229.2948 476.5776,238.0686 496.833,244.6494 " fill="none" id="ReadInstanceData-ReadLinkVals" style="stroke: #A80036; stroke-width: 0.6;"/><polygon fill="#A80036" points="499.7712,245.604,495.3764,241.6536,496.9179,244.6775,493.894,246.2189,499.7712,245.604" style="stroke: #A80036; stroke-width: 0.6;"/><!--link ReadInstanceData to ReadAddress--><path d="M446.3232,214.5972 C458.1402,214.3578 471.1344,214.0938 483.0984,213.8508 " fill="none" id="ReadInstanceData-ReadAddress" style="stroke: #A80036; stroke-width: 0.6;"/><polygon fill="#A80036" points="486.117,213.7896,480.6694,211.4996,483.1176,213.8505,480.7668,216.2987,486.117,213.7896" style="stroke: #A80036; stroke-width: 0.6;"/><!--link SmartContractDev to ReadContractInstance--><path d="M110.5194,188.265 C117.7176,190.4004 125.0262,192.5016 132,194.4 C152.0046,199.8462 174.315,205.2648 193.2558,209.6742 " fill="none" id="SmartContractDev-ReadContractInstance" style="stroke: #A80036; stroke-width: 0.6;"/><!--link SmartContractDev to ReadContractType--><path d="M110.6322,171.6 C133.1874,171.6 159.492,171.6 182.2902,171.6 " fill="none" id="SmartContractDev-ReadContractType" style="stroke: #A80036; stroke-width: 0.6;"/><!--link SmartContractDev to ReadHistoricalInstanceType--><path d="M110.4066,155.3082 C117.6564,153.1032 125.0088,150.8838 132,148.8 C148.3716,143.9196 166.203,138.7116 182.472,134.0016 " fill="none" id="SmartContractDev-ReadHistoricalInstanceType" style="stroke: #A80036; stroke-width: 0.6;"/><!--
@startuml
scale 0.60
left to right direction

:Smart Contract Developer: as :SmartContractDev:

rectangle Metadata {
  (Read contract instance info) as (ReadContractInstance)
  (Read contract type info) as (ReadContractType)
  (Read historical contract instance type info) as (ReadHistoricalInstanceType)

  (Read instance) as (ReadInstanceData)
  (Read type) as (ReadTypeData)

  ReadInstanceData <|.up. ReadContractInstance
  ReadTypeData <|.up.. ReadContractType
  ReadTypeData <|.up.. ReadHistoricalInstanceType

  (Read name) as (ReadName)
  (Read ABI) as (ReadABI)
  (Read bytecodes) as (ReadBytecodes)
  (Read source mappings) as (ReadSourceMaps)
  (Read link values) as (ReadLinkVals)
  (Read sources) as (ReadSources)
  (Read ASTs) as (ReadASTs)

  (Read link references) as (ReadLinkRefs)
  (Read address) as (ReadAddress)

  ReadTypeData - -> ReadName
  ReadTypeData - -> ReadABI
  ReadTypeData - -> ReadBytecodes
  ReadTypeData - -> ReadSourceMaps
  ReadTypeData - -> ReadLinkRefs
  ReadTypeData - -> ReadSources
  ReadTypeData - -> ReadASTs

  ReadInstanceData - -> ReadTypeData
  ReadInstanceData - -> ReadLinkVals
  ReadInstanceData - -> ReadAddress
}

SmartContractDev - - ReadContractInstance
SmartContractDev - - ReadContractType
SmartContractDev - - ReadHistoricalInstanceType

@enduml

PlantUML version 1.2018.14(Fri Dec 21 16:33:16 UTC 2018)
(GPL source distribution)
Java Runtime: Java(TM) SE Runtime Environment
JVM: Java HotSpot(TM) 64-Bit Server VM
Java Version: 1.8.0_151-b12
Operating System: Linux
OS Version: 4.4.0-101-generic
Default Encoding: UTF-8
Language: en
Country: US
--></g></svg>