<?xml version="1.0" encoding="UTF-8" standalone="no"?><svg xmlns="http://www.w3.org/2000/svg" xmlns:xlink="http://www.w3.org/1999/xlink" contentScriptType="application/ecmascript" contentStyleType="text/css" height="72px" preserveAspectRatio="none" style="width:159px;height:72px;" version="1.1" viewBox="0 0 159 72" width="159px" zoomAndPan="magnify"><defs><filter height="300%" id="f330qfltyc9hu" width="300%" x="-1" y="-1"><feGaussianBlur result="blurOut" stdDeviation="2.0"/><feColorMatrix in="blurOut" result="blurOut2" type="matrix" values="0 0 0 0 0 0 0 0 0 0 0 0 0 0 0 0 0 0 .4 0"/><feOffset dx="4.0" dy="4.0" in="blurOut2" result="blurOut3"/><feBlend in="SourceGraphic" in2="blurOut3" mode="normal"/></filter></defs><g><!--class ContractInterface--><rect fill="#FEFECE" filter="url(#f330qfltyc9hu)" height="53.9375" id="ContractInterface" style="stroke: #A80036; stroke-width: 1.5;" width="142" x="6" y="8"/><ellipse cx="21" cy="26.9688" fill="#DA70D6" rx="11" ry="11" style="stroke: #A80036; stroke-width: 1.0;"/><path d="M22.2031,27.1094 Q22.5625,27.1875 22.8359,27.4609 Q23.1094,27.7344 23.5,28.5156 L25.7344,32.9688 L23.0469,32.9688 L21.5469,29.8438 Q21.4844,29.7031 21.375,29.4688 Q20.7188,28.0781 19.8281,28.0781 L19.0469,28.0781 L19.0469,32.9688 L16.6094,32.9688 L16.6094,20.5781 L20.1406,20.5781 Q22.5313,20.5781 23.5703,21.4219 Q24.6094,22.2656 24.6094,24.1719 Q24.6094,25.4531 23.9922,26.2109 Q23.375,26.9688 22.2031,27.1094 Z M19.0469,22.6406 L19.0469,26.0156 L20.2031,26.0156 Q21.2188,26.0156 21.6484,25.6172 Q22.0781,25.2188 22.0781,24.3125 Q22.0781,23.4219 21.6484,23.0313 Q21.2188,22.6406 20.2031,22.6406 L19.0469,22.6406 Z "/><text fill="#000000" font-family="sans-serif" font-size="12" font-style="italic" lengthAdjust="spacingAndGlyphs" textLength="72" x="54" y="24.1387">«Resource»</text><text fill="#000000" font-family="sans-serif" font-size="12" lengthAdjust="spacingAndGlyphs" textLength="110" x="35" y="38.1074">ContractInterface</text><line style="stroke: #A80036; stroke-width: 1.5;" x1="7" x2="147" y1="45.9375" y2="45.9375"/><line style="stroke: #A80036; stroke-width: 1.5;" x1="7" x2="147" y1="53.9375" y2="53.9375"/><!--
@startuml











class ContractInterface << (R,orchid) Resource >> {
}






































@enduml

PlantUML version 1.2018.14(Fri Dec 21 16:33:16 UTC 2018)
(GPL source distribution)
Java Runtime: Java(TM) SE Runtime Environment
JVM: Java HotSpot(TM) 64-Bit Server VM
Java Version: 1.8.0_151-b12
Operating System: Linux
OS Version: 4.4.0-101-generic
Default Encoding: UTF-8
Language: en
Country: US
--></g></svg>