<?xml version="1.0" encoding="UTF-8" standalone="no"?><svg xmlns="http://www.w3.org/2000/svg" xmlns:xlink="http://www.w3.org/1999/xlink" contentScriptType="application/ecmascript" contentStyleType="text/css" height="111px" preserveAspectRatio="none" style="width:397px;height:111px;" version="1.1" viewBox="0 0 397 111" width="397px" zoomAndPan="magnify"><defs><filter height="300%" id="f1f4hza9olehld" width="300%" x="-1" y="-1"><feGaussianBlur result="blurOut" stdDeviation="2.0"/><feColorMatrix in="blurOut" result="blurOut2" type="matrix" values="0 0 0 0 0 0 0 0 0 0 0 0 0 0 0 0 0 0 .4 0"/><feOffset dx="4.0" dy="4.0" in="blurOut2" result="blurOut3"/><feBlend in="SourceGraphic" in2="blurOut3" mode="normal"/></filter></defs><g><!--class Compilation--><rect fill="#FEFECE" filter="url(#f1f4hza9olehld)" height="79.5469" id="Compilation" style="stroke: #A80036; stroke-width: 1.5;" width="226" x="160.5" y="14"/><ellipse cx="232.75" cy="32.9688" fill="#DA70D6" rx="11" ry="11" style="stroke: #A80036; stroke-width: 1.0;"/><path d="M233.9531,33.1094 Q234.3125,33.1875 234.5859,33.4609 Q234.8594,33.7344 235.25,34.5156 L237.4844,38.9688 L234.7969,38.9688 L233.2969,35.8438 Q233.2344,35.7031 233.125,35.4688 Q232.4688,34.0781 231.5781,34.0781 L230.7969,34.0781 L230.7969,38.9688 L228.3594,38.9688 L228.3594,26.5781 L231.8906,26.5781 Q234.2813,26.5781 235.3203,27.4219 Q236.3594,28.2656 236.3594,30.1719 Q236.3594,31.4531 235.7422,32.2109 Q235.125,32.9688 233.9531,33.1094 Z M230.7969,28.6406 L230.7969,32.0156 L231.9531,32.0156 Q232.9688,32.0156 233.3984,31.6172 Q233.8281,31.2188 233.8281,30.3125 Q233.8281,29.4219 233.3984,29.0313 Q232.9688,28.6406 231.9531,28.6406 L230.7969,28.6406 Z "/><text fill="#000000" font-family="sans-serif" font-size="12" font-style="italic" lengthAdjust="spacingAndGlyphs" textLength="72" x="253.75" y="30.1387">«Resource»</text><text fill="#000000" font-family="sans-serif" font-size="12" lengthAdjust="spacingAndGlyphs" textLength="73" x="253.25" y="44.1074">Compilation</text><line style="stroke: #A80036; stroke-width: 1.5;" x1="161.5" x2="385.5" y1="51.9375" y2="51.9375"/><ellipse cx="171.5" cy="63.8398" fill="none" rx="3" ry="3" style="stroke: #038048; stroke-width: 1.0;"/><text fill="#000000" font-family="sans-serif" font-size="11" lengthAdjust="spacingAndGlyphs" textLength="112" x="180.5" y="66.1479">compiler : Compiler</text><ellipse cx="171.5" cy="76.6445" fill="none" rx="3" ry="3" style="stroke: #038048; stroke-width: 1.0;"/><text fill="#000000" font-family="sans-serif" font-size="11" lengthAdjust="spacingAndGlyphs" textLength="200" x="180.5" y="78.9526">sources : Array&lt;Maybe&lt;Source&gt;&gt;</text><line style="stroke: #A80036; stroke-width: 1.5;" x1="161.5" x2="385.5" y1="85.5469" y2="85.5469"/><!--class Compiler--><rect fill="#FEFECE" filter="url(#f1f4hza9olehld)" height="92.3516" id="Compiler" style="stroke: #A80036; stroke-width: 1.5;" width="120" x="6" y="8"/><ellipse cx="23.25" cy="26.9688" fill="#7CFC00" rx="11" ry="11" style="stroke: #A80036; stroke-width: 1.0;"/><path d="M23.3594,22.5469 Q22.4219,22.5469 21.9922,23.5469 Q21.5625,24.5469 21.5625,26.7813 Q21.5625,29.0156 21.9922,30.0156 Q22.4219,31.0156 23.3594,31.0156 Q24.3125,31.0156 24.7422,30.0156 Q25.1719,29.0156 25.1719,26.7813 Q25.1719,24.5469 24.7422,23.5469 Q24.3125,22.5469 23.3594,22.5469 Z M19.0156,26.7813 Q19.0156,23.6094 20.1172,21.9766 Q21.2188,20.3438 23.3594,20.3438 Q25.5156,20.3438 26.6172,21.9766 Q27.7188,23.6094 27.7188,26.7813 Q27.7188,29.9531 26.6172,31.5781 Q25.5156,33.2031 23.3594,33.2031 Q21.2188,33.2031 20.1172,31.5781 Q19.0156,29.9531 19.0156,26.7813 Z "/><text fill="#000000" font-family="sans-serif" font-size="12" font-style="italic" lengthAdjust="spacingAndGlyphs" textLength="87" x="35.75" y="24.1387">«Data Object»</text><text fill="#000000" font-family="sans-serif" font-size="12" lengthAdjust="spacingAndGlyphs" textLength="54" x="52.25" y="38.1074">Compiler</text><line style="stroke: #A80036; stroke-width: 1.5;" x1="7" x2="125" y1="45.9375" y2="45.9375"/><ellipse cx="17" cy="57.8398" fill="none" rx="3" ry="3" style="stroke: #038048; stroke-width: 1.0;"/><text fill="#000000" font-family="sans-serif" font-size="11" lengthAdjust="spacingAndGlyphs" textLength="78" x="26" y="60.1479">name : String</text><ellipse cx="17" cy="70.6445" fill="none" rx="3" ry="3" style="stroke: #038048; stroke-width: 1.0;"/><text fill="#000000" font-family="sans-serif" font-size="11" lengthAdjust="spacingAndGlyphs" textLength="88" x="26" y="72.9526">version : String</text><ellipse cx="17" cy="83.4492" fill="none" rx="3" ry="3" style="stroke: #038048; stroke-width: 1.0;"/><text fill="#000000" font-family="sans-serif" font-size="11" lengthAdjust="spacingAndGlyphs" textLength="94" x="26" y="85.7573">settings : Object</text><line style="stroke: #A80036; stroke-width: 1.5;" x1="7" x2="125" y1="92.3516" y2="92.3516"/><!--link Compiler to Compilation--><path d="M125.219,54 C132.519,54 139.82,54 147.121,54 " fill="none" id="Compiler-Compilation" style="stroke: #A80036; stroke-width: 1.0;"/><polygon fill="#A80036" points="160.262,54,154.262,50,148.262,54,154.262,58,160.262,54" style="stroke: #A80036; stroke-width: 1.0;"/><text fill="#000000" font-family="sans-serif" font-size="13" lengthAdjust="spacingAndGlyphs" textLength="8" x="134.1092" y="48.8562">1</text><!--
@startuml







class Compilation << (R,orchid) Resource >> {
  + compiler : Compiler
  + sources : Array<Maybe<Source>>
}

class Compiler << (O,lawngreen) Data Object >> {
  + name : String
  + version : String
  + settings : Object
}

Compilation *-left- "1" Compiler
















































@enduml

PlantUML version 1.2018.14(Fri Dec 21 16:33:16 UTC 2018)
(GPL source distribution)
Java Runtime: Java(TM) SE Runtime Environment
JVM: Java HotSpot(TM) 64-Bit Server VM
Java Version: 1.8.0_151-b12
Operating System: Linux
OS Version: 4.4.0-101-generic
Default Encoding: UTF-8
Language: en
Country: US
--></g></svg>