<?xml version="1.0" encoding="UTF-8" standalone="no"?><svg xmlns="http://www.w3.org/2000/svg" xmlns:xlink="http://www.w3.org/1999/xlink" contentScriptType="application/ecmascript" contentStyleType="text/css" height="98px" preserveAspectRatio="none" style="width:134px;height:98px;" version="1.1" viewBox="0 0 134 98" width="134px" zoomAndPan="magnify"><defs><filter height="300%" id="f1tlotr4qi161j" width="300%" x="-1" y="-1"><feGaussianBlur result="blurOut" stdDeviation="2.0"/><feColorMatrix in="blurOut" result="blurOut2" type="matrix" values="0 0 0 0 0 0 0 0 0 0 0 0 0 0 0 0 0 0 .4 0"/><feOffset dx="4.0" dy="4.0" in="blurOut2" result="blurOut3"/><feBlend in="SourceGraphic" in2="blurOut3" mode="normal"/></filter></defs><g><!--class Contract--><rect fill="#FEFECE" filter="url(#f1tlotr4qi161j)" height="79.5469" id="Contract" style="stroke: #A80036; stroke-width: 1.5;" width="117" x="6" y="8"/><ellipse cx="28.65" cy="26.9688" fill="#DA70D6" rx="11" ry="11" style="stroke: #A80036; stroke-width: 1.0;"/><path d="M29.8531,27.1094 Q30.2125,27.1875 30.4859,27.4609 Q30.7594,27.7344 31.15,28.5156 L33.3844,32.9688 L30.6969,32.9688 L29.1969,29.8438 Q29.1344,29.7031 29.025,29.4688 Q28.3688,28.0781 27.4781,28.0781 L26.6969,28.0781 L26.6969,32.9688 L24.2594,32.9688 L24.2594,20.5781 L27.7906,20.5781 Q30.1813,20.5781 31.2203,21.4219 Q32.2594,22.2656 32.2594,24.1719 Q32.2594,25.4531 31.6422,26.2109 Q31.025,26.9688 29.8531,27.1094 Z M26.6969,22.6406 L26.6969,26.0156 L27.8531,26.0156 Q28.8688,26.0156 29.2984,25.6172 Q29.7281,25.2188 29.7281,24.3125 Q29.7281,23.4219 29.2984,23.0313 Q28.8688,22.6406 27.8531,22.6406 L26.6969,22.6406 Z "/><text fill="#000000" font-family="sans-serif" font-size="12" font-style="italic" lengthAdjust="spacingAndGlyphs" textLength="72" x="42.35" y="24.1387">«Resource»</text><text fill="#000000" font-family="sans-serif" font-size="12" lengthAdjust="spacingAndGlyphs" textLength="54" x="51.35" y="38.1074">Contract</text><line style="stroke: #A80036; stroke-width: 1.5;" x1="7" x2="122" y1="45.9375" y2="45.9375"/><ellipse cx="17" cy="57.8398" fill="none" rx="3" ry="3" style="stroke: #038048; stroke-width: 1.0;"/><text fill="#000000" font-family="sans-serif" font-size="11" lengthAdjust="spacingAndGlyphs" textLength="78" x="26" y="60.1479">name : String</text><ellipse cx="17" cy="70.6445" fill="none" rx="3" ry="3" style="stroke: #038048; stroke-width: 1.0;"/><text fill="#000000" font-family="sans-serif" font-size="11" lengthAdjust="spacingAndGlyphs" textLength="91" x="26" y="72.9526">source : Source</text><line style="stroke: #A80036; stroke-width: 1.5;" x1="7" x2="122" y1="79.5469" y2="79.5469"/><!--
@startuml






class Contract << (R,orchid) Resource >> {
  + name : String
  + source : Source
}











































@enduml

PlantUML version 1.2018.14(Fri Dec 21 16:33:16 UTC 2018)
(GPL source distribution)
Java Runtime: Java(TM) SE Runtime Environment
JVM: Java HotSpot(TM) 64-Bit Server VM
Java Version: 1.8.0_151-b12
Operating System: Linux
OS Version: 4.4.0-101-generic
Default Encoding: UTF-8
Language: en
Country: US
--></g></svg>