<?xml version="1.0" encoding="UTF-8" standalone="no"?><svg xmlns="http://www.w3.org/2000/svg" xmlns:xlink="http://www.w3.org/1999/xlink" contentScriptType="application/ecmascript" contentStyleType="text/css" height="266px" preserveAspectRatio="none" style="width:278px;height:266px;" version="1.1" viewBox="0 0 278 266" width="278px" zoomAndPan="magnify"><defs><filter height="300%" id="f156j9pksttfqx" width="300%" x="-1" y="-1"><feGaussianBlur result="blurOut" stdDeviation="2.0"/><feColorMatrix in="blurOut" result="blurOut2" type="matrix" values="0 0 0 0 0 0 0 0 0 0 0 0 0 0 0 0 0 0 .4 0"/><feOffset dx="4.0" dy="4.0" in="blurOut2" result="blurOut3"/><feBlend in="SourceGraphic" in2="blurOut3" mode="normal"/></filter></defs><g><!--class Network--><rect fill="#FEFECE" filter="url(#f156j9pksttfqx)" height="105.1563" id="Network" style="stroke: #A80036; stroke-width: 1.5;" width="160" x="6" y="8.5"/><ellipse cx="48" cy="27.4688" fill="#DA70D6" rx="11" ry="11" style="stroke: #A80036; stroke-width: 1.0;"/><path d="M49.2031,27.6094 Q49.5625,27.6875 49.8359,27.9609 Q50.1094,28.2344 50.5,29.0156 L52.7344,33.4688 L50.0469,33.4688 L48.5469,30.3438 Q48.4844,30.2031 48.375,29.9688 Q47.7188,28.5781 46.8281,28.5781 L46.0469,28.5781 L46.0469,33.4688 L43.6094,33.4688 L43.6094,21.0781 L47.1406,21.0781 Q49.5313,21.0781 50.5703,21.9219 Q51.6094,22.7656 51.6094,24.6719 Q51.6094,25.9531 50.9922,26.7109 Q50.375,27.4688 49.2031,27.6094 Z M46.0469,23.1406 L46.0469,26.5156 L47.2031,26.5156 Q48.2188,26.5156 48.6484,26.1172 Q49.0781,25.7188 49.0781,24.8125 Q49.0781,23.9219 48.6484,23.5313 Q48.2188,23.1406 47.2031,23.1406 L46.0469,23.1406 Z "/><text fill="#000000" font-family="sans-serif" font-size="12" font-style="italic" lengthAdjust="spacingAndGlyphs" textLength="72" x="66" y="24.6387">«Resource»</text><text fill="#000000" font-family="sans-serif" font-size="12" lengthAdjust="spacingAndGlyphs" textLength="51" x="76.5" y="38.6074">Network</text><line style="stroke: #A80036; stroke-width: 1.5;" x1="7" x2="165" y1="46.4375" y2="46.4375"/><ellipse cx="17" cy="58.3398" fill="none" rx="3" ry="3" style="stroke: #038048; stroke-width: 1.0;"/><text fill="#000000" font-family="sans-serif" font-size="11" lengthAdjust="spacingAndGlyphs" textLength="78" x="26" y="60.6479">name : String</text><ellipse cx="17" cy="71.1445" fill="none" rx="3" ry="3" style="stroke: #038048; stroke-width: 1.0;"/><text fill="#000000" font-family="sans-serif" font-size="11" lengthAdjust="spacingAndGlyphs" textLength="124" x="26" y="73.4526">networkId : NetworkID</text><ellipse cx="17" cy="83.9492" fill="none" rx="3" ry="3" style="stroke: #038048; stroke-width: 1.0;"/><text fill="#000000" font-family="sans-serif" font-size="11" lengthAdjust="spacingAndGlyphs" textLength="134" x="26" y="86.2573">fork : Maybe&lt;Network&gt;</text><ellipse cx="17" cy="96.7539" fill="none" rx="3" ry="3" style="stroke: #038048; stroke-width: 1.0;"/><text fill="#000000" font-family="sans-serif" font-size="11" lengthAdjust="spacingAndGlyphs" textLength="110" x="26" y="99.062">historicBlock: Block</text><line style="stroke: #A80036; stroke-width: 1.5;" x1="7" x2="165" y1="105.6563" y2="105.6563"/><!--class Block--><rect fill="#FEFECE" filter="url(#f156j9pksttfqx)" height="79.5469" id="Block" style="stroke: #A80036; stroke-width: 1.5;" width="125" x="23.75" y="176"/><ellipse cx="43.25" cy="194.9688" fill="#7CFC00" rx="11" ry="11" style="stroke: #A80036; stroke-width: 1.0;"/><path d="M43.3594,190.5469 Q42.4219,190.5469 41.9922,191.5469 Q41.5625,192.5469 41.5625,194.7813 Q41.5625,197.0156 41.9922,198.0156 Q42.4219,199.0156 43.3594,199.0156 Q44.3125,199.0156 44.7422,198.0156 Q45.1719,197.0156 45.1719,194.7813 Q45.1719,192.5469 44.7422,191.5469 Q44.3125,190.5469 43.3594,190.5469 Z M39.0156,194.7813 Q39.0156,191.6094 40.1172,189.9766 Q41.2188,188.3438 43.3594,188.3438 Q45.5156,188.3438 46.6172,189.9766 Q47.7188,191.6094 47.7188,194.7813 Q47.7188,197.9531 46.6172,199.5781 Q45.5156,201.2031 43.3594,201.2031 Q41.2188,201.2031 40.1172,199.5781 Q39.0156,197.9531 39.0156,194.7813 Z "/><text fill="#000000" font-family="sans-serif" font-size="12" font-style="italic" lengthAdjust="spacingAndGlyphs" textLength="87" x="56.25" y="192.1387">«Data Object»</text><text fill="#000000" font-family="sans-serif" font-size="12" lengthAdjust="spacingAndGlyphs" textLength="33" x="83.25" y="206.1074">Block</text><line style="stroke: #A80036; stroke-width: 1.5;" x1="24.75" x2="147.75" y1="213.9375" y2="213.9375"/><ellipse cx="34.75" cy="225.8398" fill="none" rx="3" ry="3" style="stroke: #038048; stroke-width: 1.0;"/><text fill="#000000" font-family="sans-serif" font-size="11" lengthAdjust="spacingAndGlyphs" textLength="87" x="43.75" y="228.1479">height : Integer</text><ellipse cx="34.75" cy="238.6445" fill="none" rx="3" ry="3" style="stroke: #038048; stroke-width: 1.0;"/><text fill="#000000" font-family="sans-serif" font-size="11" lengthAdjust="spacingAndGlyphs" textLength="99" x="43.75" y="240.9526">hash : BlockHash</text><line style="stroke: #A80036; stroke-width: 1.5;" x1="24.75" x2="147.75" y1="247.5469" y2="247.5469"/><!--link Network to Network--><path d="M179.17,46.904 C192.244,49.204 201,53.903 201,61 C201,70.27 186.062,75.447 166.077,76.534 " fill="none" id="Network-Network" style="stroke: #A80036; stroke-width: 1.0;"/><polygon fill="#FFFFFF" points="166.077,45.466,171.6047,50.0968,178.0053,46.7754,172.4776,42.1446,166.077,45.466" style="stroke: #A80036; stroke-width: 1.0;"/><text fill="#000000" font-family="sans-serif" font-size="13" lengthAdjust="spacingAndGlyphs" textLength="59" x="207" y="65.0669">«refines»</text><text fill="#000000" font-family="sans-serif" font-size="13" lengthAdjust="spacingAndGlyphs" textLength="24" x="173.9899" y="73.2044">0..1</text><!--link Network to Block--><path d="M86,126.921 C86,143.56 86,160.9467 86,175.8346 " fill="none" id="Network-Block" style="stroke: #A80036; stroke-width: 1.0;"/><polygon fill="#A80036" points="86,113.799,82,119.799,86,125.799,90,119.799,86,113.799" style="stroke: #A80036; stroke-width: 1.0;"/><text fill="#000000" font-family="sans-serif" font-size="13" lengthAdjust="spacingAndGlyphs" textLength="8" x="76.2289" y="164.7968">1</text><!--
@startuml













class Network << (R,orchid) Resource >> {
  + name : String
  + networkId : NetworkID
  + fork : Maybe<Network>
  + historicBlock: Block
}

class Block << (O,lawngreen) Data Object >> {
  + height : Integer
  + hash : BlockHash
}

Network o- - "0..1" Network : <<refines>>
Network *- - "1" Block




































@enduml

PlantUML version 1.2018.14(Fri Dec 21 16:33:16 UTC 2018)
(GPL source distribution)
Java Runtime: Java(TM) SE Runtime Environment
JVM: Java HotSpot(TM) 64-Bit Server VM
Java Version: 1.8.0_151-b12
Operating System: Linux
OS Version: 4.4.0-101-generic
Default Encoding: UTF-8
Language: en
Country: US
--></g></svg>