<?xml version="1.0" encoding="UTF-8" standalone="no"?><svg xmlns="http://www.w3.org/2000/svg" xmlns:xlink="http://www.w3.org/1999/xlink" contentScriptType="application/ecmascript" contentStyleType="text/css" height="454px" preserveAspectRatio="none" style="width:415px;height:454px;" version="1.1" viewBox="0 0 415 454" width="415px" zoomAndPan="magnify"><defs><filter height="300%" id="f1j837xmv00j9k" width="300%" x="-1" y="-1"><feGaussianBlur result="blurOut" stdDeviation="2.0"/><feColorMatrix in="blurOut" result="blurOut2" type="matrix" values="0 0 0 0 0 0 0 0 0 0 0 0 0 0 0 0 0 0 .4 0"/><feOffset dx="4.0" dy="4.0" in="blurOut2" result="blurOut3"/><feBlend in="SourceGraphic" in2="blurOut3" mode="normal"/></filter></defs><g><!--class ContractInstance--><rect fill="#FEFECE" filter="url(#f1j837xmv00j9k)" height="143.5703" id="ContractInstance" style="stroke: #A80036; stroke-width: 1.5;" width="227" x="97" y="8"/><ellipse cx="152.25" cy="26.9688" fill="#DA70D6" rx="11" ry="11" style="stroke: #A80036; stroke-width: 1.0;"/><path d="M153.4531,27.1094 Q153.8125,27.1875 154.0859,27.4609 Q154.3594,27.7344 154.75,28.5156 L156.9844,32.9688 L154.2969,32.9688 L152.7969,29.8438 Q152.7344,29.7031 152.625,29.4688 Q151.9688,28.0781 151.0781,28.0781 L150.2969,28.0781 L150.2969,32.9688 L147.8594,32.9688 L147.8594,20.5781 L151.3906,20.5781 Q153.7813,20.5781 154.8203,21.4219 Q155.8594,22.2656 155.8594,24.1719 Q155.8594,25.4531 155.2422,26.2109 Q154.625,26.9688 153.4531,27.1094 Z M150.2969,22.6406 L150.2969,26.0156 L151.4531,26.0156 Q152.4688,26.0156 152.8984,25.6172 Q153.3281,25.2188 153.3281,24.3125 Q153.3281,23.4219 152.8984,23.0313 Q152.4688,22.6406 151.4531,22.6406 L150.2969,22.6406 Z "/><text fill="#000000" font-family="sans-serif" font-size="12" font-style="italic" lengthAdjust="spacingAndGlyphs" textLength="72" x="190.75" y="24.1387">«Resource»</text><text fill="#000000" font-family="sans-serif" font-size="12" lengthAdjust="spacingAndGlyphs" textLength="108" x="172.75" y="38.1074">ContractInstance</text><line style="stroke: #A80036; stroke-width: 1.5;" x1="98" x2="323" y1="45.9375" y2="45.9375"/><ellipse cx="108" cy="57.8398" fill="none" rx="3" ry="3" style="stroke: #038048; stroke-width: 1.0;"/><text fill="#000000" font-family="sans-serif" font-size="11" lengthAdjust="spacingAndGlyphs" textLength="106" x="117" y="60.1479">address : Address</text><ellipse cx="108" cy="70.6445" fill="none" rx="3" ry="3" style="stroke: #038048; stroke-width: 1.0;"/><text fill="#000000" font-family="sans-serif" font-size="11" lengthAdjust="spacingAndGlyphs" textLength="103" x="117" y="72.9526">network : Network</text><ellipse cx="108" cy="83.4492" fill="none" rx="3" ry="3" style="stroke: #038048; stroke-width: 1.0;"/><text fill="#000000" font-family="sans-serif" font-size="11" lengthAdjust="spacingAndGlyphs" textLength="201" x="117" y="85.7573">transactionHash : TransactionHash</text><ellipse cx="108" cy="96.2539" fill="none" rx="3" ry="3" style="stroke: #038048; stroke-width: 1.0;"/><text fill="#000000" font-family="sans-serif" font-size="11" lengthAdjust="spacingAndGlyphs" textLength="182" x="117" y="98.562">constructorArgs : Array&lt;Value&gt;</text><ellipse cx="108" cy="109.0586" fill="none" rx="3" ry="3" style="stroke: #038048; stroke-width: 1.0;"/><text fill="#000000" font-family="sans-serif" font-size="11" lengthAdjust="spacingAndGlyphs" textLength="160" x="117" y="111.3667">contractType : ContractType</text><ellipse cx="108" cy="121.8633" fill="none" rx="3" ry="3" style="stroke: #038048; stroke-width: 1.0;"/><text fill="#000000" font-family="sans-serif" font-size="11" lengthAdjust="spacingAndGlyphs" textLength="135" x="117" y="124.1714">callBytecode : Bytecode</text><ellipse cx="108" cy="134.668" fill="none" rx="3" ry="3" style="stroke: #038048; stroke-width: 1.0;"/><text fill="#000000" font-family="sans-serif" font-size="11" lengthAdjust="spacingAndGlyphs" textLength="159" x="117" y="136.9761">linkValues : Set&lt;LinkValue&gt;</text><line style="stroke: #A80036; stroke-width: 1.5;" x1="98" x2="323" y1="143.5703" y2="143.5703"/><!--class LinkValue--><rect fill="#FEFECE" filter="url(#f1j837xmv00j9k)" height="79.5469" id="LinkValue" style="stroke: #A80036; stroke-width: 1.5;" width="193" x="6" y="218"/><ellipse cx="56.75" cy="236.9688" fill="#7CFC00" rx="11" ry="11" style="stroke: #A80036; stroke-width: 1.0;"/><path d="M56.8594,232.5469 Q55.9219,232.5469 55.4922,233.5469 Q55.0625,234.5469 55.0625,236.7813 Q55.0625,239.0156 55.4922,240.0156 Q55.9219,241.0156 56.8594,241.0156 Q57.8125,241.0156 58.2422,240.0156 Q58.6719,239.0156 58.6719,236.7813 Q58.6719,234.5469 58.2422,233.5469 Q57.8125,232.5469 56.8594,232.5469 Z M52.5156,236.7813 Q52.5156,233.6094 53.6172,231.9766 Q54.7188,230.3438 56.8594,230.3438 Q59.0156,230.3438 60.1172,231.9766 Q61.2188,233.6094 61.2188,236.7813 Q61.2188,239.9531 60.1172,241.5781 Q59.0156,243.2031 56.8594,243.2031 Q54.7188,243.2031 53.6172,241.5781 Q52.5156,239.9531 52.5156,236.7813 Z "/><text fill="#000000" font-family="sans-serif" font-size="12" font-style="italic" lengthAdjust="spacingAndGlyphs" textLength="87" x="75.25" y="234.1387">«Data Object»</text><text fill="#000000" font-family="sans-serif" font-size="12" lengthAdjust="spacingAndGlyphs" textLength="59" x="89.25" y="248.1074">LinkValue</text><line style="stroke: #A80036; stroke-width: 1.5;" x1="7" x2="198" y1="255.9375" y2="255.9375"/><ellipse cx="17" cy="267.8398" fill="none" rx="3" ry="3" style="stroke: #038048; stroke-width: 1.0;"/><text fill="#000000" font-family="sans-serif" font-size="11" lengthAdjust="spacingAndGlyphs" textLength="167" x="26" y="270.1479">linkReference : LinkReference</text><ellipse cx="17" cy="280.6445" fill="none" rx="3" ry="3" style="stroke: #038048; stroke-width: 1.0;"/><text fill="#000000" font-family="sans-serif" font-size="11" lengthAdjust="spacingAndGlyphs" textLength="74" x="26" y="282.9526">value : Bytes</text><line style="stroke: #A80036; stroke-width: 1.5;" x1="7" x2="198" y1="289.5469" y2="289.5469"/><!--class LinkReference--><rect fill="#FEFECE" filter="url(#f1j837xmv00j9k)" height="79.5469" id="LinkReference" style="stroke: #A80036; stroke-width: 1.5;" width="186" x="9.75" y="364"/><ellipse cx="54.5" cy="382.9688" fill="#7CFC00" rx="11" ry="11" style="stroke: #A80036; stroke-width: 1.0;"/><path d="M54.6094,378.5469 Q53.6719,378.5469 53.2422,379.5469 Q52.8125,380.5469 52.8125,382.7813 Q52.8125,385.0156 53.2422,386.0156 Q53.6719,387.0156 54.6094,387.0156 Q55.5625,387.0156 55.9922,386.0156 Q56.4219,385.0156 56.4219,382.7813 Q56.4219,380.5469 55.9922,379.5469 Q55.5625,378.5469 54.6094,378.5469 Z M50.2656,382.7813 Q50.2656,379.6094 51.3672,377.9766 Q52.4688,376.3438 54.6094,376.3438 Q56.7656,376.3438 57.8672,377.9766 Q58.9688,379.6094 58.9688,382.7813 Q58.9688,385.9531 57.8672,387.5781 Q56.7656,389.2031 54.6094,389.2031 Q52.4688,389.2031 51.3672,387.5781 Q50.2656,385.9531 50.2656,382.7813 Z "/><text fill="#000000" font-family="sans-serif" font-size="12" font-style="italic" lengthAdjust="spacingAndGlyphs" textLength="87" x="75.5" y="380.1387">«Data Object»</text><text fill="#000000" font-family="sans-serif" font-size="12" lengthAdjust="spacingAndGlyphs" textLength="88" x="75" y="394.1074">LinkReference</text><line style="stroke: #A80036; stroke-width: 1.5;" x1="10.75" x2="194.75" y1="401.9375" y2="401.9375"/><ellipse cx="20.75" cy="413.8398" fill="none" rx="3" ry="3" style="stroke: #038048; stroke-width: 1.0;"/><text fill="#000000" font-family="sans-serif" font-size="11" lengthAdjust="spacingAndGlyphs" textLength="160" x="29.75" y="416.1479">offsets : Array&lt;ByteOffset&gt;</text><ellipse cx="20.75" cy="426.6445" fill="none" rx="3" ry="3" style="stroke: #038048; stroke-width: 1.0;"/><text fill="#000000" font-family="sans-serif" font-size="11" lengthAdjust="spacingAndGlyphs" textLength="87" x="29.75" y="428.9526">length : Integer</text><line style="stroke: #A80036; stroke-width: 1.5;" x1="10.75" x2="194.75" y1="435.5469" y2="435.5469"/><!--class ContractType--><rect fill="#FEFECE" filter="url(#f1j837xmv00j9k)" height="92.3516" id="ContractType" style="stroke: #A80036; stroke-width: 1.5;" width="170" x="234.25" y="212"/><ellipse cx="274" cy="230.9688" fill="#7CFC00" rx="11" ry="11" style="stroke: #A80036; stroke-width: 1.0;"/><path d="M274.1094,226.5469 Q273.1719,226.5469 272.7422,227.5469 Q272.3125,228.5469 272.3125,230.7813 Q272.3125,233.0156 272.7422,234.0156 Q273.1719,235.0156 274.1094,235.0156 Q275.0625,235.0156 275.4922,234.0156 Q275.9219,233.0156 275.9219,230.7813 Q275.9219,228.5469 275.4922,227.5469 Q275.0625,226.5469 274.1094,226.5469 Z M269.7656,230.7813 Q269.7656,227.6094 270.8672,225.9766 Q271.9688,224.3438 274.1094,224.3438 Q276.2656,224.3438 277.3672,225.9766 Q278.4688,227.6094 278.4688,230.7813 Q278.4688,233.9531 277.3672,235.5781 Q276.2656,237.2031 274.1094,237.2031 Q271.9688,237.2031 270.8672,235.5781 Q269.7656,233.9531 269.7656,230.7813 Z "/><text fill="#000000" font-family="sans-serif" font-size="12" font-style="italic" lengthAdjust="spacingAndGlyphs" textLength="87" x="291.5" y="228.1387">«Data Object»</text><text fill="#000000" font-family="sans-serif" font-size="12" lengthAdjust="spacingAndGlyphs" textLength="83" x="293.5" y="242.1074">ContractType</text><line style="stroke: #A80036; stroke-width: 1.5;" x1="235.25" x2="403.25" y1="249.9375" y2="249.9375"/><ellipse cx="245.25" cy="261.8398" fill="none" rx="3" ry="3" style="stroke: #038048; stroke-width: 1.0;"/><text fill="#000000" font-family="sans-serif" font-size="11" lengthAdjust="spacingAndGlyphs" textLength="106" x="254.25" y="264.1479">contract : Contract</text><ellipse cx="245.25" cy="274.6445" fill="none" rx="3" ry="3" style="stroke: #038048; stroke-width: 1.0;"/><text fill="#000000" font-family="sans-serif" font-size="11" lengthAdjust="spacingAndGlyphs" textLength="47" x="254.25" y="276.9526">abi : ABI</text><ellipse cx="245.25" cy="287.4492" fill="none" rx="3" ry="3" style="stroke: #038048; stroke-width: 1.0;"/><text fill="#000000" font-family="sans-serif" font-size="11" lengthAdjust="spacingAndGlyphs" textLength="144" x="254.25" y="289.7573">compilation : Compilation</text><line style="stroke: #A80036; stroke-width: 1.5;" x1="235.25" x2="403.25" y1="296.3516" y2="296.3516"/><!--link ContractInstance to ContractType--><path d="M261.379,163.557 C271.711,180.239 282.204,197.183 291.368,211.979 " fill="none" id="ContractInstance-ContractType" style="stroke: #A80036; stroke-width: 1.0;"/><polygon fill="#A80036" points="254.27,152.079,254.0284,159.2861,260.5882,162.281,260.8298,155.0739,254.27,152.079" style="stroke: #A80036; stroke-width: 1.0;"/><text fill="#000000" font-family="sans-serif" font-size="13" lengthAdjust="spacingAndGlyphs" textLength="8" x="278.155" y="201.0464">1</text><!--link ContractInstance to LinkValue--><path d="M159.833,163.162 C148.21,182.102 136.366,201.404 126.465,217.538 " fill="none" id="ContractInstance-LinkValue" style="stroke: #A80036; stroke-width: 1.0;"/><polygon fill="#A80036" points="166.634,152.079,160.0864,155.1005,160.3572,162.3065,166.9048,159.285,166.634,152.079" style="stroke: #A80036; stroke-width: 1.0;"/><text fill="#000000" font-family="sans-serif" font-size="13" lengthAdjust="spacingAndGlyphs" textLength="8" x="120.0134" y="207.065">n</text><!--link LinkValue to LinkReference--><path d="M102.25,298.349 C102.25,316.921 102.25,339.171 102.25,358.3703 " fill="none" id="LinkValue-LinkReference" style="stroke: #A80036; stroke-width: 1.0; stroke-dasharray: 7.0,7.0;"/><polygon fill="#A80036" points="102.25,363.6989,106.25,354.6989,102.25,358.6989,98.25,354.6989,102.25,363.6989" style="stroke: #A80036; stroke-width: 1.0;"/><text fill="#000000" font-family="sans-serif" font-size="13" lengthAdjust="spacingAndGlyphs" textLength="8" x="92.4766" y="352.9443">1</text><!--
@startuml










class ContractInstance << (R,orchid) Resource >> {
  + address : Address
  + network : Network
  + transactionHash : TransactionHash
  + constructorArgs : Array<Value>
  + contractType : ContractType
  + callBytecode : Bytecode
  + linkValues : Set<LinkValue>
}







class LinkValue << (O,lawngreen) Data Object >> {
  + linkReference : LinkReference
  + value : Bytes
}

class LinkReference << (O,lawngreen) Data Object >> {
  + offsets : Array<ByteOffset>
  + length : Integer
}

class ContractType << (O,lawngreen) Data Object >> {
  + contract : Contract
  + abi : ABI
  + compilation : Compilation
}












ContractInstance *- - "1" ContractType



ContractInstance *- - "n" LinkValue














LinkValue ..> "1" LinkReference

@enduml

PlantUML version 1.2018.14(Fri Dec 21 16:33:16 UTC 2018)
(GPL source distribution)
Java Runtime: Java(TM) SE Runtime Environment
JVM: Java HotSpot(TM) 64-Bit Server VM
Java Version: 1.8.0_151-b12
Operating System: Linux
OS Version: 4.4.0-101-generic
Default Encoding: UTF-8
Language: en
Country: US
--></g></svg>