<?xml version="1.0" encoding="UTF-8" standalone="no"?><svg xmlns="http://www.w3.org/2000/svg" xmlns:xlink="http://www.w3.org/1999/xlink" contentScriptType="application/ecmascript" contentStyleType="text/css" height="816px" preserveAspectRatio="none" style="width:608px;height:816px;" version="1.1" viewBox="0 0 608 816" width="608.25px" zoomAndPan="magnify"><defs><filter height="300%" id="f15k0p2v6v3zp" width="300%" x="-1" y="-1"><feGaussianBlur result="blurOut" stdDeviation="1.5"/><feColorMatrix in="blurOut" result="blurOut2" type="matrix" values="0 0 0 0 0 0 0 0 0 0 0 0 0 0 0 0 0 0 .4 0"/><feOffset dx="3.0" dy="3.0" in="blurOut2" result="blurOut3"/><feBlend in="SourceGraphic" in2="blurOut3" mode="normal"/></filter></defs><g><!--class Contract--><rect fill="#FEFECE" filter="url(#f15k0p2v6v3zp)" height="107.6777" id="Contract" style="stroke: #A80036; stroke-width: 1.125;" width="197.25" x="121.125" y="6"/><ellipse cx="170.0625" cy="20.2266" fill="#FF8C00" rx="8.25" ry="8.25" style="stroke: #A80036; stroke-width: 0.75;"/><path d="M170.9648,20.332 Q171.2344,20.3906 171.4336,20.6016 Q171.6445,20.8008 171.9375,21.3867 L173.6133,24.7266 L171.5977,24.7266 L170.4727,22.3828 Q170.4258,22.2773 170.3438,22.1016 Q169.8516,21.0586 169.1836,21.0586 L168.5977,21.0586 L168.5977,24.7266 L166.7695,24.7266 L166.7695,15.4336 L169.418,15.4336 Q171.2109,15.4336 171.9844,16.0664 Q172.7695,16.6992 172.7695,18.1289 Q172.7695,19.0898 172.3008,19.6641 Q171.8438,20.2266 170.9648,20.332 Z M168.5977,16.9805 L168.5977,19.5117 L169.4648,19.5117 Q170.2266,19.5117 170.543,19.2188 Q170.8711,18.9141 170.8711,18.2344 Q170.8711,17.5664 170.543,17.2734 Q170.2266,16.9805 169.4648,16.9805 L168.5977,16.9805 Z "/><text fill="#000000" font-family="sans-serif" font-size="9" font-style="italic" lengthAdjust="spacingAndGlyphs" textLength="96" x="183.9375" y="18.104">«External Resource»</text><text fill="#000000" font-family="sans-serif" font-size="9" lengthAdjust="spacingAndGlyphs" textLength="40.5" x="211.6875" y="28.5806">Contract</text><line style="stroke: #A80036; stroke-width: 1.125;" x1="121.875" x2="317.625" y1="34.4531" y2="34.4531"/><ellipse cx="129.375" cy="43.3799" fill="none" rx="2.25" ry="2.25" style="stroke: #038048; stroke-width: 0.75;"/><text fill="#000000" font-family="sans-serif" font-size="8.25" lengthAdjust="spacingAndGlyphs" textLength="55.5" x="136.125" y="45.111">name: String</text><ellipse cx="129.375" cy="52.9834" fill="none" rx="2.25" ry="2.25" style="stroke: #038048; stroke-width: 0.75;"/><text fill="#000000" font-family="sans-serif" font-size="8.25" lengthAdjust="spacingAndGlyphs" textLength="32.25" x="136.125" y="54.7145">abi: ABI</text><line style="stroke: #A80036; stroke-width: 1.125;" x1="121.875" x2="317.625" y1="59.6602" y2="59.6602"/><ellipse cx="129.375" cy="68.5869" fill="#84BE84" rx="2.25" ry="2.25" style="stroke: #038048; stroke-width: 0.75;"/><text fill="#000000" font-family="sans-serif" font-size="8.25" lengthAdjust="spacingAndGlyphs" textLength="151.5" x="136.125" y="70.318">createBytecode: Maybe&lt;Bytecode&gt;</text><ellipse cx="129.375" cy="78.1904" fill="#84BE84" rx="2.25" ry="2.25" style="stroke: #038048; stroke-width: 0.75;"/><text fill="#000000" font-family="sans-serif" font-size="8.25" lengthAdjust="spacingAndGlyphs" textLength="138.75" x="136.125" y="79.9215">callBytecode: Maybe&lt;Bytecode&gt;</text><ellipse cx="129.375" cy="87.7939" fill="#84BE84" rx="2.25" ry="2.25" style="stroke: #038048; stroke-width: 0.75;"/><text fill="#000000" font-family="sans-serif" font-size="8.25" lengthAdjust="spacingAndGlyphs" textLength="145.5" x="136.125" y="89.525">compilation: Maybe&lt;Compilation&gt;</text><ellipse cx="129.375" cy="97.3975" fill="#84BE84" rx="2.25" ry="2.25" style="stroke: #038048; stroke-width: 0.75;"/><text fill="#000000" font-family="sans-serif" font-size="8.25" lengthAdjust="spacingAndGlyphs" textLength="177.75" x="136.125" y="99.1285">sourceContract: Maybe&lt;SourceContract&gt;</text><ellipse cx="129.375" cy="107.001" fill="#84BE84" rx="2.25" ry="2.25" style="stroke: #038048; stroke-width: 0.75;"/><text fill="#000000" font-family="sans-serif" font-size="8.25" lengthAdjust="spacingAndGlyphs" textLength="117" x="136.125" y="108.7321">interface: ContractInterface</text><!--class Bytecode--><rect fill="#FEFECE" filter="url(#f15k0p2v6v3zp)" height="78.8672" id="Bytecode" style="stroke: #A80036; stroke-width: 1.125;" width="177.75" x="167.625" y="729"/><ellipse cx="227.4375" cy="743.2266" fill="#DA70D6" rx="8.25" ry="8.25" style="stroke: #A80036; stroke-width: 0.75;"/><path d="M228.3398,743.332 Q228.6094,743.3906 228.8086,743.6016 Q229.0195,743.8008 229.3125,744.3867 L230.9883,747.7266 L228.9727,747.7266 L227.8477,745.3828 Q227.8008,745.2773 227.7188,745.1016 Q227.2266,744.0586 226.5586,744.0586 L225.9727,744.0586 L225.9727,747.7266 L224.1445,747.7266 L224.1445,738.4336 L226.793,738.4336 Q228.5859,738.4336 229.3594,739.0664 Q230.1445,739.6992 230.1445,741.1289 Q230.1445,742.0898 229.6758,742.6641 Q229.2188,743.2266 228.3398,743.332 Z M225.9727,739.9805 L225.9727,742.5117 L226.8398,742.5117 Q227.6016,742.5117 227.918,742.2188 Q228.2461,741.9141 228.2461,741.2344 Q228.2461,740.5664 227.918,740.2734 Q227.6016,739.9805 226.8398,739.9805 L225.9727,739.9805 Z "/><text fill="#000000" font-family="sans-serif" font-size="9" font-style="italic" lengthAdjust="spacingAndGlyphs" textLength="54.75" x="241.3125" y="741.104">«Resource»</text><text fill="#000000" font-family="sans-serif" font-size="9" lengthAdjust="spacingAndGlyphs" textLength="43.5" x="246.9375" y="751.5806">Bytecode</text><line style="stroke: #A80036; stroke-width: 1.125;" x1="168.375" x2="344.625" y1="757.4531" y2="757.4531"/><ellipse cx="175.875" cy="766.3799" fill="none" rx="2.25" ry="2.25" style="stroke: #038048; stroke-width: 0.75;"/><text fill="#000000" font-family="sans-serif" font-size="8.25" lengthAdjust="spacingAndGlyphs" textLength="53.25" x="182.625" y="768.111">bytes: Bytes</text><ellipse cx="175.875" cy="775.9834" fill="none" rx="2.25" ry="2.25" style="stroke: #038048; stroke-width: 0.75;"/><text fill="#000000" font-family="sans-serif" font-size="8.25" lengthAdjust="spacingAndGlyphs" textLength="158.25" x="182.625" y="777.7145">linkReferences : Set&lt;LinkReference&gt;</text><ellipse cx="175.875" cy="785.5869" fill="#84BE84" rx="2.25" ry="2.25" style="stroke: #038048; stroke-width: 0.75;"/><text fill="#000000" font-family="sans-serif" font-size="8.25" lengthAdjust="spacingAndGlyphs" textLength="137.25" x="182.625" y="787.318">instructions: Array&lt;Instruction&gt;</text><line style="stroke: #A80036; stroke-width: 0.75; stroke-dasharray: 1.0,2.0;" x1="168.375" x2="344.625" y1="792.2637" y2="792.2637"/><rect fill="none" height="4.5" style="stroke: #C82930; stroke-width: 0.75;" width="4.5" x="173.625" y="798.9404"/><path d="M187.1563,797.3047 C186.2075,797.3047 185.4375,798.0747 185.4375,799.0234 C185.4375,799.1334 185.4602,799.2276 185.4808,799.3246 L183.375,801.4304 L183.375,802.8054 L185.4375,802.8054 L185.4375,801.4304 L186.8125,801.4304 L186.8125,800.7429 L186.8558,800.6996 C186.9521,800.7202 187.0463,800.7429 187.1569,800.7429 C188.1057,800.7429 188.8757,799.9729 188.8757,799.0241 C188.8757,798.0754 188.1057,797.3054 187.1569,797.3054 M187.5007,797.9929 C187.8788,797.9929 188.1882,798.3023 188.1882,798.6804 C188.1882,799.0585 187.8788,799.3679 187.5007,799.3679 C187.1226,799.3679 186.8132,799.0585 186.8132,798.6804 C186.8132,798.3023 187.1226,797.9929 187.5007,797.9929 " fill="#000000" style="stroke: ; stroke-width: 0.0; stroke-dasharray: ;"/><text fill="#000000" font-family="sans-serif" font-size="8.25" lengthAdjust="spacingAndGlyphs" textLength="21.75" x="192.625" y="802.9215">id: ID</text><text fill="#000000" font-family="sans-serif" font-size="8.25" font-style="italic" lengthAdjust="spacingAndGlyphs" textLength="33.75" x="217.375" y="802.9215">= hash(</text><text fill="#000000" font-family="sans-serif" font-size="8.25" lengthAdjust="spacingAndGlyphs" textLength="0" x="254.125" y="802.9215"/><text fill="#000000" font-family="Andale Mono" font-size="8.25" lengthAdjust="spacingAndGlyphs" textLength="23.25" x="254.125" y="802.9215">bytes</text><text fill="#000000" font-family="sans-serif" font-size="8.25" lengthAdjust="spacingAndGlyphs" textLength="0" x="280.375" y="802.9215"/><text fill="#000000" font-family="sans-serif" font-size="8.25" font-style="italic" lengthAdjust="spacingAndGlyphs" textLength="3" x="280.375" y="802.9215">)</text><!--class Instruction--><rect fill="#FEFECE" filter="url(#f15k0p2v6v3zp)" height="78.8672" id="Instruction" style="stroke: #A80036; stroke-width: 1.125;" width="121.5" x="354.75" y="559.5"/><ellipse cx="381.525" cy="573.7266" fill="#7CFC00" rx="8.25" ry="8.25" style="stroke: #A80036; stroke-width: 0.75;"/><path d="M381.607,570.4102 Q380.9039,570.4102 380.5758,571.1602 Q380.2594,571.9102 380.2594,573.5859 Q380.2594,575.2617 380.5758,576.0117 Q380.9039,576.7617 381.607,576.7617 Q382.3219,576.7617 382.6383,576.0117 Q382.9664,575.2617 382.9664,573.5859 Q382.9664,571.9102 382.6383,571.1602 Q382.3219,570.4102 381.607,570.4102 Z M378.3492,573.5859 Q378.3492,571.207 379.1695,569.9883 Q380.0016,568.7578 381.607,568.7578 Q383.2242,568.7578 384.0445,569.9883 Q384.8766,571.207 384.8766,573.5859 Q384.8766,575.9648 384.0445,577.1836 Q383.2242,578.4023 381.607,578.4023 Q380.0016,578.4023 379.1695,577.1836 Q378.3492,575.9648 378.3492,573.5859 Z "/><text fill="#000000" font-family="sans-serif" font-size="9" font-style="italic" lengthAdjust="spacingAndGlyphs" textLength="66" x="393.975" y="571.604">«Data Object»</text><text fill="#000000" font-family="sans-serif" font-size="9" lengthAdjust="spacingAndGlyphs" textLength="50.25" x="401.85" y="582.0806">Instruction</text><line style="stroke: #A80036; stroke-width: 1.125;" x1="355.5" x2="475.5" y1="587.9531" y2="587.9531"/><ellipse cx="363" cy="596.8799" fill="none" rx="2.25" ry="2.25" style="stroke: #038048; stroke-width: 0.75;"/><text fill="#000000" font-family="sans-serif" font-size="8.25" lengthAdjust="spacingAndGlyphs" textLength="102" x="369.75" y="598.611">programCounter: String</text><ellipse cx="363" cy="606.4834" fill="none" rx="2.25" ry="2.25" style="stroke: #038048; stroke-width: 0.75;"/><text fill="#000000" font-family="sans-serif" font-size="8.25" lengthAdjust="spacingAndGlyphs" textLength="66.75" x="369.75" y="608.2145">opcode: Integer</text><ellipse cx="363" cy="616.0869" fill="none" rx="2.25" ry="2.25" style="stroke: #038048; stroke-width: 0.75;"/><text fill="#000000" font-family="sans-serif" font-size="8.25" lengthAdjust="spacingAndGlyphs" textLength="72" x="369.75" y="617.818">pushData: String</text><ellipse cx="363" cy="625.6904" fill="none" rx="2.25" ry="2.25" style="stroke: #038048; stroke-width: 0.75;"/><text fill="#000000" font-family="sans-serif" font-size="8.25" lengthAdjust="spacingAndGlyphs" textLength="93" x="369.75" y="627.4215">meta: InstructionMeta</text><line style="stroke: #A80036; stroke-width: 1.125;" x1="355.5" x2="475.5" y1="632.3672" y2="632.3672"/><!--class InstructionMeta--><rect fill="#FEFECE" filter="url(#f15k0p2v6v3zp)" height="78.8672" id="InstructionMeta" style="stroke: #A80036; stroke-width: 1.125;" width="97.5" x="502.5" y="559.5"/><ellipse cx="513.75" cy="573.7266" fill="#7CFC00" rx="8.25" ry="8.25" style="stroke: #A80036; stroke-width: 0.75;"/><path d="M513.832,570.4102 Q513.1289,570.4102 512.8008,571.1602 Q512.4844,571.9102 512.4844,573.5859 Q512.4844,575.2617 512.8008,576.0117 Q513.1289,576.7617 513.832,576.7617 Q514.5469,576.7617 514.8633,576.0117 Q515.1914,575.2617 515.1914,573.5859 Q515.1914,571.9102 514.8633,571.1602 Q514.5469,570.4102 513.832,570.4102 Z M510.5742,573.5859 Q510.5742,571.207 511.3945,569.9883 Q512.2266,568.7578 513.832,568.7578 Q515.4492,568.7578 516.2695,569.9883 Q517.1016,571.207 517.1016,573.5859 Q517.1016,575.9648 516.2695,577.1836 Q515.4492,578.4023 513.832,578.4023 Q512.2266,578.4023 511.3945,577.1836 Q510.5742,575.9648 510.5742,573.5859 Z "/><text fill="#000000" font-family="sans-serif" font-size="9" font-style="italic" lengthAdjust="spacingAndGlyphs" textLength="66" x="528" y="571.604">«Data Object»</text><text fill="#000000" font-family="sans-serif" font-size="9" lengthAdjust="spacingAndGlyphs" textLength="73.5" x="524.25" y="582.0806">InstructionMeta</text><line style="stroke: #A80036; stroke-width: 1.125;" x1="503.25" x2="599.25" y1="587.9531" y2="587.9531"/><ellipse cx="510.75" cy="596.8799" fill="none" rx="2.25" ry="2.25" style="stroke: #038048; stroke-width: 0.75;"/><text fill="#000000" font-family="sans-serif" font-size="8.25" lengthAdjust="spacingAndGlyphs" textLength="54" x="517.5" y="598.611">cost: Integer</text><ellipse cx="510.75" cy="606.4834" fill="none" rx="2.25" ry="2.25" style="stroke: #038048; stroke-width: 0.75;"/><text fill="#000000" font-family="sans-serif" font-size="8.25" lengthAdjust="spacingAndGlyphs" textLength="57" x="517.5" y="608.2145">pops: Integer</text><ellipse cx="510.75" cy="616.0869" fill="none" rx="2.25" ry="2.25" style="stroke: #038048; stroke-width: 0.75;"/><text fill="#000000" font-family="sans-serif" font-size="8.25" lengthAdjust="spacingAndGlyphs" textLength="67.5" x="517.5" y="617.818">pushes: Integer</text><ellipse cx="510.75" cy="625.6904" fill="none" rx="2.25" ry="2.25" style="stroke: #038048; stroke-width: 0.75;"/><text fill="#000000" font-family="sans-serif" font-size="8.25" lengthAdjust="spacingAndGlyphs" textLength="71.25" x="517.5" y="627.4215">dynamic: Integer</text><line style="stroke: #A80036; stroke-width: 1.125;" x1="503.25" x2="599.25" y1="632.3672" y2="632.3672"/><!--class Source--><rect fill="#FEFECE" filter="url(#f15k0p2v6v3zp)" height="69.2637" id="Source" style="stroke: #A80036; stroke-width: 1.125;" width="187.75" x="381" y="297.375"/><ellipse cx="445.8125" cy="311.6016" fill="#DA70D6" rx="8.25" ry="8.25" style="stroke: #A80036; stroke-width: 0.75;"/><path d="M446.7148,311.707 Q446.9844,311.7656 447.1836,311.9766 Q447.3945,312.1758 447.6875,312.7617 L449.3633,316.1016 L447.3477,316.1016 L446.2227,313.7578 Q446.1758,313.6523 446.0938,313.4766 Q445.6016,312.4336 444.9336,312.4336 L444.3477,312.4336 L444.3477,316.1016 L442.5195,316.1016 L442.5195,306.8086 L445.168,306.8086 Q446.9609,306.8086 447.7344,307.4414 Q448.5195,308.0742 448.5195,309.5039 Q448.5195,310.4648 448.0508,311.0391 Q447.5938,311.6016 446.7148,311.707 Z M444.3477,308.3555 L444.3477,310.8867 L445.2148,310.8867 Q445.9766,310.8867 446.293,310.5938 Q446.6211,310.2891 446.6211,309.6094 Q446.6211,308.9414 446.293,308.6484 Q445.9766,308.3555 445.2148,308.3555 L444.3477,308.3555 Z "/><text fill="#000000" font-family="sans-serif" font-size="9" font-style="italic" lengthAdjust="spacingAndGlyphs" textLength="54.75" x="459.6875" y="309.479">«Resource»</text><text fill="#000000" font-family="sans-serif" font-size="9" lengthAdjust="spacingAndGlyphs" textLength="33" x="470.5625" y="319.9556">Source</text><line style="stroke: #A80036; stroke-width: 1.125;" x1="381.75" x2="568" y1="325.8281" y2="325.8281"/><ellipse cx="389.25" cy="334.7549" fill="none" rx="2.25" ry="2.25" style="stroke: #038048; stroke-width: 0.75;"/><text fill="#000000" font-family="sans-serif" font-size="8.25" lengthAdjust="spacingAndGlyphs" textLength="68.25" x="396" y="336.486">contents: String</text><ellipse cx="389.25" cy="344.3584" fill="none" rx="2.25" ry="2.25" style="stroke: #038048; stroke-width: 0.75;"/><text fill="#000000" font-family="sans-serif" font-size="8.25" lengthAdjust="spacingAndGlyphs" textLength="120" x="396" y="346.0895">sourcePath: Maybe&lt;String&gt;</text><line style="stroke: #A80036; stroke-width: 0.75; stroke-dasharray: 1.0,2.0;" x1="381.75" x2="568" y1="351.0352" y2="351.0352"/><rect fill="none" height="4.5" style="stroke: #C82930; stroke-width: 0.75;" width="4.5" x="387" y="357.7119"/><path d="M400.5313,356.0762 C399.5825,356.0762 398.8125,356.8462 398.8125,357.7949 C398.8125,357.9049 398.8352,357.9991 398.8558,358.096 L396.75,360.2019 L396.75,361.5769 L398.8125,361.5769 L398.8125,360.2019 L400.1875,360.2019 L400.1875,359.5144 L400.2308,359.471 C400.3271,359.4917 400.4213,359.5144 400.5319,359.5144 C401.4807,359.5144 402.2507,358.7444 402.2507,357.7956 C402.2507,356.8469 401.4807,356.0769 400.5319,356.0769 M400.8757,356.7644 C401.2538,356.7644 401.5632,357.0737 401.5632,357.4519 C401.5632,357.83 401.2538,358.1394 400.8757,358.1394 C400.4976,358.1394 400.1882,357.83 400.1882,357.4519 C400.1882,357.0737 400.4976,356.7644 400.8757,356.7644 " fill="#000000" style="stroke: ; stroke-width: 0.0; stroke-dasharray: ;"/><text fill="#000000" font-family="sans-serif" font-size="8.25" lengthAdjust="spacingAndGlyphs" textLength="21.75" x="406" y="361.693">id: ID</text><text fill="#000000" font-family="sans-serif" font-size="8.25" font-style="italic" lengthAdjust="spacingAndGlyphs" textLength="33.75" x="430.75" y="361.693">= hash(</text><text fill="#000000" font-family="sans-serif" font-size="8.25" lengthAdjust="spacingAndGlyphs" textLength="0" x="467.5" y="361.693"/><text fill="#000000" font-family="Andale Mono" font-size="8.25" lengthAdjust="spacingAndGlyphs" textLength="36.75" x="467.5" y="361.693">contents</text><text fill="#000000" font-family="sans-serif" font-size="8.25" font-style="italic" lengthAdjust="spacingAndGlyphs" textLength="3" x="504.25" y="361.693">,</text><text fill="#000000" font-family="sans-serif" font-size="8.25" lengthAdjust="spacingAndGlyphs" textLength="0" x="510.25" y="361.693"/><text fill="#000000" font-family="Andale Mono" font-size="8.25" lengthAdjust="spacingAndGlyphs" textLength="48" x="510.25" y="361.693">sourcePath</text><text fill="#000000" font-family="sans-serif" font-size="8.25" lengthAdjust="spacingAndGlyphs" textLength="0" x="561.25" y="361.693"/><text fill="#000000" font-family="sans-serif" font-size="8.25" font-style="italic" lengthAdjust="spacingAndGlyphs" textLength="3" x="561.25" y="361.693">)</text><!--class Compilation--><rect fill="#FEFECE" filter="url(#f15k0p2v6v3zp)" height="98.0742" id="Compilation" style="stroke: #A80036; stroke-width: 1.125;" width="181.75" x="173.25" y="282.75"/><ellipse cx="233.5625" cy="296.9766" fill="#DA70D6" rx="8.25" ry="8.25" style="stroke: #A80036; stroke-width: 0.75;"/><path d="M234.4648,297.082 Q234.7344,297.1406 234.9336,297.3516 Q235.1445,297.5508 235.4375,298.1367 L237.1133,301.4766 L235.0977,301.4766 L233.9727,299.1328 Q233.9258,299.0273 233.8437,298.8516 Q233.3516,297.8086 232.6836,297.8086 L232.0977,297.8086 L232.0977,301.4766 L230.2695,301.4766 L230.2695,292.1836 L232.918,292.1836 Q234.7109,292.1836 235.4844,292.8164 Q236.2695,293.4492 236.2695,294.8789 Q236.2695,295.8398 235.8008,296.4141 Q235.3437,296.9766 234.4648,297.082 Z M232.0977,293.7305 L232.0977,296.2617 L232.9648,296.2617 Q233.7266,296.2617 234.043,295.9688 Q234.3711,295.6641 234.3711,294.9844 Q234.3711,294.3164 234.043,294.0234 Q233.7266,293.7305 232.9648,293.7305 L232.0977,293.7305 Z "/><text fill="#000000" font-family="sans-serif" font-size="9" font-style="italic" lengthAdjust="spacingAndGlyphs" textLength="54.75" x="248.9375" y="294.854">«Resource»</text><text fill="#000000" font-family="sans-serif" font-size="9" lengthAdjust="spacingAndGlyphs" textLength="54.75" x="248.9375" y="305.3306">Compilation</text><line style="stroke: #A80036; stroke-width: 1.125;" x1="174" x2="354.25" y1="311.2031" y2="311.2031"/><ellipse cx="181.5" cy="320.1299" fill="none" rx="2.25" ry="2.25" style="stroke: #038048; stroke-width: 0.75;"/><text fill="#000000" font-family="sans-serif" font-size="8.25" lengthAdjust="spacingAndGlyphs" textLength="84" x="188.25" y="321.861">compiler : Compiler</text><ellipse cx="181.5" cy="329.7334" fill="#84BE84" rx="2.25" ry="2.25" style="stroke: #038048; stroke-width: 0.75;"/><text fill="#000000" font-family="sans-serif" font-size="8.25" lengthAdjust="spacingAndGlyphs" textLength="150" x="188.25" y="331.4645">sources : Array&lt;Maybe&lt;Source&gt;&gt;</text><ellipse cx="181.5" cy="339.3369" fill="#84BE84" rx="2.25" ry="2.25" style="stroke: #038048; stroke-width: 0.75;"/><text fill="#000000" font-family="sans-serif" font-size="8.25" lengthAdjust="spacingAndGlyphs" textLength="150.75" x="188.25" y="341.068">contracts : Array&lt;SourceContract&gt;</text><line style="stroke: #A80036; stroke-width: 0.75; stroke-dasharray: 1.0,2.0;" x1="174" x2="354.25" y1="346.0137" y2="346.0137"/><rect fill="none" height="4.5" style="stroke: #C82930; stroke-width: 0.75;" width="4.5" x="179.25" y="352.6904"/><path d="M192.7813,351.0547 C191.8325,351.0547 191.0625,351.8247 191.0625,352.7734 C191.0625,352.8834 191.0852,352.9776 191.1058,353.0746 L189,355.1804 L189,356.5554 L191.0625,356.5554 L191.0625,355.1804 L192.4375,355.1804 L192.4375,354.4929 L192.4808,354.4496 C192.5771,354.4702 192.6713,354.4929 192.7819,354.4929 C193.7307,354.4929 194.5007,353.7229 194.5007,352.7741 C194.5007,351.8254 193.7307,351.0554 192.7819,351.0554 M193.1257,351.7429 C193.5038,351.7429 193.8132,352.0523 193.8132,352.4304 C193.8132,352.8085 193.5038,353.1179 193.1257,353.1179 C192.7476,353.1179 192.4382,352.8085 192.4382,352.4304 C192.4382,352.0523 192.7476,351.7429 193.1257,351.7429 " fill="#000000" style="stroke: ; stroke-width: 0.0; stroke-dasharray: ;"/><text fill="#000000" font-family="sans-serif" font-size="8.25" lengthAdjust="spacingAndGlyphs" textLength="21.75" x="198.25" y="356.6715">id: ID</text><text fill="#000000" font-family="sans-serif" font-size="8.25" font-style="italic" lengthAdjust="spacingAndGlyphs" textLength="33.75" x="223" y="356.6715">= hash(</text><text fill="#000000" font-family="sans-serif" font-size="8.25" lengthAdjust="spacingAndGlyphs" textLength="0" x="259.75" y="356.6715"/><text fill="#000000" font-family="Andale Mono" font-size="8.25" lengthAdjust="spacingAndGlyphs" textLength="36.75" x="259.75" y="356.6715">compiler</text><text fill="#000000" font-family="sans-serif" font-size="8.25" font-style="italic" lengthAdjust="spacingAndGlyphs" textLength="3" x="296.5" y="356.6715">,</text><text fill="#000000" font-family="sans-serif" font-size="8.25" lengthAdjust="spacingAndGlyphs" textLength="0" x="302.5" y="356.6715"/><text fill="#000000" font-family="Andale Mono" font-size="8.25" lengthAdjust="spacingAndGlyphs" textLength="42" x="302.5" y="356.6715">sourceIds</text><text fill="#000000" font-family="sans-serif" font-size="8.25" lengthAdjust="spacingAndGlyphs" textLength="0" x="347.5" y="356.6715"/><text fill="#000000" font-family="sans-serif" font-size="8.25" font-style="italic" lengthAdjust="spacingAndGlyphs" textLength="3" x="347.5" y="356.6715">)</text><rect fill="none" height="4.5" style="stroke: #C82930; stroke-width: 0.75;" width="4.5" x="179.25" y="362.2939"/><text fill="#000000" font-family="sans-serif" font-size="8.25" lengthAdjust="spacingAndGlyphs" textLength="132.75" x="188.25" y="366.275">sourceIds: Array&lt;Maybe&lt;ID&gt;&gt;</text><rect fill="none" height="4.5" style="stroke: #C82930; stroke-width: 0.75;" width="4.5" x="179.25" y="371.8975"/><text fill="#000000" font-family="sans-serif" font-size="8.25" lengthAdjust="spacingAndGlyphs" textLength="141" x="188.25" y="375.8785">contractIds : Array&lt;Maybe&lt;ID&gt;&gt;</text><!--class SourceContract--><rect fill="#FEFECE" filter="url(#f15k0p2v6v3zp)" height="78.8672" id="SourceContract" style="stroke: #A80036; stroke-width: 1.125;" width="97.5" x="259.5" y="159"/><ellipse cx="270.75" cy="173.2266" fill="#7CFC00" rx="8.25" ry="8.25" style="stroke: #A80036; stroke-width: 0.75;"/><path d="M270.832,169.9102 Q270.1289,169.9102 269.8008,170.6602 Q269.4844,171.4102 269.4844,173.0859 Q269.4844,174.7617 269.8008,175.5117 Q270.1289,176.2617 270.832,176.2617 Q271.5469,176.2617 271.8633,175.5117 Q272.1914,174.7617 272.1914,173.0859 Q272.1914,171.4102 271.8633,170.6602 Q271.5469,169.9102 270.832,169.9102 Z M267.5742,173.0859 Q267.5742,170.707 268.3945,169.4883 Q269.2266,168.2578 270.832,168.2578 Q272.4492,168.2578 273.2695,169.4883 Q274.1016,170.707 274.1016,173.0859 Q274.1016,175.4648 273.2695,176.6836 Q272.4492,177.9023 270.832,177.9023 Q269.2266,177.9023 268.3945,176.6836 Q267.5742,175.4648 267.5742,173.0859 Z "/><text fill="#000000" font-family="sans-serif" font-size="9" font-style="italic" lengthAdjust="spacingAndGlyphs" textLength="66" x="285" y="171.104">«Data Object»</text><text fill="#000000" font-family="sans-serif" font-size="9" lengthAdjust="spacingAndGlyphs" textLength="73.5" x="281.25" y="181.5806">SourceContract</text><line style="stroke: #A80036; stroke-width: 1.125;" x1="260.25" x2="356.25" y1="187.4531" y2="187.4531"/><ellipse cx="267.75" cy="196.3799" fill="none" rx="2.25" ry="2.25" style="stroke: #038048; stroke-width: 0.75;"/><text fill="#000000" font-family="sans-serif" font-size="8.25" lengthAdjust="spacingAndGlyphs" textLength="55.5" x="274.5" y="198.111">name: String</text><ellipse cx="267.75" cy="205.9834" fill="none" rx="2.25" ry="2.25" style="stroke: #038048; stroke-width: 0.75;"/><text fill="#000000" font-family="sans-serif" font-size="8.25" lengthAdjust="spacingAndGlyphs" textLength="36" x="274.5" y="207.7145">ast: AST</text><ellipse cx="267.75" cy="215.5869" fill="#84BE84" rx="2.25" ry="2.25" style="stroke: #038048; stroke-width: 0.75;"/><text fill="#000000" font-family="sans-serif" font-size="8.25" lengthAdjust="spacingAndGlyphs" textLength="65.25" x="274.5" y="217.318">source: Source</text><line style="stroke: #A80036; stroke-width: 0.75; stroke-dasharray: 1.0,2.0;" x1="260.25" x2="356.25" y1="222.2637" y2="222.2637"/><rect fill="none" height="4.5" style="stroke: #C82930; stroke-width: 0.75;" width="4.5" x="265.5" y="228.9404"/><text fill="#000000" font-family="sans-serif" font-size="8.25" lengthAdjust="spacingAndGlyphs" textLength="51" x="274.5" y="232.9215">sourceId: ID</text><!--class Compiler--><rect fill="#FEFECE" filter="url(#f15k0p2v6v3zp)" height="69.2637" id="Compiler" style="stroke: #A80036; stroke-width: 1.125;" width="90" x="57" y="297.375"/><ellipse cx="69.6" cy="311.6016" fill="#7CFC00" rx="8.25" ry="8.25" style="stroke: #A80036; stroke-width: 0.75;"/><path d="M69.682,308.2852 Q68.9789,308.2852 68.6508,309.0352 Q68.3344,309.7852 68.3344,311.4609 Q68.3344,313.1367 68.6508,313.8867 Q68.9789,314.6367 69.682,314.6367 Q70.3969,314.6367 70.7133,313.8867 Q71.0414,313.1367 71.0414,311.4609 Q71.0414,309.7852 70.7133,309.0352 Q70.3969,308.2852 69.682,308.2852 Z M66.4242,311.4609 Q66.4242,309.082 67.2445,307.8633 Q68.0766,306.6328 69.682,306.6328 Q71.2992,306.6328 72.1195,307.8633 Q72.9516,309.082 72.9516,311.4609 Q72.9516,313.8398 72.1195,315.0586 Q71.2992,316.2773 69.682,316.2773 Q68.0766,316.2773 67.2445,315.0586 Q66.4242,313.8398 66.4242,311.4609 Z "/><text fill="#000000" font-family="sans-serif" font-size="9" font-style="italic" lengthAdjust="spacingAndGlyphs" textLength="66" x="78.9" y="309.479">«Data Object»</text><text fill="#000000" font-family="sans-serif" font-size="9" lengthAdjust="spacingAndGlyphs" textLength="40.5" x="91.65" y="319.9556">Compiler</text><line style="stroke: #A80036; stroke-width: 1.125;" x1="57.75" x2="146.25" y1="325.8281" y2="325.8281"/><ellipse cx="65.25" cy="334.7549" fill="none" rx="2.25" ry="2.25" style="stroke: #038048; stroke-width: 0.75;"/><text fill="#000000" font-family="sans-serif" font-size="8.25" lengthAdjust="spacingAndGlyphs" textLength="58.5" x="72" y="336.486">name : String</text><ellipse cx="65.25" cy="344.3584" fill="none" rx="2.25" ry="2.25" style="stroke: #038048; stroke-width: 0.75;"/><text fill="#000000" font-family="sans-serif" font-size="8.25" lengthAdjust="spacingAndGlyphs" textLength="66" x="72" y="346.0895">version : String</text><ellipse cx="65.25" cy="353.9619" fill="none" rx="2.25" ry="2.25" style="stroke: #038048; stroke-width: 0.75;"/><text fill="#000000" font-family="sans-serif" font-size="8.25" lengthAdjust="spacingAndGlyphs" textLength="70.5" x="72" y="355.693">settings : Object</text><line style="stroke: #A80036; stroke-width: 1.125;" x1="57.75" x2="146.25" y1="360.6387" y2="360.6387"/><!--class LinkReference--><rect fill="#FEFECE" filter="url(#f15k0p2v6v3zp)" height="69.2637" id="LinkReference" style="stroke: #A80036; stroke-width: 1.125;" width="136.5" x="4.5" y="733.875"/><ellipse cx="36.675" cy="748.1016" fill="#7CFC00" rx="8.25" ry="8.25" style="stroke: #A80036; stroke-width: 0.75;"/><path d="M36.757,744.7852 Q36.0539,744.7852 35.7258,745.5352 Q35.4094,746.2852 35.4094,747.9609 Q35.4094,749.6367 35.7258,750.3867 Q36.0539,751.1367 36.757,751.1367 Q37.4719,751.1367 37.7883,750.3867 Q38.1164,749.6367 38.1164,747.9609 Q38.1164,746.2852 37.7883,745.5352 Q37.4719,744.7852 36.757,744.7852 Z M33.4992,747.9609 Q33.4992,745.582 34.3195,744.3633 Q35.1516,743.1328 36.757,743.1328 Q38.3742,743.1328 39.1945,744.3633 Q40.0266,745.582 40.0266,747.9609 Q40.0266,750.3398 39.1945,751.5586 Q38.3742,752.7773 36.757,752.7773 Q35.1516,752.7773 34.3195,751.5586 Q33.4992,750.3398 33.4992,747.9609 Z "/><text fill="#000000" font-family="sans-serif" font-size="9" font-style="italic" lengthAdjust="spacingAndGlyphs" textLength="66" x="51.825" y="745.979">«Data Object»</text><text fill="#000000" font-family="sans-serif" font-size="9" lengthAdjust="spacingAndGlyphs" textLength="66" x="51.825" y="756.4556">LinkReference</text><line style="stroke: #A80036; stroke-width: 1.125;" x1="5.25" x2="140.25" y1="762.3281" y2="762.3281"/><ellipse cx="12.75" cy="771.2549" fill="none" rx="2.25" ry="2.25" style="stroke: #038048; stroke-width: 0.75;"/><text fill="#000000" font-family="sans-serif" font-size="8.25" lengthAdjust="spacingAndGlyphs" textLength="117" x="19.5" y="772.986">offsets: Array&lt;ByteOffset&gt;</text><ellipse cx="12.75" cy="780.8584" fill="none" rx="2.25" ry="2.25" style="stroke: #038048; stroke-width: 0.75;"/><text fill="#000000" font-family="sans-serif" font-size="8.25" lengthAdjust="spacingAndGlyphs" textLength="96" x="19.5" y="782.5895">name: Maybe&lt;String&gt;</text><ellipse cx="12.75" cy="790.4619" fill="none" rx="2.25" ry="2.25" style="stroke: #038048; stroke-width: 0.75;"/><text fill="#000000" font-family="sans-serif" font-size="8.25" lengthAdjust="spacingAndGlyphs" textLength="62.25" x="19.5" y="792.193">length: Integer</text><line style="stroke: #A80036; stroke-width: 1.125;" x1="5.25" x2="140.25" y1="797.1387" y2="797.1387"/><!--class SourceMap--><rect fill="#FEFECE" filter="url(#f15k0p2v6v3zp)" height="78.8672" id="SourceMap" style="stroke: #A80036; stroke-width: 1.125;" width="293.25" x="109.875" y="430.875"/><ellipse cx="221.8125" cy="445.1016" fill="#7CFC00" rx="8.25" ry="8.25" style="stroke: #A80036; stroke-width: 0.75;"/><path d="M221.8945,441.7852 Q221.1914,441.7852 220.8633,442.5352 Q220.5469,443.2852 220.5469,444.9609 Q220.5469,446.6367 220.8633,447.3867 Q221.1914,448.1367 221.8945,448.1367 Q222.6094,448.1367 222.9258,447.3867 Q223.2539,446.6367 223.2539,444.9609 Q223.2539,443.2852 222.9258,442.5352 Q222.6094,441.7852 221.8945,441.7852 Z M218.6367,444.9609 Q218.6367,442.582 219.457,441.3633 Q220.2891,440.1328 221.8945,440.1328 Q223.5117,440.1328 224.332,441.3633 Q225.1641,442.582 225.1641,444.9609 Q225.1641,447.3398 224.332,448.5586 Q223.5117,449.7773 221.8945,449.7773 Q220.2891,449.7773 219.457,448.5586 Q218.6367,447.3398 218.6367,444.9609 Z "/><text fill="#000000" font-family="sans-serif" font-size="9" font-style="italic" lengthAdjust="spacingAndGlyphs" textLength="66" x="235.6875" y="442.979">«Data Object»</text><text fill="#000000" font-family="sans-serif" font-size="9" lengthAdjust="spacingAndGlyphs" textLength="52.5" x="242.4375" y="453.4556">SourceMap</text><line style="stroke: #A80036; stroke-width: 1.125;" x1="110.625" x2="402.375" y1="459.3281" y2="459.3281"/><ellipse cx="118.125" cy="468.2549" fill="#84BE84" rx="2.25" ry="2.25" style="stroke: #038048; stroke-width: 0.75;"/><text fill="#000000" font-family="sans-serif" font-size="8.25" lengthAdjust="spacingAndGlyphs" textLength="83.25" x="124.875" y="469.986">bytecode: Bytecode</text><ellipse cx="118.125" cy="477.8584" fill="#84BE84" rx="2.25" ry="2.25" style="stroke: #038048; stroke-width: 0.75;"/><text fill="#000000" font-family="sans-serif" font-size="8.25" lengthAdjust="spacingAndGlyphs" textLength="273.75" x="124.875" y="479.5895">instructionSourceRanges(index: Integer): Maybe&lt;SourceRange&gt;</text><line style="stroke: #A80036; stroke-width: 0.75; stroke-dasharray: 1.0,2.0;" x1="110.625" x2="402.375" y1="484.5352" y2="484.5352"/><rect fill="none" height="4.5" style="stroke: #C82930; stroke-width: 0.75;" width="4.5" x="115.875" y="491.2119"/><text fill="#000000" font-family="sans-serif" font-size="8.25" lengthAdjust="spacingAndGlyphs" textLength="94.5" x="124.875" y="495.193">rawSourceMap: String</text><rect fill="none" height="4.5" style="stroke: #C82930; stroke-width: 0.75;" width="4.5" x="115.875" y="500.8154"/><text fill="#000000" font-family="sans-serif" font-size="8.25" lengthAdjust="spacingAndGlyphs" textLength="60" x="124.875" y="504.7965">bytecodeId: ID</text><!--class SourceRange--><rect fill="#FEFECE" filter="url(#f15k0p2v6v3zp)" height="88.4707" id="SourceRange" style="stroke: #A80036; stroke-width: 1.125;" width="90.75" x="429.375" y="426"/><ellipse cx="442.3125" cy="440.2266" fill="#7CFC00" rx="8.25" ry="8.25" style="stroke: #A80036; stroke-width: 0.75;"/><path d="M442.3945,436.9102 Q441.6914,436.9102 441.3633,437.6602 Q441.0469,438.4102 441.0469,440.0859 Q441.0469,441.7617 441.3633,442.5117 Q441.6914,443.2617 442.3945,443.2617 Q443.1094,443.2617 443.4258,442.5117 Q443.7539,441.7617 443.7539,440.0859 Q443.7539,438.4102 443.4258,437.6602 Q443.1094,436.9102 442.3945,436.9102 Z M439.1367,440.0859 Q439.1367,437.707 439.957,436.4883 Q440.7891,435.2578 442.3945,435.2578 Q444.0117,435.2578 444.832,436.4883 Q445.6641,437.707 445.6641,440.0859 Q445.6641,442.4648 444.832,443.6836 Q444.0117,444.9023 442.3945,444.9023 Q440.7891,444.9023 439.957,443.6836 Q439.1367,442.4648 439.1367,440.0859 Z "/><text fill="#000000" font-family="sans-serif" font-size="9" font-style="italic" lengthAdjust="spacingAndGlyphs" textLength="66" x="451.6875" y="438.104">«Data Object»</text><text fill="#000000" font-family="sans-serif" font-size="9" lengthAdjust="spacingAndGlyphs" textLength="63" x="453.1875" y="448.5806">SourceRange</text><line style="stroke: #A80036; stroke-width: 1.125;" x1="430.125" x2="519.375" y1="454.4531" y2="454.4531"/><ellipse cx="437.625" cy="463.3799" fill="none" rx="2.25" ry="2.25" style="stroke: #038048; stroke-width: 0.75;"/><text fill="#000000" font-family="sans-serif" font-size="8.25" lengthAdjust="spacingAndGlyphs" textLength="71.25" x="444.375" y="465.111">start: ByteOffset</text><ellipse cx="437.625" cy="472.9834" fill="none" rx="2.25" ry="2.25" style="stroke: #038048; stroke-width: 0.75;"/><text fill="#000000" font-family="sans-serif" font-size="8.25" lengthAdjust="spacingAndGlyphs" textLength="60.75" x="444.375" y="474.7145">length: Length</text><ellipse cx="437.625" cy="482.5869" fill="none" rx="2.25" ry="2.25" style="stroke: #038048; stroke-width: 0.75;"/><text fill="#000000" font-family="sans-serif" font-size="8.25" lengthAdjust="spacingAndGlyphs" textLength="54.75" x="444.375" y="484.318">meta: Object</text><ellipse cx="437.625" cy="492.1904" fill="#84BE84" rx="2.25" ry="2.25" style="stroke: #038048; stroke-width: 0.75;"/><text fill="#000000" font-family="sans-serif" font-size="8.25" lengthAdjust="spacingAndGlyphs" textLength="65.25" x="444.375" y="493.9215">source: Source</text><line style="stroke: #A80036; stroke-width: 0.75; stroke-dasharray: 1.0,2.0;" x1="430.125" x2="519.375" y1="498.8672" y2="498.8672"/><rect fill="none" height="4.5" style="stroke: #C82930; stroke-width: 0.75;" width="4.5" x="435.375" y="505.5439"/><text fill="#000000" font-family="sans-serif" font-size="8.25" lengthAdjust="spacingAndGlyphs" textLength="51" x="444.375" y="509.525">sourceId: ID</text><!--link Instruction to InstructionMeta--><path d="M486.432,598.875 C491.7795,598.875 497.1278,598.875 502.4752,598.875 " fill="none" id="Instruction-InstructionMeta" style="stroke: #A80036; stroke-width: 0.75;"/><polygon fill="#A80036" points="476.4818,598.875,480.9818,601.875,485.4818,598.875,480.9818,595.875,476.4818,598.875" style="stroke: #A80036; stroke-width: 0.75;"/><text fill="#000000" font-family="sans-serif" font-size="9.75" lengthAdjust="spacingAndGlyphs" textLength="6" x="490.4888" y="596.0238">1</text><!--link Instruction to Bytecode--><path d="M378.8228,638.3783 C355.35,663.18 324.7785,695.4817 300.0705,721.5877 " fill="none" id="Instruction-Bytecode" style="stroke: #A80036; stroke-width: 0.75;"/><polygon fill="#A80036" points="293.268,728.7758,298.54,727.5692,299.454,722.2387,294.182,723.4452,293.268,728.7758" style="stroke: #A80036; stroke-width: 0.75;"/><text fill="#000000" font-family="sans-serif" font-size="9.75" lengthAdjust="spacingAndGlyphs" textLength="6" x="367.4911" y="653.4913">n</text><!--link SourceContract to Compilation--><path d="M295.2128,238.0155 C291.5115,249.057 287.3993,261.3233 283.407,273.2318 " fill="none" id="SourceContract-Compilation" style="stroke: #A80036; stroke-width: 0.75;"/><polygon fill="#A80036" points="280.2413,282.6758,284.5159,279.3625,283.1015,274.1424,278.8269,277.4556,280.2413,282.6758" style="stroke: #A80036; stroke-width: 0.75;"/><text fill="#000000" font-family="sans-serif" font-size="9.75" lengthAdjust="spacingAndGlyphs" textLength="6" x="287.158" y="252.8642">n</text><!--link SourceMap to SourceRange--><path d="M412.893,470.25 C418.3125,470.25 423.7328,470.25 429.1523,470.25 " fill="none" id="SourceMap-SourceRange" style="stroke: #A80036; stroke-width: 0.75;"/><polygon fill="#A80036" points="403.137,470.25,407.637,473.25,412.137,470.25,407.637,467.25,403.137,470.25" style="stroke: #A80036; stroke-width: 0.75;"/><text fill="#000000" font-family="sans-serif" font-size="9.75" lengthAdjust="spacingAndGlyphs" textLength="6" x="417.2294" y="467.3725">n</text><!--link Contract to Bytecode--><path d="M139.0988,120.7238 C82.6358,170.154 17.25,245.8132 17.25,331.125 C17.25,331.125 17.25,331.125 17.25,599.625 C17.25,639.213 106.0928,692.9378 175.5008,728.8702 " fill="none" id="Contract-Bytecode" style="stroke: #A80036; stroke-width: 0.75;"/><polygon fill="#FFFFFF" points="146.643,114.2258,141.2755,114.8891,139.8235,120.0989,145.1909,119.4355,146.643,114.2258" style="stroke: #A80036; stroke-width: 0.75;"/><text fill="#000000" font-family="sans-serif" font-size="9.75" lengthAdjust="spacingAndGlyphs" textLength="18" x="145.4071" y="720.6049">0..2</text><!--link Contract to Compilation--><path d="M228.8813,123.8227 C233.9018,157.647 240.3885,200.0175 246.75,237.75 C249.2168,252.3802 252.081,268.2645 254.7585,282.7125 " fill="none" id="Contract-Compilation" style="stroke: #A80036; stroke-width: 0.75;"/><polygon fill="#FFFFFF" points="227.439,114.069,225.13,118.9597,228.7564,122.9721,231.0654,118.0814,227.439,114.069" style="stroke: #A80036; stroke-width: 0.75;"/><text fill="#000000" font-family="sans-serif" font-size="9.75" lengthAdjust="spacingAndGlyphs" textLength="18" x="234.7497" y="274.5353">0..1</text><!--link Contract to SourceContract--><path d="M259.7085,122.5507 C267.699,134.9085 275.8778,147.558 283.1903,158.8665 " fill="none" id="Contract-SourceContract" style="stroke: #A80036; stroke-width: 0.75; stroke-dasharray: 7.0,7.0;"/><polygon fill="#FFFFFF" points="254.22,114.0615,254.144,119.4693,259.1066,121.6194,259.1826,116.2116,254.22,114.0615" style="stroke: #A80036; stroke-width: 0.75;"/><text fill="#000000" font-family="sans-serif" font-size="9.75" lengthAdjust="spacingAndGlyphs" textLength="6" x="273.4197" y="150.6007">1</text><!--link LinkReference to Bytecode--><path d="M141.297,768.375 C146.7818,768.375 152.2665,768.375 157.7505,768.375 " fill="none" id="LinkReference-Bytecode" style="stroke: #A80036; stroke-width: 0.75;"/><polygon fill="#A80036" points="167.6228,768.375,163.1228,765.375,158.6228,768.375,163.1228,771.375,167.6228,768.375" style="stroke: #A80036; stroke-width: 0.75;"/><text fill="#000000" font-family="sans-serif" font-size="9.75" lengthAdjust="spacingAndGlyphs" textLength="6" x="146.9984" y="765.7204">n</text><!--link SourceContract to Source--><path d="M364.7505,243.918 C386.7975,261.3968 411.645,281.0955 432.1387,297.3435 " fill="none" id="SourceContract-Source" style="stroke: #A80036; stroke-width: 0.75;"/><polygon fill="#FFFFFF" points="357.0803,237.8377,358.743,242.9841,364.133,243.4287,362.4703,238.2823,357.0803,237.8377" style="stroke: #A80036; stroke-width: 0.75;"/><text fill="#000000" font-family="sans-serif" font-size="9.75" lengthAdjust="spacingAndGlyphs" textLength="6" x="419.1354" y="288.9821">1</text><!--link Compiler to Compilation--><path d="M147.246,331.875 C152.5943,331.875 157.9425,331.875 163.2908,331.875 " fill="none" id="Compiler-Compilation" style="stroke: #A80036; stroke-width: 0.75;"/><polygon fill="#A80036" points="173.2418,331.875,168.7418,328.875,164.2418,331.875,168.7418,334.875,173.2418,331.875" style="stroke: #A80036; stroke-width: 0.75;"/><text fill="#000000" font-family="sans-serif" font-size="9.75" lengthAdjust="spacingAndGlyphs" textLength="6" x="153.126" y="328.9796">1</text><!--link Compilation to Source--><path d="M364.5173,331.875 C369.9368,331.875 375.3563,331.875 380.7758,331.875 " fill="none" id="Compilation-Source" style="stroke: #A80036; stroke-width: 0.75;"/><polygon fill="#FFFFFF" points="354.7628,331.875,359.2628,334.875,363.7628,331.875,359.2628,328.875,354.7628,331.875" style="stroke: #A80036; stroke-width: 0.75;"/><text fill="#000000" font-family="sans-serif" font-size="9.75" lengthAdjust="spacingAndGlyphs" textLength="6" x="368.8588" y="329.3274">n</text><!--link Compilation to SourceMap--><path d="M260.802,390.9833 C260.0655,404.4353 259.299,418.419 258.621,430.7933 " fill="none" id="Compilation-SourceMap" style="stroke: #A80036; stroke-width: 0.75;"/><polygon fill="#A80036" points="261.345,381.075,258.1032,385.4041,260.8525,390.0615,264.0942,385.7324,261.345,381.075" style="stroke: #A80036; stroke-width: 0.75;"/><text fill="#000000" font-family="sans-serif" font-size="9.75" lengthAdjust="spacingAndGlyphs" textLength="6" x="252.5029" y="422.5344">n</text><!--link SourceMap to Bytecode--><path d="M256.5,519.8873 C256.5,578.406 256.5,675.204 256.5,728.8373 " fill="none" id="SourceMap-Bytecode" style="stroke: #A80036; stroke-width: 0.75;"/><polygon fill="#FFFFFF" points="256.5,509.7787,253.5,514.2788,256.5,518.7788,259.5,514.2788,256.5,509.7787" style="stroke: #A80036; stroke-width: 0.75;"/><text fill="#000000" font-family="sans-serif" font-size="9.75" lengthAdjust="spacingAndGlyphs" textLength="6" x="250.0969" y="720.5675">1</text><!--link SourceRange to Instruction--><path d="M450.1643,523.7505 C444.5985,535.6928 438.7875,548.16 433.5495,559.398 " fill="none" id="SourceRange-Instruction" style="stroke: #A80036; stroke-width: 0.75;"/><polygon fill="#FFFFFF" points="454.3597,514.749,449.7396,517.5605,450.5579,522.9066,455.178,520.0951,454.3597,514.749" style="stroke: #A80036; stroke-width: 0.75;"/><text fill="#000000" font-family="sans-serif" font-size="9.75" lengthAdjust="spacingAndGlyphs" textLength="6" x="429.5718" y="551.1364">1</text><!--link Source to SourceRange--><path d="M474.75,366.459 C474.75,381.411 474.75,399.354 474.75,416.046 " fill="none" id="Source-SourceRange" style="stroke: #A80036; stroke-width: 0.75;"/><polygon fill="#FFFFFF" points="474.75,425.967,477.75,421.467,474.75,416.967,471.75,421.467,474.75,425.967" style="stroke: #A80036; stroke-width: 0.75;"/><text fill="#000000" font-family="sans-serif" font-size="9.75" lengthAdjust="spacingAndGlyphs" textLength="6" x="468.2715" y="381.6536">1</text><!--
@startuml
scale 0.75



skinparam defaultMonospacedFontName Andale Mono





    class Contract << (R,darkorange) External Resource >> {
      + name: String
      + abi: ABI
      + {method} createBytecode: Maybe<Bytecode>
      + {method} callBytecode: Maybe<Bytecode>
      + {method} compilation: Maybe<Compilation>
      + {method} sourceContract: Maybe<SourceContract>
      + {method} interface: ContractInterface
    }






    class Bytecode << (R,orchid) Resource >> {
      + bytes: Bytes
      + linkReferences : Set<LinkReference>
      + {method} instructions: Array<Instruction>
      ..
      - {field} <&key> id: ID //= hash(// ""bytes"" //)//
    }

    class Instruction << (O,lawngreen) Data Object >> {
      + programCounter: String
      + opcode: Integer
      + pushData: String
      + meta: InstructionMeta
    }

    class InstructionMeta << (O,lawngreen) Data Object >> {
      + cost: Integer
      + pops: Integer
      + pushes: Integer
      + dynamic: Integer
    }

    Instruction *-right- "1" InstructionMeta
    Instruction "n" - -* Bytecode

    class Source << (R,orchid) Resource >> {
      + contents: String
      + sourcePath: Maybe<String>
      ..
      - {field} <&key> id: ID //= hash(// ""contents""//,// ""sourcePath"" //)//
    }




    class Compilation << (R,orchid) Resource >> {
      + compiler : Compiler
      + {method} sources : Array<Maybe<Source>>
      + {method} contracts : Array<SourceContract>
      ..
      - {field} <&key> id: ID //= hash(// ""compiler""//,// ""sourceIds"" //)//
      - sourceIds: Array<Maybe<ID>>
      - contractIds : Array<Maybe<ID>>
    }

  SourceContract "n" - -* Compilation







  class Compiler << (O,lawngreen) Data Object >> {
    + name : String
    + version : String
    + settings : Object
  }




    class LinkReference << (O,lawngreen) Data Object >> {
      + offsets: Array<ByteOffset>
      + name: Maybe<String>
      + length: Integer
    }

    class SourceMap << (O,lawngreen) Data Object >> {
      + {method} bytecode: Bytecode
      + instructionSourceRanges(index: Integer): Maybe<SourceRange>
      ..
      - rawSourceMap: String
      - bytecodeId: ID
    }

    class SourceRange << (O,lawngreen) Data Object >> {
      + start: ByteOffset
      + length: Length
      + meta: Object
      + {method} source: Source
      ..
      - sourceId: ID
    }

    SourceMap *-right- "n" SourceRange

    class SourceContract << (O,lawngreen) Data Object >> {
      + name: String
      + ast: AST
      + {method} source: Source
      ..
      - sourceId: ID
    }










  Contract o- - "0..2" Bytecode


  Contract o- - "0..1" Compilation
  Contract o.. "1" SourceContract



  LinkReference "n" -* Bytecode



  SourceContract o- - "1" Source





  Compilation *-left- "1" Compiler

  Compilation o-right- "n" Source


  Compilation *- - "n" SourceMap



  SourceMap o- - - - "1" Bytecode
  SourceRange o- - "1" Instruction

  Source "1" - -o SourceRange


@enduml

PlantUML version 1.2018.14(Fri Dec 21 16:33:16 UTC 2018)
(GPL source distribution)
Java Runtime: OpenJDK Runtime Environment
JVM: OpenJDK 64-Bit Server VM
Java Version: 11.0.2+9
Operating System: Linux
OS Version: 4.15.0-1028-gcp
Default Encoding: UTF-8
Language: en
Country: US
--></g></svg>