<?xml version="1.0" encoding="UTF-8" standalone="no"?><svg xmlns="http://www.w3.org/2000/svg" xmlns:xlink="http://www.w3.org/1999/xlink" contentScriptType="application/ecmascript" contentStyleType="text/css" height="344px" preserveAspectRatio="none" style="width:700px;height:344px;" version="1.1" viewBox="0 0 700 344" width="700px" zoomAndPan="magnify"><defs><filter height="300%" id="f1egu9ght5hhcc" width="300%" x="-1" y="-1"><feGaussianBlur result="blurOut" stdDeviation="1.6"/><feColorMatrix in="blurOut" result="blurOut2" type="matrix" values="0 0 0 0 0 0 0 0 0 0 0 0 0 0 0 0 0 0 .4 0"/><feOffset dx="3.2" dy="3.2" in="blurOut2" result="blurOut3"/><feBlend in="SourceGraphic" in2="blurOut3" mode="normal"/></filter></defs><g><!--cluster Saving--><rect fill="#FFFFFF" filter="url(#f1egu9ght5hhcc)" height="79.2" style="stroke: #000000; stroke-width: 1.2000000000000002;" width="129.6" x="496.4" y="19.2"/><text fill="#000000" font-family="sans-serif" font-size="11.2" font-style="italic" lengthAdjust="spacingAndGlyphs" textLength="58.4" x="532" y="31.1961">«external»</text><text fill="#000000" font-family="sans-serif" font-size="11.2" font-weight="bold" lengthAdjust="spacingAndGlyphs" textLength="41.6" x="540.4" y="44.2336">Saving</text><!--cluster Compilation--><rect fill="#FFFFFF" filter="url(#f1egu9ght5hhcc)" height="217.6" style="stroke: #000000; stroke-width: 1.2000000000000002;" width="508.8" x="182.4" y="117.6"/><text fill="#000000" font-family="sans-serif" font-size="11.2" font-weight="bold" lengthAdjust="spacingAndGlyphs" textLength="73.6" x="400" y="129.5961">Compilation</text><ellipse cx="561.3606" cy="72.7521" fill="#FEFECE" filter="url(#f1egu9ght5hhcc)" rx="52.1606" ry="12.3521" style="stroke: #A80036; stroke-width: 1.2000000000000002;"/><text fill="#000000" font-family="sans-serif" font-size="11.2" lengthAdjust="spacingAndGlyphs" textLength="75.2" x="523.7606" y="76.4709">Save contract</text><ellipse cx="295.6263" cy="303.0453" fill="#FEFECE" filter="url(#f1egu9ght5hhcc)" rx="83.6263" ry="18.6453" style="stroke: #A80036; stroke-width: 1.2000000000000002;"/><text fill="#000000" font-family="sans-serif" font-size="11.2" lengthAdjust="spacingAndGlyphs" textLength="148.8" x="221.2263" y="306.764">Compile all project sources</text><ellipse cx="295.7053" cy="164.9811" fill="#FEFECE" filter="url(#f1egu9ght5hhcc)" rx="87.3053" ry="19.3811" style="stroke: #A80036; stroke-width: 1.2000000000000002;"/><text fill="#000000" font-family="sans-serif" font-size="11.2" lengthAdjust="spacingAndGlyphs" textLength="156.8" x="217.3053" y="168.6998">Determine modified sources</text><ellipse cx="295.5802" cy="234.396" fill="#FEFECE" filter="url(#f1egu9ght5hhcc)" rx="100.3802" ry="21.996" style="stroke: #A80036; stroke-width: 1.2000000000000002;"/><text fill="#000000" font-family="sans-serif" font-size="11.2" lengthAdjust="spacingAndGlyphs" textLength="184.8" x="203.1802" y="238.1148">Compile modified project sources</text><ellipse cx="561.3099" cy="228.742" fill="#FEFECE" filter="url(#f1egu9ght5hhcc)" rx="64.1099" ry="14.742" style="stroke: #A80036; stroke-width: 1.2000000000000002;"/><text fill="#000000" font-family="sans-serif" font-size="11.2" lengthAdjust="spacingAndGlyphs" textLength="104.8" x="508.9099" y="232.4607">Compile source file</text><ellipse cx="561.1273" cy="296.9455" fill="#FEFECE" filter="url(#f1egu9ght5hhcc)" rx="117.1273" ry="25.3455" style="stroke: #A80036; stroke-width: 1.2000000000000002;"/><text fill="#000000" font-family="sans-serif" font-size="11.2" lengthAdjust="spacingAndGlyphs" textLength="220" x="451.1273" y="300.6642">Compile primary and related source files</text><!--entity Developer--><ellipse cx="76" cy="243.6" fill="#FEFECE" filter="url(#f1egu9ght5hhcc)" rx="6.4" ry="6.4" style="stroke: #A80036; stroke-width: 1.6;"/><path d="M76,250 L76,271.6 M65.6,256.4 L86.4,256.4 M76,271.6 L65.6,283.6 M76,271.6 L86.4,283.6 " fill="none" filter="url(#f1egu9ght5hhcc)" style="stroke: #A80036; stroke-width: 1.6;"/><text fill="#000000" font-family="sans-serif" font-size="11.2" lengthAdjust="spacingAndGlyphs" textLength="142.4" x="4.8" y="299.5961">Smart Contract Developer</text><!--link CompileModified to DetermineModified--><path d="M295.6,212.3784 C295.6,204.3592 295.6,196.3408 295.6,188.3216 " fill="none" id="CompileModified-DetermineModified" style="stroke: #A80036; stroke-width: 0.8;"/><polygon fill="#A80036" points="295.6,184.1288,292.4,191.3288,295.6,188.1288,298.8,191.3288,295.6,184.1288" style="stroke: #A80036; stroke-width: 0.8;"/><!--link Compile to SaveContract--><path d="M561.2,213.8704 C561.2,172.4088 561.2,130.948 561.2,89.4864 " fill="none" id="Compile-SaveContract" style="stroke: #A80036; stroke-width: 0.8;"/><polygon fill="#A80036" points="561.2,85.4744,558,92.6744,561.2,89.4744,564.4,92.6744,561.2,85.4744" style="stroke: #A80036; stroke-width: 0.8;"/><!--link CompileMultiple to Compile--><path d="M561.2,271.5656 C561.2,267.6656 561.2,263.7664 561.2,259.8664 " fill="none" id="CompileMultiple-Compile" style="stroke: #A80036; stroke-width: 0.8; stroke-dasharray: 7.0,7.0;"/><polygon fill="none" points="555.6,259.8352,561.2,243.8344,566.8,259.8344,555.6,259.8352" style="stroke: #A80036; stroke-width: 0.8;"/><!--link CompileAll to Compile--><path d="M343.7248,287.8254 C372.5816,278.6392 410.2784,266.9728 444,257.6 C466.0008,251.4856 490.5168,245.3232 511.3552,240.2768 " fill="none" id="CompileAll-Compile" style="stroke: #A80036; stroke-width: 0.8;"/><polygon fill="#A80036" points="515.4712,239.2832,507.721,237.8637,511.5831,240.2227,509.2242,244.0847,515.4712,239.2832" style="stroke: #A80036; stroke-width: 0.8;"/><!--link CompileModified to Compile--><path d="M395.8312,232.2912 C428.2904,231.6024 463.5536,230.8544 493.08,230.228 " fill="none" id="CompileModified-Compile" style="stroke: #A80036; stroke-width: 0.8;"/><polygon fill="#A80036" points="497.3944,230.1368,490.1283,227.0898,493.3953,230.2214,490.2637,233.4883,497.3944,230.1368" style="stroke: #A80036; stroke-width: 0.8;"/><!--link Developer to CompileAll--><path d="M147.2776,279.9212 C172.7792,283.9453 201.5088,288.4789 226.7944,292.4688 " fill="none" id="Developer-CompileAll" style="stroke: #A80036; stroke-width: 0.8;"/><!--link Developer to CompileModified--><path d="M147.2776,257.6792 C168.4248,254.3416 191.7928,250.6544 213.5752,247.2168 " fill="none" id="Developer-CompileModified" style="stroke: #A80036; stroke-width: 0.8;"/><!--
@startuml
scale 0.80
left to right direction

:Smart Contract Developer: as :Developer:

rectangle Saving << external >> {
  (Save contract) as (SaveContract)
}

rectangle Compilation {
  (Compile all project sources) as (CompileAll)

  (Determine modified sources) as (DetermineModified)
  (Compile modified project sources) as (CompileModified)
  CompileModified -> DetermineModified

  (Compile source file) as (Compile)
  Compile -> SaveContract

  (Compile primary and related source files) as (CompileMultiple)
  CompileMultiple .|> Compile

  CompileAll - -> Compile
  CompileModified - -> Compile
}

Developer - - CompileAll
Developer - - CompileModified

@enduml

PlantUML version 1.2018.14(Fri Dec 21 16:33:16 UTC 2018)
(GPL source distribution)
Java Runtime: OpenJDK Runtime Environment
JVM: OpenJDK 64-Bit Server VM
Java Version: 11.0.2+9
Operating System: Linux
OS Version: 4.15.0-1028-gcp
Default Encoding: UTF-8
Language: en
Country: US
--></g></svg>