<?xml version="1.0" encoding="UTF-8" standalone="no"?><svg xmlns="http://www.w3.org/2000/svg" xmlns:xlink="http://www.w3.org/1999/xlink" contentScriptType="application/ecmascript" contentStyleType="text/css" height="347.2px" preserveAspectRatio="none" style="width:700px;height:347px;" version="1.1" viewBox="0 0 700 347" width="700px" zoomAndPan="magnify"><defs><filter height="300%" id="fpwtqqfysjiq" width="300%" x="-1" y="-1"><feGaussianBlur result="blurOut" stdDeviation="1.6"/><feColorMatrix in="blurOut" result="blurOut2" type="matrix" values="0 0 0 0 0 0 0 0 0 0 0 0 0 0 0 0 0 0 .4 0"/><feOffset dx="3.2" dy="3.2" in="blurOut2" result="blurOut3"/><feBlend in="SourceGraphic" in2="blurOut3" mode="normal"/></filter></defs><g><!--cluster Saving--><rect fill="#FFFFFF" filter="url(#fpwtqqfysjiq)" height="82.4" style="stroke: #000000; stroke-width: 1.2000000000000002;" width="152" x="485.2" y="19.2"/><text fill="#000000" font-family="sans-serif" font-size="11.2" font-style="italic" lengthAdjust="spacingAndGlyphs" textLength="58.4" x="532" y="31.1961">«external»</text><text fill="#000000" font-family="sans-serif" font-size="11.2" font-weight="bold" lengthAdjust="spacingAndGlyphs" textLength="41.6" x="540.4" y="44.2336">Saving</text><!--cluster Compilation--><rect fill="#FFFFFF" filter="url(#fpwtqqfysjiq)" height="217.6" style="stroke: #000000; stroke-width: 1.2000000000000002;" width="508.8" x="182.4" y="120.8"/><text fill="#000000" font-family="sans-serif" font-size="11.2" font-weight="bold" lengthAdjust="spacingAndGlyphs" textLength="73.6" x="400" y="132.7961">Compilation</text><ellipse cx="561.0943" cy="74.5389" fill="#FEFECE" filter="url(#fpwtqqfysjiq)" rx="63.0943" ry="14.5389" style="stroke: #A80036; stroke-width: 1.2000000000000002;"/><text fill="#000000" font-family="sans-serif" font-size="11.2" lengthAdjust="spacingAndGlyphs" textLength="102.4" x="509.8943" y="78.2576">Save contract type</text><ellipse cx="295.6263" cy="306.2453" fill="#FEFECE" filter="url(#fpwtqqfysjiq)" rx="83.6263" ry="18.6453" style="stroke: #A80036; stroke-width: 1.2000000000000002;"/><text fill="#000000" font-family="sans-serif" font-size="11.2" lengthAdjust="spacingAndGlyphs" textLength="148.8" x="221.2263" y="309.964">Compile all project sources</text><ellipse cx="295.7053" cy="168.1811" fill="#FEFECE" filter="url(#fpwtqqfysjiq)" rx="87.3053" ry="19.3811" style="stroke: #A80036; stroke-width: 1.2000000000000002;"/><text fill="#000000" font-family="sans-serif" font-size="11.2" lengthAdjust="spacingAndGlyphs" textLength="156.8" x="217.3053" y="171.8998">Determine modified sources</text><ellipse cx="295.5802" cy="237.596" fill="#FEFECE" filter="url(#fpwtqqfysjiq)" rx="100.3802" ry="21.996" style="stroke: #A80036; stroke-width: 1.2000000000000002;"/><text fill="#000000" font-family="sans-serif" font-size="11.2" lengthAdjust="spacingAndGlyphs" textLength="184.8" x="203.1802" y="241.3148">Compile modified project sources</text><ellipse cx="561.3099" cy="231.942" fill="#FEFECE" filter="url(#fpwtqqfysjiq)" rx="64.1099" ry="14.742" style="stroke: #A80036; stroke-width: 1.2000000000000002;"/><text fill="#000000" font-family="sans-serif" font-size="11.2" lengthAdjust="spacingAndGlyphs" textLength="104.8" x="508.9099" y="235.6607">Compile source file</text><ellipse cx="561.1273" cy="300.1455" fill="#FEFECE" filter="url(#fpwtqqfysjiq)" rx="117.1273" ry="25.3455" style="stroke: #A80036; stroke-width: 1.2000000000000002;"/><text fill="#000000" font-family="sans-serif" font-size="11.2" lengthAdjust="spacingAndGlyphs" textLength="220" x="451.1273" y="303.8642">Compile primary and related source files</text><!--entity Developer--><ellipse cx="76" cy="246.8" fill="#FEFECE" filter="url(#fpwtqqfysjiq)" rx="6.4" ry="6.4" style="stroke: #A80036; stroke-width: 1.6;"/><path d="M76,253.2 L76,274.8 M65.6,259.6 L86.4,259.6 M76,274.8 L65.6,286.8 M76,274.8 L86.4,286.8 " fill="none" filter="url(#fpwtqqfysjiq)" style="stroke: #A80036; stroke-width: 1.6;"/><text fill="#000000" font-family="sans-serif" font-size="11.2" lengthAdjust="spacingAndGlyphs" textLength="142.4" x="4.8" y="302.7961">Smart Contract Developer</text><!--link CompileModified to DetermineModified--><path d="M295.6,215.5784 C295.6,207.5592 295.6,199.5408 295.6,191.5216 " fill="none" id="CompileModified-DetermineModified" style="stroke: #A80036; stroke-width: 0.8;"/><polygon fill="#A80036" points="295.6,187.3288,292.4,194.5288,295.6,191.3288,298.8,194.5288,295.6,187.3288" style="stroke: #A80036; stroke-width: 0.8;"/><!--link Compile to SaveType--><path d="M561.2,216.9168 C561.2,175.5704 561.2,134.2232 561.2,92.876 " fill="none" id="Compile-SaveType" style="stroke: #A80036; stroke-width: 0.8;"/><polygon fill="#A80036" points="561.2,88.8744,558,96.0744,561.2,92.8744,564.4,96.0744,561.2,88.8744" style="stroke: #A80036; stroke-width: 0.8;"/><!--link CompileMultiple to Compile--><path d="M561.2,274.7656 C561.2,270.8656 561.2,266.9664 561.2,263.0664 " fill="none" id="CompileMultiple-Compile" style="stroke: #A80036; stroke-width: 0.8; stroke-dasharray: 7.0,7.0;"/><polygon fill="none" points="555.6,263.0352,561.2,247.0344,566.8,263.0344,555.6,263.0352" style="stroke: #A80036; stroke-width: 0.8;"/><!--link CompileAll to Compile--><path d="M343.7248,291.0254 C372.5816,281.8392 410.2784,270.1728 444,260.8 C466.0008,254.6856 490.5168,248.5232 511.3552,243.4768 " fill="none" id="CompileAll-Compile" style="stroke: #A80036; stroke-width: 0.8;"/><polygon fill="#A80036" points="515.4712,242.4832,507.721,241.0637,511.5831,243.4227,509.2242,247.2847,515.4712,242.4832" style="stroke: #A80036; stroke-width: 0.8;"/><!--link CompileModified to Compile--><path d="M395.8312,235.4912 C428.2904,234.8024 463.5536,234.0544 493.08,233.428 " fill="none" id="CompileModified-Compile" style="stroke: #A80036; stroke-width: 0.8;"/><polygon fill="#A80036" points="497.3944,233.3368,490.1283,230.2898,493.3953,233.4214,490.2637,236.6883,497.3944,233.3368" style="stroke: #A80036; stroke-width: 0.8;"/><!--link Developer to CompileAll--><path d="M147.2776,283.1212 C172.7792,287.1453 201.5088,291.6789 226.7944,295.6688 " fill="none" id="Developer-CompileAll" style="stroke: #A80036; stroke-width: 0.8;"/><!--link Developer to CompileModified--><path d="M147.2776,260.8792 C168.4248,257.5416 191.7928,253.8544 213.5752,250.4168 " fill="none" id="Developer-CompileModified" style="stroke: #A80036; stroke-width: 0.8;"/><!--
@startuml
scale 0.80
left to right direction

:Smart Contract Developer: as :Developer:

rectangle Saving << external >> {
  (Save contract type) as (SaveType)
}

rectangle Compilation {
  (Compile all project sources) as (CompileAll)

  (Determine modified sources) as (DetermineModified)
  (Compile modified project sources) as (CompileModified)
  CompileModified -> DetermineModified

  (Compile source file) as (Compile)
  Compile -> SaveType

  (Compile primary and related source files) as (CompileMultiple)
  CompileMultiple .|> Compile

  CompileAll - -> Compile
  CompileModified - -> Compile
}

Developer - - CompileAll
Developer - - CompileModified

@enduml

PlantUML version 1.2018.14(Fri Dec 21 16:33:16 UTC 2018)
(GPL source distribution)
Java Runtime: OpenJDK Runtime Environment
JVM: OpenJDK 64-Bit Server VM
Java Version: 11.0.2+9
Operating System: Linux
OS Version: 4.15.0-1028-gcp
Default Encoding: UTF-8
Language: en
Country: US
--></g></svg>