<?xml version="1.0" encoding="UTF-8" standalone="no"?><svg xmlns="http://www.w3.org/2000/svg" xmlns:xlink="http://www.w3.org/1999/xlink" contentScriptType="application/ecmascript" contentStyleType="text/css" height="217.5px" preserveAspectRatio="none" style="width:286px;height:217px;" version="1.1" viewBox="0 0 286 217" width="286.5px" zoomAndPan="magnify"><defs><filter height="300%" id="f1bhsmxhpzvjsf" width="300%" x="-1" y="-1"><feGaussianBlur result="blurOut" stdDeviation="1.5"/><feColorMatrix in="blurOut" result="blurOut2" type="matrix" values="0 0 0 0 0 0 0 0 0 0 0 0 0 0 0 0 0 0 .4 0"/><feOffset dx="3.0" dy="3.0" in="blurOut2" result="blurOut3"/><feBlend in="SourceGraphic" in2="blurOut3" mode="normal"/></filter></defs><g><!--class Network--><rect fill="#FEFECE" filter="url(#f1bhsmxhpzvjsf)" height="98.0742" id="Network" style="stroke: #A80036; stroke-width: 1.125;" width="198.25" x="4.5" y="6"/><ellipse cx="74.5625" cy="20.2266" fill="#DA70D6" rx="8.25" ry="8.25" style="stroke: #A80036; stroke-width: 0.75;"/><path d="M75.4648,20.332 Q75.7344,20.3906 75.9336,20.6016 Q76.1445,20.8008 76.4375,21.3867 L78.1133,24.7266 L76.0977,24.7266 L74.9727,22.3828 Q74.9258,22.2773 74.8438,22.1016 Q74.3516,21.0586 73.6836,21.0586 L73.0977,21.0586 L73.0977,24.7266 L71.2695,24.7266 L71.2695,15.4336 L73.918,15.4336 Q75.7109,15.4336 76.4844,16.0664 Q77.2695,16.6992 77.2695,18.1289 Q77.2695,19.0898 76.8008,19.6641 Q76.3438,20.2266 75.4648,20.332 Z M73.0977,16.9805 L73.0977,19.5117 L73.9648,19.5117 Q74.7266,19.5117 75.043,19.2188 Q75.3711,18.9141 75.3711,18.2344 Q75.3711,17.5664 75.043,17.2734 Q74.7266,16.9805 73.9648,16.9805 L73.0977,16.9805 Z "/><text fill="#000000" font-family="sans-serif" font-size="9" font-style="italic" lengthAdjust="spacingAndGlyphs" textLength="54.75" x="88.4375" y="18.104">«Resource»</text><text fill="#000000" font-family="sans-serif" font-size="9" lengthAdjust="spacingAndGlyphs" textLength="38.25" x="96.6875" y="28.5806">Network</text><line style="stroke: #A80036; stroke-width: 1.125;" x1="5.25" x2="202" y1="34.4531" y2="34.4531"/><ellipse cx="12.75" cy="43.3799" fill="none" rx="2.25" ry="2.25" style="stroke: #038048; stroke-width: 0.75;"/><text fill="#000000" font-family="sans-serif" font-size="8.25" lengthAdjust="spacingAndGlyphs" textLength="58.5" x="19.5" y="45.111">name : String</text><ellipse cx="12.75" cy="52.9834" fill="none" rx="2.25" ry="2.25" style="stroke: #038048; stroke-width: 0.75;"/><text fill="#000000" font-family="sans-serif" font-size="8.25" lengthAdjust="spacingAndGlyphs" textLength="93" x="19.5" y="54.7145">networkId : NetworkID</text><ellipse cx="12.75" cy="62.5869" fill="none" rx="2.25" ry="2.25" style="stroke: #038048; stroke-width: 0.75;"/><text fill="#000000" font-family="sans-serif" font-size="8.25" lengthAdjust="spacingAndGlyphs" textLength="82.5" x="19.5" y="64.318">historicBlock: Block</text><ellipse cx="12.75" cy="72.1904" fill="#84BE84" rx="2.25" ry="2.25" style="stroke: #038048; stroke-width: 0.75;"/><text fill="#000000" font-family="sans-serif" font-size="8.25" lengthAdjust="spacingAndGlyphs" textLength="97.5" x="19.5" y="73.9215">fork: Maybe&lt;Network&gt;</text><line style="stroke: #A80036; stroke-width: 0.75; stroke-dasharray: 1.0,2.0;" x1="5.25" x2="202" y1="78.8672" y2="78.8672"/><rect fill="none" height="4.5" style="stroke: #C82930; stroke-width: 0.75;" width="4.5" x="10.5" y="85.5439"/><path d="M24.0313,83.9082 C23.0825,83.9082 22.3125,84.6782 22.3125,85.627 C22.3125,85.737 22.3352,85.8311 22.3558,85.9281 L20.25,88.0339 L20.25,89.4089 L22.3125,89.4089 L22.3125,88.0339 L23.6875,88.0339 L23.6875,87.3464 L23.7308,87.3031 C23.8271,87.3237 23.9213,87.3464 24.0319,87.3464 C24.9807,87.3464 25.7507,86.5764 25.7507,85.6276 C25.7507,84.6789 24.9807,83.9089 24.0319,83.9089 M24.3757,84.5964 C24.7538,84.5964 25.0632,84.9058 25.0632,85.2839 C25.0632,85.662 24.7538,85.9714 24.3757,85.9714 C23.9976,85.9714 23.6882,85.662 23.6882,85.2839 C23.6882,84.9058 23.9976,84.5964 24.3757,84.5964 " fill="#000000" style="stroke: ; stroke-width: 0.0; stroke-dasharray: ;"/><text fill="#000000" font-family="sans-serif" font-size="8.25" lengthAdjust="spacingAndGlyphs" textLength="21.75" x="29.5" y="89.525">id: ID</text><text fill="#000000" font-family="sans-serif" font-size="8.25" font-style="italic" lengthAdjust="spacingAndGlyphs" textLength="33.75" x="54.25" y="89.525">= hash(</text><text fill="#000000" font-family="sans-serif" font-size="8.25" lengthAdjust="spacingAndGlyphs" textLength="0" x="91" y="89.525"/><text fill="#000000" font-family="Andale Mono" font-size="8.25" lengthAdjust="spacingAndGlyphs" textLength="41.25" x="91" y="89.525">networkId</text><text fill="#000000" font-family="sans-serif" font-size="8.25" font-style="italic" lengthAdjust="spacingAndGlyphs" textLength="3" x="132.25" y="89.525">,</text><text fill="#000000" font-family="sans-serif" font-size="8.25" lengthAdjust="spacingAndGlyphs" textLength="0" x="138.25" y="89.525"/><text fill="#000000" font-family="Andale Mono" font-size="8.25" lengthAdjust="spacingAndGlyphs" textLength="54" x="138.25" y="89.525">historicBlock</text><text fill="#000000" font-family="sans-serif" font-size="8.25" lengthAdjust="spacingAndGlyphs" textLength="0" x="195.25" y="89.525"/><text fill="#000000" font-family="sans-serif" font-size="8.25" font-style="italic" lengthAdjust="spacingAndGlyphs" textLength="3" x="195.25" y="89.525">)</text><rect fill="none" height="4.5" style="stroke: #C82930; stroke-width: 0.75;" width="4.5" x="10.5" y="95.1475"/><text fill="#000000" font-family="sans-serif" font-size="8.25" lengthAdjust="spacingAndGlyphs" textLength="78.75" x="19.5" y="99.1285">forkId: Maybe&lt;ID&gt;</text><!--class Block--><rect fill="#FEFECE" filter="url(#f1bhsmxhpzvjsf)" height="59.6602" id="Block" style="stroke: #A80036; stroke-width: 1.125;" width="93.75" x="56.625" y="150"/><ellipse cx="70.9125" cy="164.2266" fill="#7CFC00" rx="8.25" ry="8.25" style="stroke: #A80036; stroke-width: 0.75;"/><path d="M70.9945,160.9102 Q70.2914,160.9102 69.9633,161.6602 Q69.6469,162.4102 69.6469,164.0859 Q69.6469,165.7617 69.9633,166.5117 Q70.2914,167.2617 70.9945,167.2617 Q71.7094,167.2617 72.0258,166.5117 Q72.3539,165.7617 72.3539,164.0859 Q72.3539,162.4102 72.0258,161.6602 Q71.7094,160.9102 70.9945,160.9102 Z M67.7367,164.0859 Q67.7367,161.707 68.557,160.4883 Q69.3891,159.2578 70.9945,159.2578 Q72.6117,159.2578 73.432,160.4883 Q74.2641,161.707 74.2641,164.0859 Q74.2641,166.4648 73.432,167.6836 Q72.6117,168.9023 70.9945,168.9023 Q69.3891,168.9023 68.557,167.6836 Q67.7367,166.4648 67.7367,164.0859 Z "/><text fill="#000000" font-family="sans-serif" font-size="9" font-style="italic" lengthAdjust="spacingAndGlyphs" textLength="66" x="80.5875" y="162.104">«Data Object»</text><text fill="#000000" font-family="sans-serif" font-size="9" lengthAdjust="spacingAndGlyphs" textLength="24.75" x="101.2125" y="172.5806">Block</text><line style="stroke: #A80036; stroke-width: 1.125;" x1="57.375" x2="149.625" y1="178.4531" y2="178.4531"/><ellipse cx="64.875" cy="187.3799" fill="none" rx="2.25" ry="2.25" style="stroke: #038048; stroke-width: 0.75;"/><text fill="#000000" font-family="sans-serif" font-size="8.25" lengthAdjust="spacingAndGlyphs" textLength="65.25" x="71.625" y="189.111">height : Integer</text><ellipse cx="64.875" cy="196.9834" fill="none" rx="2.25" ry="2.25" style="stroke: #038048; stroke-width: 0.75;"/><text fill="#000000" font-family="sans-serif" font-size="8.25" lengthAdjust="spacingAndGlyphs" textLength="74.25" x="71.625" y="198.7145">hash : BlockHash</text><line style="stroke: #A80036; stroke-width: 1.125;" x1="57.375" x2="149.625" y1="203.6602" y2="203.6602"/><!--link Network to Network--><path d="M212.418,44.3602 C222.4387,46.5877 228.75,50.1765 228.75,55.125 C228.75,61.5233 218.199,65.6475 202.7228,67.497 " fill="none" id="Network-Network" style="stroke: #A80036; stroke-width: 0.75;"/><polygon fill="#FFFFFF" points="202.7228,42.753,206.6712,46.4489,211.6014,44.2257,207.653,40.5298,202.7228,42.753" style="stroke: #A80036; stroke-width: 0.75;"/><text fill="#000000" font-family="sans-serif" font-size="9.75" lengthAdjust="spacingAndGlyphs" textLength="44.25" x="233.25" y="58.5502">«refines»</text><text fill="#000000" font-family="sans-serif" font-size="9.75" lengthAdjust="spacingAndGlyphs" textLength="18" x="208.6343" y="65.6737">0..1</text><!--link Network to Block--><path d="M103.5,114.1388 C103.5,126.5257 103.5,139.0976 103.5,149.8481 " fill="none" id="Network-Block" style="stroke: #A80036; stroke-width: 0.75;"/><polygon fill="#A80036" points="103.5,104.2823,100.5,108.7823,103.5,113.2823,106.5,108.7823,103.5,104.2823" style="stroke: #A80036; stroke-width: 0.75;"/><text fill="#000000" font-family="sans-serif" font-size="9.75" lengthAdjust="spacingAndGlyphs" textLength="6" x="97.0031" y="141.7591">1</text><!--
@startuml
scale 0.75


skinparam defaultMonospacedFontName Andale Mono















    class Network << (R,orchid) Resource >> {
      + name : String
      + networkId : NetworkID
      + historicBlock: Block
      + {method} fork: Maybe<Network>
      ..
      - {field} <&key> id: ID //= hash(// ""networkId""//,// ""historicBlock"" //)//
      - forkId: Maybe<ID>
    }


      class Block << (O,lawngreen) Data Object >> {
        + height : Integer
        + hash : BlockHash
      }

      Network o- - "0..1" Network : <<refines>>
      Network *- - "1" Block













































@enduml

PlantUML version 1.2018.14(Fri Dec 21 16:33:16 UTC 2018)
(GPL source distribution)
Java Runtime: OpenJDK Runtime Environment
JVM: OpenJDK 64-Bit Server VM
Java Version: 11.0.2+9
Operating System: Linux
OS Version: 4.15.0-1077-gcp
Default Encoding: UTF-8
Language: en
Country: US
--></g></svg>