<?xml version="1.0" encoding="UTF-8" standalone="no"?><svg xmlns="http://www.w3.org/2000/svg" xmlns:xlink="http://www.w3.org/1999/xlink" contentScriptType="application/ecmascript" contentStyleType="text/css" height="389px" preserveAspectRatio="none" style="width:463px;height:389px;" version="1.1" viewBox="0 0 463 389" width="463px" zoomAndPan="magnify"><defs><filter height="300%" id="f1kk4lxkwgioow" width="300%" x="-1" y="-1"><feGaussianBlur result="blurOut" stdDeviation="2.0"/><feColorMatrix in="blurOut" result="blurOut2" type="matrix" values="0 0 0 0 0 0 0 0 0 0 0 0 0 0 0 0 0 0 .4 0"/><feOffset dx="4.0" dy="4.0" in="blurOut2" result="blurOut3"/><feBlend in="SourceGraphic" in2="blurOut3" mode="normal"/></filter></defs><g><!--class Name--><rect fill="#FEFECE" filter="url(#f1kk4lxkwgioow)" height="215.5938" id="Name" style="stroke: #A80036; stroke-width: 1.5;" width="195" x="6" y="8"/><ellipse cx="25.5" cy="26.9688" fill="#DA70D6" rx="11" ry="11" style="stroke: #A80036; stroke-width: 1.0;"/><path d="M26.7031,27.1094 Q27.0625,27.1875 27.3359,27.4609 Q27.6094,27.7344 28,28.5156 L30.2344,32.9688 L27.5469,32.9688 L26.0469,29.8438 Q25.9844,29.7031 25.875,29.4688 Q25.2188,28.0781 24.3281,28.0781 L23.5469,28.0781 L23.5469,32.9688 L21.1094,32.9688 L21.1094,20.5781 L24.6406,20.5781 Q27.0313,20.5781 28.0703,21.4219 Q29.1094,22.2656 29.1094,24.1719 Q29.1094,25.4531 28.4922,26.2109 Q27.875,26.9688 26.7031,27.1094 Z M23.5469,22.6406 L23.5469,26.0156 L24.7031,26.0156 Q25.7188,26.0156 26.1484,25.6172 Q26.5781,25.2188 26.5781,24.3125 Q26.5781,23.4219 26.1484,23.0313 Q25.7188,22.6406 24.7031,22.6406 L23.5469,22.6406 Z "/><text fill="#000000" font-family="sans-serif" font-size="12" font-style="italic" lengthAdjust="spacingAndGlyphs" textLength="72" x="38.5" y="24.1387">«Resource»</text><text fill="#000000" font-family="sans-serif" font-size="12" lengthAdjust="spacingAndGlyphs" textLength="36" x="56.5" y="38.1074">Name</text><rect fill="#FFFFFF" height="15.9688" style="stroke: #000000; stroke-width: 1.0; stroke-dasharray: 2.0,2.0;" width="83" x="121" y="5"/><text fill="#000000" font-family="sans-serif" font-size="12" font-style="italic" lengthAdjust="spacingAndGlyphs" textLength="73" x="126" y="17.1387">T: Resource</text><line style="stroke: #A80036; stroke-width: 1.5;" x1="7" x2="200" y1="45.9375" y2="45.9375"/><ellipse cx="17" cy="89.8516" fill="#84BE84" rx="3" ry="3" style="stroke: #038048; stroke-width: 1.0;"/><text fill="#000000" font-family="sans-serif" font-size="11" lengthAdjust="spacingAndGlyphs" text-decoration="underline" textLength="41" x="26" y="60.1479">current</text><line style="stroke: #000000; stroke-width: 1.0;" x1="26" x2="67" y1="62.1479" y2="62.1479"/><text fill="#000000" font-family="sans-serif" font-size="11" lengthAdjust="spacingAndGlyphs" textLength="4" x="71" y="60.1479">(</text><text fill="#000000" font-family="sans-serif" font-size="11" lengthAdjust="spacingAndGlyphs" textLength="70" x="58" y="72.9526">type: String,</text><text fill="#000000" font-family="sans-serif" font-size="11" lengthAdjust="spacingAndGlyphs" textLength="78" x="58" y="85.7573">name: String,</text><text fill="#000000" font-family="sans-serif" font-size="11" lengthAdjust="spacingAndGlyphs" textLength="120" x="58" y="98.562">role: Maybe&lt;Object&gt;</text><text fill="#000000" font-family="sans-serif" font-size="11" lengthAdjust="spacingAndGlyphs" textLength="8" x="26" y="111.3667">):</text><text fill="#000000" font-family="sans-serif" font-size="11" lengthAdjust="spacingAndGlyphs" textLength="112" x="58" y="124.1714">Maybe&lt;Name&lt;T&gt;&gt;</text><line style="stroke: #A80036; stroke-width: 1.0;" x1="7" x2="200" y1="130.7656" y2="130.7656"/><ellipse cx="17" cy="142.668" fill="none" rx="3" ry="3" style="stroke: #038048; stroke-width: 1.0;"/><text fill="#000000" font-family="sans-serif" font-size="11" lengthAdjust="spacingAndGlyphs" textLength="66" x="26" y="144.9761">type: String</text><ellipse cx="17" cy="155.4727" fill="none" rx="3" ry="3" style="stroke: #038048; stroke-width: 1.0;"/><text fill="#000000" font-family="sans-serif" font-size="11" lengthAdjust="spacingAndGlyphs" textLength="74" x="26" y="157.7808">name: String</text><ellipse cx="17" cy="168.2773" fill="none" rx="3" ry="3" style="stroke: #038048; stroke-width: 1.0;"/><text fill="#000000" font-family="sans-serif" font-size="11" lengthAdjust="spacingAndGlyphs" textLength="120" x="26" y="170.5854">role: Maybe&lt;Object&gt;</text><ellipse cx="17" cy="181.082" fill="#84BE84" rx="3" ry="3" style="stroke: #038048; stroke-width: 1.0;"/><text fill="#000000" font-family="sans-serif" font-size="11" lengthAdjust="spacingAndGlyphs" textLength="31" x="26" y="183.3901">ref: T</text><ellipse cx="17" cy="193.8867" fill="none" rx="3" ry="3" style="stroke: #038048; stroke-width: 1.0;"/><text fill="#000000" font-family="sans-serif" font-size="11" lengthAdjust="spacingAndGlyphs" textLength="169" x="26" y="196.1948">previous: Maybe&lt;Name&lt;T&gt;&gt;</text><line style="stroke: #A80036; stroke-width: 1.0; stroke-dasharray: 1.0,2.0;" x1="7" x2="200" y1="202.7891" y2="202.7891"/><rect fill="none" height="6" style="stroke: #C82930; stroke-width: 1.0;" width="6" x="14" y="211.6914"/><text fill="#000000" font-family="sans-serif" font-size="11" lengthAdjust="spacingAndGlyphs" textLength="45" x="26" y="216.9995">refId: ID</text><!--class Named--><rect fill="#FEFECE" filter="url(#f1kk4lxkwgioow)" height="79.5469" id="Named" style="stroke: #A80036; stroke-width: 1.5;" width="146" x="306.25" y="292"/><ellipse cx="342.4" cy="310.9688" fill="#8A2BE2" rx="11" ry="11" style="stroke: #A80036; stroke-width: 1.0;"/><path d="M338.3219,306.7344 L338.3219,304.5781 L345.7125,304.5781 L345.7125,306.7344 L343.2438,306.7344 L343.2438,314.8125 L345.7125,314.8125 L345.7125,316.9688 L338.3219,316.9688 L338.3219,314.8125 L340.7906,314.8125 L340.7906,306.7344 L338.3219,306.7344 Z "/><text fill="#000000" font-family="sans-serif" font-size="12" font-style="italic" lengthAdjust="spacingAndGlyphs" textLength="71" x="359.1" y="308.1387">«Interface»</text><text fill="#000000" font-family="sans-serif" font-size="12" lengthAdjust="spacingAndGlyphs" textLength="44" x="372.6" y="322.1074">Named</text><line style="stroke: #A80036; stroke-width: 1.5;" x1="307.25" x2="451.25" y1="329.9375" y2="329.9375"/><ellipse cx="317.25" cy="341.8398" fill="none" rx="3" ry="3" style="stroke: #038048; stroke-width: 1.0;"/><text fill="#000000" font-family="sans-serif" font-size="11" lengthAdjust="spacingAndGlyphs" textLength="74" x="326.25" y="344.1479">name: String</text><ellipse cx="317.25" cy="354.6445" fill="none" rx="3" ry="3" style="stroke: #038048; stroke-width: 1.0;"/><text fill="#000000" font-family="sans-serif" font-size="11" lengthAdjust="spacingAndGlyphs" textLength="120" x="326.25" y="356.9526">role: Maybe&lt;Object&gt;</text><line style="stroke: #A80036; stroke-width: 1.5;" x1="307.25" x2="451.25" y1="363.5469" y2="363.5469"/><!--class T--><rect fill="#FEFECE" filter="url(#f1kk4lxkwgioow)" height="92.3516" id="T" style="stroke: #A80036; stroke-width: 1.5;" width="146" x="30.25" y="286"/><ellipse cx="65.95" cy="304.9688" fill="#B19CD9" rx="11" ry="11" style="stroke: #A80036; stroke-width: 1.0;"/><path d="M67.1531,305.1094 Q67.5125,305.1875 67.7859,305.4609 Q68.0594,305.7344 68.45,306.5156 L70.6844,310.9688 L67.9969,310.9688 L66.4969,307.8438 Q66.4344,307.7031 66.325,307.4688 Q65.6688,306.0781 64.7781,306.0781 L63.9969,306.0781 L63.9969,310.9688 L61.5594,310.9688 L61.5594,298.5781 L65.0906,298.5781 Q67.4813,298.5781 68.5203,299.4219 Q69.5594,300.2656 69.5594,302.1719 Q69.5594,303.4531 68.9422,304.2109 Q68.325,304.9688 67.1531,305.1094 Z M63.9969,300.6406 L63.9969,304.0156 L65.1531,304.0156 Q66.1688,304.0156 66.5984,303.6172 Q67.0281,303.2188 67.0281,302.3125 Q67.0281,301.4219 66.5984,301.0313 Q66.1688,300.6406 65.1531,300.6406 L63.9969,300.6406 Z "/><text fill="#000000" font-family="sans-serif" font-size="12" font-style="italic" lengthAdjust="spacingAndGlyphs" textLength="72" x="82.55" y="302.1387">«Resource»</text><text fill="#000000" font-family="sans-serif" font-size="12" lengthAdjust="spacingAndGlyphs" textLength="7" x="115.05" y="316.1074">T</text><line style="stroke: #A80036; stroke-width: 1.5;" x1="31.25" x2="175.25" y1="323.9375" y2="323.9375"/><ellipse cx="41.25" cy="335.8398" fill="none" rx="3" ry="3" style="stroke: #038048; stroke-width: 1.0;"/><text fill="#000000" font-family="sans-serif" font-size="11" lengthAdjust="spacingAndGlyphs" textLength="74" x="50.25" y="338.1479">name: String</text><ellipse cx="41.25" cy="348.6445" fill="none" rx="3" ry="3" style="stroke: #038048; stroke-width: 1.0;"/><text fill="#000000" font-family="sans-serif" font-size="11" lengthAdjust="spacingAndGlyphs" textLength="120" x="50.25" y="350.9526">role: Maybe&lt;Object&gt;</text><line style="stroke: #A80036; stroke-width: 1.0; stroke-dasharray: 1.0,2.0;" x1="31.25" x2="175.25" y1="357.5469" y2="357.5469"/><rect fill="none" height="6" style="stroke: #C82930; stroke-width: 1.0;" width="6" x="38.25" y="366.4492"/><path d="M56.2917,364.2682 C55.0267,364.2682 54,365.2949 54,366.5599 C54,366.7066 54.0303,366.8321 54.0578,366.9614 L51.25,369.7691 L51.25,371.6025 L54,371.6025 L54,369.7691 L55.8333,369.7691 L55.8333,368.8525 L55.8911,368.7947 C56.0194,368.8222 56.145,368.8525 56.2926,368.8525 C57.5576,368.8525 58.5843,367.8258 58.5843,366.5608 C58.5843,365.2958 57.5576,364.2691 56.2926,364.2691 M56.7509,365.1858 C57.2551,365.1858 57.6676,365.5983 57.6676,366.1025 C57.6676,366.6066 57.2551,367.0191 56.7509,367.0191 C56.2468,367.0191 55.8343,366.6066 55.8343,366.1025 C55.8343,365.5983 56.2468,365.1858 56.7509,365.1858 " fill="#000000" style="stroke: ; stroke-width: 0.0; stroke-dasharray: ;"/><text fill="#000000" font-family="sans-serif" font-size="11" lengthAdjust="spacingAndGlyphs" textLength="29" x="63.5833" y="371.7573">id: ID</text><!--link Name to T--><path d="M103.25,237.5 C103.25,254.663 103.25,271.355 103.25,285.7714 " fill="none" id="Name-T" style="stroke: #A80036; stroke-width: 1.0;"/><polygon fill="#FFFFFF" points="103.25,224.313,99.25,230.313,103.25,236.313,107.25,230.313,103.25,224.313" style="stroke: #A80036; stroke-width: 1.0;"/><text fill="#000000" font-family="sans-serif" font-size="13" lengthAdjust="spacingAndGlyphs" textLength="8" x="93.6094" y="274.8117">1</text><!--link Name to Name--><path d="M213.281,93.698 C226.562,97.726 235.25,105.16 235.25,116 C235.25,130.016 220.727,138.337 200.53,140.965 " fill="none" id="Name-Name" style="stroke: #A80036; stroke-width: 1.0;"/><polygon fill="#FFFFFF" points="200.53,91.035,205.5851,96.1776,212.2763,93.4892,207.2213,88.3467,200.53,91.035" style="stroke: #A80036; stroke-width: 1.0;"/><text fill="#000000" font-family="sans-serif" font-size="13" lengthAdjust="spacingAndGlyphs" textLength="24" x="208.8776" y="138.3131">0..1</text><!--link T to Named--><path d="M176.488,332 C209.997,332 250.093,332 285.75,332 " fill="none" id="T-Named" style="stroke: #A80036; stroke-width: 1.0; stroke-dasharray: 7.0,7.0;"/><polygon fill="none" points="286.149,324.9999,306.149,332,286.149,338.9999,286.149,324.9999" style="stroke: #A80036; stroke-width: 1.0;"/><text fill="#000000" font-family="sans-serif" font-size="13" lengthAdjust="spacingAndGlyphs" textLength="92" x="194.75" y="324.0669">«implements»</text><!--
@startuml
skinparam defaultMonospacedFontName Andale Mono























































class Name< T: Resource > << (R,orchid) Resource >> {
  + <u>current</u> (\n\ttype: String,\n\tname: String,\n\trole: Maybe<Object>\n):\n\tMaybe<Name<T>>
  - -
  + type: String
  + name: String
  + role: Maybe<Object>
  + {method} ref: T
  + previous: Maybe<Name<T>>
  ..
  - refId: ID
}

class Named << (I,blueviolet) Interface >> {
  + name: String
  + role: Maybe<Object>
}

class T << (R,motivation) Resource >> {
  + name: String
  + role: Maybe<Object>
  ..
  - <&key> id: ID
}

Name o- - "1" T
Name o- - "0..1" Name

T .right.|> Named : << implements >>

@enduml

PlantUML version 1.2018.14(Fri Dec 21 16:33:16 UTC 2018)
(GPL source distribution)
Java Runtime: Java(TM) SE Runtime Environment
JVM: Java HotSpot(TM) 64-Bit Server VM
Java Version: 1.8.0_151-b12
Operating System: Linux
OS Version: 4.4.0-101-generic
Default Encoding: UTF-8
Language: en
Country: US
--></g></svg>