<?xml version="1.0" encoding="UTF-8" standalone="no"?><svg xmlns="http://www.w3.org/2000/svg" xmlns:xlink="http://www.w3.org/1999/xlink" contentScriptType="application/ecmascript" contentStyleType="text/css" height="348.8px" preserveAspectRatio="none" style="width:701px;height:348px;" version="1.1" viewBox="0 0 701 348" width="701.6px" zoomAndPan="magnify"><defs><filter height="300%" id="fpwtqqfysjiq" width="300%" x="-1" y="-1"><feGaussianBlur result="blurOut" stdDeviation="1.6"/><feColorMatrix in="blurOut" result="blurOut2" type="matrix" values="0 0 0 0 0 0 0 0 0 0 0 0 0 0 0 0 0 0 .4 0"/><feOffset dx="3.2" dy="3.2" in="blurOut2" result="blurOut3"/><feBlend in="SourceGraphic" in2="blurOut3" mode="normal"/></filter></defs><g><!--cluster Saving--><rect fill="#FFFFFF" filter="url(#fpwtqqfysjiq)" height="83.2" style="stroke: #000000; stroke-width: 1.2000000000000002;" width="152" x="486.4" y="19.2"/><text fill="#000000" font-family="sans-serif" font-size="11.2" font-style="italic" lengthAdjust="spacingAndGlyphs" textLength="59.2" x="532.8" y="31.1961">«external»</text><text fill="#000000" font-family="sans-serif" font-size="11.2" font-weight="bold" lengthAdjust="spacingAndGlyphs" textLength="41.6" x="541.6" y="44.2336">Saving</text><!--cluster Compilation--><rect fill="#FFFFFF" filter="url(#fpwtqqfysjiq)" height="218.4" style="stroke: #000000; stroke-width: 1.2000000000000002;" width="510.4" x="182.4" y="121.6"/><text fill="#000000" font-family="sans-serif" font-size="11.2" font-weight="bold" lengthAdjust="spacingAndGlyphs" textLength="73.6" x="400.8" y="133.5961">Compilation</text><ellipse cx="562.2943" cy="75.3389" fill="#FEFECE" filter="url(#fpwtqqfysjiq)" rx="63.0943" ry="14.5389" style="stroke: #A80036; stroke-width: 1.2000000000000002;"/><text fill="#000000" font-family="sans-serif" font-size="11.2" lengthAdjust="spacingAndGlyphs" textLength="102.4" x="511.0943" y="79.0576">Save contract type</text><ellipse cx="296.0263" cy="307.8453" fill="#FEFECE" filter="url(#fpwtqqfysjiq)" rx="83.6263" ry="18.6453" style="stroke: #A80036; stroke-width: 1.2000000000000002;"/><text fill="#000000" font-family="sans-serif" font-size="11.2" lengthAdjust="spacingAndGlyphs" textLength="148.8" x="221.6263" y="311.564">Compile all project sources</text><ellipse cx="296.1053" cy="169.7811" fill="#FEFECE" filter="url(#fpwtqqfysjiq)" rx="87.3053" ry="19.3811" style="stroke: #A80036; stroke-width: 1.2000000000000002;"/><text fill="#000000" font-family="sans-serif" font-size="11.2" lengthAdjust="spacingAndGlyphs" textLength="156.8" x="217.7053" y="173.4998">Determine modified sources</text><ellipse cx="295.9802" cy="239.196" fill="#FEFECE" filter="url(#fpwtqqfysjiq)" rx="100.3802" ry="21.996" style="stroke: #A80036; stroke-width: 1.2000000000000002;"/><text fill="#000000" font-family="sans-serif" font-size="11.2" lengthAdjust="spacingAndGlyphs" textLength="184.8" x="203.5802" y="242.9148">Compile modified project sources</text><ellipse cx="562.5099" cy="233.542" fill="#FEFECE" filter="url(#fpwtqqfysjiq)" rx="64.1099" ry="14.742" style="stroke: #A80036; stroke-width: 1.2000000000000002;"/><text fill="#000000" font-family="sans-serif" font-size="11.2" lengthAdjust="spacingAndGlyphs" textLength="104.8" x="510.1099" y="237.2607">Compile source file</text><ellipse cx="562.3273" cy="301.7455" fill="#FEFECE" filter="url(#fpwtqqfysjiq)" rx="117.1273" ry="25.3455" style="stroke: #A80036; stroke-width: 1.2000000000000002;"/><text fill="#000000" font-family="sans-serif" font-size="11.2" lengthAdjust="spacingAndGlyphs" textLength="220" x="452.3273" y="305.4642">Compile primary and related source files</text><!--entity Developer--><ellipse cx="76" cy="248.4" fill="#FEFECE" filter="url(#fpwtqqfysjiq)" rx="6.4" ry="6.4" style="stroke: #A80036; stroke-width: 1.6;"/><path d="M76,254.8 L76,276.4 M65.6,261.2 L86.4,261.2 M76,276.4 L65.6,288.4 M76,276.4 L86.4,288.4 " fill="none" filter="url(#fpwtqqfysjiq)" style="stroke: #A80036; stroke-width: 1.6;"/><text fill="#000000" font-family="sans-serif" font-size="11.2" lengthAdjust="spacingAndGlyphs" textLength="142.4" x="4.8" y="304.3961">Smart Contract Developer</text><!--link CompileModified to DetermineModified--><path d="M296,217.1784 C296,209.1592 296,201.1408 296,193.1216 " fill="none" id="CompileModified-DetermineModified" style="stroke: #A80036; stroke-width: 0.8;"/><polygon fill="#A80036" points="296,188.9288,292.8,196.1288,296,192.9288,299.2,196.1288,296,188.9288" style="stroke: #A80036; stroke-width: 0.8;"/><!--link Compile to SaveType--><path d="M562.4,218.7504 C562.4,177.1032 562.4,135.4568 562.4,93.8096 " fill="none" id="Compile-SaveType" style="stroke: #A80036; stroke-width: 0.8;"/><polygon fill="#A80036" points="562.4,89.7792,559.2,96.9792,562.4,93.7792,565.6,96.9792,562.4,89.7792" style="stroke: #A80036; stroke-width: 0.8;"/><!--link CompileMultiple to Compile--><path d="M562.4,276.3656 C562.4,272.3456 562.4,268.3264 562.4,264.3064 " fill="none" id="CompileMultiple-Compile" style="stroke: #A80036; stroke-width: 0.8; stroke-dasharray: 7.0,7.0;"/><polygon fill="none" points="556.8,264.3008,562.4,248.3008,568,264.3008,556.8,264.3008" style="stroke: #A80036; stroke-width: 0.8;"/><!--link CompileAll to Compile--><path d="M344.9624,292.8126 C373.824,283.8637 411.304,272.5088 444.8,263.2 C467.4736,256.8984 492.7752,250.4192 514.0168,245.1352 " fill="none" id="CompileAll-Compile" style="stroke: #A80036; stroke-width: 0.8;"/><polygon fill="#A80036" points="517.9344,244.1632,510.1756,242.7916,514.0522,245.1266,511.7171,249.0031,517.9344,244.1632" style="stroke: #A80036; stroke-width: 0.8;"/><!--link CompileModified to Compile--><path d="M396.1552,237.0992 C428.8856,236.4064 464.4952,235.6536 494.264,235.024 " fill="none" id="CompileModified-Compile" style="stroke: #A80036; stroke-width: 0.8;"/><polygon fill="#A80036" points="498.6128,234.932,491.3467,231.885,494.6137,235.0166,491.4821,238.2835,498.6128,234.932" style="stroke: #A80036; stroke-width: 0.8;"/><!--link Developer to CompileAll--><path d="M147.4064,284.7212 C173.08,288.765 202.0184,293.3231 227.44,297.3271 " fill="none" id="Developer-CompileAll" style="stroke: #A80036; stroke-width: 0.8;"/><!--link Developer to CompileModified--><path d="M147.4064,262.4792 C168.7176,259.1224 192.2792,255.4112 214.2112,251.9568 " fill="none" id="Developer-CompileModified" style="stroke: #A80036; stroke-width: 0.8;"/><!--
@startuml
scale 0.80
left to right direction

:Smart Contract Developer: as :Developer:

rectangle Saving << external >> {
  (Save contract type) as (SaveType)
}

rectangle Compilation {
  (Compile all project sources) as (CompileAll)

  (Determine modified sources) as (DetermineModified)
  (Compile modified project sources) as (CompileModified)
  CompileModified -> DetermineModified

  (Compile source file) as (Compile)
  Compile -> SaveType

  (Compile primary and related source files) as (CompileMultiple)
  CompileMultiple .|> Compile

  CompileAll - -> Compile
  CompileModified - -> Compile
}

Developer - - CompileAll
Developer - - CompileModified

@enduml

PlantUML version 1.2018.14(Fri Dec 21 16:33:16 UTC 2018)
(GPL source distribution)
Java Runtime: Java(TM) SE Runtime Environment
JVM: Java HotSpot(TM) 64-Bit Server VM
Java Version: 1.8.0_151-b12
Operating System: Linux
OS Version: 4.4.0-101-generic
Default Encoding: UTF-8
Language: en
Country: US
--></g></svg>