<?xml version="1.0" encoding="UTF-8" standalone="no"?><svg xmlns="http://www.w3.org/2000/svg" xmlns:xlink="http://www.w3.org/1999/xlink" contentScriptType="application/ecmascript" contentStyleType="text/css" height="351px" preserveAspectRatio="none" style="width:706px;height:351px;" version="1.1" viewBox="0 0 706 351" width="706.5px" zoomAndPan="magnify"><defs><filter height="300%" id="fu82iaps4pt77" width="300%" x="-1" y="-1"><feGaussianBlur result="blurOut" stdDeviation="1.5"/><feColorMatrix in="blurOut" result="blurOut2" type="matrix" values="0 0 0 0 0 0 0 0 0 0 0 0 0 0 0 0 0 0 .4 0"/><feOffset dx="3.0" dy="3.0" in="blurOut2" result="blurOut3"/><feBlend in="SourceGraphic" in2="blurOut3" mode="normal"/></filter></defs><g><!--class ContractInterface--><rect fill="#FEFECE" filter="url(#fu82iaps4pt77)" height="88.4707" id="ContractInterface" style="stroke: #A80036; stroke-width: 1.125;" width="168" x="264.5625" y="6"/><ellipse cx="304.125" cy="20.2266" fill="#DA70D6" rx="8.25" ry="8.25" style="stroke: #A80036; stroke-width: 0.75;"/><path d="M305.0273,20.332 Q305.2969,20.3906 305.502,20.5957 Q305.707,20.8008 306,21.3867 L307.6758,24.7266 L305.6602,24.7266 L304.5352,22.3828 Q304.4883,22.2773 304.4063,22.1016 Q303.9141,21.0586 303.2461,21.0586 L302.6602,21.0586 L302.6602,24.7266 L300.832,24.7266 L300.832,15.4336 L303.4805,15.4336 Q305.2734,15.4336 306.0527,16.0664 Q306.832,16.6992 306.832,18.1289 Q306.832,19.0898 306.3691,19.6582 Q305.9063,20.2266 305.0273,20.332 Z M302.6602,16.9805 L302.6602,19.5117 L303.5273,19.5117 Q304.2891,19.5117 304.6113,19.2129 Q304.9336,18.9141 304.9336,18.2344 Q304.9336,17.5664 304.6113,17.2734 Q304.2891,16.9805 303.5273,16.9805 L302.6602,16.9805 Z "/><text fill="#000000" font-family="sans-serif" font-size="9" font-style="italic" lengthAdjust="spacingAndGlyphs" textLength="54" x="333.75" y="18.104">«Resource»</text><text fill="#000000" font-family="sans-serif" font-size="9" lengthAdjust="spacingAndGlyphs" textLength="82.5" x="319.5" y="28.5806">ContractInterface</text><line style="stroke: #A80036; stroke-width: 1.125;" x1="265.3125" x2="431.8125" y1="34.4531" y2="34.4531"/><ellipse cx="272.8125" cy="43.3799" fill="none" rx="2.25" ry="2.25" style="stroke: #038048; stroke-width: 0.75;"/><text fill="#000000" font-family="sans-serif" font-size="8.25" lengthAdjust="spacingAndGlyphs" textLength="148.5" x="279.5625" y="45.111">constructor : Maybe&lt;Constructor&gt;</text><ellipse cx="272.8125" cy="52.9834" fill="none" rx="2.25" ry="2.25" style="stroke: #038048; stroke-width: 0.75;"/><text fill="#000000" font-family="sans-serif" font-size="8.25" lengthAdjust="spacingAndGlyphs" textLength="115.5" x="279.5625" y="54.7145">fallback : Maybe&lt;Fallback&gt;</text><ellipse cx="272.8125" cy="62.5869" fill="none" rx="2.25" ry="2.25" style="stroke: #038048; stroke-width: 0.75;"/><text fill="#000000" font-family="sans-serif" font-size="8.25" lengthAdjust="spacingAndGlyphs" textLength="111" x="279.5625" y="64.318">functions : Set&lt;Function&gt;</text><ellipse cx="272.8125" cy="72.1904" fill="none" rx="2.25" ry="2.25" style="stroke: #038048; stroke-width: 0.75;"/><text fill="#000000" font-family="sans-serif" font-size="8.25" lengthAdjust="spacingAndGlyphs" textLength="88.5" x="279.5625" y="73.9215">events : Set&lt;Event&gt;</text><line style="stroke: #A80036; stroke-width: 0.75; stroke-dasharray: 1.0,2.0;" x1="265.3125" x2="431.8125" y1="78.8672" y2="78.8672"/><rect fill="none" height="4.5" style="stroke: #C82930; stroke-width: 0.75;" width="4.5" x="270.5625" y="85.5439"/><path d="M284.0938,83.9082 C283.145,83.9082 282.375,84.6782 282.375,85.627 C282.375,85.737 282.3977,85.8311 282.4183,85.9281 L280.3125,88.0339 L280.3125,89.4089 L282.375,89.4089 L282.375,88.0339 L283.75,88.0339 L283.75,87.3464 L283.7933,87.3031 C283.8896,87.3237 283.9838,87.3464 284.0944,87.3464 C285.0432,87.3464 285.8132,86.5764 285.8132,85.6276 C285.8132,84.6789 285.0432,83.9089 284.0944,83.9089 M284.4382,84.5964 C284.8163,84.5964 285.1257,84.9058 285.1257,85.2839 C285.1257,85.662 284.8163,85.9714 284.4382,85.9714 C284.0601,85.9714 283.7507,85.662 283.7507,85.2839 C283.7507,84.9058 284.0601,84.5964 284.4382,84.5964 " fill="#000000" style="stroke: ; stroke-width: 0.0; stroke-dasharray: ;"/><text fill="#000000" font-family="sans-serif" font-size="8.25" lengthAdjust="spacingAndGlyphs" textLength="37.5" x="289.5625" y="89.525">id: ID = [</text><text fill="#000000" font-family="sans-serif" font-size="8.25" font-style="italic" lengthAdjust="spacingAndGlyphs" textLength="69" x="327.0625" y="89.525">to be completed</text><path d="M401.9396,83.9082 C401.8984,83.9082 401.8674,83.9385 401.8537,83.9728 L399.8338,88.6568 L399.8125,88.786 L399.8125,89.345 C399.8125,89.3862 399.8359,89.4096 399.8771,89.4096 L404.5611,89.4096 C404.6023,89.4096 404.6257,89.3862 404.6257,89.345 L404.6257,88.786 L404.6044,88.6568 L402.5845,83.9728 C402.5708,83.9385 402.5398,83.9082 402.4986,83.9082 L401.9396,83.9082 M401.875,85.9707 L402.5625,85.9707 L402.5625,87.3457 L401.875,87.3457 L401.875,85.9707 M401.875,88.0332 L402.5625,88.0332 L402.5625,88.7207 L401.875,88.7207 L401.875,88.0332 " fill="#000000" style="stroke: ; stroke-width: 0.0; stroke-dasharray: ;"/><text fill="#000000" font-family="sans-serif" font-size="8.25" lengthAdjust="spacingAndGlyphs" textLength="3" x="406.0625" y="89.525">]</text><!--class ConstructorInterface--><rect fill="#FEFECE" filter="url(#fu82iaps4pt77)" height="59.6602" id="ConstructorInterface" style="stroke: #A80036; stroke-width: 1.125;" width="152.25" x="4.5" y="149.25"/><ellipse cx="29.5875" cy="163.4766" fill="#7CFC00" rx="8.25" ry="8.25" style="stroke: #A80036; stroke-width: 0.75;"/><path d="M29.6695,160.1602 Q28.9664,160.1602 28.6441,160.9102 Q28.3219,161.6602 28.3219,163.3359 Q28.3219,165.0117 28.6441,165.7617 Q28.9664,166.5117 29.6695,166.5117 Q30.3844,166.5117 30.7066,165.7617 Q31.0289,165.0117 31.0289,163.3359 Q31.0289,161.6602 30.7066,160.9102 Q30.3844,160.1602 29.6695,160.1602 Z M26.4117,163.3359 Q26.4117,160.957 27.2379,159.7324 Q28.0641,158.5078 29.6695,158.5078 Q31.2867,158.5078 32.1129,159.7324 Q32.9391,160.957 32.9391,163.3359 Q32.9391,165.7148 32.1129,166.9336 Q31.2867,168.1523 29.6695,168.1523 Q28.0641,168.1523 27.2379,166.9336 Q26.4117,165.7148 26.4117,163.3359 Z "/><text fill="#000000" font-family="sans-serif" font-size="9" font-style="italic" lengthAdjust="spacingAndGlyphs" textLength="65.25" x="59.2875" y="161.354">«Data Object»</text><text fill="#000000" font-family="sans-serif" font-size="9" lengthAdjust="spacingAndGlyphs" textLength="97.5" x="43.1625" y="171.8306">ConstructorInterface</text><line style="stroke: #A80036; stroke-width: 1.125;" x1="5.25" x2="156" y1="177.7031" y2="177.7031"/><ellipse cx="12.75" cy="186.6299" fill="none" rx="2.25" ry="2.25" style="stroke: #038048; stroke-width: 0.75;"/><text fill="#000000" font-family="sans-serif" font-size="8.25" lengthAdjust="spacingAndGlyphs" textLength="116.25" x="19.5" y="188.361">inputs : Array&lt;Parameter&gt;</text><ellipse cx="12.75" cy="196.2334" fill="none" rx="2.25" ry="2.25" style="stroke: #038048; stroke-width: 0.75;"/><text fill="#000000" font-family="sans-serif" font-size="8.25" lengthAdjust="spacingAndGlyphs" textLength="132.75" x="19.5" y="197.9645">stateMutability : StateMutability</text><line style="stroke: #A80036; stroke-width: 1.125;" x1="5.25" x2="156" y1="202.9102" y2="202.9102"/><!--class FallbackInterface--><rect fill="#FEFECE" filter="url(#fu82iaps4pt77)" height="50.0566" id="FallbackInterface" style="stroke: #A80036; stroke-width: 1.125;" width="152.25" x="361.5" y="154.125"/><ellipse cx="394.35" cy="168.3516" fill="#7CFC00" rx="8.25" ry="8.25" style="stroke: #A80036; stroke-width: 0.75;"/><path d="M394.432,165.0352 Q393.7289,165.0352 393.4066,165.7852 Q393.0844,166.5352 393.0844,168.2109 Q393.0844,169.8867 393.4066,170.6367 Q393.7289,171.3867 394.432,171.3867 Q395.1469,171.3867 395.4691,170.6367 Q395.7914,169.8867 395.7914,168.2109 Q395.7914,166.5352 395.4691,165.7852 Q395.1469,165.0352 394.432,165.0352 Z M391.1742,168.2109 Q391.1742,165.832 392.0004,164.6074 Q392.8266,163.3828 394.432,163.3828 Q396.0492,163.3828 396.8754,164.6074 Q397.7016,165.832 397.7016,168.2109 Q397.7016,170.5898 396.8754,171.8086 Q396.0492,173.0273 394.432,173.0273 Q392.8266,173.0273 392.0004,171.8086 Q391.1742,170.5898 391.1742,168.2109 Z "/><text fill="#000000" font-family="sans-serif" font-size="9" font-style="italic" lengthAdjust="spacingAndGlyphs" textLength="65.25" x="417.15" y="166.229">«Data Object»</text><text fill="#000000" font-family="sans-serif" font-size="9" lengthAdjust="spacingAndGlyphs" textLength="80.25" x="409.65" y="176.7056">FallbackInterface</text><line style="stroke: #A80036; stroke-width: 1.125;" x1="362.25" x2="513" y1="182.5781" y2="182.5781"/><ellipse cx="369.75" cy="191.5049" fill="none" rx="2.25" ry="2.25" style="stroke: #038048; stroke-width: 0.75;"/><text fill="#000000" font-family="sans-serif" font-size="8.25" lengthAdjust="spacingAndGlyphs" textLength="132.75" x="376.5" y="193.236">stateMutability : StateMutability</text><line style="stroke: #A80036; stroke-width: 1.125;" x1="362.25" x2="513" y1="198.1816" y2="198.1816"/><!--class FunctionInterface--><rect fill="#FEFECE" filter="url(#fu82iaps4pt77)" height="78.8672" id="FunctionInterface" style="stroke: #A80036; stroke-width: 1.125;" width="152.25" x="183" y="139.875"/><ellipse cx="214.8375" cy="154.1016" fill="#7CFC00" rx="8.25" ry="8.25" style="stroke: #A80036; stroke-width: 0.75;"/><path d="M214.9195,150.7852 Q214.2164,150.7852 213.8941,151.5352 Q213.5719,152.2852 213.5719,153.9609 Q213.5719,155.6367 213.8941,156.3867 Q214.2164,157.1367 214.9195,157.1367 Q215.6344,157.1367 215.9566,156.3867 Q216.2789,155.6367 216.2789,153.9609 Q216.2789,152.2852 215.9566,151.5352 Q215.6344,150.7852 214.9195,150.7852 Z M211.6617,153.9609 Q211.6617,151.582 212.4879,150.3574 Q213.3141,149.1328 214.9195,149.1328 Q216.5367,149.1328 217.3629,150.3574 Q218.1891,151.582 218.1891,153.9609 Q218.1891,156.3398 217.3629,157.5586 Q216.5367,158.7773 214.9195,158.7773 Q213.3141,158.7773 212.4879,157.5586 Q211.6617,156.3398 211.6617,153.9609 Z "/><text fill="#000000" font-family="sans-serif" font-size="9" font-style="italic" lengthAdjust="spacingAndGlyphs" textLength="65.25" x="238.5375" y="151.979">«Data Object»</text><text fill="#000000" font-family="sans-serif" font-size="9" lengthAdjust="spacingAndGlyphs" textLength="82.5" x="229.9125" y="162.4556">FunctionInterface</text><line style="stroke: #A80036; stroke-width: 1.125;" x1="183.75" x2="334.5" y1="168.3281" y2="168.3281"/><ellipse cx="191.25" cy="177.2549" fill="none" rx="2.25" ry="2.25" style="stroke: #038048; stroke-width: 0.75;"/><text fill="#000000" font-family="sans-serif" font-size="8.25" lengthAdjust="spacingAndGlyphs" textLength="58.5" x="198" y="178.986">name : String</text><ellipse cx="191.25" cy="186.8584" fill="none" rx="2.25" ry="2.25" style="stroke: #038048; stroke-width: 0.75;"/><text fill="#000000" font-family="sans-serif" font-size="8.25" lengthAdjust="spacingAndGlyphs" textLength="116.25" x="198" y="188.5895">inputs : Array&lt;Parameter&gt;</text><ellipse cx="191.25" cy="196.4619" fill="none" rx="2.25" ry="2.25" style="stroke: #038048; stroke-width: 0.75;"/><text fill="#000000" font-family="sans-serif" font-size="8.25" lengthAdjust="spacingAndGlyphs" textLength="122.25" x="198" y="198.193">outputs : Array&lt;Parameter&gt;</text><ellipse cx="191.25" cy="206.0654" fill="none" rx="2.25" ry="2.25" style="stroke: #038048; stroke-width: 0.75;"/><text fill="#000000" font-family="sans-serif" font-size="8.25" lengthAdjust="spacingAndGlyphs" textLength="132.75" x="198" y="207.7965">stateMutability : StateMutability</text><line style="stroke: #A80036; stroke-width: 1.125;" x1="183.75" x2="334.5" y1="212.7422" y2="212.7422"/><!--class EventInterface--><rect fill="#FEFECE" filter="url(#fu82iaps4pt77)" height="69.2637" id="EventInterface" style="stroke: #A80036; stroke-width: 1.125;" width="159" x="539.8125" y="144.75"/><ellipse cx="582" cy="158.9766" fill="#7CFC00" rx="8.25" ry="8.25" style="stroke: #A80036; stroke-width: 0.75;"/><path d="M582.082,155.6602 Q581.3789,155.6602 581.0566,156.4102 Q580.7344,157.1602 580.7344,158.8359 Q580.7344,160.5117 581.0566,161.2617 Q581.3789,162.0117 582.082,162.0117 Q582.7969,162.0117 583.1191,161.2617 Q583.4414,160.5117 583.4414,158.8359 Q583.4414,157.1602 583.1191,156.4102 Q582.7969,155.6602 582.082,155.6602 Z M578.8242,158.8359 Q578.8242,156.457 579.6504,155.2324 Q580.4766,154.0078 582.082,154.0078 Q583.6992,154.0078 584.5254,155.2324 Q585.3516,156.457 585.3516,158.8359 Q585.3516,161.2148 584.5254,162.4336 Q583.6992,163.6523 582.082,163.6523 Q580.4766,163.6523 579.6504,162.4336 Q578.8242,161.2148 578.8242,158.8359 Z "/><text fill="#000000" font-family="sans-serif" font-size="9" font-style="italic" lengthAdjust="spacingAndGlyphs" textLength="65.25" x="598.875" y="156.854">«Data Object»</text><text fill="#000000" font-family="sans-serif" font-size="9" lengthAdjust="spacingAndGlyphs" textLength="68.25" x="597.375" y="167.3306">EventInterface</text><line style="stroke: #A80036; stroke-width: 1.125;" x1="540.5625" x2="698.0625" y1="173.2031" y2="173.2031"/><ellipse cx="548.0625" cy="182.1299" fill="none" rx="2.25" ry="2.25" style="stroke: #038048; stroke-width: 0.75;"/><text fill="#000000" font-family="sans-serif" font-size="8.25" lengthAdjust="spacingAndGlyphs" textLength="58.5" x="554.8125" y="183.861">name : String</text><ellipse cx="548.0625" cy="191.7334" fill="none" rx="2.25" ry="2.25" style="stroke: #038048; stroke-width: 0.75;"/><text fill="#000000" font-family="sans-serif" font-size="8.25" lengthAdjust="spacingAndGlyphs" textLength="139.5" x="554.8125" y="193.4645">inputs : Array&lt;EventParameter&gt;</text><ellipse cx="548.0625" cy="201.3369" fill="none" rx="2.25" ry="2.25" style="stroke: #038048; stroke-width: 0.75;"/><text fill="#000000" font-family="sans-serif" font-size="8.25" lengthAdjust="spacingAndGlyphs" textLength="93" x="554.8125" y="203.068">anonymous : Boolean</text><line style="stroke: #A80036; stroke-width: 1.125;" x1="540.5625" x2="698.0625" y1="208.0137" y2="208.0137"/><!--class Parameter--><rect fill="#FEFECE" filter="url(#fu82iaps4pt77)" height="59.6602" id="Parameter" style="stroke: #A80036; stroke-width: 1.125;" width="86.25" x="68.25" y="273.75"/><ellipse cx="79.5" cy="287.9766" fill="#7CFC00" rx="8.25" ry="8.25" style="stroke: #A80036; stroke-width: 0.75;"/><path d="M79.582,284.6602 Q78.8789,284.6602 78.5566,285.4102 Q78.2344,286.1602 78.2344,287.8359 Q78.2344,289.5117 78.5566,290.2617 Q78.8789,291.0117 79.582,291.0117 Q80.2969,291.0117 80.6191,290.2617 Q80.9414,289.5117 80.9414,287.8359 Q80.9414,286.1602 80.6191,285.4102 Q80.2969,284.6602 79.582,284.6602 Z M76.3242,287.8359 Q76.3242,285.457 77.1504,284.2324 Q77.9766,283.0078 79.582,283.0078 Q81.1992,283.0078 82.0254,284.2324 Q82.8516,285.457 82.8516,287.8359 Q82.8516,290.2148 82.0254,291.4336 Q81.1992,292.6523 79.582,292.6523 Q77.9766,292.6523 77.1504,291.4336 Q76.3242,290.2148 76.3242,287.8359 Z "/><text fill="#000000" font-family="sans-serif" font-size="9" font-style="italic" lengthAdjust="spacingAndGlyphs" textLength="65.25" x="88.5" y="285.854">«Data Object»</text><text fill="#000000" font-family="sans-serif" font-size="9" lengthAdjust="spacingAndGlyphs" textLength="49.5" x="96.375" y="296.3306">Parameter</text><line style="stroke: #A80036; stroke-width: 1.125;" x1="69" x2="153.75" y1="302.2031" y2="302.2031"/><ellipse cx="76.5" cy="311.1299" fill="none" rx="2.25" ry="2.25" style="stroke: #038048; stroke-width: 0.75;"/><text fill="#000000" font-family="sans-serif" font-size="8.25" lengthAdjust="spacingAndGlyphs" textLength="58.5" x="83.25" y="312.861">name : String</text><ellipse cx="76.5" cy="320.7334" fill="none" rx="2.25" ry="2.25" style="stroke: #038048; stroke-width: 0.75;"/><text fill="#000000" font-family="sans-serif" font-size="8.25" lengthAdjust="spacingAndGlyphs" textLength="47.25" x="83.25" y="322.4645">type : Type</text><line style="stroke: #A80036; stroke-width: 1.125;" x1="69" x2="153.75" y1="327.4102" y2="327.4102"/><!--class EventParameter--><rect fill="#FEFECE" filter="url(#fu82iaps4pt77)" height="69.2637" id="EventParameter" style="stroke: #A80036; stroke-width: 1.125;" width="99.75" x="569.25" y="269.25"/><ellipse cx="580.5" cy="283.4766" fill="#7CFC00" rx="8.25" ry="8.25" style="stroke: #A80036; stroke-width: 0.75;"/><path d="M580.582,280.1602 Q579.8789,280.1602 579.5566,280.9102 Q579.2344,281.6602 579.2344,283.3359 Q579.2344,285.0117 579.5566,285.7617 Q579.8789,286.5117 580.582,286.5117 Q581.2969,286.5117 581.6191,285.7617 Q581.9414,285.0117 581.9414,283.3359 Q581.9414,281.6602 581.6191,280.9102 Q581.2969,280.1602 580.582,280.1602 Z M577.3242,283.3359 Q577.3242,280.957 578.1504,279.7324 Q578.9766,278.5078 580.582,278.5078 Q582.1992,278.5078 583.0254,279.7324 Q583.8516,280.957 583.8516,283.3359 Q583.8516,285.7148 583.0254,286.9336 Q582.1992,288.1523 580.582,288.1523 Q578.9766,288.1523 578.1504,286.9336 Q577.3242,285.7148 577.3242,283.3359 Z "/><text fill="#000000" font-family="sans-serif" font-size="9" font-style="italic" lengthAdjust="spacingAndGlyphs" textLength="65.25" x="596.25" y="281.354">«Data Object»</text><text fill="#000000" font-family="sans-serif" font-size="9" lengthAdjust="spacingAndGlyphs" textLength="75.75" x="591" y="291.8306">EventParameter</text><line style="stroke: #A80036; stroke-width: 1.125;" x1="570" x2="668.25" y1="297.7031" y2="297.7031"/><ellipse cx="577.5" cy="306.6299" fill="none" rx="2.25" ry="2.25" style="stroke: #038048; stroke-width: 0.75;"/><text fill="#000000" font-family="sans-serif" font-size="8.25" lengthAdjust="spacingAndGlyphs" textLength="58.5" x="584.25" y="308.361">name : String</text><ellipse cx="577.5" cy="316.2334" fill="none" rx="2.25" ry="2.25" style="stroke: #038048; stroke-width: 0.75;"/><text fill="#000000" font-family="sans-serif" font-size="8.25" lengthAdjust="spacingAndGlyphs" textLength="47.25" x="584.25" y="317.9645">type : Type</text><ellipse cx="577.5" cy="325.8369" fill="none" rx="2.25" ry="2.25" style="stroke: #038048; stroke-width: 0.75;"/><text fill="#000000" font-family="sans-serif" font-size="8.25" lengthAdjust="spacingAndGlyphs" textLength="76.5" x="584.25" y="327.568">indexed : Boolean</text><line style="stroke: #A80036; stroke-width: 1.125;" x1="570" x2="668.25" y1="332.5137" y2="332.5137"/><!--class StateMutability--><rect fill="#FEFECE" filter="url(#fu82iaps4pt77)" height="78.8672" id="StateMutability" style="stroke: #A80036; stroke-width: 1.125;" width="93.75" x="212.25" y="264.375"/><ellipse cx="223.5" cy="278.6016" fill="#FFFF00" rx="8.25" ry="8.25" style="stroke: #A80036; stroke-width: 0.75;"/><path d="M226.582,283.1016 L220.793,283.1016 L220.793,273.8086 L226.582,273.8086 L226.582,275.4258 L222.6328,275.4258 L222.6328,277.4297 L226.207,277.4297 L226.207,279.0469 L222.6328,279.0469 L222.6328,281.4844 L226.582,281.4844 L226.582,283.1016 Z "/><text fill="#000000" font-family="sans-serif" font-size="9" font-style="italic" lengthAdjust="spacingAndGlyphs" textLength="36.75" x="250.5" y="276.479">«Enum»</text><text fill="#000000" font-family="sans-serif" font-size="9" lengthAdjust="spacingAndGlyphs" textLength="69.75" x="234" y="286.9556">StateMutability</text><line style="stroke: #A80036; stroke-width: 1.125;" x1="213" x2="305.25" y1="292.8281" y2="292.8281"/><ellipse cx="220.5" cy="301.7549" fill="none" rx="2.25" ry="2.25" style="stroke: #038048; stroke-width: 0.75;"/><text fill="#000000" font-family="sans-serif" font-size="8.25" lengthAdjust="spacingAndGlyphs" textLength="19.5" x="227.25" y="303.486">pure</text><ellipse cx="220.5" cy="311.3584" fill="none" rx="2.25" ry="2.25" style="stroke: #038048; stroke-width: 0.75;"/><text fill="#000000" font-family="sans-serif" font-size="8.25" lengthAdjust="spacingAndGlyphs" textLength="18.75" x="227.25" y="313.0895">view</text><ellipse cx="220.5" cy="320.9619" fill="none" rx="2.25" ry="2.25" style="stroke: #038048; stroke-width: 0.75;"/><text fill="#000000" font-family="sans-serif" font-size="8.25" lengthAdjust="spacingAndGlyphs" textLength="48.75" x="227.25" y="322.693">nonpayable</text><ellipse cx="220.5" cy="330.5654" fill="none" rx="2.25" ry="2.25" style="stroke: #038048; stroke-width: 0.75;"/><text fill="#000000" font-family="sans-serif" font-size="8.25" lengthAdjust="spacingAndGlyphs" textLength="33" x="227.25" y="332.2965">payable</text><line style="stroke: #A80036; stroke-width: 1.125;" x1="213" x2="305.25" y1="337.2422" y2="337.2422"/><!--link ContractInterface to ContractInterface--><path d="M441.483,30.1455 C451.353,34.0485 457.6875,40.7498 457.6875,50.25 C457.6875,62.5328 447.0983,70.1378 431.97,73.0642 " fill="none" id="ContractInterface-ContractInterface" style="stroke: #A80036; stroke-width: 0.75;"/><polygon fill="#FFFFFF" points="431.97,27.4358,435.476,31.5538,440.6257,29.9013,437.1197,25.7833,431.97,27.4358" style="stroke: #A80036; stroke-width: 0.75;"/><text fill="#000000" font-family="sans-serif" font-size="9.75" lengthAdjust="spacingAndGlyphs" textLength="6" x="438.5856" y="71.378">n</text><!--link ContractInterface to ConstructorInterface--><path d="M255.2888,95.2373 C217.8113,113.0835 175.5922,133.188 142.0305,149.1705 " fill="none" id="ContractInterface-ConstructorInterface" style="stroke: #A80036; stroke-width: 0.75;"/><polygon fill="#A80036" points="264.204,90.9922,258.8514,90.2182,256.0781,94.8613,261.4308,95.6354,264.204,90.9922" style="stroke: #A80036; stroke-width: 0.75;"/><text fill="#000000" font-family="sans-serif" font-size="9.75" lengthAdjust="spacingAndGlyphs" textLength="18" x="130.8674" y="140.8987">0..1</text><!--link ContractInterface to FallbackInterface--><path d="M384.3,102.5895 C396.7643,120.3952 410.148,139.5158 420.366,154.1123 " fill="none" id="ContractInterface-FallbackInterface" style="stroke: #A80036; stroke-width: 0.75;"/><polygon fill="#A80036" points="378.6525,94.5218,378.7751,99.9287,383.8133,101.8951,383.6907,96.4881,378.6525,94.5218" style="stroke: #A80036; stroke-width: 0.75;"/><text fill="#000000" font-family="sans-serif" font-size="9.75" lengthAdjust="spacingAndGlyphs" textLength="18" x="396.9738" y="145.7713">0..1</text><!--link ContractInterface to FunctionInterface--><path d="M312.075,102.5895 C303.3608,115.0388 294.1958,128.1308 285.9788,139.8698 " fill="none" id="ContractInterface-FunctionInterface" style="stroke: #A80036; stroke-width: 0.75;"/><polygon fill="#A80036" points="317.7225,94.5218,312.6843,96.4881,312.5617,101.8951,317.5999,99.9287,317.7225,94.5218" style="stroke: #A80036; stroke-width: 0.75;"/><text fill="#000000" font-family="sans-serif" font-size="9.75" lengthAdjust="spacingAndGlyphs" textLength="6" x="281.9001" y="131.6285">n</text><!--link ContractInterface to EventInterface--><path d="M440.97,94.6928 C475.7062,111.0503 514.6088,129.3698 547.161,144.6998 " fill="none" id="ContractInterface-EventInterface" style="stroke: #A80036; stroke-width: 0.75;"/><polygon fill="#A80036" points="432,90.4688,434.7931,95.1,440.1424,94.3031,437.3493,89.6718,432,90.4688" style="stroke: #A80036; stroke-width: 0.75;"/><text fill="#000000" font-family="sans-serif" font-size="9.75" lengthAdjust="spacingAndGlyphs" textLength="6" x="530.6861" y="136.4959">n</text><!--link ConstructorInterface to Parameter--><path d="M90.1733,218.9438 C94.5945,236.6273 99.7373,257.1998 103.8293,273.566 " fill="none" id="ConstructorInterface-Parameter" style="stroke: #A80036; stroke-width: 0.75;"/><polygon fill="#A80036" points="87.8032,209.4615,85.9846,214.5549,89.9868,218.1926,91.8054,213.0992,87.8032,209.4615" style="stroke: #A80036; stroke-width: 0.75;"/><text fill="#000000" font-family="sans-serif" font-size="9.75" lengthAdjust="spacingAndGlyphs" textLength="6" x="95.4908" y="265.5062">n</text><!--link ConstructorInterface to StateMutability--><path d="M131.031,214.863 C156.4763,232.3965 187.1175,253.5105 212.0295,270.677 " fill="none" id="ConstructorInterface-StateMutability" style="stroke: #A80036; stroke-width: 0.75;"/><polygon fill="#A80036" points="122.9663,209.3055,124.9699,214.329,130.3776,214.4116,128.3739,209.3881,122.9663,209.3055" style="stroke: #A80036; stroke-width: 0.75;"/><text fill="#000000" font-family="sans-serif" font-size="9.75" lengthAdjust="spacingAndGlyphs" textLength="6" x="200.2744" y="263.8434">1</text><!--link FallbackInterface to StateMutability--><path d="M393.5918,210.213 C366.9743,228.5543 333.0128,251.9565 305.856,270.6697 " fill="none" id="FallbackInterface-StateMutability" style="stroke: #A80036; stroke-width: 0.75;"/><polygon fill="#A80036" points="401.958,204.4477,396.5503,204.5307,394.547,209.5543,399.9547,209.4714,401.958,204.4477" style="stroke: #A80036; stroke-width: 0.75;"/><text fill="#000000" font-family="sans-serif" font-size="9.75" lengthAdjust="spacingAndGlyphs" textLength="6" x="311.917" y="262.9102">1</text><!--link FunctionInterface to Parameter--><path d="M204.7658,225.0975 C185.3213,241.2847 163.9125,259.107 146.4848,273.6154 " fill="none" id="FunctionInterface-Parameter" style="stroke: #A80036; stroke-width: 0.75;"/><polygon fill="#A80036" points="212.391,218.7495,207.0131,219.3228,205.4739,224.5075,210.8518,223.9342,212.391,218.7495" style="stroke: #A80036; stroke-width: 0.75;"/><text fill="#000000" font-family="sans-serif" font-size="9.75" lengthAdjust="spacingAndGlyphs" textLength="6" x="144.1447" y="265.5627">n</text><!--link FunctionInterface to StateMutability--><path d="M258.9375,228.6705 C258.9375,240.516 258.9375,253.026 258.9375,264.3353 " fill="none" id="FunctionInterface-StateMutability" style="stroke: #A80036; stroke-width: 0.75;"/><polygon fill="#A80036" points="258.9375,218.9182,255.9375,223.4182,258.9375,227.9182,261.9375,223.4182,258.9375,218.9182" style="stroke: #A80036; stroke-width: 0.75;"/><text fill="#000000" font-family="sans-serif" font-size="9.75" lengthAdjust="spacingAndGlyphs" textLength="6" x="251.7322" y="256.09">1</text><!--link EventInterface to EventParameter--><path d="M618.9375,223.7355 C618.9375,238.6725 618.9375,255.1388 618.9375,269.1749 " fill="none" id="EventInterface-EventParameter" style="stroke: #A80036; stroke-width: 0.75;"/><polygon fill="#A80036" points="618.9375,213.936,615.9375,218.436,618.9375,222.936,621.9375,218.436,618.9375,213.936" style="stroke: #A80036; stroke-width: 0.75;"/><text fill="#000000" font-family="sans-serif" font-size="9.75" lengthAdjust="spacingAndGlyphs" textLength="6" x="611.683" y="260.9679">n</text><!--
@startuml
scale 0.75


skinparam defaultMonospacedFontName Andale Mono







  class ContractInterface << (R,orchid) Resource >> {
    + constructor : Maybe<Constructor>
    + fallback : Maybe<Fallback>
    + functions : Set<Function>
    + events : Set<Event>
    ..
    - {field} <&key> id: ID = [//to be completed <&warning>//]
  }

  ContractInterface o- - "n" ContractInterface

    class ConstructorInterface << (O,lawngreen) Data Object >> {
      + inputs : Array<Parameter>
      + stateMutability : StateMutability
    }

    class FallbackInterface << (O,lawngreen) Data Object >> {
      + stateMutability : StateMutability
    }

    class FunctionInterface << (O,lawngreen) Data Object >> {
      + name : String
      + inputs : Array<Parameter>
      + outputs : Array<Parameter>
      + stateMutability : StateMutability
    }

    class EventInterface << (O,lawngreen) Data Object >> {
      + name : String
      + inputs : Array<EventParameter>
      + anonymous : Boolean
    }

    ContractInterface *- - "0..1" ConstructorInterface
    ContractInterface *- - "0..1" FallbackInterface
    ContractInterface *- - "n" FunctionInterface
    ContractInterface *- - "n" EventInterface

    class Parameter << (O,lawngreen) Data Object >> {
      + name : String
      + type : Type
    }

    class EventParameter << (O,lawngreen) Data Object >> {
      + name : String
      + type : Type
      + indexed : Boolean
    }

    class StateMutability << (E,yellow) Enum >> {
      + pure
      + view
      + nonpayable
      + payable
    }

    ConstructorInterface *- - "n" Parameter
    ConstructorInterface *- - "1" StateMutability

    FallbackInterface *- - "1" StateMutability

    FunctionInterface *- - "n" Parameter
    FunctionInterface *- - "1" StateMutability

    EventInterface *- - "n" EventParameter
















































@enduml

PlantUML version 1.2018.14(Fri Dec 21 16:33:16 UTC 2018)
(GPL source distribution)
Java Runtime: Java(TM) SE Runtime Environment
JVM: Java HotSpot(TM) 64-Bit Server VM
Java Version: 1.8.0_151-b12
Operating System: Linux
OS Version: 4.4.0-101-generic
Default Encoding: UTF-8
Language: en
Country: US
--></g></svg>