<?xml version="1.0" encoding="UTF-8" standalone="no"?><svg xmlns="http://www.w3.org/2000/svg" xmlns:xlink="http://www.w3.org/1999/xlink" contentScriptType="application/ecmascript" contentStyleType="text/css" height="350.25px" preserveAspectRatio="none" style="width:706px;height:350px;" version="1.1" viewBox="0 0 706 350" width="706.5px" zoomAndPan="magnify"><defs><filter height="300%" id="f1szqy70d80fyl" width="300%" x="-1" y="-1"><feGaussianBlur result="blurOut" stdDeviation="1.5"/><feColorMatrix in="blurOut" result="blurOut2" type="matrix" values="0 0 0 0 0 0 0 0 0 0 0 0 0 0 0 0 0 0 .4 0"/><feOffset dx="3.0" dy="3.0" in="blurOut2" result="blurOut3"/><feBlend in="SourceGraphic" in2="blurOut3" mode="normal"/></filter></defs><g><!--class ContractInterface--><rect fill="#FEFECE" filter="url(#f1szqy70d80fyl)" height="88.4707" id="ContractInterface" style="stroke: #A80036; stroke-width: 1.125;" width="168" x="264.375" y="6"/><ellipse cx="303.9375" cy="20.2266" fill="#DA70D6" rx="8.25" ry="8.25" style="stroke: #A80036; stroke-width: 0.75;"/><path d="M304.8398,20.332 Q305.1094,20.3906 305.3086,20.6016 Q305.5195,20.8008 305.8125,21.3867 L307.4883,24.7266 L305.4727,24.7266 L304.3477,22.3828 Q304.3008,22.2773 304.2188,22.1016 Q303.7266,21.0586 303.0586,21.0586 L302.4727,21.0586 L302.4727,24.7266 L300.6445,24.7266 L300.6445,15.4336 L303.293,15.4336 Q305.0859,15.4336 305.8594,16.0664 Q306.6445,16.6992 306.6445,18.1289 Q306.6445,19.0898 306.1758,19.6641 Q305.7188,20.2266 304.8398,20.332 Z M302.4727,16.9805 L302.4727,19.5117 L303.3398,19.5117 Q304.1016,19.5117 304.418,19.2188 Q304.7461,18.9141 304.7461,18.2344 Q304.7461,17.5664 304.418,17.2734 Q304.1016,16.9805 303.3398,16.9805 L302.4727,16.9805 Z "/><text fill="#000000" font-family="sans-serif" font-size="9" font-style="italic" lengthAdjust="spacingAndGlyphs" textLength="54.75" x="333.1875" y="18.104">«Resource»</text><text fill="#000000" font-family="sans-serif" font-size="9" lengthAdjust="spacingAndGlyphs" textLength="82.5" x="319.3125" y="28.5806">ContractInterface</text><line style="stroke: #A80036; stroke-width: 1.125;" x1="265.125" x2="431.625" y1="34.4531" y2="34.4531"/><ellipse cx="272.625" cy="43.3799" fill="none" rx="2.25" ry="2.25" style="stroke: #038048; stroke-width: 0.75;"/><text fill="#000000" font-family="sans-serif" font-size="8.25" lengthAdjust="spacingAndGlyphs" textLength="148.5" x="279.375" y="45.111">constructor : Maybe&lt;Constructor&gt;</text><ellipse cx="272.625" cy="52.9834" fill="none" rx="2.25" ry="2.25" style="stroke: #038048; stroke-width: 0.75;"/><text fill="#000000" font-family="sans-serif" font-size="8.25" lengthAdjust="spacingAndGlyphs" textLength="115.5" x="279.375" y="54.7145">fallback : Maybe&lt;Fallback&gt;</text><ellipse cx="272.625" cy="62.5869" fill="none" rx="2.25" ry="2.25" style="stroke: #038048; stroke-width: 0.75;"/><text fill="#000000" font-family="sans-serif" font-size="8.25" lengthAdjust="spacingAndGlyphs" textLength="111" x="279.375" y="64.318">functions : Set&lt;Function&gt;</text><ellipse cx="272.625" cy="72.1904" fill="none" rx="2.25" ry="2.25" style="stroke: #038048; stroke-width: 0.75;"/><text fill="#000000" font-family="sans-serif" font-size="8.25" lengthAdjust="spacingAndGlyphs" textLength="88.5" x="279.375" y="73.9215">events : Set&lt;Event&gt;</text><line style="stroke: #A80036; stroke-width: 0.75; stroke-dasharray: 1.0,2.0;" x1="265.125" x2="431.625" y1="78.8672" y2="78.8672"/><rect fill="none" height="4.5" style="stroke: #C82930; stroke-width: 0.75;" width="4.5" x="270.375" y="85.5439"/><path d="M283.9063,83.9082 C282.9575,83.9082 282.1875,84.6782 282.1875,85.627 C282.1875,85.737 282.2102,85.8311 282.2308,85.9281 L280.125,88.0339 L280.125,89.4089 L282.1875,89.4089 L282.1875,88.0339 L283.5625,88.0339 L283.5625,87.3464 L283.6058,87.3031 C283.7021,87.3237 283.7963,87.3464 283.9069,87.3464 C284.8557,87.3464 285.6257,86.5764 285.6257,85.6276 C285.6257,84.6789 284.8557,83.9089 283.9069,83.9089 M284.2507,84.5964 C284.6288,84.5964 284.9382,84.9058 284.9382,85.2839 C284.9382,85.662 284.6288,85.9714 284.2507,85.9714 C283.8726,85.9714 283.5632,85.662 283.5632,85.2839 C283.5632,84.9058 283.8726,84.5964 284.2507,84.5964 " fill="#000000" style="stroke: ; stroke-width: 0.0; stroke-dasharray: ;"/><text fill="#000000" font-family="sans-serif" font-size="8.25" lengthAdjust="spacingAndGlyphs" textLength="37.5" x="289.375" y="89.525">id: ID = [</text><text fill="#000000" font-family="sans-serif" font-size="8.25" font-style="italic" lengthAdjust="spacingAndGlyphs" textLength="69" x="326.875" y="89.525">to be completed</text><path d="M401.7521,83.9082 C401.7109,83.9082 401.6799,83.9385 401.6662,83.9728 L399.6463,88.6568 L399.625,88.786 L399.625,89.345 C399.625,89.3862 399.6484,89.4096 399.6896,89.4096 L404.3736,89.4096 C404.4148,89.4096 404.4382,89.3862 404.4382,89.345 L404.4382,88.786 L404.4169,88.6568 L402.397,83.9728 C402.3833,83.9385 402.3523,83.9082 402.3111,83.9082 L401.7521,83.9082 M401.6875,85.9707 L402.375,85.9707 L402.375,87.3457 L401.6875,87.3457 L401.6875,85.9707 M401.6875,88.0332 L402.375,88.0332 L402.375,88.7207 L401.6875,88.7207 L401.6875,88.0332 " fill="#000000" style="stroke: ; stroke-width: 0.0; stroke-dasharray: ;"/><text fill="#000000" font-family="sans-serif" font-size="8.25" lengthAdjust="spacingAndGlyphs" textLength="3" x="405.875" y="89.525">]</text><!--class ConstructorInterface--><rect fill="#FEFECE" filter="url(#f1szqy70d80fyl)" height="59.6602" id="ConstructorInterface" style="stroke: #A80036; stroke-width: 1.125;" width="152.25" x="4.5" y="148.875"/><ellipse cx="29.5875" cy="163.1016" fill="#7CFC00" rx="8.25" ry="8.25" style="stroke: #A80036; stroke-width: 0.75;"/><path d="M29.6695,159.7852 Q28.9664,159.7852 28.6383,160.5352 Q28.3219,161.2852 28.3219,162.9609 Q28.3219,164.6367 28.6383,165.3867 Q28.9664,166.1367 29.6695,166.1367 Q30.3844,166.1367 30.7008,165.3867 Q31.0289,164.6367 31.0289,162.9609 Q31.0289,161.2852 30.7008,160.5352 Q30.3844,159.7852 29.6695,159.7852 Z M26.4117,162.9609 Q26.4117,160.582 27.232,159.3633 Q28.0641,158.1328 29.6695,158.1328 Q31.2867,158.1328 32.107,159.3633 Q32.9391,160.582 32.9391,162.9609 Q32.9391,165.3398 32.107,166.5586 Q31.2867,167.7773 29.6695,167.7773 Q28.0641,167.7773 27.232,166.5586 Q26.4117,165.3398 26.4117,162.9609 Z "/><text fill="#000000" font-family="sans-serif" font-size="9" font-style="italic" lengthAdjust="spacingAndGlyphs" textLength="66" x="58.9125" y="160.979">«Data Object»</text><text fill="#000000" font-family="sans-serif" font-size="9" lengthAdjust="spacingAndGlyphs" textLength="97.5" x="43.1625" y="171.4556">ConstructorInterface</text><line style="stroke: #A80036; stroke-width: 1.125;" x1="5.25" x2="156" y1="177.3281" y2="177.3281"/><ellipse cx="12.75" cy="186.2549" fill="none" rx="2.25" ry="2.25" style="stroke: #038048; stroke-width: 0.75;"/><text fill="#000000" font-family="sans-serif" font-size="8.25" lengthAdjust="spacingAndGlyphs" textLength="116.25" x="19.5" y="187.986">inputs : Array&lt;Parameter&gt;</text><ellipse cx="12.75" cy="195.8584" fill="none" rx="2.25" ry="2.25" style="stroke: #038048; stroke-width: 0.75;"/><text fill="#000000" font-family="sans-serif" font-size="8.25" lengthAdjust="spacingAndGlyphs" textLength="132.75" x="19.5" y="197.5895">stateMutability : StateMutability</text><line style="stroke: #A80036; stroke-width: 1.125;" x1="5.25" x2="156" y1="202.5352" y2="202.5352"/><!--class FallbackInterface--><rect fill="#FEFECE" filter="url(#f1szqy70d80fyl)" height="50.0566" id="FallbackInterface" style="stroke: #A80036; stroke-width: 1.125;" width="152.25" x="361.5" y="153.75"/><ellipse cx="394.35" cy="167.9766" fill="#7CFC00" rx="8.25" ry="8.25" style="stroke: #A80036; stroke-width: 0.75;"/><path d="M394.432,164.6602 Q393.7289,164.6602 393.4008,165.4102 Q393.0844,166.1602 393.0844,167.8359 Q393.0844,169.5117 393.4008,170.2617 Q393.7289,171.0117 394.432,171.0117 Q395.1469,171.0117 395.4633,170.2617 Q395.7914,169.5117 395.7914,167.8359 Q395.7914,166.1602 395.4633,165.4102 Q395.1469,164.6602 394.432,164.6602 Z M391.1742,167.8359 Q391.1742,165.457 391.9945,164.2383 Q392.8266,163.0078 394.432,163.0078 Q396.0492,163.0078 396.8695,164.2383 Q397.7016,165.457 397.7016,167.8359 Q397.7016,170.2148 396.8695,171.4336 Q396.0492,172.6523 394.432,172.6523 Q392.8266,172.6523 391.9945,171.4336 Q391.1742,170.2148 391.1742,167.8359 Z "/><text fill="#000000" font-family="sans-serif" font-size="9" font-style="italic" lengthAdjust="spacingAndGlyphs" textLength="66" x="416.775" y="165.854">«Data Object»</text><text fill="#000000" font-family="sans-serif" font-size="9" lengthAdjust="spacingAndGlyphs" textLength="80.25" x="409.65" y="176.3306">FallbackInterface</text><line style="stroke: #A80036; stroke-width: 1.125;" x1="362.25" x2="513" y1="182.2031" y2="182.2031"/><ellipse cx="369.75" cy="191.1299" fill="none" rx="2.25" ry="2.25" style="stroke: #038048; stroke-width: 0.75;"/><text fill="#000000" font-family="sans-serif" font-size="8.25" lengthAdjust="spacingAndGlyphs" textLength="132.75" x="376.5" y="192.861">stateMutability : StateMutability</text><line style="stroke: #A80036; stroke-width: 1.125;" x1="362.25" x2="513" y1="197.8066" y2="197.8066"/><!--class FunctionInterface--><rect fill="#FEFECE" filter="url(#f1szqy70d80fyl)" height="78.8672" id="FunctionInterface" style="stroke: #A80036; stroke-width: 1.125;" width="152.25" x="183" y="139.5"/><ellipse cx="214.8375" cy="153.7266" fill="#7CFC00" rx="8.25" ry="8.25" style="stroke: #A80036; stroke-width: 0.75;"/><path d="M214.9195,150.4102 Q214.2164,150.4102 213.8883,151.1602 Q213.5719,151.9102 213.5719,153.5859 Q213.5719,155.2617 213.8883,156.0117 Q214.2164,156.7617 214.9195,156.7617 Q215.6344,156.7617 215.9508,156.0117 Q216.2789,155.2617 216.2789,153.5859 Q216.2789,151.9102 215.9508,151.1602 Q215.6344,150.4102 214.9195,150.4102 Z M211.6617,153.5859 Q211.6617,151.207 212.482,149.9883 Q213.3141,148.7578 214.9195,148.7578 Q216.5367,148.7578 217.357,149.9883 Q218.1891,151.207 218.1891,153.5859 Q218.1891,155.9648 217.357,157.1836 Q216.5367,158.4023 214.9195,158.4023 Q213.3141,158.4023 212.482,157.1836 Q211.6617,155.9648 211.6617,153.5859 Z "/><text fill="#000000" font-family="sans-serif" font-size="9" font-style="italic" lengthAdjust="spacingAndGlyphs" textLength="66" x="238.1625" y="151.604">«Data Object»</text><text fill="#000000" font-family="sans-serif" font-size="9" lengthAdjust="spacingAndGlyphs" textLength="82.5" x="229.9125" y="162.0806">FunctionInterface</text><line style="stroke: #A80036; stroke-width: 1.125;" x1="183.75" x2="334.5" y1="167.9531" y2="167.9531"/><ellipse cx="191.25" cy="176.8799" fill="none" rx="2.25" ry="2.25" style="stroke: #038048; stroke-width: 0.75;"/><text fill="#000000" font-family="sans-serif" font-size="8.25" lengthAdjust="spacingAndGlyphs" textLength="58.5" x="198" y="178.611">name : String</text><ellipse cx="191.25" cy="186.4834" fill="none" rx="2.25" ry="2.25" style="stroke: #038048; stroke-width: 0.75;"/><text fill="#000000" font-family="sans-serif" font-size="8.25" lengthAdjust="spacingAndGlyphs" textLength="116.25" x="198" y="188.2145">inputs : Array&lt;Parameter&gt;</text><ellipse cx="191.25" cy="196.0869" fill="none" rx="2.25" ry="2.25" style="stroke: #038048; stroke-width: 0.75;"/><text fill="#000000" font-family="sans-serif" font-size="8.25" lengthAdjust="spacingAndGlyphs" textLength="122.25" x="198" y="197.818">outputs : Array&lt;Parameter&gt;</text><ellipse cx="191.25" cy="205.6904" fill="none" rx="2.25" ry="2.25" style="stroke: #038048; stroke-width: 0.75;"/><text fill="#000000" font-family="sans-serif" font-size="8.25" lengthAdjust="spacingAndGlyphs" textLength="132.75" x="198" y="207.4215">stateMutability : StateMutability</text><line style="stroke: #A80036; stroke-width: 1.125;" x1="183.75" x2="334.5" y1="212.3672" y2="212.3672"/><!--class EventInterface--><rect fill="#FEFECE" filter="url(#f1szqy70d80fyl)" height="69.2637" id="EventInterface" style="stroke: #A80036; stroke-width: 1.125;" width="159" x="539.625" y="144.375"/><ellipse cx="581.8125" cy="158.6016" fill="#7CFC00" rx="8.25" ry="8.25" style="stroke: #A80036; stroke-width: 0.75;"/><path d="M581.8945,155.2852 Q581.1914,155.2852 580.8633,156.0352 Q580.5469,156.7852 580.5469,158.4609 Q580.5469,160.1367 580.8633,160.8867 Q581.1914,161.6367 581.8945,161.6367 Q582.6094,161.6367 582.9258,160.8867 Q583.2539,160.1367 583.2539,158.4609 Q583.2539,156.7852 582.9258,156.0352 Q582.6094,155.2852 581.8945,155.2852 Z M578.6367,158.4609 Q578.6367,156.082 579.457,154.8633 Q580.2891,153.6328 581.8945,153.6328 Q583.5117,153.6328 584.332,154.8633 Q585.1641,156.082 585.1641,158.4609 Q585.1641,160.8398 584.332,162.0586 Q583.5117,163.2773 581.8945,163.2773 Q580.2891,163.2773 579.457,162.0586 Q578.6367,160.8398 578.6367,158.4609 Z "/><text fill="#000000" font-family="sans-serif" font-size="9" font-style="italic" lengthAdjust="spacingAndGlyphs" textLength="66" x="598.3125" y="156.479">«Data Object»</text><text fill="#000000" font-family="sans-serif" font-size="9" lengthAdjust="spacingAndGlyphs" textLength="68.25" x="597.1875" y="166.9556">EventInterface</text><line style="stroke: #A80036; stroke-width: 1.125;" x1="540.375" x2="697.875" y1="172.8281" y2="172.8281"/><ellipse cx="547.875" cy="181.7549" fill="none" rx="2.25" ry="2.25" style="stroke: #038048; stroke-width: 0.75;"/><text fill="#000000" font-family="sans-serif" font-size="8.25" lengthAdjust="spacingAndGlyphs" textLength="58.5" x="554.625" y="183.486">name : String</text><ellipse cx="547.875" cy="191.3584" fill="none" rx="2.25" ry="2.25" style="stroke: #038048; stroke-width: 0.75;"/><text fill="#000000" font-family="sans-serif" font-size="8.25" lengthAdjust="spacingAndGlyphs" textLength="139.5" x="554.625" y="193.0895">inputs : Array&lt;EventParameter&gt;</text><ellipse cx="547.875" cy="200.9619" fill="none" rx="2.25" ry="2.25" style="stroke: #038048; stroke-width: 0.75;"/><text fill="#000000" font-family="sans-serif" font-size="8.25" lengthAdjust="spacingAndGlyphs" textLength="93" x="554.625" y="202.693">anonymous : Boolean</text><line style="stroke: #A80036; stroke-width: 1.125;" x1="540.375" x2="697.875" y1="207.6387" y2="207.6387"/><!--class Parameter--><rect fill="#FEFECE" filter="url(#f1szqy70d80fyl)" height="59.6602" id="Parameter" style="stroke: #A80036; stroke-width: 1.125;" width="87" x="67.875" y="272.625"/><ellipse cx="79.125" cy="286.8516" fill="#7CFC00" rx="8.25" ry="8.25" style="stroke: #A80036; stroke-width: 0.75;"/><path d="M79.207,283.5352 Q78.5039,283.5352 78.1758,284.2852 Q77.8594,285.0352 77.8594,286.7109 Q77.8594,288.3867 78.1758,289.1367 Q78.5039,289.8867 79.207,289.8867 Q79.9219,289.8867 80.2383,289.1367 Q80.5664,288.3867 80.5664,286.7109 Q80.5664,285.0352 80.2383,284.2852 Q79.9219,283.5352 79.207,283.5352 Z M75.9492,286.7109 Q75.9492,284.332 76.7695,283.1133 Q77.6016,281.8828 79.207,281.8828 Q80.8242,281.8828 81.6445,283.1133 Q82.4766,284.332 82.4766,286.7109 Q82.4766,289.0898 81.6445,290.3086 Q80.8242,291.5273 79.207,291.5273 Q77.6016,291.5273 76.7695,290.3086 Q75.9492,289.0898 75.9492,286.7109 Z "/><text fill="#000000" font-family="sans-serif" font-size="9" font-style="italic" lengthAdjust="spacingAndGlyphs" textLength="66" x="88.125" y="284.729">«Data Object»</text><text fill="#000000" font-family="sans-serif" font-size="9" lengthAdjust="spacingAndGlyphs" textLength="49.5" x="96.375" y="295.2056">Parameter</text><line style="stroke: #A80036; stroke-width: 1.125;" x1="68.625" x2="154.125" y1="301.0781" y2="301.0781"/><ellipse cx="76.125" cy="310.0049" fill="none" rx="2.25" ry="2.25" style="stroke: #038048; stroke-width: 0.75;"/><text fill="#000000" font-family="sans-serif" font-size="8.25" lengthAdjust="spacingAndGlyphs" textLength="58.5" x="82.875" y="311.736">name : String</text><ellipse cx="76.125" cy="319.6084" fill="none" rx="2.25" ry="2.25" style="stroke: #038048; stroke-width: 0.75;"/><text fill="#000000" font-family="sans-serif" font-size="8.25" lengthAdjust="spacingAndGlyphs" textLength="47.25" x="82.875" y="321.3395">type : Type</text><line style="stroke: #A80036; stroke-width: 1.125;" x1="68.625" x2="154.125" y1="326.2852" y2="326.2852"/><!--class EventParameter--><rect fill="#FEFECE" filter="url(#f1szqy70d80fyl)" height="69.2637" id="EventParameter" style="stroke: #A80036; stroke-width: 1.125;" width="99.75" x="569.25" y="268.125"/><ellipse cx="580.5" cy="282.3516" fill="#7CFC00" rx="8.25" ry="8.25" style="stroke: #A80036; stroke-width: 0.75;"/><path d="M580.582,279.0352 Q579.8789,279.0352 579.5508,279.7852 Q579.2344,280.5352 579.2344,282.2109 Q579.2344,283.8867 579.5508,284.6367 Q579.8789,285.3867 580.582,285.3867 Q581.2969,285.3867 581.6133,284.6367 Q581.9414,283.8867 581.9414,282.2109 Q581.9414,280.5352 581.6133,279.7852 Q581.2969,279.0352 580.582,279.0352 Z M577.3242,282.2109 Q577.3242,279.832 578.1445,278.6133 Q578.9766,277.3828 580.582,277.3828 Q582.1992,277.3828 583.0195,278.6133 Q583.8516,279.832 583.8516,282.2109 Q583.8516,284.5898 583.0195,285.8086 Q582.1992,287.0273 580.582,287.0273 Q578.9766,287.0273 578.1445,285.8086 Q577.3242,284.5898 577.3242,282.2109 Z "/><text fill="#000000" font-family="sans-serif" font-size="9" font-style="italic" lengthAdjust="spacingAndGlyphs" textLength="66" x="595.875" y="280.229">«Data Object»</text><text fill="#000000" font-family="sans-serif" font-size="9" lengthAdjust="spacingAndGlyphs" textLength="75.75" x="591" y="290.7056">EventParameter</text><line style="stroke: #A80036; stroke-width: 1.125;" x1="570" x2="668.25" y1="296.5781" y2="296.5781"/><ellipse cx="577.5" cy="305.5049" fill="none" rx="2.25" ry="2.25" style="stroke: #038048; stroke-width: 0.75;"/><text fill="#000000" font-family="sans-serif" font-size="8.25" lengthAdjust="spacingAndGlyphs" textLength="58.5" x="584.25" y="307.236">name : String</text><ellipse cx="577.5" cy="315.1084" fill="none" rx="2.25" ry="2.25" style="stroke: #038048; stroke-width: 0.75;"/><text fill="#000000" font-family="sans-serif" font-size="8.25" lengthAdjust="spacingAndGlyphs" textLength="47.25" x="584.25" y="316.8395">type : Type</text><ellipse cx="577.5" cy="324.7119" fill="none" rx="2.25" ry="2.25" style="stroke: #038048; stroke-width: 0.75;"/><text fill="#000000" font-family="sans-serif" font-size="8.25" lengthAdjust="spacingAndGlyphs" textLength="76.5" x="584.25" y="326.443">indexed : Boolean</text><line style="stroke: #A80036; stroke-width: 1.125;" x1="570" x2="668.25" y1="331.3887" y2="331.3887"/><!--class StateMutability--><rect fill="#FEFECE" filter="url(#f1szqy70d80fyl)" height="78.8672" id="StateMutability" style="stroke: #A80036; stroke-width: 1.125;" width="93.75" x="212.25" y="263.25"/><ellipse cx="223.5" cy="277.4766" fill="#FFFF00" rx="8.25" ry="8.25" style="stroke: #A80036; stroke-width: 0.75;"/><path d="M226.582,281.9766 L220.793,281.9766 L220.793,272.6836 L226.582,272.6836 L226.582,274.3008 L222.6328,274.3008 L222.6328,276.3047 L226.207,276.3047 L226.207,277.9219 L222.6328,277.9219 L222.6328,280.3594 L226.582,280.3594 L226.582,281.9766 Z "/><text fill="#000000" font-family="sans-serif" font-size="9" font-style="italic" lengthAdjust="spacingAndGlyphs" textLength="36.75" x="250.5" y="275.354">«Enum»</text><text fill="#000000" font-family="sans-serif" font-size="9" lengthAdjust="spacingAndGlyphs" textLength="69.75" x="234" y="285.8306">StateMutability</text><line style="stroke: #A80036; stroke-width: 1.125;" x1="213" x2="305.25" y1="291.7031" y2="291.7031"/><ellipse cx="220.5" cy="300.6299" fill="none" rx="2.25" ry="2.25" style="stroke: #038048; stroke-width: 0.75;"/><text fill="#000000" font-family="sans-serif" font-size="8.25" lengthAdjust="spacingAndGlyphs" textLength="19.5" x="227.25" y="302.361">pure</text><ellipse cx="220.5" cy="310.2334" fill="none" rx="2.25" ry="2.25" style="stroke: #038048; stroke-width: 0.75;"/><text fill="#000000" font-family="sans-serif" font-size="8.25" lengthAdjust="spacingAndGlyphs" textLength="18.75" x="227.25" y="311.9645">view</text><ellipse cx="220.5" cy="319.8369" fill="none" rx="2.25" ry="2.25" style="stroke: #038048; stroke-width: 0.75;"/><text fill="#000000" font-family="sans-serif" font-size="8.25" lengthAdjust="spacingAndGlyphs" textLength="48.75" x="227.25" y="321.568">nonpayable</text><ellipse cx="220.5" cy="329.4404" fill="none" rx="2.25" ry="2.25" style="stroke: #038048; stroke-width: 0.75;"/><text fill="#000000" font-family="sans-serif" font-size="8.25" lengthAdjust="spacingAndGlyphs" textLength="33" x="227.25" y="331.1715">payable</text><line style="stroke: #A80036; stroke-width: 1.125;" x1="213" x2="305.25" y1="336.1172" y2="336.1172"/><!--link ContractInterface to ContractInterface--><path d="M442.1565,30.3203 C452.1817,34.1693 458.625,40.8127 458.625,50.25 C458.625,62.4525 447.8543,69.9832 432.4965,72.843 " fill="none" id="ContractInterface-ContractInterface" style="stroke: #A80036; stroke-width: 0.75;"/><polygon fill="#FFFFFF" points="432.4965,27.657,436.0371,31.7453,441.1727,30.0496,437.6321,25.9612,432.4965,27.657" style="stroke: #A80036; stroke-width: 0.75;"/><text fill="#000000" font-family="sans-serif" font-size="9.75" lengthAdjust="spacingAndGlyphs" textLength="6" x="438.35" y="71.7875">n</text><!--link ContractInterface to ConstructorInterface--><path d="M255.1328,95.2702 C217.7573,113.016 175.7138,132.978 142.2615,148.8608 " fill="none" id="ContractInterface-ConstructorInterface" style="stroke: #A80036; stroke-width: 0.75;"/><polygon fill="#A80036" points="264.0248,91.0485,258.6729,90.2686,255.8947,94.9088,261.2465,95.6887,264.0248,91.0485" style="stroke: #A80036; stroke-width: 0.75;"/><text fill="#000000" font-family="sans-serif" font-size="9.75" lengthAdjust="spacingAndGlyphs" textLength="18" x="133.3084" y="140.5732">0..1</text><!--link ContractInterface to FallbackInterface--><path d="M384.852,102.9562 C397.1475,120.4703 410.2972,139.2008 420.3953,153.5835 " fill="none" id="ContractInterface-FallbackInterface" style="stroke: #A80036; stroke-width: 0.75;"/><polygon fill="#A80036" points="379.0898,94.749,379.2196,100.1558,384.2605,102.1154,384.1306,96.7086,379.0898,94.749" style="stroke: #A80036; stroke-width: 0.75;"/><text fill="#000000" font-family="sans-serif" font-size="9.75" lengthAdjust="spacingAndGlyphs" textLength="18" x="397.3952" y="145.5181">0..1</text><!--link ContractInterface to FunctionInterface--><path d="M311.8335,103.0485 C303.3,115.2038 294.3585,127.9395 286.314,139.398 " fill="none" id="ContractInterface-FunctionInterface" style="stroke: #A80036; stroke-width: 0.75;"/><polygon fill="#A80036" points="317.6603,94.749,312.6194,96.7086,312.4895,102.1154,317.5304,100.1558,317.6603,94.749" style="stroke: #A80036; stroke-width: 0.75;"/><text fill="#000000" font-family="sans-serif" font-size="9.75" lengthAdjust="spacingAndGlyphs" textLength="6" x="283.5644" y="131.1364">n</text><!--link ContractInterface to EventInterface--><path d="M441.4838,94.7175 C476.046,110.9453 514.6943,129.0915 547.0928,144.3037 " fill="none" id="ContractInterface-EventInterface" style="stroke: #A80036; stroke-width: 0.75;"/><polygon fill="#A80036" points="432.558,90.5265,435.3563,95.1546,440.7047,94.3516,437.9064,89.7235,432.558,90.5265" style="stroke: #A80036; stroke-width: 0.75;"/><text fill="#000000" font-family="sans-serif" font-size="9.75" lengthAdjust="spacingAndGlyphs" textLength="6" x="530.0724" y="136.188">n</text><!--link ConstructorInterface to Parameter--><path d="M90.4223,218.5755 C94.8293,236.0962 99.9443,256.4295 104.0168,272.6204 " fill="none" id="ConstructorInterface-Parameter" style="stroke: #A80036; stroke-width: 0.75;"/><polygon fill="#A80036" points="87.9907,208.9073,86.1792,214.0032,90.1864,217.6353,91.9979,212.5394,87.9907,208.9073" style="stroke: #A80036; stroke-width: 0.75;"/><text fill="#000000" font-family="sans-serif" font-size="9.75" lengthAdjust="spacingAndGlyphs" textLength="6" x="96.2364" y="264.3346">n</text><!--link ConstructorInterface to StateMutability--><path d="M131.7428,214.6342 C157.014,231.942 187.3095,252.69 212.0138,269.6097 " fill="none" id="ConstructorInterface-StateMutability" style="stroke: #A80036; stroke-width: 0.75;"/><polygon fill="#A80036" points="123.3803,208.9073,125.3978,213.9252,130.8057,213.9927,128.7882,208.9748,123.3803,208.9073" style="stroke: #A80036; stroke-width: 0.75;"/><text fill="#000000" font-family="sans-serif" font-size="9.75" lengthAdjust="spacingAndGlyphs" textLength="6" x="200.2196" y="262.9414">1</text><!--link FallbackInterface to StateMutability--><path d="M393.5948,209.7803 C367.0778,227.9415 333.3225,251.0588 306.2663,269.5891 " fill="none" id="FallbackInterface-StateMutability" style="stroke: #A80036; stroke-width: 0.75;"/><polygon fill="#A80036" points="401.9317,204.0705,396.5238,204.1384,394.5066,209.1564,399.9145,209.0885,401.9317,204.0705" style="stroke: #A80036; stroke-width: 0.75;"/><text fill="#000000" font-family="sans-serif" font-size="9.75" lengthAdjust="spacingAndGlyphs" textLength="6" x="312.0638" y="262.918">1</text><!--link FunctionInterface to Parameter--><path d="M204.7867,224.5853 C185.4383,240.594 164.1645,258.1965 146.8118,272.5542 " fill="none" id="FunctionInterface-Parameter" style="stroke: #A80036; stroke-width: 0.75;"/><polygon fill="#A80036" points="212.376,218.3055,206.9965,218.8633,205.4424,224.0435,210.8218,223.4857,212.376,218.3055" style="stroke: #A80036; stroke-width: 0.75;"/><text fill="#000000" font-family="sans-serif" font-size="9.75" lengthAdjust="spacingAndGlyphs" textLength="6" x="146.3868" y="264.2573">n</text><!--link FunctionInterface to StateMutability--><path d="M259.125,228.303 C259.125,239.9123 259.125,252.1478 259.125,263.2365 " fill="none" id="FunctionInterface-StateMutability" style="stroke: #A80036; stroke-width: 0.75;"/><polygon fill="#A80036" points="259.125,218.3055,256.125,222.8055,259.125,227.3055,262.125,222.8055,259.125,218.3055" style="stroke: #A80036; stroke-width: 0.75;"/><text fill="#000000" font-family="sans-serif" font-size="9.75" lengthAdjust="spacingAndGlyphs" textLength="6" x="252.7219" y="254.9868">1</text><!--link EventInterface to EventParameter--><path d="M619.125,223.5375 C619.125,238.176 619.125,254.2478 619.125,268.0042 " fill="none" id="EventInterface-EventParameter" style="stroke: #A80036; stroke-width: 0.75;"/><polygon fill="#A80036" points="619.125,213.6787,616.125,218.1787,619.125,222.6787,622.125,218.1787,619.125,213.6787" style="stroke: #A80036; stroke-width: 0.75;"/><text fill="#000000" font-family="sans-serif" font-size="9.75" lengthAdjust="spacingAndGlyphs" textLength="6" x="612.6844" y="259.8813">n</text><!--
@startuml
scale 0.75


skinparam defaultMonospacedFontName Andale Mono





  class ContractInterface << (R,orchid) Resource >> {
    + constructor : Maybe<Constructor>
    + fallback : Maybe<Fallback>
    + functions : Set<Function>
    + events : Set<Event>
    ..
    - {field} <&key> id: ID = [//to be completed <&warning>//]
  }

  ContractInterface o- - "n" ContractInterface

    class ConstructorInterface << (O,lawngreen) Data Object >> {
      + inputs : Array<Parameter>
      + stateMutability : StateMutability
    }

    class FallbackInterface << (O,lawngreen) Data Object >> {
      + stateMutability : StateMutability
    }

    class FunctionInterface << (O,lawngreen) Data Object >> {
      + name : String
      + inputs : Array<Parameter>
      + outputs : Array<Parameter>
      + stateMutability : StateMutability
    }

    class EventInterface << (O,lawngreen) Data Object >> {
      + name : String
      + inputs : Array<EventParameter>
      + anonymous : Boolean
    }

    ContractInterface *- - "0..1" ConstructorInterface
    ContractInterface *- - "0..1" FallbackInterface
    ContractInterface *- - "n" FunctionInterface
    ContractInterface *- - "n" EventInterface

    class Parameter << (O,lawngreen) Data Object >> {
      + name : String
      + type : Type
    }

    class EventParameter << (O,lawngreen) Data Object >> {
      + name : String
      + type : Type
      + indexed : Boolean
    }

    class StateMutability << (E,yellow) Enum >> {
      + pure
      + view
      + nonpayable
      + payable
    }

    ConstructorInterface *- - "n" Parameter
    ConstructorInterface *- - "1" StateMutability

    FallbackInterface *- - "1" StateMutability

    FunctionInterface *- - "n" Parameter
    FunctionInterface *- - "1" StateMutability

    EventInterface *- - "n" EventParameter
















































@enduml

PlantUML version 1.2018.14(Fri Dec 21 16:33:16 UTC 2018)
(GPL source distribution)
Java Runtime: OpenJDK Runtime Environment
JVM: OpenJDK 64-Bit Server VM
Java Version: 11.0.2+9
Operating System: Linux
OS Version: 4.15.0-1028-gcp
Default Encoding: UTF-8
Language: en
Country: US
--></g></svg>