<?xml version="1.0" encoding="UTF-8" standalone="no"?><svg xmlns="http://www.w3.org/2000/svg" xmlns:xlink="http://www.w3.org/1999/xlink" contentScriptType="application/ecmascript" contentStyleType="text/css" height="236px" preserveAspectRatio="none" style="width:450px;height:236px;" version="1.1" viewBox="0 0 450 236" width="450px" zoomAndPan="magnify"><defs><filter height="300%" id="fn1hmpjexmffm" width="300%" x="-1" y="-1"><feGaussianBlur result="blurOut" stdDeviation="2.0"/><feColorMatrix in="blurOut" result="blurOut2" type="matrix" values="0 0 0 0 0 0 0 0 0 0 0 0 0 0 0 0 0 0 .4 0"/><feOffset dx="4.0" dy="4.0" in="blurOut2" result="blurOut3"/><feBlend in="SourceGraphic" in2="blurOut3" mode="normal"/></filter></defs><g><!--entity Config--><rect fill="#FEFECE" filter="url(#fn1hmpjexmffm)" height="36.2969" style="stroke: #A80036; stroke-width: 1.5;" width="64" x="79.5" y="8"/><rect fill="#FEFECE" height="5" style="stroke: #A80036; stroke-width: 1.5;" width="10" x="74.5" y="13"/><rect fill="#FEFECE" height="5" style="stroke: #A80036; stroke-width: 1.5;" width="10" x="74.5" y="34.2969"/><text fill="#000000" font-family="sans-serif" font-size="14" lengthAdjust="spacingAndGlyphs" textLength="44" x="89.5" y="30.9951">Config</text><!--entity Artifactor--><ellipse cx="77.5" cy="116.5" fill="#FEFECE" filter="url(#fn1hmpjexmffm)" rx="8" ry="8" style="stroke: #A80036; stroke-width: 2.0;"/><text fill="#000000" font-family="sans-serif" font-size="14" lengthAdjust="spacingAndGlyphs" textLength="61" x="47" y="146.4951">Artifactor</text><!--entity Resolver--><ellipse cx="145.5" cy="116.5" fill="#FEFECE" filter="url(#fn1hmpjexmffm)" rx="8" ry="8" style="stroke: #A80036; stroke-width: 2.0;"/><text fill="#000000" font-family="sans-serif" font-size="14" lengthAdjust="spacingAndGlyphs" textLength="60" x="115.5" y="146.4951">Resolver</text><path d="M204.5,104 L204.5,112.5 L154.781,116.5 L204.5,120.5 L204.5,129.1328 A0,0 0 0 0 204.5,129.1328 L438.5,129.1328 A0,0 0 0 0 438.5,129.1328 L438.5,114 L428.5,104 L204.5,104 A0,0 0 0 0 204.5,104 " fill="#FBFB77" filter="url(#fn1hmpjexmffm)" style="stroke: #A80036; stroke-width: 1.0;"/><path d="M428.5,104 L428.5,114 L438.5,114 L428.5,104 " fill="#FBFB77" style="stroke: #A80036; stroke-width: 1.0;"/><text fill="#000000" font-family="sans-serif" font-size="13" lengthAdjust="spacingAndGlyphs" textLength="87" x="210.5" y="121.0669">these refer to</text><text fill="#000000" font-family="monospace" font-size="13" lengthAdjust="spacingAndGlyphs" textLength="72" x="301.5" y="121.0669">interface</text><text fill="#000000" font-family="sans-serif" font-size="13" lengthAdjust="spacingAndGlyphs" textLength="50" x="373.5" y="121.0669">s above</text><!--entity BaseArtifactor--><rect fill="#FEFECE" filter="url(#fn1hmpjexmffm)" height="36.2969" style="stroke: #A80036; stroke-width: 1.5;" width="81" x="6" y="189"/><rect fill="#FEFECE" height="5" style="stroke: #A80036; stroke-width: 1.5;" width="10" x="1" y="194"/><rect fill="#FEFECE" height="5" style="stroke: #A80036; stroke-width: 1.5;" width="10" x="1" y="215.2969"/><text fill="#000000" font-family="sans-serif" font-size="14" lengthAdjust="spacingAndGlyphs" textLength="61" x="16" y="211.9951">Artifactor</text><!--entity BaseResolver--><rect fill="#FEFECE" filter="url(#fn1hmpjexmffm)" height="36.2969" style="stroke: #A80036; stroke-width: 1.5;" width="80" x="137.5" y="189"/><rect fill="#FEFECE" height="5" style="stroke: #A80036; stroke-width: 1.5;" width="10" x="132.5" y="194"/><rect fill="#FEFECE" height="5" style="stroke: #A80036; stroke-width: 1.5;" width="10" x="132.5" y="215.2969"/><text fill="#000000" font-family="sans-serif" font-size="14" lengthAdjust="spacingAndGlyphs" textLength="60" x="147.5" y="211.9951">Resolver</text><!--link Artifactor to Resolver--><!--link Config to Artifactor--><path d="M104.9445,44.064 C97.6888,62.95 86.2889,92.623 80.7447,107.054 " fill="none" id="Config-Artifactor" style="stroke: #A80036; stroke-width: 1.0; stroke-dasharray: 7.0,7.0;"/><!--link Config to Resolver--><path d="M118.056,44.064 C125.311,62.95 136.711,92.623 142.255,107.054 " fill="none" id="Config-Resolver" style="stroke: #A80036; stroke-width: 1.0; stroke-dasharray: 7.0,7.0;"/><!--link Artifactor to BaseArtifactor--><path d="M74.6392,125.6672 C69.6329,139.9594 59.1835,169.7905 52.5231,188.8051 " fill="none" id="Artifactor-BaseArtifactor" style="stroke: #A80036; stroke-width: 1.0;"/><!--link Resolver to BaseResolver--><path d="M148.453,125.6672 C153.621,139.9594 164.407,169.7905 171.283,188.8051 " fill="none" id="Resolver-BaseResolver" style="stroke: #A80036; stroke-width: 1.0;"/><!--
@startuml
skinparam nodesep 50

component Config
() Artifactor
() Resolver

Artifactor -[hidden]right-> Resolver

note as N1
   these refer to ""interface""s above
end note

Resolver .right. N1

Config .down. Artifactor
Config .down. Resolver

component "Artifactor" as BaseArtifactor
component "Resolver" as BaseResolver

BaseArtifactor -up- Artifactor
BaseResolver -up- Resolver

@enduml

PlantUML version 1.2018.14(Fri Dec 21 16:33:16 UTC 2018)
(GPL source distribution)
Java Runtime: OpenJDK Runtime Environment
JVM: OpenJDK 64-Bit Server VM
Java Version: 11.0.2+9
Operating System: Linux
OS Version: 4.15.0-1028-gcp
Default Encoding: UTF-8
Language: en
Country: US
--></g></svg>