<?xml version="1.0" encoding="UTF-8" standalone="no"?><svg xmlns="http://www.w3.org/2000/svg" xmlns:xlink="http://www.w3.org/1999/xlink" contentScriptType="application/ecmascript" contentStyleType="text/css" height="122px" preserveAspectRatio="none" style="width:595px;height:122px;" version="1.1" viewBox="0 0 595 122" width="595px" zoomAndPan="magnify"><defs><filter height="300%" id="f4mttd1qcjeyt" width="300%" x="-1" y="-1"><feGaussianBlur result="blurOut" stdDeviation="2.0"/><feColorMatrix in="blurOut" result="blurOut2" type="matrix" values="0 0 0 0 0 0 0 0 0 0 0 0 0 0 0 0 0 0 .4 0"/><feOffset dx="4.0" dy="4.0" in="blurOut2" result="blurOut3"/><feBlend in="SourceGraphic" in2="blurOut3" mode="normal"/></filter></defs><g><!--entity User--><ellipse cx="22" cy="26" fill="#FEFECE" filter="url(#f4mttd1qcjeyt)" rx="8" ry="8" style="stroke: #A80036; stroke-width: 2.0;"/><path d="M22,34 L22,61 M9,42 L35,42 M22,61 L9,76 M22,61 L35,76 " fill="none" filter="url(#f4mttd1qcjeyt)" style="stroke: #A80036; stroke-width: 2.0;"/><text fill="#000000" font-family="sans-serif" font-size="14" lengthAdjust="spacingAndGlyphs" textLength="32" x="6" y="95.9951">User</text><ellipse cx="232.2548" cy="57.5236" fill="#FEFECE" filter="url(#f4mttd1qcjeyt)" rx="48.2548" ry="14.5236" style="stroke: #A80036; stroke-width: 1.5;"/><text fill="#000000" font-family="sans-serif" font-size="14" lengthAdjust="spacingAndGlyphs" textLength="64" x="200.2548" y="62.1721">Use case</text><ellipse cx="497.4117" cy="22.5236" fill="#FEFECE" filter="url(#f4mttd1qcjeyt)" rx="53.9117" ry="14.5236" style="stroke: #A80036; stroke-width: 1.5;"/><text fill="#000000" font-family="sans-serif" font-size="14" lengthAdjust="spacingAndGlyphs" textLength="72" x="461.4117" y="27.1721">Base case</text><ellipse cx="497.5998" cy="91.72" fill="#FEFECE" filter="url(#f4mttd1qcjeyt)" rx="86.5998" ry="19.72" style="stroke: #A80036; stroke-width: 1.5;"/><text fill="#000000" font-family="sans-serif" font-size="14" lengthAdjust="spacingAndGlyphs" textLength="146" x="424.5998" y="96.3684">Dependent use case</text><!--link User to UseCase--><path d="M38.3315,57.5 C68.6137,57.5 137.209,57.5 183.95,57.5 " fill="none" id="User-UseCase" style="stroke: #A80036; stroke-width: 1.0;"/><text fill="#000000" font-family="sans-serif" font-size="13" lengthAdjust="spacingAndGlyphs" textLength="84" x="69" y="53.5669">«interaction»</text><!--link UseCase to BaseCase--><path d="M277.224,51.6812 C318.449,46.195 380.854,37.8901 428.563,31.5411 " fill="none" id="UseCase-BaseCase" style="stroke: #A80036; stroke-width: 1.0; stroke-dasharray: 7.0,7.0;"/><polygon fill="none" points="427.912,24.5661,448.661,28.8665,429.759,38.4437,427.912,24.5661" style="stroke: #A80036; stroke-width: 1.0;"/><text fill="#000000" font-family="sans-serif" font-size="13" lengthAdjust="spacingAndGlyphs" textLength="67" x="312.5" y="34.5669">«extends»</text><!--link UseCase to Dependent--><path d="M262.84,68.9845 C277.141,74.0576 294.727,79.5344 311,82.5 C341.585,88.0738 375.447,90.7257 405.777,91.866 " fill="none" id="UseCase-Dependent" style="stroke: #A80036; stroke-width: 1.0;"/><polygon fill="#A80036" points="411.004,92.049,402.1501,87.7352,406.0071,91.8733,401.869,95.7302,411.004,92.049" style="stroke: #A80036; stroke-width: 1.0;"/><text fill="#000000" font-family="sans-serif" font-size="13" lengthAdjust="spacingAndGlyphs" textLength="68" x="312" y="78.5669">«includes»</text><!--
@startuml
left to right direction

:User:

(Use case) as (UseCase)
(Base case) as (BaseCase)
(Dependent use case) as (Dependent)

User - - UseCase : << interaction >>
UseCase ..|> BaseCase : << extends >>
UseCase - -> Dependent : << includes >>

@enduml

PlantUML version 1.2018.14(Fri Dec 21 16:33:16 UTC 2018)
(GPL source distribution)
Java Runtime: OpenJDK Runtime Environment
JVM: OpenJDK 64-Bit Server VM
Java Version: 11.0.2+9
Operating System: Linux
OS Version: 4.15.0-1077-gcp
Default Encoding: UTF-8
Language: en
Country: US
--></g></svg>