<?xml version="1.0" encoding="UTF-8" standalone="no"?><svg xmlns="http://www.w3.org/2000/svg" xmlns:xlink="http://www.w3.org/1999/xlink" contentScriptType="application/ecmascript" contentStyleType="text/css" height="237px" preserveAspectRatio="none" style="width:466px;height:237px;" version="1.1" viewBox="0 0 466 237" width="466px" zoomAndPan="magnify"><defs><filter height="300%" id="fn1hmpjexmffm" width="300%" x="-1" y="-1"><feGaussianBlur result="blurOut" stdDeviation="2.0"/><feColorMatrix in="blurOut" result="blurOut2" type="matrix" values="0 0 0 0 0 0 0 0 0 0 0 0 0 0 0 0 0 0 .4 0"/><feOffset dx="4.0" dy="4.0" in="blurOut2" result="blurOut3"/><feBlend in="SourceGraphic" in2="blurOut3" mode="normal"/></filter></defs><g><!--entity Config--><rect fill="#FEFECE" filter="url(#fn1hmpjexmffm)" height="36.2969" style="stroke: #A80036; stroke-width: 1.5;" width="64" x="87.25" y="8"/><rect fill="#FEFECE" height="5" style="stroke: #A80036; stroke-width: 1.5;" width="10" x="82.25" y="13"/><rect fill="#FEFECE" height="5" style="stroke: #A80036; stroke-width: 1.5;" width="10" x="82.25" y="34.2969"/><text fill="#000000" font-family="sans-serif" font-size="14" lengthAdjust="spacingAndGlyphs" textLength="44" x="97.25" y="30.9951">Config</text><!--entity Artifactor--><ellipse cx="77.25" cy="117" fill="#FEFECE" filter="url(#fn1hmpjexmffm)" rx="8" ry="8" style="stroke: #A80036; stroke-width: 2.0;"/><text fill="#000000" font-family="sans-serif" font-size="14" lengthAdjust="spacingAndGlyphs" textLength="61" x="46.75" y="146.9951">Artifactor</text><!--entity Resolver--><ellipse cx="161.25" cy="117" fill="#FEFECE" filter="url(#fn1hmpjexmffm)" rx="8" ry="8" style="stroke: #A80036; stroke-width: 2.0;"/><text fill="#000000" font-family="sans-serif" font-size="14" lengthAdjust="spacingAndGlyphs" textLength="60" x="131.25" y="146.9951">Resolver</text><path d="M220.25,104.5 L220.25,113 L170.531,117 L220.25,121 L220.25,129.6328 A0,0 0 0 0 220.25,129.6328 L454.25,129.6328 A0,0 0 0 0 454.25,129.6328 L454.25,114.5 L444.25,104.5 L220.25,104.5 A0,0 0 0 0 220.25,104.5 " fill="#FBFB77" filter="url(#fn1hmpjexmffm)" style="stroke: #A80036; stroke-width: 1.0;"/><path d="M444.25,104.5 L444.25,114.5 L454.25,114.5 L444.25,104.5 " fill="#FBFB77" style="stroke: #A80036; stroke-width: 1.0;"/><text fill="#000000" font-family="sans-serif" font-size="13" lengthAdjust="spacingAndGlyphs" textLength="87" x="226.25" y="121.5669">these refer to</text><text fill="#000000" font-family="monospace" font-size="13" lengthAdjust="spacingAndGlyphs" textLength="72" x="317.25" y="121.5669">interface</text><text fill="#000000" font-family="sans-serif" font-size="13" lengthAdjust="spacingAndGlyphs" textLength="50" x="389.25" y="121.5669">s above</text><!--entity BaseArtifactor--><rect fill="#FEFECE" filter="url(#fn1hmpjexmffm)" height="36.2969" style="stroke: #A80036; stroke-width: 1.5;" width="81" x="6" y="190"/><rect fill="#FEFECE" height="5" style="stroke: #A80036; stroke-width: 1.5;" width="10" x="1" y="195"/><rect fill="#FEFECE" height="5" style="stroke: #A80036; stroke-width: 1.5;" width="10" x="1" y="216.2969"/><text fill="#000000" font-family="sans-serif" font-size="14" lengthAdjust="spacingAndGlyphs" textLength="61" x="16" y="212.9951">Artifactor</text><!--entity BaseResolver--><rect fill="#FEFECE" filter="url(#fn1hmpjexmffm)" height="36.2969" style="stroke: #A80036; stroke-width: 1.5;" width="80" x="137.25" y="190"/><rect fill="#FEFECE" height="5" style="stroke: #A80036; stroke-width: 1.5;" width="10" x="132.25" y="195"/><rect fill="#FEFECE" height="5" style="stroke: #A80036; stroke-width: 1.5;" width="10" x="132.25" y="216.2969"/><text fill="#000000" font-family="sans-serif" font-size="14" lengthAdjust="spacingAndGlyphs" textLength="60" x="147.25" y="212.9951">Resolver</text><!--link Artifactor to Resolver--><!--link Config to Artifactor--><path d="M111.152,44.16 C102.0938,63.355 87.8067,93.63 81.042,107.965 " fill="none" id="Config-Artifactor" style="stroke: #A80036; stroke-width: 1.0; stroke-dasharray: 7.0,7.0;"/><!--link Config to Resolver--><path d="M127.348,44.16 C136.406,63.355 150.693,93.63 157.458,107.965 " fill="none" id="Config-Resolver" style="stroke: #A80036; stroke-width: 1.0; stroke-dasharray: 7.0,7.0;"/><!--link Artifactor to BaseArtifactor--><path d="M74.3892,126.2134 C69.3829,140.5863 58.9335,170.586 52.2731,189.708 " fill="none" id="Artifactor-BaseArtifactor" style="stroke: #A80036; stroke-width: 1.0;"/><!--link Resolver to BaseResolver--><path d="M162.727,126.2134 C165.31,140.5863 170.704,170.586 174.141,189.708 " fill="none" id="Resolver-BaseResolver" style="stroke: #A80036; stroke-width: 1.0;"/><!--
@startuml
skinparam nodesep 50

component Config
() Artifactor
() Resolver

Artifactor -[hidden]right-> Resolver

note as N1
   these refer to ""interface""s above
end note

Resolver .right. N1

Config .down. Artifactor
Config .down. Resolver

component "Artifactor" as BaseArtifactor
component "Resolver" as BaseResolver

BaseArtifactor -up- Artifactor
BaseResolver -up- Resolver

@enduml

PlantUML version 1.2018.14(Fri Dec 21 16:33:16 UTC 2018)
(GPL source distribution)
Java Runtime: Java(TM) SE Runtime Environment
JVM: Java HotSpot(TM) 64-Bit Server VM
Java Version: 1.8.0_151-b12
Operating System: Linux
OS Version: 4.4.0-101-generic
Default Encoding: UTF-8
Language: en
Country: US
--></g></svg>