<?xml version="1.0" encoding="UTF-8" standalone="no"?><svg xmlns="http://www.w3.org/2000/svg" xmlns:xlink="http://www.w3.org/1999/xlink" contentScriptType="application/ecmascript" contentStyleType="text/css" height="112.5px" preserveAspectRatio="none" style="width:357px;height:112px;" version="1.1" viewBox="0 0 357 112" width="357px" zoomAndPan="magnify"><defs><filter height="300%" id="f1hx0nfyyrt3ai" width="300%" x="-1" y="-1"><feGaussianBlur result="blurOut" stdDeviation="1.5"/><feColorMatrix in="blurOut" result="blurOut2" type="matrix" values="0 0 0 0 0 0 0 0 0 0 0 0 0 0 0 0 0 0 .4 0"/><feOffset dx="3.0" dy="3.0" in="blurOut2" result="blurOut3"/><feBlend in="SourceGraphic" in2="blurOut3" mode="normal"/></filter></defs><g><!--class Network--><rect fill="#FEFECE" filter="url(#f1hx0nfyyrt3ai)" height="98.0742" id="Network" style="stroke: #A80036; stroke-width: 1.125;" width="149" x="124.5" y="6.375"/><ellipse cx="170.3125" cy="20.6016" fill="#DA70D6" rx="8.25" ry="8.25" style="stroke: #A80036; stroke-width: 0.75;"/><path d="M171.2148,20.707 Q171.4844,20.7656 171.6895,20.9707 Q171.8945,21.1758 172.1875,21.7617 L173.8633,25.1016 L171.8477,25.1016 L170.7227,22.7578 Q170.6758,22.6523 170.5938,22.4766 Q170.1016,21.4336 169.4336,21.4336 L168.8477,21.4336 L168.8477,25.1016 L167.0195,25.1016 L167.0195,15.8086 L169.668,15.8086 Q171.4609,15.8086 172.2402,16.4414 Q173.0195,17.0742 173.0195,18.5039 Q173.0195,19.4648 172.5566,20.0332 Q172.0938,20.6016 171.2148,20.707 Z M168.8477,17.3555 L168.8477,19.8867 L169.7148,19.8867 Q170.4766,19.8867 170.7988,19.5879 Q171.1211,19.2891 171.1211,18.6094 Q171.1211,17.9414 170.7988,17.6484 Q170.4766,17.3555 169.7148,17.3555 L168.8477,17.3555 Z "/><text fill="#000000" font-family="sans-serif" font-size="9" font-style="italic" lengthAdjust="spacingAndGlyphs" textLength="54" x="184.1875" y="18.479">«Resource»</text><text fill="#000000" font-family="sans-serif" font-size="9" lengthAdjust="spacingAndGlyphs" textLength="38.25" x="192.0625" y="28.9556">Network</text><line style="stroke: #A80036; stroke-width: 1.125;" x1="125.25" x2="272.75" y1="34.8281" y2="34.8281"/><ellipse cx="132.75" cy="43.7549" fill="none" rx="2.25" ry="2.25" style="stroke: #038048; stroke-width: 0.75;"/><text fill="#000000" font-family="sans-serif" font-size="8.25" lengthAdjust="spacingAndGlyphs" textLength="58.5" x="139.5" y="45.486">name : String</text><ellipse cx="132.75" cy="53.3584" fill="none" rx="2.25" ry="2.25" style="stroke: #038048; stroke-width: 0.75;"/><text fill="#000000" font-family="sans-serif" font-size="8.25" lengthAdjust="spacingAndGlyphs" textLength="93" x="139.5" y="55.0895">networkId : NetworkID</text><ellipse cx="132.75" cy="62.9619" fill="none" rx="2.25" ry="2.25" style="stroke: #038048; stroke-width: 0.75;"/><text fill="#000000" font-family="sans-serif" font-size="8.25" lengthAdjust="spacingAndGlyphs" textLength="82.5" x="139.5" y="64.693">historicBlock: Block</text><ellipse cx="132.75" cy="72.5654" fill="#84BE84" rx="2.25" ry="2.25" style="stroke: #038048; stroke-width: 0.75;"/><text fill="#000000" font-family="sans-serif" font-size="8.25" lengthAdjust="spacingAndGlyphs" textLength="97.5" x="139.5" y="74.2965">fork: Maybe&lt;Network&gt;</text><line style="stroke: #A80036; stroke-width: 0.75; stroke-dasharray: 1.0,2.0;" x1="125.25" x2="272.75" y1="79.2422" y2="79.2422"/><rect fill="none" height="4.5" style="stroke: #C82930; stroke-width: 0.75;" width="4.5" x="130.5" y="85.9189"/><path d="M144.0313,84.2832 C143.0825,84.2832 142.3125,85.0532 142.3125,86.002 C142.3125,86.112 142.3352,86.2061 142.3558,86.3031 L140.25,88.4089 L140.25,89.7839 L142.3125,89.7839 L142.3125,88.4089 L143.6875,88.4089 L143.6875,87.7214 L143.7308,87.6781 C143.8271,87.6987 143.9213,87.7214 144.0319,87.7214 C144.9807,87.7214 145.7507,86.9514 145.7507,86.0026 C145.7507,85.0539 144.9807,84.2839 144.0319,84.2839 M144.3757,84.9714 C144.7538,84.9714 145.0632,85.2808 145.0632,85.6589 C145.0632,86.037 144.7538,86.3464 144.3757,86.3464 C143.9976,86.3464 143.6882,86.037 143.6882,85.6589 C143.6882,85.2808 143.9976,84.9714 144.3757,84.9714 " fill="#000000" style="stroke: ; stroke-width: 0.0; stroke-dasharray: ;"/><text fill="#000000" font-family="sans-serif" font-size="8.25" lengthAdjust="spacingAndGlyphs" textLength="37.5" x="149.5" y="89.9">id: ID = [</text><text fill="#000000" font-family="sans-serif" font-size="8.25" font-style="italic" lengthAdjust="spacingAndGlyphs" textLength="69" x="187" y="89.9">to be completed</text><path d="M261.8771,84.2832 C261.8359,84.2832 261.8049,84.3135 261.7912,84.3478 L259.7713,89.0318 L259.75,89.161 L259.75,89.72 C259.75,89.7612 259.7734,89.7846 259.8146,89.7846 L264.4986,89.7846 C264.5398,89.7846 264.5632,89.7612 264.5632,89.72 L264.5632,89.161 L264.5419,89.0318 L262.522,84.3478 C262.5083,84.3135 262.4773,84.2832 262.4361,84.2832 L261.8771,84.2832 M261.8125,86.3457 L262.5,86.3457 L262.5,87.7207 L261.8125,87.7207 L261.8125,86.3457 M261.8125,88.4082 L262.5,88.4082 L262.5,89.0957 L261.8125,89.0957 L261.8125,88.4082 " fill="#000000" style="stroke: ; stroke-width: 0.0; stroke-dasharray: ;"/><text fill="#000000" font-family="sans-serif" font-size="8.25" lengthAdjust="spacingAndGlyphs" textLength="3" x="266" y="89.9">]</text><rect fill="none" height="4.5" style="stroke: #C82930; stroke-width: 0.75;" width="4.5" x="130.5" y="95.5225"/><text fill="#000000" font-family="sans-serif" font-size="8.25" lengthAdjust="spacingAndGlyphs" textLength="78.75" x="139.5" y="99.5035">forkId: Maybe&lt;ID&gt;</text><!--class Block--><rect fill="#FEFECE" filter="url(#f1hx0nfyyrt3ai)" height="59.6602" id="Block" style="stroke: #A80036; stroke-width: 1.125;" width="93.75" x="4.5" y="25.5"/><ellipse cx="19.125" cy="39.7266" fill="#7CFC00" rx="8.25" ry="8.25" style="stroke: #A80036; stroke-width: 0.75;"/><path d="M19.207,36.4102 Q18.5039,36.4102 18.1816,37.1602 Q17.8594,37.9102 17.8594,39.5859 Q17.8594,41.2617 18.1816,42.0117 Q18.5039,42.7617 19.207,42.7617 Q19.9219,42.7617 20.2441,42.0117 Q20.5664,41.2617 20.5664,39.5859 Q20.5664,37.9102 20.2441,37.1602 Q19.9219,36.4102 19.207,36.4102 Z M15.9492,39.5859 Q15.9492,37.207 16.7754,35.9824 Q17.6016,34.7578 19.207,34.7578 Q20.8242,34.7578 21.6504,35.9824 Q22.4766,37.207 22.4766,39.5859 Q22.4766,41.9648 21.6504,43.1836 Q20.8242,44.4023 19.207,44.4023 Q17.6016,44.4023 16.7754,43.1836 Q15.9492,41.9648 15.9492,39.5859 Z "/><text fill="#000000" font-family="sans-serif" font-size="9" font-style="italic" lengthAdjust="spacingAndGlyphs" textLength="65.25" x="28.875" y="37.604">«Data Object»</text><text fill="#000000" font-family="sans-serif" font-size="9" lengthAdjust="spacingAndGlyphs" textLength="24.75" x="49.125" y="48.0806">Block</text><line style="stroke: #A80036; stroke-width: 1.125;" x1="5.25" x2="97.5" y1="53.9531" y2="53.9531"/><ellipse cx="12.75" cy="62.8799" fill="none" rx="2.25" ry="2.25" style="stroke: #038048; stroke-width: 0.75;"/><text fill="#000000" font-family="sans-serif" font-size="8.25" lengthAdjust="spacingAndGlyphs" textLength="65.25" x="19.5" y="64.611">height : Integer</text><ellipse cx="12.75" cy="72.4834" fill="none" rx="2.25" ry="2.25" style="stroke: #038048; stroke-width: 0.75;"/><text fill="#000000" font-family="sans-serif" font-size="8.25" lengthAdjust="spacingAndGlyphs" textLength="74.25" x="19.5" y="74.2145">hash : BlockHash</text><line style="stroke: #A80036; stroke-width: 1.125;" x1="5.25" x2="97.5" y1="79.1602" y2="79.1602"/><!--link Network to Network--><path d="M283.302,39.9132 C293.0798,42.7958 299.4375,47.9915 299.4375,55.5 C299.4375,65.3072 288.5918,71.1684 273.4455,73.0839 " fill="none" id="Network-Network" style="stroke: #A80036; stroke-width: 0.75;"/><polygon fill="#FFFFFF" points="273.4455,37.9161,277.2602,41.7499,282.2663,39.7032,278.4516,35.8694,273.4455,37.9161" style="stroke: #A80036; stroke-width: 0.75;"/><text fill="#000000" font-family="sans-serif" font-size="9.75" lengthAdjust="spacingAndGlyphs" textLength="44.25" x="303.9375" y="58.5502">«refines»</text><text fill="#000000" font-family="sans-serif" font-size="9.75" lengthAdjust="spacingAndGlyphs" textLength="18" x="279.5735" y="70.9673">0..1</text><!--link Block to Network--><path d="M97.9365,55.5 C103.4438,55.5 108.951,55.5 114.4575,55.5 " fill="none" id="Block-Network" style="stroke: #A80036; stroke-width: 0.75;"/><polygon fill="#A80036" points="124.3703,55.5,119.8703,52.5,115.3703,55.5,119.8703,58.5,124.3703,55.5" style="stroke: #A80036; stroke-width: 0.75;"/><text fill="#000000" font-family="sans-serif" font-size="9.75" lengthAdjust="spacingAndGlyphs" textLength="6" x="104.2866" y="51.7615">1</text><!--
@startuml
scale 0.75


skinparam defaultMonospacedFontName Andale Mono













    class Network << (R,orchid) Resource >> {
      + name : String
      + networkId : NetworkID
      + historicBlock: Block
      + {method} fork: Maybe<Network>
      ..
      - {field} <&key> id: ID = [//to be completed <&warning>//]
      - forkId: Maybe<ID>
    }


      class Block << (O,lawngreen) Data Object >> {
        + height : Integer
        + hash : BlockHash
      }

      Network o- - "0..1" Network : <<refines>>
      Network *-left- "1" Block








































@enduml

PlantUML version 1.2018.14(Fri Dec 21 16:33:16 UTC 2018)
(GPL source distribution)
Java Runtime: Java(TM) SE Runtime Environment
JVM: Java HotSpot(TM) 64-Bit Server VM
Java Version: 1.8.0_151-b12
Operating System: Linux
OS Version: 4.4.0-101-generic
Default Encoding: UTF-8
Language: en
Country: US
--></g></svg>