<?xml version="1.0" encoding="UTF-8" standalone="no"?><svg xmlns="http://www.w3.org/2000/svg" xmlns:xlink="http://www.w3.org/1999/xlink" contentScriptType="application/ecmascript" contentStyleType="text/css" height="595px" preserveAspectRatio="none" style="width:308px;height:595px;" version="1.1" viewBox="0 0 308 595" width="308px" zoomAndPan="magnify"><defs><filter height="300%" id="f1f6aaogooyayc" width="300%" x="-1" y="-1"><feGaussianBlur result="blurOut" stdDeviation="2.0"/><feColorMatrix in="blurOut" result="blurOut2" type="matrix" values="0 0 0 0 0 0 0 0 0 0 0 0 0 0 0 0 0 0 .4 0"/><feOffset dx="4.0" dy="4.0" in="blurOut2" result="blurOut3"/><feBlend in="SourceGraphic" in2="blurOut3" mode="normal"/></filter></defs><g><!--class ContractInstance--><rect fill="#FEFECE" filter="url(#f1f6aaogooyayc)" height="143.5703" id="ContractInstance" style="stroke: #A80036; stroke-width: 1.5;" width="227" x="12" y="8"/><ellipse cx="67.25" cy="26.9688" fill="#DA70D6" rx="11" ry="11" style="stroke: #A80036; stroke-width: 1.0;"/><path d="M67.3594,22.5469 Q66.4219,22.5469 65.9922,23.5469 Q65.5625,24.5469 65.5625,26.7813 Q65.5625,29.0156 65.9922,30.0156 Q66.4219,31.0156 67.3594,31.0156 Q68.3125,31.0156 68.7422,30.0156 Q69.1719,29.0156 69.1719,26.7813 Q69.1719,24.5469 68.7422,23.5469 Q68.3125,22.5469 67.3594,22.5469 Z M63.0156,26.7813 Q63.0156,23.6094 64.1172,21.9766 Q65.2188,20.3438 67.3594,20.3438 Q69.5156,20.3438 70.6172,21.9766 Q71.7188,23.6094 71.7188,26.7813 Q71.7188,29.9531 70.6172,31.5781 Q69.5156,33.2031 67.3594,33.2031 Q65.2188,33.2031 64.1172,31.5781 Q63.0156,29.9531 63.0156,26.7813 Z "/><text fill="#000000" font-family="sans-serif" font-size="12" font-style="italic" lengthAdjust="spacingAndGlyphs" textLength="53" x="115.25" y="24.1387">«Object»</text><text fill="#000000" font-family="sans-serif" font-size="12" lengthAdjust="spacingAndGlyphs" textLength="108" x="87.75" y="38.1074">ContractInstance</text><line style="stroke: #A80036; stroke-width: 1.5;" x1="13" x2="238" y1="45.9375" y2="45.9375"/><ellipse cx="23" cy="57.8398" fill="none" rx="3" ry="3" style="stroke: #038048; stroke-width: 1.0;"/><text fill="#000000" font-family="sans-serif" font-size="11" lengthAdjust="spacingAndGlyphs" textLength="106" x="32" y="60.1479">address : Address</text><ellipse cx="23" cy="70.6445" fill="none" rx="3" ry="3" style="stroke: #038048; stroke-width: 1.0;"/><text fill="#000000" font-family="sans-serif" font-size="11" lengthAdjust="spacingAndGlyphs" textLength="103" x="32" y="72.9526">network : Network</text><ellipse cx="23" cy="83.4492" fill="none" rx="3" ry="3" style="stroke: #038048; stroke-width: 1.0;"/><text fill="#000000" font-family="sans-serif" font-size="11" lengthAdjust="spacingAndGlyphs" textLength="201" x="32" y="85.7573">transactionHash : TransactionHash</text><ellipse cx="23" cy="96.2539" fill="none" rx="3" ry="3" style="stroke: #038048; stroke-width: 1.0;"/><text fill="#000000" font-family="sans-serif" font-size="11" lengthAdjust="spacingAndGlyphs" textLength="182" x="32" y="98.562">constructorArgs : Array&lt;Value&gt;</text><ellipse cx="23" cy="109.0586" fill="none" rx="3" ry="3" style="stroke: #038048; stroke-width: 1.0;"/><text fill="#000000" font-family="sans-serif" font-size="11" lengthAdjust="spacingAndGlyphs" textLength="160" x="32" y="111.3667">contractType : ContractType</text><ellipse cx="23" cy="121.8633" fill="none" rx="3" ry="3" style="stroke: #038048; stroke-width: 1.0;"/><text fill="#000000" font-family="sans-serif" font-size="11" lengthAdjust="spacingAndGlyphs" textLength="135" x="32" y="124.1714">callBytecode : Bytecode</text><ellipse cx="23" cy="134.668" fill="none" rx="3" ry="3" style="stroke: #038048; stroke-width: 1.0;"/><text fill="#000000" font-family="sans-serif" font-size="11" lengthAdjust="spacingAndGlyphs" textLength="159" x="32" y="136.9761">linkValues : Set&lt;LinkValue&gt;</text><line style="stroke: #A80036; stroke-width: 1.5;" x1="13" x2="238" y1="143.5703" y2="143.5703"/><!--class Bytecode--><rect fill="#FEFECE" filter="url(#f1f6aaogooyayc)" height="92.3516" id="Bytecode" style="stroke: #A80036; stroke-width: 1.5;" width="237" x="6" y="492"/><ellipse cx="91.25" cy="510.9688" fill="#DA70D6" rx="11" ry="11" style="stroke: #A80036; stroke-width: 1.0;"/><path d="M91.3594,506.5469 Q90.4219,506.5469 89.9922,507.5469 Q89.5625,508.5469 89.5625,510.7813 Q89.5625,513.0156 89.9922,514.0156 Q90.4219,515.0156 91.3594,515.0156 Q92.3125,515.0156 92.7422,514.0156 Q93.1719,513.0156 93.1719,510.7813 Q93.1719,508.5469 92.7422,507.5469 Q92.3125,506.5469 91.3594,506.5469 Z M87.0156,510.7813 Q87.0156,507.6094 88.1172,505.9766 Q89.2188,504.3438 91.3594,504.3438 Q93.5156,504.3438 94.6172,505.9766 Q95.7188,507.6094 95.7188,510.7813 Q95.7188,513.9531 94.6172,515.5781 Q93.5156,517.2031 91.3594,517.2031 Q89.2188,517.2031 88.1172,515.5781 Q87.0156,513.9531 87.0156,510.7813 Z "/><text fill="#000000" font-family="sans-serif" font-size="12" font-style="italic" lengthAdjust="spacingAndGlyphs" textLength="53" x="114.25" y="508.1387">«Object»</text><text fill="#000000" font-family="sans-serif" font-size="12" lengthAdjust="spacingAndGlyphs" textLength="58" x="111.75" y="522.1074">Bytecode</text><line style="stroke: #A80036; stroke-width: 1.5;" x1="7" x2="242" y1="529.9375" y2="529.9375"/><ellipse cx="17" cy="541.8398" fill="none" rx="3" ry="3" style="stroke: #038048; stroke-width: 1.0;"/><text fill="#000000" font-family="sans-serif" font-size="11" lengthAdjust="spacingAndGlyphs" textLength="112" x="26" y="544.1479">bytes: Array&lt;Byte&gt;</text><ellipse cx="17" cy="554.6445" fill="none" rx="3" ry="3" style="stroke: #038048; stroke-width: 1.0;"/><text fill="#000000" font-family="sans-serif" font-size="11" lengthAdjust="spacingAndGlyphs" textLength="137" x="26" y="556.9526">sourceMap : SourceMap</text><ellipse cx="17" cy="567.4492" fill="none" rx="3" ry="3" style="stroke: #038048; stroke-width: 1.0;"/><text fill="#000000" font-family="sans-serif" font-size="11" lengthAdjust="spacingAndGlyphs" textLength="211" x="26" y="569.7573">linkReferences : Set&lt;LinkReference&gt;</text><line style="stroke: #A80036; stroke-width: 1.5;" x1="7" x2="242" y1="576.3516" y2="576.3516"/><!--class LinkValue--><rect fill="#FEFECE" filter="url(#f1f6aaogooyayc)" height="79.5469" id="LinkValue" style="stroke: #A80036; stroke-width: 1.5;" width="193" x="104" y="212"/><ellipse cx="166.75" cy="230.9688" fill="#DA70D6" rx="11" ry="11" style="stroke: #A80036; stroke-width: 1.0;"/><path d="M166.8594,226.5469 Q165.9219,226.5469 165.4922,227.5469 Q165.0625,228.5469 165.0625,230.7813 Q165.0625,233.0156 165.4922,234.0156 Q165.9219,235.0156 166.8594,235.0156 Q167.8125,235.0156 168.2422,234.0156 Q168.6719,233.0156 168.6719,230.7813 Q168.6719,228.5469 168.2422,227.5469 Q167.8125,226.5469 166.8594,226.5469 Z M162.5156,230.7813 Q162.5156,227.6094 163.6172,225.9766 Q164.7188,224.3438 166.8594,224.3438 Q169.0156,224.3438 170.1172,225.9766 Q171.2188,227.6094 171.2188,230.7813 Q171.2188,233.9531 170.1172,235.5781 Q169.0156,237.2031 166.8594,237.2031 Q164.7188,237.2031 163.6172,235.5781 Q162.5156,233.9531 162.5156,230.7813 Z "/><text fill="#000000" font-family="sans-serif" font-size="12" font-style="italic" lengthAdjust="spacingAndGlyphs" textLength="53" x="190.25" y="228.1387">«Object»</text><text fill="#000000" font-family="sans-serif" font-size="12" lengthAdjust="spacingAndGlyphs" textLength="59" x="187.25" y="242.1074">LinkValue</text><line style="stroke: #A80036; stroke-width: 1.5;" x1="105" x2="296" y1="249.9375" y2="249.9375"/><ellipse cx="115" cy="261.8398" fill="none" rx="3" ry="3" style="stroke: #038048; stroke-width: 1.0;"/><text fill="#000000" font-family="sans-serif" font-size="11" lengthAdjust="spacingAndGlyphs" textLength="167" x="124" y="264.1479">linkReference : LinkReference</text><ellipse cx="115" cy="274.6445" fill="none" rx="3" ry="3" style="stroke: #038048; stroke-width: 1.0;"/><text fill="#000000" font-family="sans-serif" font-size="11" lengthAdjust="spacingAndGlyphs" textLength="74" x="124" y="276.9526">value : Bytes</text><line style="stroke: #A80036; stroke-width: 1.5;" x1="105" x2="296" y1="283.5469" y2="283.5469"/><!--class LinkReference--><rect fill="#FEFECE" filter="url(#f1f6aaogooyayc)" height="79.5469" id="LinkReference" style="stroke: #A80036; stroke-width: 1.5;" width="186" x="105.75" y="352"/><ellipse cx="150.5" cy="370.9688" fill="#DA70D6" rx="11" ry="11" style="stroke: #A80036; stroke-width: 1.0;"/><path d="M150.6094,366.5469 Q149.6719,366.5469 149.2422,367.5469 Q148.8125,368.5469 148.8125,370.7813 Q148.8125,373.0156 149.2422,374.0156 Q149.6719,375.0156 150.6094,375.0156 Q151.5625,375.0156 151.9922,374.0156 Q152.4219,373.0156 152.4219,370.7813 Q152.4219,368.5469 151.9922,367.5469 Q151.5625,366.5469 150.6094,366.5469 Z M146.2656,370.7813 Q146.2656,367.6094 147.3672,365.9766 Q148.4688,364.3438 150.6094,364.3438 Q152.7656,364.3438 153.8672,365.9766 Q154.9688,367.6094 154.9688,370.7813 Q154.9688,373.9531 153.8672,375.5781 Q152.7656,377.2031 150.6094,377.2031 Q148.4688,377.2031 147.3672,375.5781 Q146.2656,373.9531 146.2656,370.7813 Z "/><text fill="#000000" font-family="sans-serif" font-size="12" font-style="italic" lengthAdjust="spacingAndGlyphs" textLength="53" x="188.5" y="368.1387">«Object»</text><text fill="#000000" font-family="sans-serif" font-size="12" lengthAdjust="spacingAndGlyphs" textLength="88" x="171" y="382.1074">LinkReference</text><line style="stroke: #A80036; stroke-width: 1.5;" x1="106.75" x2="290.75" y1="389.9375" y2="389.9375"/><ellipse cx="116.75" cy="401.8398" fill="none" rx="3" ry="3" style="stroke: #038048; stroke-width: 1.0;"/><text fill="#000000" font-family="sans-serif" font-size="11" lengthAdjust="spacingAndGlyphs" textLength="160" x="125.75" y="404.1479">offsets : Array&lt;ByteOffset&gt;</text><ellipse cx="116.75" cy="414.6445" fill="none" rx="3" ry="3" style="stroke: #038048; stroke-width: 1.0;"/><text fill="#000000" font-family="sans-serif" font-size="11" lengthAdjust="spacingAndGlyphs" textLength="87" x="125.75" y="416.9526">length : Integer</text><line style="stroke: #A80036; stroke-width: 1.5;" x1="106.75" x2="290.75" y1="423.5469" y2="423.5469"/><!--link ContractInstance to Bytecode--><path d="M96.3494,165.022 C92.1521,180.472 88.4951,196.59 86.25,212 C82.0986,240.493 84.1589,408.49 88.25,432 C91.752,452.125 98.526,473.586 105.262,491.8259 " fill="none" id="ContractInstance-Bytecode" style="stroke: #A80036; stroke-width: 1.0;"/><polygon fill="#A80036" points="99.9831,152.231,94.4956,156.9094,96.7036,163.7742,102.191,159.0958,99.9831,152.231" style="stroke: #A80036; stroke-width: 1.0;"/><text fill="#000000" font-family="sans-serif" font-size="13" lengthAdjust="spacingAndGlyphs" textLength="8" x="93.1565" y="480.8738">1</text><!--link ContractInstance to LinkValue--><path d="M161.93,164.141 C169.251,180.736 176.614,197.426 182.902,211.678 " fill="none" id="ContractInstance-LinkValue" style="stroke: #A80036; stroke-width: 1.0;"/><polygon fill="#A80036" points="156.622,152.11,155.3843,159.2141,161.4659,163.0889,162.7036,155.9848,156.622,152.11" style="stroke: #A80036; stroke-width: 1.0;"/><text fill="#000000" font-family="sans-serif" font-size="13" lengthAdjust="spacingAndGlyphs" textLength="8" x="170.7242" y="200.9205">n</text><!--link LinkReference to Bytecode--><path d="M178.029,432.349 C170.493,447.014 161.778,463.972 153.588,479.91 " fill="none" id="LinkReference-Bytecode" style="stroke: #A80036; stroke-width: 1.0;"/><polygon fill="#A80036" points="147.455,491.8449,153.755,488.3363,152.9394,481.1715,146.6394,484.6801,147.455,491.8449" style="stroke: #A80036; stroke-width: 1.0;"/><text fill="#000000" font-family="sans-serif" font-size="13" lengthAdjust="spacingAndGlyphs" textLength="8" x="165.2512" y="451.4867">n</text><!--link LinkValue to LinkReference--><path d="M199.682,292.176 C199.437,309.074 199.15,328.928 198.897,346.389 " fill="none" id="LinkValue-LinkReference" style="stroke: #A80036; stroke-width: 1.0; stroke-dasharray: 7.0,7.0;"/><polygon fill="#A80036" points="198.819,351.726,202.9497,342.7852,198.8918,346.7265,194.9506,342.6687,198.819,351.726" style="stroke: #A80036; stroke-width: 1.0;"/><text fill="#000000" font-family="sans-serif" font-size="13" lengthAdjust="spacingAndGlyphs" textLength="8" x="189.1256" y="340.9752">1</text><!--
@startuml

class ContractInstance << (O,orchid) Object >> {
 + address : Address
 + network : Network
 + transactionHash : TransactionHash
 + constructorArgs : Array<Value>
 + contractType : ContractType
 + callBytecode : Bytecode
 + linkValues : Set<LinkValue>
}

class Bytecode << (O,orchid) Object >> {
 + bytes: Array<Byte>
 + sourceMap : SourceMap
 + linkReferences : Set<LinkReference>
}

class LinkValue << (O,orchid) Object >> {
 + linkReference : LinkReference
 + value : Bytes
}

class LinkReference << (O,orchid) Object >> {
 + offsets : Array<ByteOffset>
 + length : Integer
}


ContractInstance *- - "1" Bytecode
ContractInstance *- - "n" LinkValue

LinkReference "n" - -* Bytecode

LinkValue ..> "1" LinkReference

@enduml

PlantUML version 1.2018.14(Fri Dec 21 16:33:16 UTC 2018)
(GPL source distribution)
Java Runtime: Java(TM) SE Runtime Environment
JVM: Java HotSpot(TM) 64-Bit Server VM
Java Version: 1.8.0_151-b12
Operating System: Linux
OS Version: 4.4.0-101-generic
Default Encoding: UTF-8
Language: en
Country: US
--></g></svg>