<?xml version="1.0" encoding="UTF-8" standalone="no"?><svg xmlns="http://www.w3.org/2000/svg" xmlns:xlink="http://www.w3.org/1999/xlink" contentScriptType="application/ecmascript" contentStyleType="text/css" height="263px" preserveAspectRatio="none" style="width:753px;height:263px;" version="1.1" viewBox="0 0 753 263" width="753px" zoomAndPan="magnify"><defs><filter height="300%" id="f1o5z49jow0a2a" width="300%" x="-1" y="-1"><feGaussianBlur result="blurOut" stdDeviation="2.0"/><feColorMatrix in="blurOut" result="blurOut2" type="matrix" values="0 0 0 0 0 0 0 0 0 0 0 0 0 0 0 0 0 0 .4 0"/><feOffset dx="4.0" dy="4.0" in="blurOut2" result="blurOut3"/><feBlend in="SourceGraphic" in2="blurOut3" mode="normal"/></filter></defs><g><!--class Compilation--><rect fill="#FEFECE" filter="url(#f1o5z49jow0a2a)" height="92.3516" id="Compilation" style="stroke: #A80036; stroke-width: 1.5;" width="196" x="271.5" y="8"/><ellipse cx="328.75" cy="26.9688" fill="#DA70D6" rx="11" ry="11" style="stroke: #A80036; stroke-width: 1.0;"/><path d="M328.8594,22.5469 Q327.9219,22.5469 327.4922,23.5469 Q327.0625,24.5469 327.0625,26.7813 Q327.0625,29.0156 327.4922,30.0156 Q327.9219,31.0156 328.8594,31.0156 Q329.8125,31.0156 330.2422,30.0156 Q330.6719,29.0156 330.6719,26.7813 Q330.6719,24.5469 330.2422,23.5469 Q329.8125,22.5469 328.8594,22.5469 Z M324.5156,26.7813 Q324.5156,23.6094 325.6172,21.9766 Q326.7188,20.3438 328.8594,20.3438 Q331.0156,20.3438 332.1172,21.9766 Q333.2188,23.6094 333.2188,26.7813 Q333.2188,29.9531 332.1172,31.5781 Q331.0156,33.2031 328.8594,33.2031 Q326.7188,33.2031 325.6172,31.5781 Q324.5156,29.9531 324.5156,26.7813 Z "/><text fill="#000000" font-family="sans-serif" font-size="12" font-style="italic" lengthAdjust="spacingAndGlyphs" textLength="53" x="359.25" y="24.1387">«Object»</text><text fill="#000000" font-family="sans-serif" font-size="12" lengthAdjust="spacingAndGlyphs" textLength="73" x="349.25" y="38.1074">Compilation</text><line style="stroke: #A80036; stroke-width: 1.5;" x1="272.5" x2="466.5" y1="45.9375" y2="45.9375"/><ellipse cx="282.5" cy="57.8398" fill="none" rx="3" ry="3" style="stroke: #038048; stroke-width: 1.0;"/><text fill="#000000" font-family="sans-serif" font-size="11" lengthAdjust="spacingAndGlyphs" textLength="112" x="291.5" y="60.1479">compiler : Compiler</text><ellipse cx="282.5" cy="70.6445" fill="none" rx="3" ry="3" style="stroke: #038048; stroke-width: 1.0;"/><text fill="#000000" font-family="sans-serif" font-size="11" lengthAdjust="spacingAndGlyphs" textLength="105" x="291.5" y="72.9526">sources : Sources</text><ellipse cx="282.5" cy="83.4492" fill="none" rx="3" ry="3" style="stroke: #038048; stroke-width: 1.0;"/><text fill="#000000" font-family="sans-serif" font-size="11" lengthAdjust="spacingAndGlyphs" textLength="170" x="291.5" y="85.7573">contractTypes: ContractTypes</text><line style="stroke: #A80036; stroke-width: 1.5;" x1="272.5" x2="466.5" y1="92.3516" y2="92.3516"/><!--class ContractTypes--><rect fill="#FEFECE" filter="url(#f1o5z49jow0a2a)" height="66.7422" id="ContractTypes" style="stroke: #A80036; stroke-width: 1.5;" width="230" x="6.5" y="20.5"/><ellipse cx="72.25" cy="39.4688" fill="#FF1493" rx="11" ry="11" style="stroke: #A80036; stroke-width: 1.0;"/><path d="M75.2188,45.1094 Q74.6406,45.4063 74,45.5547 Q73.3594,45.7031 72.6563,45.7031 Q70.1563,45.7031 68.8359,44.0547 Q67.5156,42.4063 67.5156,39.2813 Q67.5156,36.1563 68.8359,34.5 Q70.1563,32.8438 72.6563,32.8438 Q73.3594,32.8438 74.0078,33 Q74.6563,33.1563 75.2188,33.4531 L75.2188,36.1719 Q74.5938,35.5938 74,35.3203 Q73.4063,35.0469 72.7813,35.0469 Q71.4375,35.0469 70.75,36.1172 Q70.0625,37.1875 70.0625,39.2813 Q70.0625,41.375 70.75,42.4453 Q71.4375,43.5156 72.7813,43.5156 Q73.4063,43.5156 74,43.2422 Q74.5938,42.9688 75.2188,42.3906 L75.2188,45.1094 Z "/><text fill="#000000" font-family="sans-serif" font-size="12" font-style="italic" lengthAdjust="spacingAndGlyphs" textLength="75" x="100.25" y="36.6387">«Collection»</text><text fill="#000000" font-family="sans-serif" font-size="12" lengthAdjust="spacingAndGlyphs" textLength="90" x="92.75" y="50.6074">ContractTypes</text><line style="stroke: #A80036; stroke-width: 1.5;" x1="7.5" x2="235.5" y1="58.4375" y2="58.4375"/><ellipse cx="17.5" cy="70.3398" fill="none" rx="3" ry="3" style="stroke: #038048; stroke-width: 1.0;"/><text fill="#000000" font-family="sans-serif" font-size="11" lengthAdjust="spacingAndGlyphs" textLength="204" x="26.5" y="72.6479">contractTypes : Set&lt;ContractType&gt;</text><line style="stroke: #A80036; stroke-width: 1.5;" x1="7.5" x2="235.5" y1="79.2422" y2="79.2422"/><!--class Compiler--><rect fill="#FEFECE" filter="url(#f1o5z49jow0a2a)" height="92.3516" id="Compiler" style="stroke: #A80036; stroke-width: 1.5;" width="120" x="309.5" y="160"/><ellipse cx="339.8" cy="178.9688" fill="#DA70D6" rx="11" ry="11" style="stroke: #A80036; stroke-width: 1.0;"/><path d="M339.9094,174.5469 Q338.9719,174.5469 338.5422,175.5469 Q338.1125,176.5469 338.1125,178.7813 Q338.1125,181.0156 338.5422,182.0156 Q338.9719,183.0156 339.9094,183.0156 Q340.8625,183.0156 341.2922,182.0156 Q341.7219,181.0156 341.7219,178.7813 Q341.7219,176.5469 341.2922,175.5469 Q340.8625,174.5469 339.9094,174.5469 Z M335.5656,178.7813 Q335.5656,175.6094 336.6672,173.9766 Q337.7688,172.3438 339.9094,172.3438 Q342.0656,172.3438 343.1672,173.9766 Q344.2688,175.6094 344.2688,178.7813 Q344.2688,181.9531 343.1672,183.5781 Q342.0656,185.2031 339.9094,185.2031 Q337.7688,185.2031 336.6672,183.5781 Q335.5656,181.9531 335.5656,178.7813 Z "/><text fill="#000000" font-family="sans-serif" font-size="12" font-style="italic" lengthAdjust="spacingAndGlyphs" textLength="53" x="357.7" y="176.1387">«Object»</text><text fill="#000000" font-family="sans-serif" font-size="12" lengthAdjust="spacingAndGlyphs" textLength="54" x="357.2" y="190.1074">Compiler</text><line style="stroke: #A80036; stroke-width: 1.5;" x1="310.5" x2="428.5" y1="197.9375" y2="197.9375"/><ellipse cx="320.5" cy="209.8398" fill="none" rx="3" ry="3" style="stroke: #038048; stroke-width: 1.0;"/><text fill="#000000" font-family="sans-serif" font-size="11" lengthAdjust="spacingAndGlyphs" textLength="78" x="329.5" y="212.1479">name : String</text><ellipse cx="320.5" cy="222.6445" fill="none" rx="3" ry="3" style="stroke: #038048; stroke-width: 1.0;"/><text fill="#000000" font-family="sans-serif" font-size="11" lengthAdjust="spacingAndGlyphs" textLength="88" x="329.5" y="224.9526">version : String</text><ellipse cx="320.5" cy="235.4492" fill="none" rx="3" ry="3" style="stroke: #038048; stroke-width: 1.0;"/><text fill="#000000" font-family="sans-serif" font-size="11" lengthAdjust="spacingAndGlyphs" textLength="94" x="329.5" y="237.7573">settings : Object</text><line style="stroke: #A80036; stroke-width: 1.5;" x1="310.5" x2="428.5" y1="244.3516" y2="244.3516"/><!--class Source--><rect fill="#FEFECE" filter="url(#f1o5z49jow0a2a)" height="92.3516" id="Source" style="stroke: #A80036; stroke-width: 1.5;" width="136" x="554" y="160"/><ellipse cx="593.75" cy="178.9688" fill="#DA70D6" rx="11" ry="11" style="stroke: #A80036; stroke-width: 1.0;"/><path d="M593.8594,174.5469 Q592.9219,174.5469 592.4922,175.5469 Q592.0625,176.5469 592.0625,178.7813 Q592.0625,181.0156 592.4922,182.0156 Q592.9219,183.0156 593.8594,183.0156 Q594.8125,183.0156 595.2422,182.0156 Q595.6719,181.0156 595.6719,178.7813 Q595.6719,176.5469 595.2422,175.5469 Q594.8125,174.5469 593.8594,174.5469 Z M589.5156,178.7813 Q589.5156,175.6094 590.6172,173.9766 Q591.7188,172.3438 593.8594,172.3438 Q596.0156,172.3438 597.1172,173.9766 Q598.2188,175.6094 598.2188,178.7813 Q598.2188,181.9531 597.1172,183.5781 Q596.0156,185.2031 593.8594,185.2031 Q591.7188,185.2031 590.6172,183.5781 Q589.5156,181.9531 589.5156,178.7813 Z "/><text fill="#000000" font-family="sans-serif" font-size="12" font-style="italic" lengthAdjust="spacingAndGlyphs" textLength="53" x="611.25" y="176.1387">«Object»</text><text fill="#000000" font-family="sans-serif" font-size="12" lengthAdjust="spacingAndGlyphs" textLength="44" x="615.75" y="190.1074">Source</text><line style="stroke: #A80036; stroke-width: 1.5;" x1="555" x2="689" y1="197.9375" y2="197.9375"/><ellipse cx="565" cy="209.8398" fill="none" rx="3" ry="3" style="stroke: #038048; stroke-width: 1.0;"/><text fill="#000000" font-family="sans-serif" font-size="11" lengthAdjust="spacingAndGlyphs" textLength="95" x="574" y="212.1479">contents : String</text><ellipse cx="565" cy="222.6445" fill="none" rx="3" ry="3" style="stroke: #038048; stroke-width: 1.0;"/><text fill="#000000" font-family="sans-serif" font-size="11" lengthAdjust="spacingAndGlyphs" textLength="110" x="574" y="224.9526">sourcePath : String</text><ellipse cx="565" cy="235.4492" fill="none" rx="3" ry="3" style="stroke: #038048; stroke-width: 1.0;"/><text fill="#000000" font-family="sans-serif" font-size="11" lengthAdjust="spacingAndGlyphs" textLength="52" x="574" y="237.7573">ast : AST</text><line style="stroke: #A80036; stroke-width: 1.5;" x1="555" x2="689" y1="244.3516" y2="244.3516"/><!--class Sources--><rect fill="#FEFECE" filter="url(#f1o5z49jow0a2a)" height="66.7422" id="Sources" style="stroke: #A80036; stroke-width: 1.5;" width="240" x="502.5" y="20.5"/><ellipse cx="582.75" cy="39.4688" fill="#FF1493" rx="11" ry="11" style="stroke: #A80036; stroke-width: 1.0;"/><path d="M585.7188,45.1094 Q585.1406,45.4063 584.5,45.5547 Q583.8594,45.7031 583.1563,45.7031 Q580.6563,45.7031 579.3359,44.0547 Q578.0156,42.4063 578.0156,39.2813 Q578.0156,36.1563 579.3359,34.5 Q580.6563,32.8438 583.1563,32.8438 Q583.8594,32.8438 584.5078,33 Q585.1563,33.1563 585.7188,33.4531 L585.7188,36.1719 Q585.0938,35.5938 584.5,35.3203 Q583.9063,35.0469 583.2813,35.0469 Q581.9375,35.0469 581.25,36.1172 Q580.5625,37.1875 580.5625,39.2813 Q580.5625,41.375 581.25,42.4453 Q581.9375,43.5156 583.2813,43.5156 Q583.9063,43.5156 584.5,43.2422 Q585.0938,42.9688 585.7188,42.3906 L585.7188,45.1094 Z "/><text fill="#000000" font-family="sans-serif" font-size="12" font-style="italic" lengthAdjust="spacingAndGlyphs" textLength="75" x="601.25" y="36.6387">«Collection»</text><text fill="#000000" font-family="sans-serif" font-size="12" lengthAdjust="spacingAndGlyphs" textLength="51" x="613.25" y="50.6074">Sources</text><line style="stroke: #A80036; stroke-width: 1.5;" x1="503.5" x2="741.5" y1="58.4375" y2="58.4375"/><ellipse cx="513.5" cy="70.3398" fill="none" rx="3" ry="3" style="stroke: #038048; stroke-width: 1.0;"/><text fill="#000000" font-family="sans-serif" font-size="11" lengthAdjust="spacingAndGlyphs" textLength="214" x="522.5" y="72.6479">sources : Map&lt;FileIndex =&gt; Source&gt;</text><line style="stroke: #A80036; stroke-width: 1.5;" x1="503.5" x2="741.5" y1="79.2422" y2="79.2422"/><!--link ContractTypes to Compilation--><path d="M235.797,54 C243.315,54 250.833,54 258.352,54 " fill="none" id="ContractTypes-Compilation" style="stroke: #A80036; stroke-width: 1.0;"/><polygon fill="#A80036" points="271.439,54,265.439,50,259.439,54,265.439,58,271.439,54" style="stroke: #A80036; stroke-width: 1.0;"/><text fill="#000000" font-family="sans-serif" font-size="13" lengthAdjust="spacingAndGlyphs" textLength="8" x="244.4844" y="49.457">n</text><!--link Compilation to Compiler--><path d="M369,113.248 C369,128.691 369,145.132 369,159.7678 " fill="none" id="Compilation-Compiler" style="stroke: #A80036; stroke-width: 1.0;"/><polygon fill="#A80036" points="369,100.005,365,106.005,369,112.005,373,106.005,369,100.005" style="stroke: #A80036; stroke-width: 1.0;"/><text fill="#000000" font-family="sans-serif" font-size="13" lengthAdjust="spacingAndGlyphs" textLength="8" x="359.2953" y="148.8083">1</text><!--link Compilation to Sources--><path d="M479.859,54 C487.338,54 494.817,54 502.296,54 " fill="none" id="Compilation-Sources" style="stroke: #A80036; stroke-width: 1.0;"/><polygon fill="#A80036" points="466.84,54,472.84,58,478.84,54,472.84,50,466.84,54" style="stroke: #A80036; stroke-width: 1.0;"/><text fill="#000000" font-family="sans-serif" font-size="13" lengthAdjust="spacingAndGlyphs" textLength="8" x="486.4489" y="49.6127">1</text><!--link Sources to Source--><path d="M622,100.655 C622,119.482 622,141.239 622,159.9982 " fill="none" id="Sources-Source" style="stroke: #A80036; stroke-width: 1.0;"/><polygon fill="#A80036" points="622,87.548,618,93.548,622,99.548,626,93.548,622,87.548" style="stroke: #A80036; stroke-width: 1.0;"/><text fill="#000000" font-family="sans-serif" font-size="13" lengthAdjust="spacingAndGlyphs" textLength="8" x="612.3594" y="149.0678">n</text><!--
@startuml

class Compilation << (O,orchid) Object >> {
 + compiler : Compiler
 + sources : Sources
 + contractTypes: ContractTypes
}

class ContractTypes << (C,deeppink) Collection >> {
 + contractTypes : Set<ContractType>
}

class Compiler << (O,orchid) Object >> {
 + name : String
 + version : String
 + settings : Object
}

class Source << (O,orchid) Object >> {
 + contents : String
 + sourcePath : String
 + ast : AST
}

class Sources << (C,deeppink) Collection >> {
 + sources : Map<FileIndex => Source>
}

Compilation *-left- "n" ContractTypes

Compilation *-down- "1" Compiler
Compilation *-right- "1" Sources

Sources *- - "n" Source

@enduml

PlantUML version 1.2018.14(Fri Dec 21 16:33:16 UTC 2018)
(GPL source distribution)
Java Runtime: Java(TM) SE Runtime Environment
JVM: Java HotSpot(TM) 64-Bit Server VM
Java Version: 1.8.0_151-b12
Operating System: Linux
OS Version: 4.4.0-101-generic
Default Encoding: UTF-8
Language: en
Country: US
--></g></svg>