<?xml version="1.0" encoding="UTF-8" standalone="no"?><svg xmlns="http://www.w3.org/2000/svg" xmlns:xlink="http://www.w3.org/1999/xlink" contentScriptType="application/ecmascript" contentStyleType="text/css" height="978px" preserveAspectRatio="none" style="width:1033px;height:978px;" version="1.1" viewBox="0 0 1033 978" width="1033px" zoomAndPan="magnify"><defs><filter height="300%" id="fhyz6ns0sd5kx" width="300%" x="-1" y="-1"><feGaussianBlur result="blurOut" stdDeviation="2.0"/><feColorMatrix in="blurOut" result="blurOut2" type="matrix" values="0 0 0 0 0 0 0 0 0 0 0 0 0 0 0 0 0 0 .4 0"/><feOffset dx="4.0" dy="4.0" in="blurOut2" result="blurOut3"/><feBlend in="SourceGraphic" in2="blurOut3" mode="normal"/></filter></defs><g><!--class ContractInstance--><rect fill="#FEFECE" filter="url(#fhyz6ns0sd5kx)" height="143.5703" id="ContractInstance" style="stroke: #A80036; stroke-width: 1.5;" width="227" x="403.75" y="8"/><ellipse cx="459" cy="26.9688" fill="#DA70D6" rx="11" ry="11" style="stroke: #A80036; stroke-width: 1.0;"/><path d="M459.1094,22.5469 Q458.1719,22.5469 457.7422,23.5469 Q457.3125,24.5469 457.3125,26.7813 Q457.3125,29.0156 457.7422,30.0156 Q458.1719,31.0156 459.1094,31.0156 Q460.0625,31.0156 460.4922,30.0156 Q460.9219,29.0156 460.9219,26.7813 Q460.9219,24.5469 460.4922,23.5469 Q460.0625,22.5469 459.1094,22.5469 Z M454.7656,26.7813 Q454.7656,23.6094 455.8672,21.9766 Q456.9688,20.3438 459.1094,20.3438 Q461.2656,20.3438 462.3672,21.9766 Q463.4688,23.6094 463.4688,26.7813 Q463.4688,29.9531 462.3672,31.5781 Q461.2656,33.2031 459.1094,33.2031 Q456.9688,33.2031 455.8672,31.5781 Q454.7656,29.9531 454.7656,26.7813 Z "/><text fill="#000000" font-family="sans-serif" font-size="12" font-style="italic" lengthAdjust="spacingAndGlyphs" textLength="53" x="507" y="24.1387">«Object»</text><text fill="#000000" font-family="sans-serif" font-size="12" lengthAdjust="spacingAndGlyphs" textLength="108" x="479.5" y="38.1074">ContractInstance</text><line style="stroke: #A80036; stroke-width: 1.5;" x1="404.75" x2="629.75" y1="45.9375" y2="45.9375"/><ellipse cx="414.75" cy="57.8398" fill="none" rx="3" ry="3" style="stroke: #038048; stroke-width: 1.0;"/><text fill="#000000" font-family="sans-serif" font-size="11" lengthAdjust="spacingAndGlyphs" textLength="106" x="423.75" y="60.1479">address : Address</text><ellipse cx="414.75" cy="70.6445" fill="none" rx="3" ry="3" style="stroke: #038048; stroke-width: 1.0;"/><text fill="#000000" font-family="sans-serif" font-size="11" lengthAdjust="spacingAndGlyphs" textLength="103" x="423.75" y="72.9526">network : Network</text><ellipse cx="414.75" cy="83.4492" fill="none" rx="3" ry="3" style="stroke: #038048; stroke-width: 1.0;"/><text fill="#000000" font-family="sans-serif" font-size="11" lengthAdjust="spacingAndGlyphs" textLength="201" x="423.75" y="85.7573">transactionHash : TransactionHash</text><ellipse cx="414.75" cy="96.2539" fill="none" rx="3" ry="3" style="stroke: #038048; stroke-width: 1.0;"/><text fill="#000000" font-family="sans-serif" font-size="11" lengthAdjust="spacingAndGlyphs" textLength="182" x="423.75" y="98.562">constructorArgs : Array&lt;Value&gt;</text><ellipse cx="414.75" cy="109.0586" fill="none" rx="3" ry="3" style="stroke: #038048; stroke-width: 1.0;"/><text fill="#000000" font-family="sans-serif" font-size="11" lengthAdjust="spacingAndGlyphs" textLength="160" x="423.75" y="111.3667">contractType : ContractType</text><ellipse cx="414.75" cy="121.8633" fill="none" rx="3" ry="3" style="stroke: #038048; stroke-width: 1.0;"/><text fill="#000000" font-family="sans-serif" font-size="11" lengthAdjust="spacingAndGlyphs" textLength="135" x="423.75" y="124.1714">callBytecode : Bytecode</text><ellipse cx="414.75" cy="134.668" fill="none" rx="3" ry="3" style="stroke: #038048; stroke-width: 1.0;"/><text fill="#000000" font-family="sans-serif" font-size="11" lengthAdjust="spacingAndGlyphs" textLength="159" x="423.75" y="136.9761">linkValues : Set&lt;LinkValue&gt;</text><line style="stroke: #A80036; stroke-width: 1.5;" x1="404.75" x2="629.75" y1="143.5703" y2="143.5703"/><!--class ContractType--><rect fill="#FEFECE" filter="url(#fhyz6ns0sd5kx)" height="105.1563" id="ContractType" style="stroke: #A80036; stroke-width: 1.5;" width="178" x="237.5" y="352.5"/><ellipse cx="280.85" cy="371.4688" fill="#DA70D6" rx="11" ry="11" style="stroke: #A80036; stroke-width: 1.0;"/><path d="M280.9594,367.0469 Q280.0219,367.0469 279.5922,368.0469 Q279.1625,369.0469 279.1625,371.2813 Q279.1625,373.5156 279.5922,374.5156 Q280.0219,375.5156 280.9594,375.5156 Q281.9125,375.5156 282.3422,374.5156 Q282.7719,373.5156 282.7719,371.2813 Q282.7719,369.0469 282.3422,368.0469 Q281.9125,367.0469 280.9594,367.0469 Z M276.6156,371.2813 Q276.6156,368.1094 277.7172,366.4766 Q278.8188,364.8438 280.9594,364.8438 Q283.1156,364.8438 284.2172,366.4766 Q285.3188,368.1094 285.3188,371.2813 Q285.3188,374.4531 284.2172,376.0781 Q283.1156,377.7031 280.9594,377.7031 Q278.8188,377.7031 277.7172,376.0781 Q276.6156,374.4531 276.6156,371.2813 Z "/><text fill="#000000" font-family="sans-serif" font-size="12" font-style="italic" lengthAdjust="spacingAndGlyphs" textLength="53" x="316.15" y="368.6387">«Object»</text><text fill="#000000" font-family="sans-serif" font-size="12" lengthAdjust="spacingAndGlyphs" textLength="83" x="301.15" y="382.6074">ContractType</text><line style="stroke: #A80036; stroke-width: 1.5;" x1="238.5" x2="414.5" y1="390.4375" y2="390.4375"/><ellipse cx="248.5" cy="402.3398" fill="none" rx="3" ry="3" style="stroke: #038048; stroke-width: 1.0;"/><text fill="#000000" font-family="sans-serif" font-size="11" lengthAdjust="spacingAndGlyphs" textLength="78" x="257.5" y="404.6479">name : String</text><ellipse cx="248.5" cy="415.1445" fill="none" rx="3" ry="3" style="stroke: #038048; stroke-width: 1.0;"/><text fill="#000000" font-family="sans-serif" font-size="11" lengthAdjust="spacingAndGlyphs" textLength="47" x="257.5" y="417.4526">abi : ABI</text><ellipse cx="248.5" cy="427.9492" fill="none" rx="3" ry="3" style="stroke: #038048; stroke-width: 1.0;"/><text fill="#000000" font-family="sans-serif" font-size="11" lengthAdjust="spacingAndGlyphs" textLength="144" x="257.5" y="430.2573">compilation : Compilation</text><ellipse cx="248.5" cy="440.7539" fill="none" rx="3" ry="3" style="stroke: #038048; stroke-width: 1.0;"/><text fill="#000000" font-family="sans-serif" font-size="11" lengthAdjust="spacingAndGlyphs" textLength="152" x="257.5" y="443.062">createBytecode : Bytecode</text><line style="stroke: #A80036; stroke-width: 1.5;" x1="238.5" x2="414.5" y1="449.6563" y2="449.6563"/><!--class ContractTypes--><rect fill="#FEFECE" filter="url(#fhyz6ns0sd5kx)" height="66.7422" id="ContractTypes" style="stroke: #A80036; stroke-width: 1.5;" width="230" x="6.5" y="537.5"/><ellipse cx="72.25" cy="556.4688" fill="#FF1493" rx="11" ry="11" style="stroke: #A80036; stroke-width: 1.0;"/><path d="M75.2188,562.1094 Q74.6406,562.4063 74,562.5547 Q73.3594,562.7031 72.6563,562.7031 Q70.1563,562.7031 68.8359,561.0547 Q67.5156,559.4063 67.5156,556.2813 Q67.5156,553.1563 68.8359,551.5 Q70.1563,549.8438 72.6563,549.8438 Q73.3594,549.8438 74.0078,550 Q74.6563,550.1563 75.2188,550.4531 L75.2188,553.1719 Q74.5938,552.5938 74,552.3203 Q73.4063,552.0469 72.7813,552.0469 Q71.4375,552.0469 70.75,553.1172 Q70.0625,554.1875 70.0625,556.2813 Q70.0625,558.375 70.75,559.4453 Q71.4375,560.5156 72.7813,560.5156 Q73.4063,560.5156 74,560.2422 Q74.5938,559.9688 75.2188,559.3906 L75.2188,562.1094 Z "/><text fill="#000000" font-family="sans-serif" font-size="12" font-style="italic" lengthAdjust="spacingAndGlyphs" textLength="75" x="100.25" y="553.6387">«Collection»</text><text fill="#000000" font-family="sans-serif" font-size="12" lengthAdjust="spacingAndGlyphs" textLength="90" x="92.75" y="567.6074">ContractTypes</text><line style="stroke: #A80036; stroke-width: 1.5;" x1="7.5" x2="235.5" y1="575.4375" y2="575.4375"/><ellipse cx="17.5" cy="587.3398" fill="none" rx="3" ry="3" style="stroke: #038048; stroke-width: 1.0;"/><text fill="#000000" font-family="sans-serif" font-size="11" lengthAdjust="spacingAndGlyphs" textLength="204" x="26.5" y="589.6479">contractTypes : Set&lt;ContractType&gt;</text><line style="stroke: #A80036; stroke-width: 1.5;" x1="7.5" x2="235.5" y1="596.2422" y2="596.2422"/><!--class Source--><rect fill="#FEFECE" filter="url(#fhyz6ns0sd5kx)" height="92.3516" id="Source" style="stroke: #A80036; stroke-width: 1.5;" width="136" x="300" y="869"/><ellipse cx="339.75" cy="887.9688" fill="#DA70D6" rx="11" ry="11" style="stroke: #A80036; stroke-width: 1.0;"/><path d="M339.8594,883.5469 Q338.9219,883.5469 338.4922,884.5469 Q338.0625,885.5469 338.0625,887.7813 Q338.0625,890.0156 338.4922,891.0156 Q338.9219,892.0156 339.8594,892.0156 Q340.8125,892.0156 341.2422,891.0156 Q341.6719,890.0156 341.6719,887.7813 Q341.6719,885.5469 341.2422,884.5469 Q340.8125,883.5469 339.8594,883.5469 Z M335.5156,887.7813 Q335.5156,884.6094 336.6172,882.9766 Q337.7188,881.3438 339.8594,881.3438 Q342.0156,881.3438 343.1172,882.9766 Q344.2188,884.6094 344.2188,887.7813 Q344.2188,890.9531 343.1172,892.5781 Q342.0156,894.2031 339.8594,894.2031 Q337.7188,894.2031 336.6172,892.5781 Q335.5156,890.9531 335.5156,887.7813 Z "/><text fill="#000000" font-family="sans-serif" font-size="12" font-style="italic" lengthAdjust="spacingAndGlyphs" textLength="53" x="357.25" y="885.1387">«Object»</text><text fill="#000000" font-family="sans-serif" font-size="12" lengthAdjust="spacingAndGlyphs" textLength="44" x="361.75" y="899.1074">Source</text><line style="stroke: #A80036; stroke-width: 1.5;" x1="301" x2="435" y1="906.9375" y2="906.9375"/><ellipse cx="311" cy="918.8398" fill="none" rx="3" ry="3" style="stroke: #038048; stroke-width: 1.0;"/><text fill="#000000" font-family="sans-serif" font-size="11" lengthAdjust="spacingAndGlyphs" textLength="95" x="320" y="921.1479">contents : String</text><ellipse cx="311" cy="931.6445" fill="none" rx="3" ry="3" style="stroke: #038048; stroke-width: 1.0;"/><text fill="#000000" font-family="sans-serif" font-size="11" lengthAdjust="spacingAndGlyphs" textLength="110" x="320" y="933.9526">sourcePath : String</text><ellipse cx="311" cy="944.4492" fill="none" rx="3" ry="3" style="stroke: #038048; stroke-width: 1.0;"/><text fill="#000000" font-family="sans-serif" font-size="11" lengthAdjust="spacingAndGlyphs" textLength="52" x="320" y="946.7573">ast : AST</text><line style="stroke: #A80036; stroke-width: 1.5;" x1="301" x2="435" y1="953.3516" y2="953.3516"/><!--class Sources--><rect fill="#FEFECE" filter="url(#fhyz6ns0sd5kx)" height="66.7422" id="Sources" style="stroke: #A80036; stroke-width: 1.5;" width="240" x="248.5" y="709.5"/><ellipse cx="328.75" cy="728.4688" fill="#FF1493" rx="11" ry="11" style="stroke: #A80036; stroke-width: 1.0;"/><path d="M331.7188,734.1094 Q331.1406,734.4063 330.5,734.5547 Q329.8594,734.7031 329.1563,734.7031 Q326.6563,734.7031 325.3359,733.0547 Q324.0156,731.4063 324.0156,728.2813 Q324.0156,725.1563 325.3359,723.5 Q326.6563,721.8438 329.1563,721.8438 Q329.8594,721.8438 330.5078,722 Q331.1563,722.1563 331.7188,722.4531 L331.7188,725.1719 Q331.0938,724.5938 330.5,724.3203 Q329.9063,724.0469 329.2813,724.0469 Q327.9375,724.0469 327.25,725.1172 Q326.5625,726.1875 326.5625,728.2813 Q326.5625,730.375 327.25,731.4453 Q327.9375,732.5156 329.2813,732.5156 Q329.9063,732.5156 330.5,732.2422 Q331.0938,731.9688 331.7188,731.3906 L331.7188,734.1094 Z "/><text fill="#000000" font-family="sans-serif" font-size="12" font-style="italic" lengthAdjust="spacingAndGlyphs" textLength="75" x="347.25" y="725.6387">«Collection»</text><text fill="#000000" font-family="sans-serif" font-size="12" lengthAdjust="spacingAndGlyphs" textLength="51" x="359.25" y="739.6074">Sources</text><line style="stroke: #A80036; stroke-width: 1.5;" x1="249.5" x2="487.5" y1="747.4375" y2="747.4375"/><ellipse cx="259.5" cy="759.3398" fill="none" rx="3" ry="3" style="stroke: #038048; stroke-width: 1.0;"/><text fill="#000000" font-family="sans-serif" font-size="11" lengthAdjust="spacingAndGlyphs" textLength="214" x="268.5" y="761.6479">sources : Map&lt;FileIndex =&gt; Source&gt;</text><line style="stroke: #A80036; stroke-width: 1.5;" x1="249.5" x2="487.5" y1="768.2422" y2="768.2422"/><!--class Network--><rect fill="#FEFECE" filter="url(#fhyz6ns0sd5kx)" height="79.5469" id="Network" style="stroke: #A80036; stroke-width: 1.5;" width="150" x="666.5" y="40"/><ellipse cx="711.75" cy="58.9688" fill="#DA70D6" rx="11" ry="11" style="stroke: #A80036; stroke-width: 1.0;"/><path d="M711.8594,54.5469 Q710.9219,54.5469 710.4922,55.5469 Q710.0625,56.5469 710.0625,58.7813 Q710.0625,61.0156 710.4922,62.0156 Q710.9219,63.0156 711.8594,63.0156 Q712.8125,63.0156 713.2422,62.0156 Q713.6719,61.0156 713.6719,58.7813 Q713.6719,56.5469 713.2422,55.5469 Q712.8125,54.5469 711.8594,54.5469 Z M707.5156,58.7813 Q707.5156,55.6094 708.6172,53.9766 Q709.7188,52.3438 711.8594,52.3438 Q714.0156,52.3438 715.1172,53.9766 Q716.2188,55.6094 716.2188,58.7813 Q716.2188,61.9531 715.1172,63.5781 Q714.0156,65.2031 711.8594,65.2031 Q709.7188,65.2031 708.6172,63.5781 Q707.5156,61.9531 707.5156,58.7813 Z "/><text fill="#000000" font-family="sans-serif" font-size="12" font-style="italic" lengthAdjust="spacingAndGlyphs" textLength="53" x="731.25" y="56.1387">«Object»</text><text fill="#000000" font-family="sans-serif" font-size="12" lengthAdjust="spacingAndGlyphs" textLength="51" x="732.25" y="70.1074">Network</text><line style="stroke: #A80036; stroke-width: 1.5;" x1="667.5" x2="815.5" y1="77.9375" y2="77.9375"/><ellipse cx="677.5" cy="89.8398" fill="none" rx="3" ry="3" style="stroke: #038048; stroke-width: 1.0;"/><text fill="#000000" font-family="sans-serif" font-size="11" lengthAdjust="spacingAndGlyphs" textLength="78" x="686.5" y="92.1479">name : String</text><ellipse cx="677.5" cy="102.6445" fill="none" rx="3" ry="3" style="stroke: #038048; stroke-width: 1.0;"/><text fill="#000000" font-family="sans-serif" font-size="11" lengthAdjust="spacingAndGlyphs" textLength="124" x="686.5" y="104.9526">networkId : NetworkID</text><line style="stroke: #A80036; stroke-width: 1.5;" x1="667.5" x2="815.5" y1="111.5469" y2="111.5469"/><!--class Compilation--><rect fill="#FEFECE" filter="url(#fhyz6ns0sd5kx)" height="92.3516" id="Compilation" style="stroke: #A80036; stroke-width: 1.5;" width="196" x="17.5" y="697"/><ellipse cx="74.75" cy="715.9688" fill="#DA70D6" rx="11" ry="11" style="stroke: #A80036; stroke-width: 1.0;"/><path d="M74.8594,711.5469 Q73.9219,711.5469 73.4922,712.5469 Q73.0625,713.5469 73.0625,715.7813 Q73.0625,718.0156 73.4922,719.0156 Q73.9219,720.0156 74.8594,720.0156 Q75.8125,720.0156 76.2422,719.0156 Q76.6719,718.0156 76.6719,715.7813 Q76.6719,713.5469 76.2422,712.5469 Q75.8125,711.5469 74.8594,711.5469 Z M70.5156,715.7813 Q70.5156,712.6094 71.6172,710.9766 Q72.7188,709.3438 74.8594,709.3438 Q77.0156,709.3438 78.1172,710.9766 Q79.2188,712.6094 79.2188,715.7813 Q79.2188,718.9531 78.1172,720.5781 Q77.0156,722.2031 74.8594,722.2031 Q72.7188,722.2031 71.6172,720.5781 Q70.5156,718.9531 70.5156,715.7813 Z "/><text fill="#000000" font-family="sans-serif" font-size="12" font-style="italic" lengthAdjust="spacingAndGlyphs" textLength="53" x="105.25" y="713.1387">«Object»</text><text fill="#000000" font-family="sans-serif" font-size="12" lengthAdjust="spacingAndGlyphs" textLength="73" x="95.25" y="727.1074">Compilation</text><line style="stroke: #A80036; stroke-width: 1.5;" x1="18.5" x2="212.5" y1="734.9375" y2="734.9375"/><ellipse cx="28.5" cy="746.8398" fill="none" rx="3" ry="3" style="stroke: #038048; stroke-width: 1.0;"/><text fill="#000000" font-family="sans-serif" font-size="11" lengthAdjust="spacingAndGlyphs" textLength="112" x="37.5" y="749.1479">compiler : Compiler</text><ellipse cx="28.5" cy="759.6445" fill="none" rx="3" ry="3" style="stroke: #038048; stroke-width: 1.0;"/><text fill="#000000" font-family="sans-serif" font-size="11" lengthAdjust="spacingAndGlyphs" textLength="105" x="37.5" y="761.9526">sources : Sources</text><ellipse cx="28.5" cy="772.4492" fill="none" rx="3" ry="3" style="stroke: #038048; stroke-width: 1.0;"/><text fill="#000000" font-family="sans-serif" font-size="11" lengthAdjust="spacingAndGlyphs" textLength="170" x="37.5" y="774.7573">contractTypes: ContractTypes</text><line style="stroke: #A80036; stroke-width: 1.5;" x1="18.5" x2="212.5" y1="781.3516" y2="781.3516"/><!--class Compiler--><rect fill="#FEFECE" filter="url(#fhyz6ns0sd5kx)" height="92.3516" id="Compiler" style="stroke: #A80036; stroke-width: 1.5;" width="120" x="55.5" y="869"/><ellipse cx="85.8" cy="887.9688" fill="#DA70D6" rx="11" ry="11" style="stroke: #A80036; stroke-width: 1.0;"/><path d="M85.9094,883.5469 Q84.9719,883.5469 84.5422,884.5469 Q84.1125,885.5469 84.1125,887.7813 Q84.1125,890.0156 84.5422,891.0156 Q84.9719,892.0156 85.9094,892.0156 Q86.8625,892.0156 87.2922,891.0156 Q87.7219,890.0156 87.7219,887.7813 Q87.7219,885.5469 87.2922,884.5469 Q86.8625,883.5469 85.9094,883.5469 Z M81.5656,887.7813 Q81.5656,884.6094 82.6672,882.9766 Q83.7688,881.3438 85.9094,881.3438 Q88.0656,881.3438 89.1672,882.9766 Q90.2688,884.6094 90.2688,887.7813 Q90.2688,890.9531 89.1672,892.5781 Q88.0656,894.2031 85.9094,894.2031 Q83.7688,894.2031 82.6672,892.5781 Q81.5656,890.9531 81.5656,887.7813 Z "/><text fill="#000000" font-family="sans-serif" font-size="12" font-style="italic" lengthAdjust="spacingAndGlyphs" textLength="53" x="103.7" y="885.1387">«Object»</text><text fill="#000000" font-family="sans-serif" font-size="12" lengthAdjust="spacingAndGlyphs" textLength="54" x="103.2" y="899.1074">Compiler</text><line style="stroke: #A80036; stroke-width: 1.5;" x1="56.5" x2="174.5" y1="906.9375" y2="906.9375"/><ellipse cx="66.5" cy="918.8398" fill="none" rx="3" ry="3" style="stroke: #038048; stroke-width: 1.0;"/><text fill="#000000" font-family="sans-serif" font-size="11" lengthAdjust="spacingAndGlyphs" textLength="78" x="75.5" y="921.1479">name : String</text><ellipse cx="66.5" cy="931.6445" fill="none" rx="3" ry="3" style="stroke: #038048; stroke-width: 1.0;"/><text fill="#000000" font-family="sans-serif" font-size="11" lengthAdjust="spacingAndGlyphs" textLength="88" x="75.5" y="933.9526">version : String</text><ellipse cx="66.5" cy="944.4492" fill="none" rx="3" ry="3" style="stroke: #038048; stroke-width: 1.0;"/><text fill="#000000" font-family="sans-serif" font-size="11" lengthAdjust="spacingAndGlyphs" textLength="94" x="75.5" y="946.7573">settings : Object</text><line style="stroke: #A80036; stroke-width: 1.5;" x1="56.5" x2="174.5" y1="953.3516" y2="953.3516"/><!--class Bytecode--><rect fill="#FEFECE" filter="url(#fhyz6ns0sd5kx)" height="105.1563" id="Bytecode" style="stroke: #A80036; stroke-width: 1.5;" width="237" x="548.75" y="518.5"/><ellipse cx="634" cy="537.4688" fill="#DA70D6" rx="11" ry="11" style="stroke: #A80036; stroke-width: 1.0;"/><path d="M634.1094,533.0469 Q633.1719,533.0469 632.7422,534.0469 Q632.3125,535.0469 632.3125,537.2813 Q632.3125,539.5156 632.7422,540.5156 Q633.1719,541.5156 634.1094,541.5156 Q635.0625,541.5156 635.4922,540.5156 Q635.9219,539.5156 635.9219,537.2813 Q635.9219,535.0469 635.4922,534.0469 Q635.0625,533.0469 634.1094,533.0469 Z M629.7656,537.2813 Q629.7656,534.1094 630.8672,532.4766 Q631.9688,530.8438 634.1094,530.8438 Q636.2656,530.8438 637.3672,532.4766 Q638.4688,534.1094 638.4688,537.2813 Q638.4688,540.4531 637.3672,542.0781 Q636.2656,543.7031 634.1094,543.7031 Q631.9688,543.7031 630.8672,542.0781 Q629.7656,540.4531 629.7656,537.2813 Z "/><text fill="#000000" font-family="sans-serif" font-size="12" font-style="italic" lengthAdjust="spacingAndGlyphs" textLength="53" x="657" y="534.6387">«Object»</text><text fill="#000000" font-family="sans-serif" font-size="12" lengthAdjust="spacingAndGlyphs" textLength="58" x="654.5" y="548.6074">Bytecode</text><line style="stroke: #A80036; stroke-width: 1.5;" x1="549.75" x2="784.75" y1="556.4375" y2="556.4375"/><ellipse cx="559.75" cy="568.3398" fill="none" rx="3" ry="3" style="stroke: #038048; stroke-width: 1.0;"/><text fill="#000000" font-family="sans-serif" font-size="11" lengthAdjust="spacingAndGlyphs" textLength="112" x="568.75" y="570.6479">bytes: Array&lt;Byte&gt;</text><ellipse cx="559.75" cy="581.1445" fill="none" rx="3" ry="3" style="stroke: #038048; stroke-width: 1.0;"/><text fill="#000000" font-family="sans-serif" font-size="11" lengthAdjust="spacingAndGlyphs" textLength="137" x="568.75" y="583.4526">sourceMap : SourceMap</text><ellipse cx="559.75" cy="593.9492" fill="none" rx="3" ry="3" style="stroke: #038048; stroke-width: 1.0;"/><text fill="#000000" font-family="sans-serif" font-size="11" lengthAdjust="spacingAndGlyphs" textLength="183" x="568.75" y="596.2573">instructions: Array&lt;Instruction&gt;</text><ellipse cx="559.75" cy="606.7539" fill="none" rx="3" ry="3" style="stroke: #038048; stroke-width: 1.0;"/><text fill="#000000" font-family="sans-serif" font-size="11" lengthAdjust="spacingAndGlyphs" textLength="211" x="568.75" y="609.062">linkReferences : Set&lt;LinkReference&gt;</text><line style="stroke: #A80036; stroke-width: 1.5;" x1="549.75" x2="784.75" y1="615.6563" y2="615.6563"/><!--class Instruction--><rect fill="#FEFECE" filter="url(#fhyz6ns0sd5kx)" height="117.9609" id="Instruction" style="stroke: #A80036; stroke-width: 1.5;" width="162" x="860" y="684"/><ellipse cx="903.35" cy="702.9688" fill="#DA70D6" rx="11" ry="11" style="stroke: #A80036; stroke-width: 1.0;"/><path d="M903.4594,698.5469 Q902.5219,698.5469 902.0922,699.5469 Q901.6625,700.5469 901.6625,702.7813 Q901.6625,705.0156 902.0922,706.0156 Q902.5219,707.0156 903.4594,707.0156 Q904.4125,707.0156 904.8422,706.0156 Q905.2719,705.0156 905.2719,702.7813 Q905.2719,700.5469 904.8422,699.5469 Q904.4125,698.5469 903.4594,698.5469 Z M899.1156,702.7813 Q899.1156,699.6094 900.2172,697.9766 Q901.3188,696.3438 903.4594,696.3438 Q905.6156,696.3438 906.7172,697.9766 Q907.8188,699.6094 907.8188,702.7813 Q907.8188,705.9531 906.7172,707.5781 Q905.6156,709.2031 903.4594,709.2031 Q901.3188,709.2031 900.2172,707.5781 Q899.1156,705.9531 899.1156,702.7813 Z "/><text fill="#000000" font-family="sans-serif" font-size="12" font-style="italic" lengthAdjust="spacingAndGlyphs" textLength="53" x="930.65" y="700.1387">«Object»</text><text fill="#000000" font-family="sans-serif" font-size="12" lengthAdjust="spacingAndGlyphs" textLength="67" x="923.65" y="714.1074">Instruction</text><line style="stroke: #A80036; stroke-width: 1.5;" x1="861" x2="1021" y1="721.9375" y2="721.9375"/><ellipse cx="871" cy="733.8398" fill="none" rx="3" ry="3" style="stroke: #038048; stroke-width: 1.0;"/><text fill="#000000" font-family="sans-serif" font-size="11" lengthAdjust="spacingAndGlyphs" textLength="136" x="880" y="736.1479">programCounter: String</text><ellipse cx="871" cy="746.6445" fill="none" rx="3" ry="3" style="stroke: #038048; stroke-width: 1.0;"/><text fill="#000000" font-family="sans-serif" font-size="11" lengthAdjust="spacingAndGlyphs" textLength="89" x="880" y="748.9526">opcode: Integer</text><ellipse cx="871" cy="759.4492" fill="none" rx="3" ry="3" style="stroke: #038048; stroke-width: 1.0;"/><text fill="#000000" font-family="sans-serif" font-size="11" lengthAdjust="spacingAndGlyphs" textLength="96" x="880" y="761.7573">pushData: String</text><ellipse cx="871" cy="772.2539" fill="none" rx="3" ry="3" style="stroke: #038048; stroke-width: 1.0;"/><text fill="#000000" font-family="sans-serif" font-size="11" lengthAdjust="spacingAndGlyphs" textLength="123" x="880" y="774.562">sourceRanges: String</text><ellipse cx="871" cy="785.0586" fill="none" rx="3" ry="3" style="stroke: #038048; stroke-width: 1.0;"/><text fill="#000000" font-family="sans-serif" font-size="11" lengthAdjust="spacingAndGlyphs" textLength="73" x="880" y="787.3667">meta: Object</text><line style="stroke: #A80036; stroke-width: 1.5;" x1="861" x2="1021" y1="793.9609" y2="793.9609"/><!--class Meta--><rect fill="#FEFECE" filter="url(#fhyz6ns0sd5kx)" height="105.1563" id="Meta" style="stroke: #A80036; stroke-width: 1.5;" width="121" x="880.75" y="862.5"/><ellipse cx="913.75" cy="881.4688" fill="#DA70D6" rx="11" ry="11" style="stroke: #A80036; stroke-width: 1.0;"/><path d="M913.8594,877.0469 Q912.9219,877.0469 912.4922,878.0469 Q912.0625,879.0469 912.0625,881.2813 Q912.0625,883.5156 912.4922,884.5156 Q912.9219,885.5156 913.8594,885.5156 Q914.8125,885.5156 915.2422,884.5156 Q915.6719,883.5156 915.6719,881.2813 Q915.6719,879.0469 915.2422,878.0469 Q914.8125,877.0469 913.8594,877.0469 Z M909.5156,881.2813 Q909.5156,878.1094 910.6172,876.4766 Q911.7188,874.8438 913.8594,874.8438 Q916.0156,874.8438 917.1172,876.4766 Q918.2188,878.1094 918.2188,881.2813 Q918.2188,884.4531 917.1172,886.0781 Q916.0156,887.7031 913.8594,887.7031 Q911.7188,887.7031 910.6172,886.0781 Q909.5156,884.4531 909.5156,881.2813 Z "/><text fill="#000000" font-family="sans-serif" font-size="12" font-style="italic" lengthAdjust="spacingAndGlyphs" textLength="53" x="929.75" y="878.6387">«Object»</text><text fill="#000000" font-family="sans-serif" font-size="12" lengthAdjust="spacingAndGlyphs" textLength="31" x="940.75" y="892.6074">Meta</text><line style="stroke: #A80036; stroke-width: 1.5;" x1="881.75" x2="1000.75" y1="900.4375" y2="900.4375"/><ellipse cx="891.75" cy="912.3398" fill="none" rx="3" ry="3" style="stroke: #038048; stroke-width: 1.0;"/><text fill="#000000" font-family="sans-serif" font-size="11" lengthAdjust="spacingAndGlyphs" textLength="72" x="900.75" y="914.6479">cost: Integer</text><ellipse cx="891.75" cy="925.1445" fill="none" rx="3" ry="3" style="stroke: #038048; stroke-width: 1.0;"/><text fill="#000000" font-family="sans-serif" font-size="11" lengthAdjust="spacingAndGlyphs" textLength="76" x="900.75" y="927.4526">pops: Integer</text><ellipse cx="891.75" cy="937.9492" fill="none" rx="3" ry="3" style="stroke: #038048; stroke-width: 1.0;"/><text fill="#000000" font-family="sans-serif" font-size="11" lengthAdjust="spacingAndGlyphs" textLength="90" x="900.75" y="940.2573">pushes: Integer</text><ellipse cx="891.75" cy="950.7539" fill="none" rx="3" ry="3" style="stroke: #038048; stroke-width: 1.0;"/><text fill="#000000" font-family="sans-serif" font-size="11" lengthAdjust="spacingAndGlyphs" textLength="95" x="900.75" y="953.062">dynamic: Integer</text><line style="stroke: #A80036; stroke-width: 1.5;" x1="881.75" x2="1000.75" y1="959.6563" y2="959.6563"/><!--class SourceMap--><rect fill="#FEFECE" filter="url(#fhyz6ns0sd5kx)" height="79.5469" id="SourceMap" style="stroke: #A80036; stroke-width: 1.5;" width="302" x="523" y="703"/><ellipse cx="634.75" cy="721.9688" fill="#DA70D6" rx="11" ry="11" style="stroke: #A80036; stroke-width: 1.0;"/><path d="M634.8594,717.5469 Q633.9219,717.5469 633.4922,718.5469 Q633.0625,719.5469 633.0625,721.7813 Q633.0625,724.0156 633.4922,725.0156 Q633.9219,726.0156 634.8594,726.0156 Q635.8125,726.0156 636.2422,725.0156 Q636.6719,724.0156 636.6719,721.7813 Q636.6719,719.5469 636.2422,718.5469 Q635.8125,717.5469 634.8594,717.5469 Z M630.5156,721.7813 Q630.5156,718.6094 631.6172,716.9766 Q632.7188,715.3438 634.8594,715.3438 Q637.0156,715.3438 638.1172,716.9766 Q639.2188,718.6094 639.2188,721.7813 Q639.2188,724.9531 638.1172,726.5781 Q637.0156,728.2031 634.8594,728.2031 Q632.7188,728.2031 631.6172,726.5781 Q630.5156,724.9531 630.5156,721.7813 Z "/><text fill="#000000" font-family="sans-serif" font-size="12" font-style="italic" lengthAdjust="spacingAndGlyphs" textLength="53" x="663.75" y="719.1387">«Object»</text><text fill="#000000" font-family="sans-serif" font-size="12" lengthAdjust="spacingAndGlyphs" textLength="70" x="655.25" y="733.1074">SourceMap</text><line style="stroke: #A80036; stroke-width: 1.5;" x1="524" x2="824" y1="740.9375" y2="740.9375"/><ellipse cx="534" cy="752.8398" fill="none" rx="3" ry="3" style="stroke: #038048; stroke-width: 1.0;"/><text fill="#000000" font-family="sans-serif" font-size="11" lengthAdjust="spacingAndGlyphs" textLength="276" x="543" y="755.1479">sourceMap : Map&lt;ByteOffset =&gt; SourceRange&gt;</text><ellipse cx="534" cy="765.6445" fill="none" rx="3" ry="3" style="stroke: #038048; stroke-width: 1.0;"/><text fill="#000000" font-family="sans-serif" font-size="11" lengthAdjust="spacingAndGlyphs" textLength="101" x="543" y="767.9526">sources: Sources</text><line style="stroke: #A80036; stroke-width: 1.5;" x1="524" x2="824" y1="774.5469" y2="774.5469"/><!--class SourceRange--><rect fill="#FEFECE" filter="url(#fhyz6ns0sd5kx)" height="105.1563" id="SourceRange" style="stroke: #A80036; stroke-width: 1.5;" width="125" x="611.75" y="862.5"/><ellipse cx="630.8" cy="881.4688" fill="#DA70D6" rx="11" ry="11" style="stroke: #A80036; stroke-width: 1.0;"/><path d="M630.9094,877.0469 Q629.9719,877.0469 629.5422,878.0469 Q629.1125,879.0469 629.1125,881.2813 Q629.1125,883.5156 629.5422,884.5156 Q629.9719,885.5156 630.9094,885.5156 Q631.8625,885.5156 632.2922,884.5156 Q632.7219,883.5156 632.7219,881.2813 Q632.7219,879.0469 632.2922,878.0469 Q631.8625,877.0469 630.9094,877.0469 Z M626.5656,881.2813 Q626.5656,878.1094 627.6672,876.4766 Q628.7688,874.8438 630.9094,874.8438 Q633.0656,874.8438 634.1672,876.4766 Q635.2688,878.1094 635.2688,881.2813 Q635.2688,884.4531 634.1672,886.0781 Q633.0656,887.7031 630.9094,887.7031 Q628.7688,887.7031 627.6672,886.0781 Q626.5656,884.4531 626.5656,881.2813 Z "/><text fill="#000000" font-family="sans-serif" font-size="12" font-style="italic" lengthAdjust="spacingAndGlyphs" textLength="53" x="661.2" y="878.6387">«Object»</text><text fill="#000000" font-family="sans-serif" font-size="12" lengthAdjust="spacingAndGlyphs" textLength="84" x="645.7" y="892.6074">SourceRange</text><line style="stroke: #A80036; stroke-width: 1.5;" x1="612.75" x2="735.75" y1="900.4375" y2="900.4375"/><ellipse cx="622.75" cy="912.3398" fill="none" rx="3" ry="3" style="stroke: #038048; stroke-width: 1.0;"/><text fill="#000000" font-family="sans-serif" font-size="11" lengthAdjust="spacingAndGlyphs" textLength="91" x="631.75" y="914.6479">source : Source</text><ellipse cx="622.75" cy="925.1445" fill="none" rx="3" ry="3" style="stroke: #038048; stroke-width: 1.0;"/><text fill="#000000" font-family="sans-serif" font-size="11" lengthAdjust="spacingAndGlyphs" textLength="99" x="631.75" y="927.4526">start : ByteOffset</text><ellipse cx="622.75" cy="937.9492" fill="none" rx="3" ry="3" style="stroke: #038048; stroke-width: 1.0;"/><text fill="#000000" font-family="sans-serif" font-size="11" lengthAdjust="spacingAndGlyphs" textLength="85" x="631.75" y="940.2573">length : Length</text><ellipse cx="622.75" cy="950.7539" fill="none" rx="3" ry="3" style="stroke: #038048; stroke-width: 1.0;"/><text fill="#000000" font-family="sans-serif" font-size="11" lengthAdjust="spacingAndGlyphs" textLength="77" x="631.75" y="953.062">meta : Object</text><line style="stroke: #A80036; stroke-width: 1.5;" x1="612.75" x2="735.75" y1="959.6563" y2="959.6563"/><!--class LinkValue--><rect fill="#FEFECE" filter="url(#fhyz6ns0sd5kx)" height="79.5469" id="LinkValue" style="stroke: #A80036; stroke-width: 1.5;" width="193" x="570.75" y="212"/><ellipse cx="633.5" cy="230.9688" fill="#DA70D6" rx="11" ry="11" style="stroke: #A80036; stroke-width: 1.0;"/><path d="M633.6094,226.5469 Q632.6719,226.5469 632.2422,227.5469 Q631.8125,228.5469 631.8125,230.7813 Q631.8125,233.0156 632.2422,234.0156 Q632.6719,235.0156 633.6094,235.0156 Q634.5625,235.0156 634.9922,234.0156 Q635.4219,233.0156 635.4219,230.7813 Q635.4219,228.5469 634.9922,227.5469 Q634.5625,226.5469 633.6094,226.5469 Z M629.2656,230.7813 Q629.2656,227.6094 630.3672,225.9766 Q631.4688,224.3438 633.6094,224.3438 Q635.7656,224.3438 636.8672,225.9766 Q637.9688,227.6094 637.9688,230.7813 Q637.9688,233.9531 636.8672,235.5781 Q635.7656,237.2031 633.6094,237.2031 Q631.4688,237.2031 630.3672,235.5781 Q629.2656,233.9531 629.2656,230.7813 Z "/><text fill="#000000" font-family="sans-serif" font-size="12" font-style="italic" lengthAdjust="spacingAndGlyphs" textLength="53" x="657" y="228.1387">«Object»</text><text fill="#000000" font-family="sans-serif" font-size="12" lengthAdjust="spacingAndGlyphs" textLength="59" x="654" y="242.1074">LinkValue</text><line style="stroke: #A80036; stroke-width: 1.5;" x1="571.75" x2="762.75" y1="249.9375" y2="249.9375"/><ellipse cx="581.75" cy="261.8398" fill="none" rx="3" ry="3" style="stroke: #038048; stroke-width: 1.0;"/><text fill="#000000" font-family="sans-serif" font-size="11" lengthAdjust="spacingAndGlyphs" textLength="167" x="590.75" y="264.1479">linkReference : LinkReference</text><ellipse cx="581.75" cy="274.6445" fill="none" rx="3" ry="3" style="stroke: #038048; stroke-width: 1.0;"/><text fill="#000000" font-family="sans-serif" font-size="11" lengthAdjust="spacingAndGlyphs" textLength="74" x="590.75" y="276.9526">value : Bytes</text><line style="stroke: #A80036; stroke-width: 1.5;" x1="571.75" x2="762.75" y1="283.5469" y2="283.5469"/><!--class LinkReference--><rect fill="#FEFECE" filter="url(#fhyz6ns0sd5kx)" height="79.5469" id="LinkReference" style="stroke: #A80036; stroke-width: 1.5;" width="186" x="574.5" y="365"/><ellipse cx="619.25" cy="383.9688" fill="#DA70D6" rx="11" ry="11" style="stroke: #A80036; stroke-width: 1.0;"/><path d="M619.3594,379.5469 Q618.4219,379.5469 617.9922,380.5469 Q617.5625,381.5469 617.5625,383.7813 Q617.5625,386.0156 617.9922,387.0156 Q618.4219,388.0156 619.3594,388.0156 Q620.3125,388.0156 620.7422,387.0156 Q621.1719,386.0156 621.1719,383.7813 Q621.1719,381.5469 620.7422,380.5469 Q620.3125,379.5469 619.3594,379.5469 Z M615.0156,383.7813 Q615.0156,380.6094 616.1172,378.9766 Q617.2188,377.3438 619.3594,377.3438 Q621.5156,377.3438 622.6172,378.9766 Q623.7188,380.6094 623.7188,383.7813 Q623.7188,386.9531 622.6172,388.5781 Q621.5156,390.2031 619.3594,390.2031 Q617.2188,390.2031 616.1172,388.5781 Q615.0156,386.9531 615.0156,383.7813 Z "/><text fill="#000000" font-family="sans-serif" font-size="12" font-style="italic" lengthAdjust="spacingAndGlyphs" textLength="53" x="657.25" y="381.1387">«Object»</text><text fill="#000000" font-family="sans-serif" font-size="12" lengthAdjust="spacingAndGlyphs" textLength="88" x="639.75" y="395.1074">LinkReference</text><line style="stroke: #A80036; stroke-width: 1.5;" x1="575.5" x2="759.5" y1="402.9375" y2="402.9375"/><ellipse cx="585.5" cy="414.8398" fill="none" rx="3" ry="3" style="stroke: #038048; stroke-width: 1.0;"/><text fill="#000000" font-family="sans-serif" font-size="11" lengthAdjust="spacingAndGlyphs" textLength="160" x="594.5" y="417.1479">offsets : Array&lt;ByteOffset&gt;</text><ellipse cx="585.5" cy="427.6445" fill="none" rx="3" ry="3" style="stroke: #038048; stroke-width: 1.0;"/><text fill="#000000" font-family="sans-serif" font-size="11" lengthAdjust="spacingAndGlyphs" textLength="87" x="594.5" y="429.9526">length : Integer</text><line style="stroke: #A80036; stroke-width: 1.5;" x1="575.5" x2="759.5" y1="436.5469" y2="436.5469"/><!--link ContractInstance to ContractType--><path d="M468.188,163.546 C432.98,223.085 386.545,301.613 356.48,352.456 " fill="none" id="ContractInstance-ContractType" style="stroke: #A80036; stroke-width: 1.0;"/><polygon fill="#FFFFFF" points="474.848,152.284,468.3509,155.4125,468.7399,162.6131,475.237,159.4846,474.848,152.284" style="stroke: #A80036; stroke-width: 1.0;"/><text fill="#000000" font-family="sans-serif" font-size="13" lengthAdjust="spacingAndGlyphs" textLength="8" x="350.3683" y="341.4633">1</text><!--link ContractInstance to Bytecode--><path d="M510.129,165.477 C507.187,244.828 511.966,364.948 556,458 C566.656,480.518 583.762,501.179 601.386,518.459 " fill="none" id="ContractInstance-Bytecode" style="stroke: #A80036; stroke-width: 1.0;"/><polygon fill="#A80036" points="510.711,152.128,506.4531,157.9478,510.1875,164.1166,514.4455,158.2968,510.711,152.128" style="stroke: #A80036; stroke-width: 1.0;"/><text fill="#000000" font-family="sans-serif" font-size="13" lengthAdjust="spacingAndGlyphs" textLength="8" x="584.1923" y="507.4667">1</text><!--link ContractInstance to LinkValue--><path d="M588.654,162.208 C603.856,179.436 619.24,196.872 632.304,211.678 " fill="none" id="ContractInstance-LinkValue" style="stroke: #A80036; stroke-width: 1.0;"/><polygon fill="#A80036" points="579.744,152.11,580.7148,159.2555,587.684,161.1076,586.7132,153.9621,579.744,152.11" style="stroke: #A80036; stroke-width: 1.0;"/><text fill="#000000" font-family="sans-serif" font-size="13" lengthAdjust="spacingAndGlyphs" textLength="8" x="617.6866" y="200.9205">n</text><!--link ContractInstance to Network--><path d="M643.49,80 C651.06,80 658.63,80 666.199,80 " fill="none" id="ContractInstance-Network" style="stroke: #A80036; stroke-width: 1.0;"/><polygon fill="#FFFFFF" points="630.312,80,636.312,84,642.312,80,636.312,76,630.312,80" style="stroke: #A80036; stroke-width: 1.0;"/><text fill="#000000" font-family="sans-serif" font-size="13" lengthAdjust="spacingAndGlyphs" textLength="8" x="650.5491" y="75.3872">1</text><!--link ContractType to ContractTypes--><path d="M261.418,457.666 C232.615,480.708 199.161,507.471 172.134,529.093 " fill="none" id="ContractType-ContractTypes" style="stroke: #A80036; stroke-width: 1.0;"/><polygon fill="#A80036" points="161.736,537.411,168.92,536.7862,171.1063,529.9145,163.9223,530.5393,161.736,537.411" style="stroke: #A80036; stroke-width: 1.0;"/><text fill="#000000" font-family="sans-serif" font-size="13" lengthAdjust="spacingAndGlyphs" textLength="8" x="243.0007" y="477.8161">n</text><!--link ContractType to Bytecode--><path d="M426.624,454.394 C468.557,474.561 517.309,498.008 559.904,518.493 " fill="none" id="ContractType-Bytecode" style="stroke: #A80036; stroke-width: 1.0;"/><polygon fill="#A80036" points="414.704,448.661,418.3776,454.8662,425.5184,453.8618,421.8448,447.6566,414.704,448.661" style="stroke: #A80036; stroke-width: 1.0;"/><text fill="#000000" font-family="sans-serif" font-size="13" lengthAdjust="spacingAndGlyphs" textLength="8" x="537.914" y="507.5046">1</text><!--link ContractType to Compilation--><path d="M313.573,470.69 C302.619,516.36 283.398,577.46 252,624 C233.215,651.844 206.199,677.027 181.115,696.908 " fill="none" id="ContractType-Compilation" style="stroke: #A80036; stroke-width: 1.0;"/><polygon fill="#FFFFFF" points="316.513,457.945,311.2669,462.8926,313.8162,469.638,319.0623,464.6904,316.513,457.945" style="stroke: #A80036; stroke-width: 1.0;"/><text fill="#000000" font-family="sans-serif" font-size="13" lengthAdjust="spacingAndGlyphs" textLength="24" x="162.8563" y="685.9663">0..1</text><!--link ContractTypes to Compilation--><path d="M119.843,604.778 C119.054,627.146 117.986,657.392 117.054,683.795 " fill="none" id="ContractTypes-Compilation" style="stroke: #A80036; stroke-width: 1.0;"/><polygon fill="#A80036" points="116.596,696.792,120.8058,690.9373,117.0206,684.7995,112.8108,690.6542,116.596,696.792" style="stroke: #A80036; stroke-width: 1.0;"/><text fill="#000000" font-family="sans-serif" font-size="13" lengthAdjust="spacingAndGlyphs" textLength="8" x="109.6572" y="624.2323">n</text><!--link Compilation to Compiler--><path d="M115,802.297 C115,824.112 115,848.539 115,868.9739 " fill="none" id="Compilation-Compiler" style="stroke: #A80036; stroke-width: 1.0;"/><polygon fill="#A80036" points="115,789.111,111,795.111,115,801.111,119,795.111,115,789.111" style="stroke: #A80036; stroke-width: 1.0;"/><text fill="#000000" font-family="sans-serif" font-size="13" lengthAdjust="spacingAndGlyphs" textLength="8" x="105.2953" y="858.0407">1</text><!--link Compilation to Sources--><path d="M225.859,743 C233.338,743 240.817,743 248.296,743 " fill="none" id="Compilation-Sources" style="stroke: #A80036; stroke-width: 1.0;"/><polygon fill="#A80036" points="212.84,743,218.84,747,224.84,743,218.84,739,212.84,743" style="stroke: #A80036; stroke-width: 1.0;"/><text fill="#000000" font-family="sans-serif" font-size="13" lengthAdjust="spacingAndGlyphs" textLength="8" x="232.4489" y="738.6127">1</text><!--link Sources to Source--><path d="M368,790.092 C368,814.544 368,844.474 368,868.7919 " fill="none" id="Sources-Source" style="stroke: #A80036; stroke-width: 1.0;"/><polygon fill="#A80036" points="368,776.778,364,782.778,368,788.778,372,782.778,368,776.778" style="stroke: #A80036; stroke-width: 1.0;"/><text fill="#000000" font-family="sans-serif" font-size="13" lengthAdjust="spacingAndGlyphs" textLength="8" x="358.3594" y="857.8354">n</text><!--link Bytecode to SourceMap--><path d="M669.679,637.063 C670.592,659.225 671.583,683.303 672.386,702.798 " fill="none" id="Bytecode-SourceMap" style="stroke: #A80036; stroke-width: 1.0;"/><polygon fill="#A80036" points="669.138,623.929,665.3887,630.0887,669.6325,635.9188,673.3819,629.7591,669.138,623.929" style="stroke: #A80036; stroke-width: 1.0;"/><text fill="#000000" font-family="sans-serif" font-size="13" lengthAdjust="spacingAndGlyphs" textLength="24" x="645.3309" y="692.0574">0..1</text><!--link Bytecode to Instruction--><path d="M761.504,630.634 C793.554,650.519 829.047,672.54 859.953,691.715 " fill="none" id="Bytecode-Instruction" style="stroke: #A80036; stroke-width: 1.0;"/><polygon fill="#A80036" points="750.325,623.698,753.3151,630.26,760.5223,630.0237,757.5322,623.4617,750.325,623.698" style="stroke: #A80036; stroke-width: 1.0;"/><text fill="#000000" font-family="sans-serif" font-size="13" lengthAdjust="spacingAndGlyphs" textLength="8" x="844.0961" y="683.0246">n</text><!--link Instruction to Meta--><path d="M941,815.163 C941,831.043 941,847.586 941,862.493 " fill="none" id="Instruction-Meta" style="stroke: #A80036; stroke-width: 1.0;"/><polygon fill="#A80036" points="941,802.029,937,808.029,941,814.029,945,808.029,941,802.029" style="stroke: #A80036; stroke-width: 1.0;"/><text fill="#000000" font-family="sans-serif" font-size="13" lengthAdjust="spacingAndGlyphs" textLength="8" x="931.393" y="851.5046">1</text><!--link Sources to SourceMap--><path d="M487.531,743 C494.891,743 502.251,743 509.611,743 " fill="none" id="Sources-SourceMap" style="stroke: #A80036; stroke-width: 1.0;"/><polygon fill="#FFFFFF" points="522.858,743,516.858,739,510.858,743,516.858,747,522.858,743" style="stroke: #A80036; stroke-width: 1.0;"/><text fill="#000000" font-family="sans-serif" font-size="13" lengthAdjust="spacingAndGlyphs" textLength="8" x="496.5661" y="738.457">1</text><!--link SourceMap to SourceRange--><path d="M674,796.269 C674,817.247 674,841.365 674,862.288 " fill="none" id="SourceMap-SourceRange" style="stroke: #A80036; stroke-width: 1.0;"/><polygon fill="#A80036" points="674,783.001,670,789.001,674,795.001,678,789.001,674,783.001" style="stroke: #A80036; stroke-width: 1.0;"/><text fill="#000000" font-family="sans-serif" font-size="13" lengthAdjust="spacingAndGlyphs" textLength="8" x="664.393" y="851.2759">n</text><!--link Source to SourceRange--><path d="M436.133,915 C490.326,915 544.519,915 598.712,915 " fill="none" id="Source-SourceRange" style="stroke: #A80036; stroke-width: 1.0;"/><polygon fill="#FFFFFF" points="611.746,915,605.746,911,599.746,915,605.746,919,611.746,915" style="stroke: #A80036; stroke-width: 1.0;"/><text fill="#000000" font-family="sans-serif" font-size="13" lengthAdjust="spacingAndGlyphs" textLength="8" x="444.0225" y="910.1252">1</text><!--link LinkReference to Bytecode--><path d="M667,445.282 C667,463.239 667,484.987 667,505.261 " fill="none" id="LinkReference-Bytecode" style="stroke: #A80036; stroke-width: 1.0;"/><polygon fill="#A80036" points="667,518.316,671,512.316,667,506.316,663,512.316,667,518.316" style="stroke: #A80036; stroke-width: 1.0;"/><text fill="#000000" font-family="sans-serif" font-size="13" lengthAdjust="spacingAndGlyphs" textLength="8" x="657.1578" y="464.7104">n</text><!--link LinkValue to LinkReference--><path d="M667,292.279 C667,312.989 667,338.465 667,359.856 " fill="none" id="LinkValue-LinkReference" style="stroke: #A80036; stroke-width: 1.0; stroke-dasharray: 7.0,7.0;"/><polygon fill="#A80036" points="667,364.917,671,355.917,667,359.917,663,355.917,667,364.917" style="stroke: #A80036; stroke-width: 1.0;"/><text fill="#000000" font-family="sans-serif" font-size="13" lengthAdjust="spacingAndGlyphs" textLength="8" x="657.1922" y="353.8913">1</text><!--
@startuml

 class ContractInstance << (O,orchid) Object >> {
  + address : Address
  + network : Network
  + transactionHash : TransactionHash
  + constructorArgs : Array<Value>
  + contractType : ContractType
  + callBytecode : Bytecode
  + linkValues : Set<LinkValue>
 }

 class ContractType << (O,orchid) Object >> {
  + name : String
  + abi : ABI
  + compilation : Compilation
  + createBytecode : Bytecode
 }

 class ContractTypes << (C,deeppink) Collection >> {
  + contractTypes : Set<ContractType>
 }

 class Source << (O,orchid) Object >> {
  + contents : String
  + sourcePath : String
  + ast : AST
 }

 class Sources << (C,deeppink) Collection >> {
  + sources : Map<FileIndex => Source>
 }

 class Network << (O,orchid) Object >> {
  + name : String
  + networkId : NetworkID
 }

 class Compilation << (O,orchid) Object >> {
  + compiler : Compiler
  + sources : Sources
  + contractTypes: ContractTypes
 }

 class Compiler << (O,orchid) Object >> {
  + name : String
  + version : String
  + settings : Object
 }

 class Bytecode << (O,orchid) Object >> {
  + bytes: Array<Byte>
  + sourceMap : SourceMap
  + instructions: Array<Instruction>
  + linkReferences : Set<LinkReference>
 }

 class Instruction << (O,orchid) Object >> {
  + programCounter: String
  + opcode: Integer
  + pushData: String
  + sourceRanges: String
  + meta: Object
 }

class Meta << (O,orchid) Object >> {
  + cost: Integer
  + pops: Integer
  + pushes: Integer
  + dynamic: Integer
 }

 class SourceMap << (O,orchid) Object >> {
  + sourceMap : Map<ByteOffset => SourceRange>
  + sources: Sources
 }

 class SourceRange << (O,orchid) Object >> {
  + source : Source
  + start : ByteOffset
  + length : Length
  + meta : Object
 }

 class LinkValue << (O,orchid) Object >> {
  + linkReference : LinkReference
  + value : Bytes
 }

 class LinkReference << (O,orchid) Object >> {
  + offsets : Array<ByteOffset>
  + length : Integer
 }


 ContractInstance o- - "1" ContractType
 ContractInstance *- - "1" Bytecode
 ContractInstance *- - "n" LinkValue
 ContractInstance o-right- "1" Network

 ContractType "n" - -* ContractTypes
 ContractType *- - "1" Bytecode
 ContractType o- - "0..1" Compilation

 ContractTypes "n" - -* Compilation

 Compilation *-down- "1" Compiler
 Compilation *-right- "1" Sources

 Sources *- - "n" Source

 Bytecode *- - "0..1" SourceMap
 Bytecode *- - "n" Instruction
 Instruction *- - "1" Meta

 SourceMap o-left- "1" Sources
 SourceMap *- - "n" SourceRange
 SourceRange o-left- "1" Source

 LinkReference "n" - -* Bytecode

 LinkValue ..> "1" LinkReference

@enduml

PlantUML version 1.2018.14(Fri Dec 21 16:33:16 UTC 2018)
(GPL source distribution)
Java Runtime: Java(TM) SE Runtime Environment
JVM: Java HotSpot(TM) 64-Bit Server VM
Java Version: 1.8.0_151-b12
Operating System: Linux
OS Version: 4.4.0-101-generic
Default Encoding: UTF-8
Language: en
Country: US
--></g></svg>