<?xml version="1.0" encoding="UTF-8" standalone="no"?><svg xmlns="http://www.w3.org/2000/svg" xmlns:xlink="http://www.w3.org/1999/xlink" contentScriptType="application/ecmascript" contentStyleType="text/css" height="494px" preserveAspectRatio="none" style="width:666px;height:494px;" version="1.1" viewBox="0 0 666 494" width="666px" zoomAndPan="magnify"><defs><filter height="300%" id="f1daj5cutruik2" width="300%" x="-1" y="-1"><feGaussianBlur result="blurOut" stdDeviation="2.0"/><feColorMatrix in="blurOut" result="blurOut2" type="matrix" values="0 0 0 0 0 0 0 0 0 0 0 0 0 0 0 0 0 0 .4 0"/><feOffset dx="4.0" dy="4.0" in="blurOut2" result="blurOut3"/><feBlend in="SourceGraphic" in2="blurOut3" mode="normal"/></filter></defs><g><!--class ContractInstance--><rect fill="#FEFECE" filter="url(#f1daj5cutruik2)" height="143.5703" id="ContractInstance" style="stroke: #A80036; stroke-width: 1.5;" width="227" x="242.75" y="8"/><ellipse cx="298" cy="26.9688" fill="#DA70D6" rx="11" ry="11" style="stroke: #A80036; stroke-width: 1.0;"/><path d="M298.1094,22.5469 Q297.1719,22.5469 296.7422,23.5469 Q296.3125,24.5469 296.3125,26.7813 Q296.3125,29.0156 296.7422,30.0156 Q297.1719,31.0156 298.1094,31.0156 Q299.0625,31.0156 299.4922,30.0156 Q299.9219,29.0156 299.9219,26.7813 Q299.9219,24.5469 299.4922,23.5469 Q299.0625,22.5469 298.1094,22.5469 Z M293.7656,26.7813 Q293.7656,23.6094 294.8672,21.9766 Q295.9688,20.3438 298.1094,20.3438 Q300.2656,20.3438 301.3672,21.9766 Q302.4688,23.6094 302.4688,26.7813 Q302.4688,29.9531 301.3672,31.5781 Q300.2656,33.2031 298.1094,33.2031 Q295.9688,33.2031 294.8672,31.5781 Q293.7656,29.9531 293.7656,26.7813 Z "/><text fill="#000000" font-family="sans-serif" font-size="12" font-style="italic" lengthAdjust="spacingAndGlyphs" textLength="53" x="346" y="24.1387">«Object»</text><text fill="#000000" font-family="sans-serif" font-size="12" lengthAdjust="spacingAndGlyphs" textLength="108" x="318.5" y="38.1074">ContractInstance</text><line style="stroke: #A80036; stroke-width: 1.5;" x1="243.75" x2="468.75" y1="45.9375" y2="45.9375"/><ellipse cx="253.75" cy="57.8398" fill="none" rx="3" ry="3" style="stroke: #038048; stroke-width: 1.0;"/><text fill="#000000" font-family="sans-serif" font-size="11" lengthAdjust="spacingAndGlyphs" textLength="106" x="262.75" y="60.1479">address : Address</text><ellipse cx="253.75" cy="70.6445" fill="none" rx="3" ry="3" style="stroke: #038048; stroke-width: 1.0;"/><text fill="#000000" font-family="sans-serif" font-size="11" lengthAdjust="spacingAndGlyphs" textLength="103" x="262.75" y="72.9526">network : Network</text><ellipse cx="253.75" cy="83.4492" fill="none" rx="3" ry="3" style="stroke: #038048; stroke-width: 1.0;"/><text fill="#000000" font-family="sans-serif" font-size="11" lengthAdjust="spacingAndGlyphs" textLength="201" x="262.75" y="85.7573">transactionHash : TransactionHash</text><ellipse cx="253.75" cy="96.2539" fill="none" rx="3" ry="3" style="stroke: #038048; stroke-width: 1.0;"/><text fill="#000000" font-family="sans-serif" font-size="11" lengthAdjust="spacingAndGlyphs" textLength="182" x="262.75" y="98.562">constructorArgs : Array&lt;Value&gt;</text><ellipse cx="253.75" cy="109.0586" fill="none" rx="3" ry="3" style="stroke: #038048; stroke-width: 1.0;"/><text fill="#000000" font-family="sans-serif" font-size="11" lengthAdjust="spacingAndGlyphs" textLength="160" x="262.75" y="111.3667">contractType : ContractType</text><ellipse cx="253.75" cy="121.8633" fill="none" rx="3" ry="3" style="stroke: #038048; stroke-width: 1.0;"/><text fill="#000000" font-family="sans-serif" font-size="11" lengthAdjust="spacingAndGlyphs" textLength="135" x="262.75" y="124.1714">callBytecode : Bytecode</text><ellipse cx="253.75" cy="134.668" fill="none" rx="3" ry="3" style="stroke: #038048; stroke-width: 1.0;"/><text fill="#000000" font-family="sans-serif" font-size="11" lengthAdjust="spacingAndGlyphs" textLength="159" x="262.75" y="136.9761">linkValues : Set&lt;LinkValue&gt;</text><line style="stroke: #A80036; stroke-width: 1.5;" x1="243.75" x2="468.75" y1="143.5703" y2="143.5703"/><!--class ContractType--><rect fill="#FEFECE" filter="url(#f1daj5cutruik2)" height="105.1563" id="ContractType" style="stroke: #A80036; stroke-width: 1.5;" width="178" x="125.5" y="212.5"/><ellipse cx="168.85" cy="231.4688" fill="#DA70D6" rx="11" ry="11" style="stroke: #A80036; stroke-width: 1.0;"/><path d="M168.9594,227.0469 Q168.0219,227.0469 167.5922,228.0469 Q167.1625,229.0469 167.1625,231.2813 Q167.1625,233.5156 167.5922,234.5156 Q168.0219,235.5156 168.9594,235.5156 Q169.9125,235.5156 170.3422,234.5156 Q170.7719,233.5156 170.7719,231.2813 Q170.7719,229.0469 170.3422,228.0469 Q169.9125,227.0469 168.9594,227.0469 Z M164.6156,231.2813 Q164.6156,228.1094 165.7172,226.4766 Q166.8188,224.8438 168.9594,224.8438 Q171.1156,224.8438 172.2172,226.4766 Q173.3188,228.1094 173.3188,231.2813 Q173.3188,234.4531 172.2172,236.0781 Q171.1156,237.7031 168.9594,237.7031 Q166.8188,237.7031 165.7172,236.0781 Q164.6156,234.4531 164.6156,231.2813 Z "/><text fill="#000000" font-family="sans-serif" font-size="12" font-style="italic" lengthAdjust="spacingAndGlyphs" textLength="53" x="204.15" y="228.6387">«Object»</text><text fill="#000000" font-family="sans-serif" font-size="12" lengthAdjust="spacingAndGlyphs" textLength="83" x="189.15" y="242.6074">ContractType</text><line style="stroke: #A80036; stroke-width: 1.5;" x1="126.5" x2="302.5" y1="250.4375" y2="250.4375"/><ellipse cx="136.5" cy="262.3398" fill="none" rx="3" ry="3" style="stroke: #038048; stroke-width: 1.0;"/><text fill="#000000" font-family="sans-serif" font-size="11" lengthAdjust="spacingAndGlyphs" textLength="78" x="145.5" y="264.6479">name : String</text><ellipse cx="136.5" cy="275.1445" fill="none" rx="3" ry="3" style="stroke: #038048; stroke-width: 1.0;"/><text fill="#000000" font-family="sans-serif" font-size="11" lengthAdjust="spacingAndGlyphs" textLength="47" x="145.5" y="277.4526">abi : ABI</text><ellipse cx="136.5" cy="287.9492" fill="none" rx="3" ry="3" style="stroke: #038048; stroke-width: 1.0;"/><text fill="#000000" font-family="sans-serif" font-size="11" lengthAdjust="spacingAndGlyphs" textLength="144" x="145.5" y="290.2573">compilation : Compilation</text><ellipse cx="136.5" cy="300.7539" fill="none" rx="3" ry="3" style="stroke: #038048; stroke-width: 1.0;"/><text fill="#000000" font-family="sans-serif" font-size="11" lengthAdjust="spacingAndGlyphs" textLength="152" x="145.5" y="303.062">createBytecode : Bytecode</text><line style="stroke: #A80036; stroke-width: 1.5;" x1="126.5" x2="302.5" y1="309.6563" y2="309.6563"/><!--class Network--><rect fill="#FEFECE" filter="url(#f1daj5cutruik2)" height="79.5469" id="Network" style="stroke: #A80036; stroke-width: 1.5;" width="150" x="505.5" y="40"/><ellipse cx="550.75" cy="58.9688" fill="#DA70D6" rx="11" ry="11" style="stroke: #A80036; stroke-width: 1.0;"/><path d="M550.8594,54.5469 Q549.9219,54.5469 549.4922,55.5469 Q549.0625,56.5469 549.0625,58.7813 Q549.0625,61.0156 549.4922,62.0156 Q549.9219,63.0156 550.8594,63.0156 Q551.8125,63.0156 552.2422,62.0156 Q552.6719,61.0156 552.6719,58.7813 Q552.6719,56.5469 552.2422,55.5469 Q551.8125,54.5469 550.8594,54.5469 Z M546.5156,58.7813 Q546.5156,55.6094 547.6172,53.9766 Q548.7188,52.3438 550.8594,52.3438 Q553.0156,52.3438 554.1172,53.9766 Q555.2188,55.6094 555.2188,58.7813 Q555.2188,61.9531 554.1172,63.5781 Q553.0156,65.2031 550.8594,65.2031 Q548.7188,65.2031 547.6172,63.5781 Q546.5156,61.9531 546.5156,58.7813 Z "/><text fill="#000000" font-family="sans-serif" font-size="12" font-style="italic" lengthAdjust="spacingAndGlyphs" textLength="53" x="570.25" y="56.1387">«Object»</text><text fill="#000000" font-family="sans-serif" font-size="12" lengthAdjust="spacingAndGlyphs" textLength="51" x="571.25" y="70.1074">Network</text><line style="stroke: #A80036; stroke-width: 1.5;" x1="506.5" x2="654.5" y1="77.9375" y2="77.9375"/><ellipse cx="516.5" cy="89.8398" fill="none" rx="3" ry="3" style="stroke: #038048; stroke-width: 1.0;"/><text fill="#000000" font-family="sans-serif" font-size="11" lengthAdjust="spacingAndGlyphs" textLength="78" x="525.5" y="92.1479">name : String</text><ellipse cx="516.5" cy="102.6445" fill="none" rx="3" ry="3" style="stroke: #038048; stroke-width: 1.0;"/><text fill="#000000" font-family="sans-serif" font-size="11" lengthAdjust="spacingAndGlyphs" textLength="124" x="525.5" y="104.9526">networkId : NetworkID</text><line style="stroke: #A80036; stroke-width: 1.5;" x1="506.5" x2="654.5" y1="111.5469" y2="111.5469"/><!--class Compilation--><rect fill="#FEFECE" filter="url(#f1daj5cutruik2)" height="92.3516" id="Compilation" style="stroke: #A80036; stroke-width: 1.5;" width="196" x="6.5" y="385"/><ellipse cx="63.75" cy="403.9688" fill="#DA70D6" rx="11" ry="11" style="stroke: #A80036; stroke-width: 1.0;"/><path d="M63.8594,399.5469 Q62.9219,399.5469 62.4922,400.5469 Q62.0625,401.5469 62.0625,403.7813 Q62.0625,406.0156 62.4922,407.0156 Q62.9219,408.0156 63.8594,408.0156 Q64.8125,408.0156 65.2422,407.0156 Q65.6719,406.0156 65.6719,403.7813 Q65.6719,401.5469 65.2422,400.5469 Q64.8125,399.5469 63.8594,399.5469 Z M59.5156,403.7813 Q59.5156,400.6094 60.6172,398.9766 Q61.7188,397.3438 63.8594,397.3438 Q66.0156,397.3438 67.1172,398.9766 Q68.2188,400.6094 68.2188,403.7813 Q68.2188,406.9531 67.1172,408.5781 Q66.0156,410.2031 63.8594,410.2031 Q61.7188,410.2031 60.6172,408.5781 Q59.5156,406.9531 59.5156,403.7813 Z "/><text fill="#000000" font-family="sans-serif" font-size="12" font-style="italic" lengthAdjust="spacingAndGlyphs" textLength="53" x="94.25" y="401.1387">«Object»</text><text fill="#000000" font-family="sans-serif" font-size="12" lengthAdjust="spacingAndGlyphs" textLength="73" x="84.25" y="415.1074">Compilation</text><line style="stroke: #A80036; stroke-width: 1.5;" x1="7.5" x2="201.5" y1="422.9375" y2="422.9375"/><ellipse cx="17.5" cy="434.8398" fill="none" rx="3" ry="3" style="stroke: #038048; stroke-width: 1.0;"/><text fill="#000000" font-family="sans-serif" font-size="11" lengthAdjust="spacingAndGlyphs" textLength="112" x="26.5" y="437.1479">compiler : Compiler</text><ellipse cx="17.5" cy="447.6445" fill="none" rx="3" ry="3" style="stroke: #038048; stroke-width: 1.0;"/><text fill="#000000" font-family="sans-serif" font-size="11" lengthAdjust="spacingAndGlyphs" textLength="105" x="26.5" y="449.9526">sources : Sources</text><ellipse cx="17.5" cy="460.4492" fill="none" rx="3" ry="3" style="stroke: #038048; stroke-width: 1.0;"/><text fill="#000000" font-family="sans-serif" font-size="11" lengthAdjust="spacingAndGlyphs" textLength="170" x="26.5" y="462.7573">contractTypes: ContractTypes</text><line style="stroke: #A80036; stroke-width: 1.5;" x1="7.5" x2="201.5" y1="469.3516" y2="469.3516"/><!--class Bytecode--><rect fill="#FEFECE" filter="url(#f1daj5cutruik2)" height="105.1563" id="Bytecode" style="stroke: #A80036; stroke-width: 1.5;" width="237" x="237.75" y="378.5"/><ellipse cx="323" cy="397.4688" fill="#DA70D6" rx="11" ry="11" style="stroke: #A80036; stroke-width: 1.0;"/><path d="M323.1094,393.0469 Q322.1719,393.0469 321.7422,394.0469 Q321.3125,395.0469 321.3125,397.2813 Q321.3125,399.5156 321.7422,400.5156 Q322.1719,401.5156 323.1094,401.5156 Q324.0625,401.5156 324.4922,400.5156 Q324.9219,399.5156 324.9219,397.2813 Q324.9219,395.0469 324.4922,394.0469 Q324.0625,393.0469 323.1094,393.0469 Z M318.7656,397.2813 Q318.7656,394.1094 319.8672,392.4766 Q320.9688,390.8438 323.1094,390.8438 Q325.2656,390.8438 326.3672,392.4766 Q327.4688,394.1094 327.4688,397.2813 Q327.4688,400.4531 326.3672,402.0781 Q325.2656,403.7031 323.1094,403.7031 Q320.9688,403.7031 319.8672,402.0781 Q318.7656,400.4531 318.7656,397.2813 Z "/><text fill="#000000" font-family="sans-serif" font-size="12" font-style="italic" lengthAdjust="spacingAndGlyphs" textLength="53" x="346" y="394.6387">«Object»</text><text fill="#000000" font-family="sans-serif" font-size="12" lengthAdjust="spacingAndGlyphs" textLength="58" x="343.5" y="408.6074">Bytecode</text><line style="stroke: #A80036; stroke-width: 1.5;" x1="238.75" x2="473.75" y1="416.4375" y2="416.4375"/><ellipse cx="248.75" cy="428.3398" fill="none" rx="3" ry="3" style="stroke: #038048; stroke-width: 1.0;"/><text fill="#000000" font-family="sans-serif" font-size="11" lengthAdjust="spacingAndGlyphs" textLength="112" x="257.75" y="430.6479">bytes: Array&lt;Byte&gt;</text><ellipse cx="248.75" cy="441.1445" fill="none" rx="3" ry="3" style="stroke: #038048; stroke-width: 1.0;"/><text fill="#000000" font-family="sans-serif" font-size="11" lengthAdjust="spacingAndGlyphs" textLength="183" x="257.75" y="443.4526">instructions: Array&lt;Instruction&gt;</text><ellipse cx="248.75" cy="453.9492" fill="none" rx="3" ry="3" style="stroke: #038048; stroke-width: 1.0;"/><text fill="#000000" font-family="sans-serif" font-size="11" lengthAdjust="spacingAndGlyphs" textLength="137" x="257.75" y="456.2573">sourceMap : SourceMap</text><ellipse cx="248.75" cy="466.7539" fill="none" rx="3" ry="3" style="stroke: #038048; stroke-width: 1.0;"/><text fill="#000000" font-family="sans-serif" font-size="11" lengthAdjust="spacingAndGlyphs" textLength="211" x="257.75" y="469.062">linkReferences : Set&lt;LinkReference&gt;</text><line style="stroke: #A80036; stroke-width: 1.5;" x1="238.75" x2="473.75" y1="475.6563" y2="475.6563"/><!--class LinkValue--><rect fill="#FEFECE" filter="url(#f1daj5cutruik2)" height="79.5469" id="LinkValue" style="stroke: #A80036; stroke-width: 1.5;" width="193" x="409.75" y="225"/><ellipse cx="472.5" cy="243.9688" fill="#DA70D6" rx="11" ry="11" style="stroke: #A80036; stroke-width: 1.0;"/><path d="M472.6094,239.5469 Q471.6719,239.5469 471.2422,240.5469 Q470.8125,241.5469 470.8125,243.7813 Q470.8125,246.0156 471.2422,247.0156 Q471.6719,248.0156 472.6094,248.0156 Q473.5625,248.0156 473.9922,247.0156 Q474.4219,246.0156 474.4219,243.7813 Q474.4219,241.5469 473.9922,240.5469 Q473.5625,239.5469 472.6094,239.5469 Z M468.2656,243.7813 Q468.2656,240.6094 469.3672,238.9766 Q470.4688,237.3438 472.6094,237.3438 Q474.7656,237.3438 475.8672,238.9766 Q476.9688,240.6094 476.9688,243.7813 Q476.9688,246.9531 475.8672,248.5781 Q474.7656,250.2031 472.6094,250.2031 Q470.4688,250.2031 469.3672,248.5781 Q468.2656,246.9531 468.2656,243.7813 Z "/><text fill="#000000" font-family="sans-serif" font-size="12" font-style="italic" lengthAdjust="spacingAndGlyphs" textLength="53" x="496" y="241.1387">«Object»</text><text fill="#000000" font-family="sans-serif" font-size="12" lengthAdjust="spacingAndGlyphs" textLength="59" x="493" y="255.1074">LinkValue</text><line style="stroke: #A80036; stroke-width: 1.5;" x1="410.75" x2="601.75" y1="262.9375" y2="262.9375"/><ellipse cx="420.75" cy="274.8398" fill="none" rx="3" ry="3" style="stroke: #038048; stroke-width: 1.0;"/><text fill="#000000" font-family="sans-serif" font-size="11" lengthAdjust="spacingAndGlyphs" textLength="167" x="429.75" y="277.1479">linkReference : LinkReference</text><ellipse cx="420.75" cy="287.6445" fill="none" rx="3" ry="3" style="stroke: #038048; stroke-width: 1.0;"/><text fill="#000000" font-family="sans-serif" font-size="11" lengthAdjust="spacingAndGlyphs" textLength="74" x="429.75" y="289.9526">value : Bytes</text><line style="stroke: #A80036; stroke-width: 1.5;" x1="410.75" x2="601.75" y1="296.5469" y2="296.5469"/><!--link ContractInstance to ContractType--><path d="M292.777,162.477 C279.637,179.411 266.137,196.809 254.107,212.312 " fill="none" id="ContractInstance-ContractType" style="stroke: #A80036; stroke-width: 1.0;"/><polygon fill="#FFFFFF" points="300.896,152.015,294.0574,154.3027,293.5389,161.4952,300.3775,159.2074,300.896,152.015" style="stroke: #A80036; stroke-width: 1.0;"/><text fill="#000000" font-family="sans-serif" font-size="13" lengthAdjust="spacingAndGlyphs" textLength="8" x="249.1084" y="201.3027">1</text><!--link ContractInstance to Bytecode--><path d="M356,165.413 C356,231.831 356,322.241 356,378.321 " fill="none" id="ContractInstance-Bytecode" style="stroke: #A80036; stroke-width: 1.0;"/><polygon fill="#A80036" points="356,152.046,352,158.046,356,164.046,360,158.046,356,152.046" style="stroke: #A80036; stroke-width: 1.0;"/><text fill="#000000" font-family="sans-serif" font-size="13" lengthAdjust="spacingAndGlyphs" textLength="8" x="346.393" y="367.3127">1</text><!--link ContractInstance to LinkValue--><path d="M422.633,162.292 C440.499,184.089 459.007,206.668 474.032,224.999 " fill="none" id="ContractInstance-LinkValue" style="stroke: #A80036; stroke-width: 1.0;"/><polygon fill="#A80036" points="414.209,152.015,414.9191,159.1911,421.8163,161.2956,421.1062,154.1196,414.209,152.015" style="stroke: #A80036; stroke-width: 1.0;"/><text fill="#000000" font-family="sans-serif" font-size="13" lengthAdjust="spacingAndGlyphs" textLength="8" x="459.5656" y="213.9853">n</text><!--link ContractInstance to Network--><path d="M482.49,80 C490.06,80 497.63,80 505.199,80 " fill="none" id="ContractInstance-Network" style="stroke: #A80036; stroke-width: 1.0;"/><polygon fill="#FFFFFF" points="469.312,80,475.312,84,481.312,80,475.312,76,469.312,80" style="stroke: #A80036; stroke-width: 1.0;"/><text fill="#000000" font-family="sans-serif" font-size="13" lengthAdjust="spacingAndGlyphs" textLength="8" x="489.5491" y="75.3872">1</text><!--link ContractType to Bytecode--><path d="M267.736,328.062 C282.126,344.681 297.523,362.463 311.363,378.447 " fill="none" id="ContractType-Bytecode" style="stroke: #A80036; stroke-width: 1.0;"/><polygon fill="#A80036" points="258.93,317.891,259.8335,325.0453,266.7849,326.963,265.8814,319.8087,258.93,317.891" style="stroke: #A80036; stroke-width: 1.0;"/><text fill="#000000" font-family="sans-serif" font-size="13" lengthAdjust="spacingAndGlyphs" textLength="8" x="296.5948" y="367.4533">1</text><!--link ContractType to Compilation--><path d="M171.949,328.695 C159.418,347.376 145.937,367.475 134.313,384.8065 " fill="none" id="ContractType-Compilation" style="stroke: #A80036; stroke-width: 1.0;"/><polygon fill="#FFFFFF" points="179.195,317.891,172.5307,320.6454,172.51,327.8565,179.1743,325.1021,179.195,317.891" style="stroke: #A80036; stroke-width: 1.0;"/><text fill="#000000" font-family="sans-serif" font-size="13" lengthAdjust="spacingAndGlyphs" textLength="24" x="111.4672" y="373.8512">0..1</text><!--
@startuml

class ContractInstance << (O,orchid) Object >> {
 + address : Address
 + network : Network
 + transactionHash : TransactionHash
 + constructorArgs : Array<Value>
 + contractType : ContractType
 + callBytecode : Bytecode
 + linkValues : Set<LinkValue>
}

class ContractType << (O,orchid) Object >> {
 + name : String
 + abi : ABI
 + compilation : Compilation
 + createBytecode : Bytecode
}

class Network << (O,orchid) Object >> {
 + name : String
 + networkId : NetworkID
}

class Compilation << (O,orchid) Object >> {
 + compiler : Compiler
 + sources : Sources
 + contractTypes: ContractTypes
}

class Bytecode << (O,orchid) Object >> {
 + bytes: Array<Byte>
 + instructions: Array<Instruction>
 + sourceMap : SourceMap
 + linkReferences : Set<LinkReference>
}

class LinkValue << (O,orchid) Object >> {
 + linkReference : LinkReference
 + value : Bytes
}

ContractInstance o- - "1" ContractType
ContractInstance *- - "1" Bytecode
ContractInstance *- - "n" LinkValue
ContractInstance o-right- "1" Network

ContractType *- - "1" Bytecode
ContractType o- - "0..1" Compilation

@enduml

PlantUML version 1.2018.14(Fri Dec 21 16:33:16 UTC 2018)
(GPL source distribution)
Java Runtime: Java(TM) SE Runtime Environment
JVM: Java HotSpot(TM) 64-Bit Server VM
Java Version: 1.8.0_151-b12
Operating System: Linux
OS Version: 4.4.0-101-generic
Default Encoding: UTF-8
Language: en
Country: US
--></g></svg>