<?xml version="1.0" encoding="UTF-8" standalone="no"?><svg xmlns="http://www.w3.org/2000/svg" xmlns:xlink="http://www.w3.org/1999/xlink" contentScriptType="application/ecmascript" contentStyleType="text/css" height="468px" preserveAspectRatio="none" style="width:769px;height:468px;" version="1.1" viewBox="0 0 769 468" width="769px" zoomAndPan="magnify"><defs><filter height="300%" id="f178w57p9a1f4p" width="300%" x="-1" y="-1"><feGaussianBlur result="blurOut" stdDeviation="2.0"/><feColorMatrix in="blurOut" result="blurOut2" type="matrix" values="0 0 0 0 0 0 0 0 0 0 0 0 0 0 0 0 0 0 .4 0"/><feOffset dx="4.0" dy="4.0" in="blurOut2" result="blurOut3"/><feBlend in="SourceGraphic" in2="blurOut3" mode="normal"/></filter></defs><g><!--class Bytecode--><rect fill="#FEFECE" filter="url(#f178w57p9a1f4p)" height="105.1563" id="Bytecode" style="stroke: #A80036; stroke-width: 1.5;" width="237" x="430.75" y="8.5"/><ellipse cx="516" cy="27.4688" fill="#DA70D6" rx="11" ry="11" style="stroke: #A80036; stroke-width: 1.0;"/><path d="M516.1094,23.0469 Q515.1719,23.0469 514.7422,24.0469 Q514.3125,25.0469 514.3125,27.2813 Q514.3125,29.5156 514.7422,30.5156 Q515.1719,31.5156 516.1094,31.5156 Q517.0625,31.5156 517.4922,30.5156 Q517.9219,29.5156 517.9219,27.2813 Q517.9219,25.0469 517.4922,24.0469 Q517.0625,23.0469 516.1094,23.0469 Z M511.7656,27.2813 Q511.7656,24.1094 512.8672,22.4766 Q513.9688,20.8438 516.1094,20.8438 Q518.2656,20.8438 519.3672,22.4766 Q520.4688,24.1094 520.4688,27.2813 Q520.4688,30.4531 519.3672,32.0781 Q518.2656,33.7031 516.1094,33.7031 Q513.9688,33.7031 512.8672,32.0781 Q511.7656,30.4531 511.7656,27.2813 Z "/><text fill="#000000" font-family="sans-serif" font-size="12" font-style="italic" lengthAdjust="spacingAndGlyphs" textLength="53" x="539" y="24.6387">«Object»</text><text fill="#000000" font-family="sans-serif" font-size="12" lengthAdjust="spacingAndGlyphs" textLength="58" x="536.5" y="38.6074">Bytecode</text><line style="stroke: #A80036; stroke-width: 1.5;" x1="431.75" x2="666.75" y1="46.4375" y2="46.4375"/><ellipse cx="441.75" cy="58.3398" fill="none" rx="3" ry="3" style="stroke: #038048; stroke-width: 1.0;"/><text fill="#000000" font-family="sans-serif" font-size="11" lengthAdjust="spacingAndGlyphs" textLength="112" x="450.75" y="60.6479">bytes: Array&lt;Byte&gt;</text><ellipse cx="441.75" cy="71.1445" fill="none" rx="3" ry="3" style="stroke: #038048; stroke-width: 1.0;"/><text fill="#000000" font-family="sans-serif" font-size="11" lengthAdjust="spacingAndGlyphs" textLength="137" x="450.75" y="73.4526">sourceMap : SourceMap</text><ellipse cx="441.75" cy="83.9492" fill="none" rx="3" ry="3" style="stroke: #038048; stroke-width: 1.0;"/><text fill="#000000" font-family="sans-serif" font-size="11" lengthAdjust="spacingAndGlyphs" textLength="183" x="450.75" y="86.2573">instructions: Array&lt;Instruction&gt;</text><ellipse cx="441.75" cy="96.7539" fill="none" rx="3" ry="3" style="stroke: #038048; stroke-width: 1.0;"/><text fill="#000000" font-family="sans-serif" font-size="11" lengthAdjust="spacingAndGlyphs" textLength="211" x="450.75" y="99.062">linkReferences : Set&lt;LinkReference&gt;</text><line style="stroke: #A80036; stroke-width: 1.5;" x1="431.75" x2="666.75" y1="105.6563" y2="105.6563"/><!--class Instruction--><rect fill="#FEFECE" filter="url(#f178w57p9a1f4p)" height="117.9609" id="Instruction" style="stroke: #A80036; stroke-width: 1.5;" width="162" x="596" y="174"/><ellipse cx="639.35" cy="192.9688" fill="#DA70D6" rx="11" ry="11" style="stroke: #A80036; stroke-width: 1.0;"/><path d="M639.4594,188.5469 Q638.5219,188.5469 638.0922,189.5469 Q637.6625,190.5469 637.6625,192.7813 Q637.6625,195.0156 638.0922,196.0156 Q638.5219,197.0156 639.4594,197.0156 Q640.4125,197.0156 640.8422,196.0156 Q641.2719,195.0156 641.2719,192.7813 Q641.2719,190.5469 640.8422,189.5469 Q640.4125,188.5469 639.4594,188.5469 Z M635.1156,192.7813 Q635.1156,189.6094 636.2172,187.9766 Q637.3188,186.3438 639.4594,186.3438 Q641.6156,186.3438 642.7172,187.9766 Q643.8188,189.6094 643.8188,192.7813 Q643.8188,195.9531 642.7172,197.5781 Q641.6156,199.2031 639.4594,199.2031 Q637.3188,199.2031 636.2172,197.5781 Q635.1156,195.9531 635.1156,192.7813 Z "/><text fill="#000000" font-family="sans-serif" font-size="12" font-style="italic" lengthAdjust="spacingAndGlyphs" textLength="53" x="666.65" y="190.1387">«Object»</text><text fill="#000000" font-family="sans-serif" font-size="12" lengthAdjust="spacingAndGlyphs" textLength="67" x="659.65" y="204.1074">Instruction</text><line style="stroke: #A80036; stroke-width: 1.5;" x1="597" x2="757" y1="211.9375" y2="211.9375"/><ellipse cx="607" cy="223.8398" fill="none" rx="3" ry="3" style="stroke: #038048; stroke-width: 1.0;"/><text fill="#000000" font-family="sans-serif" font-size="11" lengthAdjust="spacingAndGlyphs" textLength="136" x="616" y="226.1479">programCounter: String</text><ellipse cx="607" cy="236.6445" fill="none" rx="3" ry="3" style="stroke: #038048; stroke-width: 1.0;"/><text fill="#000000" font-family="sans-serif" font-size="11" lengthAdjust="spacingAndGlyphs" textLength="89" x="616" y="238.9526">opcode: Integer</text><ellipse cx="607" cy="249.4492" fill="none" rx="3" ry="3" style="stroke: #038048; stroke-width: 1.0;"/><text fill="#000000" font-family="sans-serif" font-size="11" lengthAdjust="spacingAndGlyphs" textLength="96" x="616" y="251.7573">pushData: String</text><ellipse cx="607" cy="262.2539" fill="none" rx="3" ry="3" style="stroke: #038048; stroke-width: 1.0;"/><text fill="#000000" font-family="sans-serif" font-size="11" lengthAdjust="spacingAndGlyphs" textLength="123" x="616" y="264.562">sourceRanges: String</text><ellipse cx="607" cy="275.0586" fill="none" rx="3" ry="3" style="stroke: #038048; stroke-width: 1.0;"/><text fill="#000000" font-family="sans-serif" font-size="11" lengthAdjust="spacingAndGlyphs" textLength="73" x="616" y="277.3667">meta: Object</text><line style="stroke: #A80036; stroke-width: 1.5;" x1="597" x2="757" y1="283.9609" y2="283.9609"/><!--class Meta--><rect fill="#FEFECE" filter="url(#f178w57p9a1f4p)" height="105.1563" id="Meta" style="stroke: #A80036; stroke-width: 1.5;" width="121" x="616.75" y="352.5"/><ellipse cx="649.75" cy="371.4688" fill="#DA70D6" rx="11" ry="11" style="stroke: #A80036; stroke-width: 1.0;"/><path d="M649.8594,367.0469 Q648.9219,367.0469 648.4922,368.0469 Q648.0625,369.0469 648.0625,371.2813 Q648.0625,373.5156 648.4922,374.5156 Q648.9219,375.5156 649.8594,375.5156 Q650.8125,375.5156 651.2422,374.5156 Q651.6719,373.5156 651.6719,371.2813 Q651.6719,369.0469 651.2422,368.0469 Q650.8125,367.0469 649.8594,367.0469 Z M645.5156,371.2813 Q645.5156,368.1094 646.6172,366.4766 Q647.7188,364.8438 649.8594,364.8438 Q652.0156,364.8438 653.1172,366.4766 Q654.2188,368.1094 654.2188,371.2813 Q654.2188,374.4531 653.1172,376.0781 Q652.0156,377.7031 649.8594,377.7031 Q647.7188,377.7031 646.6172,376.0781 Q645.5156,374.4531 645.5156,371.2813 Z "/><text fill="#000000" font-family="sans-serif" font-size="12" font-style="italic" lengthAdjust="spacingAndGlyphs" textLength="53" x="665.75" y="368.6387">«Object»</text><text fill="#000000" font-family="sans-serif" font-size="12" lengthAdjust="spacingAndGlyphs" textLength="31" x="676.75" y="382.6074">Meta</text><line style="stroke: #A80036; stroke-width: 1.5;" x1="617.75" x2="736.75" y1="390.4375" y2="390.4375"/><ellipse cx="627.75" cy="402.3398" fill="none" rx="3" ry="3" style="stroke: #038048; stroke-width: 1.0;"/><text fill="#000000" font-family="sans-serif" font-size="11" lengthAdjust="spacingAndGlyphs" textLength="72" x="636.75" y="404.6479">cost: Integer</text><ellipse cx="627.75" cy="415.1445" fill="none" rx="3" ry="3" style="stroke: #038048; stroke-width: 1.0;"/><text fill="#000000" font-family="sans-serif" font-size="11" lengthAdjust="spacingAndGlyphs" textLength="76" x="636.75" y="417.4526">pops: Integer</text><ellipse cx="627.75" cy="427.9492" fill="none" rx="3" ry="3" style="stroke: #038048; stroke-width: 1.0;"/><text fill="#000000" font-family="sans-serif" font-size="11" lengthAdjust="spacingAndGlyphs" textLength="90" x="636.75" y="430.2573">pushes: Integer</text><ellipse cx="627.75" cy="440.7539" fill="none" rx="3" ry="3" style="stroke: #038048; stroke-width: 1.0;"/><text fill="#000000" font-family="sans-serif" font-size="11" lengthAdjust="spacingAndGlyphs" textLength="95" x="636.75" y="443.062">dynamic: Integer</text><line style="stroke: #A80036; stroke-width: 1.5;" x1="617.75" x2="736.75" y1="449.6563" y2="449.6563"/><!--class Source--><rect fill="#FEFECE" filter="url(#f178w57p9a1f4p)" height="92.3516" id="Source" style="stroke: #A80036; stroke-width: 1.5;" width="136" x="58" y="359"/><ellipse cx="97.75" cy="377.9688" fill="#DA70D6" rx="11" ry="11" style="stroke: #A80036; stroke-width: 1.0;"/><path d="M97.8594,373.5469 Q96.9219,373.5469 96.4922,374.5469 Q96.0625,375.5469 96.0625,377.7813 Q96.0625,380.0156 96.4922,381.0156 Q96.9219,382.0156 97.8594,382.0156 Q98.8125,382.0156 99.2422,381.0156 Q99.6719,380.0156 99.6719,377.7813 Q99.6719,375.5469 99.2422,374.5469 Q98.8125,373.5469 97.8594,373.5469 Z M93.5156,377.7813 Q93.5156,374.6094 94.6172,372.9766 Q95.7188,371.3438 97.8594,371.3438 Q100.0156,371.3438 101.1172,372.9766 Q102.2188,374.6094 102.2188,377.7813 Q102.2188,380.9531 101.1172,382.5781 Q100.0156,384.2031 97.8594,384.2031 Q95.7188,384.2031 94.6172,382.5781 Q93.5156,380.9531 93.5156,377.7813 Z "/><text fill="#000000" font-family="sans-serif" font-size="12" font-style="italic" lengthAdjust="spacingAndGlyphs" textLength="53" x="115.25" y="375.1387">«Object»</text><text fill="#000000" font-family="sans-serif" font-size="12" lengthAdjust="spacingAndGlyphs" textLength="44" x="119.75" y="389.1074">Source</text><line style="stroke: #A80036; stroke-width: 1.5;" x1="59" x2="193" y1="396.9375" y2="396.9375"/><ellipse cx="69" cy="408.8398" fill="none" rx="3" ry="3" style="stroke: #038048; stroke-width: 1.0;"/><text fill="#000000" font-family="sans-serif" font-size="11" lengthAdjust="spacingAndGlyphs" textLength="95" x="78" y="411.1479">contents : String</text><ellipse cx="69" cy="421.6445" fill="none" rx="3" ry="3" style="stroke: #038048; stroke-width: 1.0;"/><text fill="#000000" font-family="sans-serif" font-size="11" lengthAdjust="spacingAndGlyphs" textLength="110" x="78" y="423.9526">sourcePath : String</text><ellipse cx="69" cy="434.4492" fill="none" rx="3" ry="3" style="stroke: #038048; stroke-width: 1.0;"/><text fill="#000000" font-family="sans-serif" font-size="11" lengthAdjust="spacingAndGlyphs" textLength="52" x="78" y="436.7573">ast : AST</text><line style="stroke: #A80036; stroke-width: 1.5;" x1="59" x2="193" y1="443.3516" y2="443.3516"/><!--class Sources--><rect fill="#FEFECE" filter="url(#f178w57p9a1f4p)" height="66.7422" id="Sources" style="stroke: #A80036; stroke-width: 1.5;" width="240" x="6.5" y="199.5"/><ellipse cx="86.75" cy="218.4688" fill="#FF1493" rx="11" ry="11" style="stroke: #A80036; stroke-width: 1.0;"/><path d="M89.7188,224.1094 Q89.1406,224.4063 88.5,224.5547 Q87.8594,224.7031 87.1563,224.7031 Q84.6563,224.7031 83.3359,223.0547 Q82.0156,221.4063 82.0156,218.2813 Q82.0156,215.1563 83.3359,213.5 Q84.6563,211.8438 87.1563,211.8438 Q87.8594,211.8438 88.5078,212 Q89.1563,212.1563 89.7188,212.4531 L89.7188,215.1719 Q89.0938,214.5938 88.5,214.3203 Q87.9063,214.0469 87.2813,214.0469 Q85.9375,214.0469 85.25,215.1172 Q84.5625,216.1875 84.5625,218.2813 Q84.5625,220.375 85.25,221.4453 Q85.9375,222.5156 87.2813,222.5156 Q87.9063,222.5156 88.5,222.2422 Q89.0938,221.9688 89.7188,221.3906 L89.7188,224.1094 Z "/><text fill="#000000" font-family="sans-serif" font-size="12" font-style="italic" lengthAdjust="spacingAndGlyphs" textLength="75" x="105.25" y="215.6387">«Collection»</text><text fill="#000000" font-family="sans-serif" font-size="12" lengthAdjust="spacingAndGlyphs" textLength="51" x="117.25" y="229.6074">Sources</text><line style="stroke: #A80036; stroke-width: 1.5;" x1="7.5" x2="245.5" y1="237.4375" y2="237.4375"/><ellipse cx="17.5" cy="249.3398" fill="none" rx="3" ry="3" style="stroke: #038048; stroke-width: 1.0;"/><text fill="#000000" font-family="sans-serif" font-size="11" lengthAdjust="spacingAndGlyphs" textLength="214" x="26.5" y="251.6479">sources : Map&lt;FileIndex =&gt; Source&gt;</text><line style="stroke: #A80036; stroke-width: 1.5;" x1="7.5" x2="245.5" y1="258.2422" y2="258.2422"/><!--class SourceMap--><rect fill="#FEFECE" filter="url(#f178w57p9a1f4p)" height="79.5469" id="SourceMap" style="stroke: #A80036; stroke-width: 1.5;" width="280" x="281" y="193"/><ellipse cx="381.75" cy="211.9688" fill="#DA70D6" rx="11" ry="11" style="stroke: #A80036; stroke-width: 1.0;"/><path d="M381.8594,207.5469 Q380.9219,207.5469 380.4922,208.5469 Q380.0625,209.5469 380.0625,211.7813 Q380.0625,214.0156 380.4922,215.0156 Q380.9219,216.0156 381.8594,216.0156 Q382.8125,216.0156 383.2422,215.0156 Q383.6719,214.0156 383.6719,211.7813 Q383.6719,209.5469 383.2422,208.5469 Q382.8125,207.5469 381.8594,207.5469 Z M377.5156,211.7813 Q377.5156,208.6094 378.6172,206.9766 Q379.7188,205.3438 381.8594,205.3438 Q384.0156,205.3438 385.1172,206.9766 Q386.2188,208.6094 386.2188,211.7813 Q386.2188,214.9531 385.1172,216.5781 Q384.0156,218.2031 381.8594,218.2031 Q379.7188,218.2031 378.6172,216.5781 Q377.5156,214.9531 377.5156,211.7813 Z "/><text fill="#000000" font-family="sans-serif" font-size="12" font-style="italic" lengthAdjust="spacingAndGlyphs" textLength="53" x="410.75" y="209.1387">«Object»</text><text fill="#000000" font-family="sans-serif" font-size="12" lengthAdjust="spacingAndGlyphs" textLength="70" x="402.25" y="223.1074">SourceMap</text><line style="stroke: #A80036; stroke-width: 1.5;" x1="282" x2="560" y1="230.9375" y2="230.9375"/><ellipse cx="292" cy="242.8398" fill="none" rx="3" ry="3" style="stroke: #038048; stroke-width: 1.0;"/><text fill="#000000" font-family="sans-serif" font-size="11" lengthAdjust="spacingAndGlyphs" textLength="254" x="301" y="245.1479">ranges : Map&lt;ByteOffset =&gt; SourceRange&gt;</text><ellipse cx="292" cy="255.6445" fill="none" rx="3" ry="3" style="stroke: #038048; stroke-width: 1.0;"/><text fill="#000000" font-family="sans-serif" font-size="11" lengthAdjust="spacingAndGlyphs" textLength="101" x="301" y="257.9526">sources: Sources</text><line style="stroke: #A80036; stroke-width: 1.5;" x1="282" x2="560" y1="264.5469" y2="264.5469"/><!--class SourceRange--><rect fill="#FEFECE" filter="url(#f178w57p9a1f4p)" height="105.1563" id="SourceRange" style="stroke: #A80036; stroke-width: 1.5;" width="125" x="358.75" y="352.5"/><ellipse cx="377.8" cy="371.4688" fill="#DA70D6" rx="11" ry="11" style="stroke: #A80036; stroke-width: 1.0;"/><path d="M377.9094,367.0469 Q376.9719,367.0469 376.5422,368.0469 Q376.1125,369.0469 376.1125,371.2813 Q376.1125,373.5156 376.5422,374.5156 Q376.9719,375.5156 377.9094,375.5156 Q378.8625,375.5156 379.2922,374.5156 Q379.7219,373.5156 379.7219,371.2813 Q379.7219,369.0469 379.2922,368.0469 Q378.8625,367.0469 377.9094,367.0469 Z M373.5656,371.2813 Q373.5656,368.1094 374.6672,366.4766 Q375.7688,364.8438 377.9094,364.8438 Q380.0656,364.8438 381.1672,366.4766 Q382.2688,368.1094 382.2688,371.2813 Q382.2688,374.4531 381.1672,376.0781 Q380.0656,377.7031 377.9094,377.7031 Q375.7688,377.7031 374.6672,376.0781 Q373.5656,374.4531 373.5656,371.2813 Z "/><text fill="#000000" font-family="sans-serif" font-size="12" font-style="italic" lengthAdjust="spacingAndGlyphs" textLength="53" x="408.2" y="368.6387">«Object»</text><text fill="#000000" font-family="sans-serif" font-size="12" lengthAdjust="spacingAndGlyphs" textLength="84" x="392.7" y="382.6074">SourceRange</text><line style="stroke: #A80036; stroke-width: 1.5;" x1="359.75" x2="482.75" y1="390.4375" y2="390.4375"/><ellipse cx="369.75" cy="402.3398" fill="none" rx="3" ry="3" style="stroke: #038048; stroke-width: 1.0;"/><text fill="#000000" font-family="sans-serif" font-size="11" lengthAdjust="spacingAndGlyphs" textLength="91" x="378.75" y="404.6479">source : Source</text><ellipse cx="369.75" cy="415.1445" fill="none" rx="3" ry="3" style="stroke: #038048; stroke-width: 1.0;"/><text fill="#000000" font-family="sans-serif" font-size="11" lengthAdjust="spacingAndGlyphs" textLength="99" x="378.75" y="417.4526">start : ByteOffset</text><ellipse cx="369.75" cy="427.9492" fill="none" rx="3" ry="3" style="stroke: #038048; stroke-width: 1.0;"/><text fill="#000000" font-family="sans-serif" font-size="11" lengthAdjust="spacingAndGlyphs" textLength="85" x="378.75" y="430.2573">length : Length</text><ellipse cx="369.75" cy="440.7539" fill="none" rx="3" ry="3" style="stroke: #038048; stroke-width: 1.0;"/><text fill="#000000" font-family="sans-serif" font-size="11" lengthAdjust="spacingAndGlyphs" textLength="77" x="378.75" y="443.062">meta : Object</text><line style="stroke: #A80036; stroke-width: 1.5;" x1="359.75" x2="482.75" y1="449.6563" y2="449.6563"/><!--link Bytecode to SourceMap--><path d="M501.885,124.575 C484.691,147.41 465.747,172.571 450.516,192.798 " fill="none" id="Bytecode-SourceMap" style="stroke: #A80036; stroke-width: 1.0;"/><polygon fill="#A80036" points="509.9,113.929,503.0955,116.3161,502.6819,123.5154,509.4864,121.1282,509.9,113.929" style="stroke: #A80036; stroke-width: 1.0;"/><text fill="#000000" font-family="sans-serif" font-size="13" lengthAdjust="spacingAndGlyphs" textLength="8" x="444.9636" y="182.0574">1</text><!--link Bytecode to Instruction--><path d="M595.957,124.365 C608.14,140.545 621.212,157.906 633.224,173.86 " fill="none" id="Bytecode-Instruction" style="stroke: #A80036; stroke-width: 1.0;"/><polygon fill="#A80036" points="588.1,113.929,588.5136,121.1282,595.3181,123.5154,594.9045,116.3161,588.1,113.929" style="stroke: #A80036; stroke-width: 1.0;"/><text fill="#000000" font-family="sans-serif" font-size="13" lengthAdjust="spacingAndGlyphs" textLength="8" x="619.194" y="162.9604">n</text><!--link Instruction to Meta--><path d="M677,305.163 C677,321.043 677,337.586 677,352.493 " fill="none" id="Instruction-Meta" style="stroke: #A80036; stroke-width: 1.0;"/><polygon fill="#A80036" points="677,292.029,673,298.029,677,304.029,681,298.029,677,292.029" style="stroke: #A80036; stroke-width: 1.0;"/><text fill="#000000" font-family="sans-serif" font-size="13" lengthAdjust="spacingAndGlyphs" textLength="8" x="667.393" y="341.5046">1</text><!--link Sources to SourceMap--><path d="M245.556,233 C252.909,233 260.262,233 267.615,233 " fill="none" id="Sources-SourceMap" style="stroke: #A80036; stroke-width: 1.0;"/><polygon fill="#FFFFFF" points="280.85,233,274.85,229,268.85,233,274.85,237,280.85,233" style="stroke: #A80036; stroke-width: 1.0;"/><text fill="#000000" font-family="sans-serif" font-size="13" lengthAdjust="spacingAndGlyphs" textLength="8" x="254.5929" y="228.457">1</text><!--link SourceMap to SourceRange--><path d="M421,286.269 C421,307.247 421,331.365 421,352.288 " fill="none" id="SourceMap-SourceRange" style="stroke: #A80036; stroke-width: 1.0;"/><polygon fill="#A80036" points="421,273.001,417,279.001,421,285.001,425,279.001,421,273.001" style="stroke: #A80036; stroke-width: 1.0;"/><text fill="#000000" font-family="sans-serif" font-size="13" lengthAdjust="spacingAndGlyphs" textLength="8" x="411.393" y="341.2759">n</text><!--link Source to SourceRange--><path d="M194.276,405 C244.653,405 295.03,405 345.407,405 " fill="none" id="Source-SourceRange" style="stroke: #A80036; stroke-width: 1.0;"/><polygon fill="#FFFFFF" points="358.562,405,352.562,401,346.562,405,352.562,409,358.562,405" style="stroke: #A80036; stroke-width: 1.0;"/><text fill="#000000" font-family="sans-serif" font-size="13" lengthAdjust="spacingAndGlyphs" textLength="8" x="202.1812" y="400.1252">1</text><!--link Sources to Source--><path d="M126,280.092 C126,304.544 126,334.474 126,358.7919 " fill="none" id="Sources-Source" style="stroke: #A80036; stroke-width: 1.0;"/><polygon fill="#A80036" points="126,266.778,122,272.778,126,278.778,130,272.778,126,266.778" style="stroke: #A80036; stroke-width: 1.0;"/><text fill="#000000" font-family="sans-serif" font-size="13" lengthAdjust="spacingAndGlyphs" textLength="8" x="116.3594" y="347.8354">n</text><!--
@startuml

 class Bytecode << (O,orchid) Object >> {
  + bytes: Array<Byte>
  + sourceMap : SourceMap
  + instructions: Array<Instruction>
  + linkReferences : Set<LinkReference>
 }

 class Instruction << (O,orchid) Object >> {
  + programCounter: String
  + opcode: Integer
  + pushData: String
  + sourceRanges: String
  + meta: Object
 }

class Meta << (O,orchid) Object >> {
  + cost: Integer
  + pops: Integer
  + pushes: Integer
  + dynamic: Integer
 }

 class Source << (O,orchid) Object >> {
  + contents : String
  + sourcePath : String
  + ast : AST
 }

 class Sources << (C,deeppink) Collection >> {
  + sources : Map<FileIndex => Source>
 }

 class SourceMap << (O,orchid) Object >> {
  + ranges : Map<ByteOffset => SourceRange>
  + sources: Sources
 }

 class SourceRange << (O,orchid) Object >> {
  + source : Source
  + start : ByteOffset
  + length : Length
  + meta : Object
 }

 Bytecode *- - "1" SourceMap
 Bytecode *- - "n" Instruction
 Instruction *- - "1" Meta
 SourceMap o-left- "1" Sources
 SourceMap *- - "n" SourceRange
 SourceRange o-left- "1" Source

 Sources *- - "n" Source

@enduml

PlantUML version 1.2018.14(Fri Dec 21 16:33:16 UTC 2018)
(GPL source distribution)
Java Runtime: Java(TM) SE Runtime Environment
JVM: Java HotSpot(TM) 64-Bit Server VM
Java Version: 1.8.0_151-b12
Operating System: Linux
OS Version: 4.4.0-101-generic
Default Encoding: UTF-8
Language: en
Country: US
--></g></svg>