<?xml version="1.0" encoding="UTF-8" standalone="no"?><svg xmlns="http://www.w3.org/2000/svg" xmlns:xlink="http://www.w3.org/1999/xlink" contentScriptType="application/ecmascript" contentStyleType="text/css" height="300px" preserveAspectRatio="none" style="width:308px;height:300px;" version="1.1" viewBox="0 0 308 300" width="308px" zoomAndPan="magnify"><defs><filter height="300%" id="f1vqehj8cpj1lt" width="300%" x="-1" y="-1"><feGaussianBlur result="blurOut" stdDeviation="2.0"/><feColorMatrix in="blurOut" result="blurOut2" type="matrix" values="0 0 0 0 0 0 0 0 0 0 0 0 0 0 0 0 0 0 .4 0"/><feOffset dx="4.0" dy="4.0" in="blurOut2" result="blurOut3"/><feBlend in="SourceGraphic" in2="blurOut3" mode="normal"/></filter></defs><g><!--class A--><rect fill="#FEFECE" filter="url(#f1vqehj8cpj1lt)" height="53.9375" id="A" style="stroke: #A80036; stroke-width: 1.5;" width="81" x="100" y="8"/><ellipse cx="115" cy="26.9688" fill="#DA70D6" rx="11" ry="11" style="stroke: #A80036; stroke-width: 1.0;"/><path d="M115.1094,22.5469 Q114.1719,22.5469 113.7422,23.5469 Q113.3125,24.5469 113.3125,26.7813 Q113.3125,29.0156 113.7422,30.0156 Q114.1719,31.0156 115.1094,31.0156 Q116.0625,31.0156 116.4922,30.0156 Q116.9219,29.0156 116.9219,26.7813 Q116.9219,24.5469 116.4922,23.5469 Q116.0625,22.5469 115.1094,22.5469 Z M110.7656,26.7813 Q110.7656,23.6094 111.8672,21.9766 Q112.9688,20.3438 115.1094,20.3438 Q117.2656,20.3438 118.3672,21.9766 Q119.4688,23.6094 119.4688,26.7813 Q119.4688,29.9531 118.3672,31.5781 Q117.2656,33.2031 115.1094,33.2031 Q112.9688,33.2031 111.8672,31.5781 Q110.7656,29.9531 110.7656,26.7813 Z "/><text fill="#000000" font-family="sans-serif" font-size="12" font-style="italic" lengthAdjust="spacingAndGlyphs" textLength="53" x="127" y="24.1387">«Object»</text><text fill="#000000" font-family="sans-serif" font-size="12" lengthAdjust="spacingAndGlyphs" textLength="8" x="149.5" y="38.1074">A</text><line style="stroke: #A80036; stroke-width: 1.5;" x1="101" x2="180" y1="45.9375" y2="45.9375"/><line style="stroke: #A80036; stroke-width: 1.5;" x1="101" x2="180" y1="53.9375" y2="53.9375"/><!--class B--><rect fill="#FEFECE" filter="url(#f1vqehj8cpj1lt)" height="53.9375" id="B" style="stroke: #A80036; stroke-width: 1.5;" width="81" x="6" y="122"/><ellipse cx="21" cy="140.9688" fill="#DA70D6" rx="11" ry="11" style="stroke: #A80036; stroke-width: 1.0;"/><path d="M21.1094,136.5469 Q20.1719,136.5469 19.7422,137.5469 Q19.3125,138.5469 19.3125,140.7813 Q19.3125,143.0156 19.7422,144.0156 Q20.1719,145.0156 21.1094,145.0156 Q22.0625,145.0156 22.4922,144.0156 Q22.9219,143.0156 22.9219,140.7813 Q22.9219,138.5469 22.4922,137.5469 Q22.0625,136.5469 21.1094,136.5469 Z M16.7656,140.7813 Q16.7656,137.6094 17.8672,135.9766 Q18.9688,134.3438 21.1094,134.3438 Q23.2656,134.3438 24.3672,135.9766 Q25.4688,137.6094 25.4688,140.7813 Q25.4688,143.9531 24.3672,145.5781 Q23.2656,147.2031 21.1094,147.2031 Q18.9688,147.2031 17.8672,145.5781 Q16.7656,143.9531 16.7656,140.7813 Z "/><text fill="#000000" font-family="sans-serif" font-size="12" font-style="italic" lengthAdjust="spacingAndGlyphs" textLength="53" x="33" y="138.1387">«Object»</text><text fill="#000000" font-family="sans-serif" font-size="12" lengthAdjust="spacingAndGlyphs" textLength="8" x="55.5" y="152.1074">B</text><line style="stroke: #A80036; stroke-width: 1.5;" x1="7" x2="86" y1="159.9375" y2="159.9375"/><line style="stroke: #A80036; stroke-width: 1.5;" x1="7" x2="86" y1="167.9375" y2="167.9375"/><!--class D--><rect fill="#FEFECE" filter="url(#f1vqehj8cpj1lt)" height="53.9375" id="D" style="stroke: #A80036; stroke-width: 1.5;" width="81" x="100" y="236"/><ellipse cx="115" cy="254.9688" fill="#DA70D6" rx="11" ry="11" style="stroke: #A80036; stroke-width: 1.0;"/><path d="M115.1094,250.5469 Q114.1719,250.5469 113.7422,251.5469 Q113.3125,252.5469 113.3125,254.7813 Q113.3125,257.0156 113.7422,258.0156 Q114.1719,259.0156 115.1094,259.0156 Q116.0625,259.0156 116.4922,258.0156 Q116.9219,257.0156 116.9219,254.7813 Q116.9219,252.5469 116.4922,251.5469 Q116.0625,250.5469 115.1094,250.5469 Z M110.7656,254.7813 Q110.7656,251.6094 111.8672,249.9766 Q112.9688,248.3438 115.1094,248.3438 Q117.2656,248.3438 118.3672,249.9766 Q119.4688,251.6094 119.4688,254.7813 Q119.4688,257.9531 118.3672,259.5781 Q117.2656,261.2031 115.1094,261.2031 Q112.9688,261.2031 111.8672,259.5781 Q110.7656,257.9531 110.7656,254.7813 Z "/><text fill="#000000" font-family="sans-serif" font-size="12" font-style="italic" lengthAdjust="spacingAndGlyphs" textLength="53" x="127" y="252.1387">«Object»</text><text fill="#000000" font-family="sans-serif" font-size="12" lengthAdjust="spacingAndGlyphs" textLength="9" x="149" y="266.1074">D</text><line style="stroke: #A80036; stroke-width: 1.5;" x1="101" x2="180" y1="273.9375" y2="273.9375"/><line style="stroke: #A80036; stroke-width: 1.5;" x1="101" x2="180" y1="281.9375" y2="281.9375"/><!--class C--><rect fill="#FEFECE" filter="url(#f1vqehj8cpj1lt)" height="53.9375" id="C" style="stroke: #A80036; stroke-width: 1.5;" width="103" x="194" y="122"/><ellipse cx="209" cy="140.9688" fill="#FF1493" rx="11" ry="11" style="stroke: #A80036; stroke-width: 1.0;"/><path d="M211.9688,146.6094 Q211.3906,146.9063 210.75,147.0547 Q210.1094,147.2031 209.4063,147.2031 Q206.9063,147.2031 205.5859,145.5547 Q204.2656,143.9063 204.2656,140.7813 Q204.2656,137.6563 205.5859,136 Q206.9063,134.3438 209.4063,134.3438 Q210.1094,134.3438 210.7578,134.5 Q211.4063,134.6563 211.9688,134.9531 L211.9688,137.6719 Q211.3438,137.0938 210.75,136.8203 Q210.1563,136.5469 209.5313,136.5469 Q208.1875,136.5469 207.5,137.6172 Q206.8125,138.6875 206.8125,140.7813 Q206.8125,142.875 207.5,143.9453 Q208.1875,145.0156 209.5313,145.0156 Q210.1563,145.0156 210.75,144.7422 Q211.3438,144.4688 211.9688,143.8906 L211.9688,146.6094 Z "/><text fill="#000000" font-family="sans-serif" font-size="12" font-style="italic" lengthAdjust="spacingAndGlyphs" textLength="75" x="221" y="138.1387">«Collection»</text><text fill="#000000" font-family="sans-serif" font-size="12" lengthAdjust="spacingAndGlyphs" textLength="8" x="254.5" y="152.1074">C</text><line style="stroke: #A80036; stroke-width: 1.5;" x1="195" x2="296" y1="159.9375" y2="159.9375"/><line style="stroke: #A80036; stroke-width: 1.5;" x1="195" x2="296" y1="167.9375" y2="167.9375"/><!--link A to B--><path d="M109.667,72.439 C96.1242,88.575 80.5014,107.19 68.1507,121.905 " fill="none" id="A-B" style="stroke: #A80036; stroke-width: 1.0;"/><polygon fill="#A80036" points="118.211,62.259,111.2898,64.2833,110.4964,71.4506,117.4176,69.4263,118.211,62.259" style="stroke: #A80036; stroke-width: 1.0;"/><text fill="#000000" font-family="sans-serif" font-size="13" lengthAdjust="spacingAndGlyphs" textLength="24" x="44.8538" y="110.9834">0..1</text><!--link B to D--><path d="M76.8328,186.439 C90.3758,202.5754 105.9986,221.1899 118.349,235.9055 " fill="none" id="B-D" style="stroke: #A80036; stroke-width: 1.0;"/><polygon fill="#FFFFFF" points="68.2888,176.259,69.082,183.4263,76.0031,185.4508,75.2099,178.2835,68.2888,176.259" style="stroke: #A80036; stroke-width: 1.0;"/><text fill="#000000" font-family="sans-serif" font-size="13" lengthAdjust="spacingAndGlyphs" textLength="8" x="104.0036" y="224.984">n</text><!--link A to C--><path d="M173.98,71.979 C189.207,88.22 206.859,107.05 220.786,121.905 " fill="none" id="A-C" style="stroke: #A80036; stroke-width: 1.0;"/><polygon fill="#A80036" points="164.868,62.259,166.0535,69.372,173.0752,71.0135,171.8898,63.9005,164.868,62.259" style="stroke: #A80036; stroke-width: 1.0;"/><text fill="#000000" font-family="sans-serif" font-size="13" lengthAdjust="spacingAndGlyphs" textLength="8" x="205.9361" y="110.9834">1</text><!--link C to D--><path d="M211.52,185.979 C196.293,202.2204 178.641,221.0497 164.714,235.9055 " fill="none" id="C-D" style="stroke: #A80036; stroke-width: 1.0;"/><polygon fill="#A80036" points="220.632,176.259,213.6102,177.9005,212.4248,185.0135,219.4465,183.372,220.632,176.259" style="stroke: #A80036; stroke-width: 1.0;"/><text fill="#000000" font-family="sans-serif" font-size="13" lengthAdjust="spacingAndGlyphs" textLength="8" x="159.4968" y="224.984">n</text><!--link A to D--><path d="M140.25,67.388 C140.25,112.272 140.25,193.9752 140.25,235.8006 " fill="none" id="A-D" style="stroke: #A80036; stroke-width: 1.0; stroke-dasharray: 7.0,7.0;"/><polygon fill="#A80036" points="140.25,62.367,136.25,71.367,140.25,67.367,144.25,71.367,140.25,62.367" style="stroke: #A80036; stroke-width: 1.0;"/><text fill="#000000" font-family="sans-serif" font-size="13" lengthAdjust="spacingAndGlyphs" textLength="8" x="130.1016" y="82.0824">1</text><!--
@startuml

class A << (O,orchid) Object >> {
}
class B << (O,orchid) Object >> {
}
class D << (O,orchid) Object >> {
}
class C << (C,deeppink) Collection >> {
}

A *- - "0..1" B

B o- - "n" D

A *- - "1" C

C *- - "n" D

A "1" <.. D

@enduml

PlantUML version 1.2018.14(Fri Dec 21 16:33:16 UTC 2018)
(GPL source distribution)
Java Runtime: Java(TM) SE Runtime Environment
JVM: Java HotSpot(TM) 64-Bit Server VM
Java Version: 1.8.0_151-b12
Operating System: Linux
OS Version: 4.4.0-101-generic
Default Encoding: UTF-8
Language: en
Country: US
--></g></svg>