<?xml version="1.0" encoding="UTF-8" standalone="no"?><svg xmlns="http://www.w3.org/2000/svg" xmlns:xlink="http://www.w3.org/1999/xlink" contentScriptType="application/ecmascript" contentStyleType="text/css" height="938px" preserveAspectRatio="none" style="width:842px;height:938px;" version="1.1" viewBox="0 0 842 938" width="842px" zoomAndPan="magnify"><defs><filter height="300%" id="f2t8a2b6ozbwj" width="300%" x="-1" y="-1"><feGaussianBlur result="blurOut" stdDeviation="2.0"/><feColorMatrix in="blurOut" result="blurOut2" type="matrix" values="0 0 0 0 0 0 0 0 0 0 0 0 0 0 0 0 0 0 .4 0"/><feOffset dx="4.0" dy="4.0" in="blurOut2" result="blurOut3"/><feBlend in="SourceGraphic" in2="blurOut3" mode="normal"/></filter></defs><g><!--class ContractInstance--><rect fill="#FEFECE" filter="url(#f2t8a2b6ozbwj)" height="143.5703" id="ContractInstance" style="stroke: #A80036; stroke-width: 1.5;" width="227" x="317.75" y="8"/><ellipse cx="373" cy="26.9688" fill="#DA70D6" rx="11" ry="11" style="stroke: #A80036; stroke-width: 1.0;"/><path d="M373.1094,22.5469 Q372.1719,22.5469 371.7422,23.5469 Q371.3125,24.5469 371.3125,26.7813 Q371.3125,29.0156 371.7422,30.0156 Q372.1719,31.0156 373.1094,31.0156 Q374.0625,31.0156 374.4922,30.0156 Q374.9219,29.0156 374.9219,26.7813 Q374.9219,24.5469 374.4922,23.5469 Q374.0625,22.5469 373.1094,22.5469 Z M368.7656,26.7813 Q368.7656,23.6094 369.8672,21.9766 Q370.9688,20.3438 373.1094,20.3438 Q375.2656,20.3438 376.3672,21.9766 Q377.4688,23.6094 377.4688,26.7813 Q377.4688,29.9531 376.3672,31.5781 Q375.2656,33.2031 373.1094,33.2031 Q370.9688,33.2031 369.8672,31.5781 Q368.7656,29.9531 368.7656,26.7813 Z "/><text fill="#000000" font-family="sans-serif" font-size="12" font-style="italic" lengthAdjust="spacingAndGlyphs" textLength="53" x="421" y="24.1387">«Object»</text><text fill="#000000" font-family="sans-serif" font-size="12" lengthAdjust="spacingAndGlyphs" textLength="108" x="393.5" y="38.1074">ContractInstance</text><line style="stroke: #A80036; stroke-width: 1.5;" x1="318.75" x2="543.75" y1="45.9375" y2="45.9375"/><ellipse cx="328.75" cy="57.8398" fill="none" rx="3" ry="3" style="stroke: #038048; stroke-width: 1.0;"/><text fill="#000000" font-family="sans-serif" font-size="11" lengthAdjust="spacingAndGlyphs" textLength="106" x="337.75" y="60.1479">address : Address</text><ellipse cx="328.75" cy="70.6445" fill="none" rx="3" ry="3" style="stroke: #038048; stroke-width: 1.0;"/><text fill="#000000" font-family="sans-serif" font-size="11" lengthAdjust="spacingAndGlyphs" textLength="103" x="337.75" y="72.9526">network : Network</text><ellipse cx="328.75" cy="83.4492" fill="none" rx="3" ry="3" style="stroke: #038048; stroke-width: 1.0;"/><text fill="#000000" font-family="sans-serif" font-size="11" lengthAdjust="spacingAndGlyphs" textLength="201" x="337.75" y="85.7573">transactionHash : TransactionHash</text><ellipse cx="328.75" cy="96.2539" fill="none" rx="3" ry="3" style="stroke: #038048; stroke-width: 1.0;"/><text fill="#000000" font-family="sans-serif" font-size="11" lengthAdjust="spacingAndGlyphs" textLength="182" x="337.75" y="98.562">constructorArgs : Array&lt;Value&gt;</text><ellipse cx="328.75" cy="109.0586" fill="none" rx="3" ry="3" style="stroke: #038048; stroke-width: 1.0;"/><text fill="#000000" font-family="sans-serif" font-size="11" lengthAdjust="spacingAndGlyphs" textLength="160" x="337.75" y="111.3667">contractType : ContractType</text><ellipse cx="328.75" cy="121.8633" fill="none" rx="3" ry="3" style="stroke: #038048; stroke-width: 1.0;"/><text fill="#000000" font-family="sans-serif" font-size="11" lengthAdjust="spacingAndGlyphs" textLength="135" x="337.75" y="124.1714">callBytecode : Bytecode</text><ellipse cx="328.75" cy="134.668" fill="none" rx="3" ry="3" style="stroke: #038048; stroke-width: 1.0;"/><text fill="#000000" font-family="sans-serif" font-size="11" lengthAdjust="spacingAndGlyphs" textLength="159" x="337.75" y="136.9761">linkValues : Set&lt;LinkValue&gt;</text><line style="stroke: #A80036; stroke-width: 1.5;" x1="318.75" x2="543.75" y1="143.5703" y2="143.5703"/><!--class ContractType--><rect fill="#FEFECE" filter="url(#f2t8a2b6ozbwj)" height="105.1563" id="ContractType" style="stroke: #A80036; stroke-width: 1.5;" width="178" x="200.5" y="352.5"/><ellipse cx="243.85" cy="371.4688" fill="#DA70D6" rx="11" ry="11" style="stroke: #A80036; stroke-width: 1.0;"/><path d="M243.9594,367.0469 Q243.0219,367.0469 242.5922,368.0469 Q242.1625,369.0469 242.1625,371.2813 Q242.1625,373.5156 242.5922,374.5156 Q243.0219,375.5156 243.9594,375.5156 Q244.9125,375.5156 245.3422,374.5156 Q245.7719,373.5156 245.7719,371.2813 Q245.7719,369.0469 245.3422,368.0469 Q244.9125,367.0469 243.9594,367.0469 Z M239.6156,371.2813 Q239.6156,368.1094 240.7172,366.4766 Q241.8188,364.8438 243.9594,364.8438 Q246.1156,364.8438 247.2172,366.4766 Q248.3188,368.1094 248.3188,371.2813 Q248.3188,374.4531 247.2172,376.0781 Q246.1156,377.7031 243.9594,377.7031 Q241.8188,377.7031 240.7172,376.0781 Q239.6156,374.4531 239.6156,371.2813 Z "/><text fill="#000000" font-family="sans-serif" font-size="12" font-style="italic" lengthAdjust="spacingAndGlyphs" textLength="53" x="279.15" y="368.6387">«Object»</text><text fill="#000000" font-family="sans-serif" font-size="12" lengthAdjust="spacingAndGlyphs" textLength="83" x="264.15" y="382.6074">ContractType</text><line style="stroke: #A80036; stroke-width: 1.5;" x1="201.5" x2="377.5" y1="390.4375" y2="390.4375"/><ellipse cx="211.5" cy="402.3398" fill="none" rx="3" ry="3" style="stroke: #038048; stroke-width: 1.0;"/><text fill="#000000" font-family="sans-serif" font-size="11" lengthAdjust="spacingAndGlyphs" textLength="78" x="220.5" y="404.6479">name : String</text><ellipse cx="211.5" cy="415.1445" fill="none" rx="3" ry="3" style="stroke: #038048; stroke-width: 1.0;"/><text fill="#000000" font-family="sans-serif" font-size="11" lengthAdjust="spacingAndGlyphs" textLength="47" x="220.5" y="417.4526">abi : ABI</text><ellipse cx="211.5" cy="427.9492" fill="none" rx="3" ry="3" style="stroke: #038048; stroke-width: 1.0;"/><text fill="#000000" font-family="sans-serif" font-size="11" lengthAdjust="spacingAndGlyphs" textLength="144" x="220.5" y="430.2573">compilation : Compilation</text><ellipse cx="211.5" cy="440.7539" fill="none" rx="3" ry="3" style="stroke: #038048; stroke-width: 1.0;"/><text fill="#000000" font-family="sans-serif" font-size="11" lengthAdjust="spacingAndGlyphs" textLength="152" x="220.5" y="443.062">createBytecode : Bytecode</text><line style="stroke: #A80036; stroke-width: 1.5;" x1="201.5" x2="377.5" y1="449.6563" y2="449.6563"/><!--class ContractTypes--><rect fill="#FEFECE" filter="url(#f2t8a2b6ozbwj)" height="66.7422" id="ContractTypes" style="stroke: #A80036; stroke-width: 1.5;" width="230" x="6.5" y="530.5"/><ellipse cx="72.25" cy="549.4688" fill="#FF1493" rx="11" ry="11" style="stroke: #A80036; stroke-width: 1.0;"/><path d="M75.2188,555.1094 Q74.6406,555.4063 74,555.5547 Q73.3594,555.7031 72.6563,555.7031 Q70.1563,555.7031 68.8359,554.0547 Q67.5156,552.4063 67.5156,549.2813 Q67.5156,546.1563 68.8359,544.5 Q70.1563,542.8438 72.6563,542.8438 Q73.3594,542.8438 74.0078,543 Q74.6563,543.1563 75.2188,543.4531 L75.2188,546.1719 Q74.5938,545.5938 74,545.3203 Q73.4063,545.0469 72.7813,545.0469 Q71.4375,545.0469 70.75,546.1172 Q70.0625,547.1875 70.0625,549.2813 Q70.0625,551.375 70.75,552.4453 Q71.4375,553.5156 72.7813,553.5156 Q73.4063,553.5156 74,553.2422 Q74.5938,552.9688 75.2188,552.3906 L75.2188,555.1094 Z "/><text fill="#000000" font-family="sans-serif" font-size="12" font-style="italic" lengthAdjust="spacingAndGlyphs" textLength="75" x="100.25" y="546.6387">«Collection»</text><text fill="#000000" font-family="sans-serif" font-size="12" lengthAdjust="spacingAndGlyphs" textLength="90" x="92.75" y="560.6074">ContractTypes</text><line style="stroke: #A80036; stroke-width: 1.5;" x1="7.5" x2="235.5" y1="568.4375" y2="568.4375"/><ellipse cx="17.5" cy="580.3398" fill="none" rx="3" ry="3" style="stroke: #038048; stroke-width: 1.0;"/><text fill="#000000" font-family="sans-serif" font-size="11" lengthAdjust="spacingAndGlyphs" textLength="204" x="26.5" y="582.6479">contractTypes : Set&lt;ContractType&gt;</text><line style="stroke: #A80036; stroke-width: 1.5;" x1="7.5" x2="235.5" y1="589.2422" y2="589.2422"/><!--class Source--><rect fill="#FEFECE" filter="url(#f2t8a2b6ozbwj)" height="92.3516" id="Source" style="stroke: #A80036; stroke-width: 1.5;" width="136" x="306" y="829"/><ellipse cx="345.75" cy="847.9688" fill="#DA70D6" rx="11" ry="11" style="stroke: #A80036; stroke-width: 1.0;"/><path d="M345.8594,843.5469 Q344.9219,843.5469 344.4922,844.5469 Q344.0625,845.5469 344.0625,847.7813 Q344.0625,850.0156 344.4922,851.0156 Q344.9219,852.0156 345.8594,852.0156 Q346.8125,852.0156 347.2422,851.0156 Q347.6719,850.0156 347.6719,847.7813 Q347.6719,845.5469 347.2422,844.5469 Q346.8125,843.5469 345.8594,843.5469 Z M341.5156,847.7813 Q341.5156,844.6094 342.6172,842.9766 Q343.7188,841.3438 345.8594,841.3438 Q348.0156,841.3438 349.1172,842.9766 Q350.2188,844.6094 350.2188,847.7813 Q350.2188,850.9531 349.1172,852.5781 Q348.0156,854.2031 345.8594,854.2031 Q343.7188,854.2031 342.6172,852.5781 Q341.5156,850.9531 341.5156,847.7813 Z "/><text fill="#000000" font-family="sans-serif" font-size="12" font-style="italic" lengthAdjust="spacingAndGlyphs" textLength="53" x="363.25" y="845.1387">«Object»</text><text fill="#000000" font-family="sans-serif" font-size="12" lengthAdjust="spacingAndGlyphs" textLength="44" x="367.75" y="859.1074">Source</text><line style="stroke: #A80036; stroke-width: 1.5;" x1="307" x2="441" y1="866.9375" y2="866.9375"/><ellipse cx="317" cy="878.8398" fill="none" rx="3" ry="3" style="stroke: #038048; stroke-width: 1.0;"/><text fill="#000000" font-family="sans-serif" font-size="11" lengthAdjust="spacingAndGlyphs" textLength="95" x="326" y="881.1479">contents : String</text><ellipse cx="317" cy="891.6445" fill="none" rx="3" ry="3" style="stroke: #038048; stroke-width: 1.0;"/><text fill="#000000" font-family="sans-serif" font-size="11" lengthAdjust="spacingAndGlyphs" textLength="110" x="326" y="893.9526">sourcePath : String</text><ellipse cx="317" cy="904.4492" fill="none" rx="3" ry="3" style="stroke: #038048; stroke-width: 1.0;"/><text fill="#000000" font-family="sans-serif" font-size="11" lengthAdjust="spacingAndGlyphs" textLength="52" x="326" y="906.7573">ast : AST</text><line style="stroke: #A80036; stroke-width: 1.5;" x1="307" x2="441" y1="913.3516" y2="913.3516"/><!--class Sources--><rect fill="#FEFECE" filter="url(#f2t8a2b6ozbwj)" height="66.7422" id="Sources" style="stroke: #A80036; stroke-width: 1.5;" width="240" x="254.5" y="682.5"/><ellipse cx="334.75" cy="701.4688" fill="#FF1493" rx="11" ry="11" style="stroke: #A80036; stroke-width: 1.0;"/><path d="M337.7188,707.1094 Q337.1406,707.4063 336.5,707.5547 Q335.8594,707.7031 335.1563,707.7031 Q332.6563,707.7031 331.3359,706.0547 Q330.0156,704.4063 330.0156,701.2813 Q330.0156,698.1563 331.3359,696.5 Q332.6563,694.8438 335.1563,694.8438 Q335.8594,694.8438 336.5078,695 Q337.1563,695.1563 337.7188,695.4531 L337.7188,698.1719 Q337.0938,697.5938 336.5,697.3203 Q335.9063,697.0469 335.2813,697.0469 Q333.9375,697.0469 333.25,698.1172 Q332.5625,699.1875 332.5625,701.2813 Q332.5625,703.375 333.25,704.4453 Q333.9375,705.5156 335.2813,705.5156 Q335.9063,705.5156 336.5,705.2422 Q337.0938,704.9688 337.7188,704.3906 L337.7188,707.1094 Z "/><text fill="#000000" font-family="sans-serif" font-size="12" font-style="italic" lengthAdjust="spacingAndGlyphs" textLength="75" x="353.25" y="698.6387">«Collection»</text><text fill="#000000" font-family="sans-serif" font-size="12" lengthAdjust="spacingAndGlyphs" textLength="51" x="365.25" y="712.6074">Sources</text><line style="stroke: #A80036; stroke-width: 1.5;" x1="255.5" x2="493.5" y1="720.4375" y2="720.4375"/><ellipse cx="265.5" cy="732.3398" fill="none" rx="3" ry="3" style="stroke: #038048; stroke-width: 1.0;"/><text fill="#000000" font-family="sans-serif" font-size="11" lengthAdjust="spacingAndGlyphs" textLength="214" x="274.5" y="734.6479">sources : Map&lt;FileIndex =&gt; Source&gt;</text><line style="stroke: #A80036; stroke-width: 1.5;" x1="255.5" x2="493.5" y1="741.2422" y2="741.2422"/><!--class Network--><rect fill="#FEFECE" filter="url(#f2t8a2b6ozbwj)" height="79.5469" id="Network" style="stroke: #A80036; stroke-width: 1.5;" width="150" x="580.5" y="40"/><ellipse cx="625.75" cy="58.9688" fill="#DA70D6" rx="11" ry="11" style="stroke: #A80036; stroke-width: 1.0;"/><path d="M625.8594,54.5469 Q624.9219,54.5469 624.4922,55.5469 Q624.0625,56.5469 624.0625,58.7813 Q624.0625,61.0156 624.4922,62.0156 Q624.9219,63.0156 625.8594,63.0156 Q626.8125,63.0156 627.2422,62.0156 Q627.6719,61.0156 627.6719,58.7813 Q627.6719,56.5469 627.2422,55.5469 Q626.8125,54.5469 625.8594,54.5469 Z M621.5156,58.7813 Q621.5156,55.6094 622.6172,53.9766 Q623.7188,52.3438 625.8594,52.3438 Q628.0156,52.3438 629.1172,53.9766 Q630.2188,55.6094 630.2188,58.7813 Q630.2188,61.9531 629.1172,63.5781 Q628.0156,65.2031 625.8594,65.2031 Q623.7188,65.2031 622.6172,63.5781 Q621.5156,61.9531 621.5156,58.7813 Z "/><text fill="#000000" font-family="sans-serif" font-size="12" font-style="italic" lengthAdjust="spacingAndGlyphs" textLength="53" x="645.25" y="56.1387">«Object»</text><text fill="#000000" font-family="sans-serif" font-size="12" lengthAdjust="spacingAndGlyphs" textLength="51" x="646.25" y="70.1074">Network</text><line style="stroke: #A80036; stroke-width: 1.5;" x1="581.5" x2="729.5" y1="77.9375" y2="77.9375"/><ellipse cx="591.5" cy="89.8398" fill="none" rx="3" ry="3" style="stroke: #038048; stroke-width: 1.0;"/><text fill="#000000" font-family="sans-serif" font-size="11" lengthAdjust="spacingAndGlyphs" textLength="78" x="600.5" y="92.1479">name : String</text><ellipse cx="591.5" cy="102.6445" fill="none" rx="3" ry="3" style="stroke: #038048; stroke-width: 1.0;"/><text fill="#000000" font-family="sans-serif" font-size="11" lengthAdjust="spacingAndGlyphs" textLength="124" x="600.5" y="104.9526">networkId : NetworkID</text><line style="stroke: #A80036; stroke-width: 1.5;" x1="581.5" x2="729.5" y1="111.5469" y2="111.5469"/><!--class Compilation--><rect fill="#FEFECE" filter="url(#f2t8a2b6ozbwj)" height="92.3516" id="Compilation" style="stroke: #A80036; stroke-width: 1.5;" width="196" x="23.5" y="670"/><ellipse cx="80.75" cy="688.9688" fill="#DA70D6" rx="11" ry="11" style="stroke: #A80036; stroke-width: 1.0;"/><path d="M80.8594,684.5469 Q79.9219,684.5469 79.4922,685.5469 Q79.0625,686.5469 79.0625,688.7813 Q79.0625,691.0156 79.4922,692.0156 Q79.9219,693.0156 80.8594,693.0156 Q81.8125,693.0156 82.2422,692.0156 Q82.6719,691.0156 82.6719,688.7813 Q82.6719,686.5469 82.2422,685.5469 Q81.8125,684.5469 80.8594,684.5469 Z M76.5156,688.7813 Q76.5156,685.6094 77.6172,683.9766 Q78.7188,682.3438 80.8594,682.3438 Q83.0156,682.3438 84.1172,683.9766 Q85.2188,685.6094 85.2188,688.7813 Q85.2188,691.9531 84.1172,693.5781 Q83.0156,695.2031 80.8594,695.2031 Q78.7188,695.2031 77.6172,693.5781 Q76.5156,691.9531 76.5156,688.7813 Z "/><text fill="#000000" font-family="sans-serif" font-size="12" font-style="italic" lengthAdjust="spacingAndGlyphs" textLength="53" x="111.25" y="686.1387">«Object»</text><text fill="#000000" font-family="sans-serif" font-size="12" lengthAdjust="spacingAndGlyphs" textLength="73" x="101.25" y="700.1074">Compilation</text><line style="stroke: #A80036; stroke-width: 1.5;" x1="24.5" x2="218.5" y1="707.9375" y2="707.9375"/><ellipse cx="34.5" cy="719.8398" fill="none" rx="3" ry="3" style="stroke: #038048; stroke-width: 1.0;"/><text fill="#000000" font-family="sans-serif" font-size="11" lengthAdjust="spacingAndGlyphs" textLength="112" x="43.5" y="722.1479">compiler : Compiler</text><ellipse cx="34.5" cy="732.6445" fill="none" rx="3" ry="3" style="stroke: #038048; stroke-width: 1.0;"/><text fill="#000000" font-family="sans-serif" font-size="11" lengthAdjust="spacingAndGlyphs" textLength="105" x="43.5" y="734.9526">sources : Sources</text><ellipse cx="34.5" cy="745.4492" fill="none" rx="3" ry="3" style="stroke: #038048; stroke-width: 1.0;"/><text fill="#000000" font-family="sans-serif" font-size="11" lengthAdjust="spacingAndGlyphs" textLength="170" x="43.5" y="747.7573">contractTypes: ContractTypes</text><line style="stroke: #A80036; stroke-width: 1.5;" x1="24.5" x2="218.5" y1="754.3516" y2="754.3516"/><!--class Compiler--><rect fill="#FEFECE" filter="url(#f2t8a2b6ozbwj)" height="92.3516" id="Compiler" style="stroke: #A80036; stroke-width: 1.5;" width="120" x="61.5" y="829"/><ellipse cx="91.8" cy="847.9688" fill="#DA70D6" rx="11" ry="11" style="stroke: #A80036; stroke-width: 1.0;"/><path d="M91.9094,843.5469 Q90.9719,843.5469 90.5422,844.5469 Q90.1125,845.5469 90.1125,847.7813 Q90.1125,850.0156 90.5422,851.0156 Q90.9719,852.0156 91.9094,852.0156 Q92.8625,852.0156 93.2922,851.0156 Q93.7219,850.0156 93.7219,847.7813 Q93.7219,845.5469 93.2922,844.5469 Q92.8625,843.5469 91.9094,843.5469 Z M87.5656,847.7813 Q87.5656,844.6094 88.6672,842.9766 Q89.7688,841.3438 91.9094,841.3438 Q94.0656,841.3438 95.1672,842.9766 Q96.2688,844.6094 96.2688,847.7813 Q96.2688,850.9531 95.1672,852.5781 Q94.0656,854.2031 91.9094,854.2031 Q89.7688,854.2031 88.6672,852.5781 Q87.5656,850.9531 87.5656,847.7813 Z "/><text fill="#000000" font-family="sans-serif" font-size="12" font-style="italic" lengthAdjust="spacingAndGlyphs" textLength="53" x="109.7" y="845.1387">«Object»</text><text fill="#000000" font-family="sans-serif" font-size="12" lengthAdjust="spacingAndGlyphs" textLength="54" x="109.2" y="859.1074">Compiler</text><line style="stroke: #A80036; stroke-width: 1.5;" x1="62.5" x2="180.5" y1="866.9375" y2="866.9375"/><ellipse cx="72.5" cy="878.8398" fill="none" rx="3" ry="3" style="stroke: #038048; stroke-width: 1.0;"/><text fill="#000000" font-family="sans-serif" font-size="11" lengthAdjust="spacingAndGlyphs" textLength="78" x="81.5" y="881.1479">name : String</text><ellipse cx="72.5" cy="891.6445" fill="none" rx="3" ry="3" style="stroke: #038048; stroke-width: 1.0;"/><text fill="#000000" font-family="sans-serif" font-size="11" lengthAdjust="spacingAndGlyphs" textLength="88" x="81.5" y="893.9526">version : String</text><ellipse cx="72.5" cy="904.4492" fill="none" rx="3" ry="3" style="stroke: #038048; stroke-width: 1.0;"/><text fill="#000000" font-family="sans-serif" font-size="11" lengthAdjust="spacingAndGlyphs" textLength="94" x="81.5" y="906.7573">settings : Object</text><line style="stroke: #A80036; stroke-width: 1.5;" x1="62.5" x2="180.5" y1="913.3516" y2="913.3516"/><!--class Bytecode--><rect fill="#FEFECE" filter="url(#f2t8a2b6ozbwj)" height="92.3516" id="Bytecode" style="stroke: #A80036; stroke-width: 1.5;" width="237" x="401.75" y="518"/><ellipse cx="487" cy="536.9688" fill="#DA70D6" rx="11" ry="11" style="stroke: #A80036; stroke-width: 1.0;"/><path d="M487.1094,532.5469 Q486.1719,532.5469 485.7422,533.5469 Q485.3125,534.5469 485.3125,536.7813 Q485.3125,539.0156 485.7422,540.0156 Q486.1719,541.0156 487.1094,541.0156 Q488.0625,541.0156 488.4922,540.0156 Q488.9219,539.0156 488.9219,536.7813 Q488.9219,534.5469 488.4922,533.5469 Q488.0625,532.5469 487.1094,532.5469 Z M482.7656,536.7813 Q482.7656,533.6094 483.8672,531.9766 Q484.9688,530.3438 487.1094,530.3438 Q489.2656,530.3438 490.3672,531.9766 Q491.4688,533.6094 491.4688,536.7813 Q491.4688,539.9531 490.3672,541.5781 Q489.2656,543.2031 487.1094,543.2031 Q484.9688,543.2031 483.8672,541.5781 Q482.7656,539.9531 482.7656,536.7813 Z "/><text fill="#000000" font-family="sans-serif" font-size="12" font-style="italic" lengthAdjust="spacingAndGlyphs" textLength="53" x="510" y="534.1387">«Object»</text><text fill="#000000" font-family="sans-serif" font-size="12" lengthAdjust="spacingAndGlyphs" textLength="58" x="507.5" y="548.1074">Bytecode</text><line style="stroke: #A80036; stroke-width: 1.5;" x1="402.75" x2="637.75" y1="555.9375" y2="555.9375"/><ellipse cx="412.75" cy="567.8398" fill="none" rx="3" ry="3" style="stroke: #038048; stroke-width: 1.0;"/><text fill="#000000" font-family="sans-serif" font-size="11" lengthAdjust="spacingAndGlyphs" textLength="112" x="421.75" y="570.1479">bytes: Array&lt;Byte&gt;</text><ellipse cx="412.75" cy="580.6445" fill="none" rx="3" ry="3" style="stroke: #038048; stroke-width: 1.0;"/><text fill="#000000" font-family="sans-serif" font-size="11" lengthAdjust="spacingAndGlyphs" textLength="137" x="421.75" y="582.9526">sourceMap : SourceMap</text><ellipse cx="412.75" cy="593.4492" fill="none" rx="3" ry="3" style="stroke: #038048; stroke-width: 1.0;"/><text fill="#000000" font-family="sans-serif" font-size="11" lengthAdjust="spacingAndGlyphs" textLength="211" x="421.75" y="595.7573">linkReferences : Set&lt;LinkReference&gt;</text><line style="stroke: #A80036; stroke-width: 1.5;" x1="402.75" x2="637.75" y1="602.3516" y2="602.3516"/><!--class SourceMap--><rect fill="#FEFECE" filter="url(#f2t8a2b6ozbwj)" height="79.5469" id="SourceMap" style="stroke: #A80036; stroke-width: 1.5;" width="302" x="529" y="676"/><ellipse cx="640.75" cy="694.9688" fill="#DA70D6" rx="11" ry="11" style="stroke: #A80036; stroke-width: 1.0;"/><path d="M640.8594,690.5469 Q639.9219,690.5469 639.4922,691.5469 Q639.0625,692.5469 639.0625,694.7813 Q639.0625,697.0156 639.4922,698.0156 Q639.9219,699.0156 640.8594,699.0156 Q641.8125,699.0156 642.2422,698.0156 Q642.6719,697.0156 642.6719,694.7813 Q642.6719,692.5469 642.2422,691.5469 Q641.8125,690.5469 640.8594,690.5469 Z M636.5156,694.7813 Q636.5156,691.6094 637.6172,689.9766 Q638.7188,688.3438 640.8594,688.3438 Q643.0156,688.3438 644.1172,689.9766 Q645.2188,691.6094 645.2188,694.7813 Q645.2188,697.9531 644.1172,699.5781 Q643.0156,701.2031 640.8594,701.2031 Q638.7188,701.2031 637.6172,699.5781 Q636.5156,697.9531 636.5156,694.7813 Z "/><text fill="#000000" font-family="sans-serif" font-size="12" font-style="italic" lengthAdjust="spacingAndGlyphs" textLength="53" x="669.75" y="692.1387">«Object»</text><text fill="#000000" font-family="sans-serif" font-size="12" lengthAdjust="spacingAndGlyphs" textLength="70" x="661.25" y="706.1074">SourceMap</text><line style="stroke: #A80036; stroke-width: 1.5;" x1="530" x2="830" y1="713.9375" y2="713.9375"/><ellipse cx="540" cy="725.8398" fill="none" rx="3" ry="3" style="stroke: #038048; stroke-width: 1.0;"/><text fill="#000000" font-family="sans-serif" font-size="11" lengthAdjust="spacingAndGlyphs" textLength="276" x="549" y="728.1479">sourceMap : Map&lt;ByteOffset =&gt; SourceRange&gt;</text><ellipse cx="540" cy="738.6445" fill="none" rx="3" ry="3" style="stroke: #038048; stroke-width: 1.0;"/><text fill="#000000" font-family="sans-serif" font-size="11" lengthAdjust="spacingAndGlyphs" textLength="101" x="549" y="740.9526">sources: Sources</text><line style="stroke: #A80036; stroke-width: 1.5;" x1="530" x2="830" y1="747.5469" y2="747.5469"/><!--class SourceRange--><rect fill="#FEFECE" filter="url(#f2t8a2b6ozbwj)" height="105.1563" id="SourceRange" style="stroke: #A80036; stroke-width: 1.5;" width="125" x="617.75" y="822.5"/><ellipse cx="636.8" cy="841.4688" fill="#DA70D6" rx="11" ry="11" style="stroke: #A80036; stroke-width: 1.0;"/><path d="M636.9094,837.0469 Q635.9719,837.0469 635.5422,838.0469 Q635.1125,839.0469 635.1125,841.2813 Q635.1125,843.5156 635.5422,844.5156 Q635.9719,845.5156 636.9094,845.5156 Q637.8625,845.5156 638.2922,844.5156 Q638.7219,843.5156 638.7219,841.2813 Q638.7219,839.0469 638.2922,838.0469 Q637.8625,837.0469 636.9094,837.0469 Z M632.5656,841.2813 Q632.5656,838.1094 633.6672,836.4766 Q634.7688,834.8438 636.9094,834.8438 Q639.0656,834.8438 640.1672,836.4766 Q641.2688,838.1094 641.2688,841.2813 Q641.2688,844.4531 640.1672,846.0781 Q639.0656,847.7031 636.9094,847.7031 Q634.7688,847.7031 633.6672,846.0781 Q632.5656,844.4531 632.5656,841.2813 Z "/><text fill="#000000" font-family="sans-serif" font-size="12" font-style="italic" lengthAdjust="spacingAndGlyphs" textLength="53" x="667.2" y="838.6387">«Object»</text><text fill="#000000" font-family="sans-serif" font-size="12" lengthAdjust="spacingAndGlyphs" textLength="84" x="651.7" y="852.6074">SourceRange</text><line style="stroke: #A80036; stroke-width: 1.5;" x1="618.75" x2="741.75" y1="860.4375" y2="860.4375"/><ellipse cx="628.75" cy="872.3398" fill="none" rx="3" ry="3" style="stroke: #038048; stroke-width: 1.0;"/><text fill="#000000" font-family="sans-serif" font-size="11" lengthAdjust="spacingAndGlyphs" textLength="91" x="637.75" y="874.6479">source : Source</text><ellipse cx="628.75" cy="885.1445" fill="none" rx="3" ry="3" style="stroke: #038048; stroke-width: 1.0;"/><text fill="#000000" font-family="sans-serif" font-size="11" lengthAdjust="spacingAndGlyphs" textLength="99" x="637.75" y="887.4526">start : ByteOffset</text><ellipse cx="628.75" cy="897.9492" fill="none" rx="3" ry="3" style="stroke: #038048; stroke-width: 1.0;"/><text fill="#000000" font-family="sans-serif" font-size="11" lengthAdjust="spacingAndGlyphs" textLength="85" x="637.75" y="900.2573">length : Length</text><ellipse cx="628.75" cy="910.7539" fill="none" rx="3" ry="3" style="stroke: #038048; stroke-width: 1.0;"/><text fill="#000000" font-family="sans-serif" font-size="11" lengthAdjust="spacingAndGlyphs" textLength="77" x="637.75" y="913.062">meta : Object</text><line style="stroke: #A80036; stroke-width: 1.5;" x1="618.75" x2="741.75" y1="919.6563" y2="919.6563"/><!--class LinkValue--><rect fill="#FEFECE" filter="url(#f2t8a2b6ozbwj)" height="79.5469" id="LinkValue" style="stroke: #A80036; stroke-width: 1.5;" width="193" x="484.75" y="212"/><ellipse cx="547.5" cy="230.9688" fill="#DA70D6" rx="11" ry="11" style="stroke: #A80036; stroke-width: 1.0;"/><path d="M547.6094,226.5469 Q546.6719,226.5469 546.2422,227.5469 Q545.8125,228.5469 545.8125,230.7813 Q545.8125,233.0156 546.2422,234.0156 Q546.6719,235.0156 547.6094,235.0156 Q548.5625,235.0156 548.9922,234.0156 Q549.4219,233.0156 549.4219,230.7813 Q549.4219,228.5469 548.9922,227.5469 Q548.5625,226.5469 547.6094,226.5469 Z M543.2656,230.7813 Q543.2656,227.6094 544.3672,225.9766 Q545.4688,224.3438 547.6094,224.3438 Q549.7656,224.3438 550.8672,225.9766 Q551.9688,227.6094 551.9688,230.7813 Q551.9688,233.9531 550.8672,235.5781 Q549.7656,237.2031 547.6094,237.2031 Q545.4688,237.2031 544.3672,235.5781 Q543.2656,233.9531 543.2656,230.7813 Z "/><text fill="#000000" font-family="sans-serif" font-size="12" font-style="italic" lengthAdjust="spacingAndGlyphs" textLength="53" x="571" y="228.1387">«Object»</text><text fill="#000000" font-family="sans-serif" font-size="12" lengthAdjust="spacingAndGlyphs" textLength="59" x="568" y="242.1074">LinkValue</text><line style="stroke: #A80036; stroke-width: 1.5;" x1="485.75" x2="676.75" y1="249.9375" y2="249.9375"/><ellipse cx="495.75" cy="261.8398" fill="none" rx="3" ry="3" style="stroke: #038048; stroke-width: 1.0;"/><text fill="#000000" font-family="sans-serif" font-size="11" lengthAdjust="spacingAndGlyphs" textLength="167" x="504.75" y="264.1479">linkReference : LinkReference</text><ellipse cx="495.75" cy="274.6445" fill="none" rx="3" ry="3" style="stroke: #038048; stroke-width: 1.0;"/><text fill="#000000" font-family="sans-serif" font-size="11" lengthAdjust="spacingAndGlyphs" textLength="74" x="504.75" y="276.9526">value : Bytes</text><line style="stroke: #A80036; stroke-width: 1.5;" x1="485.75" x2="676.75" y1="283.5469" y2="283.5469"/><!--class LinkReference--><rect fill="#FEFECE" filter="url(#f2t8a2b6ozbwj)" height="79.5469" id="LinkReference" style="stroke: #A80036; stroke-width: 1.5;" width="186" x="486.5" y="365"/><ellipse cx="531.25" cy="383.9688" fill="#DA70D6" rx="11" ry="11" style="stroke: #A80036; stroke-width: 1.0;"/><path d="M531.3594,379.5469 Q530.4219,379.5469 529.9922,380.5469 Q529.5625,381.5469 529.5625,383.7813 Q529.5625,386.0156 529.9922,387.0156 Q530.4219,388.0156 531.3594,388.0156 Q532.3125,388.0156 532.7422,387.0156 Q533.1719,386.0156 533.1719,383.7813 Q533.1719,381.5469 532.7422,380.5469 Q532.3125,379.5469 531.3594,379.5469 Z M527.0156,383.7813 Q527.0156,380.6094 528.1172,378.9766 Q529.2188,377.3438 531.3594,377.3438 Q533.5156,377.3438 534.6172,378.9766 Q535.7188,380.6094 535.7188,383.7813 Q535.7188,386.9531 534.6172,388.5781 Q533.5156,390.2031 531.3594,390.2031 Q529.2188,390.2031 528.1172,388.5781 Q527.0156,386.9531 527.0156,383.7813 Z "/><text fill="#000000" font-family="sans-serif" font-size="12" font-style="italic" lengthAdjust="spacingAndGlyphs" textLength="53" x="569.25" y="381.1387">«Object»</text><text fill="#000000" font-family="sans-serif" font-size="12" lengthAdjust="spacingAndGlyphs" textLength="88" x="551.75" y="395.1074">LinkReference</text><line style="stroke: #A80036; stroke-width: 1.5;" x1="487.5" x2="671.5" y1="402.9375" y2="402.9375"/><ellipse cx="497.5" cy="414.8398" fill="none" rx="3" ry="3" style="stroke: #038048; stroke-width: 1.0;"/><text fill="#000000" font-family="sans-serif" font-size="11" lengthAdjust="spacingAndGlyphs" textLength="160" x="506.5" y="417.1479">offsets : Array&lt;ByteOffset&gt;</text><ellipse cx="497.5" cy="427.6445" fill="none" rx="3" ry="3" style="stroke: #038048; stroke-width: 1.0;"/><text fill="#000000" font-family="sans-serif" font-size="11" lengthAdjust="spacingAndGlyphs" textLength="87" x="506.5" y="429.9526">length : Integer</text><line style="stroke: #A80036; stroke-width: 1.5;" x1="487.5" x2="671.5" y1="436.5469" y2="436.5469"/><!--link ContractInstance to ContractType--><path d="M394.383,164.29 C368.248,223.738 333.919,301.824 311.66,352.456 " fill="none" id="ContractInstance-ContractType" style="stroke: #A80036; stroke-width: 1.0;"/><polygon fill="#FFFFFF" points="399.662,152.284,393.5857,156.1672,394.8332,163.2695,400.9094,159.3864,399.662,152.284" style="stroke: #A80036; stroke-width: 1.0;"/><text fill="#000000" font-family="sans-serif" font-size="13" lengthAdjust="spacingAndGlyphs" textLength="8" x="304.6441" y="341.4633">1</text><!--link ContractInstance to Bytecode--><path d="M431.096,165.242 C433.142,242.702 441.221,360.034 469,458 C474.805,478.472 484.428,499.814 493.76,517.869 " fill="none" id="ContractInstance-Bytecode" style="stroke: #A80036; stroke-width: 1.0;"/><polygon fill="#A80036" points="430.799,152.211,426.9365,158.3004,431.072,164.2079,434.9344,158.1185,430.799,152.211" style="stroke: #A80036; stroke-width: 1.0;"/><text fill="#000000" font-family="sans-serif" font-size="13" lengthAdjust="spacingAndGlyphs" textLength="8" x="480.7253" y="506.9223">1</text><!--link ContractInstance to LinkValue--><path d="M502.654,162.208 C517.856,179.436 533.24,196.872 546.304,211.678 " fill="none" id="ContractInstance-LinkValue" style="stroke: #A80036; stroke-width: 1.0;"/><polygon fill="#A80036" points="493.744,152.11,494.7148,159.2555,501.684,161.1076,500.7132,153.9621,493.744,152.11" style="stroke: #A80036; stroke-width: 1.0;"/><text fill="#000000" font-family="sans-serif" font-size="13" lengthAdjust="spacingAndGlyphs" textLength="8" x="531.6866" y="200.9205">n</text><!--link ContractInstance to Network--><path d="M557.49,80 C565.06,80 572.63,80 580.199,80 " fill="none" id="ContractInstance-Network" style="stroke: #A80036; stroke-width: 1.0;"/><polygon fill="#FFFFFF" points="544.312,80,550.312,84,556.312,80,550.312,76,544.312,80" style="stroke: #A80036; stroke-width: 1.0;"/><text fill="#000000" font-family="sans-serif" font-size="13" lengthAdjust="spacingAndGlyphs" textLength="8" x="564.5491" y="75.3872">1</text><!--link ContractType to ContractTypes--><path d="M233.525,457.843 C211.413,478.507 186.308,501.968 165.43,521.479 " fill="none" id="ContractType-ContractTypes" style="stroke: #A80036; stroke-width: 1.0;"/><polygon fill="#A80036" points="155.858,530.425,162.9729,529.2512,164.6259,522.2321,157.511,523.4059,155.858,530.425" style="stroke: #A80036; stroke-width: 1.0;"/><text fill="#000000" font-family="sans-serif" font-size="13" lengthAdjust="spacingAndGlyphs" textLength="8" x="216.7126" y="477.6398">n</text><!--link ContractType to Bytecode--><path d="M375.865,465.038 C401.643,482.558 429.452,501.459 453.702,517.94 " fill="none" id="ContractType-Bytecode" style="stroke: #A80036; stroke-width: 1.0;"/><polygon fill="#A80036" points="364.958,457.625,367.6719,464.3059,374.8828,464.3703,372.1688,457.6894,364.958,457.625" style="stroke: #A80036; stroke-width: 1.0;"/><text fill="#000000" font-family="sans-serif" font-size="13" lengthAdjust="spacingAndGlyphs" textLength="8" x="435.5349" y="507.0024">1</text><!--link ContractType to Compilation--><path d="M288.735,470.912 C285.904,513.158 277.017,568.006 252,610 C238.127,633.288 217.045,653.512 195.823,669.827 " fill="none" id="ContractType-Compilation" style="stroke: #A80036; stroke-width: 1.0;"/><polygon fill="#FFFFFF" points="289.454,457.671,285.1348,463.4455,288.8039,469.6534,293.1231,463.8789,289.454,457.671" style="stroke: #A80036; stroke-width: 1.0;"/><text fill="#000000" font-family="sans-serif" font-size="13" lengthAdjust="spacingAndGlyphs" textLength="24" x="178.68" y="658.8749">0..1</text><!--link ContractTypes to Compilation--><path d="M121,597.548 C121,614.853 121,636.654 121,656.761 " fill="none" id="ContractTypes-Compilation" style="stroke: #A80036; stroke-width: 1.0;"/><polygon fill="#A80036" points="121,669.998,125,663.998,121,657.998,117,663.998,121,669.998" style="stroke: #A80036; stroke-width: 1.0;"/><text fill="#000000" font-family="sans-serif" font-size="13" lengthAdjust="spacingAndGlyphs" textLength="8" x="110.9859" y="617.2191">n</text><!--link Compilation to Compiler--><path d="M121,775.569 C121,793.228 121,812.329 121,828.9625 " fill="none" id="Compilation-Compiler" style="stroke: #A80036; stroke-width: 1.0;"/><polygon fill="#A80036" points="121,762.411,117,768.411,121,774.411,125,768.411,121,762.411" style="stroke: #A80036; stroke-width: 1.0;"/><text fill="#000000" font-family="sans-serif" font-size="13" lengthAdjust="spacingAndGlyphs" textLength="8" x="111.2953" y="818.0272">1</text><!--link Compilation to Sources--><path d="M231.859,716 C239.338,716 246.817,716 254.296,716 " fill="none" id="Compilation-Sources" style="stroke: #A80036; stroke-width: 1.0;"/><polygon fill="#A80036" points="218.84,716,224.84,720,230.84,716,224.84,712,218.84,716" style="stroke: #A80036; stroke-width: 1.0;"/><text fill="#000000" font-family="sans-serif" font-size="13" lengthAdjust="spacingAndGlyphs" textLength="8" x="238.4489" y="711.6127">1</text><!--link Sources to Source--><path d="M374,762.578 C374,783.379 374,807.947 374,828.7125 " fill="none" id="Sources-Source" style="stroke: #A80036; stroke-width: 1.0;"/><polygon fill="#A80036" points="374,749.531,370,755.531,374,761.531,378,755.531,374,749.531" style="stroke: #A80036; stroke-width: 1.0;"/><text fill="#000000" font-family="sans-serif" font-size="13" lengthAdjust="spacingAndGlyphs" textLength="8" x="364.3906" y="818.0894">n</text><!--link Bytecode to SourceMap--><path d="M577.654,619.051 C597.692,637.836 619.764,658.528 638.264,675.872 " fill="none" id="Bytecode-SourceMap" style="stroke: #A80036; stroke-width: 1.0;"/><polygon fill="#A80036" points="568.005,610.005,569.6465,617.0268,576.7595,618.2122,575.118,611.1905,568.005,610.005" style="stroke: #A80036; stroke-width: 1.0;"/><text fill="#000000" font-family="sans-serif" font-size="13" lengthAdjust="spacingAndGlyphs" textLength="24" x="605.2247" y="664.8397">0..1</text><!--link Sources to SourceMap--><path d="M493.531,716 C500.891,716 508.251,716 515.611,716 " fill="none" id="Sources-SourceMap" style="stroke: #A80036; stroke-width: 1.0;"/><polygon fill="#FFFFFF" points="528.858,716,522.858,712,516.858,716,522.858,720,528.858,716" style="stroke: #A80036; stroke-width: 1.0;"/><text fill="#000000" font-family="sans-serif" font-size="13" lengthAdjust="spacingAndGlyphs" textLength="8" x="502.5661" y="711.457">1</text><!--link SourceMap to SourceRange--><path d="M680,769.396 C680,786.419 680,805.289 680,822.263 " fill="none" id="SourceMap-SourceRange" style="stroke: #A80036; stroke-width: 1.0;"/><polygon fill="#A80036" points="680,756.213,676,762.213,680,768.213,684,762.213,680,756.213" style="stroke: #A80036; stroke-width: 1.0;"/><text fill="#000000" font-family="sans-serif" font-size="13" lengthAdjust="spacingAndGlyphs" textLength="8" x="670.393" y="811.248">n</text><!--link Source to SourceRange--><path d="M442.133,875 C496.326,875 550.519,875 604.712,875 " fill="none" id="Source-SourceRange" style="stroke: #A80036; stroke-width: 1.0;"/><polygon fill="#FFFFFF" points="617.746,875,611.746,871,605.746,875,611.746,879,617.746,875" style="stroke: #A80036; stroke-width: 1.0;"/><text fill="#000000" font-family="sans-serif" font-size="13" lengthAdjust="spacingAndGlyphs" textLength="8" x="450.0225" y="870.1252">1</text><!--link LinkReference to Bytecode--><path d="M564.264,445.213 C557.396,463.49 549.088,485.595 541.535,505.696 " fill="none" id="LinkReference-Bytecode" style="stroke: #A80036; stroke-width: 1.0;"/><polygon fill="#A80036" points="536.948,517.901,542.803,513.6916,541.1693,506.668,535.3143,510.8774,536.948,517.901" style="stroke: #A80036; stroke-width: 1.0;"/><text fill="#000000" font-family="sans-serif" font-size="13" lengthAdjust="spacingAndGlyphs" textLength="8" x="552.1654" y="464.6308">n</text><!--link LinkValue to LinkReference--><path d="M580.48,292.279 C580.205,312.989 579.868,338.465 579.585,359.856 " fill="none" id="LinkValue-LinkReference" style="stroke: #A80036; stroke-width: 1.0; stroke-dasharray: 7.0,7.0;"/><polygon fill="#A80036" points="579.518,364.917,583.6359,355.9703,579.5837,359.9174,575.6366,355.8652,579.518,364.917" style="stroke: #A80036; stroke-width: 1.0;"/><text fill="#000000" font-family="sans-serif" font-size="13" lengthAdjust="spacingAndGlyphs" textLength="8" x="569.7863" y="353.8913">1</text><!--
@startuml

class ContractInstance << (O,orchid) Object >> {
 + address : Address
 + network : Network
 + transactionHash : TransactionHash
 + constructorArgs : Array<Value>
 + contractType : ContractType
 + callBytecode : Bytecode
 + linkValues : Set<LinkValue>
}

class ContractType << (O,orchid) Object >> {
 + name : String
 + abi : ABI
 + compilation : Compilation
 + createBytecode : Bytecode
}

class ContractTypes << (C,deeppink) Collection >> {
 + contractTypes : Set<ContractType>
}

class Source << (O,orchid) Object >> {
 + contents : String
 + sourcePath : String
 + ast : AST
}

class Sources << (C,deeppink) Collection >> {
 + sources : Map<FileIndex => Source>
}

class Network << (O,orchid) Object >> {
 + name : String
 + networkId : NetworkID
}

class Compilation << (O,orchid) Object >> {
 + compiler : Compiler
 + sources : Sources
 + contractTypes: ContractTypes
}

class Compiler << (O,orchid) Object >> {
 + name : String
 + version : String
 + settings : Object
}

class Bytecode << (O,orchid) Object >> {
 + bytes: Array<Byte>
 + sourceMap : SourceMap
 + linkReferences : Set<LinkReference>
}

class SourceMap << (O,orchid) Object >> {
 + sourceMap : Map<ByteOffset => SourceRange>
 + sources: Sources
}

class SourceRange << (O,orchid) Object >> {
 + source : Source
 + start : ByteOffset
 + length : Length
 + meta : Object
}

class LinkValue << (O,orchid) Object >> {
 + linkReference : LinkReference
 + value : Bytes
}

class LinkReference << (O,orchid) Object >> {
 + offsets : Array<ByteOffset>
 + length : Integer
}


ContractInstance o- - "1" ContractType
ContractInstance *- - "1" Bytecode
ContractInstance *- - "n" LinkValue
ContractInstance o-right- "1" Network

ContractType "n" - -* ContractTypes
ContractType *- - "1" Bytecode
ContractType o- - "0..1" Compilation

ContractTypes "n" - -* Compilation

Compilation *-down- "1" Compiler
Compilation *-right- "1" Sources

Sources *- - "n" Source

Bytecode *- - "0..1" SourceMap

SourceMap o-left- "1" Sources
SourceMap *- - "n" SourceRange
SourceRange o-left- "1" Source

LinkReference "n" - -* Bytecode

LinkValue ..> "1" LinkReference

@enduml

PlantUML version 1.2018.14(Fri Dec 21 16:33:16 UTC 2018)
(GPL source distribution)
Java Runtime: Java(TM) SE Runtime Environment
JVM: Java HotSpot(TM) 64-Bit Server VM
Java Version: 1.8.0_151-b12
Operating System: Linux
OS Version: 4.4.0-101-generic
Default Encoding: UTF-8
Language: en
Country: US
--></g></svg>