<?xml version="1.0" encoding="UTF-8" standalone="no"?><svg xmlns="http://www.w3.org/2000/svg" xmlns:xlink="http://www.w3.org/1999/xlink" contentScriptType="application/ecmascript" contentStyleType="text/css" height="502.5px" preserveAspectRatio="none" style="width:813px;height:502px;" version="1.1" viewBox="0 0 813 502" width="813.75px" zoomAndPan="magnify"><defs><filter height="300%" id="ffxcevem5p9pq" width="300%" x="-1" y="-1"><feGaussianBlur result="blurOut" stdDeviation="1.5"/><feColorMatrix in="blurOut" result="blurOut2" type="matrix" values="0 0 0 0 0 0 0 0 0 0 0 0 0 0 0 0 0 0 .4 0"/><feOffset dx="3.0" dy="3.0" in="blurOut2" result="blurOut3"/><feBlend in="SourceGraphic" in2="blurOut3" mode="normal"/></filter></defs><g><!--class Contract--><rect fill="#FEFECE" filter="url(#ffxcevem5p9pq)" height="107.6777" id="Contract" style="stroke: #A80036; stroke-width: 1.125;" width="216" x="420" y="6"/><ellipse cx="478.3125" cy="20.2266" fill="#FF8C00" rx="8.25" ry="8.25" style="stroke: #A80036; stroke-width: 0.75;"/><path d="M479.2148,20.332 Q479.4844,20.3906 479.6836,20.6016 Q479.8945,20.8008 480.1875,21.3867 L481.8633,24.7266 L479.8477,24.7266 L478.7227,22.3828 Q478.6758,22.2773 478.5938,22.1016 Q478.1016,21.0586 477.4336,21.0586 L476.8477,21.0586 L476.8477,24.7266 L475.0195,24.7266 L475.0195,15.4336 L477.668,15.4336 Q479.4609,15.4336 480.2344,16.0664 Q481.0195,16.6992 481.0195,18.1289 Q481.0195,19.0898 480.5508,19.6641 Q480.0938,20.2266 479.2148,20.332 Z M476.8477,16.9805 L476.8477,19.5117 L477.7148,19.5117 Q478.4766,19.5117 478.793,19.2188 Q479.1211,18.9141 479.1211,18.2344 Q479.1211,17.5664 478.793,17.2734 Q478.4766,16.9805 477.7148,16.9805 L476.8477,16.9805 Z "/><text fill="#000000" font-family="sans-serif" font-size="9" font-style="italic" lengthAdjust="spacingAndGlyphs" textLength="96" x="492.1875" y="18.104">«External Resource»</text><text fill="#000000" font-family="sans-serif" font-size="9" lengthAdjust="spacingAndGlyphs" textLength="40.5" x="519.9375" y="28.5806">Contract</text><line style="stroke: #A80036; stroke-width: 1.125;" x1="420.75" x2="635.25" y1="34.4531" y2="34.4531"/><ellipse cx="428.25" cy="43.3799" fill="none" rx="2.25" ry="2.25" style="stroke: #038048; stroke-width: 0.75;"/><text fill="#000000" font-family="sans-serif" font-size="8.25" lengthAdjust="spacingAndGlyphs" textLength="55.5" x="435" y="45.111">name: String</text><ellipse cx="428.25" cy="52.9834" fill="none" rx="2.25" ry="2.25" style="stroke: #038048; stroke-width: 0.75;"/><text fill="#000000" font-family="sans-serif" font-size="8.25" lengthAdjust="spacingAndGlyphs" textLength="32.25" x="435" y="54.7145">abi: ABI</text><line style="stroke: #A80036; stroke-width: 1.125;" x1="420.75" x2="635.25" y1="59.6602" y2="59.6602"/><ellipse cx="428.25" cy="68.5869" fill="#84BE84" rx="2.25" ry="2.25" style="stroke: #038048; stroke-width: 0.75;"/><text fill="#000000" font-family="sans-serif" font-size="8.25" lengthAdjust="spacingAndGlyphs" textLength="151.5" x="435" y="70.318">createBytecode: Maybe&lt;Bytecode&gt;</text><ellipse cx="428.25" cy="78.1904" fill="#84BE84" rx="2.25" ry="2.25" style="stroke: #038048; stroke-width: 0.75;"/><text fill="#000000" font-family="sans-serif" font-size="8.25" lengthAdjust="spacingAndGlyphs" textLength="138.75" x="435" y="79.9215">callBytecode: Maybe&lt;Bytecode&gt;</text><ellipse cx="428.25" cy="87.7939" fill="#84BE84" rx="2.25" ry="2.25" style="stroke: #038048; stroke-width: 0.75;"/><text fill="#000000" font-family="sans-serif" font-size="8.25" lengthAdjust="spacingAndGlyphs" textLength="145.5" x="435" y="89.525">compilation: Maybe&lt;Compilation&gt;</text><ellipse cx="428.25" cy="97.3975" fill="#84BE84" rx="2.25" ry="2.25" style="stroke: #038048; stroke-width: 0.75;"/><text fill="#000000" font-family="sans-serif" font-size="8.25" lengthAdjust="spacingAndGlyphs" textLength="196.5" x="435" y="99.1285">processedSource: Maybe&lt;ProcessedSource&gt;</text><ellipse cx="428.25" cy="107.001" fill="#84BE84" rx="2.25" ry="2.25" style="stroke: #038048; stroke-width: 0.75;"/><text fill="#000000" font-family="sans-serif" font-size="8.25" lengthAdjust="spacingAndGlyphs" textLength="117" x="435" y="108.7321">interface: ContractInterface</text><!--class Bytecode--><rect fill="#FEFECE" filter="url(#ffxcevem5p9pq)" height="78.8672" id="Bytecode" style="stroke: #A80036; stroke-width: 1.125;" width="177.75" x="167.625" y="159"/><ellipse cx="227.4375" cy="173.2266" fill="#DA70D6" rx="8.25" ry="8.25" style="stroke: #A80036; stroke-width: 0.75;"/><path d="M228.3398,173.332 Q228.6094,173.3906 228.8086,173.6016 Q229.0195,173.8008 229.3125,174.3867 L230.9883,177.7266 L228.9727,177.7266 L227.8477,175.3828 Q227.8008,175.2773 227.7188,175.1016 Q227.2266,174.0586 226.5586,174.0586 L225.9727,174.0586 L225.9727,177.7266 L224.1445,177.7266 L224.1445,168.4336 L226.793,168.4336 Q228.5859,168.4336 229.3594,169.0664 Q230.1445,169.6992 230.1445,171.1289 Q230.1445,172.0898 229.6758,172.6641 Q229.2188,173.2266 228.3398,173.332 Z M225.9727,169.9805 L225.9727,172.5117 L226.8398,172.5117 Q227.6016,172.5117 227.918,172.2188 Q228.2461,171.9141 228.2461,171.2344 Q228.2461,170.5664 227.918,170.2734 Q227.6016,169.9805 226.8398,169.9805 L225.9727,169.9805 Z "/><text fill="#000000" font-family="sans-serif" font-size="9" font-style="italic" lengthAdjust="spacingAndGlyphs" textLength="54.75" x="241.3125" y="171.104">«Resource»</text><text fill="#000000" font-family="sans-serif" font-size="9" lengthAdjust="spacingAndGlyphs" textLength="43.5" x="246.9375" y="181.5806">Bytecode</text><line style="stroke: #A80036; stroke-width: 1.125;" x1="168.375" x2="344.625" y1="187.4531" y2="187.4531"/><ellipse cx="175.875" cy="196.3799" fill="none" rx="2.25" ry="2.25" style="stroke: #038048; stroke-width: 0.75;"/><text fill="#000000" font-family="sans-serif" font-size="8.25" lengthAdjust="spacingAndGlyphs" textLength="53.25" x="182.625" y="198.111">bytes: Bytes</text><ellipse cx="175.875" cy="205.9834" fill="none" rx="2.25" ry="2.25" style="stroke: #038048; stroke-width: 0.75;"/><text fill="#000000" font-family="sans-serif" font-size="8.25" lengthAdjust="spacingAndGlyphs" textLength="158.25" x="182.625" y="207.7145">linkReferences : Set&lt;LinkReference&gt;</text><ellipse cx="175.875" cy="215.5869" fill="#84BE84" rx="2.25" ry="2.25" style="stroke: #038048; stroke-width: 0.75;"/><text fill="#000000" font-family="sans-serif" font-size="8.25" lengthAdjust="spacingAndGlyphs" textLength="137.25" x="182.625" y="217.318">instructions: Array&lt;Instruction&gt;</text><line style="stroke: #A80036; stroke-width: 0.75; stroke-dasharray: 1.0,2.0;" x1="168.375" x2="344.625" y1="222.2637" y2="222.2637"/><rect fill="none" height="4.5" style="stroke: #C82930; stroke-width: 0.75;" width="4.5" x="173.625" y="228.9404"/><path d="M187.1563,227.3047 C186.2075,227.3047 185.4375,228.0747 185.4375,229.0234 C185.4375,229.1334 185.4602,229.2276 185.4808,229.3246 L183.375,231.4304 L183.375,232.8054 L185.4375,232.8054 L185.4375,231.4304 L186.8125,231.4304 L186.8125,230.7429 L186.8558,230.6996 C186.9521,230.7202 187.0463,230.7429 187.1569,230.7429 C188.1057,230.7429 188.8757,229.9729 188.8757,229.0241 C188.8757,228.0754 188.1057,227.3054 187.1569,227.3054 M187.5007,227.9929 C187.8788,227.9929 188.1882,228.3023 188.1882,228.6804 C188.1882,229.0585 187.8788,229.3679 187.5007,229.3679 C187.1226,229.3679 186.8132,229.0585 186.8132,228.6804 C186.8132,228.3023 187.1226,227.9929 187.5007,227.9929 " fill="#000000" style="stroke: ; stroke-width: 0.0; stroke-dasharray: ;"/><text fill="#000000" font-family="sans-serif" font-size="8.25" lengthAdjust="spacingAndGlyphs" textLength="21.75" x="192.625" y="232.9215">id: ID</text><text fill="#000000" font-family="sans-serif" font-size="8.25" font-style="italic" lengthAdjust="spacingAndGlyphs" textLength="33.75" x="217.375" y="232.9215">= hash(</text><text fill="#000000" font-family="sans-serif" font-size="8.25" lengthAdjust="spacingAndGlyphs" textLength="0" x="254.125" y="232.9215"/><text fill="#000000" font-family="Andale Mono" font-size="8.25" lengthAdjust="spacingAndGlyphs" textLength="23.25" x="254.125" y="232.9215">bytes</text><text fill="#000000" font-family="sans-serif" font-size="8.25" lengthAdjust="spacingAndGlyphs" textLength="0" x="280.375" y="232.9215"/><text fill="#000000" font-family="sans-serif" font-size="8.25" font-style="italic" lengthAdjust="spacingAndGlyphs" textLength="3" x="280.375" y="232.9215">)</text><!--class Instruction--><rect fill="#FEFECE" filter="url(#ffxcevem5p9pq)" height="78.8672" id="Instruction" style="stroke: #A80036; stroke-width: 1.125;" width="126" x="144" y="20.625"/><ellipse cx="172.8" cy="34.8516" fill="#7CFC00" rx="8.25" ry="8.25" style="stroke: #A80036; stroke-width: 0.75;"/><path d="M172.882,31.5352 Q172.1789,31.5352 171.8508,32.2852 Q171.5344,33.0352 171.5344,34.7109 Q171.5344,36.3867 171.8508,37.1367 Q172.1789,37.8867 172.882,37.8867 Q173.5969,37.8867 173.9133,37.1367 Q174.2414,36.3867 174.2414,34.7109 Q174.2414,33.0352 173.9133,32.2852 Q173.5969,31.5352 172.882,31.5352 Z M169.6242,34.7109 Q169.6242,32.332 170.4445,31.1133 Q171.2766,29.8828 172.882,29.8828 Q174.4992,29.8828 175.3195,31.1133 Q176.1516,32.332 176.1516,34.7109 Q176.1516,37.0898 175.3195,38.3086 Q174.4992,39.5273 172.882,39.5273 Q171.2766,39.5273 170.4445,38.3086 Q169.6242,37.0898 169.6242,34.7109 Z "/><text fill="#000000" font-family="sans-serif" font-size="9" font-style="italic" lengthAdjust="spacingAndGlyphs" textLength="66" x="185.7" y="32.729">«Data Object»</text><text fill="#000000" font-family="sans-serif" font-size="9" lengthAdjust="spacingAndGlyphs" textLength="50.25" x="193.575" y="43.2056">Instruction</text><line style="stroke: #A80036; stroke-width: 1.125;" x1="144.75" x2="269.25" y1="49.0781" y2="49.0781"/><ellipse cx="152.25" cy="58.0049" fill="none" rx="2.25" ry="2.25" style="stroke: #038048; stroke-width: 0.75;"/><text fill="#000000" font-family="sans-serif" font-size="8.25" lengthAdjust="spacingAndGlyphs" textLength="106.5" x="159" y="59.736">programCounter: Integer</text><ellipse cx="152.25" cy="67.6084" fill="none" rx="2.25" ry="2.25" style="stroke: #038048; stroke-width: 0.75;"/><text fill="#000000" font-family="sans-serif" font-size="8.25" lengthAdjust="spacingAndGlyphs" textLength="62.25" x="159" y="69.3395">opcode: String</text><ellipse cx="152.25" cy="77.2119" fill="none" rx="2.25" ry="2.25" style="stroke: #038048; stroke-width: 0.75;"/><text fill="#000000" font-family="sans-serif" font-size="8.25" lengthAdjust="spacingAndGlyphs" textLength="70.5" x="159" y="78.943">pushData: Bytes</text><ellipse cx="152.25" cy="86.8154" fill="none" rx="2.25" ry="2.25" style="stroke: #038048; stroke-width: 0.75;"/><text fill="#000000" font-family="sans-serif" font-size="8.25" lengthAdjust="spacingAndGlyphs" textLength="93" x="159" y="88.5465">meta: InstructionMeta</text><line style="stroke: #A80036; stroke-width: 1.125;" x1="144.75" x2="269.25" y1="93.4922" y2="93.4922"/><!--class InstructionMeta--><rect fill="#FEFECE" filter="url(#ffxcevem5p9pq)" height="78.8672" id="InstructionMeta" style="stroke: #A80036; stroke-width: 1.125;" width="97.5" x="296.25" y="20.625"/><ellipse cx="307.5" cy="34.8516" fill="#7CFC00" rx="8.25" ry="8.25" style="stroke: #A80036; stroke-width: 0.75;"/><path d="M307.582,31.5352 Q306.8789,31.5352 306.5508,32.2852 Q306.2344,33.0352 306.2344,34.7109 Q306.2344,36.3867 306.5508,37.1367 Q306.8789,37.8867 307.582,37.8867 Q308.2969,37.8867 308.6133,37.1367 Q308.9414,36.3867 308.9414,34.7109 Q308.9414,33.0352 308.6133,32.2852 Q308.2969,31.5352 307.582,31.5352 Z M304.3242,34.7109 Q304.3242,32.332 305.1445,31.1133 Q305.9766,29.8828 307.582,29.8828 Q309.1992,29.8828 310.0195,31.1133 Q310.8516,32.332 310.8516,34.7109 Q310.8516,37.0898 310.0195,38.3086 Q309.1992,39.5273 307.582,39.5273 Q305.9766,39.5273 305.1445,38.3086 Q304.3242,37.0898 304.3242,34.7109 Z "/><text fill="#000000" font-family="sans-serif" font-size="9" font-style="italic" lengthAdjust="spacingAndGlyphs" textLength="66" x="321.75" y="32.729">«Data Object»</text><text fill="#000000" font-family="sans-serif" font-size="9" lengthAdjust="spacingAndGlyphs" textLength="73.5" x="318" y="43.2056">InstructionMeta</text><line style="stroke: #A80036; stroke-width: 1.125;" x1="297" x2="393" y1="49.0781" y2="49.0781"/><ellipse cx="304.5" cy="58.0049" fill="none" rx="2.25" ry="2.25" style="stroke: #038048; stroke-width: 0.75;"/><text fill="#000000" font-family="sans-serif" font-size="8.25" lengthAdjust="spacingAndGlyphs" textLength="54" x="311.25" y="59.736">cost: Integer</text><ellipse cx="304.5" cy="67.6084" fill="none" rx="2.25" ry="2.25" style="stroke: #038048; stroke-width: 0.75;"/><text fill="#000000" font-family="sans-serif" font-size="8.25" lengthAdjust="spacingAndGlyphs" textLength="57" x="311.25" y="69.3395">pops: Integer</text><ellipse cx="304.5" cy="77.2119" fill="none" rx="2.25" ry="2.25" style="stroke: #038048; stroke-width: 0.75;"/><text fill="#000000" font-family="sans-serif" font-size="8.25" lengthAdjust="spacingAndGlyphs" textLength="67.5" x="311.25" y="78.943">pushes: Integer</text><ellipse cx="304.5" cy="86.8154" fill="none" rx="2.25" ry="2.25" style="stroke: #038048; stroke-width: 0.75;"/><text fill="#000000" font-family="sans-serif" font-size="8.25" lengthAdjust="spacingAndGlyphs" textLength="71.25" x="311.25" y="88.5465">dynamic: Integer</text><line style="stroke: #A80036; stroke-width: 1.125;" x1="297" x2="393" y1="93.4922" y2="93.4922"/><!--class Source--><rect fill="#FEFECE" filter="url(#ffxcevem5p9pq)" height="69.2637" id="Source" style="stroke: #A80036; stroke-width: 1.125;" width="187.75" x="618" y="306.75"/><ellipse cx="682.8125" cy="320.9766" fill="#DA70D6" rx="8.25" ry="8.25" style="stroke: #A80036; stroke-width: 0.75;"/><path d="M683.7148,321.082 Q683.9844,321.1406 684.1836,321.3516 Q684.3945,321.5508 684.6875,322.1367 L686.3633,325.4766 L684.3477,325.4766 L683.2227,323.1328 Q683.1758,323.0273 683.0938,322.8516 Q682.6016,321.8086 681.9336,321.8086 L681.3477,321.8086 L681.3477,325.4766 L679.5195,325.4766 L679.5195,316.1836 L682.168,316.1836 Q683.9609,316.1836 684.7344,316.8164 Q685.5195,317.4492 685.5195,318.8789 Q685.5195,319.8398 685.0508,320.4141 Q684.5938,320.9766 683.7148,321.082 Z M681.3477,317.7305 L681.3477,320.2617 L682.2148,320.2617 Q682.9766,320.2617 683.293,319.9688 Q683.6211,319.6641 683.6211,318.9844 Q683.6211,318.3164 683.293,318.0234 Q682.9766,317.7305 682.2148,317.7305 L681.3477,317.7305 Z "/><text fill="#000000" font-family="sans-serif" font-size="9" font-style="italic" lengthAdjust="spacingAndGlyphs" textLength="54.75" x="696.6875" y="318.854">«Resource»</text><text fill="#000000" font-family="sans-serif" font-size="9" lengthAdjust="spacingAndGlyphs" textLength="33" x="707.5625" y="329.3306">Source</text><line style="stroke: #A80036; stroke-width: 1.125;" x1="618.75" x2="805" y1="335.2031" y2="335.2031"/><ellipse cx="626.25" cy="344.1299" fill="none" rx="2.25" ry="2.25" style="stroke: #038048; stroke-width: 0.75;"/><text fill="#000000" font-family="sans-serif" font-size="8.25" lengthAdjust="spacingAndGlyphs" textLength="68.25" x="633" y="345.861">contents: String</text><ellipse cx="626.25" cy="353.7334" fill="none" rx="2.25" ry="2.25" style="stroke: #038048; stroke-width: 0.75;"/><text fill="#000000" font-family="sans-serif" font-size="8.25" lengthAdjust="spacingAndGlyphs" textLength="120" x="633" y="355.4645">sourcePath: Maybe&lt;String&gt;</text><line style="stroke: #A80036; stroke-width: 0.75; stroke-dasharray: 1.0,2.0;" x1="618.75" x2="805" y1="360.4102" y2="360.4102"/><rect fill="none" height="4.5" style="stroke: #C82930; stroke-width: 0.75;" width="4.5" x="624" y="367.0869"/><path d="M637.5313,365.4512 C636.5825,365.4512 635.8125,366.2212 635.8125,367.1699 C635.8125,367.2799 635.8352,367.3741 635.8558,367.471 L633.75,369.5769 L633.75,370.9519 L635.8125,370.9519 L635.8125,369.5769 L637.1875,369.5769 L637.1875,368.8894 L637.2308,368.846 C637.3271,368.8667 637.4213,368.8894 637.5319,368.8894 C638.4807,368.8894 639.2507,368.1194 639.2507,367.1706 C639.2507,366.2219 638.4807,365.4519 637.5319,365.4519 M637.8757,366.1394 C638.2538,366.1394 638.5632,366.4487 638.5632,366.8269 C638.5632,367.205 638.2538,367.5144 637.8757,367.5144 C637.4976,367.5144 637.1882,367.205 637.1882,366.8269 C637.1882,366.4487 637.4976,366.1394 637.8757,366.1394 " fill="#000000" style="stroke: ; stroke-width: 0.0; stroke-dasharray: ;"/><text fill="#000000" font-family="sans-serif" font-size="8.25" lengthAdjust="spacingAndGlyphs" textLength="21.75" x="643" y="371.068">id: ID</text><text fill="#000000" font-family="sans-serif" font-size="8.25" font-style="italic" lengthAdjust="spacingAndGlyphs" textLength="33.75" x="667.75" y="371.068">= hash(</text><text fill="#000000" font-family="sans-serif" font-size="8.25" lengthAdjust="spacingAndGlyphs" textLength="0" x="704.5" y="371.068"/><text fill="#000000" font-family="Andale Mono" font-size="8.25" lengthAdjust="spacingAndGlyphs" textLength="36.75" x="704.5" y="371.068">contents</text><text fill="#000000" font-family="sans-serif" font-size="8.25" font-style="italic" lengthAdjust="spacingAndGlyphs" textLength="3" x="741.25" y="371.068">,</text><text fill="#000000" font-family="sans-serif" font-size="8.25" lengthAdjust="spacingAndGlyphs" textLength="0" x="747.25" y="371.068"/><text fill="#000000" font-family="Andale Mono" font-size="8.25" lengthAdjust="spacingAndGlyphs" textLength="48" x="747.25" y="371.068">sourcePath</text><text fill="#000000" font-family="sans-serif" font-size="8.25" lengthAdjust="spacingAndGlyphs" textLength="0" x="798.25" y="371.068"/><text fill="#000000" font-family="sans-serif" font-size="8.25" font-style="italic" lengthAdjust="spacingAndGlyphs" textLength="3" x="798.25" y="371.068">)</text><!--class Compilation--><rect fill="#FEFECE" filter="url(#ffxcevem5p9pq)" height="117.2813" id="Compilation" style="stroke: #A80036; stroke-width: 1.125;" width="219.75" x="371.625" y="282.75"/><ellipse cx="450.9375" cy="296.9766" fill="#DA70D6" rx="8.25" ry="8.25" style="stroke: #A80036; stroke-width: 0.75;"/><path d="M451.8398,297.082 Q452.1094,297.1406 452.3086,297.3516 Q452.5195,297.5508 452.8125,298.1367 L454.4883,301.4766 L452.4727,301.4766 L451.3477,299.1328 Q451.3008,299.0273 451.2188,298.8516 Q450.7266,297.8086 450.0586,297.8086 L449.4727,297.8086 L449.4727,301.4766 L447.6445,301.4766 L447.6445,292.1836 L450.293,292.1836 Q452.0859,292.1836 452.8594,292.8164 Q453.6445,293.4492 453.6445,294.8789 Q453.6445,295.8398 453.1758,296.4141 Q452.7188,296.9766 451.8398,297.082 Z M449.4727,293.7305 L449.4727,296.2617 L450.3398,296.2617 Q451.1016,296.2617 451.418,295.9688 Q451.7461,295.6641 451.7461,294.9844 Q451.7461,294.3164 451.418,294.0234 Q451.1016,293.7305 450.3398,293.7305 L449.4727,293.7305 Z "/><text fill="#000000" font-family="sans-serif" font-size="9" font-style="italic" lengthAdjust="spacingAndGlyphs" textLength="54.75" x="466.3125" y="294.854">«Resource»</text><text fill="#000000" font-family="sans-serif" font-size="9" lengthAdjust="spacingAndGlyphs" textLength="54.75" x="466.3125" y="305.3306">Compilation</text><line style="stroke: #A80036; stroke-width: 1.125;" x1="372.375" x2="590.625" y1="311.2031" y2="311.2031"/><ellipse cx="379.875" cy="320.1299" fill="none" rx="2.25" ry="2.25" style="stroke: #038048; stroke-width: 0.75;"/><text fill="#000000" font-family="sans-serif" font-size="8.25" lengthAdjust="spacingAndGlyphs" textLength="84" x="386.625" y="321.861">compiler : Compiler</text><ellipse cx="379.875" cy="329.7334" fill="#84BE84" rx="2.25" ry="2.25" style="stroke: #038048; stroke-width: 0.75;"/><text fill="#000000" font-family="sans-serif" font-size="8.25" lengthAdjust="spacingAndGlyphs" textLength="150" x="386.625" y="331.4645">sources : Array&lt;Maybe&lt;Source&gt;&gt;</text><ellipse cx="379.875" cy="339.3369" fill="#84BE84" rx="2.25" ry="2.25" style="stroke: #038048; stroke-width: 0.75;"/><text fill="#000000" font-family="sans-serif" font-size="8.25" lengthAdjust="spacingAndGlyphs" textLength="200.25" x="386.625" y="341.068">processedSources : Array&lt;ProcessedSource&gt;</text><ellipse cx="379.875" cy="348.9404" fill="none" rx="2.25" ry="2.25" style="stroke: #038048; stroke-width: 0.75;"/><text fill="#000000" font-family="sans-serif" font-size="8.25" lengthAdjust="spacingAndGlyphs" textLength="141" x="386.625" y="350.6715">sourceMaps: Array&lt;SourceMap&gt;</text><ellipse cx="379.875" cy="358.5439" fill="none" rx="2.25" ry="2.25" style="stroke: #038048; stroke-width: 0.75;"/><text fill="#000000" font-family="sans-serif" font-size="8.25" lengthAdjust="spacingAndGlyphs" textLength="85.5" x="386.625" y="360.275">metadata: Metadata</text><line style="stroke: #A80036; stroke-width: 0.75; stroke-dasharray: 1.0,2.0;" x1="372.375" x2="590.625" y1="365.2207" y2="365.2207"/><rect fill="none" height="4.5" style="stroke: #C82930; stroke-width: 0.75;" width="4.5" x="377.625" y="371.8975"/><path d="M391.1563,370.2617 C390.2075,370.2617 389.4375,371.0317 389.4375,371.9805 C389.4375,372.0905 389.4602,372.1847 389.4808,372.2816 L387.375,374.3874 L387.375,375.7624 L389.4375,375.7624 L389.4375,374.3874 L390.8125,374.3874 L390.8125,373.6999 L390.8558,373.6566 C390.9521,373.6772 391.0463,373.6999 391.1569,373.6999 C392.1057,373.6999 392.8757,372.9299 392.8757,371.9812 C392.8757,371.0324 392.1057,370.2624 391.1569,370.2624 M391.5007,370.9499 C391.8788,370.9499 392.1882,371.2593 392.1882,371.6374 C392.1882,372.0155 391.8788,372.3249 391.5007,372.3249 C391.1226,372.3249 390.8132,372.0155 390.8132,371.6374 C390.8132,371.2593 391.1226,370.9499 391.5007,370.9499 " fill="#000000" style="stroke: ; stroke-width: 0.0; stroke-dasharray: ;"/><text fill="#000000" font-family="sans-serif" font-size="8.25" lengthAdjust="spacingAndGlyphs" textLength="21.75" x="396.625" y="375.8785">id: ID</text><text fill="#000000" font-family="sans-serif" font-size="8.25" font-style="italic" lengthAdjust="spacingAndGlyphs" textLength="33.75" x="421.375" y="375.8785">= hash(</text><text fill="#000000" font-family="sans-serif" font-size="8.25" lengthAdjust="spacingAndGlyphs" textLength="0" x="458.125" y="375.8785"/><text fill="#000000" font-family="Andale Mono" font-size="8.25" lengthAdjust="spacingAndGlyphs" textLength="36.75" x="458.125" y="375.8785">compiler</text><text fill="#000000" font-family="sans-serif" font-size="8.25" font-style="italic" lengthAdjust="spacingAndGlyphs" textLength="3" x="494.875" y="375.8785">,</text><text fill="#000000" font-family="sans-serif" font-size="8.25" lengthAdjust="spacingAndGlyphs" textLength="0" x="500.875" y="375.8785"/><text fill="#000000" font-family="Andale Mono" font-size="8.25" lengthAdjust="spacingAndGlyphs" textLength="42" x="500.875" y="375.8785">sourceIds</text><text fill="#000000" font-family="sans-serif" font-size="8.25" lengthAdjust="spacingAndGlyphs" textLength="0" x="545.875" y="375.8785"/><text fill="#000000" font-family="sans-serif" font-size="8.25" font-style="italic" lengthAdjust="spacingAndGlyphs" textLength="3" x="545.875" y="375.8785">)</text><rect fill="none" height="4.5" style="stroke: #C82930; stroke-width: 0.75;" width="4.5" x="377.625" y="381.501"/><text fill="#000000" font-family="sans-serif" font-size="8.25" lengthAdjust="spacingAndGlyphs" textLength="132.75" x="386.625" y="385.4821">sourceIds: Array&lt;Maybe&lt;ID&gt;&gt;</text><rect fill="none" height="4.5" style="stroke: #C82930; stroke-width: 0.75;" width="4.5" x="377.625" y="391.1045"/><text fill="#000000" font-family="sans-serif" font-size="8.25" lengthAdjust="spacingAndGlyphs" textLength="141" x="386.625" y="395.0856">contractIds : Array&lt;Maybe&lt;ID&gt;&gt;</text><!--class ProcessedSource--><rect fill="#FEFECE" filter="url(#ffxcevem5p9pq)" height="69.2637" id="ProcessedSource" style="stroke: #A80036; stroke-width: 1.125;" width="106.5" x="521.25" y="163.875"/><ellipse cx="532.5" cy="178.1016" fill="#7CFC00" rx="8.25" ry="8.25" style="stroke: #A80036; stroke-width: 0.75;"/><path d="M532.582,174.7852 Q531.8789,174.7852 531.5508,175.5352 Q531.2344,176.2852 531.2344,177.9609 Q531.2344,179.6367 531.5508,180.3867 Q531.8789,181.1367 532.582,181.1367 Q533.2969,181.1367 533.6133,180.3867 Q533.9414,179.6367 533.9414,177.9609 Q533.9414,176.2852 533.6133,175.5352 Q533.2969,174.7852 532.582,174.7852 Z M529.3242,177.9609 Q529.3242,175.582 530.1445,174.3633 Q530.9766,173.1328 532.582,173.1328 Q534.1992,173.1328 535.0195,174.3633 Q535.8516,175.582 535.8516,177.9609 Q535.8516,180.3398 535.0195,181.5586 Q534.1992,182.7773 532.582,182.7773 Q530.9766,182.7773 530.1445,181.5586 Q529.3242,180.3398 529.3242,177.9609 Z "/><text fill="#000000" font-family="sans-serif" font-size="9" font-style="italic" lengthAdjust="spacingAndGlyphs" textLength="66" x="551.25" y="175.979">«Data Object»</text><text fill="#000000" font-family="sans-serif" font-size="9" lengthAdjust="spacingAndGlyphs" textLength="82.5" x="543" y="186.4556">ProcessedSource</text><line style="stroke: #A80036; stroke-width: 1.125;" x1="522" x2="627" y1="192.3281" y2="192.3281"/><ellipse cx="529.5" cy="201.2549" fill="none" rx="2.25" ry="2.25" style="stroke: #038048; stroke-width: 0.75;"/><text fill="#000000" font-family="sans-serif" font-size="8.25" lengthAdjust="spacingAndGlyphs" textLength="36" x="536.25" y="202.986">ast: AST</text><ellipse cx="529.5" cy="210.8584" fill="#84BE84" rx="2.25" ry="2.25" style="stroke: #038048; stroke-width: 0.75;"/><text fill="#000000" font-family="sans-serif" font-size="8.25" lengthAdjust="spacingAndGlyphs" textLength="65.25" x="536.25" y="212.5895">source: Source</text><line style="stroke: #A80036; stroke-width: 0.75; stroke-dasharray: 1.0,2.0;" x1="522" x2="627" y1="217.5352" y2="217.5352"/><rect fill="none" height="4.5" style="stroke: #C82930; stroke-width: 0.75;" width="4.5" x="527.25" y="224.2119"/><text fill="#000000" font-family="sans-serif" font-size="8.25" lengthAdjust="spacingAndGlyphs" textLength="51" x="536.25" y="228.193">sourceId: ID</text><!--class Compiler--><rect fill="#FEFECE" filter="url(#ffxcevem5p9pq)" height="69.2637" id="Compiler" style="stroke: #A80036; stroke-width: 1.125;" width="90" x="255" y="306.75"/><ellipse cx="267.6" cy="320.9766" fill="#7CFC00" rx="8.25" ry="8.25" style="stroke: #A80036; stroke-width: 0.75;"/><path d="M267.682,317.6602 Q266.9789,317.6602 266.6508,318.4102 Q266.3344,319.1602 266.3344,320.8359 Q266.3344,322.5117 266.6508,323.2617 Q266.9789,324.0117 267.682,324.0117 Q268.3969,324.0117 268.7133,323.2617 Q269.0414,322.5117 269.0414,320.8359 Q269.0414,319.1602 268.7133,318.4102 Q268.3969,317.6602 267.682,317.6602 Z M264.4242,320.8359 Q264.4242,318.457 265.2445,317.2383 Q266.0766,316.0078 267.682,316.0078 Q269.2992,316.0078 270.1195,317.2383 Q270.9516,318.457 270.9516,320.8359 Q270.9516,323.2148 270.1195,324.4336 Q269.2992,325.6523 267.682,325.6523 Q266.0766,325.6523 265.2445,324.4336 Q264.4242,323.2148 264.4242,320.8359 Z "/><text fill="#000000" font-family="sans-serif" font-size="9" font-style="italic" lengthAdjust="spacingAndGlyphs" textLength="66" x="276.9" y="318.854">«Data Object»</text><text fill="#000000" font-family="sans-serif" font-size="9" lengthAdjust="spacingAndGlyphs" textLength="40.5" x="289.65" y="329.3306">Compiler</text><line style="stroke: #A80036; stroke-width: 1.125;" x1="255.75" x2="344.25" y1="335.2031" y2="335.2031"/><ellipse cx="263.25" cy="344.1299" fill="none" rx="2.25" ry="2.25" style="stroke: #038048; stroke-width: 0.75;"/><text fill="#000000" font-family="sans-serif" font-size="8.25" lengthAdjust="spacingAndGlyphs" textLength="58.5" x="270" y="345.861">name : String</text><ellipse cx="263.25" cy="353.7334" fill="none" rx="2.25" ry="2.25" style="stroke: #038048; stroke-width: 0.75;"/><text fill="#000000" font-family="sans-serif" font-size="8.25" lengthAdjust="spacingAndGlyphs" textLength="66" x="270" y="355.4645">version : String</text><ellipse cx="263.25" cy="363.3369" fill="none" rx="2.25" ry="2.25" style="stroke: #038048; stroke-width: 0.75;"/><text fill="#000000" font-family="sans-serif" font-size="8.25" lengthAdjust="spacingAndGlyphs" textLength="70.5" x="270" y="365.068">settings : Object</text><line style="stroke: #A80036; stroke-width: 1.125;" x1="255.75" x2="344.25" y1="370.0137" y2="370.0137"/><!--class LinkReference--><rect fill="#FEFECE" filter="url(#ffxcevem5p9pq)" height="69.2637" id="LinkReference" style="stroke: #A80036; stroke-width: 1.125;" width="136.5" x="4.5" y="163.875"/><ellipse cx="36.675" cy="178.1016" fill="#7CFC00" rx="8.25" ry="8.25" style="stroke: #A80036; stroke-width: 0.75;"/><path d="M36.757,174.7852 Q36.0539,174.7852 35.7258,175.5352 Q35.4094,176.2852 35.4094,177.9609 Q35.4094,179.6367 35.7258,180.3867 Q36.0539,181.1367 36.757,181.1367 Q37.4719,181.1367 37.7883,180.3867 Q38.1164,179.6367 38.1164,177.9609 Q38.1164,176.2852 37.7883,175.5352 Q37.4719,174.7852 36.757,174.7852 Z M33.4992,177.9609 Q33.4992,175.582 34.3195,174.3633 Q35.1516,173.1328 36.757,173.1328 Q38.3742,173.1328 39.1945,174.3633 Q40.0266,175.582 40.0266,177.9609 Q40.0266,180.3398 39.1945,181.5586 Q38.3742,182.7773 36.757,182.7773 Q35.1516,182.7773 34.3195,181.5586 Q33.4992,180.3398 33.4992,177.9609 Z "/><text fill="#000000" font-family="sans-serif" font-size="9" font-style="italic" lengthAdjust="spacingAndGlyphs" textLength="66" x="51.825" y="175.979">«Data Object»</text><text fill="#000000" font-family="sans-serif" font-size="9" lengthAdjust="spacingAndGlyphs" textLength="66" x="51.825" y="186.4556">LinkReference</text><line style="stroke: #A80036; stroke-width: 1.125;" x1="5.25" x2="140.25" y1="192.3281" y2="192.3281"/><ellipse cx="12.75" cy="201.2549" fill="none" rx="2.25" ry="2.25" style="stroke: #038048; stroke-width: 0.75;"/><text fill="#000000" font-family="sans-serif" font-size="8.25" lengthAdjust="spacingAndGlyphs" textLength="117" x="19.5" y="202.986">offsets: Array&lt;ByteOffset&gt;</text><ellipse cx="12.75" cy="210.8584" fill="none" rx="2.25" ry="2.25" style="stroke: #038048; stroke-width: 0.75;"/><text fill="#000000" font-family="sans-serif" font-size="8.25" lengthAdjust="spacingAndGlyphs" textLength="96" x="19.5" y="212.5895">name: Maybe&lt;String&gt;</text><ellipse cx="12.75" cy="220.4619" fill="none" rx="2.25" ry="2.25" style="stroke: #038048; stroke-width: 0.75;"/><text fill="#000000" font-family="sans-serif" font-size="8.25" lengthAdjust="spacingAndGlyphs" textLength="62.25" x="19.5" y="222.193">length: Integer</text><line style="stroke: #A80036; stroke-width: 1.125;" x1="5.25" x2="140.25" y1="227.1387" y2="227.1387"/><!--class SourceMap--><rect fill="#FEFECE" filter="url(#ffxcevem5p9pq)" height="50.0566" id="SourceMap" style="stroke: #A80036; stroke-width: 1.125;" width="87" x="381.75" y="444.75"/><ellipse cx="393" cy="458.9766" fill="#7CFC00" rx="8.25" ry="8.25" style="stroke: #A80036; stroke-width: 0.75;"/><path d="M393.082,455.6602 Q392.3789,455.6602 392.0508,456.4102 Q391.7344,457.1602 391.7344,458.8359 Q391.7344,460.5117 392.0508,461.2617 Q392.3789,462.0117 393.082,462.0117 Q393.7969,462.0117 394.1133,461.2617 Q394.4414,460.5117 394.4414,458.8359 Q394.4414,457.1602 394.1133,456.4102 Q393.7969,455.6602 393.082,455.6602 Z M389.8242,458.8359 Q389.8242,456.457 390.6445,455.2383 Q391.4766,454.0078 393.082,454.0078 Q394.6992,454.0078 395.5195,455.2383 Q396.3516,456.457 396.3516,458.8359 Q396.3516,461.2148 395.5195,462.4336 Q394.6992,463.6523 393.082,463.6523 Q391.4766,463.6523 390.6445,462.4336 Q389.8242,461.2148 389.8242,458.8359 Z "/><text fill="#000000" font-family="sans-serif" font-size="9" font-style="italic" lengthAdjust="spacingAndGlyphs" textLength="66" x="402" y="456.854">«Data Object»</text><text fill="#000000" font-family="sans-serif" font-size="9" lengthAdjust="spacingAndGlyphs" textLength="52.5" x="408.75" y="467.3306">SourceMap</text><line style="stroke: #A80036; stroke-width: 1.125;" x1="382.5" x2="468" y1="473.2031" y2="473.2031"/><ellipse cx="390" cy="482.1299" fill="none" rx="2.25" ry="2.25" style="stroke: #038048; stroke-width: 0.75;"/><text fill="#000000" font-family="sans-serif" font-size="8.25" lengthAdjust="spacingAndGlyphs" textLength="49.5" x="396.75" y="483.861">json: String</text><line style="stroke: #A80036; stroke-width: 1.125;" x1="382.5" x2="468" y1="488.8066" y2="488.8066"/><!--class Metadata--><rect fill="#FEFECE" filter="url(#ffxcevem5p9pq)" height="50.0566" id="Metadata" style="stroke: #A80036; stroke-width: 1.125;" width="87" x="495" y="444.75"/><ellipse cx="506.25" cy="458.9766" fill="#7CFC00" rx="8.25" ry="8.25" style="stroke: #A80036; stroke-width: 0.75;"/><path d="M506.332,455.6602 Q505.6289,455.6602 505.3008,456.4102 Q504.9844,457.1602 504.9844,458.8359 Q504.9844,460.5117 505.3008,461.2617 Q505.6289,462.0117 506.332,462.0117 Q507.0469,462.0117 507.3633,461.2617 Q507.6914,460.5117 507.6914,458.8359 Q507.6914,457.1602 507.3633,456.4102 Q507.0469,455.6602 506.332,455.6602 Z M503.0742,458.8359 Q503.0742,456.457 503.8945,455.2383 Q504.7266,454.0078 506.332,454.0078 Q507.9492,454.0078 508.7695,455.2383 Q509.6016,456.457 509.6016,458.8359 Q509.6016,461.2148 508.7695,462.4336 Q507.9492,463.6523 506.332,463.6523 Q504.7266,463.6523 503.8945,462.4336 Q503.0742,461.2148 503.0742,458.8359 Z "/><text fill="#000000" font-family="sans-serif" font-size="9" font-style="italic" lengthAdjust="spacingAndGlyphs" textLength="66" x="515.25" y="456.854">«Data Object»</text><text fill="#000000" font-family="sans-serif" font-size="9" lengthAdjust="spacingAndGlyphs" textLength="45" x="525.75" y="467.3306">Metadata</text><line style="stroke: #A80036; stroke-width: 1.125;" x1="495.75" x2="581.25" y1="473.2031" y2="473.2031"/><ellipse cx="503.25" cy="482.1299" fill="none" rx="2.25" ry="2.25" style="stroke: #038048; stroke-width: 0.75;"/><text fill="#000000" font-family="sans-serif" font-size="8.25" lengthAdjust="spacingAndGlyphs" textLength="49.5" x="510" y="483.861">json: String</text><line style="stroke: #A80036; stroke-width: 1.125;" x1="495.75" x2="581.25" y1="488.8066" y2="488.8066"/><!--link Instruction to InstructionMeta--><path d="M279.8393,60 C285.2663,60 290.6933,60 296.1203,60 " fill="none" id="Instruction-InstructionMeta" style="stroke: #A80036; stroke-width: 0.75;"/><polygon fill="#A80036" points="270.0705,60,274.5705,63,279.0705,60,274.5705,57,270.0705,60" style="stroke: #A80036; stroke-width: 0.75;"/><text fill="#000000" font-family="sans-serif" font-size="9.75" lengthAdjust="spacingAndGlyphs" textLength="6" x="284.1217" y="57.1488">1</text><!--link Instruction to Bytecode--><path d="M221.052,99.6067 C226.6673,115.1333 233.1915,133.1745 239.1015,149.5155 " fill="none" id="Instruction-Bytecode" style="stroke: #A80036; stroke-width: 0.75;"/><polygon fill="#A80036" points="242.4983,158.9085,243.789,153.6565,239.4374,150.445,238.1467,155.697,242.4983,158.9085" style="stroke: #A80036; stroke-width: 0.75;"/><text fill="#000000" font-family="sans-serif" font-size="9.75" lengthAdjust="spacingAndGlyphs" textLength="6" x="216.468" y="114.4511">n</text><!--link ProcessedSource to Compilation--><path d="M552.2243,232.9875 C544.0103,245.4742 534.3975,260.0873 524.9535,274.4445 " fill="none" id="ProcessedSource-Compilation" style="stroke: #A80036; stroke-width: 0.75;"/><polygon fill="#A80036" points="519.579,282.6135,524.5587,280.5033,524.526,275.0951,519.5464,277.2053,519.579,282.6135" style="stroke: #A80036; stroke-width: 0.75;"/><text fill="#000000" font-family="sans-serif" font-size="9.75" lengthAdjust="spacingAndGlyphs" textLength="6" x="542.3539" y="248.1865">n</text><!--link Contract to Bytecode--><path d="M413.499,118.4745 C386.3925,132.1403 358.1273,146.3903 333.171,158.9715 " fill="none" id="Contract-Bytecode" style="stroke: #A80036; stroke-width: 0.75;"/><polygon fill="#FFFFFF" points="422.2537,114.0615,416.885,113.4086,414.2174,118.1133,419.5862,118.7662,422.2537,114.0615" style="stroke: #A80036; stroke-width: 0.75;"/><text fill="#000000" font-family="sans-serif" font-size="9.75" lengthAdjust="spacingAndGlyphs" textLength="18" x="324.2643" y="150.7198">0..2</text><!--link Contract to Compilation--><path d="M514.4153,123.852 C512.0693,135.5153 509.7457,147.6083 507.75,159 C500.5245,200.2395 493.7963,247.002 488.9603,282.732 " fill="none" id="Contract-Compilation" style="stroke: #A80036; stroke-width: 0.75;"/><polygon fill="#FFFFFF" points="516.3848,114.1807,512.5471,117.9916,514.5887,122.9997,518.4264,119.1889,516.3848,114.1807" style="stroke: #A80036; stroke-width: 0.75;"/><text fill="#000000" font-family="sans-serif" font-size="9.75" lengthAdjust="spacingAndGlyphs" textLength="18" x="470.8135" y="274.4099">0..1</text><!--link Contract to ProcessedSource--><path d="M549.2783,123.3833 C554.01,137.3123 558.852,151.5637 563.0115,163.8083 " fill="none" id="Contract-ProcessedSource" style="stroke: #A80036; stroke-width: 0.75; stroke-dasharray: 7.0,7.0;"/><polygon fill="#FFFFFF" points="546.111,114.0615,544.7185,119.2875,549.0068,122.5829,550.3994,117.3569,546.111,114.0615" style="stroke: #A80036; stroke-width: 0.75;"/><text fill="#000000" font-family="sans-serif" font-size="9.75" lengthAdjust="spacingAndGlyphs" textLength="6" x="554.8835" y="155.6932">1</text><!--link LinkReference to Bytecode--><path d="M141.297,198.375 C146.7818,198.375 152.2665,198.375 157.7505,198.375 " fill="none" id="LinkReference-Bytecode" style="stroke: #A80036; stroke-width: 0.75;"/><polygon fill="#A80036" points="167.6228,198.375,163.1228,195.375,158.6228,198.375,163.1228,201.375,167.6228,198.375" style="stroke: #A80036; stroke-width: 0.75;"/><text fill="#000000" font-family="sans-serif" font-size="9.75" lengthAdjust="spacingAndGlyphs" textLength="6" x="146.9984" y="195.7204">n</text><!--link ProcessedSource to Source--><path d="M614.4293,240.2543 C634.908,261.3488 659.5448,286.7258 678.906,306.669 " fill="none" id="ProcessedSource-Source" style="stroke: #A80036; stroke-width: 0.75;"/><polygon fill="#FFFFFF" points="607.3748,232.9875,608.3566,238.306,613.6436,239.4452,612.6617,234.1268,607.3748,232.9875" style="stroke: #A80036; stroke-width: 0.75;"/><text fill="#000000" font-family="sans-serif" font-size="9.75" lengthAdjust="spacingAndGlyphs" textLength="6" x="667.6231" y="298.5519">1</text><!--link Compiler to Compilation--><path d="M345.0203,341.25 C350.5185,341.25 356.016,341.25 361.5143,341.25 " fill="none" id="Compiler-Compilation" style="stroke: #A80036; stroke-width: 0.75;"/><polygon fill="#A80036" points="371.4098,341.25,366.9098,338.25,362.4098,341.25,366.9098,344.25,371.4098,341.25" style="stroke: #A80036; stroke-width: 0.75;"/><text fill="#000000" font-family="sans-serif" font-size="9.75" lengthAdjust="spacingAndGlyphs" textLength="6" x="350.8727" y="338.3546">1</text><!--link Compilation to Source--><path d="M601.3215,341.25 C606.804,341.25 612.2858,341.25 617.7683,341.25 " fill="none" id="Compilation-Source" style="stroke: #A80036; stroke-width: 0.75;"/><polygon fill="#FFFFFF" points="591.453,341.25,595.953,344.25,600.453,341.25,595.953,338.25,591.453,341.25" style="stroke: #A80036; stroke-width: 0.75;"/><text fill="#000000" font-family="sans-serif" font-size="9.75" lengthAdjust="spacingAndGlyphs" textLength="6" x="605.8508" y="338.7024">n</text><!--link Compilation to SourceMap--><path d="M451.7588,409.2143 C446.1525,421.8862 440.631,434.3636 436.0913,444.6234 " fill="none" id="Compilation-SourceMap" style="stroke: #A80036; stroke-width: 0.75;"/><polygon fill="#A80036" points="455.844,399.9825,451.2798,402.8839,452.2025,408.2129,456.7667,405.3115,455.844,399.9825" style="stroke: #A80036; stroke-width: 0.75;"/><text fill="#000000" font-family="sans-serif" font-size="9.75" lengthAdjust="spacingAndGlyphs" textLength="18" x="418.4537" y="436.3736">0..1</text><!--link Compilation to Metadata--><path d="M511.6373,409.2143 C517.3193,421.8862 522.9135,434.3636 527.514,444.6234 " fill="none" id="Compilation-Metadata" style="stroke: #A80036; stroke-width: 0.75;"/><polygon fill="#A80036" points="507.498,399.9825,506.602,405.3161,511.1808,408.1945,512.0767,402.8609,507.498,399.9825" style="stroke: #A80036; stroke-width: 0.75;"/><text fill="#000000" font-family="sans-serif" font-size="9.75" lengthAdjust="spacingAndGlyphs" textLength="18" x="505.5793" y="436.3736">0..1</text><!--
@startuml
scale 0.75



skinparam defaultMonospacedFontName Andale Mono





    class Contract << (R,darkorange) External Resource >> {
      + name: String
      + abi: ABI
      + {method} createBytecode: Maybe<Bytecode>
      + {method} callBytecode: Maybe<Bytecode>
      + {method} compilation: Maybe<Compilation>
      + {method} processedSource: Maybe<ProcessedSource>
      + {method} interface: ContractInterface
    }






    class Bytecode << (R,orchid) Resource >> {
      + bytes: Bytes
      + linkReferences : Set<LinkReference>
      + {method} instructions: Array<Instruction>
      ..
      - {field} <&key> id: ID //= hash(// ""bytes"" //)//
    }

    class Instruction << (O,lawngreen) Data Object >> {
      + programCounter: Integer
      + opcode: String
      + pushData: Bytes
      + meta: InstructionMeta
    }

    class InstructionMeta << (O,lawngreen) Data Object >> {
      + cost: Integer
      + pops: Integer
      + pushes: Integer
      + dynamic: Integer
    }

    Instruction *-right- "1" InstructionMeta
    Instruction "n" - -* Bytecode

    class Source << (R,orchid) Resource >> {
      + contents: String
      + sourcePath: Maybe<String>
      ..
      - {field} <&key> id: ID //= hash(// ""contents""//,// ""sourcePath"" //)//
    }




    class Compilation << (R,orchid) Resource >> {
      + compiler : Compiler
      + {method} sources : Array<Maybe<Source>>
      + {method} processedSources : Array<ProcessedSource>
      + sourceMaps: Array<SourceMap>
      + metadata: Metadata
      ..
      - {field} <&key> id: ID //= hash(// ""compiler""//,// ""sourceIds"" //)//
      - sourceIds: Array<Maybe<ID>>
      - contractIds : Array<Maybe<ID>>
    }

  ProcessedSource "n" - -* Compilation





  class Compiler << (O,lawngreen) Data Object >> {
    + name : String
    + version : String
    + settings : Object
  }




    class LinkReference << (O,lawngreen) Data Object >> {
      + offsets: Array<ByteOffset>
      + name: Maybe<String>
      + length: Integer
    }

    class SourceMap << (O,lawngreen) Data Object >> {
      + json: String
    }


    class ProcessedSource << (O,lawngreen) Data Object >> {
      + ast: AST
      + {method} source: Source
      ..
      - sourceId: ID
    }



  class Metadata << (O,lawngreen) Data Object >> {
    + json: String
  }








  Contract o- - "0..2" Bytecode


  Contract o- - "0..1" Compilation
  Contract o.. "1" ProcessedSource



  LinkReference "n" -* Bytecode



  ProcessedSource o- - "1" Source





  Compilation *-left- "1" Compiler

  Compilation o-right- "n" Source


  Compilation *- - "0..1" SourceMap

  Compilation *- - "0..1" Metadata




@enduml

PlantUML version 1.2018.14(Fri Dec 21 16:33:16 UTC 2018)
(GPL source distribution)
Java Runtime: OpenJDK Runtime Environment
JVM: OpenJDK 64-Bit Server VM
Java Version: 11.0.2+9
Operating System: Linux
OS Version: 4.15.0-1077-gcp
Default Encoding: UTF-8
Language: en
Country: US
--></g></svg>