<?xml version="1.0" encoding="UTF-8" standalone="no"?><svg xmlns="http://www.w3.org/2000/svg" xmlns:xlink="http://www.w3.org/1999/xlink" contentScriptType="application/ecmascript" contentStyleType="text/css" height="318.6px" preserveAspectRatio="none" style="width:732px;height:318px;" version="1.1" viewBox="0 0 732 318" width="732px" zoomAndPan="magnify"><defs><filter height="300%" id="f1cgolwmigbiwi" width="300%" x="-1" y="-1"><feGaussianBlur result="blurOut" stdDeviation="1.2"/><feColorMatrix in="blurOut" result="blurOut2" type="matrix" values="0 0 0 0 0 0 0 0 0 0 0 0 0 0 0 0 0 0 .4 0"/><feOffset dx="2.4" dy="2.4" in="blurOut2" result="blurOut3"/><feBlend in="SourceGraphic" in2="blurOut3" mode="normal"/></filter></defs><g><!--cluster Metadata--><rect fill="#FFFFFF" filter="url(#f1cgolwmigbiwi)" height="297.6" style="stroke: #000000; stroke-width: 0.8999999999999999;" width="588.6" x="136.8" y="14.4"/><text fill="#000000" font-family="sans-serif" font-size="8.4" font-weight="bold" lengthAdjust="spacingAndGlyphs" textLength="43.2" x="409.5" y="23.3971">Metadata</text><ellipse cx="237.8451" cy="219.049" fill="#FEFECE" filter="url(#f1cgolwmigbiwi)" rx="63.5451" ry="14.149" style="stroke: #A80036; stroke-width: 0.8999999999999999;"/><text fill="#000000" font-family="sans-serif" font-size="8.4" lengthAdjust="spacingAndGlyphs" textLength="113.4" x="181.1451" y="221.8381">Read contract instance info</text><ellipse cx="237.7663" cy="170.9733" fill="#FEFECE" filter="url(#f1cgolwmigbiwi)" rx="55.6663" ry="12.5733" style="stroke: #A80036; stroke-width: 0.8999999999999999;"/><text fill="#000000" font-family="sans-serif" font-size="8.4" lengthAdjust="spacingAndGlyphs" textLength="96" x="189.7663" y="173.7623">Read contract type info</text><ellipse cx="237.9916" cy="117.5583" fill="#FEFECE" filter="url(#f1cgolwmigbiwi)" rx="91.5916" ry="19.7583" style="stroke: #A80036; stroke-width: 0.8999999999999999;"/><text fill="#000000" font-family="sans-serif" font-size="8.4" lengthAdjust="spacingAndGlyphs" textLength="172.8" x="151.5916" y="120.3474">Read historical contract instance type info</text><ellipse cx="405.6664" cy="214.6933" fill="#FEFECE" filter="url(#f1cgolwmigbiwi)" rx="40.2664" ry="9.4933" style="stroke: #A80036; stroke-width: 0.8999999999999999;"/><text fill="#000000" font-family="sans-serif" font-size="8.4" lengthAdjust="spacingAndGlyphs" textLength="59.4" x="375.9664" y="217.4823">Read instance</text><ellipse cx="524.9985" cy="171.0142" fill="#FEFECE" filter="url(#f1cgolwmigbiwi)" rx="31.4985" ry="8.7142" style="stroke: #A80036; stroke-width: 0.8999999999999999;"/><text fill="#000000" font-family="sans-serif" font-size="8.4" lengthAdjust="spacingAndGlyphs" textLength="42" x="503.9985" y="173.8032">Read type</text><ellipse cx="659.9169" cy="293.4142" fill="#FEFECE" filter="url(#f1cgolwmigbiwi)" rx="35.3169" ry="8.7142" style="stroke: #A80036; stroke-width: 0.8999999999999999;"/><text fill="#000000" font-family="sans-serif" font-size="8.4" lengthAdjust="spacingAndGlyphs" textLength="47.4" x="636.2169" y="296.2032">Read name</text><ellipse cx="659.9044" cy="255.0142" fill="#FEFECE" filter="url(#f1cgolwmigbiwi)" rx="28.1044" ry="8.7142" style="stroke: #A80036; stroke-width: 0.8999999999999999;"/><text fill="#000000" font-family="sans-serif" font-size="8.4" lengthAdjust="spacingAndGlyphs" textLength="37.2" x="641.3044" y="257.8032">Read ABI</text><ellipse cx="660.0945" cy="214.7589" fill="#FEFECE" filter="url(#f1cgolwmigbiwi)" rx="43.5945" ry="10.1589" style="stroke: #A80036; stroke-width: 0.8999999999999999;"/><text fill="#000000" font-family="sans-serif" font-size="8.4" lengthAdjust="spacingAndGlyphs" textLength="67.8" x="626.1945" y="217.548">Read bytecodes</text><ellipse cx="659.8663" cy="170.9733" fill="#FEFECE" filter="url(#f1cgolwmigbiwi)" rx="55.6663" ry="12.5733" style="stroke: #A80036; stroke-width: 0.8999999999999999;"/><text fill="#000000" font-family="sans-serif" font-size="8.4" lengthAdjust="spacingAndGlyphs" textLength="96" x="611.8663" y="173.7623">Read source mappings</text><ellipse cx="524.9094" cy="253.0619" fill="#FEFECE" filter="url(#f1cgolwmigbiwi)" rx="43.1094" ry="10.0619" style="stroke: #A80036; stroke-width: 0.8999999999999999;"/><text fill="#000000" font-family="sans-serif" font-size="8.4" lengthAdjust="spacingAndGlyphs" textLength="66.6" x="491.6094" y="255.8509">Read link values</text><ellipse cx="659.9758" cy="127.8552" fill="#FEFECE" filter="url(#f1cgolwmigbiwi)" rx="39.5758" ry="9.3552" style="stroke: #A80036; stroke-width: 0.8999999999999999;"/><text fill="#000000" font-family="sans-serif" font-size="8.4" lengthAdjust="spacingAndGlyphs" textLength="57.6" x="631.1758" y="130.6442">Read sources</text><ellipse cx="660.0198" cy="88.8142" fill="#FEFECE" filter="url(#f1cgolwmigbiwi)" rx="33.6198" ry="8.7142" style="stroke: #A80036; stroke-width: 0.8999999999999999;"/><text fill="#000000" font-family="sans-serif" font-size="8.4" lengthAdjust="spacingAndGlyphs" textLength="45" x="637.5198" y="91.6032">Read ASTs</text><ellipse cx="659.9155" cy="47.3231" fill="#FEFECE" filter="url(#f1cgolwmigbiwi)" rx="50.9155" ry="11.6231" style="stroke: #A80036; stroke-width: 0.8999999999999999;"/><text fill="#000000" font-family="sans-serif" font-size="8.4" lengthAdjust="spacingAndGlyphs" textLength="85.2" x="617.3155" y="50.1122">Read link references</text><ellipse cx="524.9758" cy="212.4552" fill="#FEFECE" filter="url(#f1cgolwmigbiwi)" rx="39.5758" ry="9.3552" style="stroke: #A80036; stroke-width: 0.8999999999999999;"/><text fill="#000000" font-family="sans-serif" font-size="8.4" lengthAdjust="spacingAndGlyphs" textLength="57.6" x="496.1758" y="215.2442">Read address</text><!--entity SmartContractDev--><ellipse cx="57" cy="152.1" fill="#FEFECE" filter="url(#f1cgolwmigbiwi)" rx="4.8" ry="4.8" style="stroke: #A80036; stroke-width: 1.2;"/><path d="M57,156.9 L57,173.1 M49.2,161.7 L64.8,161.7 M57,173.1 L49.2,182.1 M57,173.1 L64.8,182.1 " fill="none" filter="url(#f1cgolwmigbiwi)" style="stroke: #A80036; stroke-width: 1.2;"/><text fill="#000000" font-family="sans-serif" font-size="8.4" lengthAdjust="spacingAndGlyphs" textLength="106.8" x="3.6" y="194.0971">Smart Contract Developer</text><!--link ReadContractInstance to ReadInstanceData--><path d="M301.209,217.4184 C318.3984,216.9846 336.834,216.5196 353.328,216.1032 " fill="none" id="ReadContractInstance-ReadInstanceData" style="stroke: #A80036; stroke-width: 0.6; stroke-dasharray: 7.0,7.0;"/><polygon fill="none" points="353.4078,211.9002,365.5098,215.796,353.6196,220.2972,353.4078,211.9002" style="stroke: #A80036; stroke-width: 0.6;"/><!--link ReadContractType to ReadTypeData--><path d="M293.7936,171 C348.5052,171 431.1186,171 481.1886,171 " fill="none" id="ReadContractType-ReadTypeData" style="stroke: #A80036; stroke-width: 0.6; stroke-dasharray: 7.0,7.0;"/><polygon fill="none" points="481.3326,166.8,493.3326,171,481.3326,175.2,481.3326,166.8" style="stroke: #A80036; stroke-width: 0.6;"/><!--link ReadHistoricalInstanceType to ReadTypeData--><path d="M307.5264,130.4928 C363.7902,141.0018 441.1326,155.4474 486.6366,163.9464 " fill="none" id="ReadHistoricalInstanceType-ReadTypeData" style="stroke: #A80036; stroke-width: 0.6; stroke-dasharray: 7.0,7.0;"/><polygon fill="none" points="487.5576,159.846,498.5826,166.1778,486.0156,168.1032,487.5576,159.846" style="stroke: #A80036; stroke-width: 0.6;"/><!--link ReadTypeData to ReadName--><path d="M545.4582,177.6972 C553.3374,181.1496 561.9828,186.039 568.2,192.6 C595.4658,221.3724 575.0622,247.3248 604.2,274.2 C610.836,280.3187 619.524,284.5034 628.038,287.3593 " fill="none" id="ReadTypeData-ReadName" style="stroke: #A80036; stroke-width: 0.6;"/><polygon fill="#A80036" points="630.912,288.2778,626.4929,284.3545,628.053,287.3689,625.0387,288.9289,630.912,288.2778" style="stroke: #A80036; stroke-width: 0.6;"/><!--link ReadTypeData to ReadABI--><path d="M543.5556,178.128 C551.5494,181.7826 560.8062,186.7098 568.2,192.6 C587.7486,208.1724 583.6488,221.577 604.2,235.8 C612.972,241.8702 623.844,246.1926 633.618,249.1794 " fill="none" id="ReadTypeData-ReadABI" style="stroke: #A80036; stroke-width: 0.6;"/><polygon fill="#A80036" points="636.612,250.0638,632.1117,246.234,633.7346,249.215,630.7536,250.8379,636.612,250.0638" style="stroke: #A80036; stroke-width: 0.6;"/><!--link ReadTypeData to ReadBytecodes--><path d="M545.9214,177.6522 C568.6584,185.0952 605.646,197.2032 631.182,205.5618 " fill="none" id="ReadTypeData-ReadBytecodes" style="stroke: #A80036; stroke-width: 0.6;"/><polygon fill="#A80036" points="634.08,206.511,629.696,202.5487,631.2292,205.5767,628.2011,207.11,634.08,206.511" style="stroke: #A80036; stroke-width: 0.6;"/><!--link ReadTypeData to ReadSourceMaps--><path d="M556.6326,171 C569.877,171 585.7842,171 601.083,171 " fill="none" id="ReadTypeData-ReadSourceMaps" style="stroke: #A80036; stroke-width: 0.6;"/><polygon fill="#A80036" points="604.134,171,598.734,168.6,601.134,171,598.734,173.4,604.134,171" style="stroke: #A80036; stroke-width: 0.6;"/><!--link ReadTypeData to ReadLinkRefs--><path d="M530.2944,162.1308 C540.9546,142.7688 568.8306,96.3144 604.2,69.6 C610.458,64.8732 617.856,60.9978 625.176,57.8844 " fill="none" id="ReadTypeData-ReadLinkRefs" style="stroke: #A80036; stroke-width: 0.6;"/><polygon fill="#A80036" points="628.08,56.6844,622.1726,56.5336,625.3084,57.8325,624.0095,60.9682,628.08,56.6844" style="stroke: #A80036; stroke-width: 0.6;"/><!--link ReadTypeData to ReadSources--><path d="M545.9214,164.439 C569.292,156.8934 607.716,144.4866 633.288,136.2312 " fill="none" id="ReadTypeData-ReadSources" style="stroke: #A80036; stroke-width: 0.6;"/><polygon fill="#A80036" points="636.186,135.2958,630.309,134.6788,633.3323,136.2213,631.7898,139.2447,636.186,135.2958" style="stroke: #A80036; stroke-width: 0.6;"/><!--link ReadTypeData to ReadASTs--><path d="M534.0726,162.549 C547.7562,149.3064 576.0414,123.5736 604.2,108 C613.212,103.0158 623.754,98.9652 633.198,95.892 " fill="none" id="ReadTypeData-ReadASTs" style="stroke: #A80036; stroke-width: 0.6;"/><polygon fill="#A80036" points="636.09,94.9698,630.2167,94.3188,633.231,95.8788,631.671,98.8931,636.09,94.9698" style="stroke: #A80036; stroke-width: 0.6;"/><!--link ReadInstanceData to ReadTypeData--><path d="M427.8798,206.7666 C449.16,198.8808 481.4358,186.9204 502.7172,179.0346 " fill="none" id="ReadInstanceData-ReadTypeData" style="stroke: #A80036; stroke-width: 0.6;"/><polygon fill="#A80036" points="505.7748,177.9018,499.8773,177.529,502.962,178.9448,501.5461,182.0295,505.7748,177.9018" style="stroke: #A80036; stroke-width: 0.6;"/><!--link ReadInstanceData to ReadLinkVals--><path d="M429.8352,222.4788 C448.971,228.6948 475.9776,237.4686 496.233,244.0494 " fill="none" id="ReadInstanceData-ReadLinkVals" style="stroke: #A80036; stroke-width: 0.6;"/><polygon fill="#A80036" points="499.1712,245.004,494.7764,241.0536,496.3179,244.0775,493.294,245.6189,499.1712,245.004" style="stroke: #A80036; stroke-width: 0.6;"/><!--link ReadInstanceData to ReadAddress--><path d="M445.7232,213.9972 C457.5402,213.7578 470.5344,213.4938 482.4984,213.2508 " fill="none" id="ReadInstanceData-ReadAddress" style="stroke: #A80036; stroke-width: 0.6;"/><polygon fill="#A80036" points="485.517,213.1896,480.0694,210.8996,482.5176,213.2505,480.1668,215.6987,485.517,213.1896" style="stroke: #A80036; stroke-width: 0.6;"/><!--link SmartContractDev to ReadContractInstance--><path d="M110.5206,187.6608 C117.7188,189.7968 125.0268,191.8992 132,193.8 C151.8588,199.2132 173.994,204.6066 192.8256,209.0058 " fill="none" id="SmartContractDev-ReadContractInstance" style="stroke: #A80036; stroke-width: 0.6;"/><!--link SmartContractDev to ReadContractType--><path d="M110.544,171 C133.0614,171 159.3222,171 182.0826,171 " fill="none" id="SmartContractDev-ReadContractType" style="stroke: #A80036; stroke-width: 0.6;"/><!--link SmartContractDev to ReadHistoricalInstanceType--><path d="M110.5842,154.1418 C117.7722,151.9116 125.0604,149.6796 132,147.6 C148.0236,142.7988 165.474,137.7534 181.476,133.1988 " fill="none" id="SmartContractDev-ReadHistoricalInstanceType" style="stroke: #A80036; stroke-width: 0.6;"/><!--
@startuml
scale 0.60
left to right direction

:Smart Contract Developer: as :SmartContractDev:

rectangle Metadata {
  (Read contract instance info) as (ReadContractInstance)
  (Read contract type info) as (ReadContractType)
  (Read historical contract instance type info) as (ReadHistoricalInstanceType)

  (Read instance) as (ReadInstanceData)
  (Read type) as (ReadTypeData)

  ReadInstanceData <|.up. ReadContractInstance
  ReadTypeData <|.up.. ReadContractType
  ReadTypeData <|.up.. ReadHistoricalInstanceType

  (Read name) as (ReadName)
  (Read ABI) as (ReadABI)
  (Read bytecodes) as (ReadBytecodes)
  (Read source mappings) as (ReadSourceMaps)
  (Read link values) as (ReadLinkVals)
  (Read sources) as (ReadSources)
  (Read ASTs) as (ReadASTs)

  (Read link references) as (ReadLinkRefs)
  (Read address) as (ReadAddress)

  ReadTypeData - -> ReadName
  ReadTypeData - -> ReadABI
  ReadTypeData - -> ReadBytecodes
  ReadTypeData - -> ReadSourceMaps
  ReadTypeData - -> ReadLinkRefs
  ReadTypeData - -> ReadSources
  ReadTypeData - -> ReadASTs

  ReadInstanceData - -> ReadTypeData
  ReadInstanceData - -> ReadLinkVals
  ReadInstanceData - -> ReadAddress
}

SmartContractDev - - ReadContractInstance
SmartContractDev - - ReadContractType
SmartContractDev - - ReadHistoricalInstanceType

@enduml

PlantUML version 1.2018.14(Fri Dec 21 16:33:16 UTC 2018)
(GPL source distribution)
Java Runtime: OpenJDK Runtime Environment
JVM: OpenJDK 64-Bit Server VM
Java Version: 11.0.2+9
Operating System: Linux
OS Version: 4.15.0-1028-gcp
Default Encoding: UTF-8
Language: en
Country: US
--></g></svg>