<?xml version="1.0" encoding="UTF-8" standalone="no"?><svg xmlns="http://www.w3.org/2000/svg" xmlns:xlink="http://www.w3.org/1999/xlink" contentScriptType="application/ecmascript" contentStyleType="text/css" height="354.4px" preserveAspectRatio="none" style="width:685px;height:354px;" version="1.1" viewBox="0 0 685 354" width="685.6px" zoomAndPan="magnify"><defs><filter height="300%" id="f113fj1qa4kghy" width="300%" x="-1" y="-1"><feGaussianBlur result="blurOut" stdDeviation="1.6"/><feColorMatrix in="blurOut" result="blurOut2" type="matrix" values="0 0 0 0 0 0 0 0 0 0 0 0 0 0 0 0 0 0 .4 0"/><feOffset dx="3.2" dy="3.2" in="blurOut2" result="blurOut3"/><feBlend in="SourceGraphic" in2="blurOut3" mode="normal"/></filter></defs><g><!--cluster tests--><rect fill="#FFFFFF" filter="url(#f113fj1qa4kghy)" height="326.4" style="stroke: #000000; stroke-width: 1.2000000000000002;" width="494.4" x="182.4" y="19.2"/><text fill="#000000" font-family="sans-serif" font-size="11.2" font-weight="bold" lengthAdjust="spacingAndGlyphs" textLength="32" x="413.6" y="31.1961">tests</text><ellipse cx="319.3335" cy="72.8267" fill="#FEFECE" filter="url(#f113fj1qa4kghy)" rx="112.5335" ry="24.4267" style="stroke: #A80036; stroke-width: 1.2000000000000002;"/><text fill="#000000" font-family="sans-serif" font-size="11.2" lengthAdjust="spacingAndGlyphs" textLength="210.4" x="214.1335" y="76.5455">Run automated tests for contract type</text><ellipse cx="319.2625" cy="151.8525" fill="#FEFECE" filter="url(#f113fj1qa4kghy)" rx="123.6625" ry="26.6525" style="stroke: #A80036; stroke-width: 1.2000000000000002;"/><text fill="#000000" font-family="sans-serif" font-size="11.2" lengthAdjust="spacingAndGlyphs" textLength="233.6" x="202.4625" y="155.5712">Run automated tests for contract instance</text><ellipse cx="319.2577" cy="230.3315" fill="#FEFECE" filter="url(#f113fj1qa4kghy)" rx="106.0577" ry="23.1315" style="stroke: #A80036; stroke-width: 1.2000000000000002;"/><text fill="#000000" font-family="sans-serif" font-size="11.2" lengthAdjust="spacingAndGlyphs" textLength="196.8" x="220.8577" y="234.0503">Run automated tests for library type</text><ellipse cx="319.1273" cy="307.3455" fill="#FEFECE" filter="url(#f113fj1qa4kghy)" rx="117.1273" ry="25.3455" style="stroke: #A80036; stroke-width: 1.2000000000000002;"/><text fill="#000000" font-family="sans-serif" font-size="11.2" lengthAdjust="spacingAndGlyphs" textLength="220" x="209.1273" y="311.0642">Run automated tests for library instance</text><ellipse cx="577.5058" cy="204.8612" fill="#FEFECE" filter="url(#f113fj1qa4kghy)" rx="80.7058" ry="18.0612" style="stroke: #A80036; stroke-width: 1.2000000000000002;"/><text fill="#000000" font-family="sans-serif" font-size="11.2" lengthAdjust="spacingAndGlyphs" textLength="142.4" x="506.3058" y="208.5799">Run test written in Solidity</text><ellipse cx="577.7672" cy="112.8334" fill="#FEFECE" filter="url(#f113fj1qa4kghy)" rx="86.5672" ry="19.2334" style="stroke: #A80036; stroke-width: 1.2000000000000002;"/><text fill="#000000" font-family="sans-serif" font-size="11.2" lengthAdjust="spacingAndGlyphs" textLength="155.2" x="500.1672" y="116.5522">Run test written in Javascript</text><!--entity Developer--><ellipse cx="76" cy="166" fill="#FEFECE" filter="url(#f113fj1qa4kghy)" rx="6.4" ry="6.4" style="stroke: #A80036; stroke-width: 1.6;"/><path d="M76,172.4 L76,194 M65.6,178.8 L86.4,178.8 M76,194 L65.6,206 M76,194 L86.4,206 " fill="none" filter="url(#f113fj1qa4kghy)" style="stroke: #A80036; stroke-width: 1.6;"/><text fill="#000000" font-family="sans-serif" font-size="11.2" lengthAdjust="spacingAndGlyphs" textLength="142.4" x="4.8" y="221.9961">Smart Contract Developer</text><!--link TestType to RunSolidity--><path d="M392.5224,91.1728 C409.5592,96.6344 427.3568,103.3112 443.2,111.2 C466.6944,122.8984 469.7392,130.4904 491.2,145.6 C506.6512,156.4784 523.7632,168.348 538.6008,178.584 " fill="none" id="TestType-RunSolidity" style="stroke: #A80036; stroke-width: 0.8; stroke-dasharray: 7.0,7.0;"/><polygon fill="none" points="541.9992,174.1248,552.0008,187.8112,535.6472,183.3496,541.9992,174.1248" style="stroke: #A80036; stroke-width: 0.8;"/><!--link TestType to RunJavascript--><path d="M410.8992,86.9584 C436.7648,90.988 464.856,95.3632 490.4432,99.3488 " fill="none" id="TestType-RunJavascript" style="stroke: #A80036; stroke-width: 0.8; stroke-dasharray: 7.0,7.0;"/><polygon fill="none" points="491.4792,93.8424,506.4264,101.8384,489.7552,104.9088,491.4792,93.8424" style="stroke: #A80036; stroke-width: 0.8;"/><!--link TestInstance to RunSolidity--><path d="M409.0952,170.3184 C439.5304,176.576 473.2256,183.504 502.3816,189.4992 " fill="none" id="TestInstance-RunSolidity" style="stroke: #A80036; stroke-width: 0.8; stroke-dasharray: 7.0,7.0;"/><polygon fill="none" points="503.5176,184.0152,518.0624,192.7232,501.2624,194.9856,503.5176,184.0152" style="stroke: #A80036; stroke-width: 0.8;"/><!--link TestInstance to RunJavascript--><path d="M420.3888,136.676 C443.368,133.168 467.6056,129.468 489.9592,126.056 " fill="none" id="TestInstance-RunJavascript" style="stroke: #A80036; stroke-width: 0.8; stroke-dasharray: 7.0,7.0;"/><polygon fill="none" points="489.1968,120.508,505.8584,123.6288,490.8872,131.5792,489.1968,120.508" style="stroke: #A80036; stroke-width: 0.8;"/><!--link TestLibrary to RunSolidity--><path d="M415.6232,220.8672 C439.2032,218.5168 464.364,216.0088 487.6248,213.6896 " fill="none" id="TestLibrary-RunSolidity" style="stroke: #A80036; stroke-width: 0.8; stroke-dasharray: 7.0,7.0;"/><polygon fill="none" points="487.3008,208.0944,503.7776,212.0792,488.412,219.2392,487.3008,208.0944" style="stroke: #A80036; stroke-width: 0.8;"/><!--link TestLibraryInstance to RunSolidity--><path d="M387.6688,286.8831 C405.8608,280.9736 425.4168,274.2088 443.2,267.2 C472.6272,255.6016 504.7696,240.6632 530.152,228.3104 " fill="none" id="TestLibraryInstance-RunSolidity" style="stroke: #A80036; stroke-width: 0.8; stroke-dasharray: 7.0,7.0;"/><polygon fill="none" points="527.7912,223.2312,544.62,221.1944,532.7344,233.2816,527.7912,223.2312" style="stroke: #A80036; stroke-width: 0.8;"/><!--link Developer to TestType--><path d="M110.5624,158.0576 C128.6784,141.8856 152.144,123.3488 176,111.2 C194.368,101.8464 215.264,94.5776 235.2832,89.0088 " fill="none" id="Developer-TestType" style="stroke: #A80036; stroke-width: 0.8;"/><!--link Developer to TestInstance--><path d="M147.3304,179.756 C170.1024,176.0616 195.776,171.896 220.1752,167.9368 " fill="none" id="Developer-TestInstance" style="stroke: #A80036; stroke-width: 0.8;"/><!--link Developer to TestLibrary--><path d="M147.3304,202.644 C174.4896,207.0504 205.776,212.1264 234.1056,216.7232 " fill="none" id="Developer-TestLibrary" style="stroke: #A80036; stroke-width: 0.8;"/><!--link Developer to TestLibraryInstance--><path d="M112.9288,224.2352 C130.82,239.1384 153.3944,255.8936 176,267.2 C194.488,276.4472 215.4296,283.8342 235.4528,289.6162 " fill="none" id="Developer-TestLibraryInstance" style="stroke: #A80036; stroke-width: 0.8;"/><!--
@startuml
scale 0.80
left to right direction

:Smart Contract Developer: as :Developer:

rectangle tests {
  (Run automated tests for contract type) as (TestType)
  (Run automated tests for contract instance) as (TestInstance)
  (Run automated tests for library type) as (TestLibrary)
  (Run automated tests for library instance) as (TestLibraryInstance)

  (Run test written in Solidity) as (RunSolidity)
  (Run test written in Javascript) as (RunJavascript)

  TestType ..|> RunSolidity
  TestType ..|> RunJavascript

  TestInstance ..|> RunSolidity
  TestInstance ..|> RunJavascript

  TestLibrary ..|> RunSolidity
  TestLibraryInstance ..|> RunSolidity
}

Developer - - TestType
Developer - - TestInstance
Developer - - TestLibrary
Developer - - TestLibraryInstance

@enduml

PlantUML version 1.2018.14(Fri Dec 21 16:33:16 UTC 2018)
(GPL source distribution)
Java Runtime: Java(TM) SE Runtime Environment
JVM: Java HotSpot(TM) 64-Bit Server VM
Java Version: 1.8.0_151-b12
Operating System: Linux
OS Version: 4.4.0-101-generic
Default Encoding: UTF-8
Language: en
Country: US
--></g></svg>