<?xml version="1.0" encoding="UTF-8" standalone="no"?><svg xmlns="http://www.w3.org/2000/svg" xmlns:xlink="http://www.w3.org/1999/xlink" contentScriptType="application/ecmascript" contentStyleType="text/css" height="1078px" preserveAspectRatio="none" style="width:825px;height:1078px;" version="1.1" viewBox="0 0 825 1078" width="825px" zoomAndPan="magnify"><defs><filter height="300%" id="f1twuquwvy74kf" width="300%" x="-1" y="-1"><feGaussianBlur result="blurOut" stdDeviation="2.0"/><feColorMatrix in="blurOut" result="blurOut2" type="matrix" values="0 0 0 0 0 0 0 0 0 0 0 0 0 0 0 0 0 0 .4 0"/><feOffset dx="4.0" dy="4.0" in="blurOut2" result="blurOut3"/><feBlend in="SourceGraphic" in2="blurOut3" mode="normal"/></filter></defs><g><!--class ContractInstance--><rect fill="#FEFECE" filter="url(#f1twuquwvy74kf)" height="143.5703" id="ContractInstance" style="stroke: #A80036; stroke-width: 1.5;" width="227" x="319.75" y="148"/><ellipse cx="375" cy="166.9688" fill="#DA70D6" rx="11" ry="11" style="stroke: #A80036; stroke-width: 1.0;"/><path d="M375.1094,162.5469 Q374.1719,162.5469 373.7422,163.5469 Q373.3125,164.5469 373.3125,166.7813 Q373.3125,169.0156 373.7422,170.0156 Q374.1719,171.0156 375.1094,171.0156 Q376.0625,171.0156 376.4922,170.0156 Q376.9219,169.0156 376.9219,166.7813 Q376.9219,164.5469 376.4922,163.5469 Q376.0625,162.5469 375.1094,162.5469 Z M370.7656,166.7813 Q370.7656,163.6094 371.8672,161.9766 Q372.9688,160.3438 375.1094,160.3438 Q377.2656,160.3438 378.3672,161.9766 Q379.4688,163.6094 379.4688,166.7813 Q379.4688,169.9531 378.3672,171.5781 Q377.2656,173.2031 375.1094,173.2031 Q372.9688,173.2031 371.8672,171.5781 Q370.7656,169.9531 370.7656,166.7813 Z "/><text fill="#000000" font-family="sans-serif" font-size="12" font-style="italic" lengthAdjust="spacingAndGlyphs" textLength="53" x="423" y="164.1387">«Object»</text><text fill="#000000" font-family="sans-serif" font-size="12" lengthAdjust="spacingAndGlyphs" textLength="108" x="395.5" y="178.1074">ContractInstance</text><line style="stroke: #A80036; stroke-width: 1.5;" x1="320.75" x2="545.75" y1="185.9375" y2="185.9375"/><ellipse cx="330.75" cy="197.8398" fill="none" rx="3" ry="3" style="stroke: #038048; stroke-width: 1.0;"/><text fill="#000000" font-family="sans-serif" font-size="11" lengthAdjust="spacingAndGlyphs" textLength="106" x="339.75" y="200.1479">address : Address</text><ellipse cx="330.75" cy="210.6445" fill="none" rx="3" ry="3" style="stroke: #038048; stroke-width: 1.0;"/><text fill="#000000" font-family="sans-serif" font-size="11" lengthAdjust="spacingAndGlyphs" textLength="103" x="339.75" y="212.9526">network : Network</text><ellipse cx="330.75" cy="223.4492" fill="none" rx="3" ry="3" style="stroke: #038048; stroke-width: 1.0;"/><text fill="#000000" font-family="sans-serif" font-size="11" lengthAdjust="spacingAndGlyphs" textLength="201" x="339.75" y="225.7573">transactionHash : TransactionHash</text><ellipse cx="330.75" cy="236.2539" fill="none" rx="3" ry="3" style="stroke: #038048; stroke-width: 1.0;"/><text fill="#000000" font-family="sans-serif" font-size="11" lengthAdjust="spacingAndGlyphs" textLength="182" x="339.75" y="238.562">constructorArgs : Array&lt;Value&gt;</text><ellipse cx="330.75" cy="249.0586" fill="none" rx="3" ry="3" style="stroke: #038048; stroke-width: 1.0;"/><text fill="#000000" font-family="sans-serif" font-size="11" lengthAdjust="spacingAndGlyphs" textLength="160" x="339.75" y="251.3667">contractType : ContractType</text><ellipse cx="330.75" cy="261.8633" fill="none" rx="3" ry="3" style="stroke: #038048; stroke-width: 1.0;"/><text fill="#000000" font-family="sans-serif" font-size="11" lengthAdjust="spacingAndGlyphs" textLength="135" x="339.75" y="264.1714">callBytecode : Bytecode</text><ellipse cx="330.75" cy="274.668" fill="none" rx="3" ry="3" style="stroke: #038048; stroke-width: 1.0;"/><text fill="#000000" font-family="sans-serif" font-size="11" lengthAdjust="spacingAndGlyphs" textLength="159" x="339.75" y="276.9761">linkValues : Set&lt;LinkValue&gt;</text><line style="stroke: #A80036; stroke-width: 1.5;" x1="320.75" x2="545.75" y1="283.5703" y2="283.5703"/><!--class ContractType--><rect fill="#FEFECE" filter="url(#f1twuquwvy74kf)" height="105.1563" id="ContractType" style="stroke: #A80036; stroke-width: 1.5;" width="178" x="202.5" y="492.5"/><ellipse cx="245.85" cy="511.4688" fill="#DA70D6" rx="11" ry="11" style="stroke: #A80036; stroke-width: 1.0;"/><path d="M245.9594,507.0469 Q245.0219,507.0469 244.5922,508.0469 Q244.1625,509.0469 244.1625,511.2813 Q244.1625,513.5156 244.5922,514.5156 Q245.0219,515.5156 245.9594,515.5156 Q246.9125,515.5156 247.3422,514.5156 Q247.7719,513.5156 247.7719,511.2813 Q247.7719,509.0469 247.3422,508.0469 Q246.9125,507.0469 245.9594,507.0469 Z M241.6156,511.2813 Q241.6156,508.1094 242.7172,506.4766 Q243.8188,504.8438 245.9594,504.8438 Q248.1156,504.8438 249.2172,506.4766 Q250.3188,508.1094 250.3188,511.2813 Q250.3188,514.4531 249.2172,516.0781 Q248.1156,517.7031 245.9594,517.7031 Q243.8188,517.7031 242.7172,516.0781 Q241.6156,514.4531 241.6156,511.2813 Z "/><text fill="#000000" font-family="sans-serif" font-size="12" font-style="italic" lengthAdjust="spacingAndGlyphs" textLength="53" x="281.15" y="508.6387">«Object»</text><text fill="#000000" font-family="sans-serif" font-size="12" lengthAdjust="spacingAndGlyphs" textLength="83" x="266.15" y="522.6074">ContractType</text><line style="stroke: #A80036; stroke-width: 1.5;" x1="203.5" x2="379.5" y1="530.4375" y2="530.4375"/><ellipse cx="213.5" cy="542.3398" fill="none" rx="3" ry="3" style="stroke: #038048; stroke-width: 1.0;"/><text fill="#000000" font-family="sans-serif" font-size="11" lengthAdjust="spacingAndGlyphs" textLength="78" x="222.5" y="544.6479">name : String</text><ellipse cx="213.5" cy="555.1445" fill="none" rx="3" ry="3" style="stroke: #038048; stroke-width: 1.0;"/><text fill="#000000" font-family="sans-serif" font-size="11" lengthAdjust="spacingAndGlyphs" textLength="47" x="222.5" y="557.4526">abi : ABI</text><ellipse cx="213.5" cy="567.9492" fill="none" rx="3" ry="3" style="stroke: #038048; stroke-width: 1.0;"/><text fill="#000000" font-family="sans-serif" font-size="11" lengthAdjust="spacingAndGlyphs" textLength="144" x="222.5" y="570.2573">compilation : Compilation</text><ellipse cx="213.5" cy="580.7539" fill="none" rx="3" ry="3" style="stroke: #038048; stroke-width: 1.0;"/><text fill="#000000" font-family="sans-serif" font-size="11" lengthAdjust="spacingAndGlyphs" textLength="152" x="222.5" y="583.062">createBytecode : Bytecode</text><line style="stroke: #A80036; stroke-width: 1.5;" x1="203.5" x2="379.5" y1="589.6563" y2="589.6563"/><!--class ContractTypes--><rect fill="#FEFECE" filter="url(#f1twuquwvy74kf)" height="66.7422" id="ContractTypes" style="stroke: #A80036; stroke-width: 1.5;" width="230" x="113.5" y="670.5"/><ellipse cx="179.25" cy="689.4688" fill="#FF1493" rx="11" ry="11" style="stroke: #A80036; stroke-width: 1.0;"/><path d="M182.2188,695.1094 Q181.6406,695.4063 181,695.5547 Q180.3594,695.7031 179.6563,695.7031 Q177.1563,695.7031 175.8359,694.0547 Q174.5156,692.4063 174.5156,689.2813 Q174.5156,686.1563 175.8359,684.5 Q177.1563,682.8438 179.6563,682.8438 Q180.3594,682.8438 181.0078,683 Q181.6563,683.1563 182.2188,683.4531 L182.2188,686.1719 Q181.5938,685.5938 181,685.3203 Q180.4063,685.0469 179.7813,685.0469 Q178.4375,685.0469 177.75,686.1172 Q177.0625,687.1875 177.0625,689.2813 Q177.0625,691.375 177.75,692.4453 Q178.4375,693.5156 179.7813,693.5156 Q180.4063,693.5156 181,693.2422 Q181.5938,692.9688 182.2188,692.3906 L182.2188,695.1094 Z "/><text fill="#000000" font-family="sans-serif" font-size="12" font-style="italic" lengthAdjust="spacingAndGlyphs" textLength="75" x="207.25" y="686.6387">«Collection»</text><text fill="#000000" font-family="sans-serif" font-size="12" lengthAdjust="spacingAndGlyphs" textLength="90" x="199.75" y="700.6074">ContractTypes</text><line style="stroke: #A80036; stroke-width: 1.5;" x1="114.5" x2="342.5" y1="708.4375" y2="708.4375"/><ellipse cx="124.5" cy="720.3398" fill="none" rx="3" ry="3" style="stroke: #038048; stroke-width: 1.0;"/><text fill="#000000" font-family="sans-serif" font-size="11" lengthAdjust="spacingAndGlyphs" textLength="204" x="133.5" y="722.6479">contractTypes : Set&lt;ContractType&gt;</text><line style="stroke: #A80036; stroke-width: 1.5;" x1="114.5" x2="342.5" y1="729.2422" y2="729.2422"/><!--class Source--><rect fill="#FEFECE" filter="url(#f1twuquwvy74kf)" height="92.3516" id="Source" style="stroke: #A80036; stroke-width: 1.5;" width="136" x="289" y="969"/><ellipse cx="328.75" cy="987.9688" fill="#DA70D6" rx="11" ry="11" style="stroke: #A80036; stroke-width: 1.0;"/><path d="M328.8594,983.5469 Q327.9219,983.5469 327.4922,984.5469 Q327.0625,985.5469 327.0625,987.7813 Q327.0625,990.0156 327.4922,991.0156 Q327.9219,992.0156 328.8594,992.0156 Q329.8125,992.0156 330.2422,991.0156 Q330.6719,990.0156 330.6719,987.7813 Q330.6719,985.5469 330.2422,984.5469 Q329.8125,983.5469 328.8594,983.5469 Z M324.5156,987.7813 Q324.5156,984.6094 325.6172,982.9766 Q326.7188,981.3438 328.8594,981.3438 Q331.0156,981.3438 332.1172,982.9766 Q333.2188,984.6094 333.2188,987.7813 Q333.2188,990.9531 332.1172,992.5781 Q331.0156,994.2031 328.8594,994.2031 Q326.7188,994.2031 325.6172,992.5781 Q324.5156,990.9531 324.5156,987.7813 Z "/><text fill="#000000" font-family="sans-serif" font-size="12" font-style="italic" lengthAdjust="spacingAndGlyphs" textLength="53" x="346.25" y="985.1387">«Object»</text><text fill="#000000" font-family="sans-serif" font-size="12" lengthAdjust="spacingAndGlyphs" textLength="44" x="350.75" y="999.1074">Source</text><line style="stroke: #A80036; stroke-width: 1.5;" x1="290" x2="424" y1="1006.9375" y2="1006.9375"/><ellipse cx="300" cy="1018.8398" fill="none" rx="3" ry="3" style="stroke: #038048; stroke-width: 1.0;"/><text fill="#000000" font-family="sans-serif" font-size="11" lengthAdjust="spacingAndGlyphs" textLength="110" x="309" y="1021.1479">sourcePath : String</text><ellipse cx="300" cy="1031.6445" fill="none" rx="3" ry="3" style="stroke: #038048; stroke-width: 1.0;"/><text fill="#000000" font-family="sans-serif" font-size="11" lengthAdjust="spacingAndGlyphs" textLength="85" x="309" y="1033.9526">source : String</text><ellipse cx="300" cy="1044.4492" fill="none" rx="3" ry="3" style="stroke: #038048; stroke-width: 1.0;"/><text fill="#000000" font-family="sans-serif" font-size="11" lengthAdjust="spacingAndGlyphs" textLength="52" x="309" y="1046.7573">ast : AST</text><line style="stroke: #A80036; stroke-width: 1.5;" x1="290" x2="424" y1="1053.3516" y2="1053.3516"/><!--class Sources--><rect fill="#FEFECE" filter="url(#f1twuquwvy74kf)" height="66.7422" id="Sources" style="stroke: #A80036; stroke-width: 1.5;" width="240" x="237.5" y="822.5"/><ellipse cx="317.75" cy="841.4688" fill="#FF1493" rx="11" ry="11" style="stroke: #A80036; stroke-width: 1.0;"/><path d="M320.7188,847.1094 Q320.1406,847.4063 319.5,847.5547 Q318.8594,847.7031 318.1563,847.7031 Q315.6563,847.7031 314.3359,846.0547 Q313.0156,844.4063 313.0156,841.2813 Q313.0156,838.1563 314.3359,836.5 Q315.6563,834.8438 318.1563,834.8438 Q318.8594,834.8438 319.5078,835 Q320.1563,835.1563 320.7188,835.4531 L320.7188,838.1719 Q320.0938,837.5938 319.5,837.3203 Q318.9063,837.0469 318.2813,837.0469 Q316.9375,837.0469 316.25,838.1172 Q315.5625,839.1875 315.5625,841.2813 Q315.5625,843.375 316.25,844.4453 Q316.9375,845.5156 318.2813,845.5156 Q318.9063,845.5156 319.5,845.2422 Q320.0938,844.9688 320.7188,844.3906 L320.7188,847.1094 Z "/><text fill="#000000" font-family="sans-serif" font-size="12" font-style="italic" lengthAdjust="spacingAndGlyphs" textLength="75" x="336.25" y="838.6387">«Collection»</text><text fill="#000000" font-family="sans-serif" font-size="12" lengthAdjust="spacingAndGlyphs" textLength="51" x="348.25" y="852.6074">Sources</text><line style="stroke: #A80036; stroke-width: 1.5;" x1="238.5" x2="476.5" y1="860.4375" y2="860.4375"/><ellipse cx="248.5" cy="872.3398" fill="none" rx="3" ry="3" style="stroke: #038048; stroke-width: 1.0;"/><text fill="#000000" font-family="sans-serif" font-size="11" lengthAdjust="spacingAndGlyphs" textLength="214" x="257.5" y="874.6479">sources : Map&lt;FileIndex =&gt; Source&gt;</text><line style="stroke: #A80036; stroke-width: 1.5;" x1="238.5" x2="476.5" y1="881.2422" y2="881.2422"/><!--class Network--><rect fill="#FEFECE" filter="url(#f1twuquwvy74kf)" height="79.5469" id="Network" style="stroke: #A80036; stroke-width: 1.5;" width="150" x="358.5" y="8"/><ellipse cx="403.75" cy="26.9688" fill="#DA70D6" rx="11" ry="11" style="stroke: #A80036; stroke-width: 1.0;"/><path d="M403.8594,22.5469 Q402.9219,22.5469 402.4922,23.5469 Q402.0625,24.5469 402.0625,26.7813 Q402.0625,29.0156 402.4922,30.0156 Q402.9219,31.0156 403.8594,31.0156 Q404.8125,31.0156 405.2422,30.0156 Q405.6719,29.0156 405.6719,26.7813 Q405.6719,24.5469 405.2422,23.5469 Q404.8125,22.5469 403.8594,22.5469 Z M399.5156,26.7813 Q399.5156,23.6094 400.6172,21.9766 Q401.7188,20.3438 403.8594,20.3438 Q406.0156,20.3438 407.1172,21.9766 Q408.2188,23.6094 408.2188,26.7813 Q408.2188,29.9531 407.1172,31.5781 Q406.0156,33.2031 403.8594,33.2031 Q401.7188,33.2031 400.6172,31.5781 Q399.5156,29.9531 399.5156,26.7813 Z "/><text fill="#000000" font-family="sans-serif" font-size="12" font-style="italic" lengthAdjust="spacingAndGlyphs" textLength="53" x="423.25" y="24.1387">«Object»</text><text fill="#000000" font-family="sans-serif" font-size="12" lengthAdjust="spacingAndGlyphs" textLength="51" x="424.25" y="38.1074">Network</text><line style="stroke: #A80036; stroke-width: 1.5;" x1="359.5" x2="507.5" y1="45.9375" y2="45.9375"/><ellipse cx="369.5" cy="57.8398" fill="none" rx="3" ry="3" style="stroke: #038048; stroke-width: 1.0;"/><text fill="#000000" font-family="sans-serif" font-size="11" lengthAdjust="spacingAndGlyphs" textLength="78" x="378.5" y="60.1479">name : String</text><ellipse cx="369.5" cy="70.6445" fill="none" rx="3" ry="3" style="stroke: #038048; stroke-width: 1.0;"/><text fill="#000000" font-family="sans-serif" font-size="11" lengthAdjust="spacingAndGlyphs" textLength="124" x="378.5" y="72.9526">networkId : NetworkID</text><line style="stroke: #A80036; stroke-width: 1.5;" x1="359.5" x2="507.5" y1="79.5469" y2="79.5469"/><!--class Compilation--><rect fill="#FEFECE" filter="url(#f1twuquwvy74kf)" height="92.3516" id="Compilation" style="stroke: #A80036; stroke-width: 1.5;" width="196" x="6.5" y="810"/><ellipse cx="63.75" cy="828.9688" fill="#DA70D6" rx="11" ry="11" style="stroke: #A80036; stroke-width: 1.0;"/><path d="M63.8594,824.5469 Q62.9219,824.5469 62.4922,825.5469 Q62.0625,826.5469 62.0625,828.7813 Q62.0625,831.0156 62.4922,832.0156 Q62.9219,833.0156 63.8594,833.0156 Q64.8125,833.0156 65.2422,832.0156 Q65.6719,831.0156 65.6719,828.7813 Q65.6719,826.5469 65.2422,825.5469 Q64.8125,824.5469 63.8594,824.5469 Z M59.5156,828.7813 Q59.5156,825.6094 60.6172,823.9766 Q61.7188,822.3438 63.8594,822.3438 Q66.0156,822.3438 67.1172,823.9766 Q68.2188,825.6094 68.2188,828.7813 Q68.2188,831.9531 67.1172,833.5781 Q66.0156,835.2031 63.8594,835.2031 Q61.7188,835.2031 60.6172,833.5781 Q59.5156,831.9531 59.5156,828.7813 Z "/><text fill="#000000" font-family="sans-serif" font-size="12" font-style="italic" lengthAdjust="spacingAndGlyphs" textLength="53" x="94.25" y="826.1387">«Object»</text><text fill="#000000" font-family="sans-serif" font-size="12" lengthAdjust="spacingAndGlyphs" textLength="73" x="84.25" y="840.1074">Compilation</text><line style="stroke: #A80036; stroke-width: 1.5;" x1="7.5" x2="201.5" y1="847.9375" y2="847.9375"/><ellipse cx="17.5" cy="859.8398" fill="none" rx="3" ry="3" style="stroke: #038048; stroke-width: 1.0;"/><text fill="#000000" font-family="sans-serif" font-size="11" lengthAdjust="spacingAndGlyphs" textLength="112" x="26.5" y="862.1479">compiler : Compiler</text><ellipse cx="17.5" cy="872.6445" fill="none" rx="3" ry="3" style="stroke: #038048; stroke-width: 1.0;"/><text fill="#000000" font-family="sans-serif" font-size="11" lengthAdjust="spacingAndGlyphs" textLength="105" x="26.5" y="874.9526">sources : Sources</text><ellipse cx="17.5" cy="885.4492" fill="none" rx="3" ry="3" style="stroke: #038048; stroke-width: 1.0;"/><text fill="#000000" font-family="sans-serif" font-size="11" lengthAdjust="spacingAndGlyphs" textLength="170" x="26.5" y="887.7573">contractTypes: ContractTypes</text><line style="stroke: #A80036; stroke-width: 1.5;" x1="7.5" x2="201.5" y1="894.3516" y2="894.3516"/><!--class Compiler--><rect fill="#FEFECE" filter="url(#f1twuquwvy74kf)" height="92.3516" id="Compiler" style="stroke: #A80036; stroke-width: 1.5;" width="120" x="44.5" y="969"/><ellipse cx="74.8" cy="987.9688" fill="#DA70D6" rx="11" ry="11" style="stroke: #A80036; stroke-width: 1.0;"/><path d="M74.9094,983.5469 Q73.9719,983.5469 73.5422,984.5469 Q73.1125,985.5469 73.1125,987.7813 Q73.1125,990.0156 73.5422,991.0156 Q73.9719,992.0156 74.9094,992.0156 Q75.8625,992.0156 76.2922,991.0156 Q76.7219,990.0156 76.7219,987.7813 Q76.7219,985.5469 76.2922,984.5469 Q75.8625,983.5469 74.9094,983.5469 Z M70.5656,987.7813 Q70.5656,984.6094 71.6672,982.9766 Q72.7688,981.3438 74.9094,981.3438 Q77.0656,981.3438 78.1672,982.9766 Q79.2688,984.6094 79.2688,987.7813 Q79.2688,990.9531 78.1672,992.5781 Q77.0656,994.2031 74.9094,994.2031 Q72.7688,994.2031 71.6672,992.5781 Q70.5656,990.9531 70.5656,987.7813 Z "/><text fill="#000000" font-family="sans-serif" font-size="12" font-style="italic" lengthAdjust="spacingAndGlyphs" textLength="53" x="92.7" y="985.1387">«Object»</text><text fill="#000000" font-family="sans-serif" font-size="12" lengthAdjust="spacingAndGlyphs" textLength="54" x="92.2" y="999.1074">Compiler</text><line style="stroke: #A80036; stroke-width: 1.5;" x1="45.5" x2="163.5" y1="1006.9375" y2="1006.9375"/><ellipse cx="55.5" cy="1018.8398" fill="none" rx="3" ry="3" style="stroke: #038048; stroke-width: 1.0;"/><text fill="#000000" font-family="sans-serif" font-size="11" lengthAdjust="spacingAndGlyphs" textLength="78" x="64.5" y="1021.1479">name : String</text><ellipse cx="55.5" cy="1031.6445" fill="none" rx="3" ry="3" style="stroke: #038048; stroke-width: 1.0;"/><text fill="#000000" font-family="sans-serif" font-size="11" lengthAdjust="spacingAndGlyphs" textLength="88" x="64.5" y="1033.9526">version : String</text><ellipse cx="55.5" cy="1044.4492" fill="none" rx="3" ry="3" style="stroke: #038048; stroke-width: 1.0;"/><text fill="#000000" font-family="sans-serif" font-size="11" lengthAdjust="spacingAndGlyphs" textLength="94" x="64.5" y="1046.7573">settings : Object</text><line style="stroke: #A80036; stroke-width: 1.5;" x1="45.5" x2="163.5" y1="1053.3516" y2="1053.3516"/><!--class Bytecode--><rect fill="#FEFECE" filter="url(#f1twuquwvy74kf)" height="92.3516" id="Bytecode" style="stroke: #A80036; stroke-width: 1.5;" width="237" x="420.75" y="658"/><ellipse cx="506" cy="676.9688" fill="#DA70D6" rx="11" ry="11" style="stroke: #A80036; stroke-width: 1.0;"/><path d="M506.1094,672.5469 Q505.1719,672.5469 504.7422,673.5469 Q504.3125,674.5469 504.3125,676.7813 Q504.3125,679.0156 504.7422,680.0156 Q505.1719,681.0156 506.1094,681.0156 Q507.0625,681.0156 507.4922,680.0156 Q507.9219,679.0156 507.9219,676.7813 Q507.9219,674.5469 507.4922,673.5469 Q507.0625,672.5469 506.1094,672.5469 Z M501.7656,676.7813 Q501.7656,673.6094 502.8672,671.9766 Q503.9688,670.3438 506.1094,670.3438 Q508.2656,670.3438 509.3672,671.9766 Q510.4688,673.6094 510.4688,676.7813 Q510.4688,679.9531 509.3672,681.5781 Q508.2656,683.2031 506.1094,683.2031 Q503.9688,683.2031 502.8672,681.5781 Q501.7656,679.9531 501.7656,676.7813 Z "/><text fill="#000000" font-family="sans-serif" font-size="12" font-style="italic" lengthAdjust="spacingAndGlyphs" textLength="53" x="529" y="674.1387">«Object»</text><text fill="#000000" font-family="sans-serif" font-size="12" lengthAdjust="spacingAndGlyphs" textLength="58" x="526.5" y="688.1074">Bytecode</text><line style="stroke: #A80036; stroke-width: 1.5;" x1="421.75" x2="656.75" y1="695.9375" y2="695.9375"/><ellipse cx="431.75" cy="707.8398" fill="none" rx="3" ry="3" style="stroke: #038048; stroke-width: 1.0;"/><text fill="#000000" font-family="sans-serif" font-size="11" lengthAdjust="spacingAndGlyphs" textLength="129" x="440.75" y="710.1479">unlinkedBinary : String</text><ellipse cx="431.75" cy="720.6445" fill="none" rx="3" ry="3" style="stroke: #038048; stroke-width: 1.0;"/><text fill="#000000" font-family="sans-serif" font-size="11" lengthAdjust="spacingAndGlyphs" textLength="137" x="440.75" y="722.9526">sourceMap : SourceMap</text><ellipse cx="431.75" cy="733.4492" fill="none" rx="3" ry="3" style="stroke: #038048; stroke-width: 1.0;"/><text fill="#000000" font-family="sans-serif" font-size="11" lengthAdjust="spacingAndGlyphs" textLength="211" x="440.75" y="735.7573">linkReferences : Set&lt;LinkReference&gt;</text><line style="stroke: #A80036; stroke-width: 1.5;" x1="421.75" x2="656.75" y1="742.3516" y2="742.3516"/><!--class SourceMap--><rect fill="#FEFECE" filter="url(#f1twuquwvy74kf)" height="79.5469" id="SourceMap" style="stroke: #A80036; stroke-width: 1.5;" width="302" x="512" y="816"/><ellipse cx="623.75" cy="834.9688" fill="#DA70D6" rx="11" ry="11" style="stroke: #A80036; stroke-width: 1.0;"/><path d="M623.8594,830.5469 Q622.9219,830.5469 622.4922,831.5469 Q622.0625,832.5469 622.0625,834.7813 Q622.0625,837.0156 622.4922,838.0156 Q622.9219,839.0156 623.8594,839.0156 Q624.8125,839.0156 625.2422,838.0156 Q625.6719,837.0156 625.6719,834.7813 Q625.6719,832.5469 625.2422,831.5469 Q624.8125,830.5469 623.8594,830.5469 Z M619.5156,834.7813 Q619.5156,831.6094 620.6172,829.9766 Q621.7188,828.3438 623.8594,828.3438 Q626.0156,828.3438 627.1172,829.9766 Q628.2188,831.6094 628.2188,834.7813 Q628.2188,837.9531 627.1172,839.5781 Q626.0156,841.2031 623.8594,841.2031 Q621.7188,841.2031 620.6172,839.5781 Q619.5156,837.9531 619.5156,834.7813 Z "/><text fill="#000000" font-family="sans-serif" font-size="12" font-style="italic" lengthAdjust="spacingAndGlyphs" textLength="53" x="652.75" y="832.1387">«Object»</text><text fill="#000000" font-family="sans-serif" font-size="12" lengthAdjust="spacingAndGlyphs" textLength="70" x="644.25" y="846.1074">SourceMap</text><line style="stroke: #A80036; stroke-width: 1.5;" x1="513" x2="813" y1="853.9375" y2="853.9375"/><ellipse cx="523" cy="865.8398" fill="none" rx="3" ry="3" style="stroke: #038048; stroke-width: 1.0;"/><text fill="#000000" font-family="sans-serif" font-size="11" lengthAdjust="spacingAndGlyphs" textLength="276" x="532" y="868.1479">sourceMap : Map&lt;ByteOffset =&gt; SourceRange&gt;</text><ellipse cx="523" cy="878.6445" fill="none" rx="3" ry="3" style="stroke: #038048; stroke-width: 1.0;"/><text fill="#000000" font-family="sans-serif" font-size="11" lengthAdjust="spacingAndGlyphs" textLength="101" x="532" y="880.9526">sources: Sources</text><line style="stroke: #A80036; stroke-width: 1.5;" x1="513" x2="813" y1="887.5469" y2="887.5469"/><!--class SourceRange--><rect fill="#FEFECE" filter="url(#f1twuquwvy74kf)" height="105.1563" id="SourceRange" style="stroke: #A80036; stroke-width: 1.5;" width="125" x="600.75" y="962.5"/><ellipse cx="619.8" cy="981.4688" fill="#DA70D6" rx="11" ry="11" style="stroke: #A80036; stroke-width: 1.0;"/><path d="M619.9094,977.0469 Q618.9719,977.0469 618.5422,978.0469 Q618.1125,979.0469 618.1125,981.2813 Q618.1125,983.5156 618.5422,984.5156 Q618.9719,985.5156 619.9094,985.5156 Q620.8625,985.5156 621.2922,984.5156 Q621.7219,983.5156 621.7219,981.2813 Q621.7219,979.0469 621.2922,978.0469 Q620.8625,977.0469 619.9094,977.0469 Z M615.5656,981.2813 Q615.5656,978.1094 616.6672,976.4766 Q617.7688,974.8438 619.9094,974.8438 Q622.0656,974.8438 623.1672,976.4766 Q624.2688,978.1094 624.2688,981.2813 Q624.2688,984.4531 623.1672,986.0781 Q622.0656,987.7031 619.9094,987.7031 Q617.7688,987.7031 616.6672,986.0781 Q615.5656,984.4531 615.5656,981.2813 Z "/><text fill="#000000" font-family="sans-serif" font-size="12" font-style="italic" lengthAdjust="spacingAndGlyphs" textLength="53" x="650.2" y="978.6387">«Object»</text><text fill="#000000" font-family="sans-serif" font-size="12" lengthAdjust="spacingAndGlyphs" textLength="84" x="634.7" y="992.6074">SourceRange</text><line style="stroke: #A80036; stroke-width: 1.5;" x1="601.75" x2="724.75" y1="1000.4375" y2="1000.4375"/><ellipse cx="611.75" cy="1012.3398" fill="none" rx="3" ry="3" style="stroke: #038048; stroke-width: 1.0;"/><text fill="#000000" font-family="sans-serif" font-size="11" lengthAdjust="spacingAndGlyphs" textLength="91" x="620.75" y="1014.6479">source : Source</text><ellipse cx="611.75" cy="1025.1445" fill="none" rx="3" ry="3" style="stroke: #038048; stroke-width: 1.0;"/><text fill="#000000" font-family="sans-serif" font-size="11" lengthAdjust="spacingAndGlyphs" textLength="99" x="620.75" y="1027.4526">start : ByteOffset</text><ellipse cx="611.75" cy="1037.9492" fill="none" rx="3" ry="3" style="stroke: #038048; stroke-width: 1.0;"/><text fill="#000000" font-family="sans-serif" font-size="11" lengthAdjust="spacingAndGlyphs" textLength="85" x="620.75" y="1040.2573">length : Length</text><ellipse cx="611.75" cy="1050.7539" fill="none" rx="3" ry="3" style="stroke: #038048; stroke-width: 1.0;"/><text fill="#000000" font-family="sans-serif" font-size="11" lengthAdjust="spacingAndGlyphs" textLength="77" x="620.75" y="1053.062">meta : Object</text><line style="stroke: #A80036; stroke-width: 1.5;" x1="601.75" x2="724.75" y1="1059.6563" y2="1059.6563"/><!--class LinkValue--><rect fill="#FEFECE" filter="url(#f1twuquwvy74kf)" height="79.5469" id="LinkValue" style="stroke: #A80036; stroke-width: 1.5;" width="193" x="486.75" y="352"/><ellipse cx="549.5" cy="370.9688" fill="#DA70D6" rx="11" ry="11" style="stroke: #A80036; stroke-width: 1.0;"/><path d="M549.6094,366.5469 Q548.6719,366.5469 548.2422,367.5469 Q547.8125,368.5469 547.8125,370.7813 Q547.8125,373.0156 548.2422,374.0156 Q548.6719,375.0156 549.6094,375.0156 Q550.5625,375.0156 550.9922,374.0156 Q551.4219,373.0156 551.4219,370.7813 Q551.4219,368.5469 550.9922,367.5469 Q550.5625,366.5469 549.6094,366.5469 Z M545.2656,370.7813 Q545.2656,367.6094 546.3672,365.9766 Q547.4688,364.3438 549.6094,364.3438 Q551.7656,364.3438 552.8672,365.9766 Q553.9688,367.6094 553.9688,370.7813 Q553.9688,373.9531 552.8672,375.5781 Q551.7656,377.2031 549.6094,377.2031 Q547.4688,377.2031 546.3672,375.5781 Q545.2656,373.9531 545.2656,370.7813 Z "/><text fill="#000000" font-family="sans-serif" font-size="12" font-style="italic" lengthAdjust="spacingAndGlyphs" textLength="53" x="573" y="368.1387">«Object»</text><text fill="#000000" font-family="sans-serif" font-size="12" lengthAdjust="spacingAndGlyphs" textLength="59" x="570" y="382.1074">LinkValue</text><line style="stroke: #A80036; stroke-width: 1.5;" x1="487.75" x2="678.75" y1="389.9375" y2="389.9375"/><ellipse cx="497.75" cy="401.8398" fill="none" rx="3" ry="3" style="stroke: #038048; stroke-width: 1.0;"/><text fill="#000000" font-family="sans-serif" font-size="11" lengthAdjust="spacingAndGlyphs" textLength="167" x="506.75" y="404.1479">linkReference : LinkReference</text><ellipse cx="497.75" cy="414.6445" fill="none" rx="3" ry="3" style="stroke: #038048; stroke-width: 1.0;"/><text fill="#000000" font-family="sans-serif" font-size="11" lengthAdjust="spacingAndGlyphs" textLength="74" x="506.75" y="416.9526">value : Bytes</text><line style="stroke: #A80036; stroke-width: 1.5;" x1="487.75" x2="678.75" y1="423.5469" y2="423.5469"/><!--class LinkReference--><rect fill="#FEFECE" filter="url(#f1twuquwvy74kf)" height="79.5469" id="LinkReference" style="stroke: #A80036; stroke-width: 1.5;" width="186" x="488.5" y="505"/><ellipse cx="533.25" cy="523.9688" fill="#DA70D6" rx="11" ry="11" style="stroke: #A80036; stroke-width: 1.0;"/><path d="M533.3594,519.5469 Q532.4219,519.5469 531.9922,520.5469 Q531.5625,521.5469 531.5625,523.7813 Q531.5625,526.0156 531.9922,527.0156 Q532.4219,528.0156 533.3594,528.0156 Q534.3125,528.0156 534.7422,527.0156 Q535.1719,526.0156 535.1719,523.7813 Q535.1719,521.5469 534.7422,520.5469 Q534.3125,519.5469 533.3594,519.5469 Z M529.0156,523.7813 Q529.0156,520.6094 530.1172,518.9766 Q531.2188,517.3438 533.3594,517.3438 Q535.5156,517.3438 536.6172,518.9766 Q537.7188,520.6094 537.7188,523.7813 Q537.7188,526.9531 536.6172,528.5781 Q535.5156,530.2031 533.3594,530.2031 Q531.2188,530.2031 530.1172,528.5781 Q529.0156,526.9531 529.0156,523.7813 Z "/><text fill="#000000" font-family="sans-serif" font-size="12" font-style="italic" lengthAdjust="spacingAndGlyphs" textLength="53" x="571.25" y="521.1387">«Object»</text><text fill="#000000" font-family="sans-serif" font-size="12" lengthAdjust="spacingAndGlyphs" textLength="88" x="553.75" y="535.1074">LinkReference</text><line style="stroke: #A80036; stroke-width: 1.5;" x1="489.5" x2="673.5" y1="542.9375" y2="542.9375"/><ellipse cx="499.5" cy="554.8398" fill="none" rx="3" ry="3" style="stroke: #038048; stroke-width: 1.0;"/><text fill="#000000" font-family="sans-serif" font-size="11" lengthAdjust="spacingAndGlyphs" textLength="160" x="508.5" y="557.1479">offsets : Array&lt;ByteOffset&gt;</text><ellipse cx="499.5" cy="567.6445" fill="none" rx="3" ry="3" style="stroke: #038048; stroke-width: 1.0;"/><text fill="#000000" font-family="sans-serif" font-size="11" lengthAdjust="spacingAndGlyphs" textLength="87" x="508.5" y="569.9526">length : Integer</text><line style="stroke: #A80036; stroke-width: 1.5;" x1="489.5" x2="673.5" y1="576.5469" y2="576.5469"/><!--link Network to ContractInstance--><path d="M433,101.044 C433,115.795 433,132.112 433,147.787 " fill="none" id="Network-ContractInstance" style="stroke: #A80036; stroke-width: 1.0;"/><polygon fill="#FFFFFF" points="433,88.001,429,94.001,433,100.001,437,94.001,433,88.001" style="stroke: #A80036; stroke-width: 1.0;"/><text fill="#000000" font-family="sans-serif" font-size="13" lengthAdjust="spacingAndGlyphs" textLength="8" x="423.1234" y="107.6851">1</text><text fill="#000000" font-family="sans-serif" font-size="13" lengthAdjust="spacingAndGlyphs" textLength="8" x="423.5488" y="136.9418">n</text><!--link ContractInstance to ContractType--><path d="M396.383,304.29 C370.248,363.738 335.919,441.824 313.66,492.456 " fill="none" id="ContractInstance-ContractType" style="stroke: #A80036; stroke-width: 1.0;"/><polygon fill="#FFFFFF" points="401.662,292.284,395.5857,296.1672,396.8332,303.2695,402.9094,299.3864,401.662,292.284" style="stroke: #A80036; stroke-width: 1.0;"/><text fill="#000000" font-family="sans-serif" font-size="13" lengthAdjust="spacingAndGlyphs" textLength="8" x="306.6441" y="481.4633">1</text><!--link ContractInstance to Bytecode--><path d="M429.878,305.456 C429.62,383.547 435.985,501.719 470,598 C477.448,619.081 489.993,640.114 502.36,657.757 " fill="none" id="ContractInstance-Bytecode" style="stroke: #A80036; stroke-width: 1.0;"/><polygon fill="#A80036" points="429.985,292.317,425.9357,298.2838,429.8861,304.3166,433.9354,298.3498,429.985,292.317" style="stroke: #A80036; stroke-width: 1.0;"/><text fill="#000000" font-family="sans-serif" font-size="13" lengthAdjust="spacingAndGlyphs" textLength="8" x="487.9928" y="646.7959">1</text><!--link ContractInstance to LinkValue--><path d="M504.654,302.208 C519.856,319.436 535.24,336.872 548.304,351.678 " fill="none" id="ContractInstance-LinkValue" style="stroke: #A80036; stroke-width: 1.0;"/><polygon fill="#A80036" points="495.744,292.11,496.7148,299.2555,503.684,301.1076,502.7132,293.9621,495.744,292.11" style="stroke: #A80036; stroke-width: 1.0;"/><text fill="#000000" font-family="sans-serif" font-size="13" lengthAdjust="spacingAndGlyphs" textLength="8" x="533.6866" y="340.9205">n</text><!--link ContractType to ContractTypes--><path d="M270.197,597.843 C262.355,617.385 253.509,639.429 245.95,658.267 " fill="none" id="ContractType-ContractTypes" style="stroke: #A80036; stroke-width: 1.0;"/><polygon fill="#FFFFFF" points="241.072,670.425,247.0187,666.3461,245.5407,659.2881,239.5941,663.367,241.072,670.425" style="stroke: #A80036; stroke-width: 1.0;"/><text fill="#000000" font-family="sans-serif" font-size="13" lengthAdjust="spacingAndGlyphs" textLength="8" x="257.8269" y="617.6398">n</text><text fill="#000000" font-family="sans-serif" font-size="13" lengthAdjust="spacingAndGlyphs" textLength="8" x="233.3261" y="659.5556">1</text><!--link ContractType to Bytecode--><path d="M383.887,604.804 C411.666,622.389 441.672,641.385 467.823,657.94 " fill="none" id="ContractType-Bytecode" style="stroke: #A80036; stroke-width: 1.0;"/><polygon fill="#A80036" points="372.548,597.625,375.4777,604.2141,382.6868,604.044,379.7571,597.4549,372.548,597.625" style="stroke: #A80036; stroke-width: 1.0;"/><text fill="#000000" font-family="sans-serif" font-size="13" lengthAdjust="spacingAndGlyphs" textLength="8" x="449.0308" y="647.0024">1</text><!--link ContractTypes to Compilation--><path d="M201.094,737.548 C186.036,755.763 166.859,778.961 149.532,799.92 " fill="none" id="ContractTypes-Compilation" style="stroke: #A80036; stroke-width: 1.0;"/><polygon fill="#A80036" points="141.201,809.998,148.107,807.9225,148.8472,800.7495,141.9413,802.825,141.201,809.998" style="stroke: #A80036; stroke-width: 1.0;"/><text fill="#000000" font-family="sans-serif" font-size="13" lengthAdjust="spacingAndGlyphs" textLength="8" x="186.1191" y="757.2191">n</text><!--link Compilation to Compiler--><path d="M104,915.569 C104,933.228 104,952.329 104,968.9625 " fill="none" id="Compilation-Compiler" style="stroke: #A80036; stroke-width: 1.0;"/><polygon fill="#A80036" points="104,902.411,100,908.411,104,914.411,108,908.411,104,902.411" style="stroke: #A80036; stroke-width: 1.0;"/><text fill="#000000" font-family="sans-serif" font-size="13" lengthAdjust="spacingAndGlyphs" textLength="8" x="94.2953" y="958.0272">1</text><!--link Compilation to Sources--><path d="M214.859,856 C222.338,856 229.817,856 237.296,856 " fill="none" id="Compilation-Sources" style="stroke: #A80036; stroke-width: 1.0;"/><polygon fill="#A80036" points="201.84,856,207.84,860,213.84,856,207.84,852,201.84,856" style="stroke: #A80036; stroke-width: 1.0;"/><text fill="#000000" font-family="sans-serif" font-size="13" lengthAdjust="spacingAndGlyphs" textLength="8" x="221.4489" y="851.6127">1</text><!--link Sources to Source--><path d="M357,902.578 C357,923.379 357,947.947 357,968.7125 " fill="none" id="Sources-Source" style="stroke: #A80036; stroke-width: 1.0;"/><polygon fill="#A80036" points="357,889.531,353,895.531,357,901.531,361,895.531,357,889.531" style="stroke: #A80036; stroke-width: 1.0;"/><text fill="#000000" font-family="sans-serif" font-size="13" lengthAdjust="spacingAndGlyphs" textLength="8" x="347.3906" y="958.0894">n</text><!--link Bytecode to SourceMap--><path d="M584.496,760.035 C599.732,778.467 616.403,798.633 630.448,815.623 " fill="none" id="Bytecode-SourceMap" style="stroke: #A80036; stroke-width: 1.0;"/><polygon fill="#A80036" points="576.204,750.005,576.9438,757.1781,583.8496,759.2541,583.1098,752.081,576.204,750.005" style="stroke: #A80036; stroke-width: 1.0;"/><text fill="#000000" font-family="sans-serif" font-size="13" lengthAdjust="spacingAndGlyphs" textLength="8" x="616.1673" y="804.8578">1</text><!--link Sources to SourceMap--><path d="M476.531,856 C483.891,856 491.251,856 498.611,856 " fill="none" id="Sources-SourceMap" style="stroke: #A80036; stroke-width: 1.0;"/><polygon fill="#FFFFFF" points="511.858,856,505.858,852,499.858,856,505.858,860,511.858,856" style="stroke: #A80036; stroke-width: 1.0;"/><text fill="#000000" font-family="sans-serif" font-size="13" lengthAdjust="spacingAndGlyphs" textLength="8" x="485.5661" y="851.457">1</text><!--link SourceMap to SourceRange--><path d="M663,909.396 C663,926.419 663,945.289 663,962.263 " fill="none" id="SourceMap-SourceRange" style="stroke: #A80036; stroke-width: 1.0;"/><polygon fill="#A80036" points="663,896.213,659,902.213,663,908.213,667,902.213,663,896.213" style="stroke: #A80036; stroke-width: 1.0;"/><text fill="#000000" font-family="sans-serif" font-size="13" lengthAdjust="spacingAndGlyphs" textLength="8" x="653.393" y="951.248">n</text><!--link Source to SourceRange--><path d="M425.133,1015 C479.326,1015 533.519,1015 587.712,1015 " fill="none" id="Source-SourceRange" style="stroke: #A80036; stroke-width: 1.0;"/><polygon fill="#FFFFFF" points="600.746,1015,594.746,1011,588.746,1015,594.746,1019,600.746,1015" style="stroke: #A80036; stroke-width: 1.0;"/><text fill="#000000" font-family="sans-serif" font-size="13" lengthAdjust="spacingAndGlyphs" textLength="8" x="433.0225" y="1010.1252">1</text><!--link LinkReference to Bytecode--><path d="M570.51,585.213 C565.667,603.317 559.818,625.178 554.482,645.127 " fill="none" id="LinkReference-Bytecode" style="stroke: #A80036; stroke-width: 1.0;"/><polygon fill="#A80036" points="551.065,657.901,556.4793,653.1381,554.1652,646.3084,548.7509,651.0713,551.065,657.901" style="stroke: #A80036; stroke-width: 1.0;"/><text fill="#000000" font-family="sans-serif" font-size="13" lengthAdjust="spacingAndGlyphs" textLength="8" x="559.0615" y="604.6308">n</text><!--link LinkValue to LinkReference--><path d="M582.48,432.279 C582.205,452.989 581.868,478.465 581.585,499.856 " fill="none" id="LinkValue-LinkReference" style="stroke: #A80036; stroke-width: 1.0; stroke-dasharray: 7.0,7.0;"/><polygon fill="#A80036" points="581.518,504.917,585.6359,495.9703,581.5837,499.9174,577.6366,495.8652,581.518,504.917" style="stroke: #A80036; stroke-width: 1.0;"/><text fill="#000000" font-family="sans-serif" font-size="13" lengthAdjust="spacingAndGlyphs" textLength="8" x="571.7863" y="493.8913">1</text><!--
@startuml

class ContractInstance << (O,orchid) Object >> {
 + address : Address
 + network : Network
 + transactionHash : TransactionHash
 + constructorArgs : Array<Value>
 + contractType : ContractType
 + callBytecode : Bytecode
 + linkValues : Set<LinkValue>
}

class ContractType << (O,orchid) Object >> {
 + name : String
 + abi : ABI
 + compilation : Compilation
 + createBytecode : Bytecode
}

class ContractTypes << (C,deeppink) Collection >> {
 + contractTypes : Set<ContractType>
}

class Source << (O,orchid) Object >> {
 + sourcePath : String
 + source : String
 + ast : AST
}

class Sources << (C,deeppink) Collection >> {
 + sources : Map<FileIndex => Source>
}

class Network << (O,orchid) Object >> {
 + name : String
 + networkId : NetworkID
}

class Compilation << (O,orchid) Object >> {
 + compiler : Compiler
 + sources : Sources
 + contractTypes: ContractTypes
}

class Compiler << (O,orchid) Object >> {
 + name : String
 + version : String
 + settings : Object
}

class Bytecode << (O,orchid) Object >> {
 + unlinkedBinary : String
 + sourceMap : SourceMap
 + linkReferences : Set<LinkReference>
}

class SourceMap << (O,orchid) Object >> {
 + sourceMap : Map<ByteOffset => SourceRange>
 + sources: Sources
}

class SourceRange << (O,orchid) Object >> {
 + source : Source
 + start : ByteOffset
 + length : Length
 + meta : Object
}

class LinkValue << (O,orchid) Object >> {
 + linkReference : LinkReference
 + value : Bytes
}

class LinkReference << (O,orchid) Object >> {
 + offsets : Array<ByteOffset>
 + length : Integer
}

Network "1" o- - "n" ContractInstance

ContractInstance o- - "1" ContractType
ContractInstance *- - "1" Bytecode
ContractInstance *- - "n" LinkValue

ContractType "n" - -o "1" ContractTypes
ContractType *- - "1" Bytecode


ContractTypes "n" - -* Compilation

Compilation *-down- "1" Compiler
Compilation *-right- "1" Sources

Sources *- - "n" Source

Bytecode *- - "1" SourceMap

SourceMap o-left- "1" Sources
SourceMap *- - "n" SourceRange
SourceRange o-left- "1" Source

LinkReference "n" - -* Bytecode

LinkValue ..> "1" LinkReference

@enduml

PlantUML version 1.2018.14(Fri Dec 21 16:33:16 UTC 2018)
(GPL source distribution)
Java Runtime: Java(TM) SE Runtime Environment
JVM: Java HotSpot(TM) 64-Bit Server VM
Java Version: 1.8.0_151-b12
Operating System: Linux
OS Version: 4.4.0-101-generic
Default Encoding: UTF-8
Language: en
Country: US
--></g></svg>