<?xml version="1.0" encoding="UTF-8" standalone="no"?><svg xmlns="http://www.w3.org/2000/svg" xmlns:xlink="http://www.w3.org/1999/xlink" contentScriptType="application/ecmascript" contentStyleType="text/css" height="250px" preserveAspectRatio="none" style="width:518px;height:250px;" version="1.1" viewBox="0 0 518 250" width="518px" zoomAndPan="magnify"><defs><filter height="300%" id="fjjjhr5ztr3ut" width="300%" x="-1" y="-1"><feGaussianBlur result="blurOut" stdDeviation="2.0"/><feColorMatrix in="blurOut" result="blurOut2" type="matrix" values="0 0 0 0 0 0 0 0 0 0 0 0 0 0 0 0 0 0 .4 0"/><feOffset dx="4.0" dy="4.0" in="blurOut2" result="blurOut3"/><feBlend in="SourceGraphic" in2="blurOut3" mode="normal"/></filter></defs><g><!--class Bytecode--><rect fill="#FEFECE" filter="url(#fjjjhr5ztr3ut)" height="92.3516" id="Bytecode" style="stroke: #A80036; stroke-width: 1.5;" width="237" x="114.75" y="8"/><ellipse cx="200" cy="26.9688" fill="#DA70D6" rx="11" ry="11" style="stroke: #A80036; stroke-width: 1.0;"/><path d="M200.1094,22.5469 Q199.1719,22.5469 198.7422,23.5469 Q198.3125,24.5469 198.3125,26.7813 Q198.3125,29.0156 198.7422,30.0156 Q199.1719,31.0156 200.1094,31.0156 Q201.0625,31.0156 201.4922,30.0156 Q201.9219,29.0156 201.9219,26.7813 Q201.9219,24.5469 201.4922,23.5469 Q201.0625,22.5469 200.1094,22.5469 Z M195.7656,26.7813 Q195.7656,23.6094 196.8672,21.9766 Q197.9688,20.3438 200.1094,20.3438 Q202.2656,20.3438 203.3672,21.9766 Q204.4688,23.6094 204.4688,26.7813 Q204.4688,29.9531 203.3672,31.5781 Q202.2656,33.2031 200.1094,33.2031 Q197.9688,33.2031 196.8672,31.5781 Q195.7656,29.9531 195.7656,26.7813 Z "/><text fill="#000000" font-family="sans-serif" font-size="12" font-style="italic" lengthAdjust="spacingAndGlyphs" textLength="53" x="223" y="24.1387">«Object»</text><text fill="#000000" font-family="sans-serif" font-size="12" lengthAdjust="spacingAndGlyphs" textLength="58" x="220.5" y="38.1074">Bytecode</text><line style="stroke: #A80036; stroke-width: 1.5;" x1="115.75" x2="350.75" y1="45.9375" y2="45.9375"/><ellipse cx="125.75" cy="57.8398" fill="none" rx="3" ry="3" style="stroke: #038048; stroke-width: 1.0;"/><text fill="#000000" font-family="sans-serif" font-size="11" lengthAdjust="spacingAndGlyphs" textLength="112" x="134.75" y="60.1479">bytes: Array&lt;Byte&gt;</text><ellipse cx="125.75" cy="70.6445" fill="none" rx="3" ry="3" style="stroke: #038048; stroke-width: 1.0;"/><text fill="#000000" font-family="sans-serif" font-size="11" lengthAdjust="spacingAndGlyphs" textLength="137" x="134.75" y="72.9526">sourceMap : SourceMap</text><ellipse cx="125.75" cy="83.4492" fill="none" rx="3" ry="3" style="stroke: #038048; stroke-width: 1.0;"/><text fill="#000000" font-family="sans-serif" font-size="11" lengthAdjust="spacingAndGlyphs" textLength="211" x="134.75" y="85.7573">linkReferences : Set&lt;LinkReference&gt;</text><line style="stroke: #A80036; stroke-width: 1.5;" x1="115.75" x2="350.75" y1="92.3516" y2="92.3516"/><!--class LinkReference--><rect fill="#FEFECE" filter="url(#fjjjhr5ztr3ut)" height="79.5469" id="LinkReference" style="stroke: #A80036; stroke-width: 1.5;" width="186" x="6.5" y="160"/><ellipse cx="51.25" cy="178.9688" fill="#DA70D6" rx="11" ry="11" style="stroke: #A80036; stroke-width: 1.0;"/><path d="M51.3594,174.5469 Q50.4219,174.5469 49.9922,175.5469 Q49.5625,176.5469 49.5625,178.7813 Q49.5625,181.0156 49.9922,182.0156 Q50.4219,183.0156 51.3594,183.0156 Q52.3125,183.0156 52.7422,182.0156 Q53.1719,181.0156 53.1719,178.7813 Q53.1719,176.5469 52.7422,175.5469 Q52.3125,174.5469 51.3594,174.5469 Z M47.0156,178.7813 Q47.0156,175.6094 48.1172,173.9766 Q49.2188,172.3438 51.3594,172.3438 Q53.5156,172.3438 54.6172,173.9766 Q55.7188,175.6094 55.7188,178.7813 Q55.7188,181.9531 54.6172,183.5781 Q53.5156,185.2031 51.3594,185.2031 Q49.2188,185.2031 48.1172,183.5781 Q47.0156,181.9531 47.0156,178.7813 Z "/><text fill="#000000" font-family="sans-serif" font-size="12" font-style="italic" lengthAdjust="spacingAndGlyphs" textLength="53" x="89.25" y="176.1387">«Object»</text><text fill="#000000" font-family="sans-serif" font-size="12" lengthAdjust="spacingAndGlyphs" textLength="88" x="71.75" y="190.1074">LinkReference</text><line style="stroke: #A80036; stroke-width: 1.5;" x1="7.5" x2="191.5" y1="197.9375" y2="197.9375"/><ellipse cx="17.5" cy="209.8398" fill="none" rx="3" ry="3" style="stroke: #038048; stroke-width: 1.0;"/><text fill="#000000" font-family="sans-serif" font-size="11" lengthAdjust="spacingAndGlyphs" textLength="160" x="26.5" y="212.1479">offsets : Array&lt;ByteOffset&gt;</text><ellipse cx="17.5" cy="222.6445" fill="none" rx="3" ry="3" style="stroke: #038048; stroke-width: 1.0;"/><text fill="#000000" font-family="sans-serif" font-size="11" lengthAdjust="spacingAndGlyphs" textLength="87" x="26.5" y="224.9526">length : Integer</text><line style="stroke: #A80036; stroke-width: 1.5;" x1="7.5" x2="191.5" y1="231.5469" y2="231.5469"/><!--class SourceMap--><rect fill="#FEFECE" filter="url(#fjjjhr5ztr3ut)" height="79.5469" id="SourceMap" style="stroke: #A80036; stroke-width: 1.5;" width="280" x="227" y="160"/><ellipse cx="327.75" cy="178.9688" fill="#DA70D6" rx="11" ry="11" style="stroke: #A80036; stroke-width: 1.0;"/><path d="M327.8594,174.5469 Q326.9219,174.5469 326.4922,175.5469 Q326.0625,176.5469 326.0625,178.7813 Q326.0625,181.0156 326.4922,182.0156 Q326.9219,183.0156 327.8594,183.0156 Q328.8125,183.0156 329.2422,182.0156 Q329.6719,181.0156 329.6719,178.7813 Q329.6719,176.5469 329.2422,175.5469 Q328.8125,174.5469 327.8594,174.5469 Z M323.5156,178.7813 Q323.5156,175.6094 324.6172,173.9766 Q325.7188,172.3438 327.8594,172.3438 Q330.0156,172.3438 331.1172,173.9766 Q332.2188,175.6094 332.2188,178.7813 Q332.2188,181.9531 331.1172,183.5781 Q330.0156,185.2031 327.8594,185.2031 Q325.7188,185.2031 324.6172,183.5781 Q323.5156,181.9531 323.5156,178.7813 Z "/><text fill="#000000" font-family="sans-serif" font-size="12" font-style="italic" lengthAdjust="spacingAndGlyphs" textLength="53" x="356.75" y="176.1387">«Object»</text><text fill="#000000" font-family="sans-serif" font-size="12" lengthAdjust="spacingAndGlyphs" textLength="70" x="348.25" y="190.1074">SourceMap</text><line style="stroke: #A80036; stroke-width: 1.5;" x1="228" x2="506" y1="197.9375" y2="197.9375"/><ellipse cx="238" cy="209.8398" fill="none" rx="3" ry="3" style="stroke: #038048; stroke-width: 1.0;"/><text fill="#000000" font-family="sans-serif" font-size="11" lengthAdjust="spacingAndGlyphs" textLength="254" x="247" y="212.1479">ranges : Map&lt;ByteOffset =&gt; SourceRange&gt;</text><ellipse cx="238" cy="222.6445" fill="none" rx="3" ry="3" style="stroke: #038048; stroke-width: 1.0;"/><text fill="#000000" font-family="sans-serif" font-size="11" lengthAdjust="spacingAndGlyphs" textLength="101" x="247" y="224.9526">sources: Sources</text><line style="stroke: #A80036; stroke-width: 1.5;" x1="228" x2="506" y1="231.5469" y2="231.5469"/><!--link Bytecode to LinkReference--><path d="M182.01,109.795 C166.51,126.452 149.795,144.414 135.456,159.8238 " fill="none" id="Bytecode-LinkReference" style="stroke: #A80036; stroke-width: 1.0;"/><polygon fill="#A80036" points="190.969,100.167,183.9534,101.8347,182.7945,108.9521,189.8101,107.2844,190.969,100.167" style="stroke: #A80036; stroke-width: 1.0;"/><text fill="#000000" font-family="sans-serif" font-size="13" lengthAdjust="spacingAndGlyphs" textLength="8" x="131.0027" y="148.7844">n</text><!--link Bytecode to SourceMap--><path d="M283.99,109.795 C299.49,126.452 316.205,144.414 330.544,159.8238 " fill="none" id="Bytecode-SourceMap" style="stroke: #A80036; stroke-width: 1.0;"/><polygon fill="#A80036" points="275.031,100.167,276.1899,107.2844,283.2055,108.9521,282.0466,101.8347,275.031,100.167" style="stroke: #A80036; stroke-width: 1.0;"/><text fill="#000000" font-family="sans-serif" font-size="13" lengthAdjust="spacingAndGlyphs" textLength="24" x="298.2802" y="148.7844">0..1</text><!--
@startuml

class Bytecode << (O,orchid) Object >> {
 + bytes: Array<Byte>
 + sourceMap : SourceMap
 + linkReferences : Set<LinkReference>
}

class LinkReference << (O,orchid) Object >> {
 + offsets : Array<ByteOffset>
 + length : Integer
}

class SourceMap << (O,orchid) Object >> {
 + ranges : Map<ByteOffset => SourceRange>
 + sources: Sources
}


Bytecode *- - "n" LinkReference
Bytecode *- - "0..1" SourceMap

@enduml

PlantUML version 1.2018.14(Fri Dec 21 16:33:16 UTC 2018)
(GPL source distribution)
Java Runtime: Java(TM) SE Runtime Environment
JVM: Java HotSpot(TM) 64-Bit Server VM
Java Version: 1.8.0_151-b12
Operating System: Linux
OS Version: 4.4.0-101-generic
Default Encoding: UTF-8
Language: en
Country: US
--></g></svg>