<?xml version="1.0" encoding="UTF-8" standalone="no"?><svg xmlns="http://www.w3.org/2000/svg" xmlns:xlink="http://www.w3.org/1999/xlink" contentScriptType="application/ecmascript" contentStyleType="text/css" height="468px" preserveAspectRatio="none" style="width:714px;height:468px;" version="1.1" viewBox="0 0 714 468" width="714px" zoomAndPan="magnify"><defs><filter height="300%" id="f1t0h4kqshssua" width="300%" x="-1" y="-1"><feGaussianBlur result="blurOut" stdDeviation="2.0"/><feColorMatrix in="blurOut" result="blurOut2" type="matrix" values="0 0 0 0 0 0 0 0 0 0 0 0 0 0 0 0 0 0 .4 0"/><feOffset dx="4.0" dy="4.0" in="blurOut2" result="blurOut3"/><feBlend in="SourceGraphic" in2="blurOut3" mode="normal"/></filter></defs><g><!--class Bytecode--><rect fill="#FEFECE" filter="url(#f1t0h4kqshssua)" height="105.1563" id="Bytecode" style="stroke: #A80036; stroke-width: 1.5;" width="237" x="248.25" y="8.5"/><ellipse cx="333.5" cy="27.4688" fill="#DA70D6" rx="11" ry="11" style="stroke: #A80036; stroke-width: 1.0;"/><path d="M333.6094,23.0469 Q332.6719,23.0469 332.2422,24.0469 Q331.8125,25.0469 331.8125,27.2813 Q331.8125,29.5156 332.2422,30.5156 Q332.6719,31.5156 333.6094,31.5156 Q334.5625,31.5156 334.9922,30.5156 Q335.4219,29.5156 335.4219,27.2813 Q335.4219,25.0469 334.9922,24.0469 Q334.5625,23.0469 333.6094,23.0469 Z M329.2656,27.2813 Q329.2656,24.1094 330.3672,22.4766 Q331.4688,20.8438 333.6094,20.8438 Q335.7656,20.8438 336.8672,22.4766 Q337.9688,24.1094 337.9688,27.2813 Q337.9688,30.4531 336.8672,32.0781 Q335.7656,33.7031 333.6094,33.7031 Q331.4688,33.7031 330.3672,32.0781 Q329.2656,30.4531 329.2656,27.2813 Z "/><text fill="#000000" font-family="sans-serif" font-size="12" font-style="italic" lengthAdjust="spacingAndGlyphs" textLength="53" x="356.5" y="24.6387">«Object»</text><text fill="#000000" font-family="sans-serif" font-size="12" lengthAdjust="spacingAndGlyphs" textLength="58" x="354" y="38.6074">Bytecode</text><line style="stroke: #A80036; stroke-width: 1.5;" x1="249.25" x2="484.25" y1="46.4375" y2="46.4375"/><ellipse cx="259.25" cy="58.3398" fill="none" rx="3" ry="3" style="stroke: #038048; stroke-width: 1.0;"/><text fill="#000000" font-family="sans-serif" font-size="11" lengthAdjust="spacingAndGlyphs" textLength="112" x="268.25" y="60.6479">bytes: Array&lt;Byte&gt;</text><ellipse cx="259.25" cy="71.1445" fill="none" rx="3" ry="3" style="stroke: #038048; stroke-width: 1.0;"/><text fill="#000000" font-family="sans-serif" font-size="11" lengthAdjust="spacingAndGlyphs" textLength="137" x="268.25" y="73.4526">sourceMap : SourceMap</text><ellipse cx="259.25" cy="83.9492" fill="none" rx="3" ry="3" style="stroke: #038048; stroke-width: 1.0;"/><text fill="#000000" font-family="sans-serif" font-size="11" lengthAdjust="spacingAndGlyphs" textLength="183" x="268.25" y="86.2573">instructions: Array&lt;Instruction&gt;</text><ellipse cx="259.25" cy="96.7539" fill="none" rx="3" ry="3" style="stroke: #038048; stroke-width: 1.0;"/><text fill="#000000" font-family="sans-serif" font-size="11" lengthAdjust="spacingAndGlyphs" textLength="211" x="268.25" y="99.062">linkReferences : Set&lt;LinkReference&gt;</text><line style="stroke: #A80036; stroke-width: 1.5;" x1="249.25" x2="484.25" y1="105.6563" y2="105.6563"/><!--class LinkReference--><rect fill="#FEFECE" filter="url(#f1t0h4kqshssua)" height="79.5469" id="LinkReference" style="stroke: #A80036; stroke-width: 1.5;" width="186" x="6" y="193"/><ellipse cx="50.75" cy="211.9688" fill="#DA70D6" rx="11" ry="11" style="stroke: #A80036; stroke-width: 1.0;"/><path d="M50.8594,207.5469 Q49.9219,207.5469 49.4922,208.5469 Q49.0625,209.5469 49.0625,211.7813 Q49.0625,214.0156 49.4922,215.0156 Q49.9219,216.0156 50.8594,216.0156 Q51.8125,216.0156 52.2422,215.0156 Q52.6719,214.0156 52.6719,211.7813 Q52.6719,209.5469 52.2422,208.5469 Q51.8125,207.5469 50.8594,207.5469 Z M46.5156,211.7813 Q46.5156,208.6094 47.6172,206.9766 Q48.7188,205.3438 50.8594,205.3438 Q53.0156,205.3438 54.1172,206.9766 Q55.2188,208.6094 55.2188,211.7813 Q55.2188,214.9531 54.1172,216.5781 Q53.0156,218.2031 50.8594,218.2031 Q48.7188,218.2031 47.6172,216.5781 Q46.5156,214.9531 46.5156,211.7813 Z "/><text fill="#000000" font-family="sans-serif" font-size="12" font-style="italic" lengthAdjust="spacingAndGlyphs" textLength="53" x="88.75" y="209.1387">«Object»</text><text fill="#000000" font-family="sans-serif" font-size="12" lengthAdjust="spacingAndGlyphs" textLength="88" x="71.25" y="223.1074">LinkReference</text><line style="stroke: #A80036; stroke-width: 1.5;" x1="7" x2="191" y1="230.9375" y2="230.9375"/><ellipse cx="17" cy="242.8398" fill="none" rx="3" ry="3" style="stroke: #038048; stroke-width: 1.0;"/><text fill="#000000" font-family="sans-serif" font-size="11" lengthAdjust="spacingAndGlyphs" textLength="160" x="26" y="245.1479">offsets : Array&lt;ByteOffset&gt;</text><ellipse cx="17" cy="255.6445" fill="none" rx="3" ry="3" style="stroke: #038048; stroke-width: 1.0;"/><text fill="#000000" font-family="sans-serif" font-size="11" lengthAdjust="spacingAndGlyphs" textLength="87" x="26" y="257.9526">length : Integer</text><line style="stroke: #A80036; stroke-width: 1.5;" x1="7" x2="191" y1="264.5469" y2="264.5469"/><!--class SourceMap--><rect fill="#FEFECE" filter="url(#f1t0h4kqshssua)" height="79.5469" id="SourceMap" style="stroke: #A80036; stroke-width: 1.5;" width="280" x="226.5" y="193"/><ellipse cx="327.25" cy="211.9688" fill="#DA70D6" rx="11" ry="11" style="stroke: #A80036; stroke-width: 1.0;"/><path d="M327.3594,207.5469 Q326.4219,207.5469 325.9922,208.5469 Q325.5625,209.5469 325.5625,211.7813 Q325.5625,214.0156 325.9922,215.0156 Q326.4219,216.0156 327.3594,216.0156 Q328.3125,216.0156 328.7422,215.0156 Q329.1719,214.0156 329.1719,211.7813 Q329.1719,209.5469 328.7422,208.5469 Q328.3125,207.5469 327.3594,207.5469 Z M323.0156,211.7813 Q323.0156,208.6094 324.1172,206.9766 Q325.2188,205.3438 327.3594,205.3438 Q329.5156,205.3438 330.6172,206.9766 Q331.7188,208.6094 331.7188,211.7813 Q331.7188,214.9531 330.6172,216.5781 Q329.5156,218.2031 327.3594,218.2031 Q325.2188,218.2031 324.1172,216.5781 Q323.0156,214.9531 323.0156,211.7813 Z "/><text fill="#000000" font-family="sans-serif" font-size="12" font-style="italic" lengthAdjust="spacingAndGlyphs" textLength="53" x="356.25" y="209.1387">«Object»</text><text fill="#000000" font-family="sans-serif" font-size="12" lengthAdjust="spacingAndGlyphs" textLength="70" x="347.75" y="223.1074">SourceMap</text><line style="stroke: #A80036; stroke-width: 1.5;" x1="227.5" x2="505.5" y1="230.9375" y2="230.9375"/><ellipse cx="237.5" cy="242.8398" fill="none" rx="3" ry="3" style="stroke: #038048; stroke-width: 1.0;"/><text fill="#000000" font-family="sans-serif" font-size="11" lengthAdjust="spacingAndGlyphs" textLength="254" x="246.5" y="245.1479">ranges : Map&lt;ByteOffset =&gt; SourceRange&gt;</text><ellipse cx="237.5" cy="255.6445" fill="none" rx="3" ry="3" style="stroke: #038048; stroke-width: 1.0;"/><text fill="#000000" font-family="sans-serif" font-size="11" lengthAdjust="spacingAndGlyphs" textLength="101" x="246.5" y="257.9526">sources: Sources</text><line style="stroke: #A80036; stroke-width: 1.5;" x1="227.5" x2="505.5" y1="264.5469" y2="264.5469"/><!--class Instruction--><rect fill="#FEFECE" filter="url(#f1t0h4kqshssua)" height="117.9609" id="Instruction" style="stroke: #A80036; stroke-width: 1.5;" width="162" x="541.5" y="174"/><ellipse cx="584.85" cy="192.9688" fill="#DA70D6" rx="11" ry="11" style="stroke: #A80036; stroke-width: 1.0;"/><path d="M584.9594,188.5469 Q584.0219,188.5469 583.5922,189.5469 Q583.1625,190.5469 583.1625,192.7813 Q583.1625,195.0156 583.5922,196.0156 Q584.0219,197.0156 584.9594,197.0156 Q585.9125,197.0156 586.3422,196.0156 Q586.7719,195.0156 586.7719,192.7813 Q586.7719,190.5469 586.3422,189.5469 Q585.9125,188.5469 584.9594,188.5469 Z M580.6156,192.7813 Q580.6156,189.6094 581.7172,187.9766 Q582.8188,186.3438 584.9594,186.3438 Q587.1156,186.3438 588.2172,187.9766 Q589.3188,189.6094 589.3188,192.7813 Q589.3188,195.9531 588.2172,197.5781 Q587.1156,199.2031 584.9594,199.2031 Q582.8188,199.2031 581.7172,197.5781 Q580.6156,195.9531 580.6156,192.7813 Z "/><text fill="#000000" font-family="sans-serif" font-size="12" font-style="italic" lengthAdjust="spacingAndGlyphs" textLength="53" x="612.15" y="190.1387">«Object»</text><text fill="#000000" font-family="sans-serif" font-size="12" lengthAdjust="spacingAndGlyphs" textLength="67" x="605.15" y="204.1074">Instruction</text><line style="stroke: #A80036; stroke-width: 1.5;" x1="542.5" x2="702.5" y1="211.9375" y2="211.9375"/><ellipse cx="552.5" cy="223.8398" fill="none" rx="3" ry="3" style="stroke: #038048; stroke-width: 1.0;"/><text fill="#000000" font-family="sans-serif" font-size="11" lengthAdjust="spacingAndGlyphs" textLength="136" x="561.5" y="226.1479">programCounter: String</text><ellipse cx="552.5" cy="236.6445" fill="none" rx="3" ry="3" style="stroke: #038048; stroke-width: 1.0;"/><text fill="#000000" font-family="sans-serif" font-size="11" lengthAdjust="spacingAndGlyphs" textLength="89" x="561.5" y="238.9526">opcode: Integer</text><ellipse cx="552.5" cy="249.4492" fill="none" rx="3" ry="3" style="stroke: #038048; stroke-width: 1.0;"/><text fill="#000000" font-family="sans-serif" font-size="11" lengthAdjust="spacingAndGlyphs" textLength="96" x="561.5" y="251.7573">pushData: String</text><ellipse cx="552.5" cy="262.2539" fill="none" rx="3" ry="3" style="stroke: #038048; stroke-width: 1.0;"/><text fill="#000000" font-family="sans-serif" font-size="11" lengthAdjust="spacingAndGlyphs" textLength="123" x="561.5" y="264.562">sourceRanges: String</text><ellipse cx="552.5" cy="275.0586" fill="none" rx="3" ry="3" style="stroke: #038048; stroke-width: 1.0;"/><text fill="#000000" font-family="sans-serif" font-size="11" lengthAdjust="spacingAndGlyphs" textLength="73" x="561.5" y="277.3667">meta: Object</text><line style="stroke: #A80036; stroke-width: 1.5;" x1="542.5" x2="702.5" y1="283.9609" y2="283.9609"/><!--class Meta--><rect fill="#FEFECE" filter="url(#f1t0h4kqshssua)" height="105.1563" id="Meta" style="stroke: #A80036; stroke-width: 1.5;" width="121" x="562.25" y="352.5"/><ellipse cx="595.25" cy="371.4688" fill="#DA70D6" rx="11" ry="11" style="stroke: #A80036; stroke-width: 1.0;"/><path d="M595.3594,367.0469 Q594.4219,367.0469 593.9922,368.0469 Q593.5625,369.0469 593.5625,371.2813 Q593.5625,373.5156 593.9922,374.5156 Q594.4219,375.5156 595.3594,375.5156 Q596.3125,375.5156 596.7422,374.5156 Q597.1719,373.5156 597.1719,371.2813 Q597.1719,369.0469 596.7422,368.0469 Q596.3125,367.0469 595.3594,367.0469 Z M591.0156,371.2813 Q591.0156,368.1094 592.1172,366.4766 Q593.2188,364.8438 595.3594,364.8438 Q597.5156,364.8438 598.6172,366.4766 Q599.7188,368.1094 599.7188,371.2813 Q599.7188,374.4531 598.6172,376.0781 Q597.5156,377.7031 595.3594,377.7031 Q593.2188,377.7031 592.1172,376.0781 Q591.0156,374.4531 591.0156,371.2813 Z "/><text fill="#000000" font-family="sans-serif" font-size="12" font-style="italic" lengthAdjust="spacingAndGlyphs" textLength="53" x="611.25" y="368.6387">«Object»</text><text fill="#000000" font-family="sans-serif" font-size="12" lengthAdjust="spacingAndGlyphs" textLength="31" x="622.25" y="382.6074">Meta</text><line style="stroke: #A80036; stroke-width: 1.5;" x1="563.25" x2="682.25" y1="390.4375" y2="390.4375"/><ellipse cx="573.25" cy="402.3398" fill="none" rx="3" ry="3" style="stroke: #038048; stroke-width: 1.0;"/><text fill="#000000" font-family="sans-serif" font-size="11" lengthAdjust="spacingAndGlyphs" textLength="72" x="582.25" y="404.6479">cost: Integer</text><ellipse cx="573.25" cy="415.1445" fill="none" rx="3" ry="3" style="stroke: #038048; stroke-width: 1.0;"/><text fill="#000000" font-family="sans-serif" font-size="11" lengthAdjust="spacingAndGlyphs" textLength="76" x="582.25" y="417.4526">pops: Integer</text><ellipse cx="573.25" cy="427.9492" fill="none" rx="3" ry="3" style="stroke: #038048; stroke-width: 1.0;"/><text fill="#000000" font-family="sans-serif" font-size="11" lengthAdjust="spacingAndGlyphs" textLength="90" x="582.25" y="430.2573">pushes: Integer</text><ellipse cx="573.25" cy="440.7539" fill="none" rx="3" ry="3" style="stroke: #038048; stroke-width: 1.0;"/><text fill="#000000" font-family="sans-serif" font-size="11" lengthAdjust="spacingAndGlyphs" textLength="95" x="582.25" y="443.062">dynamic: Integer</text><line style="stroke: #A80036; stroke-width: 1.5;" x1="563.25" x2="682.25" y1="449.6563" y2="449.6563"/><!--link Bytecode to Instruction--><path d="M455.334,120.992 C483.317,139.574 514.063,159.991 541.473,178.193 " fill="none" id="Bytecode-Instruction" style="stroke: #A80036; stroke-width: 1.0;"/><polygon fill="#A80036" points="444.351,113.698,447.1367,120.3493,454.3478,120.3361,451.5621,113.6848,444.351,113.698" style="stroke: #A80036; stroke-width: 1.0;"/><text fill="#000000" font-family="sans-serif" font-size="13" lengthAdjust="spacingAndGlyphs" textLength="8" x="525.6177" y="169.222">n</text><!--link Instruction to Meta--><path d="M622.5,305.163 C622.5,321.043 622.5,337.586 622.5,352.493 " fill="none" id="Instruction-Meta" style="stroke: #A80036; stroke-width: 1.0;"/><polygon fill="#A80036" points="622.5,292.029,618.5,298.029,622.5,304.029,626.5,298.029,622.5,292.029" style="stroke: #A80036; stroke-width: 1.0;"/><text fill="#000000" font-family="sans-serif" font-size="13" lengthAdjust="spacingAndGlyphs" textLength="8" x="612.893" y="341.5046">1</text><!--link Bytecode to LinkReference--><path d="M273.998,120.677 C236.324,144.574 193.795,171.552 160.039,192.964 " fill="none" id="Bytecode-LinkReference" style="stroke: #A80036; stroke-width: 1.0;"/><polygon fill="#A80036" points="285,113.698,277.7908,113.5336,274.8662,120.1251,282.0755,120.2894,285,113.698" style="stroke: #A80036; stroke-width: 1.0;"/><text fill="#000000" font-family="sans-serif" font-size="13" lengthAdjust="spacingAndGlyphs" textLength="8" x="159.2697" y="181.9452">n</text><!--link Bytecode to SourceMap--><path d="M366.5,127.063 C366.5,149.225 366.5,173.303 366.5,192.798 " fill="none" id="Bytecode-SourceMap" style="stroke: #A80036; stroke-width: 1.0;"/><polygon fill="#A80036" points="366.5,113.929,362.5,119.929,366.5,125.929,370.5,119.929,366.5,113.929" style="stroke: #A80036; stroke-width: 1.0;"/><text fill="#000000" font-family="sans-serif" font-size="13" lengthAdjust="spacingAndGlyphs" textLength="24" x="339.6719" y="182.0574">0..1</text><!--
@startuml

 class Bytecode << (O,orchid) Object >> {
  + bytes: Array<Byte>
  + sourceMap : SourceMap
  + instructions: Array<Instruction>
  + linkReferences : Set<LinkReference>
 }

 class LinkReference << (O,orchid) Object >> {
  + offsets : Array<ByteOffset>
  + length : Integer
 }

 class SourceMap << (O,orchid) Object >> {
  + ranges : Map<ByteOffset => SourceRange>
  + sources: Sources
 }

 class Instruction << (O,orchid) Object >> {
  + programCounter: String
  + opcode: Integer
  + pushData: String
  + sourceRanges: String
  + meta: Object
 }

class Meta << (O,orchid) Object >> {
  + cost: Integer
  + pops: Integer
  + pushes: Integer
  + dynamic: Integer
 }

 Bytecode *- - "n" Instruction
 Instruction *- - "1" Meta
 Bytecode *- - "n" LinkReference
 Bytecode *- - "0..1" SourceMap

@enduml

PlantUML version 1.2018.14(Fri Dec 21 16:33:16 UTC 2018)
(GPL source distribution)
Java Runtime: Java(TM) SE Runtime Environment
JVM: Java HotSpot(TM) 64-Bit Server VM
Java Version: 1.8.0_151-b12
Operating System: Linux
OS Version: 4.4.0-101-generic
Default Encoding: UTF-8
Language: en
Country: US
--></g></svg>