<?xml version="1.0" encoding="UTF-8" standalone="no"?><svg xmlns="http://www.w3.org/2000/svg" xmlns:xlink="http://www.w3.org/1999/xlink" contentScriptType="application/ecmascript" contentStyleType="text/css" height="416px" preserveAspectRatio="none" style="width:572px;height:416px;" version="1.1" viewBox="0 0 572 416" width="572px" zoomAndPan="magnify"><defs><filter height="300%" id="f1oeyvfxnzyu2k" width="300%" x="-1" y="-1"><feGaussianBlur result="blurOut" stdDeviation="2.0"/><feColorMatrix in="blurOut" result="blurOut2" type="matrix" values="0 0 0 0 0 0 0 0 0 0 0 0 0 0 0 0 0 0 .4 0"/><feOffset dx="4.0" dy="4.0" in="blurOut2" result="blurOut3"/><feBlend in="SourceGraphic" in2="blurOut3" mode="normal"/></filter></defs><g><!--class Bytecode--><rect fill="#FEFECE" filter="url(#f1oeyvfxnzyu2k)" height="92.3516" id="Bytecode" style="stroke: #A80036; stroke-width: 1.5;" width="237" x="302.75" y="8"/><ellipse cx="388" cy="26.9688" fill="#DA70D6" rx="11" ry="11" style="stroke: #A80036; stroke-width: 1.0;"/><path d="M388.1094,22.5469 Q387.1719,22.5469 386.7422,23.5469 Q386.3125,24.5469 386.3125,26.7813 Q386.3125,29.0156 386.7422,30.0156 Q387.1719,31.0156 388.1094,31.0156 Q389.0625,31.0156 389.4922,30.0156 Q389.9219,29.0156 389.9219,26.7813 Q389.9219,24.5469 389.4922,23.5469 Q389.0625,22.5469 388.1094,22.5469 Z M383.7656,26.7813 Q383.7656,23.6094 384.8672,21.9766 Q385.9688,20.3438 388.1094,20.3438 Q390.2656,20.3438 391.3672,21.9766 Q392.4688,23.6094 392.4688,26.7813 Q392.4688,29.9531 391.3672,31.5781 Q390.2656,33.2031 388.1094,33.2031 Q385.9688,33.2031 384.8672,31.5781 Q383.7656,29.9531 383.7656,26.7813 Z "/><text fill="#000000" font-family="sans-serif" font-size="12" font-style="italic" lengthAdjust="spacingAndGlyphs" textLength="53" x="411" y="24.1387">«Object»</text><text fill="#000000" font-family="sans-serif" font-size="12" lengthAdjust="spacingAndGlyphs" textLength="58" x="408.5" y="38.1074">Bytecode</text><line style="stroke: #A80036; stroke-width: 1.5;" x1="303.75" x2="538.75" y1="45.9375" y2="45.9375"/><ellipse cx="313.75" cy="57.8398" fill="none" rx="3" ry="3" style="stroke: #038048; stroke-width: 1.0;"/><text fill="#000000" font-family="sans-serif" font-size="11" lengthAdjust="spacingAndGlyphs" textLength="112" x="322.75" y="60.1479">bytes: Array&lt;Byte&gt;</text><ellipse cx="313.75" cy="70.6445" fill="none" rx="3" ry="3" style="stroke: #038048; stroke-width: 1.0;"/><text fill="#000000" font-family="sans-serif" font-size="11" lengthAdjust="spacingAndGlyphs" textLength="137" x="322.75" y="72.9526">sourceMap : SourceMap</text><ellipse cx="313.75" cy="83.4492" fill="none" rx="3" ry="3" style="stroke: #038048; stroke-width: 1.0;"/><text fill="#000000" font-family="sans-serif" font-size="11" lengthAdjust="spacingAndGlyphs" textLength="211" x="322.75" y="85.7573">linkReferences : Set&lt;LinkReference&gt;</text><line style="stroke: #A80036; stroke-width: 1.5;" x1="303.75" x2="538.75" y1="92.3516" y2="92.3516"/><!--class Source--><rect fill="#FEFECE" filter="url(#f1oeyvfxnzyu2k)" height="92.3516" id="Source" style="stroke: #A80036; stroke-width: 1.5;" width="136" x="58" y="307"/><ellipse cx="97.75" cy="325.9688" fill="#DA70D6" rx="11" ry="11" style="stroke: #A80036; stroke-width: 1.0;"/><path d="M97.8594,321.5469 Q96.9219,321.5469 96.4922,322.5469 Q96.0625,323.5469 96.0625,325.7813 Q96.0625,328.0156 96.4922,329.0156 Q96.9219,330.0156 97.8594,330.0156 Q98.8125,330.0156 99.2422,329.0156 Q99.6719,328.0156 99.6719,325.7813 Q99.6719,323.5469 99.2422,322.5469 Q98.8125,321.5469 97.8594,321.5469 Z M93.5156,325.7813 Q93.5156,322.6094 94.6172,320.9766 Q95.7188,319.3438 97.8594,319.3438 Q100.0156,319.3438 101.1172,320.9766 Q102.2188,322.6094 102.2188,325.7813 Q102.2188,328.9531 101.1172,330.5781 Q100.0156,332.2031 97.8594,332.2031 Q95.7188,332.2031 94.6172,330.5781 Q93.5156,328.9531 93.5156,325.7813 Z "/><text fill="#000000" font-family="sans-serif" font-size="12" font-style="italic" lengthAdjust="spacingAndGlyphs" textLength="53" x="115.25" y="323.1387">«Object»</text><text fill="#000000" font-family="sans-serif" font-size="12" lengthAdjust="spacingAndGlyphs" textLength="44" x="119.75" y="337.1074">Source</text><line style="stroke: #A80036; stroke-width: 1.5;" x1="59" x2="193" y1="344.9375" y2="344.9375"/><ellipse cx="69" cy="356.8398" fill="none" rx="3" ry="3" style="stroke: #038048; stroke-width: 1.0;"/><text fill="#000000" font-family="sans-serif" font-size="11" lengthAdjust="spacingAndGlyphs" textLength="95" x="78" y="359.1479">contents : String</text><ellipse cx="69" cy="369.6445" fill="none" rx="3" ry="3" style="stroke: #038048; stroke-width: 1.0;"/><text fill="#000000" font-family="sans-serif" font-size="11" lengthAdjust="spacingAndGlyphs" textLength="110" x="78" y="371.9526">sourcePath : String</text><ellipse cx="69" cy="382.4492" fill="none" rx="3" ry="3" style="stroke: #038048; stroke-width: 1.0;"/><text fill="#000000" font-family="sans-serif" font-size="11" lengthAdjust="spacingAndGlyphs" textLength="52" x="78" y="384.7573">ast : AST</text><line style="stroke: #A80036; stroke-width: 1.5;" x1="59" x2="193" y1="391.3516" y2="391.3516"/><!--class Sources--><rect fill="#FEFECE" filter="url(#f1oeyvfxnzyu2k)" height="66.7422" id="Sources" style="stroke: #A80036; stroke-width: 1.5;" width="240" x="6.5" y="166.5"/><ellipse cx="86.75" cy="185.4688" fill="#FF1493" rx="11" ry="11" style="stroke: #A80036; stroke-width: 1.0;"/><path d="M89.7188,191.1094 Q89.1406,191.4063 88.5,191.5547 Q87.8594,191.7031 87.1563,191.7031 Q84.6563,191.7031 83.3359,190.0547 Q82.0156,188.4063 82.0156,185.2813 Q82.0156,182.1563 83.3359,180.5 Q84.6563,178.8438 87.1563,178.8438 Q87.8594,178.8438 88.5078,179 Q89.1563,179.1563 89.7188,179.4531 L89.7188,182.1719 Q89.0938,181.5938 88.5,181.3203 Q87.9063,181.0469 87.2813,181.0469 Q85.9375,181.0469 85.25,182.1172 Q84.5625,183.1875 84.5625,185.2813 Q84.5625,187.375 85.25,188.4453 Q85.9375,189.5156 87.2813,189.5156 Q87.9063,189.5156 88.5,189.2422 Q89.0938,188.9688 89.7188,188.3906 L89.7188,191.1094 Z "/><text fill="#000000" font-family="sans-serif" font-size="12" font-style="italic" lengthAdjust="spacingAndGlyphs" textLength="75" x="105.25" y="182.6387">«Collection»</text><text fill="#000000" font-family="sans-serif" font-size="12" lengthAdjust="spacingAndGlyphs" textLength="51" x="117.25" y="196.6074">Sources</text><line style="stroke: #A80036; stroke-width: 1.5;" x1="7.5" x2="245.5" y1="204.4375" y2="204.4375"/><ellipse cx="17.5" cy="216.3398" fill="none" rx="3" ry="3" style="stroke: #038048; stroke-width: 1.0;"/><text fill="#000000" font-family="sans-serif" font-size="11" lengthAdjust="spacingAndGlyphs" textLength="214" x="26.5" y="218.6479">sources : Map&lt;FileIndex =&gt; Source&gt;</text><line style="stroke: #A80036; stroke-width: 1.5;" x1="7.5" x2="245.5" y1="225.2422" y2="225.2422"/><!--class SourceMap--><rect fill="#FEFECE" filter="url(#f1oeyvfxnzyu2k)" height="79.5469" id="SourceMap" style="stroke: #A80036; stroke-width: 1.5;" width="280" x="281" y="160"/><ellipse cx="381.75" cy="178.9688" fill="#DA70D6" rx="11" ry="11" style="stroke: #A80036; stroke-width: 1.0;"/><path d="M381.8594,174.5469 Q380.9219,174.5469 380.4922,175.5469 Q380.0625,176.5469 380.0625,178.7813 Q380.0625,181.0156 380.4922,182.0156 Q380.9219,183.0156 381.8594,183.0156 Q382.8125,183.0156 383.2422,182.0156 Q383.6719,181.0156 383.6719,178.7813 Q383.6719,176.5469 383.2422,175.5469 Q382.8125,174.5469 381.8594,174.5469 Z M377.5156,178.7813 Q377.5156,175.6094 378.6172,173.9766 Q379.7188,172.3438 381.8594,172.3438 Q384.0156,172.3438 385.1172,173.9766 Q386.2188,175.6094 386.2188,178.7813 Q386.2188,181.9531 385.1172,183.5781 Q384.0156,185.2031 381.8594,185.2031 Q379.7188,185.2031 378.6172,183.5781 Q377.5156,181.9531 377.5156,178.7813 Z "/><text fill="#000000" font-family="sans-serif" font-size="12" font-style="italic" lengthAdjust="spacingAndGlyphs" textLength="53" x="410.75" y="176.1387">«Object»</text><text fill="#000000" font-family="sans-serif" font-size="12" lengthAdjust="spacingAndGlyphs" textLength="70" x="402.25" y="190.1074">SourceMap</text><line style="stroke: #A80036; stroke-width: 1.5;" x1="282" x2="560" y1="197.9375" y2="197.9375"/><ellipse cx="292" cy="209.8398" fill="none" rx="3" ry="3" style="stroke: #038048; stroke-width: 1.0;"/><text fill="#000000" font-family="sans-serif" font-size="11" lengthAdjust="spacingAndGlyphs" textLength="254" x="301" y="212.1479">ranges : Map&lt;ByteOffset =&gt; SourceRange&gt;</text><ellipse cx="292" cy="222.6445" fill="none" rx="3" ry="3" style="stroke: #038048; stroke-width: 1.0;"/><text fill="#000000" font-family="sans-serif" font-size="11" lengthAdjust="spacingAndGlyphs" textLength="101" x="301" y="224.9526">sources: Sources</text><line style="stroke: #A80036; stroke-width: 1.5;" x1="282" x2="560" y1="231.5469" y2="231.5469"/><!--class SourceRange--><rect fill="#FEFECE" filter="url(#f1oeyvfxnzyu2k)" height="105.1563" id="SourceRange" style="stroke: #A80036; stroke-width: 1.5;" width="125" x="358.75" y="300.5"/><ellipse cx="377.8" cy="319.4688" fill="#DA70D6" rx="11" ry="11" style="stroke: #A80036; stroke-width: 1.0;"/><path d="M377.9094,315.0469 Q376.9719,315.0469 376.5422,316.0469 Q376.1125,317.0469 376.1125,319.2813 Q376.1125,321.5156 376.5422,322.5156 Q376.9719,323.5156 377.9094,323.5156 Q378.8625,323.5156 379.2922,322.5156 Q379.7219,321.5156 379.7219,319.2813 Q379.7219,317.0469 379.2922,316.0469 Q378.8625,315.0469 377.9094,315.0469 Z M373.5656,319.2813 Q373.5656,316.1094 374.6672,314.4766 Q375.7688,312.8438 377.9094,312.8438 Q380.0656,312.8438 381.1672,314.4766 Q382.2688,316.1094 382.2688,319.2813 Q382.2688,322.4531 381.1672,324.0781 Q380.0656,325.7031 377.9094,325.7031 Q375.7688,325.7031 374.6672,324.0781 Q373.5656,322.4531 373.5656,319.2813 Z "/><text fill="#000000" font-family="sans-serif" font-size="12" font-style="italic" lengthAdjust="spacingAndGlyphs" textLength="53" x="408.2" y="316.6387">«Object»</text><text fill="#000000" font-family="sans-serif" font-size="12" lengthAdjust="spacingAndGlyphs" textLength="84" x="392.7" y="330.6074">SourceRange</text><line style="stroke: #A80036; stroke-width: 1.5;" x1="359.75" x2="482.75" y1="338.4375" y2="338.4375"/><ellipse cx="369.75" cy="350.3398" fill="none" rx="3" ry="3" style="stroke: #038048; stroke-width: 1.0;"/><text fill="#000000" font-family="sans-serif" font-size="11" lengthAdjust="spacingAndGlyphs" textLength="91" x="378.75" y="352.6479">source : Source</text><ellipse cx="369.75" cy="363.1445" fill="none" rx="3" ry="3" style="stroke: #038048; stroke-width: 1.0;"/><text fill="#000000" font-family="sans-serif" font-size="11" lengthAdjust="spacingAndGlyphs" textLength="99" x="378.75" y="365.4526">start : ByteOffset</text><ellipse cx="369.75" cy="375.9492" fill="none" rx="3" ry="3" style="stroke: #038048; stroke-width: 1.0;"/><text fill="#000000" font-family="sans-serif" font-size="11" lengthAdjust="spacingAndGlyphs" textLength="85" x="378.75" y="378.2573">length : Length</text><ellipse cx="369.75" cy="388.7539" fill="none" rx="3" ry="3" style="stroke: #038048; stroke-width: 1.0;"/><text fill="#000000" font-family="sans-serif" font-size="11" lengthAdjust="spacingAndGlyphs" textLength="77" x="378.75" y="391.062">meta : Object</text><line style="stroke: #A80036; stroke-width: 1.5;" x1="359.75" x2="482.75" y1="397.6563" y2="397.6563"/><!--link Bytecode to SourceMap--><path d="M421,113.551 C421,129.124 421,145.566 421,159.824 " fill="none" id="Bytecode-SourceMap" style="stroke: #A80036; stroke-width: 1.0;"/><polygon fill="#A80036" points="421,100.167,417,106.167,421,112.167,425,106.167,421,100.167" style="stroke: #A80036; stroke-width: 1.0;"/><text fill="#000000" font-family="sans-serif" font-size="13" lengthAdjust="spacingAndGlyphs" textLength="8" x="411.2656" y="148.7846">1</text><!--link Sources to SourceMap--><path d="M245.556,200 C252.909,200 260.262,200 267.615,200 " fill="none" id="Sources-SourceMap" style="stroke: #A80036; stroke-width: 1.0;"/><polygon fill="#FFFFFF" points="280.85,200,274.85,196,268.85,200,274.85,204,280.85,200" style="stroke: #A80036; stroke-width: 1.0;"/><text fill="#000000" font-family="sans-serif" font-size="13" lengthAdjust="spacingAndGlyphs" textLength="8" x="254.5929" y="195.457">1</text><!--link SourceMap to SourceRange--><path d="M421,253.719 C421,268.853 421,285.334 421,300.399 " fill="none" id="SourceMap-SourceRange" style="stroke: #A80036; stroke-width: 1.0;"/><polygon fill="#A80036" points="421,240.279,417,246.279,421,252.279,425,246.279,421,240.279" style="stroke: #A80036; stroke-width: 1.0;"/><text fill="#000000" font-family="sans-serif" font-size="13" lengthAdjust="spacingAndGlyphs" textLength="8" x="411.393" y="289.3997">n</text><!--link Source to SourceRange--><path d="M194.276,353 C244.653,353 295.03,353 345.407,353 " fill="none" id="Source-SourceRange" style="stroke: #A80036; stroke-width: 1.0;"/><polygon fill="#FFFFFF" points="358.562,353,352.562,349,346.562,353,352.562,357,358.562,353" style="stroke: #A80036; stroke-width: 1.0;"/><text fill="#000000" font-family="sans-serif" font-size="13" lengthAdjust="spacingAndGlyphs" textLength="8" x="202.1812" y="348.1252">1</text><!--link Sources to Source--><path d="M126,247.015 C126,266.051 126,288.054 126,306.9842 " fill="none" id="Sources-Source" style="stroke: #A80036; stroke-width: 1.0;"/><polygon fill="#A80036" points="126,233.765,122,239.765,126,245.765,130,239.765,126,233.765" style="stroke: #A80036; stroke-width: 1.0;"/><text fill="#000000" font-family="sans-serif" font-size="13" lengthAdjust="spacingAndGlyphs" textLength="8" x="116.3594" y="296.052">n</text><!--
@startuml

class Bytecode << (O,orchid) Object >> {
 + bytes: Array<Byte>
 + sourceMap : SourceMap
 + linkReferences : Set<LinkReference>
}

class Source << (O,orchid) Object >> {
 + contents : String
 + sourcePath : String
 + ast : AST
}

class Sources << (C,deeppink) Collection >> {
 + sources : Map<FileIndex => Source>
}

class SourceMap << (O,orchid) Object >> {
 + ranges : Map<ByteOffset => SourceRange>
 + sources: Sources
}

class SourceRange << (O,orchid) Object >> {
 + source : Source
 + start : ByteOffset
 + length : Length
 + meta : Object
}

Bytecode *- - "1" SourceMap

SourceMap o-left- "1" Sources
SourceMap *- - "n" SourceRange
SourceRange o-left- "1" Source

Sources *- - "n" Source

@enduml

PlantUML version 1.2018.14(Fri Dec 21 16:33:16 UTC 2018)
(GPL source distribution)
Java Runtime: Java(TM) SE Runtime Environment
JVM: Java HotSpot(TM) 64-Bit Server VM
Java Version: 1.8.0_151-b12
Operating System: Linux
OS Version: 4.4.0-101-generic
Default Encoding: UTF-8
Language: en
Country: US
--></g></svg>