<?xml version="1.0" encoding="UTF-8" standalone="no"?><svg xmlns="http://www.w3.org/2000/svg" xmlns:xlink="http://www.w3.org/1999/xlink" contentScriptType="application/ecmascript" contentStyleType="text/css" height="495px" preserveAspectRatio="none" style="width:489px;height:495px;" version="1.1" viewBox="0 0 489 495" width="489px" zoomAndPan="magnify"><defs><filter height="300%" id="f1bm303ge1pjp9" width="300%" x="-1" y="-1"><feGaussianBlur result="blurOut" stdDeviation="2.0"/><feColorMatrix in="blurOut" result="blurOut2" type="matrix" values="0 0 0 0 0 0 0 0 0 0 0 0 0 0 0 0 0 0 .4 0"/><feOffset dx="4.0" dy="4.0" in="blurOut2" result="blurOut3"/><feBlend in="SourceGraphic" in2="blurOut3" mode="normal"/></filter></defs><g><!--class Project--><rect fill="#FEFECE" filter="url(#f1bm303ge1pjp9)" height="130.7656" id="Project" style="stroke: #A80036; stroke-width: 1.5;" width="179.3333" x="196" y="8"/><ellipse cx="246.9167" cy="26.9688" fill="#DA70D6" rx="11" ry="11" style="stroke: #A80036; stroke-width: 1.0;"/><path d="M248.1198,27.1094 Q248.4792,27.1875 248.7448,27.4688 Q249.026,27.7344 249.4167,28.5156 L251.651,32.9688 L248.9635,32.9688 L247.4635,29.8438 Q247.401,29.7031 247.2917,29.4688 Q246.6354,28.0781 245.7448,28.0781 L244.9635,28.0781 L244.9635,32.9688 L242.526,32.9688 L242.526,20.5781 L246.0573,20.5781 Q248.4479,20.5781 249.4792,21.4219 Q250.526,22.2656 250.526,24.1719 Q250.526,25.4531 249.901,26.2188 Q249.2917,26.9688 248.1198,27.1094 Z M244.9635,22.6406 L244.9635,26.0156 L246.1198,26.0156 Q247.1354,26.0156 247.5573,25.625 Q247.9948,25.2188 247.9948,24.3125 Q247.9948,23.4219 247.5573,23.0313 Q247.1354,22.6406 246.1198,22.6406 L244.9635,22.6406 Z "/><text fill="#000000" font-family="sans-serif" font-size="12" font-style="italic" lengthAdjust="spacingAndGlyphs" textLength="73" x="265.4167" y="24.1387">«Resource»</text><text fill="#000000" font-family="sans-serif" font-size="12" lengthAdjust="spacingAndGlyphs" textLength="44" x="279.9167" y="38.1074">Project</text><line style="stroke: #A80036; stroke-width: 1.5;" x1="197" x2="374.3333" y1="45.9375" y2="45.9375"/><ellipse cx="207" cy="57.8398" fill="none" rx="3" ry="3" style="stroke: #038048; stroke-width: 1.0;"/><text fill="#000000" font-family="sans-serif" font-size="11" lengthAdjust="spacingAndGlyphs" textLength="92" x="216" y="60.1479">directory: String</text><ellipse cx="207" cy="89.8516" fill="#84BE84" rx="3" ry="3" style="stroke: #038048; stroke-width: 1.0;"/><text fill="#000000" font-family="sans-serif" font-size="11" lengthAdjust="spacingAndGlyphs" textLength="50" x="216" y="72.9526">resolve (</text><text fill="#000000" font-family="sans-serif" font-size="11" lengthAdjust="spacingAndGlyphs" textLength="70" x="248" y="85.7573">type: String,</text><text fill="#000000" font-family="sans-serif" font-size="11" lengthAdjust="spacingAndGlyphs" textLength="74" x="248" y="98.562">name: String</text><text fill="#000000" font-family="sans-serif" font-size="11" lengthAdjust="spacingAndGlyphs" textLength="132" x="216" y="111.3667">): Array&lt;NameRecord&gt;</text><line style="stroke: #A80036; stroke-width: 1.0; stroke-dasharray: 1.0,2.0;" x1="197" x2="374.3333" y1="117.9609" y2="117.9609"/><rect fill="none" height="6" style="stroke: #C82930; stroke-width: 1.0;" width="6" x="204" y="126.8633"/><path d="M222.0417,124.6823 C220.7767,124.6823 219.75,125.709 219.75,126.974 C219.75,127.1206 219.7803,127.2462 219.8078,127.3755 L217,130.1832 L217,132.0165 L219.75,132.0165 L219.75,130.1832 L221.5833,130.1832 L221.5833,129.2665 L221.6411,129.2088 C221.7694,129.2363 221.895,129.2665 222.0426,129.2665 C223.3076,129.2665 224.3343,128.2399 224.3343,126.9749 C224.3343,125.7099 223.3076,124.6832 222.0426,124.6832 M222.5009,125.5999 C223.0051,125.5999 223.4176,126.0124 223.4176,126.5165 C223.4176,127.0207 223.0051,127.4332 222.5009,127.4332 C221.9968,127.4332 221.5843,127.0207 221.5843,126.5165 C221.5843,126.0124 221.9968,125.5999 222.5009,125.5999 " fill="#000000" style="stroke: ; stroke-width: 0.0; stroke-dasharray: ;"/><text fill="#000000" font-family="sans-serif" font-size="11" lengthAdjust="spacingAndGlyphs" textLength="29" x="229.3333" y="132.1714">id: ID</text><text fill="#000000" font-family="sans-serif" font-size="11" font-style="italic" lengthAdjust="spacingAndGlyphs" textLength="45" x="262.3333" y="132.1714">= hash(</text><text fill="#000000" font-family="sans-serif" font-size="11" lengthAdjust="spacingAndGlyphs" textLength="0" x="311.3333" y="132.1714"/><text fill="#000000" font-family="Andale Mono" font-size="11" lengthAdjust="spacingAndGlyphs" textLength="50" x="311.3333" y="132.1714">directory</text><text fill="#000000" font-family="sans-serif" font-size="11" lengthAdjust="spacingAndGlyphs" textLength="0" x="365.3333" y="132.1714"/><text fill="#000000" font-family="sans-serif" font-size="11" font-style="italic" lengthAdjust="spacingAndGlyphs" textLength="4" x="365.3333" y="132.1714">)</text><!--class NameRecord--><rect fill="#FEFECE" filter="url(#f1bm303ge1pjp9)" height="143.5703" id="NameRecord" style="stroke: #A80036; stroke-width: 1.5;" width="313.3333" x="129" y="200"/><ellipse cx="198.4167" cy="218.9688" fill="#DA70D6" rx="11" ry="11" style="stroke: #A80036; stroke-width: 1.0;"/><path d="M199.6198,219.1094 Q199.9792,219.1875 200.2448,219.4688 Q200.526,219.7344 200.9167,220.5156 L203.151,224.9688 L200.4635,224.9688 L198.9635,221.8438 Q198.901,221.7031 198.7917,221.4688 Q198.1354,220.0781 197.2448,220.0781 L196.4635,220.0781 L196.4635,224.9688 L194.026,224.9688 L194.026,212.5781 L197.5573,212.5781 Q199.9479,212.5781 200.9792,213.4219 Q202.026,214.2656 202.026,216.1719 Q202.026,217.4531 201.401,218.2188 Q200.7917,218.9688 199.6198,219.1094 Z M196.4635,214.6406 L196.4635,218.0156 L197.6198,218.0156 Q198.6354,218.0156 199.0573,217.625 Q199.4948,217.2188 199.4948,216.3125 Q199.4948,215.4219 199.0573,215.0313 Q198.6354,214.6406 197.6198,214.6406 L196.4635,214.6406 Z "/><text fill="#000000" font-family="sans-serif" font-size="12" font-style="italic" lengthAdjust="spacingAndGlyphs" textLength="73" x="222.4167" y="216.1387">«Resource»</text><text fill="#000000" font-family="sans-serif" font-size="12" lengthAdjust="spacingAndGlyphs" textLength="80" x="218.9167" y="230.1074">NameRecord</text><rect fill="#FFFFFF" height="15.9688" style="stroke: #000000; stroke-width: 1.0; stroke-dasharray: 2.0,2.0;" width="84" x="361.3333" y="197"/><text fill="#000000" font-family="sans-serif" font-size="12" font-style="italic" lengthAdjust="spacingAndGlyphs" textLength="74" x="366.3333" y="209.1387">T: Resource</text><line style="stroke: #A80036; stroke-width: 1.5;" x1="130" x2="441.3333" y1="237.9375" y2="237.9375"/><ellipse cx="140" cy="249.8398" fill="none" rx="3" ry="3" style="stroke: #038048; stroke-width: 1.0;"/><text fill="#000000" font-family="sans-serif" font-size="11" lengthAdjust="spacingAndGlyphs" textLength="66" x="149" y="252.1479">type: String</text><ellipse cx="140" cy="262.6445" fill="none" rx="3" ry="3" style="stroke: #038048; stroke-width: 1.0;"/><text fill="#000000" font-family="sans-serif" font-size="11" lengthAdjust="spacingAndGlyphs" textLength="74" x="149" y="264.9526">name: String</text><ellipse cx="140" cy="275.4492" fill="#84BE84" rx="3" ry="3" style="stroke: #038048; stroke-width: 1.0;"/><text fill="#000000" font-family="sans-serif" font-size="11" lengthAdjust="spacingAndGlyphs" textLength="66" x="149" y="277.7573">resource: T</text><ellipse cx="140" cy="288.2539" fill="#84BE84" rx="3" ry="3" style="stroke: #038048; stroke-width: 1.0;"/><text fill="#000000" font-family="sans-serif" font-size="11" lengthAdjust="spacingAndGlyphs" textLength="208" x="149" y="290.562">previous: Maybe&lt;NameRecord&lt;T&gt;&gt;</text><line style="stroke: #A80036; stroke-width: 1.0; stroke-dasharray: 1.0,2.0;" x1="130" x2="441.3333" y1="297.1563" y2="297.1563"/><rect fill="none" height="6" style="stroke: #C82930; stroke-width: 1.0;" width="6" x="137" y="306.0586"/><path d="M155.0417,303.8776 C153.7767,303.8776 152.75,304.9043 152.75,306.1693 C152.75,306.3159 152.7803,306.4415 152.8078,306.5708 L150,309.3785 L150,311.2119 L152.75,311.2119 L152.75,309.3785 L154.5833,309.3785 L154.5833,308.4619 L154.6411,308.4041 C154.7694,308.4316 154.895,308.4619 155.0426,308.4619 C156.3076,308.4619 157.3343,307.4352 157.3343,306.1702 C157.3343,304.9052 156.3076,303.8785 155.0426,303.8785 M155.5009,304.7952 C156.0051,304.7952 156.4176,305.2077 156.4176,305.7119 C156.4176,306.216 156.0051,306.6285 155.5009,306.6285 C154.9968,306.6285 154.5843,306.216 154.5843,305.7119 C154.5843,305.2077 154.9968,304.7952 155.5009,304.7952 " fill="#000000" style="stroke: ; stroke-width: 0.0; stroke-dasharray: ;"/><text fill="#000000" font-family="sans-serif" font-size="11" lengthAdjust="spacingAndGlyphs" textLength="29" x="162.3333" y="311.3667">id: ID</text><text fill="#000000" font-family="sans-serif" font-size="11" font-style="italic" lengthAdjust="spacingAndGlyphs" textLength="45" x="195.3333" y="311.3667">= hash(</text><text fill="#000000" font-family="sans-serif" font-size="11" lengthAdjust="spacingAndGlyphs" textLength="0" x="244.3333" y="311.3667"/><text fill="#000000" font-family="Andale Mono" font-size="11" lengthAdjust="spacingAndGlyphs" textLength="24" x="244.3333" y="311.3667">type</text><text fill="#000000" font-family="sans-serif" font-size="11" font-style="italic" lengthAdjust="spacingAndGlyphs" textLength="4" x="268.3333" y="311.3667">,</text><text fill="#000000" font-family="sans-serif" font-size="11" lengthAdjust="spacingAndGlyphs" textLength="0" x="276.3333" y="311.3667"/><text fill="#000000" font-family="Andale Mono" font-size="11" lengthAdjust="spacingAndGlyphs" textLength="32" x="276.3333" y="311.3667">name</text><text fill="#000000" font-family="sans-serif" font-size="11" font-style="italic" lengthAdjust="spacingAndGlyphs" textLength="4" x="308.3333" y="311.3667">,</text><text fill="#000000" font-family="sans-serif" font-size="11" lengthAdjust="spacingAndGlyphs" textLength="0" x="316.3333" y="311.3667"/><text fill="#000000" font-family="Andale Mono" font-size="11" lengthAdjust="spacingAndGlyphs" textLength="51" x="316.3333" y="311.3667">resource</text><text fill="#000000" font-family="sans-serif" font-size="11" lengthAdjust="spacingAndGlyphs" textLength="0" x="371.3333" y="311.3667"/><text fill="#000000" font-family="sans-serif" font-size="11" font-style="italic" lengthAdjust="spacingAndGlyphs" textLength="4" x="371.3333" y="311.3667">,</text><text fill="#000000" font-family="sans-serif" font-size="11" lengthAdjust="spacingAndGlyphs" textLength="0" x="379.3333" y="311.3667"/><text fill="#000000" font-family="Andale Mono" font-size="11" lengthAdjust="spacingAndGlyphs" textLength="49" x="379.3333" y="311.3667">previous</text><text fill="#000000" font-family="sans-serif" font-size="11" lengthAdjust="spacingAndGlyphs" textLength="0" x="432.3333" y="311.3667"/><text fill="#000000" font-family="sans-serif" font-size="11" font-style="italic" lengthAdjust="spacingAndGlyphs" textLength="4" x="432.3333" y="311.3667">)</text><rect fill="none" height="6" style="stroke: #C82930; stroke-width: 1.0;" width="6" x="137" y="318.8633"/><text fill="#000000" font-family="sans-serif" font-size="11" lengthAdjust="spacingAndGlyphs" textLength="80" x="149" y="324.1714">resourceId: ID</text><rect fill="none" height="6" style="stroke: #C82930; stroke-width: 1.0;" width="6" x="137" y="331.668"/><text fill="#000000" font-family="sans-serif" font-size="11" lengthAdjust="spacingAndGlyphs" textLength="78" x="149" y="336.9761">previousId: ID</text><!--class Named--><rect fill="#FEFECE" filter="url(#f1bm303ge1pjp9)" height="66.7422" id="Named" style="stroke: #A80036; stroke-width: 1.5;" width="100" x="235.5" y="411.5"/><ellipse cx="251.4" cy="430.4688" fill="#8A2BE2" rx="11" ry="11" style="stroke: #A80036; stroke-width: 1.0;"/><path d="M247.3219,426.2344 L247.3219,424.0781 L254.7125,424.0781 L254.7125,426.2344 L252.2438,426.2344 L252.2438,434.3125 L254.7125,434.3125 L254.7125,436.4688 L247.3219,436.4688 L247.3219,434.3125 L249.7906,434.3125 L249.7906,426.2344 L247.3219,426.2344 Z "/><text fill="#000000" font-family="sans-serif" font-size="12" font-style="italic" lengthAdjust="spacingAndGlyphs" textLength="70" x="263.6" y="427.6387">«Interface»</text><text fill="#000000" font-family="sans-serif" font-size="12" lengthAdjust="spacingAndGlyphs" textLength="44" x="276.6" y="441.6074">Named</text><line style="stroke: #A80036; stroke-width: 1.5;" x1="236.5" x2="334.5" y1="449.4375" y2="449.4375"/><ellipse cx="246.5" cy="461.3398" fill="none" rx="3" ry="3" style="stroke: #038048; stroke-width: 1.0;"/><text fill="#000000" font-family="sans-serif" font-size="11" lengthAdjust="spacingAndGlyphs" textLength="74" x="255.5" y="463.6479">name: String</text><line style="stroke: #A80036; stroke-width: 1.5;" x1="236.5" x2="334.5" y1="470.2422" y2="470.2422"/><!--class T--><rect fill="#FEFECE" filter="url(#f1bm303ge1pjp9)" height="79.5469" id="T" style="stroke: #A80036; stroke-width: 1.5;" width="101" x="6" y="405"/><ellipse cx="21" cy="423.9688" fill="#B19CD9" rx="11" ry="11" style="stroke: #A80036; stroke-width: 1.0;"/><path d="M22.2031,424.1094 Q22.5625,424.1875 22.8281,424.4688 Q23.1094,424.7344 23.5,425.5156 L25.7344,429.9688 L23.0469,429.9688 L21.5469,426.8438 Q21.4844,426.7031 21.375,426.4688 Q20.7188,425.0781 19.8281,425.0781 L19.0469,425.0781 L19.0469,429.9688 L16.6094,429.9688 L16.6094,417.5781 L20.1406,417.5781 Q22.5313,417.5781 23.5625,418.4219 Q24.6094,419.2656 24.6094,421.1719 Q24.6094,422.4531 23.9844,423.2188 Q23.375,423.9688 22.2031,424.1094 Z M19.0469,419.6406 L19.0469,423.0156 L20.2031,423.0156 Q21.2188,423.0156 21.6406,422.625 Q22.0781,422.2188 22.0781,421.3125 Q22.0781,420.4219 21.6406,420.0313 Q21.2188,419.6406 20.2031,419.6406 L19.0469,419.6406 Z "/><text fill="#000000" font-family="sans-serif" font-size="12" font-style="italic" lengthAdjust="spacingAndGlyphs" textLength="73" x="33" y="421.1387">«Resource»</text><text fill="#000000" font-family="sans-serif" font-size="12" lengthAdjust="spacingAndGlyphs" textLength="7" x="66" y="435.1074">T</text><line style="stroke: #A80036; stroke-width: 1.5;" x1="7" x2="106" y1="442.9375" y2="442.9375"/><ellipse cx="17" cy="454.8398" fill="none" rx="3" ry="3" style="stroke: #038048; stroke-width: 1.0;"/><text fill="#000000" font-family="sans-serif" font-size="11" lengthAdjust="spacingAndGlyphs" textLength="74" x="26" y="457.1479">name: String</text><line style="stroke: #A80036; stroke-width: 1.0; stroke-dasharray: 1.0,2.0;" x1="7" x2="106" y1="463.7422" y2="463.7422"/><rect fill="none" height="6" style="stroke: #C82930; stroke-width: 1.0;" width="6" x="14" y="472.6445"/><path d="M32.0417,470.4635 C30.7767,470.4635 29.75,471.4902 29.75,472.7552 C29.75,472.9019 29.7803,473.0275 29.8078,473.1567 L27,475.9645 L27,477.7978 L29.75,477.7978 L29.75,475.9645 L31.5833,475.9645 L31.5833,475.0478 L31.6411,474.99 C31.7694,475.0175 31.895,475.0478 32.0426,475.0478 C33.3076,475.0478 34.3343,474.0211 34.3343,472.7561 C34.3343,471.4911 33.3076,470.4645 32.0426,470.4645 M32.5009,471.3811 C33.0051,471.3811 33.4176,471.7936 33.4176,472.2978 C33.4176,472.802 33.0051,473.2145 32.5009,473.2145 C31.9968,473.2145 31.5843,472.802 31.5843,472.2978 C31.5843,471.7936 31.9968,471.3811 32.5009,471.3811 " fill="#000000" style="stroke: ; stroke-width: 0.0; stroke-dasharray: ;"/><text fill="#000000" font-family="sans-serif" font-size="11" lengthAdjust="spacingAndGlyphs" textLength="29" x="39.3333" y="477.9526">id: ID</text><!--link NameRecord to Named--><path d="M285.5,357.253 C285.5,376.434 285.5,395.6997 285.5,411.186 " fill="none" id="NameRecord-Named" style="stroke: #A80036; stroke-width: 1.0;"/><polygon fill="#FFFFFF" points="285.5,344.034,281.5,350.034,285.5,356.034,289.5,350.034,285.5,344.034" style="stroke: #A80036; stroke-width: 1.0;"/><text fill="#000000" font-family="sans-serif" font-size="13" lengthAdjust="spacingAndGlyphs" textLength="8" x="276.7375" y="400.4146">1</text><!--link NameRecord to NameRecord--><path d="M455.224,257.456 C468.679,260.642 477,265.49 477,272 C477,280.417 463.091,286.056 442.158,288.916 " fill="none" id="NameRecord-NameRecord" style="stroke: #A80036; stroke-width: 1.0;"/><polygon fill="#FFFFFF" points="442.158,255.084,447.3473,260.0911,453.9651,257.2268,448.7758,252.2197,442.158,255.084" style="stroke: #A80036; stroke-width: 1.0;"/><text fill="#000000" font-family="sans-serif" font-size="13" lengthAdjust="spacingAndGlyphs" textLength="24" x="450.3193" y="286.4526">0..1</text><!--link T to Named--><path d="M107.039,445 C138.82,445 180.281,445 215.241,445 " fill="none" id="T-Named" style="stroke: #A80036; stroke-width: 1.0; stroke-dasharray: 7.0,7.0;"/><polygon fill="none" points="215.485,437.9999,235.485,445,215.485,451.9999,215.485,437.9999" style="stroke: #A80036; stroke-width: 1.0;"/><text fill="#000000" font-family="sans-serif" font-size="13" lengthAdjust="spacingAndGlyphs" textLength="92" x="125.25" y="438.0669">«implements»</text><!--link Project to NameRecord--><path d="M285.5,152.136 C285.5,167.892 285.5,184.388 285.5,199.904 " fill="none" id="Project-NameRecord" style="stroke: #A80036; stroke-width: 1.0;"/><polygon fill="#FFFFFF" points="285.5,139.114,281.5,145.114,285.5,151.114,289.5,145.114,285.5,139.114" style="stroke: #A80036; stroke-width: 1.0;"/><text fill="#000000" font-family="sans-serif" font-size="13" lengthAdjust="spacingAndGlyphs" textLength="8" x="277.0703" y="188.7916">n</text><!--
@startuml

skinparam defaultMonospacedFontName Andale Mono



    class Project << (R,orchid) Resource >> {
      + directory: String
      + {method} resolve (\n\ttype: String,\n\tname: String\n): Array<NameRecord>
      ..
      - {field} <&key> id: ID //= hash(// ""directory"" //)//
    }

    class NameRecord< T: Resource > << (R,orchid) Resource >> {
      + type: String
      + name: String
      + {method} resource: T
      + {method} previous: Maybe<NameRecord<T>>
      ..
      - {field} <&key> id: ID //= hash(// ""type""//,// ""name""//,// ""resource"" //,// ""previous"" //)//
      - resourceId: ID
      - previousId: ID
    }

    class Named << (I,blueviolet) Interface >> {
      + name: String
    }

    NameRecord o- - "1" Named
    NameRecord o- - "0..1" NameRecord

      class T << (R,motivation) Resource >> {
        + name: String
        ..
        - <&key> id: ID
      }

      T .right.|> Named : << implements >>



























  Project o- - "n" NameRecord



























@enduml

PlantUML version 1.2018.14(Fri Dec 21 16:33:16 UTC 2018)
(GPL source distribution)
Java Runtime: OpenJDK Runtime Environment
JVM: OpenJDK 64-Bit Server VM
Java Version: 11.0.2+9
Operating System: Linux
OS Version: 4.15.0-1077-gcp
Default Encoding: UTF-8
Language: en
Country: US
--></g></svg>