<?xml version="1.0" encoding="UTF-8" standalone="no"?><svg xmlns="http://www.w3.org/2000/svg" xmlns:xlink="http://www.w3.org/1999/xlink" contentScriptType="application/ecmascript" contentStyleType="text/css" height="388px" preserveAspectRatio="none" style="width:462px;height:388px;" version="1.1" viewBox="0 0 462 388" width="462px" zoomAndPan="magnify"><defs><filter height="300%" id="f1l9wopvsiamgq" width="300%" x="-1" y="-1"><feGaussianBlur result="blurOut" stdDeviation="2.0"/><feColorMatrix in="blurOut" result="blurOut2" type="matrix" values="0 0 0 0 0 0 0 0 0 0 0 0 0 0 0 0 0 0 .4 0"/><feOffset dx="4.0" dy="4.0" in="blurOut2" result="blurOut3"/><feBlend in="SourceGraphic" in2="blurOut3" mode="normal"/></filter></defs><g><!--class Name--><rect fill="#FEFECE" filter="url(#f1l9wopvsiamgq)" height="215.5938" id="Name" style="stroke: #A80036; stroke-width: 1.5;" width="195" x="6" y="8"/><ellipse cx="24.6" cy="26.9688" fill="#DA70D6" rx="11" ry="11" style="stroke: #A80036; stroke-width: 1.0;"/><path d="M25.8031,27.1094 Q26.1625,27.1875 26.4281,27.4688 Q26.7094,27.7344 27.1,28.5156 L29.3344,32.9688 L26.6469,32.9688 L25.1469,29.8438 Q25.0844,29.7031 24.975,29.4688 Q24.3188,28.0781 23.4281,28.0781 L22.6469,28.0781 L22.6469,32.9688 L20.2094,32.9688 L20.2094,20.5781 L23.7406,20.5781 Q26.1313,20.5781 27.1625,21.4219 Q28.2094,22.2656 28.2094,24.1719 Q28.2094,25.4531 27.5844,26.2188 Q26.975,26.9688 25.8031,27.1094 Z M22.6469,22.6406 L22.6469,26.0156 L23.8031,26.0156 Q24.8188,26.0156 25.2406,25.625 Q25.6781,25.2188 25.6781,24.3125 Q25.6781,23.4219 25.2406,23.0313 Q24.8188,22.6406 23.8031,22.6406 L22.6469,22.6406 Z "/><text fill="#000000" font-family="sans-serif" font-size="12" font-style="italic" lengthAdjust="spacingAndGlyphs" textLength="73" x="37.4" y="24.1387">«Resource»</text><text fill="#000000" font-family="sans-serif" font-size="12" lengthAdjust="spacingAndGlyphs" textLength="36" x="55.9" y="38.1074">Name</text><rect fill="#FFFFFF" height="15.9688" style="stroke: #000000; stroke-width: 1.0; stroke-dasharray: 2.0,2.0;" width="84" x="120" y="5"/><text fill="#000000" font-family="sans-serif" font-size="12" font-style="italic" lengthAdjust="spacingAndGlyphs" textLength="74" x="125" y="17.1387">T: Resource</text><line style="stroke: #A80036; stroke-width: 1.5;" x1="7" x2="200" y1="45.9375" y2="45.9375"/><ellipse cx="17" cy="89.8516" fill="#84BE84" rx="3" ry="3" style="stroke: #038048; stroke-width: 1.0;"/><text fill="#000000" font-family="sans-serif" font-size="11" lengthAdjust="spacingAndGlyphs" text-decoration="underline" textLength="41" x="26" y="60.1479">current</text><line style="stroke: #000000; stroke-width: 1.0;" x1="26" x2="67" y1="62.1479" y2="62.1479"/><text fill="#000000" font-family="sans-serif" font-size="11" lengthAdjust="spacingAndGlyphs" textLength="4" x="71" y="60.1479">(</text><text fill="#000000" font-family="sans-serif" font-size="11" lengthAdjust="spacingAndGlyphs" textLength="70" x="58" y="72.9526">type: String,</text><text fill="#000000" font-family="sans-serif" font-size="11" lengthAdjust="spacingAndGlyphs" textLength="78" x="58" y="85.7573">name: String,</text><text fill="#000000" font-family="sans-serif" font-size="11" lengthAdjust="spacingAndGlyphs" textLength="120" x="58" y="98.562">role: Maybe&lt;Object&gt;</text><text fill="#000000" font-family="sans-serif" font-size="11" lengthAdjust="spacingAndGlyphs" textLength="8" x="26" y="111.3667">):</text><text fill="#000000" font-family="sans-serif" font-size="11" lengthAdjust="spacingAndGlyphs" textLength="112" x="58" y="124.1714">Maybe&lt;Name&lt;T&gt;&gt;</text><line style="stroke: #A80036; stroke-width: 1.0;" x1="7" x2="200" y1="130.7656" y2="130.7656"/><ellipse cx="17" cy="142.668" fill="none" rx="3" ry="3" style="stroke: #038048; stroke-width: 1.0;"/><text fill="#000000" font-family="sans-serif" font-size="11" lengthAdjust="spacingAndGlyphs" textLength="66" x="26" y="144.9761">type: String</text><ellipse cx="17" cy="155.4727" fill="none" rx="3" ry="3" style="stroke: #038048; stroke-width: 1.0;"/><text fill="#000000" font-family="sans-serif" font-size="11" lengthAdjust="spacingAndGlyphs" textLength="74" x="26" y="157.7808">name: String</text><ellipse cx="17" cy="168.2773" fill="none" rx="3" ry="3" style="stroke: #038048; stroke-width: 1.0;"/><text fill="#000000" font-family="sans-serif" font-size="11" lengthAdjust="spacingAndGlyphs" textLength="120" x="26" y="170.5854">role: Maybe&lt;Object&gt;</text><ellipse cx="17" cy="181.082" fill="#84BE84" rx="3" ry="3" style="stroke: #038048; stroke-width: 1.0;"/><text fill="#000000" font-family="sans-serif" font-size="11" lengthAdjust="spacingAndGlyphs" textLength="31" x="26" y="183.3901">ref: T</text><ellipse cx="17" cy="193.8867" fill="none" rx="3" ry="3" style="stroke: #038048; stroke-width: 1.0;"/><text fill="#000000" font-family="sans-serif" font-size="11" lengthAdjust="spacingAndGlyphs" textLength="169" x="26" y="196.1948">previous: Maybe&lt;Name&lt;T&gt;&gt;</text><line style="stroke: #A80036; stroke-width: 1.0; stroke-dasharray: 1.0,2.0;" x1="7" x2="200" y1="202.7891" y2="202.7891"/><rect fill="none" height="6" style="stroke: #C82930; stroke-width: 1.0;" width="6" x="14" y="211.6914"/><text fill="#000000" font-family="sans-serif" font-size="11" lengthAdjust="spacingAndGlyphs" textLength="45" x="26" y="216.9995">refId: ID</text><!--class Named--><rect fill="#FEFECE" filter="url(#f1l9wopvsiamgq)" height="79.5469" id="Named" style="stroke: #A80036; stroke-width: 1.5;" width="146" x="305.5" y="291"/><ellipse cx="342.1" cy="309.9688" fill="#8A2BE2" rx="11" ry="11" style="stroke: #A80036; stroke-width: 1.0;"/><path d="M338.0219,305.7344 L338.0219,303.5781 L345.4125,303.5781 L345.4125,305.7344 L342.9438,305.7344 L342.9438,313.8125 L345.4125,313.8125 L345.4125,315.9688 L338.0219,315.9688 L338.0219,313.8125 L340.4906,313.8125 L340.4906,305.7344 L338.0219,305.7344 Z "/><text fill="#000000" font-family="sans-serif" font-size="12" font-style="italic" lengthAdjust="spacingAndGlyphs" textLength="70" x="358.9" y="307.1387">«Interface»</text><text fill="#000000" font-family="sans-serif" font-size="12" lengthAdjust="spacingAndGlyphs" textLength="44" x="371.9" y="321.1074">Named</text><line style="stroke: #A80036; stroke-width: 1.5;" x1="306.5" x2="450.5" y1="328.9375" y2="328.9375"/><ellipse cx="316.5" cy="340.8398" fill="none" rx="3" ry="3" style="stroke: #038048; stroke-width: 1.0;"/><text fill="#000000" font-family="sans-serif" font-size="11" lengthAdjust="spacingAndGlyphs" textLength="74" x="325.5" y="343.1479">name: String</text><ellipse cx="316.5" cy="353.6445" fill="none" rx="3" ry="3" style="stroke: #038048; stroke-width: 1.0;"/><text fill="#000000" font-family="sans-serif" font-size="11" lengthAdjust="spacingAndGlyphs" textLength="120" x="325.5" y="355.9526">role: Maybe&lt;Object&gt;</text><line style="stroke: #A80036; stroke-width: 1.5;" x1="306.5" x2="450.5" y1="362.5469" y2="362.5469"/><!--class T--><rect fill="#FEFECE" filter="url(#f1l9wopvsiamgq)" height="92.3516" id="T" style="stroke: #A80036; stroke-width: 1.5;" width="146" x="30.5" y="285"/><ellipse cx="65.75" cy="303.9688" fill="#B19CD9" rx="11" ry="11" style="stroke: #A80036; stroke-width: 1.0;"/><path d="M66.9531,304.1094 Q67.3125,304.1875 67.5781,304.4688 Q67.8594,304.7344 68.25,305.5156 L70.4844,309.9688 L67.7969,309.9688 L66.2969,306.8438 Q66.2344,306.7031 66.125,306.4688 Q65.4688,305.0781 64.5781,305.0781 L63.7969,305.0781 L63.7969,309.9688 L61.3594,309.9688 L61.3594,297.5781 L64.8906,297.5781 Q67.2813,297.5781 68.3125,298.4219 Q69.3594,299.2656 69.3594,301.1719 Q69.3594,302.4531 68.7344,303.2188 Q68.125,303.9688 66.9531,304.1094 Z M63.7969,299.6406 L63.7969,303.0156 L64.9531,303.0156 Q65.9688,303.0156 66.3906,302.625 Q66.8281,302.2188 66.8281,301.3125 Q66.8281,300.4219 66.3906,300.0313 Q65.9688,299.6406 64.9531,299.6406 L63.7969,299.6406 Z "/><text fill="#000000" font-family="sans-serif" font-size="12" font-style="italic" lengthAdjust="spacingAndGlyphs" textLength="73" x="82.25" y="301.1387">«Resource»</text><text fill="#000000" font-family="sans-serif" font-size="12" lengthAdjust="spacingAndGlyphs" textLength="7" x="115.25" y="315.1074">T</text><line style="stroke: #A80036; stroke-width: 1.5;" x1="31.5" x2="175.5" y1="322.9375" y2="322.9375"/><ellipse cx="41.5" cy="334.8398" fill="none" rx="3" ry="3" style="stroke: #038048; stroke-width: 1.0;"/><text fill="#000000" font-family="sans-serif" font-size="11" lengthAdjust="spacingAndGlyphs" textLength="74" x="50.5" y="337.1479">name: String</text><ellipse cx="41.5" cy="347.6445" fill="none" rx="3" ry="3" style="stroke: #038048; stroke-width: 1.0;"/><text fill="#000000" font-family="sans-serif" font-size="11" lengthAdjust="spacingAndGlyphs" textLength="120" x="50.5" y="349.9526">role: Maybe&lt;Object&gt;</text><line style="stroke: #A80036; stroke-width: 1.0; stroke-dasharray: 1.0,2.0;" x1="31.5" x2="175.5" y1="356.5469" y2="356.5469"/><rect fill="none" height="6" style="stroke: #C82930; stroke-width: 1.0;" width="6" x="38.5" y="365.4492"/><path d="M56.5417,363.2682 C55.2767,363.2682 54.25,364.2949 54.25,365.5599 C54.25,365.7066 54.2803,365.8321 54.3078,365.9614 L51.5,368.7691 L51.5,370.6025 L54.25,370.6025 L54.25,368.7691 L56.0833,368.7691 L56.0833,367.8525 L56.1411,367.7947 C56.2694,367.8222 56.395,367.8525 56.5426,367.8525 C57.8076,367.8525 58.8343,366.8258 58.8343,365.5608 C58.8343,364.2958 57.8076,363.2691 56.5426,363.2691 M57.0009,364.1858 C57.5051,364.1858 57.9176,364.5983 57.9176,365.1025 C57.9176,365.6066 57.5051,366.0191 57.0009,366.0191 C56.4968,366.0191 56.0843,365.6066 56.0843,365.1025 C56.0843,364.5983 56.4968,364.1858 57.0009,364.1858 " fill="#000000" style="stroke: ; stroke-width: 0.0; stroke-dasharray: ;"/><text fill="#000000" font-family="sans-serif" font-size="11" lengthAdjust="spacingAndGlyphs" textLength="29" x="63.8333" y="370.7573">id: ID</text><!--link Name to T--><path d="M103.5,237.158 C103.5,254.122 103.5,270.615 103.5,284.878 " fill="none" id="Name-T" style="stroke: #A80036; stroke-width: 1.0;"/><polygon fill="#FFFFFF" points="103.5,224.124,99.5,230.124,103.5,236.124,107.5,230.124,103.5,224.124" style="stroke: #A80036; stroke-width: 1.0;"/><text fill="#000000" font-family="sans-serif" font-size="13" lengthAdjust="spacingAndGlyphs" textLength="8" x="94.9125" y="274.0531">1</text><!--link Name to Name--><path d="M213.948,93.698 C227.279,97.726 236,105.16 236,116 C236,130.016 221.422,138.337 201.148,140.965 " fill="none" id="Name-Name" style="stroke: #A80036; stroke-width: 1.0;"/><polygon fill="#FFFFFF" points="201.148,91.035,206.2072,96.1735,212.8963,93.4799,207.8371,88.3413,201.148,91.035" style="stroke: #A80036; stroke-width: 1.0;"/><text fill="#000000" font-family="sans-serif" font-size="13" lengthAdjust="spacingAndGlyphs" textLength="24" x="208.8576" y="139.2789">0..1</text><!--link T to Named--><path d="M176.834,331 C210.085,331 249.791,331 285.142,331 " fill="none" id="T-Named" style="stroke: #A80036; stroke-width: 1.0; stroke-dasharray: 7.0,7.0;"/><polygon fill="none" points="285.371,323.9999,305.371,331,285.371,337.9999,285.371,323.9999" style="stroke: #A80036; stroke-width: 1.0;"/><text fill="#000000" font-family="sans-serif" font-size="13" lengthAdjust="spacingAndGlyphs" textLength="92" x="195" y="324.0669">«implements»</text><!--
@startuml
skinparam defaultMonospacedFontName Andale Mono





















































class Name< T: Resource > << (R,orchid) Resource >> {
  + <u>current</u> (\n\ttype: String,\n\tname: String,\n\trole: Maybe<Object>\n):\n\tMaybe<Name<T>>
  - -
  + type: String
  + name: String
  + role: Maybe<Object>
  + {method} ref: T
  + previous: Maybe<Name<T>>
  ..
  - refId: ID
}

class Named << (I,blueviolet) Interface >> {
  + name: String
  + role: Maybe<Object>
}

class T << (R,motivation) Resource >> {
  + name: String
  + role: Maybe<Object>
  ..
  - <&key> id: ID
}

Name o- - "1" T
Name o- - "0..1" Name

T .right.|> Named : << implements >>

@enduml

PlantUML version 1.2018.14(Fri Dec 21 16:33:16 UTC 2018)
(GPL source distribution)
Java Runtime: OpenJDK Runtime Environment
JVM: OpenJDK 64-Bit Server VM
Java Version: 11.0.2+9
Operating System: Linux
OS Version: 4.15.0-1028-gcp
Default Encoding: UTF-8
Language: en
Country: US
--></g></svg>