<?xml version="1.0" encoding="UTF-8" standalone="no"?><svg xmlns="http://www.w3.org/2000/svg" xmlns:xlink="http://www.w3.org/1999/xlink" contentScriptType="application/ecmascript" contentStyleType="text/css" height="111.75px" preserveAspectRatio="none" style="width:357px;height:111px;" version="1.1" viewBox="0 0 357 111" width="357.75px" zoomAndPan="magnify"><defs><filter height="300%" id="f1hx0nfyyrt3ai" width="300%" x="-1" y="-1"><feGaussianBlur result="blurOut" stdDeviation="1.5"/><feColorMatrix in="blurOut" result="blurOut2" type="matrix" values="0 0 0 0 0 0 0 0 0 0 0 0 0 0 0 0 0 0 .4 0"/><feOffset dx="3.0" dy="3.0" in="blurOut2" result="blurOut3"/><feBlend in="SourceGraphic" in2="blurOut3" mode="normal"/></filter></defs><g><!--class Network--><rect fill="#FEFECE" filter="url(#f1hx0nfyyrt3ai)" height="98.0742" id="Network" style="stroke: #A80036; stroke-width: 1.125;" width="149" x="124.5" y="6"/><ellipse cx="169.9375" cy="20.2266" fill="#DA70D6" rx="8.25" ry="8.25" style="stroke: #A80036; stroke-width: 0.75;"/><path d="M170.8398,20.332 Q171.1094,20.3906 171.3086,20.6016 Q171.5195,20.8008 171.8125,21.3867 L173.4883,24.7266 L171.4727,24.7266 L170.3477,22.3828 Q170.3008,22.2773 170.2188,22.1016 Q169.7266,21.0586 169.0586,21.0586 L168.4727,21.0586 L168.4727,24.7266 L166.6445,24.7266 L166.6445,15.4336 L169.293,15.4336 Q171.0859,15.4336 171.8594,16.0664 Q172.6445,16.6992 172.6445,18.1289 Q172.6445,19.0898 172.1758,19.6641 Q171.7188,20.2266 170.8398,20.332 Z M168.4727,16.9805 L168.4727,19.5117 L169.3398,19.5117 Q170.1016,19.5117 170.418,19.2188 Q170.7461,18.9141 170.7461,18.2344 Q170.7461,17.5664 170.418,17.2734 Q170.1016,16.9805 169.3398,16.9805 L168.4727,16.9805 Z "/><text fill="#000000" font-family="sans-serif" font-size="9" font-style="italic" lengthAdjust="spacingAndGlyphs" textLength="54.75" x="183.8125" y="18.104">«Resource»</text><text fill="#000000" font-family="sans-serif" font-size="9" lengthAdjust="spacingAndGlyphs" textLength="38.25" x="192.0625" y="28.5806">Network</text><line style="stroke: #A80036; stroke-width: 1.125;" x1="125.25" x2="272.75" y1="34.4531" y2="34.4531"/><ellipse cx="132.75" cy="43.3799" fill="none" rx="2.25" ry="2.25" style="stroke: #038048; stroke-width: 0.75;"/><text fill="#000000" font-family="sans-serif" font-size="8.25" lengthAdjust="spacingAndGlyphs" textLength="58.5" x="139.5" y="45.111">name : String</text><ellipse cx="132.75" cy="52.9834" fill="none" rx="2.25" ry="2.25" style="stroke: #038048; stroke-width: 0.75;"/><text fill="#000000" font-family="sans-serif" font-size="8.25" lengthAdjust="spacingAndGlyphs" textLength="93" x="139.5" y="54.7145">networkId : NetworkID</text><ellipse cx="132.75" cy="62.5869" fill="none" rx="2.25" ry="2.25" style="stroke: #038048; stroke-width: 0.75;"/><text fill="#000000" font-family="sans-serif" font-size="8.25" lengthAdjust="spacingAndGlyphs" textLength="82.5" x="139.5" y="64.318">historicBlock: Block</text><ellipse cx="132.75" cy="72.1904" fill="#84BE84" rx="2.25" ry="2.25" style="stroke: #038048; stroke-width: 0.75;"/><text fill="#000000" font-family="sans-serif" font-size="8.25" lengthAdjust="spacingAndGlyphs" textLength="97.5" x="139.5" y="73.9215">fork: Maybe&lt;Network&gt;</text><line style="stroke: #A80036; stroke-width: 0.75; stroke-dasharray: 1.0,2.0;" x1="125.25" x2="272.75" y1="78.8672" y2="78.8672"/><rect fill="none" height="4.5" style="stroke: #C82930; stroke-width: 0.75;" width="4.5" x="130.5" y="85.5439"/><path d="M144.0313,83.9082 C143.0825,83.9082 142.3125,84.6782 142.3125,85.627 C142.3125,85.737 142.3352,85.8311 142.3558,85.9281 L140.25,88.0339 L140.25,89.4089 L142.3125,89.4089 L142.3125,88.0339 L143.6875,88.0339 L143.6875,87.3464 L143.7308,87.3031 C143.8271,87.3237 143.9213,87.3464 144.0319,87.3464 C144.9807,87.3464 145.7507,86.5764 145.7507,85.6276 C145.7507,84.6789 144.9807,83.9089 144.0319,83.9089 M144.3757,84.5964 C144.7538,84.5964 145.0632,84.9058 145.0632,85.2839 C145.0632,85.662 144.7538,85.9714 144.3757,85.9714 C143.9976,85.9714 143.6882,85.662 143.6882,85.2839 C143.6882,84.9058 143.9976,84.5964 144.3757,84.5964 " fill="#000000" style="stroke: ; stroke-width: 0.0; stroke-dasharray: ;"/><text fill="#000000" font-family="sans-serif" font-size="8.25" lengthAdjust="spacingAndGlyphs" textLength="37.5" x="149.5" y="89.525">id: ID = [</text><text fill="#000000" font-family="sans-serif" font-size="8.25" font-style="italic" lengthAdjust="spacingAndGlyphs" textLength="69" x="187" y="89.525">to be completed</text><path d="M261.8771,83.9082 C261.8359,83.9082 261.8049,83.9385 261.7912,83.9728 L259.7713,88.6568 L259.75,88.786 L259.75,89.345 C259.75,89.3862 259.7734,89.4096 259.8146,89.4096 L264.4986,89.4096 C264.5398,89.4096 264.5632,89.3862 264.5632,89.345 L264.5632,88.786 L264.5419,88.6568 L262.522,83.9728 C262.5083,83.9385 262.4773,83.9082 262.4361,83.9082 L261.8771,83.9082 M261.8125,85.9707 L262.5,85.9707 L262.5,87.3457 L261.8125,87.3457 L261.8125,85.9707 M261.8125,88.0332 L262.5,88.0332 L262.5,88.7207 L261.8125,88.7207 L261.8125,88.0332 " fill="#000000" style="stroke: ; stroke-width: 0.0; stroke-dasharray: ;"/><text fill="#000000" font-family="sans-serif" font-size="8.25" lengthAdjust="spacingAndGlyphs" textLength="3" x="266" y="89.525">]</text><rect fill="none" height="4.5" style="stroke: #C82930; stroke-width: 0.75;" width="4.5" x="130.5" y="95.1475"/><text fill="#000000" font-family="sans-serif" font-size="8.25" lengthAdjust="spacingAndGlyphs" textLength="78.75" x="139.5" y="99.1285">forkId: Maybe&lt;ID&gt;</text><!--class Block--><rect fill="#FEFECE" filter="url(#f1hx0nfyyrt3ai)" height="59.6602" id="Block" style="stroke: #A80036; stroke-width: 1.125;" width="93.75" x="4.5" y="25.125"/><ellipse cx="18.7875" cy="39.3516" fill="#7CFC00" rx="8.25" ry="8.25" style="stroke: #A80036; stroke-width: 0.75;"/><path d="M18.8695,36.0352 Q18.1664,36.0352 17.8383,36.7852 Q17.5219,37.5352 17.5219,39.2109 Q17.5219,40.8867 17.8383,41.6367 Q18.1664,42.3867 18.8695,42.3867 Q19.5844,42.3867 19.9008,41.6367 Q20.2289,40.8867 20.2289,39.2109 Q20.2289,37.5352 19.9008,36.7852 Q19.5844,36.0352 18.8695,36.0352 Z M15.6117,39.2109 Q15.6117,36.832 16.432,35.6133 Q17.2641,34.3828 18.8695,34.3828 Q20.4867,34.3828 21.307,35.6133 Q22.1391,36.832 22.1391,39.2109 Q22.1391,41.5898 21.307,42.8086 Q20.4867,44.0273 18.8695,44.0273 Q17.2641,44.0273 16.432,42.8086 Q15.6117,41.5898 15.6117,39.2109 Z "/><text fill="#000000" font-family="sans-serif" font-size="9" font-style="italic" lengthAdjust="spacingAndGlyphs" textLength="66" x="28.4625" y="37.229">«Data Object»</text><text fill="#000000" font-family="sans-serif" font-size="9" lengthAdjust="spacingAndGlyphs" textLength="24.75" x="49.0875" y="47.7056">Block</text><line style="stroke: #A80036; stroke-width: 1.125;" x1="5.25" x2="97.5" y1="53.5781" y2="53.5781"/><ellipse cx="12.75" cy="62.5049" fill="none" rx="2.25" ry="2.25" style="stroke: #038048; stroke-width: 0.75;"/><text fill="#000000" font-family="sans-serif" font-size="8.25" lengthAdjust="spacingAndGlyphs" textLength="65.25" x="19.5" y="64.236">height : Integer</text><ellipse cx="12.75" cy="72.1084" fill="none" rx="2.25" ry="2.25" style="stroke: #038048; stroke-width: 0.75;"/><text fill="#000000" font-family="sans-serif" font-size="8.25" lengthAdjust="spacingAndGlyphs" textLength="74.25" x="19.5" y="73.8395">hash : BlockHash</text><line style="stroke: #A80036; stroke-width: 1.125;" x1="5.25" x2="97.5" y1="78.7852" y2="78.7852"/><!--link Network to Network--><path d="M283.503,39.4507 C293.4878,42.315 300,47.5398 300,55.125 C300,64.9322 289.1138,70.7934 273.9105,72.7089 " fill="none" id="Network-Network" style="stroke: #A80036; stroke-width: 0.75;"/><polygon fill="#FFFFFF" points="273.9105,37.5411,277.7381,41.3621,282.7372,39.2986,278.9097,35.4776,273.9105,37.5411" style="stroke: #A80036; stroke-width: 0.75;"/><text fill="#000000" font-family="sans-serif" font-size="9.75" lengthAdjust="spacingAndGlyphs" textLength="44.25" x="304.5" y="58.5502">«refines»</text><text fill="#000000" font-family="sans-serif" font-size="9.75" lengthAdjust="spacingAndGlyphs" textLength="18" x="279.5482" y="71.3218">0..1</text><!--link Block to Network--><path d="M98.4127,55.125 C103.7543,55.125 109.0958,55.125 114.438,55.125 " fill="none" id="Block-Network" style="stroke: #A80036; stroke-width: 0.75;"/><polygon fill="#A80036" points="124.3777,55.125,119.8777,52.125,115.3777,55.125,119.8777,58.125,124.3777,55.125" style="stroke: #A80036; stroke-width: 0.75;"/><text fill="#000000" font-family="sans-serif" font-size="9.75" lengthAdjust="spacingAndGlyphs" textLength="6" x="104.1984" y="52.3002">1</text><!--
@startuml
scale 0.75


skinparam defaultMonospacedFontName Andale Mono













    class Network << (R,orchid) Resource >> {
      + name : String
      + networkId : NetworkID
      + historicBlock: Block
      + {method} fork: Maybe<Network>
      ..
      - {field} <&key> id: ID = [//to be completed <&warning>//]
      - forkId: Maybe<ID>
    }


      class Block << (O,lawngreen) Data Object >> {
        + height : Integer
        + hash : BlockHash
      }

      Network o- - "0..1" Network : <<refines>>
      Network *-left- "1" Block








































@enduml

PlantUML version 1.2018.14(Fri Dec 21 16:33:16 UTC 2018)
(GPL source distribution)
Java Runtime: OpenJDK Runtime Environment
JVM: OpenJDK 64-Bit Server VM
Java Version: 11.0.2+9
Operating System: Linux
OS Version: 4.15.0-1028-gcp
Default Encoding: UTF-8
Language: en
Country: US
--></g></svg>