<?xml version="1.0" encoding="UTF-8" standalone="no"?><svg xmlns="http://www.w3.org/2000/svg" xmlns:xlink="http://www.w3.org/1999/xlink" contentScriptType="application/ecmascript" contentStyleType="text/css" height="289px" preserveAspectRatio="none" style="width:431px;height:289px;" version="1.1" viewBox="0 0 431 289" width="431px" zoomAndPan="magnify"><defs><filter height="300%" id="fjo4a1j659410" width="300%" x="-1" y="-1"><feGaussianBlur result="blurOut" stdDeviation="2.0"/><feColorMatrix in="blurOut" result="blurOut2" type="matrix" values="0 0 0 0 0 0 0 0 0 0 0 0 0 0 0 0 0 0 .4 0"/><feOffset dx="4.0" dy="4.0" in="blurOut2" result="blurOut3"/><feBlend in="SourceGraphic" in2="blurOut3" mode="normal"/></filter></defs><g><!--class ContractConstructor--><rect fill="#FEFECE" filter="url(#fjo4a1j659410)" height="117.9609" id="ContractConstructor" style="stroke: #A80036; stroke-width: 1.5;" width="186" x="6.5" y="8"/><ellipse cx="33.2" cy="26.9688" fill="#DA70D6" rx="11" ry="11" style="stroke: #A80036; stroke-width: 1.0;"/><path d="M34.4031,27.1094 Q34.7625,27.1875 35.0359,27.4609 Q35.3094,27.7344 35.7,28.5156 L37.9344,32.9688 L35.2469,32.9688 L33.7469,29.8438 Q33.6844,29.7031 33.575,29.4688 Q32.9188,28.0781 32.0281,28.0781 L31.2469,28.0781 L31.2469,32.9688 L28.8094,32.9688 L28.8094,20.5781 L32.3406,20.5781 Q34.7313,20.5781 35.7703,21.4219 Q36.8094,22.2656 36.8094,24.1719 Q36.8094,25.4531 36.1922,26.2109 Q35.575,26.9688 34.4031,27.1094 Z M31.2469,22.6406 L31.2469,26.0156 L32.4031,26.0156 Q33.4188,26.0156 33.8484,25.6172 Q34.2781,25.2188 34.2781,24.3125 Q34.2781,23.4219 33.8484,23.0313 Q33.4188,22.6406 32.4031,22.6406 L31.2469,22.6406 Z "/><text fill="#000000" font-family="sans-serif" font-size="12" font-style="italic" lengthAdjust="spacingAndGlyphs" textLength="72" x="77.8" y="24.1387">«Resource»</text><text fill="#000000" font-family="sans-serif" font-size="12" lengthAdjust="spacingAndGlyphs" textLength="128" x="49.8" y="38.1074">ContractConstructor</text><line style="stroke: #A80036; stroke-width: 1.5;" x1="7.5" x2="191.5" y1="45.9375" y2="45.9375"/><ellipse cx="17.5" cy="57.8398" fill="none" rx="3" ry="3" style="stroke: #038048; stroke-width: 1.0;"/><text fill="#000000" font-family="sans-serif" font-size="11" lengthAdjust="spacingAndGlyphs" textLength="78" x="26.5" y="60.1479">name : String</text><ellipse cx="17.5" cy="70.6445" fill="none" rx="3" ry="3" style="stroke: #038048; stroke-width: 1.0;"/><text fill="#000000" font-family="sans-serif" font-size="11" lengthAdjust="spacingAndGlyphs" textLength="144" x="26.5" y="72.9526">compilation : Compilation</text><ellipse cx="17.5" cy="83.4492" fill="none" rx="3" ry="3" style="stroke: #038048; stroke-width: 1.0;"/><text fill="#000000" font-family="sans-serif" font-size="11" lengthAdjust="spacingAndGlyphs" textLength="152" x="26.5" y="85.7573">createBytecode : Bytecode</text><ellipse cx="17.5" cy="96.2539" fill="none" rx="3" ry="3" style="stroke: #038048; stroke-width: 1.0;"/><text fill="#000000" font-family="sans-serif" font-size="11" lengthAdjust="spacingAndGlyphs" textLength="160" x="26.5" y="98.562">contractType : ContractType</text><ellipse cx="17.5" cy="109.0586" fill="none" rx="3" ry="3" style="stroke: #038048; stroke-width: 1.0;"/><text fill="#000000" font-family="sans-serif" font-size="11" lengthAdjust="spacingAndGlyphs" textLength="159" x="26.5" y="111.3667">linkValues : Set&lt;LinkValue&gt;</text><line style="stroke: #A80036; stroke-width: 1.5;" x1="7.5" x2="191.5" y1="117.9609" y2="117.9609"/><!--class LinkValue--><rect fill="#FEFECE" filter="url(#fjo4a1j659410)" height="79.5469" id="LinkValue" style="stroke: #A80036; stroke-width: 1.5;" width="193" x="227.75" y="27"/><ellipse cx="278.5" cy="45.9688" fill="#7CFC00" rx="11" ry="11" style="stroke: #A80036; stroke-width: 1.0;"/><path d="M278.6094,41.5469 Q277.6719,41.5469 277.2422,42.5469 Q276.8125,43.5469 276.8125,45.7813 Q276.8125,48.0156 277.2422,49.0156 Q277.6719,50.0156 278.6094,50.0156 Q279.5625,50.0156 279.9922,49.0156 Q280.4219,48.0156 280.4219,45.7813 Q280.4219,43.5469 279.9922,42.5469 Q279.5625,41.5469 278.6094,41.5469 Z M274.2656,45.7813 Q274.2656,42.6094 275.3672,40.9766 Q276.4688,39.3438 278.6094,39.3438 Q280.7656,39.3438 281.8672,40.9766 Q282.9688,42.6094 282.9688,45.7813 Q282.9688,48.9531 281.8672,50.5781 Q280.7656,52.2031 278.6094,52.2031 Q276.4688,52.2031 275.3672,50.5781 Q274.2656,48.9531 274.2656,45.7813 Z "/><text fill="#000000" font-family="sans-serif" font-size="12" font-style="italic" lengthAdjust="spacingAndGlyphs" textLength="87" x="297" y="43.1387">«Data Object»</text><text fill="#000000" font-family="sans-serif" font-size="12" lengthAdjust="spacingAndGlyphs" textLength="59" x="311" y="57.1074">LinkValue</text><line style="stroke: #A80036; stroke-width: 1.5;" x1="228.75" x2="419.75" y1="64.9375" y2="64.9375"/><ellipse cx="238.75" cy="76.8398" fill="none" rx="3" ry="3" style="stroke: #038048; stroke-width: 1.0;"/><text fill="#000000" font-family="sans-serif" font-size="11" lengthAdjust="spacingAndGlyphs" textLength="167" x="247.75" y="79.1479">linkReference : LinkReference</text><ellipse cx="238.75" cy="89.6445" fill="none" rx="3" ry="3" style="stroke: #038048; stroke-width: 1.0;"/><text fill="#000000" font-family="sans-serif" font-size="11" lengthAdjust="spacingAndGlyphs" textLength="74" x="247.75" y="91.9526">value : Bytes</text><line style="stroke: #A80036; stroke-width: 1.5;" x1="228.75" x2="419.75" y1="98.5469" y2="98.5469"/><!--class LinkReference--><rect fill="#FEFECE" filter="url(#fjo4a1j659410)" height="79.5469" id="LinkReference" style="stroke: #A80036; stroke-width: 1.5;" width="186" x="231.5" y="192"/><ellipse cx="276.25" cy="210.9688" fill="#7CFC00" rx="11" ry="11" style="stroke: #A80036; stroke-width: 1.0;"/><path d="M276.3594,206.5469 Q275.4219,206.5469 274.9922,207.5469 Q274.5625,208.5469 274.5625,210.7813 Q274.5625,213.0156 274.9922,214.0156 Q275.4219,215.0156 276.3594,215.0156 Q277.3125,215.0156 277.7422,214.0156 Q278.1719,213.0156 278.1719,210.7813 Q278.1719,208.5469 277.7422,207.5469 Q277.3125,206.5469 276.3594,206.5469 Z M272.0156,210.7813 Q272.0156,207.6094 273.1172,205.9766 Q274.2188,204.3438 276.3594,204.3438 Q278.5156,204.3438 279.6172,205.9766 Q280.7188,207.6094 280.7188,210.7813 Q280.7188,213.9531 279.6172,215.5781 Q278.5156,217.2031 276.3594,217.2031 Q274.2188,217.2031 273.1172,215.5781 Q272.0156,213.9531 272.0156,210.7813 Z "/><text fill="#000000" font-family="sans-serif" font-size="12" font-style="italic" lengthAdjust="spacingAndGlyphs" textLength="87" x="297.25" y="208.1387">«Data Object»</text><text fill="#000000" font-family="sans-serif" font-size="12" lengthAdjust="spacingAndGlyphs" textLength="88" x="296.75" y="222.1074">LinkReference</text><line style="stroke: #A80036; stroke-width: 1.5;" x1="232.5" x2="416.5" y1="229.9375" y2="229.9375"/><ellipse cx="242.5" cy="241.8398" fill="none" rx="3" ry="3" style="stroke: #038048; stroke-width: 1.0;"/><text fill="#000000" font-family="sans-serif" font-size="11" lengthAdjust="spacingAndGlyphs" textLength="160" x="251.5" y="244.1479">offsets : Array&lt;ByteOffset&gt;</text><ellipse cx="242.5" cy="254.6445" fill="none" rx="3" ry="3" style="stroke: #038048; stroke-width: 1.0;"/><text fill="#000000" font-family="sans-serif" font-size="11" lengthAdjust="spacingAndGlyphs" textLength="87" x="251.5" y="256.9526">length : Integer</text><line style="stroke: #A80036; stroke-width: 1.5;" x1="232.5" x2="416.5" y1="263.5469" y2="263.5469"/><!--class ContractType--><rect fill="#FEFECE" filter="url(#fjo4a1j659410)" height="92.3516" id="ContractType" style="stroke: #A80036; stroke-width: 1.5;" width="170" x="14" y="186"/><ellipse cx="53.75" cy="204.9688" fill="#7CFC00" rx="11" ry="11" style="stroke: #A80036; stroke-width: 1.0;"/><path d="M53.8594,200.5469 Q52.9219,200.5469 52.4922,201.5469 Q52.0625,202.5469 52.0625,204.7813 Q52.0625,207.0156 52.4922,208.0156 Q52.9219,209.0156 53.8594,209.0156 Q54.8125,209.0156 55.2422,208.0156 Q55.6719,207.0156 55.6719,204.7813 Q55.6719,202.5469 55.2422,201.5469 Q54.8125,200.5469 53.8594,200.5469 Z M49.5156,204.7813 Q49.5156,201.6094 50.6172,199.9766 Q51.7188,198.3438 53.8594,198.3438 Q56.0156,198.3438 57.1172,199.9766 Q58.2188,201.6094 58.2188,204.7813 Q58.2188,207.9531 57.1172,209.5781 Q56.0156,211.2031 53.8594,211.2031 Q51.7188,211.2031 50.6172,209.5781 Q49.5156,207.9531 49.5156,204.7813 Z "/><text fill="#000000" font-family="sans-serif" font-size="12" font-style="italic" lengthAdjust="spacingAndGlyphs" textLength="87" x="71.25" y="202.1387">«Data Object»</text><text fill="#000000" font-family="sans-serif" font-size="12" lengthAdjust="spacingAndGlyphs" textLength="83" x="73.25" y="216.1074">ContractType</text><line style="stroke: #A80036; stroke-width: 1.5;" x1="15" x2="183" y1="223.9375" y2="223.9375"/><ellipse cx="25" cy="235.8398" fill="none" rx="3" ry="3" style="stroke: #038048; stroke-width: 1.0;"/><text fill="#000000" font-family="sans-serif" font-size="11" lengthAdjust="spacingAndGlyphs" textLength="106" x="34" y="238.1479">contract : Contract</text><ellipse cx="25" cy="248.6445" fill="none" rx="3" ry="3" style="stroke: #038048; stroke-width: 1.0;"/><text fill="#000000" font-family="sans-serif" font-size="11" lengthAdjust="spacingAndGlyphs" textLength="47" x="34" y="250.9526">abi : ABI</text><ellipse cx="25" cy="261.4492" fill="none" rx="3" ry="3" style="stroke: #038048; stroke-width: 1.0;"/><text fill="#000000" font-family="sans-serif" font-size="11" lengthAdjust="spacingAndGlyphs" textLength="144" x="34" y="263.7573">compilation : Compilation</text><line style="stroke: #A80036; stroke-width: 1.5;" x1="15" x2="183" y1="270.3516" y2="270.3516"/><!--link ContractConstructor to ContractType--><path d="M99,139.44 C99,155.186 99,171.44 99,185.8034 " fill="none" id="ContractConstructor-ContractType" style="stroke: #A80036; stroke-width: 1.0;"/><polygon fill="#A80036" points="99,126.386,95,132.386,99,138.386,103,132.386,99,126.386" style="stroke: #A80036; stroke-width: 1.0;"/><text fill="#000000" font-family="sans-serif" font-size="13" lengthAdjust="spacingAndGlyphs" textLength="8" x="89.3594" y="174.8478">1</text><!--link ContractConstructor to LinkValue--><path d="M204.911,67 C212.485,67 220.06,67 227.635,67 " fill="none" id="ContractConstructor-LinkValue" style="stroke: #A80036; stroke-width: 1.0;"/><polygon fill="#A80036" points="191.725,67,197.725,71,203.725,67,197.725,63,191.725,67" style="stroke: #A80036; stroke-width: 1.0;"/><text fill="#000000" font-family="sans-serif" font-size="13" lengthAdjust="spacingAndGlyphs" textLength="8" x="211.8077" y="62.5155">n</text><!--link LinkValue to LinkReference--><path d="M324,107.043 C324,131.047 324,161.87 324,186.774 " fill="none" id="LinkValue-LinkReference" style="stroke: #A80036; stroke-width: 1.0; stroke-dasharray: 7.0,7.0;"/><polygon fill="#A80036" points="324,191.9939,328,182.9939,324,186.9939,320,182.9939,324,191.9939" style="stroke: #A80036; stroke-width: 1.0;"/><text fill="#000000" font-family="sans-serif" font-size="13" lengthAdjust="spacingAndGlyphs" textLength="8" x="314.1922" y="180.9796">1</text><!--
@startuml












class ContractConstructor << (R,orchid) Resource >> {
  + name : String
  + compilation : Compilation
  + createBytecode : Bytecode
  + contractType : ContractType
  + linkValues : Set<LinkValue>
}





class LinkValue << (O,lawngreen) Data Object >> {
  + linkReference : LinkReference
  + value : Bytes
}

class LinkReference << (O,lawngreen) Data Object >> {
  + offsets : Array<ByteOffset>
  + length : Integer
}

class ContractType << (O,lawngreen) Data Object >> {
  + contract : Contract
  + abi : ABI
  + compilation : Compilation
}













ContractConstructor *- - "1" ContractType






ContractConstructor *-right- "n" LinkValue










LinkValue ..> "1" LinkReference

@enduml

PlantUML version 1.2018.14(Fri Dec 21 16:33:16 UTC 2018)
(GPL source distribution)
Java Runtime: Java(TM) SE Runtime Environment
JVM: Java HotSpot(TM) 64-Bit Server VM
Java Version: 1.8.0_151-b12
Operating System: Linux
OS Version: 4.4.0-101-generic
Default Encoding: UTF-8
Language: en
Country: US
--></g></svg>